%TF.GenerationSoftware,KiCad,Pcbnew,9.0.3*%
%TF.CreationDate,2025-09-14T16:33:05+03:00*%
%TF.ProjectId,Right,52696768-742e-46b6-9963-61645f706362,rev?*%
%TF.SameCoordinates,Original*%
%TF.FileFunction,Copper,L1,Top*%
%TF.FilePolarity,Positive*%
%FSLAX46Y46*%
G04 Gerber Fmt 4.6, Leading zero omitted, Abs format (unit mm)*
G04 Created by KiCad (PCBNEW 9.0.3) date 2025-09-14 16:33:05*
%MOMM*%
%LPD*%
G01*
G04 APERTURE LIST*
G04 Aperture macros list*
%AMRoundRect*
0 Rectangle with rounded corners*
0 $1 Rounding radius*
0 $2 $3 $4 $5 $6 $7 $8 $9 X,Y pos of 4 corners*
0 Add a 4 corners polygon primitive as box body*
4,1,4,$2,$3,$4,$5,$6,$7,$8,$9,$2,$3,0*
0 Add four circle primitives for the rounded corners*
1,1,$1+$1,$2,$3*
1,1,$1+$1,$4,$5*
1,1,$1+$1,$6,$7*
1,1,$1+$1,$8,$9*
0 Add four rect primitives between the rounded corners*
20,1,$1+$1,$2,$3,$4,$5,0*
20,1,$1+$1,$4,$5,$6,$7,0*
20,1,$1+$1,$6,$7,$8,$9,0*
20,1,$1+$1,$8,$9,$2,$3,0*%
%AMFreePoly0*
4,1,72,0.663536,1.453536,0.664990,1.450312,0.674986,1.290376,0.684974,1.180502,0.694961,1.090620,0.704950,1.010707,0.714943,0.940757,0.734918,0.820906,0.764878,0.671101,0.824807,0.431389,0.834743,0.401581,0.834851,0.401213,0.844807,0.361389,0.934706,0.091692,0.964677,0.011772,1.004608,-0.088058,1.034593,-0.158023,1.074525,-0.247870,1.184421,-0.467662,1.234361,-0.557554,
1.274329,-0.627498,1.334250,-0.727365,1.404218,-0.837317,1.405000,-0.840001,1.405000,-0.860000,1.403536,-0.863536,1.402936,-0.864047,-0.017064,-1.894047,-0.020786,-1.894938,-0.024047,-1.892936,-0.094096,-1.792867,-0.094218,-1.792684,-0.164258,-1.682620,-0.244258,-1.552620,-0.244341,-1.552480,-0.324341,-1.412481,-0.384389,-1.302394,-0.384472,-1.302236,-0.524472,-1.022236,-0.524569,-1.022031,
-0.564525,-0.932131,-0.574472,-0.912236,-0.574596,-0.911970,-0.634596,-0.771971,-0.634642,-0.771857,-0.694683,-0.621756,-0.724682,-0.541756,-0.784714,-0.371664,-0.824743,-0.251582,-0.824789,-0.251437,-0.854808,-0.151375,-0.894808,-0.011374,-0.894852,-0.011213,-0.954851,0.228787,-0.954893,0.228971,-0.994893,0.418970,-1.024932,0.579178,-1.044932,0.699179,-1.044950,0.699293,-1.054950,0.769293,
-1.074969,0.929448,-1.084969,1.019448,-1.084984,1.019585,-1.094983,1.139584,-1.104990,1.279688,-1.114990,1.439688,-1.115000,1.440000,-1.115000,1.450000,-1.113536,1.453535,-1.110000,1.455000,0.660000,1.455000,0.663536,1.453536,0.663536,1.453536,$1*%
%AMFreePoly1*
4,1,7,0.150000,0.330000,0.150000,-0.365000,-0.150000,-0.365000,-0.150000,0.330000,-0.050000,0.370000,0.050000,0.370000,0.150000,0.330000,0.150000,0.330000,$1*%
%AMFreePoly2*
4,1,7,0.120000,-0.275000,0.050000,-0.315000,-0.050000,-0.315000,-0.120000,-0.275000,-0.120000,0.300000,0.120000,0.300000,0.120000,-0.275000,0.120000,-0.275000,$1*%
G04 Aperture macros list end*
%TA.AperFunction,SMDPad,CuDef*%
%ADD10R,2.000000X2.000000*%
%TD*%
%TA.AperFunction,SMDPad,CuDef*%
%ADD11R,2.000000X1.400000*%
%TD*%
%TA.AperFunction,SMDPad,CuDef*%
%ADD12R,0.500000X0.500000*%
%TD*%
%TA.AperFunction,SMDPad,CuDef*%
%ADD13RoundRect,0.200000X0.097506X0.347120X-0.282916X0.223514X-0.097506X-0.347120X0.282916X-0.223514X0*%
%TD*%
%TA.AperFunction,SMDPad,CuDef*%
%ADD14RoundRect,0.200000X-0.286774X-0.218542X0.091433X-0.348769X0.286774X0.218542X-0.091433X0.348769X0*%
%TD*%
%TA.AperFunction,SMDPad,CuDef*%
%ADD15RoundRect,0.200000X-0.360461X-0.008243X-0.131030X-0.335903X0.360461X0.008243X0.131030X0.335903X0*%
%TD*%
%TA.AperFunction,SMDPad,CuDef*%
%ADD16RoundRect,0.200000X-0.091433X-0.348769X0.286774X-0.218542X0.091433X0.348769X-0.286774X0.218542X0*%
%TD*%
%TA.AperFunction,SMDPad,CuDef*%
%ADD17FreePoly0,324.000000*%
%TD*%
%TA.AperFunction,SMDPad,CuDef*%
%ADD18FreePoly0,288.000000*%
%TD*%
%TA.AperFunction,SMDPad,CuDef*%
%ADD19FreePoly0,252.000000*%
%TD*%
%TA.AperFunction,SMDPad,CuDef*%
%ADD20FreePoly0,216.000000*%
%TD*%
%TA.AperFunction,SMDPad,CuDef*%
%ADD21FreePoly0,180.000000*%
%TD*%
%TA.AperFunction,SMDPad,CuDef*%
%ADD22FreePoly0,144.000000*%
%TD*%
%TA.AperFunction,SMDPad,CuDef*%
%ADD23FreePoly0,108.000000*%
%TD*%
%TA.AperFunction,SMDPad,CuDef*%
%ADD24FreePoly0,72.000000*%
%TD*%
%TA.AperFunction,SMDPad,CuDef*%
%ADD25FreePoly0,36.000000*%
%TD*%
%TA.AperFunction,SMDPad,CuDef*%
%ADD26FreePoly0,0.000000*%
%TD*%
%TA.AperFunction,SMDPad,CuDef*%
%ADD27C,0.858836*%
%TD*%
%TA.AperFunction,SMDPad,CuDef*%
%ADD28C,8.420022*%
%TD*%
%TA.AperFunction,SMDPad,CuDef*%
%ADD29RoundRect,0.200000X0.282916X0.223514X-0.097506X0.347120X-0.282916X-0.223514X0.097506X-0.347120X0*%
%TD*%
%TA.AperFunction,SMDPad,CuDef*%
%ADD30RoundRect,0.200000X0.300000X-0.200000X0.300000X0.200000X-0.300000X0.200000X-0.300000X-0.200000X0*%
%TD*%
%TA.AperFunction,SMDPad,CuDef*%
%ADD31R,1.800000X1.800000*%
%TD*%
%TA.AperFunction,SMDPad,CuDef*%
%ADD32R,2.200000X2.200000*%
%TD*%
%TA.AperFunction,SMDPad,CuDef*%
%ADD33RoundRect,0.200000X0.360262X0.014532X0.125148X0.338139X-0.360262X-0.014532X-0.125148X-0.338139X0*%
%TD*%
%TA.AperFunction,SMDPad,CuDef*%
%ADD34FreePoly1,0.000000*%
%TD*%
%TA.AperFunction,SMDPad,CuDef*%
%ADD35FreePoly2,0.000000*%
%TD*%
%TA.AperFunction,SMDPad,CuDef*%
%ADD36R,1.400000X1.600000*%
%TD*%
%TA.AperFunction,SMDPad,CuDef*%
%ADD37R,3.000000X3.000000*%
%TD*%
%TA.AperFunction,SMDPad,CuDef*%
%ADD38RoundRect,0.200000X-0.125148X0.338139X-0.360262X0.014532X0.125148X-0.338139X0.360262X-0.014532X0*%
%TD*%
%TA.AperFunction,SMDPad,CuDef*%
%ADD39RoundRect,0.200000X0.131030X-0.335903X0.360461X-0.008243X-0.131030X0.335903X-0.360461X0.008243X0*%
%TD*%
%TA.AperFunction,ComponentPad*%
%ADD40R,2.000000X2.000000*%
%TD*%
%TA.AperFunction,ViaPad*%
%ADD41C,0.500000*%
%TD*%
%TA.AperFunction,Conductor*%
%ADD42C,0.250000*%
%TD*%
%TA.AperFunction,Conductor*%
%ADD43C,0.140000*%
%TD*%
%TA.AperFunction,Conductor*%
%ADD44C,0.100000*%
%TD*%
%TA.AperFunction,Conductor*%
%ADD45C,0.200000*%
%TD*%
%TA.AperFunction,Conductor*%
%ADD46C,1.000000*%
%TD*%
%TA.AperFunction,Conductor*%
%ADD47C,0.040000*%
%TD*%
G04 APERTURE END LIST*
D10*
%TO.P,SW4,4,4*%
%TO.N,Net-(J6-Pin_3)*%
X89010000Y-173540000D03*
%TO.P,SW4,3,3*%
%TO.N,Net-(J6-Pin_2)*%
X89010000Y-179340000D03*
%TO.P,SW4,2,2*%
X85310000Y-173540000D03*
%TO.P,SW4,1,1*%
%TO.N,Net-(J6-Pin_1)*%
X85310000Y-179340000D03*
%TD*%
D11*
%TO.P,J6,3,Pin_3*%
%TO.N,Net-(J6-Pin_3)*%
X91420000Y-110340000D03*
%TO.P,J6,2,Pin_2*%
%TO.N,Net-(J6-Pin_2)*%
X91420000Y-108440000D03*
%TO.P,J6,1,Pin_1*%
%TO.N,Net-(J6-Pin_1)*%
X91420000Y-106540000D03*
%TD*%
D10*
%TO.P,J5,1,Pin_1*%
%TO.N,Net-(J1-Pin_23)*%
X143080000Y-140480000D03*
%TO.P,J5,2,Pin_2*%
%TO.N,Net-(J1-Pin_26)*%
X145280000Y-140480000D03*
%TO.P,J5,3,Pin_3*%
%TO.N,Net-(J1-Pin_25)*%
X147480000Y-140480000D03*
%TD*%
D12*
%TO.P,U1,1,A*%
%TO.N,Net-(J1-Pin_21)*%
X129730000Y-126300000D03*
%TO.P,U1,2,K*%
%TO.N,Net-(U1-K)*%
X130730000Y-126300000D03*
%TO.P,U1,3,C*%
%TO.N,Net-(J1-Pin_23)*%
X129730000Y-124300000D03*
%TO.P,U1,4,E*%
%TO.N,Net-(J1-Pin_19)*%
X130730000Y-124300000D03*
%TD*%
D13*
%TO.P,R6,1*%
%TO.N,Net-(R5-Pad2)*%
X115830634Y-124654590D03*
%TO.P,R6,2*%
%TO.N,Net-(R6-Pad2)*%
X114689366Y-125025410D03*
%TD*%
D14*
%TO.P,R3,1*%
%TO.N,Net-(R2-Pad2)*%
X114652689Y-110644659D03*
%TO.P,R3,2*%
%TO.N,Net-(R3-Pad2)*%
X115787311Y-111035341D03*
%TD*%
D15*
%TO.P,R4,1*%
%TO.N,Net-(R3-Pad2)*%
X118615854Y-113018509D03*
%TO.P,R4,2*%
%TO.N,Net-(R4-Pad2)*%
X119304146Y-114001491D03*
%TD*%
D16*
%TO.P,R2,1*%
%TO.N,Net-(R1-Pad2)*%
X110052689Y-111065341D03*
%TO.P,R2,2*%
%TO.N,Net-(R2-Pad2)*%
X111187311Y-110674659D03*
%TD*%
D17*
%TO.P,SW1,1,1*%
%TO.N,Net-(J1-Pin_1)*%
X107820000Y-116120000D03*
D18*
%TO.P,SW1,2,2*%
%TO.N,Net-(R1-Pad2)*%
X109790000Y-113440000D03*
D19*
%TO.P,SW1,3,3*%
%TO.N,Net-(R2-Pad2)*%
X112980000Y-112430000D03*
D20*
%TO.P,SW1,4,4*%
%TO.N,Net-(R3-Pad2)*%
X116140000Y-113480000D03*
D21*
%TO.P,SW1,5,5*%
%TO.N,Net-(R4-Pad2)*%
X118080000Y-116180000D03*
D22*
%TO.P,SW1,6,6*%
%TO.N,Net-(R5-Pad1)*%
X118060000Y-119520000D03*
D23*
%TO.P,SW1,7,7*%
%TO.N,Net-(R5-Pad2)*%
X116080000Y-122200000D03*
D24*
%TO.P,SW1,8,8*%
%TO.N,Net-(R6-Pad2)*%
X112910000Y-123210000D03*
D25*
%TO.P,SW1,9,9*%
%TO.N,Net-(R7-Pad2)*%
X109740000Y-122160000D03*
D26*
%TO.P,SW1,10,10*%
%TO.N,Net-(J1-Pin_4)*%
X107800000Y-119450000D03*
D27*
%TO.P,SW1,13,13*%
%TO.N,Net-(J1-Pin_2)*%
X109310000Y-117820000D03*
D28*
X112970000Y-117830000D03*
%TD*%
D29*
%TO.P,R7,1*%
%TO.N,Net-(R6-Pad2)*%
X111250634Y-124995410D03*
%TO.P,R7,2*%
%TO.N,Net-(R7-Pad2)*%
X110109366Y-124624590D03*
%TD*%
D30*
%TO.P,R9,1*%
%TO.N,Net-(J1-Pin_31)*%
X121810000Y-115100000D03*
%TO.P,R9,2*%
%TO.N,Net-(BT1-+)*%
X121810000Y-113900000D03*
%TD*%
D31*
%TO.P,SW3,1,1*%
%TO.N,Net-(J1-Pin_23)*%
X131250000Y-139550000D03*
%TO.P,SW3,2,2*%
%TO.N,Net-(J1-Pin_26)*%
X137750000Y-139550000D03*
%TO.P,SW3,3,3*%
X137750000Y-136450000D03*
%TO.P,SW3,4,4*%
%TO.N,Net-(J1-Pin_25)*%
X131250000Y-136450000D03*
%TD*%
D32*
%TO.P,BT1,1,+*%
%TO.N,Net-(BT1-+)*%
X115625000Y-104850000D03*
%TO.P,BT1,2,-*%
%TO.N,Net-(BT1--)*%
X115625000Y-102450000D03*
%TD*%
D12*
%TO.P,U2,1,A*%
%TO.N,Net-(U1-K)*%
X135800000Y-121220000D03*
%TO.P,U2,2,K*%
%TO.N,Net-(J1-Pin_22)*%
X135800000Y-120220000D03*
%TO.P,U2,3,C*%
%TO.N,Net-(J1-Pin_23)*%
X133800000Y-121220000D03*
%TO.P,U2,4,E*%
%TO.N,Net-(J1-Pin_20)*%
X133800000Y-120220000D03*
%TD*%
D33*
%TO.P,R8,1*%
%TO.N,Net-(R7-Pad2)*%
X107372671Y-122565410D03*
%TO.P,R8,2*%
%TO.N,Net-(J1-Pin_4)*%
X106667329Y-121594590D03*
%TD*%
D34*
%TO.P,J1,1,Pin_1*%
%TO.N,Net-(J1-Pin_1)*%
X103240000Y-179730000D03*
D35*
%TO.P,J1,2,Pin_2*%
%TO.N,Net-(J1-Pin_2)*%
X103490000Y-178980000D03*
D34*
%TO.P,J1,3,Pin_3*%
X103734118Y-179730000D03*
D35*
%TO.P,J1,4,Pin_4*%
%TO.N,Net-(J1-Pin_4)*%
X103983750Y-178980000D03*
D34*
%TO.P,J1,5,Pin_5*%
%TO.N,Net-(J1-Pin_5)*%
X104228235Y-179730000D03*
D35*
%TO.P,J1,6,Pin_6*%
X104477500Y-178980000D03*
D34*
%TO.P,J1,7,Pin_7*%
%TO.N,Net-(J1-Pin_7)*%
X104722353Y-179730000D03*
D35*
%TO.P,J1,8,Pin_8*%
%TO.N,Net-(J1-Pin_8)*%
X104971250Y-178980000D03*
D34*
%TO.P,J1,9,Pin_9*%
X105216471Y-179730000D03*
D35*
%TO.P,J1,10,Pin_10*%
%TO.N,unconnected-(J1-Pin_10-Pad10)*%
X105465000Y-178980000D03*
D34*
%TO.P,J1,11,Pin_11*%
%TO.N,unconnected-(J1-Pin_11-Pad11)*%
X105710588Y-179730000D03*
D35*
%TO.P,J1,12,Pin_12*%
%TO.N,Net-(J1-Pin_12)*%
X105958750Y-178980000D03*
D34*
%TO.P,J1,13,Pin_13*%
X106204706Y-179730000D03*
D35*
%TO.P,J1,14,Pin_14*%
%TO.N,unconnected-(J1-Pin_14-Pad14)*%
X106452500Y-178980000D03*
D34*
%TO.P,J1,15,Pin_15*%
%TO.N,Net-(D1-K)*%
X106698824Y-179730000D03*
D35*
%TO.P,J1,16,Pin_16*%
%TO.N,Net-(D1-A)*%
X106950000Y-178980000D03*
D34*
%TO.P,J1,17,Pin_17*%
%TO.N,Net-(D2-A)*%
X107192941Y-179730000D03*
D35*
%TO.P,J1,18,Pin_18*%
%TO.N,Net-(D2-K)*%
X107440000Y-178980000D03*
D34*
%TO.P,J1,19,Pin_19*%
%TO.N,Net-(J1-Pin_19)*%
X107687059Y-179730000D03*
D35*
%TO.P,J1,20,Pin_20*%
%TO.N,Net-(J1-Pin_20)*%
X107933750Y-178980000D03*
D34*
%TO.P,J1,21,Pin_21*%
%TO.N,Net-(J1-Pin_21)*%
X108181176Y-179730000D03*
D35*
%TO.P,J1,22,Pin_22*%
%TO.N,Net-(J1-Pin_22)*%
X108427500Y-178980000D03*
D34*
%TO.P,J1,23,Pin_23*%
%TO.N,Net-(J1-Pin_23)*%
X108675294Y-179730000D03*
D35*
%TO.P,J1,24,Pin_24*%
X108921250Y-178980000D03*
D34*
%TO.P,J1,25,Pin_25*%
%TO.N,Net-(J1-Pin_25)*%
X109169412Y-179730000D03*
D35*
%TO.P,J1,26,Pin_26*%
%TO.N,Net-(J1-Pin_26)*%
X109420000Y-178980000D03*
D34*
%TO.P,J1,27,Pin_27*%
%TO.N,unconnected-(J1-Pin_27-Pad27)*%
X109663529Y-179730000D03*
D35*
%TO.P,J1,28,Pin_28*%
%TO.N,unconnected-(J1-Pin_28-Pad28)*%
X109908750Y-178980000D03*
D34*
%TO.P,J1,29,Pin_29*%
%TO.N,unconnected-(J1-Pin_29-Pad29)*%
X110157647Y-179730000D03*
D35*
%TO.P,J1,30,Pin_30*%
%TO.N,unconnected-(J1-Pin_30-Pad30)*%
X110402500Y-178980000D03*
D34*
%TO.P,J1,31,Pin_31*%
%TO.N,Net-(J1-Pin_31)*%
X110651765Y-179730000D03*
D35*
%TO.P,J1,32,Pin_32*%
%TO.N,Net-(BT1--)*%
X110896250Y-178980000D03*
D34*
%TO.P,J1,33,Pin_33*%
%TO.N,Net-(J1-Pin_33)*%
X111145882Y-179730000D03*
D35*
%TO.P,J1,34,Pin_34*%
%TO.N,Net-(J1-Pin_34)*%
X111390000Y-178980000D03*
D34*
%TO.P,J1,35,Pin_35*%
%TO.N,Net-(J1-Pin_35)*%
X111640000Y-179730000D03*
%TD*%
D36*
%TO.P,RV1,1,1*%
%TO.N,Net-(J1-Pin_33)*%
X146870000Y-107120000D03*
%TO.P,RV1,2,2*%
%TO.N,Net-(J1-Pin_34)*%
X145050000Y-107120000D03*
%TO.P,RV1,3,3*%
%TO.N,Net-(J1-Pin_35)*%
X143230000Y-107120000D03*
D37*
%TO.P,RV1,SH*%
%TO.N,N/C*%
X148950000Y-111300000D03*
X141150000Y-111300000D03*
%TD*%
D38*
%TO.P,R5,1*%
%TO.N,Net-(R5-Pad1)*%
X119312671Y-121644590D03*
%TO.P,R5,2*%
%TO.N,Net-(R5-Pad2)*%
X118607329Y-122615410D03*
%TD*%
D39*
%TO.P,R1,1*%
%TO.N,Net-(J1-Pin_1)*%
X106655854Y-114001491D03*
%TO.P,R1,2*%
%TO.N,Net-(R1-Pad2)*%
X107344146Y-113018509D03*
%TD*%
D40*
%TO.P,SW2,1,B*%
%TO.N,Net-(J1-Pin_5)*%
X148340000Y-119260000D03*
X142110000Y-119280000D03*
%TO.P,SW2,2,C*%
%TO.N,Net-(J1-Pin_7)*%
X148340000Y-122050000D03*
%TO.P,SW2,3,A*%
X142110000Y-122040000D03*
%TD*%
D41*
%TO.N,Net-(D1-A)*%
X110430000Y-127500000D03*
%TO.N,Net-(D1-K)*%
X109830000Y-127920000D03*
%TO.N,Net-(D2-K)*%
X111660000Y-126500000D03*
%TO.N,Net-(D2-A)*%
X111210000Y-127120000D03*
%TO.N,Net-(J1-Pin_25)*%
X123630000Y-127910000D03*
X116732500Y-128192500D03*
%TO.N,Net-(J1-Pin_23)*%
X122300000Y-129190000D03*
X119050000Y-124950000D03*
X125475000Y-124950000D03*
%TO.N,Net-(J1-Pin_26)*%
X116775000Y-129100000D03*
X122970000Y-128570000D03*
%TO.N,Net-(J1-Pin_19)*%
X124620000Y-125825000D03*
X113900000Y-126340000D03*
%TO.N,Net-(J1-Pin_21)*%
X125975000Y-126425000D03*
X115915000Y-126435000D03*
%TO.N,Net-(J1-Pin_22)*%
X125225000Y-127250000D03*
X115650000Y-127525000D03*
%TO.N,Net-(J1-Pin_20)*%
X117840000Y-124910000D03*
X126175000Y-124300000D03*
%TO.N,Net-(J1-Pin_5)*%
X111510000Y-128570000D03*
%TO.N,Net-(J1-Pin_7)*%
X112510000Y-128560000D03*
%TD*%
D42*
%TO.N,Net-(J1-Pin_25)*%
X141034854Y-129520000D02*
G75*
G02*
X142670000Y-131155146I46J-1635100D01*
G01*
X123850000Y-136450000D02*
X131250000Y-136450000D01*
X122840377Y-135440377D02*
X122850000Y-135450000D01*
X142670000Y-131275705D02*
G75*
G02*
X141075705Y-132870000I-1594300J5D01*
G01*
X123630000Y-127910000D02*
X125240000Y-129520000D01*
X123791131Y-132870000D02*
G75*
G03*
X122840000Y-133821131I-31J-951100D01*
G01*
X122850000Y-135450000D02*
G75*
G03*
X123850000Y-136450000I1000000J0D01*
G01*
X125240000Y-129520000D02*
X141034854Y-129520000D01*
X142670000Y-131155146D02*
X142670000Y-131275705D01*
X141075705Y-132870000D02*
X123791131Y-132870000D01*
X122840000Y-133821131D02*
X122840377Y-133821508D01*
X122840377Y-133821508D02*
X122840377Y-135440377D01*
%TO.N,Net-(J1-Pin_23)*%
X125892209Y-139540000D02*
X131240000Y-139540000D01*
X121850000Y-133395566D02*
X121850000Y-135497791D01*
X121850000Y-135497791D02*
G75*
G03*
X125892209Y-139540000I4042200J-9D01*
G01*
D43*
%TO.N,Net-(J6-Pin_1)*%
X85650000Y-108160000D02*
X87270000Y-106540000D01*
X87180000Y-177470000D02*
X87180000Y-130210000D01*
X85620000Y-179030000D02*
X87180000Y-177470000D01*
X85650000Y-128680000D02*
X85650000Y-108160000D01*
X87270000Y-106540000D02*
X91420000Y-106540000D01*
X87180000Y-130210000D02*
X85650000Y-128680000D01*
%TO.N,Net-(J6-Pin_3)*%
X87606000Y-130000000D02*
X86070000Y-128464000D01*
X87606000Y-173540000D02*
X87606000Y-130000000D01*
X88710000Y-173540000D02*
X87606000Y-173540000D01*
X87340000Y-110340000D02*
X86070000Y-111610000D01*
X86070000Y-128464000D02*
X86070000Y-111610000D01*
X91420000Y-110340000D02*
X87340000Y-110340000D01*
%TO.N,Net-(J6-Pin_1)*%
X91730000Y-106440000D02*
X91420000Y-106440000D01*
%TO.N,Net-(J6-Pin_2)*%
X85310000Y-173540000D02*
X86750000Y-173540000D01*
X92440000Y-105420000D02*
X92790000Y-105770000D01*
X86750000Y-173540000D02*
X86750000Y-130440000D01*
X85220000Y-128910000D02*
X85220000Y-108000000D01*
X86750000Y-130440000D02*
X85220000Y-128910000D01*
X87800000Y-105420000D02*
X92440000Y-105420000D01*
X85220000Y-108000000D02*
X87800000Y-105420000D01*
X92790000Y-105770000D02*
X92790000Y-107380000D01*
X92790000Y-107380000D02*
X91730000Y-108440000D01*
X91730000Y-108440000D02*
X91420000Y-108440000D01*
D42*
%TO.N,Net-(J1-Pin_25)*%
X131250000Y-136450000D02*
X133430000Y-134270000D01*
X133430000Y-134270000D02*
X144060000Y-134270000D01*
X144060000Y-134270000D02*
X147420000Y-137630000D01*
X147420000Y-137630000D02*
X147420000Y-140220000D01*
X147420000Y-140220000D02*
X147180000Y-140460000D01*
%TO.N,Net-(J1-Pin_23)*%
X131250000Y-139550000D02*
X131250000Y-139650000D01*
X131250000Y-139650000D02*
X133360000Y-141760000D01*
X139490000Y-141760000D02*
X140760000Y-140490000D01*
X133360000Y-141760000D02*
X139490000Y-141760000D01*
X140760000Y-140490000D02*
X143380000Y-140490000D01*
%TO.N,Net-(J1-Pin_26)*%
X137750000Y-137970000D02*
X143130000Y-137970000D01*
X143130000Y-137970000D02*
X145280000Y-140120000D01*
X145280000Y-140120000D02*
X145280000Y-140460000D01*
D43*
%TO.N,Net-(D1-A)*%
X112790000Y-127660000D02*
X113425000Y-128295000D01*
X110430000Y-127500000D02*
X110590000Y-127660000D01*
X106160000Y-177275000D02*
X106950000Y-178065000D01*
X106160000Y-152288427D02*
X106160000Y-177275000D01*
X112839213Y-144780787D02*
X106745786Y-150874214D01*
X110590000Y-127660000D02*
X112790000Y-127660000D01*
X113425000Y-128295000D02*
X113425000Y-143366573D01*
X106950000Y-178065000D02*
X106950000Y-178980000D01*
X106745786Y-150874214D02*
G75*
G03*
X106160019Y-152288427I1414214J-1414186D01*
G01*
X113425000Y-143366573D02*
G75*
G02*
X112839227Y-144780801I-2000000J-27D01*
G01*
%TO.N,Net-(D1-K)*%
X112564213Y-144665787D02*
X106465786Y-150764214D01*
X109830000Y-127920000D02*
X109890000Y-127980000D01*
X105880000Y-177377500D02*
X106700000Y-178197500D01*
X112750000Y-127980000D02*
X113150000Y-128380000D01*
X109890000Y-127980000D02*
X112750000Y-127980000D01*
D44*
X106700000Y-179730000D02*
X106700000Y-178430000D01*
D43*
X106700000Y-178197500D02*
X106700000Y-178430000D01*
X105880000Y-152178427D02*
X105880000Y-177377500D01*
X113150000Y-128380000D02*
X113150000Y-143251573D01*
X113150000Y-143251573D02*
G75*
G02*
X112564227Y-144665801I-2000000J-27D01*
G01*
X106465786Y-150764214D02*
G75*
G03*
X105880019Y-152178427I1414214J-1414186D01*
G01*
%TO.N,Net-(D2-K)*%
X113950000Y-127590000D02*
X113950000Y-143631573D01*
X107450000Y-177840000D02*
X107450000Y-178980000D01*
X111660000Y-126500000D02*
X111790000Y-126630000D01*
X112990000Y-126630000D02*
X113950000Y-127590000D01*
X111790000Y-126630000D02*
X112990000Y-126630000D01*
X106720000Y-152518427D02*
X106720000Y-177110000D01*
X106720000Y-177110000D02*
X107450000Y-177840000D01*
X113364213Y-145045787D02*
X107305786Y-151104214D01*
X113950000Y-143631573D02*
G75*
G02*
X113364227Y-145045801I-2000000J-27D01*
G01*
X107305786Y-151104214D02*
G75*
G03*
X106720019Y-152518427I1414214J-1414186D01*
G01*
D44*
%TO.N,Net-(D2-A)*%
X106880000Y-177620000D02*
X107200000Y-177940000D01*
D43*
X106450000Y-177190000D02*
X106880000Y-177620000D01*
X111300000Y-127030000D02*
X113020000Y-127030000D01*
X106450000Y-152398427D02*
X106450000Y-177190000D01*
X111210000Y-127120000D02*
X111300000Y-127030000D01*
X113700000Y-127710000D02*
X113700000Y-143491573D01*
D44*
X107200000Y-177940000D02*
X107200000Y-179730000D01*
D43*
X113114213Y-144905787D02*
X107035786Y-150984214D01*
X113020000Y-127030000D02*
X113700000Y-127710000D01*
X113700000Y-143491573D02*
G75*
G02*
X113114227Y-144905801I-2000000J-27D01*
G01*
X107035786Y-150984214D02*
G75*
G03*
X106450019Y-152398427I1414214J-1414186D01*
G01*
D42*
%TO.N,Net-(BT1-+)*%
X121820000Y-112910000D02*
X121820000Y-113890000D01*
D43*
X115600000Y-104325000D02*
X115625000Y-104350000D01*
D42*
X115625000Y-106715000D02*
X121820000Y-112910000D01*
X121820000Y-113890000D02*
X121810000Y-113900000D01*
X115625000Y-104850000D02*
X115625000Y-106715000D01*
D44*
%TO.N,Net-(J1-Pin_31)*%
X110640000Y-178180000D02*
X110640000Y-179730000D01*
D42*
X117550000Y-145121573D02*
X117550000Y-128110000D01*
X110545786Y-152954214D02*
X116964213Y-146535787D01*
X110360000Y-177900000D02*
X109960000Y-177500000D01*
X117550000Y-128110000D02*
X121810000Y-123850000D01*
X109960000Y-177500000D02*
X109960000Y-154368427D01*
X121810000Y-123850000D02*
X121810000Y-115100000D01*
D44*
X110360000Y-177900000D02*
X110640000Y-178180000D01*
D42*
X109960000Y-154368427D02*
G75*
G02*
X110545772Y-152954200I2000000J27D01*
G01*
X116964213Y-146535787D02*
G75*
G03*
X117549981Y-145121573I-1414213J1414187D01*
G01*
D45*
%TO.N,Net-(J1-Pin_1)*%
X103119934Y-179609934D02*
X103240000Y-179730000D01*
X103119934Y-151598493D02*
X103119934Y-179609934D01*
X106830000Y-115130000D02*
X106830000Y-114175637D01*
X107820000Y-116120000D02*
X106230000Y-116120000D01*
D43*
X106830000Y-114175637D02*
X106655854Y-114001491D01*
D45*
X106230000Y-116120000D02*
X102550000Y-119800000D01*
X105480000Y-129820000D02*
X109720000Y-129820000D01*
X102550000Y-119800000D02*
X102550000Y-126890000D01*
X107820000Y-116120000D02*
X106830000Y-115130000D01*
X110134213Y-143755787D02*
X103705720Y-150184280D01*
X102550000Y-126890000D02*
X105480000Y-129820000D01*
X110720000Y-130820000D02*
X110720000Y-142341573D01*
X110720000Y-142341573D02*
G75*
G02*
X110134227Y-143755801I-2000000J-27D01*
G01*
X103705720Y-150184280D02*
G75*
G03*
X103119919Y-151598493I1414180J-1414220D01*
G01*
X109720000Y-129820000D02*
G75*
G02*
X110720000Y-130820000I0J-1000000D01*
G01*
D43*
%TO.N,Net-(R1-Pad2)*%
X109790000Y-113440000D02*
X109660000Y-113310000D01*
D45*
X109660000Y-113310000D02*
X107635637Y-113310000D01*
D43*
X109790000Y-113440000D02*
X109910000Y-113320000D01*
X107635637Y-113310000D02*
X107344146Y-113018509D01*
D45*
X109910000Y-113320000D02*
X109910000Y-111208030D01*
D43*
X109910000Y-111208030D02*
X110052689Y-111065341D01*
%TO.N,Net-(R2-Pad2)*%
X114515341Y-110644659D02*
X114652689Y-110644659D01*
X112980000Y-112430000D02*
X112980000Y-112330000D01*
D45*
X112980000Y-112180000D02*
X114515341Y-110644659D01*
D43*
X112980000Y-112430000D02*
X112980000Y-112180000D01*
X111324659Y-110674659D02*
X111187311Y-110674659D01*
D45*
X112980000Y-112330000D02*
X111324659Y-110674659D01*
%TO.N,Net-(R3-Pad2)*%
X116610000Y-113010000D02*
X118607345Y-113010000D01*
X115940000Y-113190000D02*
X115940000Y-111188030D01*
D43*
X115940000Y-111188030D02*
X115787311Y-111035341D01*
X116140000Y-113390000D02*
X115940000Y-113190000D01*
X116140000Y-113480000D02*
X116610000Y-113010000D01*
X118607345Y-113010000D02*
X118615854Y-113018509D01*
X116140000Y-113480000D02*
X116140000Y-113390000D01*
D45*
%TO.N,Net-(R4-Pad2)*%
X119130000Y-115130000D02*
X119130000Y-114175637D01*
D43*
X119130000Y-114175637D02*
X119304146Y-114001491D01*
X119304146Y-114001491D02*
X119289784Y-113987129D01*
D45*
X118080000Y-116180000D02*
X119130000Y-115130000D01*
D43*
%TO.N,Net-(R5-Pad1)*%
X119312671Y-121644590D02*
X119170000Y-121501919D01*
D45*
X119170000Y-121501919D02*
X119170000Y-120620000D01*
X119170000Y-120620000D02*
X118070000Y-119520000D01*
D43*
X118070000Y-119520000D02*
X118060000Y-119520000D01*
D45*
%TO.N,Net-(R5-Pad2)*%
X116000000Y-124485224D02*
X116000000Y-122280000D01*
D43*
X115830634Y-124654590D02*
X116000000Y-124485224D01*
X116000000Y-122280000D02*
X116080000Y-122200000D01*
X116080000Y-122200000D02*
X116495410Y-122615410D01*
D45*
X116495410Y-122615410D02*
X118528024Y-122615410D01*
D43*
%TO.N,Net-(R6-Pad2)*%
X112910000Y-123380000D02*
X112910000Y-123210000D01*
X112910000Y-123210000D02*
X112910000Y-123246044D01*
X112910000Y-123210000D02*
X112910000Y-123440000D01*
X111354590Y-124995410D02*
X111250634Y-124995410D01*
D45*
X112910000Y-123440000D02*
X111354590Y-124995410D01*
X114555410Y-125025410D02*
X112910000Y-123380000D01*
D43*
X114689366Y-125025410D02*
X114555410Y-125025410D01*
D45*
%TO.N,Net-(R7-Pad2)*%
X109930000Y-122350000D02*
X109930000Y-124445224D01*
D43*
X109740000Y-122160000D02*
X109930000Y-122350000D01*
X107377261Y-122570000D02*
X107372671Y-122565410D01*
D45*
X109330000Y-122570000D02*
X107377261Y-122570000D01*
D43*
X109930000Y-124445224D02*
X110109366Y-124624590D01*
X109740000Y-122160000D02*
X109330000Y-122570000D01*
D45*
%TO.N,Net-(J1-Pin_4)*%
X111580000Y-130699771D02*
X111580000Y-142771573D01*
X104533363Y-150647238D02*
X104453231Y-150737690D01*
X106810000Y-121451919D02*
X106810000Y-120440000D01*
X104012301Y-151717426D02*
X103997737Y-151837386D01*
X106810000Y-120440000D02*
X107800000Y-119450000D01*
X104453231Y-150737690D02*
X104378707Y-150832815D01*
X111378625Y-143647329D02*
X111322468Y-143754331D01*
X104247548Y-151035680D02*
X104191392Y-151142680D01*
X111116783Y-144052324D02*
X111036650Y-144142776D01*
X111036650Y-144142776D02*
X110994213Y-144185787D01*
X111322468Y-143754331D02*
X111259953Y-143857746D01*
X111471069Y-143424143D02*
X111428219Y-143537133D01*
X104098949Y-151365864D02*
X104063000Y-151481234D01*
X111580000Y-142771573D02*
X111579577Y-142831994D01*
X104063000Y-151481234D02*
X104034082Y-151598564D01*
X111579577Y-142831994D02*
X111572282Y-142952616D01*
X104191392Y-151142680D02*
X104141798Y-151252875D01*
X103997737Y-151837386D02*
X103990443Y-151958006D01*
X104034082Y-151598564D02*
X104012301Y-151717426D01*
X111259953Y-143857746D02*
X111191308Y-143957198D01*
X103990443Y-151958006D02*
X103990000Y-152018427D01*
X111572282Y-142952616D02*
X111557718Y-143072577D01*
X111507019Y-143308772D02*
X111471069Y-143424143D01*
X107800000Y-119450000D02*
X104250000Y-119450000D01*
X103990000Y-152018427D02*
X103990000Y-178980000D01*
X111428219Y-143537133D02*
X111378625Y-143647329D01*
X111191308Y-143957198D02*
X111116783Y-144052324D01*
X104575786Y-150604214D02*
X104533363Y-150647238D01*
X104141798Y-151252875D02*
X104098949Y-151365864D01*
X104250000Y-119450000D02*
X103550000Y-120150000D01*
X103550000Y-120150000D02*
X103550000Y-126620000D01*
X103550000Y-126620000D02*
X105860000Y-128930000D01*
X111535937Y-143191441D02*
X111507019Y-143308772D01*
X110994213Y-144185787D02*
X104575786Y-150604214D01*
D43*
X106667329Y-121594590D02*
X106810000Y-121451919D01*
D45*
X104310063Y-150932265D02*
X104247548Y-151035680D01*
X105860000Y-128930000D02*
X109810229Y-128930000D01*
X111557718Y-143072577D02*
X111535937Y-143191441D01*
X104378707Y-150832815D02*
X104310063Y-150932265D01*
X109810229Y-128930000D02*
G75*
G02*
X111580000Y-130699771I-29J-1769800D01*
G01*
D43*
%TO.N,Net-(J1-Pin_25)*%
X115654214Y-146595786D02*
X109920000Y-152330000D01*
X116732500Y-128192500D02*
X116732500Y-128197500D01*
X116732500Y-128192500D02*
X116240000Y-128685000D01*
D44*
X109920000Y-152330000D02*
X109755786Y-152494214D01*
X109170000Y-153908427D02*
X109170000Y-179730000D01*
D43*
X116240000Y-128685000D02*
X116240000Y-145181573D01*
D44*
X109755786Y-152494214D02*
G75*
G03*
X109170019Y-153908427I1414214J-1414186D01*
G01*
D43*
X116240000Y-145181573D02*
G75*
G02*
X115654228Y-146595800I-2000000J-27D01*
G01*
%TO.N,Net-(J1-Pin_23)*%
X129670000Y-124300000D02*
X129730000Y-124300000D01*
X108920000Y-179215000D02*
X108670000Y-179465000D01*
X129020000Y-124950000D02*
X129670000Y-124300000D01*
X132810000Y-121220000D02*
X133800000Y-121220000D01*
X119050000Y-124950000D02*
X115850000Y-128150000D01*
D42*
X131240000Y-139540000D02*
X131250000Y-139550000D01*
D43*
X124550000Y-124950000D02*
X125475000Y-124950000D01*
X129730000Y-124300000D02*
X132810000Y-121220000D01*
X125475000Y-124950000D02*
X129020000Y-124950000D01*
X122300000Y-129190000D02*
X121800000Y-128690000D01*
D42*
X140937929Y-131930000D02*
X123315566Y-131930000D01*
X122300000Y-129190000D02*
X123540000Y-130430000D01*
D43*
X108670000Y-179465000D02*
X108670000Y-179730000D01*
D42*
X123540000Y-130430000D02*
X140962074Y-130430000D01*
D43*
X121800000Y-128690000D02*
X121800000Y-127700000D01*
X115850000Y-128150000D02*
X115850000Y-145091573D01*
X108920000Y-153678427D02*
X108920000Y-179215000D01*
X115264213Y-146505787D02*
X109505786Y-152264214D01*
X121800000Y-127700000D02*
X124550000Y-124950000D01*
D42*
X140962074Y-130430000D02*
G75*
G02*
X141700000Y-131167929I26J-737900D01*
G01*
X141700000Y-131167929D02*
G75*
G02*
X140937929Y-131930000I-762100J29D01*
G01*
D43*
X109505786Y-152264214D02*
G75*
G03*
X108920019Y-153678427I1414214J-1414186D01*
G01*
D42*
X123315566Y-131930000D02*
G75*
G03*
X121850000Y-133395566I34J-1465600D01*
G01*
D43*
X115264213Y-146505787D02*
G75*
G03*
X115849981Y-145091573I-1414213J1414187D01*
G01*
D42*
%TO.N,Net-(J1-Pin_26)*%
X123029944Y-132507026D02*
X122948058Y-132548750D01*
X142182270Y-131349733D02*
X142167645Y-131442078D01*
D46*
X137750000Y-139550000D02*
X137750000Y-137970000D01*
D42*
X142189603Y-131256525D02*
X142182270Y-131349733D01*
D43*
X116034213Y-146685787D02*
X110005786Y-152714214D01*
X116620000Y-129255000D02*
X116620000Y-145271573D01*
D42*
X142168297Y-130910750D02*
X142182505Y-131000442D01*
X142190000Y-131209777D02*
X142189603Y-131256525D01*
X122600790Y-132845346D02*
X122546770Y-132919698D01*
X141934903Y-131946955D02*
X141874183Y-132018051D01*
X141736978Y-132144885D02*
X141661339Y-132199841D01*
X141599084Y-130127327D02*
X141676513Y-130174774D01*
X141434274Y-130051352D02*
X141518172Y-130086102D01*
X123114851Y-132471855D02*
X123029944Y-132507026D01*
X141169916Y-129987890D02*
X141259607Y-130002094D01*
X123474011Y-132400404D02*
X123382391Y-132407618D01*
X141033981Y-129980370D02*
X141079386Y-129980767D01*
X122546770Y-132919698D02*
X122498750Y-132998058D01*
X142145821Y-131532990D02*
X142116930Y-131621911D01*
X142189999Y-131136376D02*
X142190000Y-131209777D01*
X141498316Y-132291140D02*
X141411938Y-132326920D01*
X142043052Y-130571278D02*
X142084280Y-130652189D01*
X141661339Y-132199841D02*
X141581621Y-132248693D01*
X142119033Y-130736086D02*
X142147096Y-130822450D01*
X122350000Y-133569963D02*
X122350000Y-135466542D01*
X141819034Y-130287124D02*
X141883247Y-130351335D01*
X142081152Y-131708290D02*
X142038707Y-131791596D01*
X123202256Y-132443453D02*
X123114851Y-132471855D01*
X122660477Y-132775463D02*
X122600790Y-132845346D01*
D46*
X137750000Y-137970000D02*
X137750000Y-136450000D01*
D42*
X141347908Y-130023292D02*
X141434274Y-130051352D01*
X122371997Y-133341620D02*
X122357618Y-133432391D01*
X122357618Y-133432391D02*
X122350404Y-133524011D01*
X124886710Y-138003252D02*
X137716748Y-138003252D01*
X141676513Y-130174774D02*
X141749980Y-130228149D01*
X141518172Y-130086102D02*
X141599084Y-130127327D01*
X123519963Y-132400000D02*
X123474011Y-132400404D01*
X122970000Y-128570000D02*
X124380370Y-129980370D01*
X122457026Y-133079944D02*
X122421855Y-133164851D01*
X122725463Y-132710477D02*
X122660477Y-132775463D01*
X141808072Y-132084163D02*
X141736978Y-132144885D01*
X141942224Y-130420386D02*
X141995602Y-130493851D01*
X142182505Y-131000442D02*
X142189631Y-131090971D01*
X142167645Y-131442078D02*
X142145821Y-131532990D01*
X123291620Y-132421997D02*
X123202256Y-132443453D01*
X123382391Y-132407618D02*
X123291620Y-132421997D01*
X122421855Y-133164851D02*
X122393453Y-133252256D01*
X141883247Y-130351335D02*
X141942224Y-130420386D01*
X141046554Y-132399602D02*
X140999806Y-132400000D01*
X141581621Y-132248693D02*
X141498316Y-132291140D01*
X141139761Y-132392266D02*
X141046554Y-132399602D01*
X137716748Y-138003252D02*
X137750000Y-137970000D01*
X141232106Y-132377640D02*
X141139761Y-132392266D01*
X140999806Y-132400000D02*
X123519963Y-132400000D01*
D43*
X116775000Y-129100000D02*
X116620000Y-129255000D01*
X116775000Y-129100000D02*
X116675000Y-129200000D01*
D42*
X142189631Y-131090971D02*
X142189999Y-131136376D01*
X142084280Y-130652189D02*
X142119033Y-130736086D01*
X142147096Y-130822450D02*
X142168297Y-130910750D01*
X122795346Y-132650790D02*
X122725463Y-132710477D01*
X122498750Y-132998058D02*
X122457026Y-133079944D01*
X142038707Y-131791596D02*
X141989857Y-131871315D01*
X141259607Y-130002094D02*
X141347908Y-130023292D01*
X141749980Y-130228149D02*
X141819034Y-130287124D01*
X124380370Y-129980370D02*
X141033981Y-129980370D01*
X141995602Y-130493851D02*
X142043052Y-130571278D01*
X122869698Y-132596770D02*
X122795346Y-132650790D01*
X142116930Y-131621911D02*
X142081152Y-131708290D01*
X141874183Y-132018051D02*
X141808072Y-132084163D01*
X141323018Y-132355813D02*
X141232106Y-132377640D01*
X141989857Y-131871315D02*
X141934903Y-131946955D01*
X141079386Y-129980767D02*
X141169916Y-129987890D01*
X122948058Y-132548750D02*
X122869698Y-132596770D01*
X122393453Y-133252256D02*
X122371997Y-133341620D01*
X122350404Y-133524011D02*
X122350000Y-133569963D01*
D43*
X109420000Y-154128427D02*
X109420000Y-178980000D01*
D42*
X141411938Y-132326920D02*
X141323018Y-132355813D01*
X122350000Y-135466542D02*
G75*
G03*
X124886710Y-138003200I2536700J42D01*
G01*
D43*
X109420000Y-154128427D02*
G75*
G02*
X110005772Y-152714200I2000000J27D01*
G01*
X116620000Y-145271573D02*
G75*
G02*
X116034227Y-146685801I-2000000J-27D01*
G01*
%TO.N,Net-(J1-Pin_19)*%
X114490000Y-126930000D02*
X113900000Y-126340000D01*
X124620000Y-125825000D02*
X124845000Y-125600000D01*
X108460000Y-151330000D02*
X113904214Y-145885786D01*
D44*
X107690000Y-179720000D02*
X107680000Y-179730000D01*
D43*
X124845000Y-125600000D02*
X129430000Y-125600000D01*
X107680000Y-179730000D02*
X107680000Y-179580000D01*
D44*
X107690000Y-152928427D02*
X107690000Y-179720000D01*
D43*
X129430000Y-125600000D02*
X130730000Y-124300000D01*
X114490000Y-144471573D02*
X114490000Y-126930000D01*
D44*
X108460000Y-151330000D02*
X108275786Y-151514214D01*
D43*
X114490000Y-144471573D02*
G75*
G02*
X113904228Y-145885800I-2000000J-27D01*
G01*
D44*
X108275786Y-151514214D02*
G75*
G03*
X107690019Y-152928427I1414214J-1414186D01*
G01*
D43*
%TO.N,Net-(U1-K)*%
X138200000Y-126580000D02*
X138200000Y-123090000D01*
X136460000Y-128320000D02*
X138200000Y-126580000D01*
X132750000Y-128320000D02*
X136460000Y-128320000D01*
X130730000Y-126300000D02*
X132750000Y-128320000D01*
X138200000Y-123090000D02*
X136330000Y-121220000D01*
X136330000Y-121220000D02*
X135800000Y-121220000D01*
D44*
%TO.N,Net-(J1-Pin_21)*%
X108180000Y-153298427D02*
X108180000Y-179730000D01*
D43*
X126100000Y-126300000D02*
X129730000Y-126300000D01*
X115915000Y-126435000D02*
X115050000Y-127300000D01*
D44*
X108970000Y-151680000D02*
X108765786Y-151884214D01*
D43*
X115050000Y-127300000D02*
X115050000Y-144771573D01*
X125975000Y-126425000D02*
X126100000Y-126300000D01*
X114464214Y-146185786D02*
X108970000Y-151680000D01*
D44*
X108180000Y-153298427D02*
G75*
G02*
X108765772Y-151884200I2000000J27D01*
G01*
D43*
X115050000Y-144771573D02*
G75*
G02*
X114464228Y-146185800I-2000000J-27D01*
G01*
%TO.N,Net-(J1-Pin_22)*%
X115650000Y-127525000D02*
X115310000Y-127865000D01*
X115310000Y-127865000D02*
X115310000Y-144901573D01*
X108430000Y-153438427D02*
X108430000Y-178980000D01*
X138510000Y-126710000D02*
X138510000Y-122930000D01*
X114724213Y-146315787D02*
X109015786Y-152024214D01*
X136620000Y-128600000D02*
X138510000Y-126710000D01*
X138510000Y-122930000D02*
X135870000Y-120290000D01*
X131240000Y-127250000D02*
X132590000Y-128600000D01*
X125225000Y-127250000D02*
X131240000Y-127250000D01*
X132590000Y-128600000D02*
X136620000Y-128600000D01*
X115310000Y-144901573D02*
G75*
G02*
X114724227Y-146315801I-2000000J-27D01*
G01*
X108430000Y-153438427D02*
G75*
G02*
X109015772Y-152024200I2000000J27D01*
G01*
%TO.N,Net-(J1-Pin_20)*%
X114780000Y-126700000D02*
X114780000Y-144601573D01*
X132800000Y-120220000D02*
X133800000Y-120220000D01*
X107930000Y-153108427D02*
X107930000Y-178980000D01*
X117840000Y-124910000D02*
X117040000Y-125710000D01*
X117040000Y-125710000D02*
X115770000Y-125710000D01*
X128720000Y-124300000D02*
X132800000Y-120220000D01*
X114194213Y-146015787D02*
X108515786Y-151694214D01*
X126175000Y-124300000D02*
X128720000Y-124300000D01*
X115770000Y-125710000D02*
X114780000Y-126700000D01*
X114780000Y-144601573D02*
G75*
G02*
X114194227Y-146015801I-2000000J-27D01*
G01*
X108515786Y-151694214D02*
G75*
G03*
X107930019Y-153108427I1414214J-1414186D01*
G01*
D42*
%TO.N,Net-(BT1--)*%
X116075000Y-100700000D02*
X115625000Y-101150000D01*
D43*
X110890000Y-178980000D02*
X110890000Y-177830000D01*
D42*
X118125000Y-145341573D02*
X118125000Y-128315000D01*
D43*
X110890000Y-177830000D02*
X110690000Y-177630000D01*
D42*
X111120786Y-153174214D02*
X117539213Y-146755787D01*
X123175000Y-101175000D02*
X122700000Y-100700000D01*
X110535000Y-177475000D02*
X110535000Y-154588427D01*
X122700000Y-100700000D02*
X116075000Y-100700000D01*
X118125000Y-128315000D02*
X123175000Y-123265000D01*
X115625000Y-101150000D02*
X115625000Y-102450000D01*
X123175000Y-123265000D02*
X123175000Y-101175000D01*
X110690000Y-177630000D02*
X110535000Y-177475000D01*
X110535000Y-154588427D02*
G75*
G02*
X111120772Y-153174200I2000000J27D01*
G01*
X117539213Y-146755787D02*
G75*
G03*
X118124981Y-145341573I-1414213J1414187D01*
G01*
D43*
%TO.N,Net-(J1-Pin_5)*%
X104230000Y-179455000D02*
X104230000Y-179580000D01*
X112070000Y-129130000D02*
X112070000Y-129810000D01*
X111510000Y-128570000D02*
X112070000Y-129130000D01*
D46*
X142110000Y-119280000D02*
X148320000Y-119280000D01*
D43*
X148320000Y-119280000D02*
X148340000Y-119260000D01*
X112070000Y-129810000D02*
X112070000Y-143021573D01*
X111484213Y-144435787D02*
X105061350Y-150858650D01*
X104480000Y-179205000D02*
X104230000Y-179455000D01*
X104480000Y-152262153D02*
X104480000Y-179205000D01*
X112070000Y-143021573D02*
G75*
G02*
X111484227Y-144435801I-2000000J-27D01*
G01*
X105061350Y-150858650D02*
G75*
G03*
X104479981Y-152262153I1403550J-1403550D01*
G01*
%TO.N,Net-(J1-Pin_35)*%
X127100000Y-109360000D02*
X128610000Y-107850000D01*
X119300000Y-129750000D02*
X127100000Y-121950000D01*
X119300000Y-145771573D02*
X119300000Y-129750000D01*
X127100000Y-121950000D02*
X127100000Y-109360000D01*
X142500000Y-107850000D02*
X143230000Y-107120000D01*
X128610000Y-107850000D02*
X142500000Y-107850000D01*
X112295786Y-153604214D02*
X118714213Y-147185787D01*
X111640000Y-179690000D02*
X111710000Y-179620000D01*
X111710000Y-179620000D02*
X111710000Y-155018427D01*
X111710000Y-155018427D02*
G75*
G02*
X112295772Y-153604200I2000000J27D01*
G01*
X118714213Y-147185787D02*
G75*
G03*
X119299981Y-145771573I-1414213J1414187D01*
G01*
%TO.N,Net-(J1-Pin_34)*%
X111390000Y-178980000D02*
X111390000Y-154938427D01*
X118980000Y-145691573D02*
X118980000Y-129645000D01*
X144760000Y-106060000D02*
X145050000Y-106350000D01*
X128480000Y-107510000D02*
X140350000Y-107510000D01*
X140350000Y-107510000D02*
X141800000Y-106060000D01*
X141800000Y-106060000D02*
X144760000Y-106060000D01*
X145050000Y-107830000D02*
X145050000Y-107120000D01*
X118980000Y-129645000D02*
X126790000Y-121835000D01*
X126790000Y-121835000D02*
X126790000Y-109200000D01*
X126790000Y-109200000D02*
X128480000Y-107510000D01*
X145050000Y-106350000D02*
X145050000Y-107120000D01*
X111975786Y-153524214D02*
X118394213Y-147105787D01*
X118394213Y-147105787D02*
G75*
G03*
X118979981Y-145691573I-1414213J1414187D01*
G01*
X111390000Y-154938427D02*
G75*
G02*
X111975772Y-153524200I2000000J27D01*
G01*
%TO.N,Net-(J1-Pin_2)*%
X103740000Y-179455000D02*
X103490000Y-179205000D01*
X103490000Y-179205000D02*
X103490000Y-178980000D01*
D45*
X103050000Y-120010000D02*
X103050000Y-126750000D01*
X105240000Y-117820000D02*
X103050000Y-120010000D01*
D47*
X109710000Y-120040000D02*
X109960000Y-120040000D01*
D45*
X103540000Y-151808427D02*
X103540000Y-178930000D01*
D43*
X103740000Y-179730000D02*
X103740000Y-179455000D01*
D45*
X103540000Y-178930000D02*
X103490000Y-178980000D01*
X110554213Y-143965787D02*
X104125786Y-150394214D01*
X103050000Y-126750000D02*
X105670000Y-129370000D01*
X105670000Y-129370000D02*
X109777915Y-129370000D01*
X111140000Y-130732085D02*
X111140000Y-142551573D01*
D44*
X109310000Y-117820000D02*
X106180000Y-117820000D01*
D45*
X106180000Y-117820000D02*
X105240000Y-117820000D01*
X111140000Y-142551573D02*
G75*
G02*
X110554227Y-143965801I-2000000J-27D01*
G01*
X104125786Y-150394214D02*
G75*
G03*
X103540019Y-151808427I1414214J-1414186D01*
G01*
X109777915Y-129370000D02*
G75*
G02*
X111140000Y-130732085I-15J-1362100D01*
G01*
D43*
%TO.N,Net-(J1-Pin_12)*%
X106210000Y-179450000D02*
X106210000Y-179730000D01*
X105960000Y-179200000D02*
X106210000Y-179450000D01*
X105960000Y-178980000D02*
X105960000Y-179200000D01*
D46*
%TO.N,Net-(J1-Pin_7)*%
X142120000Y-122050000D02*
X142110000Y-122040000D01*
X148340000Y-122050000D02*
X142120000Y-122050000D01*
D44*
X104730000Y-152398427D02*
X104730000Y-179730000D01*
D43*
X112510000Y-128560000D02*
X112320000Y-128750000D01*
D44*
X105430000Y-150870000D02*
X105315786Y-150984214D01*
D43*
X111734214Y-144565786D02*
X105430000Y-150870000D01*
X112320000Y-128750000D02*
X112320000Y-143151573D01*
D44*
X104730000Y-152398427D02*
G75*
G02*
X105315772Y-150984200I2000000J27D01*
G01*
D43*
X112320000Y-143151573D02*
G75*
G02*
X111734228Y-144565800I-2000000J-27D01*
G01*
%TO.N,Net-(J1-Pin_8)*%
X105220000Y-179460000D02*
X105220000Y-179730000D01*
X104980000Y-179220000D02*
X105220000Y-179460000D01*
X104980000Y-178980000D02*
X104980000Y-179220000D01*
%TO.N,Net-(J1-Pin_33)*%
X126490000Y-121735000D02*
X126490000Y-109050000D01*
X128370000Y-107170000D02*
X140237500Y-107170000D01*
X141627500Y-105780000D02*
X146330000Y-105780000D01*
X146870000Y-106320000D02*
X146870000Y-107120000D01*
X126490000Y-109050000D02*
X128370000Y-107170000D01*
X111645786Y-153404214D02*
X118064213Y-146985787D01*
D44*
X111144000Y-177464000D02*
X111060000Y-177380000D01*
D43*
X118650000Y-129575000D02*
X126490000Y-121735000D01*
X118650000Y-145571573D02*
X118650000Y-129575000D01*
X111060000Y-177380000D02*
X111060000Y-154818427D01*
X146330000Y-105780000D02*
X146870000Y-106320000D01*
X140237500Y-107170000D02*
X141627500Y-105780000D01*
X111145882Y-179730000D02*
X111144000Y-179728118D01*
D44*
X111144000Y-179728118D02*
X111144000Y-177464000D01*
D43*
X111060000Y-154818427D02*
G75*
G02*
X111645772Y-153404200I2000000J27D01*
G01*
X118064213Y-146985787D02*
G75*
G03*
X118649981Y-145571573I-1414213J1414187D01*
G01*
%TD*%
%TA.AperFunction,NonConductor*%
G36*
X109473039Y-100120185D02*
G01*
X109518794Y-100172989D01*
X109530000Y-100224500D01*
X109530000Y-106708638D01*
X109521355Y-106738078D01*
X109514832Y-106768065D01*
X109511077Y-106773080D01*
X109510315Y-106775677D01*
X109493681Y-106796319D01*
X109486319Y-106803681D01*
X109424996Y-106837166D01*
X109398638Y-106840000D01*
X101124000Y-106840000D01*
X101056961Y-106820315D01*
X101011206Y-106767511D01*
X101000000Y-106716000D01*
X101000000Y-100224500D01*
X101019685Y-100157461D01*
X101072489Y-100111706D01*
X101124000Y-100100500D01*
X109406000Y-100100500D01*
X109473039Y-100120185D01*
G37*
%TD.AperFunction*%
%TA.AperFunction,Conductor*%
%TO.N,Net-(D1-A)*%
G36*
X110577198Y-127300745D02*
G01*
X110578939Y-127302179D01*
X110863333Y-127586573D01*
X110866760Y-127594846D01*
X110866760Y-127718749D01*
X110863333Y-127727022D01*
X110855518Y-127730440D01*
X110488717Y-127744806D01*
X110480316Y-127741706D01*
X110476793Y-127735443D01*
X110475777Y-127730440D01*
X110429974Y-127504798D01*
X110431685Y-127496009D01*
X110560961Y-127303918D01*
X110568422Y-127298969D01*
X110577198Y-127300745D01*
G37*
%TD.AperFunction*%
%TD*%
%TA.AperFunction,Conductor*%
%TO.N,Net-(D1-K)*%
G36*
X109978305Y-127717429D02*
G01*
X110314584Y-127906645D01*
X110320113Y-127913688D01*
X110320546Y-127916841D01*
X110320546Y-128040960D01*
X110317119Y-128049233D01*
X110311798Y-128052281D01*
X109890732Y-128162077D01*
X109881862Y-128160849D01*
X109876459Y-128153708D01*
X109876314Y-128153084D01*
X109829974Y-127924798D01*
X109831685Y-127916009D01*
X109962863Y-127721092D01*
X109970324Y-127716143D01*
X109978305Y-127717429D01*
G37*
%TD.AperFunction*%
%TD*%
%TA.AperFunction,Conductor*%
%TO.N,Net-(D2-K)*%
G36*
X111807907Y-126299692D02*
G01*
X111808841Y-126300392D01*
X112117324Y-126556491D01*
X112121501Y-126564411D01*
X112121551Y-126565492D01*
X112121551Y-126689511D01*
X112118124Y-126697784D01*
X112111124Y-126701141D01*
X111719387Y-126744033D01*
X111710790Y-126741527D01*
X111706649Y-126734732D01*
X111659974Y-126504798D01*
X111661685Y-126496009D01*
X111791669Y-126302865D01*
X111799131Y-126297916D01*
X111807907Y-126299692D01*
G37*
%TD.AperFunction*%
%TD*%
%TA.AperFunction,Conductor*%
%TO.N,Net-(D2-A)*%
G36*
X111678696Y-126958130D02*
G01*
X111686144Y-126963101D01*
X111688119Y-126969606D01*
X111688119Y-127093764D01*
X111684692Y-127102037D01*
X111682943Y-127103476D01*
X111358597Y-127321348D01*
X111349819Y-127323117D01*
X111342366Y-127318168D01*
X111211733Y-127124061D01*
X111209957Y-127115285D01*
X111209974Y-127115201D01*
X111213060Y-127100000D01*
X111256456Y-126886217D01*
X111261459Y-126878793D01*
X111270198Y-126877071D01*
X111678696Y-126958130D01*
G37*
%TD.AperFunction*%
%TD*%
%TA.AperFunction,Conductor*%
%TO.N,Net-(J1-Pin_25)*%
G36*
X116534464Y-128060331D02*
G01*
X116536241Y-128061298D01*
X116645401Y-128133619D01*
X116731226Y-128190481D01*
X116734518Y-128193773D01*
X116863698Y-128388752D01*
X116865410Y-128397541D01*
X116860406Y-128404968D01*
X116858623Y-128405938D01*
X116439152Y-128588964D01*
X116430199Y-128589131D01*
X116426200Y-128586513D01*
X116338486Y-128498799D01*
X116335059Y-128490526D01*
X116336033Y-128485853D01*
X116519062Y-128066375D01*
X116525511Y-128060164D01*
X116534464Y-128060331D01*
G37*
%TD.AperFunction*%
%TD*%
%TA.AperFunction,Conductor*%
%TO.N,Net-(J1-Pin_23)*%
G36*
X118851964Y-124817831D02*
G01*
X118853741Y-124818798D01*
X118962901Y-124891119D01*
X119048726Y-124947981D01*
X119052018Y-124951273D01*
X119181198Y-125146252D01*
X119182910Y-125155041D01*
X119177906Y-125162468D01*
X119176123Y-125163438D01*
X118756652Y-125346464D01*
X118747699Y-125346631D01*
X118743700Y-125344013D01*
X118655986Y-125256299D01*
X118652559Y-125248026D01*
X118653533Y-125243353D01*
X118836562Y-124823875D01*
X118843011Y-124817664D01*
X118851964Y-124817831D01*
G37*
%TD.AperFunction*%
%TD*%
%TA.AperFunction,Conductor*%
%TO.N,Net-(J1-Pin_23)*%
G36*
X125422211Y-124710060D02*
G01*
X125428423Y-124716510D01*
X125428998Y-124718456D01*
X125475527Y-124947672D01*
X125475527Y-124952328D01*
X125428998Y-125181543D01*
X125423994Y-125188969D01*
X125415204Y-125190681D01*
X125413258Y-125190106D01*
X124987230Y-125022914D01*
X124980780Y-125016702D01*
X124979804Y-125012023D01*
X124979804Y-124887976D01*
X124983231Y-124879703D01*
X124987227Y-124877086D01*
X125413259Y-124709893D01*
X125422211Y-124710060D01*
G37*
%TD.AperFunction*%
%TD*%
%TA.AperFunction,Conductor*%
%TO.N,Net-(J1-Pin_23)*%
G36*
X125536738Y-124709892D02*
G01*
X125962771Y-124877086D01*
X125969220Y-124883297D01*
X125970196Y-124887976D01*
X125970196Y-125012023D01*
X125966769Y-125020296D01*
X125962770Y-125022914D01*
X125536741Y-125190106D01*
X125527788Y-125189939D01*
X125521576Y-125183489D01*
X125521002Y-125181548D01*
X125474472Y-124952325D01*
X125474472Y-124947674D01*
X125521002Y-124718454D01*
X125526005Y-124711030D01*
X125534795Y-124709318D01*
X125536738Y-124709892D01*
G37*
%TD.AperFunction*%
%TD*%
%TA.AperFunction,Conductor*%
%TO.N,Net-(J1-Pin_23)*%
G36*
X122006647Y-128793534D02*
G01*
X122426123Y-128976561D01*
X122432335Y-128983011D01*
X122432168Y-128991964D01*
X122431198Y-128993747D01*
X122302018Y-129188726D01*
X122298726Y-129192018D01*
X122103747Y-129321198D01*
X122094958Y-129322910D01*
X122087531Y-129317906D01*
X122086561Y-129316123D01*
X122031839Y-129190707D01*
X121903534Y-128896649D01*
X121903368Y-128887699D01*
X121905984Y-128883702D01*
X121993701Y-128795985D01*
X122001973Y-128792559D01*
X122006647Y-128793534D01*
G37*
%TD.AperFunction*%
%TD*%
%TA.AperFunction,Conductor*%
%TO.N,Net-(J1-Pin_23)*%
G36*
X122513697Y-129061279D02*
G01*
X122514079Y-129061896D01*
X122707004Y-129396985D01*
X122734071Y-129443997D01*
X122735229Y-129452877D01*
X122732204Y-129458108D01*
X122568108Y-129622204D01*
X122559835Y-129625631D01*
X122553997Y-129624071D01*
X122550754Y-129622204D01*
X122171902Y-129404082D01*
X122166443Y-129396985D01*
X122167601Y-129388105D01*
X122167972Y-129387503D01*
X122297981Y-129191272D01*
X122301273Y-129187981D01*
X122497483Y-129057986D01*
X122506270Y-129056275D01*
X122513697Y-129061279D01*
G37*
%TD.AperFunction*%
%TD*%
%TA.AperFunction,Conductor*%
%TO.N,Net-(J1-Pin_26)*%
G36*
X116778991Y-129101686D02*
G01*
X116779061Y-129101733D01*
X116971278Y-129231094D01*
X116976229Y-129238557D01*
X116974453Y-129247333D01*
X116973157Y-129248934D01*
X116693449Y-129538193D01*
X116685234Y-129541758D01*
X116685038Y-129541760D01*
X116561115Y-129541760D01*
X116552842Y-129538333D01*
X116549430Y-129530660D01*
X116530321Y-129158834D01*
X116533319Y-129150396D01*
X116539676Y-129146769D01*
X116770201Y-129099974D01*
X116778991Y-129101686D01*
G37*
%TD.AperFunction*%
%TD*%
%TA.AperFunction,Conductor*%
%TO.N,Net-(J1-Pin_26)*%
G36*
X123183697Y-128441279D02*
G01*
X123184079Y-128441896D01*
X123377004Y-128776985D01*
X123404071Y-128823997D01*
X123405229Y-128832877D01*
X123402204Y-128838108D01*
X123238108Y-129002204D01*
X123229835Y-129005631D01*
X123223997Y-129004071D01*
X123220754Y-129002204D01*
X122841902Y-128784082D01*
X122836443Y-128776985D01*
X122837601Y-128768105D01*
X122837972Y-128767503D01*
X122967981Y-128571272D01*
X122971273Y-128567981D01*
X123167483Y-128437986D01*
X123176270Y-128436275D01*
X123183697Y-128441279D01*
G37*
%TD.AperFunction*%
%TD*%
%TA.AperFunction,Conductor*%
%TO.N,Net-(J1-Pin_19)*%
G36*
X114112468Y-126212093D02*
G01*
X114113438Y-126213876D01*
X114261597Y-126553438D01*
X114296464Y-126633347D01*
X114296631Y-126642300D01*
X114294013Y-126646299D01*
X114206299Y-126734013D01*
X114198026Y-126737440D01*
X114193348Y-126736464D01*
X113957017Y-126633347D01*
X113773876Y-126553438D01*
X113767664Y-126546988D01*
X113767831Y-126538035D01*
X113768795Y-126536262D01*
X113897981Y-126341272D01*
X113901273Y-126337981D01*
X114096254Y-126208800D01*
X114105041Y-126207089D01*
X114112468Y-126212093D01*
G37*
%TD.AperFunction*%
%TD*%
%TA.AperFunction,Conductor*%
%TO.N,Net-(J1-Pin_19)*%
G36*
X125017613Y-125533931D02*
G01*
X125021927Y-125541778D01*
X125021998Y-125543063D01*
X125021998Y-125666484D01*
X125020060Y-125672933D01*
X124834335Y-125954100D01*
X124826916Y-125959114D01*
X124818124Y-125957413D01*
X124818094Y-125957394D01*
X124623070Y-125827706D01*
X124618079Y-125820271D01*
X124618065Y-125820201D01*
X124617097Y-125815233D01*
X124573656Y-125592272D01*
X124575437Y-125583499D01*
X124582902Y-125578553D01*
X124583836Y-125578410D01*
X125009014Y-125531434D01*
X125017613Y-125533931D01*
G37*
%TD.AperFunction*%
%TD*%
%TA.AperFunction,Conductor*%
%TO.N,Net-(J1-Pin_21)*%
G36*
X126428327Y-126228754D02*
G01*
X126436129Y-126233150D01*
X126438622Y-126240369D01*
X126438622Y-126364418D01*
X126435195Y-126372691D01*
X126434283Y-126373512D01*
X126123825Y-126624826D01*
X126115239Y-126627368D01*
X126107370Y-126623093D01*
X126106757Y-126622264D01*
X125976733Y-126429061D01*
X125974957Y-126420285D01*
X125974974Y-126420201D01*
X126021624Y-126190386D01*
X126026628Y-126182962D01*
X126034494Y-126181101D01*
X126428327Y-126228754D01*
G37*
%TD.AperFunction*%
%TD*%
%TA.AperFunction,Conductor*%
%TO.N,Net-(J1-Pin_21)*%
G36*
X115716964Y-126302831D02*
G01*
X115718741Y-126303798D01*
X115827901Y-126376119D01*
X115913726Y-126432981D01*
X115917018Y-126436273D01*
X116046198Y-126631252D01*
X116047910Y-126640041D01*
X116042906Y-126647468D01*
X116041123Y-126648438D01*
X115621652Y-126831464D01*
X115612699Y-126831631D01*
X115608700Y-126829013D01*
X115520986Y-126741299D01*
X115517559Y-126733026D01*
X115518533Y-126728353D01*
X115701562Y-126308875D01*
X115708011Y-126302664D01*
X115716964Y-126302831D01*
G37*
%TD.AperFunction*%
%TD*%
%TA.AperFunction,Conductor*%
%TO.N,Net-(J1-Pin_22)*%
G36*
X115642287Y-127522497D02*
G01*
X115649752Y-127527443D01*
X115651526Y-127531707D01*
X115696785Y-127760165D01*
X115695031Y-127768947D01*
X115689099Y-127773508D01*
X115381843Y-127878733D01*
X115378052Y-127879364D01*
X115257423Y-127879364D01*
X115249150Y-127875937D01*
X115245723Y-127867664D01*
X115246593Y-127863237D01*
X115288729Y-127760165D01*
X115401168Y-127485119D01*
X115407470Y-127478759D01*
X115414233Y-127478064D01*
X115642287Y-127522497D01*
G37*
%TD.AperFunction*%
%TD*%
%TA.AperFunction,Conductor*%
%TO.N,Net-(J1-Pin_22)*%
G36*
X125286738Y-127009892D02*
G01*
X125712771Y-127177086D01*
X125719220Y-127183297D01*
X125720196Y-127187976D01*
X125720196Y-127312023D01*
X125716769Y-127320296D01*
X125712770Y-127322914D01*
X125286741Y-127490106D01*
X125277788Y-127489939D01*
X125271576Y-127483489D01*
X125271002Y-127481548D01*
X125224472Y-127252325D01*
X125224472Y-127247674D01*
X125271002Y-127018454D01*
X125276005Y-127011030D01*
X125284795Y-127009318D01*
X125286738Y-127009892D01*
G37*
%TD.AperFunction*%
%TD*%
%TA.AperFunction,Conductor*%
%TO.N,Net-(J1-Pin_20)*%
G36*
X117641964Y-124777831D02*
G01*
X117643741Y-124778798D01*
X117752901Y-124851119D01*
X117838726Y-124907981D01*
X117842018Y-124911273D01*
X117971198Y-125106252D01*
X117972910Y-125115041D01*
X117967906Y-125122468D01*
X117966123Y-125123438D01*
X117546652Y-125306464D01*
X117537699Y-125306631D01*
X117533700Y-125304013D01*
X117445986Y-125216299D01*
X117442559Y-125208026D01*
X117443533Y-125203353D01*
X117626562Y-124783875D01*
X117633011Y-124777664D01*
X117641964Y-124777831D01*
G37*
%TD.AperFunction*%
%TD*%
%TA.AperFunction,Conductor*%
%TO.N,Net-(J1-Pin_20)*%
G36*
X126236738Y-124059892D02*
G01*
X126662771Y-124227086D01*
X126669220Y-124233297D01*
X126670196Y-124237976D01*
X126670196Y-124362023D01*
X126666769Y-124370296D01*
X126662770Y-124372914D01*
X126236741Y-124540106D01*
X126227788Y-124539939D01*
X126221576Y-124533489D01*
X126221002Y-124531548D01*
X126174472Y-124302325D01*
X126174472Y-124297674D01*
X126221002Y-124068454D01*
X126226005Y-124061030D01*
X126234795Y-124059318D01*
X126236738Y-124059892D01*
G37*
%TD.AperFunction*%
%TD*%
%TA.AperFunction,Conductor*%
%TO.N,Net-(J1-Pin_5)*%
G36*
X111722468Y-128442093D02*
G01*
X111723438Y-128443876D01*
X111871597Y-128783438D01*
X111906464Y-128863347D01*
X111906631Y-128872300D01*
X111904013Y-128876299D01*
X111816299Y-128964013D01*
X111808026Y-128967440D01*
X111803348Y-128966464D01*
X111567017Y-128863347D01*
X111383876Y-128783438D01*
X111377664Y-128776988D01*
X111377831Y-128768035D01*
X111378795Y-128766262D01*
X111507981Y-128571272D01*
X111511273Y-128567981D01*
X111706254Y-128438800D01*
X111715041Y-128437089D01*
X111722468Y-128442093D01*
G37*
%TD.AperFunction*%
%TD*%
%TA.AperFunction,Conductor*%
%TO.N,Net-(J1-Pin_7)*%
G36*
X112278296Y-128513855D02*
G01*
X112293449Y-128516808D01*
X112505201Y-128558065D01*
X112512666Y-128563011D01*
X112512706Y-128563070D01*
X112642981Y-128758977D01*
X112644708Y-128767764D01*
X112640579Y-128774566D01*
X112393214Y-128973906D01*
X112385873Y-128976496D01*
X112262078Y-128976496D01*
X112253805Y-128973069D01*
X112250378Y-128964796D01*
X112250384Y-128964424D01*
X112263156Y-128563011D01*
X112264366Y-128524966D01*
X112268054Y-128516808D01*
X112276432Y-128513646D01*
X112278296Y-128513855D01*
G37*
%TD.AperFunction*%
%TD*%
%TA.AperFunction,Conductor*%
%TO.N,Net-(J1-Pin_25)*%
G36*
X123843697Y-127781279D02*
G01*
X123844079Y-127781896D01*
X124037004Y-128116985D01*
X124064071Y-128163997D01*
X124065229Y-128172877D01*
X124062204Y-128178108D01*
X123898108Y-128342204D01*
X123889835Y-128345631D01*
X123883997Y-128344071D01*
X123880754Y-128342204D01*
X123501902Y-128124082D01*
X123496443Y-128116985D01*
X123497601Y-128108105D01*
X123497972Y-128107503D01*
X123627981Y-127911272D01*
X123631273Y-127907981D01*
X123827483Y-127777986D01*
X123836270Y-127776275D01*
X123843697Y-127781279D01*
G37*
%TD.AperFunction*%
%TD*%
M02*
