%TF.GenerationSoftware,KiCad,Pcbnew,9.0.3*%
%TF.CreationDate,2025-08-12T13:31:59+03:00*%
%TF.ProjectId,Right,52696768-742e-46b6-9963-61645f706362,rev?*%
%TF.SameCoordinates,Original*%
%TF.FileFunction,Drillmap*%
%TF.FilePolarity,Positive*%
%FSLAX45Y45*%
G04 Gerber Fmt 4.5, Leading zero omitted, Abs format (unit mm)*
G04 Created by KiCad (PCBNEW 9.0.3) date 2025-08-12 13:31:59*
%MOMM*%
%LPD*%
G01*
G04 APERTURE LIST*
%ADD10C,0.050000*%
%ADD11C,0.200000*%
G04 APERTURE END LIST*
D10*
X15053000Y-13400000D02*
G75*
G02*
X14893000Y-13400000I-80000J0D01*
G01*
X14893000Y-13400000D02*
G75*
G02*
X15053000Y-13400000I80000J0D01*
G01*
X14020000Y-12700000D02*
X14020000Y-13900000D01*
X11547000Y-11780000D02*
G75*
G02*
X11047000Y-11780000I-250000J0D01*
G01*
X11047000Y-11780000D02*
G75*
G02*
X11547000Y-11780000I250000J0D01*
G01*
X10393000Y-11193700D02*
G75*
G02*
X10233000Y-11193700I-80000J0D01*
G01*
X10233000Y-11193700D02*
G75*
G02*
X10393000Y-11193700I80000J0D01*
G01*
X12570000Y-14410000D02*
G75*
G02*
X12410000Y-14410000I-80000J0D01*
G01*
X12410000Y-14410000D02*
G75*
G02*
X12570000Y-14410000I80000J0D01*
G01*
X12110000Y-13100000D02*
X12093000Y-13100000D01*
X13750000Y-12500000D02*
G75*
G02*
X13150000Y-12500000I-300000J0D01*
G01*
X13150000Y-12500000D02*
G75*
G02*
X13750000Y-12500000I300000J0D01*
G01*
X11003000Y-17727000D02*
X11003000Y-13200000D01*
X12200000Y-14675000D02*
X13983000Y-14675000D01*
X9795000Y-10155500D02*
G75*
G02*
X9635000Y-10155500I-80000J0D01*
G01*
X9635000Y-10155500D02*
G75*
G02*
X9795000Y-10155500I80000J0D01*
G01*
X15091000Y-12700000D02*
X15091000Y-13900000D01*
X10000000Y-10000000D02*
X15300000Y-10000000D01*
X10245000Y-18323000D02*
X10245000Y-18923000D01*
X10000000Y-13100000D02*
X10000000Y-18323000D01*
X14665000Y-11130000D02*
G75*
G02*
X14345000Y-11130000I-160000J0D01*
G01*
X14345000Y-11130000D02*
G75*
G02*
X14665000Y-11130000I160000J0D01*
G01*
X9425000Y-18323000D02*
X9425000Y-10000000D01*
X12216000Y-10940000D02*
G75*
G02*
X12056000Y-10940000I-80000J0D01*
G01*
X12056000Y-10940000D02*
G75*
G02*
X12216000Y-10940000I80000J0D01*
G01*
X12570000Y-11890000D02*
G75*
G02*
X12410000Y-11890000I-80000J0D01*
G01*
X12410000Y-11890000D02*
G75*
G02*
X12570000Y-11890000I80000J0D01*
G01*
X9145000Y-18923000D02*
X9145000Y-18323000D01*
X10000000Y-10000000D02*
X9425000Y-10000000D01*
X10000000Y-18323000D02*
X10245000Y-18323000D01*
X13545000Y-10531000D02*
G75*
G02*
X13385000Y-10531000I-80000J0D01*
G01*
X13385000Y-10531000D02*
G75*
G02*
X13545000Y-10531000I80000J0D01*
G01*
X14020000Y-13900000D02*
X15091000Y-13900000D01*
X12200000Y-13190000D02*
X12200000Y-14675000D01*
X14020000Y-12700000D02*
X13983000Y-12700000D01*
X14603000Y-12497500D02*
G75*
G02*
X14443000Y-12497500I-80000J0D01*
G01*
X14443000Y-12497500D02*
G75*
G02*
X14603000Y-12497500I80000J0D01*
G01*
X13530000Y-13800000D02*
G75*
G02*
X13370000Y-13800000I-80000J0D01*
G01*
X13370000Y-13800000D02*
G75*
G02*
X13530000Y-13800000I80000J0D01*
G01*
X15053000Y-12297500D02*
G75*
G02*
X14893000Y-12297500I-80000J0D01*
G01*
X14893000Y-12297500D02*
G75*
G02*
X15053000Y-12297500I80000J0D01*
G01*
X15300000Y-10000000D02*
X15300000Y-12700000D01*
X10903289Y-13100000D02*
G75*
G02*
X11003000Y-13200000I1J-99710D01*
G01*
X14602000Y-13200000D02*
G75*
G02*
X14442000Y-13200000I-80000J0D01*
G01*
X14442000Y-13200000D02*
G75*
G02*
X14602000Y-13200000I80000J0D01*
G01*
X10245000Y-18923000D02*
X9145000Y-18923000D01*
X15300000Y-12700000D02*
X15091000Y-12700000D01*
X12110000Y-13100000D02*
G75*
G02*
X12200000Y-13190000I0J-90000D01*
G01*
X12003000Y-17727000D02*
X12003000Y-13190000D01*
X10830000Y-12735000D02*
G75*
G02*
X10670000Y-12735000I-80000J0D01*
G01*
X10670000Y-12735000D02*
G75*
G02*
X10830000Y-12735000I80000J0D01*
G01*
X12003000Y-13190000D02*
G75*
G02*
X12093000Y-13100000I90000J0D01*
G01*
X9145000Y-18323000D02*
X9425000Y-18323000D01*
X10903289Y-13100000D02*
X10000000Y-13100000D01*
X13983000Y-14675000D02*
X13983000Y-12700000D01*
X10949000Y-17827000D02*
X10949000Y-17727000D01*
X11003000Y-17727000D02*
X10949000Y-17727000D01*
X11049000Y-17827000D02*
X10949000Y-17827000D01*
X11049000Y-18044000D02*
X11049000Y-17827000D01*
X11049000Y-18044000D02*
X11957000Y-18044000D01*
X11957000Y-17827000D02*
X12057000Y-17827000D01*
X11957000Y-18044000D02*
X11957000Y-17827000D01*
X12003000Y-17727000D02*
X12057000Y-17727000D01*
X12057000Y-17827000D02*
X12057000Y-17727000D01*
D11*
X9403277Y-19236984D02*
X9403277Y-19036984D01*
X9403277Y-19036984D02*
X9450896Y-19036984D01*
X9450896Y-19036984D02*
X9479467Y-19046508D01*
X9479467Y-19046508D02*
X9498515Y-19065555D01*
X9498515Y-19065555D02*
X9508039Y-19084603D01*
X9508039Y-19084603D02*
X9517563Y-19122698D01*
X9517563Y-19122698D02*
X9517563Y-19151270D01*
X9517563Y-19151270D02*
X9508039Y-19189365D01*
X9508039Y-19189365D02*
X9498515Y-19208412D01*
X9498515Y-19208412D02*
X9479467Y-19227460D01*
X9479467Y-19227460D02*
X9450896Y-19236984D01*
X9450896Y-19236984D02*
X9403277Y-19236984D01*
X9603277Y-19236984D02*
X9603277Y-19103650D01*
X9603277Y-19141746D02*
X9612801Y-19122698D01*
X9612801Y-19122698D02*
X9622324Y-19113174D01*
X9622324Y-19113174D02*
X9641372Y-19103650D01*
X9641372Y-19103650D02*
X9660420Y-19103650D01*
X9727086Y-19236984D02*
X9727086Y-19103650D01*
X9727086Y-19036984D02*
X9717563Y-19046508D01*
X9717563Y-19046508D02*
X9727086Y-19056031D01*
X9727086Y-19056031D02*
X9736610Y-19046508D01*
X9736610Y-19046508D02*
X9727086Y-19036984D01*
X9727086Y-19036984D02*
X9727086Y-19056031D01*
X9850896Y-19236984D02*
X9831848Y-19227460D01*
X9831848Y-19227460D02*
X9822324Y-19208412D01*
X9822324Y-19208412D02*
X9822324Y-19036984D01*
X9955658Y-19236984D02*
X9936610Y-19227460D01*
X9936610Y-19227460D02*
X9927086Y-19208412D01*
X9927086Y-19208412D02*
X9927086Y-19036984D01*
X10184229Y-19236984D02*
X10184229Y-19036984D01*
X10184229Y-19036984D02*
X10250896Y-19179841D01*
X10250896Y-19179841D02*
X10317563Y-19036984D01*
X10317563Y-19036984D02*
X10317563Y-19236984D01*
X10498515Y-19236984D02*
X10498515Y-19132222D01*
X10498515Y-19132222D02*
X10488991Y-19113174D01*
X10488991Y-19113174D02*
X10469944Y-19103650D01*
X10469944Y-19103650D02*
X10431848Y-19103650D01*
X10431848Y-19103650D02*
X10412801Y-19113174D01*
X10498515Y-19227460D02*
X10479467Y-19236984D01*
X10479467Y-19236984D02*
X10431848Y-19236984D01*
X10431848Y-19236984D02*
X10412801Y-19227460D01*
X10412801Y-19227460D02*
X10403277Y-19208412D01*
X10403277Y-19208412D02*
X10403277Y-19189365D01*
X10403277Y-19189365D02*
X10412801Y-19170317D01*
X10412801Y-19170317D02*
X10431848Y-19160793D01*
X10431848Y-19160793D02*
X10479467Y-19160793D01*
X10479467Y-19160793D02*
X10498515Y-19151270D01*
X10593753Y-19103650D02*
X10593753Y-19303650D01*
X10593753Y-19113174D02*
X10612801Y-19103650D01*
X10612801Y-19103650D02*
X10650896Y-19103650D01*
X10650896Y-19103650D02*
X10669944Y-19113174D01*
X10669944Y-19113174D02*
X10679467Y-19122698D01*
X10679467Y-19122698D02*
X10688991Y-19141746D01*
X10688991Y-19141746D02*
X10688991Y-19198889D01*
X10688991Y-19198889D02*
X10679467Y-19217936D01*
X10679467Y-19217936D02*
X10669944Y-19227460D01*
X10669944Y-19227460D02*
X10650896Y-19236984D01*
X10650896Y-19236984D02*
X10612801Y-19236984D01*
X10612801Y-19236984D02*
X10593753Y-19227460D01*
X10774705Y-19217936D02*
X10784229Y-19227460D01*
X10784229Y-19227460D02*
X10774705Y-19236984D01*
X10774705Y-19236984D02*
X10765182Y-19227460D01*
X10765182Y-19227460D02*
X10774705Y-19217936D01*
X10774705Y-19217936D02*
X10774705Y-19236984D01*
X10774705Y-19113174D02*
X10784229Y-19122698D01*
X10784229Y-19122698D02*
X10774705Y-19132222D01*
X10774705Y-19132222D02*
X10765182Y-19122698D01*
X10765182Y-19122698D02*
X10774705Y-19113174D01*
X10774705Y-19113174D02*
X10774705Y-19132222D01*
M02*
