%TF.GenerationSoftware,KiCad,Pcbnew,9.0.3*%
%TF.CreationDate,2025-09-14T16:33:05+03:00*%
%TF.ProjectId,Right,52696768-742e-46b6-9963-61645f706362,rev?*%
%TF.SameCoordinates,Original*%
%TF.FileFunction,Legend,Top*%
%TF.FilePolarity,Positive*%
%FSLAX46Y46*%
G04 Gerber Fmt 4.6, Leading zero omitted, Abs format (unit mm)*
G04 Created by KiCad (PCBNEW 9.0.3) date 2025-09-14 16:33:05*
%MOMM*%
%LPD*%
G01*
G04 APERTURE LIST*
G04 Aperture macros list*
%AMRoundRect*
0 Rectangle with rounded corners*
0 $1 Rounding radius*
0 $2 $3 $4 $5 $6 $7 $8 $9 X,Y pos of 4 corners*
0 Add a 4 corners polygon primitive as box body*
4,1,4,$2,$3,$4,$5,$6,$7,$8,$9,$2,$3,0*
0 Add four circle primitives for the rounded corners*
1,1,$1+$1,$2,$3*
1,1,$1+$1,$4,$5*
1,1,$1+$1,$6,$7*
1,1,$1+$1,$8,$9*
0 Add four rect primitives between the rounded corners*
20,1,$1+$1,$2,$3,$4,$5,0*
20,1,$1+$1,$4,$5,$6,$7,0*
20,1,$1+$1,$6,$7,$8,$9,0*
20,1,$1+$1,$8,$9,$2,$3,0*%
%AMFreePoly0*
4,1,72,0.663536,1.453536,0.664990,1.450312,0.674986,1.290376,0.684974,1.180502,0.694961,1.090620,0.704950,1.010707,0.714943,0.940757,0.734918,0.820906,0.764878,0.671101,0.824807,0.431389,0.834743,0.401581,0.834851,0.401213,0.844807,0.361389,0.934706,0.091692,0.964677,0.011772,1.004608,-0.088058,1.034593,-0.158023,1.074525,-0.247870,1.184421,-0.467662,1.234361,-0.557554,
1.274329,-0.627498,1.334250,-0.727365,1.404218,-0.837317,1.405000,-0.840001,1.405000,-0.860000,1.403536,-0.863536,1.402936,-0.864047,-0.017064,-1.894047,-0.020786,-1.894938,-0.024047,-1.892936,-0.094096,-1.792867,-0.094218,-1.792684,-0.164258,-1.682620,-0.244258,-1.552620,-0.244341,-1.552480,-0.324341,-1.412481,-0.384389,-1.302394,-0.384472,-1.302236,-0.524472,-1.022236,-0.524569,-1.022031,
-0.564525,-0.932131,-0.574472,-0.912236,-0.574596,-0.911970,-0.634596,-0.771971,-0.634642,-0.771857,-0.694683,-0.621756,-0.724682,-0.541756,-0.784714,-0.371664,-0.824743,-0.251582,-0.824789,-0.251437,-0.854808,-0.151375,-0.894808,-0.011374,-0.894852,-0.011213,-0.954851,0.228787,-0.954893,0.228971,-0.994893,0.418970,-1.024932,0.579178,-1.044932,0.699179,-1.044950,0.699293,-1.054950,0.769293,
-1.074969,0.929448,-1.084969,1.019448,-1.084984,1.019585,-1.094983,1.139584,-1.104990,1.279688,-1.114990,1.439688,-1.115000,1.440000,-1.115000,1.450000,-1.113536,1.453535,-1.110000,1.455000,0.660000,1.455000,0.663536,1.453536,0.663536,1.453536,$1*%
%AMFreePoly1*
4,1,7,0.150000,0.330000,0.150000,-0.365000,-0.150000,-0.365000,-0.150000,0.330000,-0.050000,0.370000,0.050000,0.370000,0.150000,0.330000,0.150000,0.330000,$1*%
%AMFreePoly2*
4,1,7,0.120000,-0.275000,0.050000,-0.315000,-0.050000,-0.315000,-0.120000,-0.275000,-0.120000,0.300000,0.120000,0.300000,0.120000,-0.275000,0.120000,-0.275000,$1*%
G04 Aperture macros list end*
%ADD10C,0.250000*%
%ADD11C,0.150000*%
%ADD12C,0.100000*%
%ADD13RoundRect,0.111111X-0.388889X-0.288889X0.388889X-0.288889X0.388889X0.288889X-0.388889X0.288889X0*%
%ADD14R,2.000000X1.400000*%
%ADD15RoundRect,0.178571X-0.321429X-0.321429X0.321429X-0.321429X0.321429X0.321429X-0.321429X0.321429X0*%
%ADD16RoundRect,0.100000X-0.100000X-0.100000X0.100000X-0.100000X0.100000X0.100000X-0.100000X0.100000X0*%
%ADD17RoundRect,0.150000X0.065404X0.284117X-0.219913X0.191412X-0.065404X-0.284117X0.219913X-0.191412X0*%
%ADD18RoundRect,0.150000X-0.223220X-0.187544X0.060436X-0.285215X0.223220X0.187544X-0.060436X0.285215X0*%
%ADD19RoundRect,0.150000X-0.290824X-0.020521X-0.118752X-0.266267X0.290824X0.020521X0.118752X0.266267X0*%
%ADD20RoundRect,0.150000X-0.060436X-0.285215X0.223220X-0.187544X0.060436X0.285215X-0.223220X0.187544X0*%
%ADD21FreePoly0,324.000000*%
%ADD22FreePoly0,288.000000*%
%ADD23FreePoly0,252.000000*%
%ADD24FreePoly0,216.000000*%
%ADD25FreePoly0,180.000000*%
%ADD26FreePoly0,144.000000*%
%ADD27FreePoly0,108.000000*%
%ADD28FreePoly0,72.000000*%
%ADD29FreePoly0,36.000000*%
%ADD30FreePoly0,0.000000*%
%ADD31C,0.858836*%
%ADD32C,8.420022*%
%ADD33RoundRect,0.150000X0.219913X0.191412X-0.065404X0.284117X-0.219913X-0.191412X0.065404X-0.284117X0*%
%ADD34RoundRect,0.150000X0.250000X-0.150000X0.250000X0.150000X-0.250000X0.150000X-0.250000X-0.150000X0*%
%ADD35RoundRect,0.138889X-0.361111X-0.361111X0.361111X-0.361111X0.361111X0.361111X-0.361111X0.361111X0*%
%ADD36RoundRect,0.080000X-0.620000X0.320000X-0.620000X-0.320000X0.620000X-0.320000X0.620000X0.320000X0*%
%ADD37RoundRect,0.100000X0.100000X-0.100000X0.100000X0.100000X-0.100000X0.100000X-0.100000X-0.100000X0*%
%ADD38RoundRect,0.150000X0.290422X0.025594X0.114086X0.268299X-0.290422X-0.025594X-0.114086X-0.268299X0*%
%ADD39FreePoly1,0.000000*%
%ADD40FreePoly2,0.000000*%
%ADD41RoundRect,0.140000X0.560000X0.860000X-0.560000X0.860000X-0.560000X-0.860000X0.560000X-0.860000X0*%
%ADD42RoundRect,0.178571X0.321429X0.321429X-0.321429X0.321429X-0.321429X-0.321429X0.321429X-0.321429X0*%
%ADD43RoundRect,0.150000X-0.114086X0.268299X-0.290422X0.025594X0.114086X-0.268299X0.290422X-0.025594X0*%
%ADD44RoundRect,0.150000X0.118752X-0.266267X0.290824X-0.020521X-0.118752X0.266267X-0.290824X0.020521X0*%
%ADD45RoundRect,0.120000X0.480000X0.580000X-0.480000X0.580000X-0.480000X-0.580000X0.480000X-0.580000X0*%
G04 APERTURE END LIST*
D10*
X96950142Y-122032858D02*
X97807285Y-122032858D01*
X97807285Y-122032858D02*
X97978714Y-122090001D01*
X97978714Y-122090001D02*
X98093000Y-122204287D01*
X98093000Y-122204287D02*
X98150142Y-122375715D01*
X98150142Y-122375715D02*
X98150142Y-122490001D01*
X98150142Y-120890001D02*
X98150142Y-121461429D01*
X98150142Y-121461429D02*
X96950142Y-121461429D01*
X98035857Y-119804286D02*
X98093000Y-119861429D01*
X98093000Y-119861429D02*
X98150142Y-120032857D01*
X98150142Y-120032857D02*
X98150142Y-120147143D01*
X98150142Y-120147143D02*
X98093000Y-120318572D01*
X98093000Y-120318572D02*
X97978714Y-120432857D01*
X97978714Y-120432857D02*
X97864428Y-120490000D01*
X97864428Y-120490000D02*
X97635857Y-120547143D01*
X97635857Y-120547143D02*
X97464428Y-120547143D01*
X97464428Y-120547143D02*
X97235857Y-120490000D01*
X97235857Y-120490000D02*
X97121571Y-120432857D01*
X97121571Y-120432857D02*
X97007285Y-120318572D01*
X97007285Y-120318572D02*
X96950142Y-120147143D01*
X96950142Y-120147143D02*
X96950142Y-120032857D01*
X96950142Y-120032857D02*
X97007285Y-119861429D01*
X97007285Y-119861429D02*
X97064428Y-119804286D01*
X96950142Y-118947143D02*
X97807285Y-118947143D01*
X97807285Y-118947143D02*
X97978714Y-119004286D01*
X97978714Y-119004286D02*
X98093000Y-119118572D01*
X98093000Y-119118572D02*
X98150142Y-119290000D01*
X98150142Y-119290000D02*
X98150142Y-119404286D01*
X98150142Y-117804286D02*
X98150142Y-118375714D01*
X98150142Y-118375714D02*
X96950142Y-118375714D01*
X98035857Y-116718571D02*
X98093000Y-116775714D01*
X98093000Y-116775714D02*
X98150142Y-116947142D01*
X98150142Y-116947142D02*
X98150142Y-117061428D01*
X98150142Y-117061428D02*
X98093000Y-117232857D01*
X98093000Y-117232857D02*
X97978714Y-117347142D01*
X97978714Y-117347142D02*
X97864428Y-117404285D01*
X97864428Y-117404285D02*
X97635857Y-117461428D01*
X97635857Y-117461428D02*
X97464428Y-117461428D01*
X97464428Y-117461428D02*
X97235857Y-117404285D01*
X97235857Y-117404285D02*
X97121571Y-117347142D01*
X97121571Y-117347142D02*
X97007285Y-117232857D01*
X97007285Y-117232857D02*
X96950142Y-117061428D01*
X96950142Y-117061428D02*
X96950142Y-116947142D01*
X96950142Y-116947142D02*
X97007285Y-116775714D01*
X97007285Y-116775714D02*
X97064428Y-116718571D01*
X96950142Y-115861428D02*
X97807285Y-115861428D01*
X97807285Y-115861428D02*
X97978714Y-115918571D01*
X97978714Y-115918571D02*
X98093000Y-116032857D01*
X98093000Y-116032857D02*
X98150142Y-116204285D01*
X98150142Y-116204285D02*
X98150142Y-116318571D01*
X98150142Y-114718571D02*
X98150142Y-115289999D01*
X98150142Y-115289999D02*
X96950142Y-115289999D01*
X98035857Y-113632856D02*
X98093000Y-113689999D01*
X98093000Y-113689999D02*
X98150142Y-113861427D01*
X98150142Y-113861427D02*
X98150142Y-113975713D01*
X98150142Y-113975713D02*
X98093000Y-114147142D01*
X98093000Y-114147142D02*
X97978714Y-114261427D01*
X97978714Y-114261427D02*
X97864428Y-114318570D01*
X97864428Y-114318570D02*
X97635857Y-114375713D01*
X97635857Y-114375713D02*
X97464428Y-114375713D01*
X97464428Y-114375713D02*
X97235857Y-114318570D01*
X97235857Y-114318570D02*
X97121571Y-114261427D01*
X97121571Y-114261427D02*
X97007285Y-114147142D01*
X97007285Y-114147142D02*
X96950142Y-113975713D01*
X96950142Y-113975713D02*
X96950142Y-113861427D01*
X96950142Y-113861427D02*
X97007285Y-113689999D01*
X97007285Y-113689999D02*
X97064428Y-113632856D01*
X96950142Y-112775713D02*
X97807285Y-112775713D01*
X97807285Y-112775713D02*
X97978714Y-112832856D01*
X97978714Y-112832856D02*
X98093000Y-112947142D01*
X98093000Y-112947142D02*
X98150142Y-113118570D01*
X98150142Y-113118570D02*
X98150142Y-113232856D01*
X98150142Y-111632856D02*
X98150142Y-112204284D01*
X98150142Y-112204284D02*
X96950142Y-112204284D01*
X98035857Y-110547141D02*
X98093000Y-110604284D01*
X98093000Y-110604284D02*
X98150142Y-110775712D01*
X98150142Y-110775712D02*
X98150142Y-110889998D01*
X98150142Y-110889998D02*
X98093000Y-111061427D01*
X98093000Y-111061427D02*
X97978714Y-111175712D01*
X97978714Y-111175712D02*
X97864428Y-111232855D01*
X97864428Y-111232855D02*
X97635857Y-111289998D01*
X97635857Y-111289998D02*
X97464428Y-111289998D01*
X97464428Y-111289998D02*
X97235857Y-111232855D01*
X97235857Y-111232855D02*
X97121571Y-111175712D01*
X97121571Y-111175712D02*
X97007285Y-111061427D01*
X97007285Y-111061427D02*
X96950142Y-110889998D01*
X96950142Y-110889998D02*
X96950142Y-110775712D01*
X96950142Y-110775712D02*
X97007285Y-110604284D01*
X97007285Y-110604284D02*
X97064428Y-110547141D01*
D11*
X109470000Y-109064819D02*
X109470000Y-108064819D01*
X109470000Y-108064819D02*
X109803333Y-108779104D01*
X109803333Y-108779104D02*
X110136666Y-108064819D01*
X110136666Y-108064819D02*
X110136666Y-109064819D01*
X110755714Y-109064819D02*
X110660476Y-109017200D01*
X110660476Y-109017200D02*
X110612857Y-108969580D01*
X110612857Y-108969580D02*
X110565238Y-108874342D01*
X110565238Y-108874342D02*
X110565238Y-108588628D01*
X110565238Y-108588628D02*
X110612857Y-108493390D01*
X110612857Y-108493390D02*
X110660476Y-108445771D01*
X110660476Y-108445771D02*
X110755714Y-108398152D01*
X110755714Y-108398152D02*
X110898571Y-108398152D01*
X110898571Y-108398152D02*
X110993809Y-108445771D01*
X110993809Y-108445771D02*
X111041428Y-108493390D01*
X111041428Y-108493390D02*
X111089047Y-108588628D01*
X111089047Y-108588628D02*
X111089047Y-108874342D01*
X111089047Y-108874342D02*
X111041428Y-108969580D01*
X111041428Y-108969580D02*
X110993809Y-109017200D01*
X110993809Y-109017200D02*
X110898571Y-109064819D01*
X110898571Y-109064819D02*
X110755714Y-109064819D01*
X111946190Y-109064819D02*
X111946190Y-108064819D01*
X111946190Y-109017200D02*
X111850952Y-109064819D01*
X111850952Y-109064819D02*
X111660476Y-109064819D01*
X111660476Y-109064819D02*
X111565238Y-109017200D01*
X111565238Y-109017200D02*
X111517619Y-108969580D01*
X111517619Y-108969580D02*
X111470000Y-108874342D01*
X111470000Y-108874342D02*
X111470000Y-108588628D01*
X111470000Y-108588628D02*
X111517619Y-108493390D01*
X111517619Y-108493390D02*
X111565238Y-108445771D01*
X111565238Y-108445771D02*
X111660476Y-108398152D01*
X111660476Y-108398152D02*
X111850952Y-108398152D01*
X111850952Y-108398152D02*
X111946190Y-108445771D01*
X112803333Y-109017200D02*
X112708095Y-109064819D01*
X112708095Y-109064819D02*
X112517619Y-109064819D01*
X112517619Y-109064819D02*
X112422381Y-109017200D01*
X112422381Y-109017200D02*
X112374762Y-108921961D01*
X112374762Y-108921961D02*
X112374762Y-108541009D01*
X112374762Y-108541009D02*
X112422381Y-108445771D01*
X112422381Y-108445771D02*
X112517619Y-108398152D01*
X112517619Y-108398152D02*
X112708095Y-108398152D01*
X112708095Y-108398152D02*
X112803333Y-108445771D01*
X112803333Y-108445771D02*
X112850952Y-108541009D01*
X112850952Y-108541009D02*
X112850952Y-108636247D01*
X112850952Y-108636247D02*
X112374762Y-108731485D01*
X114041429Y-109064819D02*
X114041429Y-108064819D01*
X114041429Y-108064819D02*
X114279524Y-108064819D01*
X114279524Y-108064819D02*
X114422381Y-108112438D01*
X114422381Y-108112438D02*
X114517619Y-108207676D01*
X114517619Y-108207676D02*
X114565238Y-108302914D01*
X114565238Y-108302914D02*
X114612857Y-108493390D01*
X114612857Y-108493390D02*
X114612857Y-108636247D01*
X114612857Y-108636247D02*
X114565238Y-108826723D01*
X114565238Y-108826723D02*
X114517619Y-108921961D01*
X114517619Y-108921961D02*
X114422381Y-109017200D01*
X114422381Y-109017200D02*
X114279524Y-109064819D01*
X114279524Y-109064819D02*
X114041429Y-109064819D01*
X115041429Y-109064819D02*
X115041429Y-108398152D01*
X115041429Y-108064819D02*
X114993810Y-108112438D01*
X114993810Y-108112438D02*
X115041429Y-108160057D01*
X115041429Y-108160057D02*
X115089048Y-108112438D01*
X115089048Y-108112438D02*
X115041429Y-108064819D01*
X115041429Y-108064819D02*
X115041429Y-108160057D01*
X115946190Y-109064819D02*
X115946190Y-108541009D01*
X115946190Y-108541009D02*
X115898571Y-108445771D01*
X115898571Y-108445771D02*
X115803333Y-108398152D01*
X115803333Y-108398152D02*
X115612857Y-108398152D01*
X115612857Y-108398152D02*
X115517619Y-108445771D01*
X115946190Y-109017200D02*
X115850952Y-109064819D01*
X115850952Y-109064819D02*
X115612857Y-109064819D01*
X115612857Y-109064819D02*
X115517619Y-109017200D01*
X115517619Y-109017200D02*
X115470000Y-108921961D01*
X115470000Y-108921961D02*
X115470000Y-108826723D01*
X115470000Y-108826723D02*
X115517619Y-108731485D01*
X115517619Y-108731485D02*
X115612857Y-108683866D01*
X115612857Y-108683866D02*
X115850952Y-108683866D01*
X115850952Y-108683866D02*
X115946190Y-108636247D01*
X116565238Y-109064819D02*
X116470000Y-109017200D01*
X116470000Y-109017200D02*
X116422381Y-108921961D01*
X116422381Y-108921961D02*
X116422381Y-108064819D01*
X121494819Y-116916666D02*
X121018628Y-117249999D01*
X121494819Y-117488094D02*
X120494819Y-117488094D01*
X120494819Y-117488094D02*
X120494819Y-117107142D01*
X120494819Y-117107142D02*
X120542438Y-117011904D01*
X120542438Y-117011904D02*
X120590057Y-116964285D01*
X120590057Y-116964285D02*
X120685295Y-116916666D01*
X120685295Y-116916666D02*
X120828152Y-116916666D01*
X120828152Y-116916666D02*
X120923390Y-116964285D01*
X120923390Y-116964285D02*
X120971009Y-117011904D01*
X120971009Y-117011904D02*
X121018628Y-117107142D01*
X121018628Y-117107142D02*
X121018628Y-117488094D01*
X121494819Y-116440475D02*
X121494819Y-116249999D01*
X121494819Y-116249999D02*
X121447200Y-116154761D01*
X121447200Y-116154761D02*
X121399580Y-116107142D01*
X121399580Y-116107142D02*
X121256723Y-116011904D01*
X121256723Y-116011904D02*
X121066247Y-115964285D01*
X121066247Y-115964285D02*
X120685295Y-115964285D01*
X120685295Y-115964285D02*
X120590057Y-116011904D01*
X120590057Y-116011904D02*
X120542438Y-116059523D01*
X120542438Y-116059523D02*
X120494819Y-116154761D01*
X120494819Y-116154761D02*
X120494819Y-116345237D01*
X120494819Y-116345237D02*
X120542438Y-116440475D01*
X120542438Y-116440475D02*
X120590057Y-116488094D01*
X120590057Y-116488094D02*
X120685295Y-116535713D01*
X120685295Y-116535713D02*
X120923390Y-116535713D01*
X120923390Y-116535713D02*
X121018628Y-116488094D01*
X121018628Y-116488094D02*
X121066247Y-116440475D01*
X121066247Y-116440475D02*
X121113866Y-116345237D01*
X121113866Y-116345237D02*
X121113866Y-116154761D01*
X121113866Y-116154761D02*
X121066247Y-116059523D01*
X121066247Y-116059523D02*
X121018628Y-116011904D01*
X121018628Y-116011904D02*
X120923390Y-115964285D01*
X129595237Y-142941009D02*
X129261904Y-142941009D01*
X129261904Y-143464819D02*
X129261904Y-142464819D01*
X129261904Y-142464819D02*
X129738094Y-142464819D01*
X130261904Y-143464819D02*
X130166666Y-143417200D01*
X130166666Y-143417200D02*
X130119047Y-143369580D01*
X130119047Y-143369580D02*
X130071428Y-143274342D01*
X130071428Y-143274342D02*
X130071428Y-142988628D01*
X130071428Y-142988628D02*
X130119047Y-142893390D01*
X130119047Y-142893390D02*
X130166666Y-142845771D01*
X130166666Y-142845771D02*
X130261904Y-142798152D01*
X130261904Y-142798152D02*
X130404761Y-142798152D01*
X130404761Y-142798152D02*
X130499999Y-142845771D01*
X130499999Y-142845771D02*
X130547618Y-142893390D01*
X130547618Y-142893390D02*
X130595237Y-142988628D01*
X130595237Y-142988628D02*
X130595237Y-143274342D01*
X130595237Y-143274342D02*
X130547618Y-143369580D01*
X130547618Y-143369580D02*
X130499999Y-143417200D01*
X130499999Y-143417200D02*
X130404761Y-143464819D01*
X130404761Y-143464819D02*
X130261904Y-143464819D01*
X131452380Y-143417200D02*
X131357142Y-143464819D01*
X131357142Y-143464819D02*
X131166666Y-143464819D01*
X131166666Y-143464819D02*
X131071428Y-143417200D01*
X131071428Y-143417200D02*
X131023809Y-143369580D01*
X131023809Y-143369580D02*
X130976190Y-143274342D01*
X130976190Y-143274342D02*
X130976190Y-142988628D01*
X130976190Y-142988628D02*
X131023809Y-142893390D01*
X131023809Y-142893390D02*
X131071428Y-142845771D01*
X131071428Y-142845771D02*
X131166666Y-142798152D01*
X131166666Y-142798152D02*
X131357142Y-142798152D01*
X131357142Y-142798152D02*
X131452380Y-142845771D01*
X132309523Y-142798152D02*
X132309523Y-143464819D01*
X131880952Y-142798152D02*
X131880952Y-143321961D01*
X131880952Y-143321961D02*
X131928571Y-143417200D01*
X131928571Y-143417200D02*
X132023809Y-143464819D01*
X132023809Y-143464819D02*
X132166666Y-143464819D01*
X132166666Y-143464819D02*
X132261904Y-143417200D01*
X132261904Y-143417200D02*
X132309523Y-143369580D01*
X132738095Y-143417200D02*
X132833333Y-143464819D01*
X132833333Y-143464819D02*
X133023809Y-143464819D01*
X133023809Y-143464819D02*
X133119047Y-143417200D01*
X133119047Y-143417200D02*
X133166666Y-143321961D01*
X133166666Y-143321961D02*
X133166666Y-143274342D01*
X133166666Y-143274342D02*
X133119047Y-143179104D01*
X133119047Y-143179104D02*
X133023809Y-143131485D01*
X133023809Y-143131485D02*
X132880952Y-143131485D01*
X132880952Y-143131485D02*
X132785714Y-143083866D01*
X132785714Y-143083866D02*
X132738095Y-142988628D01*
X132738095Y-142988628D02*
X132738095Y-142941009D01*
X132738095Y-142941009D02*
X132785714Y-142845771D01*
X132785714Y-142845771D02*
X132880952Y-142798152D01*
X132880952Y-142798152D02*
X133023809Y-142798152D01*
X133023809Y-142798152D02*
X133119047Y-142845771D01*
X133595238Y-143083866D02*
X134357143Y-143083866D01*
X133976190Y-143464819D02*
X133976190Y-142702914D01*
X134785714Y-143417200D02*
X134928571Y-143464819D01*
X134928571Y-143464819D02*
X135166666Y-143464819D01*
X135166666Y-143464819D02*
X135261904Y-143417200D01*
X135261904Y-143417200D02*
X135309523Y-143369580D01*
X135309523Y-143369580D02*
X135357142Y-143274342D01*
X135357142Y-143274342D02*
X135357142Y-143179104D01*
X135357142Y-143179104D02*
X135309523Y-143083866D01*
X135309523Y-143083866D02*
X135261904Y-143036247D01*
X135261904Y-143036247D02*
X135166666Y-142988628D01*
X135166666Y-142988628D02*
X134976190Y-142941009D01*
X134976190Y-142941009D02*
X134880952Y-142893390D01*
X134880952Y-142893390D02*
X134833333Y-142845771D01*
X134833333Y-142845771D02*
X134785714Y-142750533D01*
X134785714Y-142750533D02*
X134785714Y-142655295D01*
X134785714Y-142655295D02*
X134833333Y-142560057D01*
X134833333Y-142560057D02*
X134880952Y-142512438D01*
X134880952Y-142512438D02*
X134976190Y-142464819D01*
X134976190Y-142464819D02*
X135214285Y-142464819D01*
X135214285Y-142464819D02*
X135357142Y-142512438D01*
X135785714Y-143464819D02*
X135785714Y-142464819D01*
X136214285Y-143464819D02*
X136214285Y-142941009D01*
X136214285Y-142941009D02*
X136166666Y-142845771D01*
X136166666Y-142845771D02*
X136071428Y-142798152D01*
X136071428Y-142798152D02*
X135928571Y-142798152D01*
X135928571Y-142798152D02*
X135833333Y-142845771D01*
X135833333Y-142845771D02*
X135785714Y-142893390D01*
X137119047Y-142798152D02*
X137119047Y-143464819D01*
X136690476Y-142798152D02*
X136690476Y-143321961D01*
X136690476Y-143321961D02*
X136738095Y-143417200D01*
X136738095Y-143417200D02*
X136833333Y-143464819D01*
X136833333Y-143464819D02*
X136976190Y-143464819D01*
X136976190Y-143464819D02*
X137071428Y-143417200D01*
X137071428Y-143417200D02*
X137119047Y-143369580D01*
X137452381Y-142798152D02*
X137833333Y-142798152D01*
X137595238Y-142464819D02*
X137595238Y-143321961D01*
X137595238Y-143321961D02*
X137642857Y-143417200D01*
X137642857Y-143417200D02*
X137738095Y-143464819D01*
X137738095Y-143464819D02*
X137833333Y-143464819D01*
X138023810Y-142798152D02*
X138404762Y-142798152D01*
X138166667Y-142464819D02*
X138166667Y-143321961D01*
X138166667Y-143321961D02*
X138214286Y-143417200D01*
X138214286Y-143417200D02*
X138309524Y-143464819D01*
X138309524Y-143464819D02*
X138404762Y-143464819D01*
X139119048Y-143417200D02*
X139023810Y-143464819D01*
X139023810Y-143464819D02*
X138833334Y-143464819D01*
X138833334Y-143464819D02*
X138738096Y-143417200D01*
X138738096Y-143417200D02*
X138690477Y-143321961D01*
X138690477Y-143321961D02*
X138690477Y-142941009D01*
X138690477Y-142941009D02*
X138738096Y-142845771D01*
X138738096Y-142845771D02*
X138833334Y-142798152D01*
X138833334Y-142798152D02*
X139023810Y-142798152D01*
X139023810Y-142798152D02*
X139119048Y-142845771D01*
X139119048Y-142845771D02*
X139166667Y-142941009D01*
X139166667Y-142941009D02*
X139166667Y-143036247D01*
X139166667Y-143036247D02*
X138690477Y-143131485D01*
X139595239Y-143464819D02*
X139595239Y-142798152D01*
X139595239Y-142988628D02*
X139642858Y-142893390D01*
X139642858Y-142893390D02*
X139690477Y-142845771D01*
X139690477Y-142845771D02*
X139785715Y-142798152D01*
X139785715Y-142798152D02*
X139880953Y-142798152D01*
X112350057Y-105078570D02*
X112302438Y-105030951D01*
X112302438Y-105030951D02*
X112254819Y-104935713D01*
X112254819Y-104935713D02*
X112254819Y-104697618D01*
X112254819Y-104697618D02*
X112302438Y-104602380D01*
X112302438Y-104602380D02*
X112350057Y-104554761D01*
X112350057Y-104554761D02*
X112445295Y-104507142D01*
X112445295Y-104507142D02*
X112540533Y-104507142D01*
X112540533Y-104507142D02*
X112683390Y-104554761D01*
X112683390Y-104554761D02*
X113254819Y-105126189D01*
X113254819Y-105126189D02*
X113254819Y-104507142D01*
X113159580Y-104078570D02*
X113207200Y-104030951D01*
X113207200Y-104030951D02*
X113254819Y-104078570D01*
X113254819Y-104078570D02*
X113207200Y-104126189D01*
X113207200Y-104126189D02*
X113159580Y-104078570D01*
X113159580Y-104078570D02*
X113254819Y-104078570D01*
X112254819Y-103173809D02*
X112254819Y-103364285D01*
X112254819Y-103364285D02*
X112302438Y-103459523D01*
X112302438Y-103459523D02*
X112350057Y-103507142D01*
X112350057Y-103507142D02*
X112492914Y-103602380D01*
X112492914Y-103602380D02*
X112683390Y-103649999D01*
X112683390Y-103649999D02*
X113064342Y-103649999D01*
X113064342Y-103649999D02*
X113159580Y-103602380D01*
X113159580Y-103602380D02*
X113207200Y-103554761D01*
X113207200Y-103554761D02*
X113254819Y-103459523D01*
X113254819Y-103459523D02*
X113254819Y-103269047D01*
X113254819Y-103269047D02*
X113207200Y-103173809D01*
X113207200Y-103173809D02*
X113159580Y-103126190D01*
X113159580Y-103126190D02*
X113064342Y-103078571D01*
X113064342Y-103078571D02*
X112826247Y-103078571D01*
X112826247Y-103078571D02*
X112731009Y-103126190D01*
X112731009Y-103126190D02*
X112683390Y-103173809D01*
X112683390Y-103173809D02*
X112635771Y-103269047D01*
X112635771Y-103269047D02*
X112635771Y-103459523D01*
X112635771Y-103459523D02*
X112683390Y-103554761D01*
X112683390Y-103554761D02*
X112731009Y-103602380D01*
X112731009Y-103602380D02*
X112826247Y-103649999D01*
X112254819Y-102792856D02*
X113254819Y-102459523D01*
X113254819Y-102459523D02*
X112254819Y-102126190D01*
X142093809Y-108480057D02*
X142141428Y-108432438D01*
X142141428Y-108432438D02*
X142236666Y-108384819D01*
X142236666Y-108384819D02*
X142474761Y-108384819D01*
X142474761Y-108384819D02*
X142569999Y-108432438D01*
X142569999Y-108432438D02*
X142617618Y-108480057D01*
X142617618Y-108480057D02*
X142665237Y-108575295D01*
X142665237Y-108575295D02*
X142665237Y-108670533D01*
X142665237Y-108670533D02*
X142617618Y-108813390D01*
X142617618Y-108813390D02*
X142046190Y-109384819D01*
X142046190Y-109384819D02*
X142665237Y-109384819D01*
X143093809Y-108718152D02*
X143093809Y-109384819D01*
X143093809Y-108813390D02*
X143141428Y-108765771D01*
X143141428Y-108765771D02*
X143236666Y-108718152D01*
X143236666Y-108718152D02*
X143379523Y-108718152D01*
X143379523Y-108718152D02*
X143474761Y-108765771D01*
X143474761Y-108765771D02*
X143522380Y-108861009D01*
X143522380Y-108861009D02*
X143522380Y-109384819D01*
X144427142Y-109384819D02*
X144427142Y-108384819D01*
X144427142Y-109337200D02*
X144331904Y-109384819D01*
X144331904Y-109384819D02*
X144141428Y-109384819D01*
X144141428Y-109384819D02*
X144046190Y-109337200D01*
X144046190Y-109337200D02*
X143998571Y-109289580D01*
X143998571Y-109289580D02*
X143950952Y-109194342D01*
X143950952Y-109194342D02*
X143950952Y-108908628D01*
X143950952Y-108908628D02*
X143998571Y-108813390D01*
X143998571Y-108813390D02*
X144046190Y-108765771D01*
X144046190Y-108765771D02*
X144141428Y-108718152D01*
X144141428Y-108718152D02*
X144331904Y-108718152D01*
X144331904Y-108718152D02*
X144427142Y-108765771D01*
X146093809Y-109384819D02*
X146093809Y-108384819D01*
X146093809Y-109337200D02*
X145998571Y-109384819D01*
X145998571Y-109384819D02*
X145808095Y-109384819D01*
X145808095Y-109384819D02*
X145712857Y-109337200D01*
X145712857Y-109337200D02*
X145665238Y-109289580D01*
X145665238Y-109289580D02*
X145617619Y-109194342D01*
X145617619Y-109194342D02*
X145617619Y-108908628D01*
X145617619Y-108908628D02*
X145665238Y-108813390D01*
X145665238Y-108813390D02*
X145712857Y-108765771D01*
X145712857Y-108765771D02*
X145808095Y-108718152D01*
X145808095Y-108718152D02*
X145998571Y-108718152D01*
X145998571Y-108718152D02*
X146093809Y-108765771D01*
X146570000Y-109384819D02*
X146570000Y-108718152D01*
X146570000Y-108384819D02*
X146522381Y-108432438D01*
X146522381Y-108432438D02*
X146570000Y-108480057D01*
X146570000Y-108480057D02*
X146617619Y-108432438D01*
X146617619Y-108432438D02*
X146570000Y-108384819D01*
X146570000Y-108384819D02*
X146570000Y-108480057D01*
X147474761Y-109384819D02*
X147474761Y-108861009D01*
X147474761Y-108861009D02*
X147427142Y-108765771D01*
X147427142Y-108765771D02*
X147331904Y-108718152D01*
X147331904Y-108718152D02*
X147141428Y-108718152D01*
X147141428Y-108718152D02*
X147046190Y-108765771D01*
X147474761Y-109337200D02*
X147379523Y-109384819D01*
X147379523Y-109384819D02*
X147141428Y-109384819D01*
X147141428Y-109384819D02*
X147046190Y-109337200D01*
X147046190Y-109337200D02*
X146998571Y-109241961D01*
X146998571Y-109241961D02*
X146998571Y-109146723D01*
X146998571Y-109146723D02*
X147046190Y-109051485D01*
X147046190Y-109051485D02*
X147141428Y-109003866D01*
X147141428Y-109003866D02*
X147379523Y-109003866D01*
X147379523Y-109003866D02*
X147474761Y-108956247D01*
X148093809Y-109384819D02*
X147998571Y-109337200D01*
X147998571Y-109337200D02*
X147950952Y-109241961D01*
X147950952Y-109241961D02*
X147950952Y-108384819D01*
X142716190Y-116664819D02*
X142906666Y-116664819D01*
X142906666Y-116664819D02*
X143001904Y-116712438D01*
X143001904Y-116712438D02*
X143097142Y-116807676D01*
X143097142Y-116807676D02*
X143144761Y-116998152D01*
X143144761Y-116998152D02*
X143144761Y-117331485D01*
X143144761Y-117331485D02*
X143097142Y-117521961D01*
X143097142Y-117521961D02*
X143001904Y-117617200D01*
X143001904Y-117617200D02*
X142906666Y-117664819D01*
X142906666Y-117664819D02*
X142716190Y-117664819D01*
X142716190Y-117664819D02*
X142620952Y-117617200D01*
X142620952Y-117617200D02*
X142525714Y-117521961D01*
X142525714Y-117521961D02*
X142478095Y-117331485D01*
X142478095Y-117331485D02*
X142478095Y-116998152D01*
X142478095Y-116998152D02*
X142525714Y-116807676D01*
X142525714Y-116807676D02*
X142620952Y-116712438D01*
X142620952Y-116712438D02*
X142716190Y-116664819D01*
X143573333Y-117664819D02*
X143573333Y-116664819D01*
X143573333Y-116664819D02*
X144144761Y-117664819D01*
X144144761Y-117664819D02*
X144144761Y-116664819D01*
X145335237Y-116617200D02*
X144478095Y-117902914D01*
X145859047Y-116664819D02*
X146049523Y-116664819D01*
X146049523Y-116664819D02*
X146144761Y-116712438D01*
X146144761Y-116712438D02*
X146239999Y-116807676D01*
X146239999Y-116807676D02*
X146287618Y-116998152D01*
X146287618Y-116998152D02*
X146287618Y-117331485D01*
X146287618Y-117331485D02*
X146239999Y-117521961D01*
X146239999Y-117521961D02*
X146144761Y-117617200D01*
X146144761Y-117617200D02*
X146049523Y-117664819D01*
X146049523Y-117664819D02*
X145859047Y-117664819D01*
X145859047Y-117664819D02*
X145763809Y-117617200D01*
X145763809Y-117617200D02*
X145668571Y-117521961D01*
X145668571Y-117521961D02*
X145620952Y-117331485D01*
X145620952Y-117331485D02*
X145620952Y-116998152D01*
X145620952Y-116998152D02*
X145668571Y-116807676D01*
X145668571Y-116807676D02*
X145763809Y-116712438D01*
X145763809Y-116712438D02*
X145859047Y-116664819D01*
X147049523Y-117141009D02*
X146716190Y-117141009D01*
X146716190Y-117664819D02*
X146716190Y-116664819D01*
X146716190Y-116664819D02*
X147192380Y-116664819D01*
X147906666Y-117141009D02*
X147573333Y-117141009D01*
X147573333Y-117664819D02*
X147573333Y-116664819D01*
X147573333Y-116664819D02*
X148049523Y-116664819D01*
X102984819Y-104021428D02*
X102508628Y-104354761D01*
X102984819Y-104592856D02*
X101984819Y-104592856D01*
X101984819Y-104592856D02*
X101984819Y-104211904D01*
X101984819Y-104211904D02*
X102032438Y-104116666D01*
X102032438Y-104116666D02*
X102080057Y-104069047D01*
X102080057Y-104069047D02*
X102175295Y-104021428D01*
X102175295Y-104021428D02*
X102318152Y-104021428D01*
X102318152Y-104021428D02*
X102413390Y-104069047D01*
X102413390Y-104069047D02*
X102461009Y-104116666D01*
X102461009Y-104116666D02*
X102508628Y-104211904D01*
X102508628Y-104211904D02*
X102508628Y-104592856D01*
X102937200Y-103211904D02*
X102984819Y-103307142D01*
X102984819Y-103307142D02*
X102984819Y-103497618D01*
X102984819Y-103497618D02*
X102937200Y-103592856D01*
X102937200Y-103592856D02*
X102841961Y-103640475D01*
X102841961Y-103640475D02*
X102461009Y-103640475D01*
X102461009Y-103640475D02*
X102365771Y-103592856D01*
X102365771Y-103592856D02*
X102318152Y-103497618D01*
X102318152Y-103497618D02*
X102318152Y-103307142D01*
X102318152Y-103307142D02*
X102365771Y-103211904D01*
X102365771Y-103211904D02*
X102461009Y-103164285D01*
X102461009Y-103164285D02*
X102556247Y-103164285D01*
X102556247Y-103164285D02*
X102651485Y-103640475D01*
X102984819Y-102307142D02*
X101984819Y-102307142D01*
X102937200Y-102307142D02*
X102984819Y-102402380D01*
X102984819Y-102402380D02*
X102984819Y-102592856D01*
X102984819Y-102592856D02*
X102937200Y-102688094D01*
X102937200Y-102688094D02*
X102889580Y-102735713D01*
X102889580Y-102735713D02*
X102794342Y-102783332D01*
X102794342Y-102783332D02*
X102508628Y-102783332D01*
X102508628Y-102783332D02*
X102413390Y-102735713D01*
X102413390Y-102735713D02*
X102365771Y-102688094D01*
X102365771Y-102688094D02*
X102318152Y-102592856D01*
X102318152Y-102592856D02*
X102318152Y-102402380D01*
X102318152Y-102402380D02*
X102365771Y-102307142D01*
X108111009Y-104261428D02*
X108158628Y-104118571D01*
X108158628Y-104118571D02*
X108206247Y-104070952D01*
X108206247Y-104070952D02*
X108301485Y-104023333D01*
X108301485Y-104023333D02*
X108444342Y-104023333D01*
X108444342Y-104023333D02*
X108539580Y-104070952D01*
X108539580Y-104070952D02*
X108587200Y-104118571D01*
X108587200Y-104118571D02*
X108634819Y-104213809D01*
X108634819Y-104213809D02*
X108634819Y-104594761D01*
X108634819Y-104594761D02*
X107634819Y-104594761D01*
X107634819Y-104594761D02*
X107634819Y-104261428D01*
X107634819Y-104261428D02*
X107682438Y-104166190D01*
X107682438Y-104166190D02*
X107730057Y-104118571D01*
X107730057Y-104118571D02*
X107825295Y-104070952D01*
X107825295Y-104070952D02*
X107920533Y-104070952D01*
X107920533Y-104070952D02*
X108015771Y-104118571D01*
X108015771Y-104118571D02*
X108063390Y-104166190D01*
X108063390Y-104166190D02*
X108111009Y-104261428D01*
X108111009Y-104261428D02*
X108111009Y-104594761D01*
X108634819Y-103451904D02*
X108587200Y-103547142D01*
X108587200Y-103547142D02*
X108491961Y-103594761D01*
X108491961Y-103594761D02*
X107634819Y-103594761D01*
X107968152Y-102642380D02*
X108634819Y-102642380D01*
X107968152Y-103070951D02*
X108491961Y-103070951D01*
X108491961Y-103070951D02*
X108587200Y-103023332D01*
X108587200Y-103023332D02*
X108634819Y-102928094D01*
X108634819Y-102928094D02*
X108634819Y-102785237D01*
X108634819Y-102785237D02*
X108587200Y-102689999D01*
X108587200Y-102689999D02*
X108539580Y-102642380D01*
X108587200Y-101785237D02*
X108634819Y-101880475D01*
X108634819Y-101880475D02*
X108634819Y-102070951D01*
X108634819Y-102070951D02*
X108587200Y-102166189D01*
X108587200Y-102166189D02*
X108491961Y-102213808D01*
X108491961Y-102213808D02*
X108111009Y-102213808D01*
X108111009Y-102213808D02*
X108015771Y-102166189D01*
X108015771Y-102166189D02*
X107968152Y-102070951D01*
X107968152Y-102070951D02*
X107968152Y-101880475D01*
X107968152Y-101880475D02*
X108015771Y-101785237D01*
X108015771Y-101785237D02*
X108111009Y-101737618D01*
X108111009Y-101737618D02*
X108206247Y-101737618D01*
X108206247Y-101737618D02*
X108301485Y-102213808D01*
%LPC*%
D12*
%TO.C,J1*%
X111990000Y-180220000D02*
X102890000Y-180220000D01*
X102890000Y-178520000D01*
X111990000Y-178520000D01*
X111990000Y-180220000D01*
G36*
X111990000Y-180220000D02*
G01*
X102890000Y-180220000D01*
X102890000Y-178520000D01*
X111990000Y-178520000D01*
X111990000Y-180220000D01*
G37*
%TD*%
D13*
%TO.C,SW4*%
X89390000Y-179840000D03*
X89390000Y-173040000D03*
X84930000Y-179840000D03*
X84930000Y-173040000D03*
%TD*%
D14*
%TO.C,J6*%
X91420000Y-110340000D03*
X91420000Y-108440000D03*
X91420000Y-106540000D03*
%TD*%
D15*
%TO.C,J5*%
X143380000Y-140480000D03*
X145280000Y-140480000D03*
X147180000Y-140480000D03*
%TD*%
D16*
%TO.C,U1*%
X129730000Y-124300000D03*
X129730000Y-126300000D03*
X130730000Y-124300000D03*
X130730000Y-126300000D03*
%TD*%
D17*
%TO.C,R6*%
X115830634Y-124654590D03*
X114679856Y-125028500D03*
%TD*%
D18*
%TO.C,R3*%
X114652689Y-110644659D03*
X115796766Y-111038597D03*
%TD*%
D19*
%TO.C,R4*%
X118615854Y-113018509D03*
X119309882Y-114009683D03*
%TD*%
D20*
%TO.C,R2*%
X110052689Y-111065341D03*
X111196766Y-110671403D03*
%TD*%
D21*
%TO.C,SW1*%
X107820000Y-116120000D03*
D22*
X109790000Y-113440000D03*
D23*
X112980000Y-112430000D03*
D24*
X116140000Y-113480000D03*
D25*
X118080000Y-116180000D03*
D26*
X118060000Y-119520000D03*
D27*
X116080000Y-122200000D03*
D28*
X112910000Y-123210000D03*
D29*
X109740000Y-122160000D03*
D30*
X107800000Y-119450000D03*
D31*
X109310000Y-117820000D03*
D32*
X112970000Y-117830000D03*
%TD*%
D33*
%TO.C,R7*%
X111250634Y-124995410D03*
X110099856Y-124621500D03*
%TD*%
D34*
%TO.C,R9*%
X121810000Y-115100000D03*
X121810000Y-113890000D03*
%TD*%
D35*
%TO.C,SW3*%
X131250000Y-136450000D03*
X131250000Y-139550000D03*
X137750000Y-136450000D03*
X137750000Y-139550000D03*
%TD*%
D36*
%TO.C,BT1*%
X115625000Y-102850000D03*
X115625000Y-104450000D03*
%TD*%
D37*
%TO.C,U2*%
X133800000Y-121220000D03*
X135800000Y-121220000D03*
X133800000Y-120220000D03*
X135800000Y-120220000D03*
%TD*%
D38*
%TO.C,R8*%
X107372671Y-122565410D03*
X106661451Y-121586500D03*
%TD*%
D39*
%TO.C,J1*%
X103240000Y-179730000D03*
D40*
X103490000Y-178980000D03*
D39*
X103734118Y-179730000D03*
D40*
X103983750Y-178980000D03*
D39*
X104228235Y-179730000D03*
D40*
X104477500Y-178980000D03*
D39*
X104722353Y-179730000D03*
D40*
X104971250Y-178980000D03*
D39*
X105216471Y-179730000D03*
D40*
X105465000Y-178980000D03*
D39*
X105710588Y-179730000D03*
D40*
X105958750Y-178980000D03*
D39*
X106204706Y-179730000D03*
D40*
X106452500Y-178980000D03*
D39*
X106698824Y-179730000D03*
D40*
X106950000Y-178980000D03*
D39*
X107192941Y-179730000D03*
D40*
X107440000Y-178980000D03*
D39*
X107687059Y-179730000D03*
D40*
X107933750Y-178980000D03*
D39*
X108181176Y-179730000D03*
D40*
X108427500Y-178980000D03*
D39*
X108675294Y-179730000D03*
D40*
X108921250Y-178980000D03*
D39*
X109169412Y-179730000D03*
D40*
X109420000Y-178980000D03*
D39*
X109663529Y-179730000D03*
D40*
X109908750Y-178980000D03*
D39*
X110157647Y-179730000D03*
D40*
X110402500Y-178980000D03*
D39*
X110651765Y-179730000D03*
D40*
X110896250Y-178980000D03*
D39*
X111145882Y-179730000D03*
D40*
X111390000Y-178980000D03*
D39*
X111640000Y-179730000D03*
%TD*%
D41*
%TO.C,RV1*%
X148950000Y-111300000D03*
D42*
X146870000Y-107120000D03*
X145040000Y-107100000D03*
X143220000Y-107100000D03*
D41*
X141140000Y-111290000D03*
%TD*%
D43*
%TO.C,R5*%
X119312671Y-121644590D03*
X118601451Y-122623500D03*
%TD*%
D44*
%TO.C,R1*%
X106655854Y-114001491D03*
X107349882Y-113010317D03*
%TD*%
D45*
%TO.C,SW2*%
X148340000Y-119260000D03*
X148340000Y-122050000D03*
X142110000Y-119280000D03*
X142110000Y-122040000D03*
%TD*%
%LPD*%
M02*
