%TF.GenerationSoftware,KiCad,Pcbnew,9.0.3*%
%TF.CreationDate,2025-08-12T13:31:52+03:00*%
%TF.ProjectId,Right,52696768-742e-46b6-9963-61645f706362,rev?*%
%TF.SameCoordinates,Original*%
%TF.FileFunction,Copper,L1,Top*%
%TF.FilePolarity,Positive*%
%FSLAX46Y46*%
G04 Gerber Fmt 4.6, Leading zero omitted, Abs format (unit mm)*
G04 Created by KiCad (PCBNEW 9.0.3) date 2025-08-12 13:31:52*
%MOMM*%
%LPD*%
G01*
G04 APERTURE LIST*
G04 Aperture macros list*
%AMRoundRect*
0 Rectangle with rounded corners*
0 $1 Rounding radius*
0 $2 $3 $4 $5 $6 $7 $8 $9 X,Y pos of 4 corners*
0 Add a 4 corners polygon primitive as box body*
4,1,4,$2,$3,$4,$5,$6,$7,$8,$9,$2,$3,0*
0 Add four circle primitives for the rounded corners*
1,1,$1+$1,$2,$3*
1,1,$1+$1,$4,$5*
1,1,$1+$1,$6,$7*
1,1,$1+$1,$8,$9*
0 Add four rect primitives between the rounded corners*
20,1,$1+$1,$2,$3,$4,$5,0*
20,1,$1+$1,$4,$5,$6,$7,0*
20,1,$1+$1,$6,$7,$8,$9,0*
20,1,$1+$1,$8,$9,$2,$3,0*%
%AMFreePoly0*
4,1,72,0.663536,1.453536,0.664990,1.450312,0.674986,1.290376,0.684974,1.180502,0.694961,1.090620,0.704950,1.010707,0.714943,0.940757,0.734918,0.820906,0.764878,0.671101,0.824807,0.431389,0.834743,0.401581,0.834851,0.401213,0.844807,0.361389,0.934706,0.091692,0.964677,0.011772,1.004608,-0.088058,1.034593,-0.158023,1.074525,-0.247870,1.184421,-0.467662,1.234361,-0.557554,
1.274329,-0.627498,1.334250,-0.727365,1.404218,-0.837317,1.405000,-0.840001,1.405000,-0.860000,1.403536,-0.863536,1.402936,-0.864047,-0.017064,-1.894047,-0.020786,-1.894938,-0.024047,-1.892936,-0.094096,-1.792867,-0.094218,-1.792684,-0.164258,-1.682620,-0.244258,-1.552620,-0.244341,-1.552480,-0.324341,-1.412481,-0.384389,-1.302394,-0.384472,-1.302236,-0.524472,-1.022236,-0.524569,-1.022031,
-0.564525,-0.932131,-0.574472,-0.912236,-0.574596,-0.911970,-0.634596,-0.771971,-0.634642,-0.771857,-0.694683,-0.621756,-0.724682,-0.541756,-0.784714,-0.371664,-0.824743,-0.251582,-0.824789,-0.251437,-0.854808,-0.151375,-0.894808,-0.011374,-0.894852,-0.011213,-0.954851,0.228787,-0.954893,0.228971,-0.994893,0.418970,-1.024932,0.579178,-1.044932,0.699179,-1.044950,0.699293,-1.054950,0.769293,
-1.074969,0.929448,-1.084969,1.019448,-1.084984,1.019585,-1.094983,1.139584,-1.104990,1.279688,-1.114990,1.439688,-1.115000,1.440000,-1.115000,1.450000,-1.113536,1.453535,-1.110000,1.455000,0.660000,1.455000,0.663536,1.453536,0.663536,1.453536,$1*%
%AMFreePoly1*
4,1,7,0.150000,0.330000,0.150000,-0.365000,-0.150000,-0.365000,-0.150000,0.330000,-0.050000,0.370000,0.050000,0.370000,0.150000,0.330000,0.150000,0.330000,$1*%
%AMFreePoly2*
4,1,7,0.150000,-0.275000,0.050000,-0.315000,-0.050000,-0.315000,-0.150000,-0.275000,-0.150000,0.300000,0.150000,0.300000,0.150000,-0.275000,0.150000,-0.275000,$1*%
%AMFreePoly3*
4,1,18,0.303536,0.288536,0.305000,0.285000,0.305000,-0.285000,0.303536,-0.288536,0.302883,-0.289085,0.133380,-0.408734,0.004109,-0.557891,-0.085642,-0.717451,-0.088652,-0.719815,-0.090000,-0.720000,-0.300000,-0.720000,-0.303536,-0.718536,-0.305000,-0.715000,-0.305000,0.285000,-0.303536,0.288536,-0.300000,0.290000,0.300000,0.290000,0.303536,0.288536,0.303536,0.288536,$1*%
%AMFreePoly4*
4,1,18,0.303536,0.283536,0.305000,0.280000,0.305000,-0.720000,0.303536,-0.723536,0.300125,-0.724998,0.100125,-0.729998,0.096554,-0.728623,0.095554,-0.727287,0.005843,-0.552850,-0.113359,-0.418746,-0.302896,-0.284076,-0.304930,-0.280834,-0.305000,-0.280000,-0.305000,0.280000,-0.303536,0.283536,-0.300000,0.285000,0.300000,0.285000,0.303536,0.283536,0.303536,0.283536,$1*%
G04 Aperture macros list end*
%TA.AperFunction,Conductor*%
%ADD10C,0.000000*%
%TD*%
%TA.AperFunction,SMDPad,CuDef*%
%ADD11R,0.500000X0.500000*%
%TD*%
%TA.AperFunction,SMDPad,CuDef*%
%ADD12RoundRect,0.200000X0.097506X0.347120X-0.282916X0.223514X-0.097506X-0.347120X0.282916X-0.223514X0*%
%TD*%
%TA.AperFunction,SMDPad,CuDef*%
%ADD13RoundRect,0.200000X-0.286774X-0.218542X0.091433X-0.348769X0.286774X0.218542X-0.091433X0.348769X0*%
%TD*%
%TA.AperFunction,SMDPad,CuDef*%
%ADD14RoundRect,0.200000X-0.360461X-0.008243X-0.131030X-0.335903X0.360461X0.008243X0.131030X0.335903X0*%
%TD*%
%TA.AperFunction,SMDPad,CuDef*%
%ADD15RoundRect,0.200000X-0.091433X-0.348769X0.286774X-0.218542X0.091433X0.348769X-0.286774X0.218542X0*%
%TD*%
%TA.AperFunction,SMDPad,CuDef*%
%ADD16FreePoly0,324.000000*%
%TD*%
%TA.AperFunction,SMDPad,CuDef*%
%ADD17FreePoly0,288.000000*%
%TD*%
%TA.AperFunction,SMDPad,CuDef*%
%ADD18FreePoly0,252.000000*%
%TD*%
%TA.AperFunction,SMDPad,CuDef*%
%ADD19FreePoly0,216.000000*%
%TD*%
%TA.AperFunction,SMDPad,CuDef*%
%ADD20FreePoly0,180.000000*%
%TD*%
%TA.AperFunction,SMDPad,CuDef*%
%ADD21FreePoly0,144.000000*%
%TD*%
%TA.AperFunction,SMDPad,CuDef*%
%ADD22FreePoly0,108.000000*%
%TD*%
%TA.AperFunction,SMDPad,CuDef*%
%ADD23FreePoly0,72.000000*%
%TD*%
%TA.AperFunction,SMDPad,CuDef*%
%ADD24FreePoly0,36.000000*%
%TD*%
%TA.AperFunction,SMDPad,CuDef*%
%ADD25FreePoly0,0.000000*%
%TD*%
%TA.AperFunction,SMDPad,CuDef*%
%ADD26C,0.858836*%
%TD*%
%TA.AperFunction,SMDPad,CuDef*%
%ADD27C,8.420022*%
%TD*%
%TA.AperFunction,SMDPad,CuDef*%
%ADD28RoundRect,0.200000X0.282916X0.223514X-0.097506X0.347120X-0.282916X-0.223514X0.097506X-0.347120X0*%
%TD*%
%TA.AperFunction,SMDPad,CuDef*%
%ADD29R,2.200000X1.200000*%
%TD*%
%TA.AperFunction,SMDPad,CuDef*%
%ADD30RoundRect,0.200000X0.360262X0.014532X0.125148X0.338139X-0.360262X-0.014532X-0.125148X-0.338139X0*%
%TD*%
%TA.AperFunction,SMDPad,CuDef*%
%ADD31R,2.000000X2.000000*%
%TD*%
%TA.AperFunction,SMDPad,CuDef*%
%ADD32FreePoly1,0.000000*%
%TD*%
%TA.AperFunction,SMDPad,CuDef*%
%ADD33FreePoly2,0.000000*%
%TD*%
%TA.AperFunction,SMDPad,CuDef*%
%ADD34FreePoly3,270.000000*%
%TD*%
%TA.AperFunction,SMDPad,CuDef*%
%ADD35FreePoly4,90.000000*%
%TD*%
%TA.AperFunction,SMDPad,CuDef*%
%ADD36FreePoly3,90.000000*%
%TD*%
%TA.AperFunction,SMDPad,CuDef*%
%ADD37FreePoly4,270.000000*%
%TD*%
%TA.AperFunction,SMDPad,CuDef*%
%ADD38RoundRect,0.200000X0.300000X-0.200000X0.300000X0.200000X-0.300000X0.200000X-0.300000X-0.200000X0*%
%TD*%
%TA.AperFunction,SMDPad,CuDef*%
%ADD39R,1.400000X1.600000*%
%TD*%
%TA.AperFunction,SMDPad,CuDef*%
%ADD40R,3.000000X3.000000*%
%TD*%
%TA.AperFunction,SMDPad,CuDef*%
%ADD41RoundRect,0.200000X-0.125148X0.338139X-0.360262X0.014532X0.125148X-0.338139X0.360262X-0.014532X0*%
%TD*%
%TA.AperFunction,SMDPad,CuDef*%
%ADD42FreePoly3,0.000000*%
%TD*%
%TA.AperFunction,SMDPad,CuDef*%
%ADD43FreePoly4,180.000000*%
%TD*%
%TA.AperFunction,SMDPad,CuDef*%
%ADD44FreePoly3,180.000000*%
%TD*%
%TA.AperFunction,SMDPad,CuDef*%
%ADD45FreePoly4,0.000000*%
%TD*%
%TA.AperFunction,SMDPad,CuDef*%
%ADD46RoundRect,0.200000X0.131030X-0.335903X0.360461X-0.008243X-0.131030X0.335903X-0.360461X0.008243X0*%
%TD*%
%TA.AperFunction,SMDPad,CuDef*%
%ADD47R,1.800000X1.800000*%
%TD*%
%TA.AperFunction,ViaPad*%
%ADD48C,0.500000*%
%TD*%
%TA.AperFunction,Conductor*%
%ADD49C,0.140000*%
%TD*%
%TA.AperFunction,Conductor*%
%ADD50C,0.250000*%
%TD*%
%TA.AperFunction,Conductor*%
%ADD51C,0.100000*%
%TD*%
%TA.AperFunction,Conductor*%
%ADD52C,0.200000*%
%TD*%
%TA.AperFunction,Conductor*%
%ADD53C,0.500000*%
%TD*%
%TA.AperFunction,Conductor*%
%ADD54C,2.000000*%
%TD*%
%TA.AperFunction,Conductor*%
%ADD55C,0.040000*%
%TD*%
G04 APERTURE END LIST*
D10*
%TA.AperFunction,Conductor*%
%TO.N,Net-(J1-Pin_25)*%
G36*
X144870000Y-126290000D02*
G01*
X145570000Y-126290000D01*
X145570000Y-126020000D01*
X146570000Y-126020000D01*
X146570000Y-126800000D01*
X143860000Y-126800000D01*
X143860000Y-126020000D01*
X144870000Y-126020000D01*
X144870000Y-126290000D01*
G37*
%TD.AperFunction*%
%TD*%
D11*
%TO.P,U1,1,A*%
%TO.N,Net-(J1-Pin_21)*%
X129730000Y-126300000D03*
%TO.P,U1,2,K*%
%TO.N,Net-(U1-K)*%
X130730000Y-126300000D03*
%TO.P,U1,3,C*%
%TO.N,Net-(J1-Pin_23)*%
X129730000Y-124300000D03*
%TO.P,U1,4,E*%
%TO.N,Net-(J1-Pin_19)*%
X130730000Y-124300000D03*
%TD*%
%TO.P,U2,1,A*%
%TO.N,Net-(U1-K)*%
X135800000Y-121220000D03*
%TO.P,U2,2,K*%
%TO.N,Net-(J1-Pin_22)*%
X135800000Y-120220000D03*
%TO.P,U2,3,C*%
%TO.N,Net-(J1-Pin_23)*%
X133800000Y-121220000D03*
%TO.P,U2,4,E*%
%TO.N,Net-(J1-Pin_20)*%
X133800000Y-120220000D03*
%TD*%
D12*
%TO.P,R6,1*%
%TO.N,Net-(R5-Pad2)*%
X115830634Y-124654590D03*
%TO.P,R6,2*%
%TO.N,Net-(R6-Pad2)*%
X114689366Y-125025410D03*
%TD*%
D13*
%TO.P,R3,1*%
%TO.N,Net-(R2-Pad2)*%
X114652689Y-110644659D03*
%TO.P,R3,2*%
%TO.N,Net-(R3-Pad2)*%
X115787311Y-111035341D03*
%TD*%
D14*
%TO.P,R4,1*%
%TO.N,Net-(R3-Pad2)*%
X118615854Y-113018509D03*
%TO.P,R4,2*%
%TO.N,Net-(R4-Pad2)*%
X119304146Y-114001491D03*
%TD*%
D15*
%TO.P,R2,1*%
%TO.N,Net-(R1-Pad2)*%
X110052689Y-111065341D03*
%TO.P,R2,2*%
%TO.N,Net-(R2-Pad2)*%
X111187311Y-110674659D03*
%TD*%
D16*
%TO.P,SW1,1,1*%
%TO.N,Net-(J1-Pin_1)*%
X107820000Y-116120000D03*
D17*
%TO.P,SW1,2,2*%
%TO.N,Net-(R1-Pad2)*%
X109790000Y-113440000D03*
D18*
%TO.P,SW1,3,3*%
%TO.N,Net-(R2-Pad2)*%
X112980000Y-112430000D03*
D19*
%TO.P,SW1,4,4*%
%TO.N,Net-(R3-Pad2)*%
X116140000Y-113480000D03*
D20*
%TO.P,SW1,5,5*%
%TO.N,Net-(R4-Pad2)*%
X118080000Y-116180000D03*
D21*
%TO.P,SW1,6,6*%
%TO.N,Net-(R5-Pad1)*%
X118060000Y-119520000D03*
D22*
%TO.P,SW1,7,7*%
%TO.N,Net-(R5-Pad2)*%
X116080000Y-122200000D03*
D23*
%TO.P,SW1,8,8*%
%TO.N,Net-(R6-Pad2)*%
X112910000Y-123210000D03*
D24*
%TO.P,SW1,9,9*%
%TO.N,Net-(R7-Pad2)*%
X109740000Y-122160000D03*
D25*
%TO.P,SW1,10,10*%
%TO.N,Net-(J1-Pin_4)*%
X107800000Y-119450000D03*
D26*
%TO.P,SW1,13,13*%
%TO.N,Net-(J1-Pin_2)*%
X109310000Y-117820000D03*
D27*
X112970000Y-117830000D03*
%TD*%
D28*
%TO.P,R7,1*%
%TO.N,Net-(R6-Pad2)*%
X111250634Y-124995410D03*
%TO.P,R7,2*%
%TO.N,Net-(R7-Pad2)*%
X110109366Y-124624590D03*
%TD*%
D29*
%TO.P,BT1,1,+*%
%TO.N,Net-(BT1-+)*%
X115625000Y-104350000D03*
%TO.P,BT1,2,-*%
%TO.N,Net-(BT1--)*%
X115625000Y-102950000D03*
%TD*%
D30*
%TO.P,R8,1*%
%TO.N,Net-(R7-Pad2)*%
X107372671Y-122565410D03*
%TO.P,R8,2*%
%TO.N,Net-(J1-Pin_4)*%
X106667329Y-121594590D03*
%TD*%
D31*
%TO.P,SW6,1,B*%
%TO.N,Net-(J1-Pin_5)*%
X148340000Y-137570000D03*
X142110000Y-137550000D03*
%TO.P,SW6,2,C*%
%TO.N,Net-(J1-Pin_7)*%
X148340000Y-134780000D03*
%TO.P,SW6,3,A*%
X142110000Y-134790000D03*
%TD*%
D32*
%TO.P,J1,1,Pin_1*%
%TO.N,Net-(J1-Pin_1)*%
X110830000Y-179930000D03*
D33*
%TO.P,J1,2,Pin_2*%
%TO.N,Net-(J1-Pin_2)*%
X111080000Y-179180000D03*
D32*
%TO.P,J1,3,Pin_3*%
X111324118Y-179930000D03*
D33*
%TO.P,J1,4,Pin_4*%
%TO.N,Net-(J1-Pin_4)*%
X111573750Y-179180000D03*
D32*
%TO.P,J1,5,Pin_5*%
%TO.N,Net-(J1-Pin_5)*%
X111818235Y-179930000D03*
D33*
%TO.P,J1,6,Pin_6*%
X112067500Y-179180000D03*
D32*
%TO.P,J1,7,Pin_7*%
%TO.N,Net-(J1-Pin_7)*%
X112312353Y-179930000D03*
D33*
%TO.P,J1,8,Pin_8*%
%TO.N,Net-(J1-Pin_8)*%
X112561250Y-179180000D03*
D32*
%TO.P,J1,9,Pin_9*%
X112806471Y-179930000D03*
D33*
%TO.P,J1,10,Pin_10*%
%TO.N,unconnected-(J1-Pin_10-Pad10)*%
X113055000Y-179180000D03*
D32*
%TO.P,J1,11,Pin_11*%
%TO.N,unconnected-(J1-Pin_11-Pad11)*%
X113300588Y-179930000D03*
D33*
%TO.P,J1,12,Pin_12*%
%TO.N,Net-(J1-Pin_12)*%
X113548750Y-179180000D03*
D32*
%TO.P,J1,13,Pin_13*%
X113794706Y-179930000D03*
D33*
%TO.P,J1,14,Pin_14*%
%TO.N,unconnected-(J1-Pin_14-Pad14)*%
X114042500Y-179180000D03*
D32*
%TO.P,J1,15,Pin_15*%
%TO.N,Net-(D1-K)*%
X114288824Y-179930000D03*
D33*
%TO.P,J1,16,Pin_16*%
%TO.N,Net-(D1-A)*%
X114536250Y-179180000D03*
D32*
%TO.P,J1,17,Pin_17*%
%TO.N,Net-(D2-A)*%
X114782941Y-179930000D03*
D33*
%TO.P,J1,18,Pin_18*%
%TO.N,Net-(D2-K)*%
X115030000Y-179180000D03*
D32*
%TO.P,J1,19,Pin_19*%
%TO.N,Net-(J1-Pin_19)*%
X115277059Y-179930000D03*
D33*
%TO.P,J1,20,Pin_20*%
%TO.N,Net-(J1-Pin_20)*%
X115523750Y-179180000D03*
D32*
%TO.P,J1,21,Pin_21*%
%TO.N,Net-(J1-Pin_21)*%
X115771176Y-179930000D03*
D33*
%TO.P,J1,22,Pin_22*%
%TO.N,Net-(J1-Pin_22)*%
X116017500Y-179180000D03*
D32*
%TO.P,J1,23,Pin_23*%
%TO.N,Net-(J1-Pin_23)*%
X116265294Y-179930000D03*
D33*
%TO.P,J1,24,Pin_24*%
X116511250Y-179180000D03*
D32*
%TO.P,J1,25,Pin_25*%
%TO.N,Net-(J1-Pin_25)*%
X116759412Y-179930000D03*
D33*
%TO.P,J1,26,Pin_26*%
%TO.N,Net-(J1-Pin_26)*%
X117005000Y-179180000D03*
D32*
%TO.P,J1,27,Pin_27*%
%TO.N,unconnected-(J1-Pin_27-Pad27)*%
X117253529Y-179930000D03*
D33*
%TO.P,J1,28,Pin_28*%
%TO.N,unconnected-(J1-Pin_28-Pad28)*%
X117498750Y-179180000D03*
D32*
%TO.P,J1,29,Pin_29*%
%TO.N,unconnected-(J1-Pin_29-Pad29)*%
X117747647Y-179930000D03*
D33*
%TO.P,J1,30,Pin_30*%
%TO.N,unconnected-(J1-Pin_30-Pad30)*%
X117992500Y-179180000D03*
D32*
%TO.P,J1,31,Pin_31*%
%TO.N,Net-(J1-Pin_31)*%
X118241765Y-179930000D03*
D33*
%TO.P,J1,32,Pin_32*%
%TO.N,Net-(BT1--)*%
X118486250Y-179180000D03*
D32*
%TO.P,J1,33,Pin_33*%
%TO.N,Net-(J1-Pin_33)*%
X118735882Y-179930000D03*
D33*
%TO.P,J1,34,Pin_34*%
%TO.N,Net-(J1-Pin_34)*%
X118980000Y-179180000D03*
D32*
%TO.P,J1,35,Pin_35*%
%TO.N,Net-(J1-Pin_35)*%
X119230000Y-179930000D03*
%TD*%
D34*
%TO.P,J5,1,Pin_1*%
%TO.N,Net-(J1-Pin_26)*%
X146285000Y-124265000D03*
D35*
%TO.P,J5,2,Pin_2*%
%TO.N,Net-(J1-Pin_23)*%
X144155000Y-124265000D03*
D36*
%TO.P,J5,3,Pin_3*%
%TO.N,Net-(J1-Pin_25)*%
X144155000Y-125725000D03*
D37*
%TO.P,J5,4*%
%TO.N,N/C*%
X146285000Y-125725000D03*
%TD*%
D38*
%TO.P,F1,1*%
%TO.N,Net-(J1-Pin_31)*%
X121820000Y-115070000D03*
%TO.P,F1,2*%
%TO.N,Net-(BT1-+)*%
X121820000Y-113870000D03*
%TD*%
D39*
%TO.P,RV1,1,1*%
%TO.N,Net-(J1-Pin_33)*%
X146870000Y-107120000D03*
%TO.P,RV1,2,2*%
%TO.N,Net-(J1-Pin_35)*%
X145050000Y-107120000D03*
%TO.P,RV1,3,3*%
%TO.N,Net-(J1-Pin_34)*%
X143230000Y-107120000D03*
D40*
%TO.P,RV1,SH*%
%TO.N,N/C*%
X148950000Y-111300000D03*
X141150000Y-111300000D03*
%TD*%
D41*
%TO.P,R5,1*%
%TO.N,Net-(R5-Pad1)*%
X119312671Y-121644590D03*
%TO.P,R5,2*%
%TO.N,Net-(R5-Pad2)*%
X118607329Y-122615410D03*
%TD*%
D42*
%TO.P,J6,1,Pin_1*%
%TO.N,Net-(J6-Pin_1)*%
X96420000Y-100490000D03*
D43*
%TO.P,J6,2,Pin_2*%
%TO.N,Net-(J6-Pin_2)*%
X96420000Y-102620000D03*
D44*
%TO.P,J6,3,Pin_3*%
%TO.N,Net-(J6-Pin_3)*%
X97880000Y-102620000D03*
D45*
%TO.P,J6,4*%
%TO.N,N/C*%
X97880000Y-100490000D03*
%TD*%
D46*
%TO.P,R1,1*%
%TO.N,Net-(J1-Pin_1)*%
X106655854Y-114001491D03*
%TO.P,R1,2*%
%TO.N,Net-(R1-Pad2)*%
X107344146Y-113018509D03*
%TD*%
D47*
%TO.P,SW3,1,A*%
%TO.N,Net-(J6-Pin_2)*%
X94825000Y-184455000D03*
%TO.P,SW3,2,B*%
%TO.N,Net-(J6-Pin_1)*%
X94805000Y-188095000D03*
%TO.P,SW3,3,C*%
%TO.N,Net-(J6-Pin_3)*%
X99435000Y-184435000D03*
X99415000Y-188075000D03*
%TD*%
%TO.P,SW4,1,A*%
%TO.N,Net-(J1-Pin_26)*%
X132720000Y-140260000D03*
%TO.P,SW4,2,B*%
%TO.N,Net-(J1-Pin_23)*%
X136360000Y-140280000D03*
%TO.P,SW4,3,C*%
%TO.N,Net-(J1-Pin_25)*%
X132700000Y-135650000D03*
X136340000Y-135670000D03*
%TD*%
D48*
%TO.N,Net-(D1-A)*%
X109560000Y-127800000D03*
%TO.N,Net-(D1-K)*%
X109010000Y-128370000D03*
%TO.N,Net-(D2-K)*%
X110790000Y-126480000D03*
%TO.N,Net-(D2-A)*%
X110230000Y-127170000D03*
%TO.N,Net-(J1-Pin_25)*%
X130230000Y-129670000D03*
X116425000Y-128500000D03*
%TO.N,Net-(J1-Pin_23)*%
X119050000Y-124950000D03*
X142040000Y-124260000D03*
X125475000Y-124950000D03*
X132900000Y-129825000D03*
%TO.N,Net-(J1-Pin_26)*%
X116775000Y-129100000D03*
X128825000Y-129100000D03*
%TO.N,Net-(J1-Pin_19)*%
X124620000Y-125825000D03*
X113900000Y-126340000D03*
%TO.N,Net-(J1-Pin_21)*%
X125975000Y-126425000D03*
X116025000Y-126325000D03*
%TO.N,Net-(J1-Pin_22)*%
X125225000Y-127250000D03*
X115650000Y-127525000D03*
%TO.N,Net-(J1-Pin_20)*%
X117840000Y-124910000D03*
X126175000Y-124300000D03*
%TO.N,Net-(J1-Pin_5)*%
X111230000Y-129240000D03*
X145310000Y-119260000D03*
%TO.N,Net-(J1-Pin_7)*%
X145310000Y-122050000D03*
X112175000Y-129275000D03*
%TD*%
D49*
%TO.N,Net-(J1-Pin_20)*%
X126175000Y-124300000D02*
X128720000Y-124300000D01*
X128720000Y-124300000D02*
X132800000Y-120220000D01*
X132800000Y-120220000D02*
X133800000Y-120220000D01*
%TO.N,Net-(J1-Pin_19)*%
X124620000Y-125825000D02*
X124845000Y-125600000D01*
X124845000Y-125600000D02*
X129430000Y-125600000D01*
X129430000Y-125600000D02*
X130730000Y-124300000D01*
%TO.N,Net-(J1-Pin_23)*%
X125475000Y-124950000D02*
X129020000Y-124950000D01*
X129020000Y-124950000D02*
X129670000Y-124300000D01*
X129670000Y-124300000D02*
X129730000Y-124300000D01*
%TO.N,Net-(U1-K)*%
X130730000Y-126300000D02*
X132880000Y-128450000D01*
X138200000Y-126580000D02*
X138200000Y-123090000D01*
X132880000Y-128450000D02*
X136330000Y-128450000D01*
X138200000Y-123090000D02*
X136330000Y-121220000D01*
X136330000Y-128450000D02*
X138200000Y-126580000D01*
X136330000Y-121220000D02*
X135800000Y-121220000D01*
%TO.N,Net-(J1-Pin_22)*%
X125225000Y-127250000D02*
X131240000Y-127250000D01*
X131240000Y-127250000D02*
X132740000Y-128750000D01*
X138510000Y-126710000D02*
X138510000Y-122930000D01*
X132740000Y-128750000D02*
X136470000Y-128750000D01*
X136470000Y-128750000D02*
X138510000Y-126710000D01*
X138510000Y-122930000D02*
X135870000Y-120290000D01*
%TO.N,Net-(J1-Pin_23)*%
X129730000Y-124300000D02*
X132810000Y-121220000D01*
X132810000Y-121220000D02*
X133800000Y-121220000D01*
%TO.N,Net-(J1-Pin_21)*%
X125975000Y-126425000D02*
X126100000Y-126300000D01*
X126100000Y-126300000D02*
X129730000Y-126300000D01*
%TO.N,Net-(J1-Pin_25)*%
X144155000Y-125725000D02*
X139995000Y-125725000D01*
X139360000Y-126360000D02*
X139360000Y-126770000D01*
X139360000Y-126770000D02*
X136776000Y-129354000D01*
X130546000Y-129354000D02*
X130230000Y-129670000D01*
X139995000Y-125725000D02*
X139360000Y-126360000D01*
X136776000Y-129354000D02*
X130546000Y-129354000D01*
%TO.N,Net-(J1-Pin_26)*%
X146285000Y-124265000D02*
X145550000Y-123530000D01*
X139650000Y-123530000D02*
X138910000Y-124270000D01*
X138910000Y-124270000D02*
X138910000Y-126740000D01*
X138910000Y-126740000D02*
X136590000Y-129060000D01*
X145550000Y-123530000D02*
X139650000Y-123530000D01*
X136590000Y-129060000D02*
X128865000Y-129060000D01*
X128865000Y-129060000D02*
X128825000Y-129100000D01*
%TO.N,Net-(J1-Pin_5)*%
X144670000Y-121740000D02*
X144670000Y-122250000D01*
X145100000Y-122680000D02*
X145800000Y-122680000D01*
X145800000Y-122680000D02*
X147910000Y-124790000D01*
X147910000Y-126160000D02*
X140740000Y-133330000D01*
X140740000Y-133330000D02*
X140740000Y-136180000D01*
X145310000Y-121100000D02*
X144670000Y-121740000D01*
X145310000Y-119260000D02*
X145310000Y-121100000D01*
X144670000Y-122250000D02*
X145100000Y-122680000D01*
X147910000Y-124790000D02*
X147910000Y-126160000D01*
X140740000Y-136180000D02*
X142110000Y-137550000D01*
D50*
%TO.N,Net-(BT1--)*%
X118280000Y-177830000D02*
X118125000Y-177675000D01*
X118125000Y-177675000D02*
X118125000Y-129100000D01*
X116075000Y-100700000D02*
X115625000Y-101150000D01*
X123175000Y-101175000D02*
X122700000Y-100700000D01*
X118125000Y-129100000D02*
X123175000Y-124050000D01*
X123175000Y-124050000D02*
X123175000Y-101175000D01*
X122700000Y-100700000D02*
X116075000Y-100700000D01*
X115625000Y-101150000D02*
X115625000Y-102950000D01*
D49*
X118480000Y-179180000D02*
X118480000Y-178030000D01*
X118480000Y-178030000D02*
X118280000Y-177830000D01*
D51*
%TO.N,Net-(J1-Pin_31)*%
X118230000Y-178380000D02*
X118230000Y-179930000D01*
D50*
X117550000Y-128950000D02*
X121810000Y-124690000D01*
X117950000Y-178100000D02*
X117550000Y-177700000D01*
D51*
X117950000Y-178100000D02*
X118230000Y-178380000D01*
D50*
X117550000Y-177700000D02*
X117550000Y-128950000D01*
X121810000Y-124690000D02*
X121810000Y-115100000D01*
D49*
%TO.N,Net-(D2-A)*%
X114470000Y-177820000D02*
X113700000Y-177050000D01*
X113700000Y-128670000D02*
X112200000Y-127170000D01*
D51*
X114470000Y-177820000D02*
X114790000Y-178140000D01*
X114790000Y-178140000D02*
X114790000Y-179930000D01*
D49*
X113700000Y-177050000D02*
X113700000Y-128670000D01*
X112200000Y-127170000D02*
X110230000Y-127170000D01*
D51*
%TO.N,Net-(J1-Pin_19)*%
X115280000Y-177840000D02*
X115280000Y-179920000D01*
X115280000Y-179920000D02*
X115270000Y-179930000D01*
X114910000Y-177470000D02*
X115280000Y-177840000D01*
D49*
X114490000Y-126930000D02*
X113900000Y-126340000D01*
X114910000Y-177470000D02*
X114490000Y-177050000D01*
X114490000Y-177050000D02*
X114490000Y-126930000D01*
%TO.N,Net-(D1-A)*%
X114540000Y-178265000D02*
X114540000Y-179180000D01*
X113425000Y-128825000D02*
X113425000Y-177150000D01*
X113425000Y-177150000D02*
X114540000Y-178265000D01*
X109560000Y-127800000D02*
X112400000Y-127800000D01*
X112400000Y-127800000D02*
X113425000Y-128825000D01*
%TO.N,Net-(D1-K)*%
X113150000Y-128960000D02*
X113150000Y-177257500D01*
X113150000Y-177257500D02*
X114290000Y-178397500D01*
X114290000Y-178397500D02*
X114290000Y-178630000D01*
D51*
X114290000Y-179930000D02*
X114290000Y-178630000D01*
D49*
X109060000Y-128380000D02*
X112570000Y-128380000D01*
X109010000Y-128370000D02*
X109050000Y-128370000D01*
X112570000Y-128380000D02*
X113150000Y-128960000D01*
X109050000Y-128370000D02*
X109060000Y-128380000D01*
%TO.N,Net-(D2-K)*%
X110790000Y-126480000D02*
X111970000Y-126480000D01*
X115040000Y-178040000D02*
X115040000Y-179180000D01*
X111970000Y-126480000D02*
X113950000Y-128460000D01*
X113950000Y-128460000D02*
X113950000Y-176950000D01*
X113950000Y-176950000D02*
X115040000Y-178040000D01*
D50*
%TO.N,Net-(BT1-+)*%
X115625000Y-104350000D02*
X115625000Y-106715000D01*
D49*
X115600000Y-104325000D02*
X115625000Y-104350000D01*
D50*
X115625000Y-106715000D02*
X121820000Y-112910000D01*
X121820000Y-112910000D02*
X121820000Y-113870000D01*
D49*
%TO.N,Net-(J1-Pin_1)*%
X106230000Y-116120000D02*
X104140000Y-118210000D01*
D52*
X102550000Y-119800000D02*
X104140000Y-118210000D01*
D49*
X107820000Y-116120000D02*
X106230000Y-116120000D01*
X106830000Y-115130000D02*
X106830000Y-114175637D01*
X106830000Y-114175637D02*
X106655854Y-114001491D01*
D52*
X102550000Y-126890000D02*
X102550000Y-119800000D01*
X110709934Y-130959934D02*
X109810000Y-130060000D01*
X110709934Y-179809934D02*
X110709934Y-130959934D01*
D49*
X107820000Y-116120000D02*
X106830000Y-115130000D01*
D52*
X109810000Y-130060000D02*
X105720000Y-130060000D01*
X105720000Y-130060000D02*
X102550000Y-126890000D01*
X110830000Y-179930000D02*
X110709934Y-179809934D01*
D49*
%TO.N,Net-(R1-Pad2)*%
X109790000Y-113440000D02*
X109660000Y-113310000D01*
X109660000Y-113310000D02*
X107635637Y-113310000D01*
X109790000Y-113440000D02*
X109910000Y-113320000D01*
X107635637Y-113310000D02*
X107344146Y-113018509D01*
X109910000Y-113320000D02*
X109910000Y-111208030D01*
X109910000Y-111208030D02*
X110052689Y-111065341D01*
%TO.N,Net-(R2-Pad2)*%
X114515341Y-110644659D02*
X114652689Y-110644659D01*
X112980000Y-112430000D02*
X112980000Y-112330000D01*
X112980000Y-112180000D02*
X114515341Y-110644659D01*
X112980000Y-112430000D02*
X112980000Y-112180000D01*
X111324659Y-110674659D02*
X111187311Y-110674659D01*
X112980000Y-112330000D02*
X111324659Y-110674659D01*
%TO.N,Net-(R3-Pad2)*%
X116610000Y-113010000D02*
X118607345Y-113010000D01*
X115940000Y-113190000D02*
X115940000Y-111188030D01*
X115940000Y-111188030D02*
X115787311Y-111035341D01*
X116140000Y-113390000D02*
X115940000Y-113190000D01*
X116140000Y-113480000D02*
X116610000Y-113010000D01*
X118607345Y-113010000D02*
X118615854Y-113018509D01*
X116140000Y-113480000D02*
X116140000Y-113390000D01*
%TO.N,Net-(R4-Pad2)*%
X119130000Y-115130000D02*
X119130000Y-114175637D01*
X119130000Y-114175637D02*
X119304146Y-114001491D01*
X119304146Y-114001491D02*
X119289784Y-113987129D01*
X118080000Y-116180000D02*
X119130000Y-115130000D01*
%TO.N,Net-(R5-Pad1)*%
X119312671Y-121644590D02*
X119170000Y-121501919D01*
X119170000Y-121501919D02*
X119170000Y-120620000D01*
X119170000Y-120620000D02*
X118070000Y-119520000D01*
X118070000Y-119520000D02*
X118060000Y-119520000D01*
%TO.N,Net-(R5-Pad2)*%
X116000000Y-124485224D02*
X116000000Y-122280000D01*
X115830634Y-124654590D02*
X116000000Y-124485224D01*
X116000000Y-122280000D02*
X116080000Y-122200000D01*
X116080000Y-122200000D02*
X116495410Y-122615410D01*
X116495410Y-122615410D02*
X118528024Y-122615410D01*
%TO.N,Net-(R6-Pad2)*%
X112910000Y-123380000D02*
X112910000Y-123210000D01*
X112910000Y-123210000D02*
X112910000Y-123246044D01*
X112910000Y-123210000D02*
X112910000Y-123440000D01*
X111354590Y-124995410D02*
X111250634Y-124995410D01*
X112910000Y-123440000D02*
X111354590Y-124995410D01*
X114555410Y-125025410D02*
X112910000Y-123380000D01*
X114689366Y-125025410D02*
X114555410Y-125025410D01*
%TO.N,Net-(R7-Pad2)*%
X109930000Y-122350000D02*
X109930000Y-124445224D01*
X109740000Y-122160000D02*
X109930000Y-122350000D01*
X107377261Y-122570000D02*
X107372671Y-122565410D01*
X109330000Y-122570000D02*
X107377261Y-122570000D01*
X109930000Y-124445224D02*
X110109366Y-124624590D01*
X109740000Y-122160000D02*
X109330000Y-122570000D01*
D52*
%TO.N,Net-(J1-Pin_4)*%
X110072893Y-129230000D02*
X111580000Y-130737107D01*
D49*
X106810000Y-121451919D02*
X106810000Y-120440000D01*
X106810000Y-120440000D02*
X107800000Y-119450000D01*
X107800000Y-119450000D02*
X104250000Y-119450000D01*
D52*
X106160000Y-129230000D02*
X110072893Y-129230000D01*
X103550000Y-126620000D02*
X106160000Y-129230000D01*
X111580000Y-130737107D02*
X111580000Y-179180000D01*
D49*
X104250000Y-119450000D02*
X103550000Y-120150000D01*
X106667329Y-121594590D02*
X106810000Y-121451919D01*
D52*
X103550000Y-120150000D02*
X103550000Y-124720000D01*
X103550000Y-124720000D02*
X103550000Y-126620000D01*
D51*
%TO.N,Net-(J1-Pin_25)*%
X116425000Y-128500000D02*
X116250000Y-128675000D01*
D49*
X116425000Y-128500000D02*
X116495000Y-128500000D01*
D53*
X132700000Y-135650000D02*
X136320000Y-135650000D01*
X132680000Y-135650000D02*
X132700000Y-135650000D01*
D51*
X116250000Y-128675000D02*
X116250000Y-176925000D01*
X116760000Y-177435000D02*
X116760000Y-179930000D01*
D53*
X130230000Y-129670000D02*
X130230000Y-133200000D01*
D51*
X116250000Y-176925000D02*
X116760000Y-177435000D01*
D53*
X136320000Y-135650000D02*
X136340000Y-135670000D01*
X130230000Y-133200000D02*
X132680000Y-135650000D01*
D49*
%TO.N,Net-(J1-Pin_23)*%
X142040000Y-124260000D02*
X142045000Y-124265000D01*
X138190000Y-135065000D02*
X138190000Y-138450000D01*
X119050000Y-124950000D02*
X115875000Y-128125000D01*
X138190000Y-138450000D02*
X136360000Y-140280000D01*
X116510000Y-179415000D02*
X116260000Y-179665000D01*
X132950000Y-129825000D02*
X138190000Y-135065000D01*
X116260000Y-179665000D02*
X116260000Y-179930000D01*
X116510000Y-177572500D02*
X116510000Y-179415000D01*
X115875000Y-128125000D02*
X115875000Y-176937500D01*
X115875000Y-176937500D02*
X116510000Y-177572500D01*
X142045000Y-124265000D02*
X144155000Y-124265000D01*
%TO.N,Net-(J1-Pin_26)*%
X117010000Y-177260000D02*
X117010000Y-179180000D01*
D53*
X128825000Y-136365000D02*
X132720000Y-140260000D01*
X128825000Y-129100000D02*
X128825000Y-136365000D01*
D49*
X116675000Y-129200000D02*
X116675000Y-176925000D01*
X116675000Y-176925000D02*
X117010000Y-177260000D01*
X116775000Y-129100000D02*
X116675000Y-129200000D01*
%TO.N,Net-(J1-Pin_19)*%
X115270000Y-179930000D02*
X115270000Y-179780000D01*
D51*
%TO.N,Net-(J1-Pin_21)*%
X116025000Y-126325000D02*
X115150000Y-127200000D01*
X115150000Y-127200000D02*
X115150000Y-176925000D01*
X115770000Y-177545000D02*
X115770000Y-179930000D01*
X115150000Y-176925000D02*
X115770000Y-177545000D01*
D49*
%TO.N,Net-(J1-Pin_22)*%
X116020000Y-177457500D02*
X116020000Y-179180000D01*
X115500000Y-127675000D02*
X115500000Y-176937500D01*
X115500000Y-176937500D02*
X116020000Y-177457500D01*
X115650000Y-127525000D02*
X115500000Y-127675000D01*
%TO.N,Net-(J1-Pin_20)*%
X114825000Y-126655000D02*
X114825000Y-176937500D01*
X117040000Y-125710000D02*
X115770000Y-125710000D01*
X115520000Y-177632500D02*
X115520000Y-179180000D01*
X115770000Y-125710000D02*
X114825000Y-126655000D01*
X117840000Y-124910000D02*
X117040000Y-125710000D01*
X114825000Y-176937500D02*
X115520000Y-177632500D01*
%TO.N,Net-(J1-Pin_5)*%
X111230000Y-129240000D02*
X112070000Y-130080000D01*
X112070000Y-179405000D02*
X111820000Y-179655000D01*
X111820000Y-179655000D02*
X111820000Y-179780000D01*
D54*
X142110000Y-137550000D02*
X148320000Y-137550000D01*
D49*
X112070000Y-130080000D02*
X112070000Y-179405000D01*
%TO.N,Net-(J1-Pin_35)*%
X119365000Y-129685000D02*
X140530000Y-108520000D01*
X119300000Y-129750000D02*
X119365000Y-129685000D01*
X119230000Y-179890000D02*
X119300000Y-179820000D01*
X145050000Y-107830000D02*
X145050000Y-107120000D01*
X140530000Y-108520000D02*
X144360000Y-108520000D01*
X119300000Y-179820000D02*
X119300000Y-129750000D01*
X144360000Y-108520000D02*
X145050000Y-107830000D01*
%TO.N,Net-(J1-Pin_34)*%
X118980000Y-179180000D02*
X118980000Y-129645000D01*
X141505000Y-107120000D02*
X143230000Y-107120000D01*
X118980000Y-129645000D02*
X141505000Y-107120000D01*
D52*
%TO.N,Net-(J1-Pin_2)*%
X105940000Y-129640000D02*
X103050000Y-126750000D01*
D51*
X109310000Y-117820000D02*
X105240000Y-117820000D01*
D52*
X111080000Y-130742500D02*
X109977500Y-129640000D01*
D49*
X111330000Y-179655000D02*
X111080000Y-179405000D01*
X111080000Y-179405000D02*
X111080000Y-179180000D01*
D52*
X111080000Y-179180000D02*
X111080000Y-130742500D01*
X103050000Y-120010000D02*
X104510000Y-118550000D01*
D55*
X109710000Y-120040000D02*
X109960000Y-120040000D01*
D49*
X111330000Y-179930000D02*
X111330000Y-179655000D01*
D52*
X109977500Y-129640000D02*
X105940000Y-129640000D01*
D51*
X105240000Y-117820000D02*
X104510000Y-118550000D01*
D52*
X103050000Y-126750000D02*
X103050000Y-120010000D01*
D49*
%TO.N,Net-(J1-Pin_12)*%
X113800000Y-179650000D02*
X113800000Y-179930000D01*
X113550000Y-179400000D02*
X113800000Y-179650000D01*
X113550000Y-179180000D02*
X113550000Y-179400000D01*
%TO.N,Net-(J1-Pin_7)*%
X148320000Y-134427500D02*
X148340000Y-134447500D01*
X148330000Y-134790000D02*
X148340000Y-134780000D01*
X148340000Y-134440000D02*
X148340000Y-134447500D01*
X148340000Y-124600000D02*
X148340000Y-131560000D01*
X112175000Y-129275000D02*
X112320000Y-129420000D01*
X148340000Y-134780000D02*
X148340000Y-131560000D01*
X148340000Y-131560000D02*
X148340000Y-131657500D01*
X148330000Y-131667500D02*
X148340000Y-131657500D01*
X145310000Y-122050000D02*
X145790000Y-122050000D01*
X145790000Y-122050000D02*
X148340000Y-124600000D01*
D51*
X112320000Y-129420000D02*
X112320000Y-179930000D01*
D49*
%TO.N,Net-(J1-Pin_8)*%
X112810000Y-179660000D02*
X112810000Y-179930000D01*
X112570000Y-179420000D02*
X112810000Y-179660000D01*
X112570000Y-179180000D02*
X112570000Y-179420000D01*
%TO.N,Net-(J1-Pin_33)*%
X142445000Y-105780000D02*
X146330000Y-105780000D01*
X146330000Y-105780000D02*
X146870000Y-106320000D01*
X146870000Y-106320000D02*
X146870000Y-107120000D01*
D51*
X118734000Y-177664000D02*
X118650000Y-177580000D01*
D49*
X118650000Y-177580000D02*
X118650000Y-129575000D01*
X118735882Y-179930000D02*
X118734000Y-179928118D01*
D51*
X118734000Y-179928118D02*
X118734000Y-177664000D01*
D49*
X118650000Y-129575000D02*
X142445000Y-105780000D01*
%TO.N,Net-(J6-Pin_2)*%
X94860000Y-188095000D02*
X97125000Y-185830000D01*
X94805000Y-188095000D02*
X94860000Y-188095000D01*
X97125000Y-103085000D02*
X96455000Y-102415000D01*
X97125000Y-185830000D02*
X97125000Y-103085000D01*
%TO.N,Net-(J6-Pin_3)*%
X99435000Y-184435000D02*
X99435000Y-188055000D01*
X98595000Y-184435000D02*
X97525000Y-183365000D01*
X97525000Y-183365000D02*
X97525000Y-102745000D01*
X97525000Y-102745000D02*
X97875000Y-102395000D01*
X99435000Y-188055000D02*
X99415000Y-188075000D01*
X99435000Y-184435000D02*
X98595000Y-184435000D01*
%TO.N,Net-(J6-Pin_1)*%
X96775000Y-183345000D02*
X96775000Y-103495000D01*
X96775000Y-103495000D02*
X96490000Y-103210000D01*
X96040000Y-103210000D02*
X95780000Y-102950000D01*
X95780000Y-101370000D02*
X96445000Y-100705000D01*
X94825000Y-184455000D02*
X95665000Y-184455000D01*
X95780000Y-102950000D02*
X95780000Y-101370000D01*
X96490000Y-103210000D02*
X96040000Y-103210000D01*
X95665000Y-184455000D02*
X96775000Y-183345000D01*
D54*
%TO.N,Net-(J1-Pin_7)*%
X142110000Y-134790000D02*
X148330000Y-134790000D01*
%TD*%
%TA.AperFunction,Conductor*%
%TO.N,Net-(J6-Pin_3)*%
G36*
X97999827Y-183259685D02*
G01*
X98045582Y-183312489D01*
X98055526Y-183381647D01*
X98048970Y-183407334D01*
X98041402Y-183427623D01*
X98041401Y-183427627D01*
X98035000Y-183487155D01*
X98035000Y-184185000D01*
X100835000Y-184185000D01*
X100835000Y-183487172D01*
X100834999Y-183487158D01*
X100832913Y-183467757D01*
X100845317Y-183398998D01*
X100892926Y-183347859D01*
X100956202Y-183330500D01*
X102225500Y-183330500D01*
X102292539Y-183350185D01*
X102338294Y-183402989D01*
X102349500Y-183454500D01*
X102349500Y-189005500D01*
X102329815Y-189072539D01*
X102277011Y-189118294D01*
X102225500Y-189129500D01*
X100939000Y-189129500D01*
X100871961Y-189109815D01*
X100826206Y-189057011D01*
X100815000Y-189005500D01*
X100815000Y-188325000D01*
X98015000Y-188325000D01*
X98015000Y-189005500D01*
X97995315Y-189072539D01*
X97942511Y-189118294D01*
X97891000Y-189129500D01*
X96329500Y-189129500D01*
X96262461Y-189109815D01*
X96216706Y-189057011D01*
X96205500Y-189005500D01*
X96205499Y-187607670D01*
X96225184Y-187540631D01*
X96241813Y-187519994D01*
X96634653Y-187127155D01*
X98015000Y-187127155D01*
X98015000Y-187825000D01*
X99165000Y-187825000D01*
X99665000Y-187825000D01*
X100815000Y-187825000D01*
X100815000Y-187127172D01*
X100814999Y-187127155D01*
X100808598Y-187067627D01*
X100808596Y-187067620D01*
X100758354Y-186932913D01*
X100758350Y-186932906D01*
X100672190Y-186817812D01*
X100672187Y-186817809D01*
X100557093Y-186731649D01*
X100557086Y-186731645D01*
X100422379Y-186681403D01*
X100422372Y-186681401D01*
X100362844Y-186675000D01*
X99665000Y-186675000D01*
X99665000Y-187825000D01*
X99165000Y-187825000D01*
X99165000Y-186675000D01*
X98467155Y-186675000D01*
X98407627Y-186681401D01*
X98407620Y-186681403D01*
X98272913Y-186731645D01*
X98272906Y-186731649D01*
X98157812Y-186817809D01*
X98157809Y-186817812D01*
X98071649Y-186932906D01*
X98071645Y-186932913D01*
X98021403Y-187067620D01*
X98021401Y-187067627D01*
X98015000Y-187127155D01*
X96634653Y-187127155D01*
X97581514Y-186180295D01*
X97656622Y-186050205D01*
X97695500Y-185905108D01*
X97695500Y-185754892D01*
X97695500Y-185382844D01*
X98035000Y-185382844D01*
X98041401Y-185442372D01*
X98041403Y-185442379D01*
X98091645Y-185577086D01*
X98091649Y-185577093D01*
X98177809Y-185692187D01*
X98177812Y-185692190D01*
X98292906Y-185778350D01*
X98292913Y-185778354D01*
X98427620Y-185828596D01*
X98427627Y-185828598D01*
X98487155Y-185834999D01*
X98487172Y-185835000D01*
X99185000Y-185835000D01*
X99685000Y-185835000D01*
X100382828Y-185835000D01*
X100382844Y-185834999D01*
X100442372Y-185828598D01*
X100442379Y-185828596D01*
X100577086Y-185778354D01*
X100577093Y-185778350D01*
X100692187Y-185692190D01*
X100692190Y-185692187D01*
X100778350Y-185577093D01*
X100778354Y-185577086D01*
X100828596Y-185442379D01*
X100828598Y-185442372D01*
X100834999Y-185382844D01*
X100835000Y-185382827D01*
X100835000Y-184685000D01*
X99685000Y-184685000D01*
X99685000Y-185835000D01*
X99185000Y-185835000D01*
X99185000Y-184685000D01*
X98035000Y-184685000D01*
X98035000Y-185382844D01*
X97695500Y-185382844D01*
X97695500Y-183364000D01*
X97715185Y-183296961D01*
X97767989Y-183251206D01*
X97819500Y-183240000D01*
X97932788Y-183240000D01*
X97999827Y-183259685D01*
G37*
%TD.AperFunction*%
%TD*%
%TA.AperFunction,Conductor*%
%TO.N,Net-(J1-Pin_20)*%
G36*
X126236738Y-124059892D02*
G01*
X126662771Y-124227086D01*
X126669220Y-124233297D01*
X126670196Y-124237976D01*
X126670196Y-124362023D01*
X126666769Y-124370296D01*
X126662770Y-124372914D01*
X126236741Y-124540106D01*
X126227788Y-124539939D01*
X126221576Y-124533489D01*
X126221002Y-124531548D01*
X126174472Y-124302325D01*
X126174472Y-124297674D01*
X126221002Y-124068454D01*
X126226005Y-124061030D01*
X126234795Y-124059318D01*
X126236738Y-124059892D01*
G37*
%TD.AperFunction*%
%TD*%
%TA.AperFunction,Conductor*%
%TO.N,Net-(J1-Pin_19)*%
G36*
X125017613Y-125533931D02*
G01*
X125021927Y-125541778D01*
X125021998Y-125543063D01*
X125021998Y-125666484D01*
X125020060Y-125672933D01*
X124834335Y-125954100D01*
X124826916Y-125959114D01*
X124818124Y-125957413D01*
X124818094Y-125957394D01*
X124623070Y-125827706D01*
X124618079Y-125820271D01*
X124618065Y-125820201D01*
X124617097Y-125815233D01*
X124573656Y-125592272D01*
X124575437Y-125583499D01*
X124582902Y-125578553D01*
X124583836Y-125578410D01*
X125009014Y-125531434D01*
X125017613Y-125533931D01*
G37*
%TD.AperFunction*%
%TD*%
%TA.AperFunction,Conductor*%
%TO.N,Net-(J1-Pin_23)*%
G36*
X125536738Y-124709892D02*
G01*
X125962771Y-124877086D01*
X125969220Y-124883297D01*
X125970196Y-124887976D01*
X125970196Y-125012023D01*
X125966769Y-125020296D01*
X125962770Y-125022914D01*
X125536741Y-125190106D01*
X125527788Y-125189939D01*
X125521576Y-125183489D01*
X125521002Y-125181548D01*
X125474472Y-124952325D01*
X125474472Y-124947674D01*
X125521002Y-124718454D01*
X125526005Y-124711030D01*
X125534795Y-124709318D01*
X125536738Y-124709892D01*
G37*
%TD.AperFunction*%
%TD*%
%TA.AperFunction,Conductor*%
%TO.N,Net-(J1-Pin_22)*%
G36*
X125286738Y-127009892D02*
G01*
X125712771Y-127177086D01*
X125719220Y-127183297D01*
X125720196Y-127187976D01*
X125720196Y-127312023D01*
X125716769Y-127320296D01*
X125712770Y-127322914D01*
X125286741Y-127490106D01*
X125277788Y-127489939D01*
X125271576Y-127483489D01*
X125271002Y-127481548D01*
X125224472Y-127252325D01*
X125224472Y-127247674D01*
X125271002Y-127018454D01*
X125276005Y-127011030D01*
X125284795Y-127009318D01*
X125286738Y-127009892D01*
G37*
%TD.AperFunction*%
%TD*%
%TA.AperFunction,Conductor*%
%TO.N,Net-(J1-Pin_21)*%
G36*
X126428327Y-126228754D02*
G01*
X126436129Y-126233150D01*
X126438622Y-126240369D01*
X126438622Y-126364418D01*
X126435195Y-126372691D01*
X126434283Y-126373512D01*
X126123825Y-126624826D01*
X126115239Y-126627368D01*
X126107370Y-126623093D01*
X126106757Y-126622264D01*
X125976733Y-126429061D01*
X125974957Y-126420285D01*
X125974974Y-126420201D01*
X126021624Y-126190386D01*
X126026628Y-126182962D01*
X126034494Y-126181101D01*
X126428327Y-126228754D01*
G37*
%TD.AperFunction*%
%TD*%
%TA.AperFunction,Conductor*%
%TO.N,Net-(J1-Pin_25)*%
G36*
X130587767Y-129289848D02*
G01*
X130593679Y-129296573D01*
X130594305Y-129300348D01*
X130594305Y-129421725D01*
X130593453Y-129426108D01*
X130478822Y-129709797D01*
X130472545Y-129716184D01*
X130465700Y-129716891D01*
X130236707Y-129671526D01*
X130229258Y-129666557D01*
X130227497Y-129662286D01*
X130183179Y-129434821D01*
X130184960Y-129426046D01*
X130190885Y-129421511D01*
X130578832Y-129289274D01*
X130587767Y-129289848D01*
G37*
%TD.AperFunction*%
%TD*%
%TA.AperFunction,Conductor*%
%TO.N,Net-(J1-Pin_26)*%
G36*
X128886073Y-128858529D02*
G01*
X129311888Y-128987484D01*
X129318812Y-128993161D01*
X129320196Y-128998681D01*
X129320196Y-129122763D01*
X129316769Y-129131036D01*
X129313722Y-129133231D01*
X128973087Y-129303276D01*
X128964154Y-129303905D01*
X128958154Y-129299340D01*
X128826733Y-129104061D01*
X128824957Y-129095285D01*
X128824974Y-129095201D01*
X128844567Y-128998681D01*
X128871216Y-128867398D01*
X128876220Y-128859973D01*
X128885010Y-128858261D01*
X128886073Y-128858529D01*
G37*
%TD.AperFunction*%
%TD*%
%TA.AperFunction,Conductor*%
%TO.N,Net-(J1-Pin_5)*%
G36*
X145541544Y-119306001D02*
G01*
X145548969Y-119311005D01*
X145550681Y-119319795D01*
X145550106Y-119321741D01*
X145382914Y-119747770D01*
X145376702Y-119754220D01*
X145372023Y-119755196D01*
X145247977Y-119755196D01*
X145239704Y-119751769D01*
X145237086Y-119747770D01*
X145069893Y-119321741D01*
X145070060Y-119312788D01*
X145076510Y-119306576D01*
X145078447Y-119306003D01*
X145307675Y-119259472D01*
X145312325Y-119259472D01*
X145541544Y-119306001D01*
G37*
%TD.AperFunction*%
%TD*%
%TA.AperFunction,Conductor*%
%TO.N,Net-(D2-A)*%
G36*
X110291738Y-126929892D02*
G01*
X110717771Y-127097086D01*
X110724220Y-127103297D01*
X110725196Y-127107976D01*
X110725196Y-127232023D01*
X110721769Y-127240296D01*
X110717770Y-127242914D01*
X110291741Y-127410106D01*
X110282788Y-127409939D01*
X110276576Y-127403489D01*
X110276002Y-127401548D01*
X110229472Y-127172325D01*
X110229472Y-127167674D01*
X110276002Y-126938454D01*
X110281005Y-126931030D01*
X110289795Y-126929318D01*
X110291738Y-126929892D01*
G37*
%TD.AperFunction*%
%TD*%
%TA.AperFunction,Conductor*%
%TO.N,Net-(J1-Pin_19)*%
G36*
X114112468Y-126212093D02*
G01*
X114113438Y-126213876D01*
X114261597Y-126553438D01*
X114296464Y-126633347D01*
X114296631Y-126642300D01*
X114294013Y-126646299D01*
X114206299Y-126734013D01*
X114198026Y-126737440D01*
X114193348Y-126736464D01*
X113957017Y-126633347D01*
X113773876Y-126553438D01*
X113767664Y-126546988D01*
X113767831Y-126538035D01*
X113768795Y-126536262D01*
X113897981Y-126341272D01*
X113901273Y-126337981D01*
X114096254Y-126208800D01*
X114105041Y-126207089D01*
X114112468Y-126212093D01*
G37*
%TD.AperFunction*%
%TD*%
%TA.AperFunction,Conductor*%
%TO.N,Net-(D1-A)*%
G36*
X109621738Y-127559892D02*
G01*
X110047771Y-127727086D01*
X110054220Y-127733297D01*
X110055196Y-127737976D01*
X110055196Y-127862023D01*
X110051769Y-127870296D01*
X110047770Y-127872914D01*
X109621741Y-128040106D01*
X109612788Y-128039939D01*
X109606576Y-128033489D01*
X109606002Y-128031548D01*
X109559472Y-127802325D01*
X109559472Y-127797674D01*
X109606002Y-127568454D01*
X109611005Y-127561030D01*
X109619795Y-127559318D01*
X109621738Y-127559892D01*
G37*
%TD.AperFunction*%
%TD*%
%TA.AperFunction,Conductor*%
%TO.N,Net-(D1-K)*%
G36*
X109157735Y-128165802D02*
G01*
X109497982Y-128307006D01*
X109504308Y-128313341D01*
X109505196Y-128317811D01*
X109505196Y-128441854D01*
X109501769Y-128450127D01*
X109497556Y-128452827D01*
X109071581Y-128610456D01*
X109062633Y-128610113D01*
X109056548Y-128603543D01*
X109056057Y-128601819D01*
X109009974Y-128374797D01*
X109011685Y-128366009D01*
X109143547Y-128170076D01*
X109151009Y-128165126D01*
X109157735Y-128165802D01*
G37*
%TD.AperFunction*%
%TD*%
%TA.AperFunction,Conductor*%
%TO.N,Net-(D2-K)*%
G36*
X110851738Y-126239892D02*
G01*
X111277771Y-126407086D01*
X111284220Y-126413297D01*
X111285196Y-126417976D01*
X111285196Y-126542023D01*
X111281769Y-126550296D01*
X111277770Y-126552914D01*
X110851741Y-126720106D01*
X110842788Y-126719939D01*
X110836576Y-126713489D01*
X110836002Y-126711548D01*
X110789472Y-126482325D01*
X110789472Y-126477674D01*
X110836002Y-126248454D01*
X110841005Y-126241030D01*
X110849795Y-126239318D01*
X110851738Y-126239892D01*
G37*
%TD.AperFunction*%
%TD*%
%TA.AperFunction,Conductor*%
%TO.N,Net-(J1-Pin_23)*%
G36*
X118851964Y-124817831D02*
G01*
X118853741Y-124818798D01*
X118962901Y-124891119D01*
X119048726Y-124947981D01*
X119052018Y-124951273D01*
X119181198Y-125146252D01*
X119182910Y-125155041D01*
X119177906Y-125162468D01*
X119176123Y-125163438D01*
X118756652Y-125346464D01*
X118747699Y-125346631D01*
X118743700Y-125344013D01*
X118655986Y-125256299D01*
X118652559Y-125248026D01*
X118653533Y-125243353D01*
X118836562Y-124823875D01*
X118843011Y-124817664D01*
X118851964Y-124817831D01*
G37*
%TD.AperFunction*%
%TD*%
%TA.AperFunction,Conductor*%
%TO.N,Net-(J1-Pin_23)*%
G36*
X133113266Y-129696565D02*
G01*
X133113880Y-129697605D01*
X133320670Y-130093042D01*
X133321467Y-130101961D01*
X133318575Y-130106737D01*
X133230836Y-130194476D01*
X133222563Y-130197903D01*
X133218740Y-130197261D01*
X132860837Y-130073518D01*
X132854138Y-130067576D01*
X132853177Y-130060218D01*
X132898354Y-129829096D01*
X132903303Y-129821636D01*
X133097051Y-129693272D01*
X133105840Y-129691561D01*
X133113266Y-129696565D01*
G37*
%TD.AperFunction*%
%TD*%
%TA.AperFunction,Conductor*%
%TO.N,Net-(J1-Pin_23)*%
G36*
X142101819Y-124020070D02*
G01*
X142527876Y-124192045D01*
X142534264Y-124198318D01*
X142535196Y-124202893D01*
X142535196Y-124326939D01*
X142531769Y-124335212D01*
X142527664Y-124337871D01*
X142101662Y-124500281D01*
X142092711Y-124500027D01*
X142086562Y-124493517D01*
X142086030Y-124491685D01*
X142039472Y-124262325D01*
X142039472Y-124257674D01*
X142085974Y-124028590D01*
X142090978Y-124021165D01*
X142099768Y-124019453D01*
X142101819Y-124020070D01*
G37*
%TD.AperFunction*%
%TD*%
%TA.AperFunction,Conductor*%
%TO.N,Net-(J1-Pin_26)*%
G36*
X116778991Y-129101686D02*
G01*
X116972914Y-129232195D01*
X116977865Y-129239657D01*
X116976089Y-129248433D01*
X116975923Y-129248674D01*
X116748498Y-129569050D01*
X116740914Y-129573812D01*
X116738957Y-129573977D01*
X116614812Y-129573977D01*
X116606539Y-129570550D01*
X116603291Y-129564315D01*
X116547471Y-129248674D01*
X116531790Y-129160005D01*
X116533724Y-129151263D01*
X116540981Y-129146504D01*
X116770201Y-129099974D01*
X116778991Y-129101686D01*
G37*
%TD.AperFunction*%
%TD*%
%TA.AperFunction,Conductor*%
%TO.N,Net-(J1-Pin_21)*%
G36*
X116017979Y-126322782D02*
G01*
X116025441Y-126327733D01*
X116027217Y-126332020D01*
X116071891Y-126560567D01*
X116070115Y-126569344D01*
X116064621Y-126573727D01*
X115717301Y-126707770D01*
X115708348Y-126707552D01*
X115704815Y-126705128D01*
X115644871Y-126645184D01*
X115641444Y-126636911D01*
X115642229Y-126632698D01*
X115670067Y-126560567D01*
X115776272Y-126285377D01*
X115782447Y-126278894D01*
X115789428Y-126278108D01*
X116017979Y-126322782D01*
G37*
%TD.AperFunction*%
%TD*%
%TA.AperFunction,Conductor*%
%TO.N,Net-(J1-Pin_22)*%
G36*
X115653991Y-127526686D02*
G01*
X115846474Y-127656226D01*
X115851425Y-127663688D01*
X115849649Y-127672464D01*
X115848488Y-127673923D01*
X115573468Y-127968051D01*
X115565315Y-127971753D01*
X115564922Y-127971760D01*
X115440983Y-127971760D01*
X115432710Y-127968333D01*
X115429306Y-127960799D01*
X115405448Y-127583949D01*
X115408346Y-127575476D01*
X115414795Y-127571744D01*
X115645201Y-127524974D01*
X115653991Y-127526686D01*
G37*
%TD.AperFunction*%
%TD*%
%TA.AperFunction,Conductor*%
%TO.N,Net-(J1-Pin_20)*%
G36*
X117641964Y-124777831D02*
G01*
X117643741Y-124778798D01*
X117752901Y-124851119D01*
X117838726Y-124907981D01*
X117842018Y-124911273D01*
X117971198Y-125106252D01*
X117972910Y-125115041D01*
X117967906Y-125122468D01*
X117966123Y-125123438D01*
X117546652Y-125306464D01*
X117537699Y-125306631D01*
X117533700Y-125304013D01*
X117445986Y-125216299D01*
X117442559Y-125208026D01*
X117443533Y-125203353D01*
X117626562Y-124783875D01*
X117633011Y-124777664D01*
X117641964Y-124777831D01*
G37*
%TD.AperFunction*%
%TD*%
%TA.AperFunction,Conductor*%
%TO.N,Net-(J1-Pin_5)*%
G36*
X111442468Y-129112093D02*
G01*
X111443438Y-129113876D01*
X111591597Y-129453438D01*
X111626464Y-129533347D01*
X111626631Y-129542300D01*
X111624013Y-129546299D01*
X111536299Y-129634013D01*
X111528026Y-129637440D01*
X111523348Y-129636464D01*
X111287017Y-129533347D01*
X111103876Y-129453438D01*
X111097664Y-129446988D01*
X111097831Y-129438035D01*
X111098795Y-129436262D01*
X111227981Y-129241272D01*
X111231273Y-129237981D01*
X111426254Y-129108800D01*
X111435041Y-129107089D01*
X111442468Y-129112093D01*
G37*
%TD.AperFunction*%
%TD*%
%TA.AperFunction,Conductor*%
%TO.N,Net-(J1-Pin_7)*%
G36*
X145457758Y-121845868D02*
G01*
X145834211Y-122004493D01*
X145840504Y-122010864D01*
X145840450Y-122019818D01*
X145837941Y-122023548D01*
X145752631Y-122108858D01*
X145749491Y-122111099D01*
X145458069Y-122253386D01*
X145449131Y-122253936D01*
X145443213Y-122249380D01*
X145350660Y-122111099D01*
X145313662Y-122055821D01*
X145311909Y-122047041D01*
X145313681Y-122042780D01*
X145443515Y-121850112D01*
X145450981Y-121845167D01*
X145457758Y-121845868D01*
G37*
%TD.AperFunction*%
%TD*%
%TA.AperFunction,Conductor*%
%TO.N,Net-(J1-Pin_7)*%
G36*
X112179798Y-129274974D02*
G01*
X112190846Y-129277216D01*
X112409575Y-129321617D01*
X112417000Y-129326620D01*
X112418856Y-129334528D01*
X112371277Y-129716506D01*
X112366854Y-129724292D01*
X112359667Y-129726760D01*
X112274958Y-129726760D01*
X112266685Y-129723333D01*
X112266552Y-129723198D01*
X111976853Y-129423934D01*
X111973561Y-129415606D01*
X111977121Y-129407390D01*
X111978717Y-129406096D01*
X112170939Y-129276732D01*
X112179714Y-129274957D01*
X112179798Y-129274974D01*
G37*
%TD.AperFunction*%
%TD*%
M02*
