%TF.GenerationSoftware,KiCad,Pcbnew,9.0.3*%
%TF.CreationDate,2025-09-15T23:10:25+03:00*%
%TF.ProjectId,Right,52696768-742e-46b6-9963-61645f706362,rev?*%
%TF.SameCoordinates,Original*%
%TF.FileFunction,Drillmap*%
%TF.FilePolarity,Positive*%
%FSLAX45Y45*%
G04 Gerber Fmt 4.5, Leading zero omitted, Abs format (unit mm)*
G04 Created by KiCad (PCBNEW 9.0.3) date 2025-09-15 23:10:25*
%MOMM*%
%LPD*%
G01*
G04 APERTURE LIST*
%ADD10C,0.050000*%
%ADD11C,0.200000*%
%ADD12C,0.100000*%
G04 APERTURE END LIST*
D10*
X14603000Y-13802500D02*
G75*
G02*
X14443000Y-13802500I-80000J0D01*
G01*
X14443000Y-13802500D02*
G75*
G02*
X14603000Y-13802500I80000J0D01*
G01*
X11547000Y-11780000D02*
G75*
G02*
X11047000Y-11780000I-250000J0D01*
G01*
X11047000Y-11780000D02*
G75*
G02*
X11547000Y-11780000I250000J0D01*
G01*
X13227000Y-10000000D02*
X14148000Y-10000000D01*
X10393000Y-11193700D02*
G75*
G02*
X10233000Y-11193700I-80000J0D01*
G01*
X10233000Y-11193700D02*
G75*
G02*
X10393000Y-11193700I80000J0D01*
G01*
X12570000Y-14410000D02*
G75*
G02*
X12410000Y-14410000I-80000J0D01*
G01*
X12410000Y-14410000D02*
G75*
G02*
X12570000Y-14410000I80000J0D01*
G01*
X13750000Y-12500000D02*
G75*
G02*
X13150000Y-12500000I-300000J0D01*
G01*
X13150000Y-12500000D02*
G75*
G02*
X13750000Y-12500000I300000J0D01*
G01*
X8816000Y-17144000D02*
X9016000Y-17144000D01*
X10244000Y-17707000D02*
X10244000Y-15123386D01*
X15300000Y-14800000D02*
X12100000Y-14800000D01*
X8216000Y-17174000D02*
X8616000Y-17174000D01*
X8216000Y-17144000D02*
X8616000Y-17144000D01*
X14203000Y-14148000D02*
X14853000Y-14148000D01*
X14853000Y-14698000D01*
X14203000Y-14698000D01*
X14203000Y-14148000D01*
X8800000Y-18044000D02*
X8800000Y-18014000D01*
X12003000Y-14609157D02*
G75*
G02*
X11944421Y-14750578I-199990J-3D01*
G01*
X12093000Y-13100000D02*
X14084000Y-13100000D01*
X8216000Y-10000000D02*
X12377000Y-10000000D01*
X9216000Y-17174000D02*
X9216000Y-18044000D01*
X9016000Y-13100000D02*
X9016000Y-17144000D01*
X8816000Y-17174000D02*
G75*
G02*
X8816000Y-17144000I0J15000D01*
G01*
X8216000Y-18044000D02*
X8216000Y-17174000D01*
X14618000Y-12896000D02*
X14112000Y-12896000D01*
X14112000Y-12896000D02*
G75*
G02*
X14112000Y-13349000I0J-226500D01*
G01*
X14665000Y-11130000D02*
G75*
G02*
X14345000Y-11130000I-160000J0D01*
G01*
X14345000Y-11130000D02*
G75*
G02*
X14665000Y-11130000I160000J0D01*
G01*
X10943765Y-14346689D02*
X10303235Y-14981311D01*
X12100000Y-13316000D02*
G75*
G02*
X12280000Y-13136000I180000J0D01*
G01*
X13047000Y-10180000D02*
G75*
G02*
X13227000Y-10000000I180000J0D01*
G01*
X12216000Y-10940000D02*
G75*
G02*
X12056000Y-10940000I-80000J0D01*
G01*
X12056000Y-10940000D02*
G75*
G02*
X12216000Y-10940000I80000J0D01*
G01*
X9216000Y-18044000D02*
X8800000Y-18044000D01*
X12570000Y-11890000D02*
G75*
G02*
X12410000Y-11890000I-80000J0D01*
G01*
X12410000Y-11890000D02*
G75*
G02*
X12570000Y-11890000I80000J0D01*
G01*
X8631000Y-18014000D02*
X8631000Y-18044000D01*
X11003000Y-14204614D02*
G75*
G02*
X10943767Y-14346691I-200020J4D01*
G01*
X8816000Y-17174000D02*
X9216000Y-17174000D01*
X13545000Y-10531000D02*
G75*
G02*
X13385000Y-10531000I-80000J0D01*
G01*
X13385000Y-10531000D02*
G75*
G02*
X13545000Y-10531000I80000J0D01*
G01*
X14083000Y-13136000D02*
X12280000Y-13136000D01*
X10244000Y-15123386D02*
G75*
G02*
X10303233Y-14981309I200020J-4D01*
G01*
X12100000Y-13316000D02*
X12100000Y-14800000D01*
X12003000Y-13100000D02*
X12003000Y-14609157D01*
X14603000Y-12497500D02*
G75*
G02*
X14443000Y-12497500I-80000J0D01*
G01*
X14443000Y-12497500D02*
G75*
G02*
X14603000Y-12497500I80000J0D01*
G01*
X15053000Y-12297500D02*
G75*
G02*
X14893000Y-12297500I-80000J0D01*
G01*
X14893000Y-12297500D02*
G75*
G02*
X15053000Y-12297500I80000J0D01*
G01*
X15300000Y-10511000D02*
X15300000Y-12600000D01*
X13047000Y-10180000D02*
X12557000Y-10180000D01*
X8616000Y-17144000D02*
G75*
G02*
X8616000Y-17174000I0J-15000D01*
G01*
X12003000Y-13100000D02*
G75*
G02*
X12093000Y-13100000I45000J0D01*
G01*
X8631000Y-18044000D02*
X8216000Y-18044000D01*
X8800000Y-18014000D02*
X8631000Y-18014000D01*
X8216000Y-17144000D02*
X8216000Y-10000000D01*
X14618000Y-12896000D02*
X15300000Y-12600000D01*
X10913000Y-13100000D02*
G75*
G02*
X11003000Y-13100000I45000J0D01*
G01*
X11244000Y-15533843D02*
G75*
G02*
X11302579Y-15392422I199990J3D01*
G01*
X12377000Y-10000000D02*
G75*
G02*
X12557000Y-10180000I0J-180000D01*
G01*
X11003000Y-13100000D02*
X11003000Y-14204614D01*
X12426000Y-13379000D02*
G75*
G02*
X12396000Y-13349000I-30000J0D01*
G01*
X11244000Y-17707000D02*
X11244000Y-15533843D01*
X14148000Y-10000000D02*
X15300000Y-10511000D01*
X14084000Y-13099972D02*
G75*
G02*
X14083000Y-13136000I0J-18028D01*
G01*
X15300000Y-13379000D02*
X12426000Y-13379000D01*
X12396000Y-13349000D02*
X14112000Y-13349000D01*
X11944421Y-14750579D02*
X11302579Y-15392421D01*
X10830000Y-12735000D02*
G75*
G02*
X10670000Y-12735000I-80000J0D01*
G01*
X10670000Y-12735000D02*
G75*
G02*
X10830000Y-12735000I80000J0D01*
G01*
X10913000Y-13100000D02*
X9016000Y-13100000D01*
X15300000Y-14800000D02*
X15300000Y-13379000D01*
X12785000Y-12844000D02*
G75*
G02*
X12665000Y-12844000I-60000J0D01*
G01*
X12665000Y-12844000D02*
G75*
G02*
X12785000Y-12844000I60000J0D01*
G01*
X10190000Y-17807000D02*
X10190000Y-17707000D01*
X10244000Y-17707000D02*
X10190000Y-17707000D01*
X10290000Y-17807000D02*
X10190000Y-17807000D01*
X10290000Y-18024000D02*
X10290000Y-17807000D01*
X10290000Y-18024000D02*
X11198000Y-18024000D01*
X11198000Y-17807000D02*
X11298000Y-17807000D01*
X11198000Y-18024000D02*
X11198000Y-17807000D01*
X11244000Y-17707000D02*
X11298000Y-17707000D01*
X11298000Y-17807000D02*
X11298000Y-17707000D01*
D11*
D12*
X10968000Y-12777000D02*
X10998000Y-12807000D01*
X10998000Y-12777000D02*
X10968000Y-12807000D01*
X11028000Y-12735000D02*
X11058000Y-12765000D01*
X11058000Y-12735000D02*
X11028000Y-12765000D01*
X11106000Y-12697000D02*
X11136000Y-12727000D01*
X11136000Y-12697000D02*
X11106000Y-12727000D01*
X11136000Y-12842000D02*
X11166000Y-12872000D01*
X11166000Y-12842000D02*
X11136000Y-12872000D01*
X11151000Y-12635000D02*
X11181000Y-12665000D01*
X11181000Y-12635000D02*
X11151000Y-12665000D01*
X11236000Y-12841000D02*
X11266000Y-12871000D01*
X11266000Y-12841000D02*
X11236000Y-12871000D01*
X11366000Y-12631000D02*
X11396000Y-12661000D01*
X11396000Y-12631000D02*
X11366000Y-12661000D01*
X11550000Y-12737500D02*
X11580000Y-12767500D01*
X11580000Y-12737500D02*
X11550000Y-12767500D01*
X11576500Y-12628500D02*
X11606500Y-12658500D01*
X11606500Y-12628500D02*
X11576500Y-12658500D01*
X11658250Y-12804250D02*
X11688250Y-12834250D01*
X11688250Y-12804250D02*
X11658250Y-12834250D01*
X11662500Y-12895000D02*
X11692500Y-12925000D01*
X11692500Y-12895000D02*
X11662500Y-12925000D01*
X11769000Y-12476000D02*
X11799000Y-12506000D01*
X11799000Y-12476000D02*
X11769000Y-12506000D01*
X11890000Y-12480000D02*
X11920000Y-12510000D01*
X11920000Y-12480000D02*
X11890000Y-12510000D01*
X12215000Y-12904000D02*
X12245000Y-12934000D01*
X12245000Y-12904000D02*
X12215000Y-12934000D01*
X12282000Y-12842000D02*
X12312000Y-12872000D01*
X12312000Y-12842000D02*
X12282000Y-12872000D01*
X12348000Y-12776000D02*
X12378000Y-12806000D01*
X12378000Y-12776000D02*
X12348000Y-12806000D01*
X12447000Y-12567500D02*
X12477000Y-12597500D01*
X12477000Y-12567500D02*
X12447000Y-12597500D01*
X12507500Y-12710000D02*
X12537500Y-12740000D01*
X12537500Y-12710000D02*
X12507500Y-12740000D01*
X12532500Y-12480000D02*
X12562500Y-12510000D01*
X12562500Y-12480000D02*
X12532500Y-12510000D01*
X12582500Y-12627500D02*
X12612500Y-12657500D01*
X12612500Y-12627500D02*
X12582500Y-12657500D01*
X12602500Y-12415000D02*
X12632500Y-12445000D01*
X12632500Y-12415000D02*
X12602500Y-12445000D01*
X12951000Y-12194000D02*
X12981000Y-12224000D01*
X12981000Y-12194000D02*
X12951000Y-12224000D01*
X13039000Y-12124000D02*
X13069000Y-12154000D01*
X13069000Y-12124000D02*
X13039000Y-12154000D01*
X14236000Y-11928000D02*
G75*
G02*
X14186000Y-11928000I-25000J0D01*
G01*
X14186000Y-11928000D02*
G75*
G02*
X14236000Y-11928000I25000J0D01*
G01*
X14236000Y-12204000D02*
G75*
G02*
X14186000Y-12204000I-25000J0D01*
G01*
X14186000Y-12204000D02*
G75*
G02*
X14236000Y-12204000I25000J0D01*
G01*
X14759000Y-12205000D02*
G75*
G02*
X14709000Y-12205000I-25000J0D01*
G01*
X14709000Y-12205000D02*
G75*
G02*
X14759000Y-12205000I25000J0D01*
G01*
X14834000Y-12180000D02*
X14634000Y-12180000D01*
X14634000Y-12230000D02*
G75*
G02*
X14634000Y-12180000I0J25000D01*
G01*
X14634000Y-12230000D02*
X14834000Y-12230000D01*
X14834000Y-12230000D02*
G75*
G03*
X14834000Y-12180000I0J25000D01*
G01*
X14859000Y-11926000D02*
G75*
G02*
X14809000Y-11926000I-25000J0D01*
G01*
X14809000Y-11926000D02*
G75*
G02*
X14859000Y-11926000I25000J0D01*
G01*
D11*
X8474277Y-18357984D02*
X8474277Y-18157984D01*
X8474277Y-18157984D02*
X8521896Y-18157984D01*
X8521896Y-18157984D02*
X8550467Y-18167508D01*
X8550467Y-18167508D02*
X8569515Y-18186555D01*
X8569515Y-18186555D02*
X8579039Y-18205603D01*
X8579039Y-18205603D02*
X8588563Y-18243698D01*
X8588563Y-18243698D02*
X8588563Y-18272270D01*
X8588563Y-18272270D02*
X8579039Y-18310365D01*
X8579039Y-18310365D02*
X8569515Y-18329412D01*
X8569515Y-18329412D02*
X8550467Y-18348460D01*
X8550467Y-18348460D02*
X8521896Y-18357984D01*
X8521896Y-18357984D02*
X8474277Y-18357984D01*
X8674277Y-18357984D02*
X8674277Y-18224650D01*
X8674277Y-18262746D02*
X8683801Y-18243698D01*
X8683801Y-18243698D02*
X8693324Y-18234174D01*
X8693324Y-18234174D02*
X8712372Y-18224650D01*
X8712372Y-18224650D02*
X8731420Y-18224650D01*
X8798086Y-18357984D02*
X8798086Y-18224650D01*
X8798086Y-18157984D02*
X8788563Y-18167508D01*
X8788563Y-18167508D02*
X8798086Y-18177031D01*
X8798086Y-18177031D02*
X8807610Y-18167508D01*
X8807610Y-18167508D02*
X8798086Y-18157984D01*
X8798086Y-18157984D02*
X8798086Y-18177031D01*
X8921896Y-18357984D02*
X8902848Y-18348460D01*
X8902848Y-18348460D02*
X8893324Y-18329412D01*
X8893324Y-18329412D02*
X8893324Y-18157984D01*
X9026658Y-18357984D02*
X9007610Y-18348460D01*
X9007610Y-18348460D02*
X8998086Y-18329412D01*
X8998086Y-18329412D02*
X8998086Y-18157984D01*
X9255229Y-18357984D02*
X9255229Y-18157984D01*
X9255229Y-18157984D02*
X9321896Y-18300841D01*
X9321896Y-18300841D02*
X9388563Y-18157984D01*
X9388563Y-18157984D02*
X9388563Y-18357984D01*
X9569515Y-18357984D02*
X9569515Y-18253222D01*
X9569515Y-18253222D02*
X9559991Y-18234174D01*
X9559991Y-18234174D02*
X9540944Y-18224650D01*
X9540944Y-18224650D02*
X9502848Y-18224650D01*
X9502848Y-18224650D02*
X9483801Y-18234174D01*
X9569515Y-18348460D02*
X9550467Y-18357984D01*
X9550467Y-18357984D02*
X9502848Y-18357984D01*
X9502848Y-18357984D02*
X9483801Y-18348460D01*
X9483801Y-18348460D02*
X9474277Y-18329412D01*
X9474277Y-18329412D02*
X9474277Y-18310365D01*
X9474277Y-18310365D02*
X9483801Y-18291317D01*
X9483801Y-18291317D02*
X9502848Y-18281793D01*
X9502848Y-18281793D02*
X9550467Y-18281793D01*
X9550467Y-18281793D02*
X9569515Y-18272270D01*
X9664753Y-18224650D02*
X9664753Y-18424650D01*
X9664753Y-18234174D02*
X9683801Y-18224650D01*
X9683801Y-18224650D02*
X9721896Y-18224650D01*
X9721896Y-18224650D02*
X9740944Y-18234174D01*
X9740944Y-18234174D02*
X9750467Y-18243698D01*
X9750467Y-18243698D02*
X9759991Y-18262746D01*
X9759991Y-18262746D02*
X9759991Y-18319889D01*
X9759991Y-18319889D02*
X9750467Y-18338936D01*
X9750467Y-18338936D02*
X9740944Y-18348460D01*
X9740944Y-18348460D02*
X9721896Y-18357984D01*
X9721896Y-18357984D02*
X9683801Y-18357984D01*
X9683801Y-18357984D02*
X9664753Y-18348460D01*
X9845705Y-18338936D02*
X9855229Y-18348460D01*
X9855229Y-18348460D02*
X9845705Y-18357984D01*
X9845705Y-18357984D02*
X9836182Y-18348460D01*
X9836182Y-18348460D02*
X9845705Y-18338936D01*
X9845705Y-18338936D02*
X9845705Y-18357984D01*
X9845705Y-18234174D02*
X9855229Y-18243698D01*
X9855229Y-18243698D02*
X9845705Y-18253222D01*
X9845705Y-18253222D02*
X9836182Y-18243698D01*
X9836182Y-18243698D02*
X9845705Y-18234174D01*
X9845705Y-18234174D02*
X9845705Y-18253222D01*
D12*
X8183500Y-18671500D02*
X8213500Y-18701500D01*
X8213500Y-18671500D02*
X8183500Y-18701500D01*
D11*
X8512372Y-18577984D02*
X8531420Y-18577984D01*
X8531420Y-18577984D02*
X8550467Y-18587508D01*
X8550467Y-18587508D02*
X8559991Y-18597031D01*
X8559991Y-18597031D02*
X8569515Y-18616079D01*
X8569515Y-18616079D02*
X8579039Y-18654174D01*
X8579039Y-18654174D02*
X8579039Y-18701793D01*
X8579039Y-18701793D02*
X8569515Y-18739889D01*
X8569515Y-18739889D02*
X8559991Y-18758936D01*
X8559991Y-18758936D02*
X8550467Y-18768460D01*
X8550467Y-18768460D02*
X8531420Y-18777984D01*
X8531420Y-18777984D02*
X8512372Y-18777984D01*
X8512372Y-18777984D02*
X8493324Y-18768460D01*
X8493324Y-18768460D02*
X8483801Y-18758936D01*
X8483801Y-18758936D02*
X8474277Y-18739889D01*
X8474277Y-18739889D02*
X8464753Y-18701793D01*
X8464753Y-18701793D02*
X8464753Y-18654174D01*
X8464753Y-18654174D02*
X8474277Y-18616079D01*
X8474277Y-18616079D02*
X8483801Y-18597031D01*
X8483801Y-18597031D02*
X8493324Y-18587508D01*
X8493324Y-18587508D02*
X8512372Y-18577984D01*
X8664753Y-18758936D02*
X8674277Y-18768460D01*
X8674277Y-18768460D02*
X8664753Y-18777984D01*
X8664753Y-18777984D02*
X8655229Y-18768460D01*
X8655229Y-18768460D02*
X8664753Y-18758936D01*
X8664753Y-18758936D02*
X8664753Y-18777984D01*
X8740944Y-18577984D02*
X8864753Y-18577984D01*
X8864753Y-18577984D02*
X8798086Y-18654174D01*
X8798086Y-18654174D02*
X8826658Y-18654174D01*
X8826658Y-18654174D02*
X8845705Y-18663698D01*
X8845705Y-18663698D02*
X8855229Y-18673222D01*
X8855229Y-18673222D02*
X8864753Y-18692270D01*
X8864753Y-18692270D02*
X8864753Y-18739889D01*
X8864753Y-18739889D02*
X8855229Y-18758936D01*
X8855229Y-18758936D02*
X8845705Y-18768460D01*
X8845705Y-18768460D02*
X8826658Y-18777984D01*
X8826658Y-18777984D02*
X8769515Y-18777984D01*
X8769515Y-18777984D02*
X8750467Y-18768460D01*
X8750467Y-18768460D02*
X8740944Y-18758936D01*
X8988563Y-18577984D02*
X9007610Y-18577984D01*
X9007610Y-18577984D02*
X9026658Y-18587508D01*
X9026658Y-18587508D02*
X9036182Y-18597031D01*
X9036182Y-18597031D02*
X9045705Y-18616079D01*
X9045705Y-18616079D02*
X9055229Y-18654174D01*
X9055229Y-18654174D02*
X9055229Y-18701793D01*
X9055229Y-18701793D02*
X9045705Y-18739889D01*
X9045705Y-18739889D02*
X9036182Y-18758936D01*
X9036182Y-18758936D02*
X9026658Y-18768460D01*
X9026658Y-18768460D02*
X9007610Y-18777984D01*
X9007610Y-18777984D02*
X8988563Y-18777984D01*
X8988563Y-18777984D02*
X8969515Y-18768460D01*
X8969515Y-18768460D02*
X8959991Y-18758936D01*
X8959991Y-18758936D02*
X8950467Y-18739889D01*
X8950467Y-18739889D02*
X8940944Y-18701793D01*
X8940944Y-18701793D02*
X8940944Y-18654174D01*
X8940944Y-18654174D02*
X8950467Y-18616079D01*
X8950467Y-18616079D02*
X8959991Y-18597031D01*
X8959991Y-18597031D02*
X8969515Y-18587508D01*
X8969515Y-18587508D02*
X8988563Y-18577984D01*
X9179039Y-18577984D02*
X9198086Y-18577984D01*
X9198086Y-18577984D02*
X9217134Y-18587508D01*
X9217134Y-18587508D02*
X9226658Y-18597031D01*
X9226658Y-18597031D02*
X9236182Y-18616079D01*
X9236182Y-18616079D02*
X9245705Y-18654174D01*
X9245705Y-18654174D02*
X9245705Y-18701793D01*
X9245705Y-18701793D02*
X9236182Y-18739889D01*
X9236182Y-18739889D02*
X9226658Y-18758936D01*
X9226658Y-18758936D02*
X9217134Y-18768460D01*
X9217134Y-18768460D02*
X9198086Y-18777984D01*
X9198086Y-18777984D02*
X9179039Y-18777984D01*
X9179039Y-18777984D02*
X9159991Y-18768460D01*
X9159991Y-18768460D02*
X9150467Y-18758936D01*
X9150467Y-18758936D02*
X9140944Y-18739889D01*
X9140944Y-18739889D02*
X9131420Y-18701793D01*
X9131420Y-18701793D02*
X9131420Y-18654174D01*
X9131420Y-18654174D02*
X9140944Y-18616079D01*
X9140944Y-18616079D02*
X9150467Y-18597031D01*
X9150467Y-18597031D02*
X9159991Y-18587508D01*
X9159991Y-18587508D02*
X9179039Y-18577984D01*
X9331420Y-18777984D02*
X9331420Y-18644650D01*
X9331420Y-18663698D02*
X9340944Y-18654174D01*
X9340944Y-18654174D02*
X9359991Y-18644650D01*
X9359991Y-18644650D02*
X9388563Y-18644650D01*
X9388563Y-18644650D02*
X9407610Y-18654174D01*
X9407610Y-18654174D02*
X9417134Y-18673222D01*
X9417134Y-18673222D02*
X9417134Y-18777984D01*
X9417134Y-18673222D02*
X9426658Y-18654174D01*
X9426658Y-18654174D02*
X9445705Y-18644650D01*
X9445705Y-18644650D02*
X9474277Y-18644650D01*
X9474277Y-18644650D02*
X9493325Y-18654174D01*
X9493325Y-18654174D02*
X9502848Y-18673222D01*
X9502848Y-18673222D02*
X9502848Y-18777984D01*
X9598086Y-18777984D02*
X9598086Y-18644650D01*
X9598086Y-18663698D02*
X9607610Y-18654174D01*
X9607610Y-18654174D02*
X9626658Y-18644650D01*
X9626658Y-18644650D02*
X9655229Y-18644650D01*
X9655229Y-18644650D02*
X9674277Y-18654174D01*
X9674277Y-18654174D02*
X9683801Y-18673222D01*
X9683801Y-18673222D02*
X9683801Y-18777984D01*
X9683801Y-18673222D02*
X9693325Y-18654174D01*
X9693325Y-18654174D02*
X9712372Y-18644650D01*
X9712372Y-18644650D02*
X9740944Y-18644650D01*
X9740944Y-18644650D02*
X9759991Y-18654174D01*
X9759991Y-18654174D02*
X9769515Y-18673222D01*
X9769515Y-18673222D02*
X9769515Y-18777984D01*
X10159991Y-18568460D02*
X9988563Y-18825603D01*
X10417134Y-18577984D02*
X10436182Y-18577984D01*
X10436182Y-18577984D02*
X10455229Y-18587508D01*
X10455229Y-18587508D02*
X10464753Y-18597031D01*
X10464753Y-18597031D02*
X10474277Y-18616079D01*
X10474277Y-18616079D02*
X10483801Y-18654174D01*
X10483801Y-18654174D02*
X10483801Y-18701793D01*
X10483801Y-18701793D02*
X10474277Y-18739889D01*
X10474277Y-18739889D02*
X10464753Y-18758936D01*
X10464753Y-18758936D02*
X10455229Y-18768460D01*
X10455229Y-18768460D02*
X10436182Y-18777984D01*
X10436182Y-18777984D02*
X10417134Y-18777984D01*
X10417134Y-18777984D02*
X10398087Y-18768460D01*
X10398087Y-18768460D02*
X10388563Y-18758936D01*
X10388563Y-18758936D02*
X10379039Y-18739889D01*
X10379039Y-18739889D02*
X10369515Y-18701793D01*
X10369515Y-18701793D02*
X10369515Y-18654174D01*
X10369515Y-18654174D02*
X10379039Y-18616079D01*
X10379039Y-18616079D02*
X10388563Y-18597031D01*
X10388563Y-18597031D02*
X10398087Y-18587508D01*
X10398087Y-18587508D02*
X10417134Y-18577984D01*
X10569515Y-18758936D02*
X10579039Y-18768460D01*
X10579039Y-18768460D02*
X10569515Y-18777984D01*
X10569515Y-18777984D02*
X10559991Y-18768460D01*
X10559991Y-18768460D02*
X10569515Y-18758936D01*
X10569515Y-18758936D02*
X10569515Y-18777984D01*
X10702848Y-18577984D02*
X10721896Y-18577984D01*
X10721896Y-18577984D02*
X10740944Y-18587508D01*
X10740944Y-18587508D02*
X10750468Y-18597031D01*
X10750468Y-18597031D02*
X10759991Y-18616079D01*
X10759991Y-18616079D02*
X10769515Y-18654174D01*
X10769515Y-18654174D02*
X10769515Y-18701793D01*
X10769515Y-18701793D02*
X10759991Y-18739889D01*
X10759991Y-18739889D02*
X10750468Y-18758936D01*
X10750468Y-18758936D02*
X10740944Y-18768460D01*
X10740944Y-18768460D02*
X10721896Y-18777984D01*
X10721896Y-18777984D02*
X10702848Y-18777984D01*
X10702848Y-18777984D02*
X10683801Y-18768460D01*
X10683801Y-18768460D02*
X10674277Y-18758936D01*
X10674277Y-18758936D02*
X10664753Y-18739889D01*
X10664753Y-18739889D02*
X10655229Y-18701793D01*
X10655229Y-18701793D02*
X10655229Y-18654174D01*
X10655229Y-18654174D02*
X10664753Y-18616079D01*
X10664753Y-18616079D02*
X10674277Y-18597031D01*
X10674277Y-18597031D02*
X10683801Y-18587508D01*
X10683801Y-18587508D02*
X10702848Y-18577984D01*
X10959991Y-18777984D02*
X10845706Y-18777984D01*
X10902848Y-18777984D02*
X10902848Y-18577984D01*
X10902848Y-18577984D02*
X10883801Y-18606555D01*
X10883801Y-18606555D02*
X10864753Y-18625603D01*
X10864753Y-18625603D02*
X10845706Y-18635127D01*
X11150468Y-18777984D02*
X11036182Y-18777984D01*
X11093325Y-18777984D02*
X11093325Y-18577984D01*
X11093325Y-18577984D02*
X11074277Y-18606555D01*
X11074277Y-18606555D02*
X11055229Y-18625603D01*
X11055229Y-18625603D02*
X11036182Y-18635127D01*
X11264753Y-18663698D02*
X11245706Y-18654174D01*
X11245706Y-18654174D02*
X11236182Y-18644650D01*
X11236182Y-18644650D02*
X11226658Y-18625603D01*
X11226658Y-18625603D02*
X11226658Y-18616079D01*
X11226658Y-18616079D02*
X11236182Y-18597031D01*
X11236182Y-18597031D02*
X11245706Y-18587508D01*
X11245706Y-18587508D02*
X11264753Y-18577984D01*
X11264753Y-18577984D02*
X11302848Y-18577984D01*
X11302848Y-18577984D02*
X11321896Y-18587508D01*
X11321896Y-18587508D02*
X11331420Y-18597031D01*
X11331420Y-18597031D02*
X11340944Y-18616079D01*
X11340944Y-18616079D02*
X11340944Y-18625603D01*
X11340944Y-18625603D02*
X11331420Y-18644650D01*
X11331420Y-18644650D02*
X11321896Y-18654174D01*
X11321896Y-18654174D02*
X11302848Y-18663698D01*
X11302848Y-18663698D02*
X11264753Y-18663698D01*
X11264753Y-18663698D02*
X11245706Y-18673222D01*
X11245706Y-18673222D02*
X11236182Y-18682746D01*
X11236182Y-18682746D02*
X11226658Y-18701793D01*
X11226658Y-18701793D02*
X11226658Y-18739889D01*
X11226658Y-18739889D02*
X11236182Y-18758936D01*
X11236182Y-18758936D02*
X11245706Y-18768460D01*
X11245706Y-18768460D02*
X11264753Y-18777984D01*
X11264753Y-18777984D02*
X11302848Y-18777984D01*
X11302848Y-18777984D02*
X11321896Y-18768460D01*
X11321896Y-18768460D02*
X11331420Y-18758936D01*
X11331420Y-18758936D02*
X11340944Y-18739889D01*
X11340944Y-18739889D02*
X11340944Y-18701793D01*
X11340944Y-18701793D02*
X11331420Y-18682746D01*
X11331420Y-18682746D02*
X11321896Y-18673222D01*
X11321896Y-18673222D02*
X11302848Y-18663698D01*
X11417134Y-18577984D02*
X11417134Y-18616079D01*
X11493325Y-18577984D02*
X11493325Y-18616079D01*
X11788563Y-18854174D02*
X11779039Y-18844650D01*
X11779039Y-18844650D02*
X11759991Y-18816079D01*
X11759991Y-18816079D02*
X11750468Y-18797031D01*
X11750468Y-18797031D02*
X11740944Y-18768460D01*
X11740944Y-18768460D02*
X11731420Y-18720841D01*
X11731420Y-18720841D02*
X11731420Y-18682746D01*
X11731420Y-18682746D02*
X11740944Y-18635127D01*
X11740944Y-18635127D02*
X11750468Y-18606555D01*
X11750468Y-18606555D02*
X11759991Y-18587508D01*
X11759991Y-18587508D02*
X11779039Y-18558936D01*
X11779039Y-18558936D02*
X11788563Y-18549412D01*
X11855229Y-18597031D02*
X11864753Y-18587508D01*
X11864753Y-18587508D02*
X11883801Y-18577984D01*
X11883801Y-18577984D02*
X11931420Y-18577984D01*
X11931420Y-18577984D02*
X11950468Y-18587508D01*
X11950468Y-18587508D02*
X11959991Y-18597031D01*
X11959991Y-18597031D02*
X11969515Y-18616079D01*
X11969515Y-18616079D02*
X11969515Y-18635127D01*
X11969515Y-18635127D02*
X11959991Y-18663698D01*
X11959991Y-18663698D02*
X11845706Y-18777984D01*
X11845706Y-18777984D02*
X11969515Y-18777984D01*
X12036182Y-18577984D02*
X12159991Y-18577984D01*
X12159991Y-18577984D02*
X12093325Y-18654174D01*
X12093325Y-18654174D02*
X12121896Y-18654174D01*
X12121896Y-18654174D02*
X12140944Y-18663698D01*
X12140944Y-18663698D02*
X12150468Y-18673222D01*
X12150468Y-18673222D02*
X12159991Y-18692270D01*
X12159991Y-18692270D02*
X12159991Y-18739889D01*
X12159991Y-18739889D02*
X12150468Y-18758936D01*
X12150468Y-18758936D02*
X12140944Y-18768460D01*
X12140944Y-18768460D02*
X12121896Y-18777984D01*
X12121896Y-18777984D02*
X12064753Y-18777984D01*
X12064753Y-18777984D02*
X12045706Y-18768460D01*
X12045706Y-18768460D02*
X12036182Y-18758936D01*
X12398087Y-18777984D02*
X12398087Y-18577984D01*
X12483801Y-18777984D02*
X12483801Y-18673222D01*
X12483801Y-18673222D02*
X12474277Y-18654174D01*
X12474277Y-18654174D02*
X12455230Y-18644650D01*
X12455230Y-18644650D02*
X12426658Y-18644650D01*
X12426658Y-18644650D02*
X12407610Y-18654174D01*
X12407610Y-18654174D02*
X12398087Y-18663698D01*
X12607610Y-18777984D02*
X12588563Y-18768460D01*
X12588563Y-18768460D02*
X12579039Y-18758936D01*
X12579039Y-18758936D02*
X12569515Y-18739889D01*
X12569515Y-18739889D02*
X12569515Y-18682746D01*
X12569515Y-18682746D02*
X12579039Y-18663698D01*
X12579039Y-18663698D02*
X12588563Y-18654174D01*
X12588563Y-18654174D02*
X12607610Y-18644650D01*
X12607610Y-18644650D02*
X12636182Y-18644650D01*
X12636182Y-18644650D02*
X12655230Y-18654174D01*
X12655230Y-18654174D02*
X12664753Y-18663698D01*
X12664753Y-18663698D02*
X12674277Y-18682746D01*
X12674277Y-18682746D02*
X12674277Y-18739889D01*
X12674277Y-18739889D02*
X12664753Y-18758936D01*
X12664753Y-18758936D02*
X12655230Y-18768460D01*
X12655230Y-18768460D02*
X12636182Y-18777984D01*
X12636182Y-18777984D02*
X12607610Y-18777984D01*
X12788563Y-18777984D02*
X12769515Y-18768460D01*
X12769515Y-18768460D02*
X12759991Y-18749412D01*
X12759991Y-18749412D02*
X12759991Y-18577984D01*
X12940944Y-18768460D02*
X12921896Y-18777984D01*
X12921896Y-18777984D02*
X12883801Y-18777984D01*
X12883801Y-18777984D02*
X12864753Y-18768460D01*
X12864753Y-18768460D02*
X12855230Y-18749412D01*
X12855230Y-18749412D02*
X12855230Y-18673222D01*
X12855230Y-18673222D02*
X12864753Y-18654174D01*
X12864753Y-18654174D02*
X12883801Y-18644650D01*
X12883801Y-18644650D02*
X12921896Y-18644650D01*
X12921896Y-18644650D02*
X12940944Y-18654174D01*
X12940944Y-18654174D02*
X12950468Y-18673222D01*
X12950468Y-18673222D02*
X12950468Y-18692270D01*
X12950468Y-18692270D02*
X12855230Y-18711317D01*
X13026658Y-18768460D02*
X13045706Y-18777984D01*
X13045706Y-18777984D02*
X13083801Y-18777984D01*
X13083801Y-18777984D02*
X13102849Y-18768460D01*
X13102849Y-18768460D02*
X13112372Y-18749412D01*
X13112372Y-18749412D02*
X13112372Y-18739889D01*
X13112372Y-18739889D02*
X13102849Y-18720841D01*
X13102849Y-18720841D02*
X13083801Y-18711317D01*
X13083801Y-18711317D02*
X13055230Y-18711317D01*
X13055230Y-18711317D02*
X13036182Y-18701793D01*
X13036182Y-18701793D02*
X13026658Y-18682746D01*
X13026658Y-18682746D02*
X13026658Y-18673222D01*
X13026658Y-18673222D02*
X13036182Y-18654174D01*
X13036182Y-18654174D02*
X13055230Y-18644650D01*
X13055230Y-18644650D02*
X13083801Y-18644650D01*
X13083801Y-18644650D02*
X13102849Y-18654174D01*
X13179039Y-18854174D02*
X13188563Y-18844650D01*
X13188563Y-18844650D02*
X13207611Y-18816079D01*
X13207611Y-18816079D02*
X13217134Y-18797031D01*
X13217134Y-18797031D02*
X13226658Y-18768460D01*
X13226658Y-18768460D02*
X13236182Y-18720841D01*
X13236182Y-18720841D02*
X13236182Y-18682746D01*
X13236182Y-18682746D02*
X13226658Y-18635127D01*
X13226658Y-18635127D02*
X13217134Y-18606555D01*
X13217134Y-18606555D02*
X13207611Y-18587508D01*
X13207611Y-18587508D02*
X13188563Y-18558936D01*
X13188563Y-18558936D02*
X13179039Y-18549412D01*
D12*
X8213500Y-18950500D02*
G75*
G02*
X8163500Y-18950500I-25000J0D01*
G01*
X8163500Y-18950500D02*
G75*
G02*
X8213500Y-18950500I25000J0D01*
G01*
D11*
X8512372Y-18841984D02*
X8531420Y-18841984D01*
X8531420Y-18841984D02*
X8550467Y-18851508D01*
X8550467Y-18851508D02*
X8559991Y-18861031D01*
X8559991Y-18861031D02*
X8569515Y-18880079D01*
X8569515Y-18880079D02*
X8579039Y-18918174D01*
X8579039Y-18918174D02*
X8579039Y-18965793D01*
X8579039Y-18965793D02*
X8569515Y-19003889D01*
X8569515Y-19003889D02*
X8559991Y-19022936D01*
X8559991Y-19022936D02*
X8550467Y-19032460D01*
X8550467Y-19032460D02*
X8531420Y-19041984D01*
X8531420Y-19041984D02*
X8512372Y-19041984D01*
X8512372Y-19041984D02*
X8493324Y-19032460D01*
X8493324Y-19032460D02*
X8483801Y-19022936D01*
X8483801Y-19022936D02*
X8474277Y-19003889D01*
X8474277Y-19003889D02*
X8464753Y-18965793D01*
X8464753Y-18965793D02*
X8464753Y-18918174D01*
X8464753Y-18918174D02*
X8474277Y-18880079D01*
X8474277Y-18880079D02*
X8483801Y-18861031D01*
X8483801Y-18861031D02*
X8493324Y-18851508D01*
X8493324Y-18851508D02*
X8512372Y-18841984D01*
X8664753Y-19022936D02*
X8674277Y-19032460D01*
X8674277Y-19032460D02*
X8664753Y-19041984D01*
X8664753Y-19041984D02*
X8655229Y-19032460D01*
X8655229Y-19032460D02*
X8664753Y-19022936D01*
X8664753Y-19022936D02*
X8664753Y-19041984D01*
X8855229Y-18841984D02*
X8759991Y-18841984D01*
X8759991Y-18841984D02*
X8750467Y-18937222D01*
X8750467Y-18937222D02*
X8759991Y-18927698D01*
X8759991Y-18927698D02*
X8779039Y-18918174D01*
X8779039Y-18918174D02*
X8826658Y-18918174D01*
X8826658Y-18918174D02*
X8845705Y-18927698D01*
X8845705Y-18927698D02*
X8855229Y-18937222D01*
X8855229Y-18937222D02*
X8864753Y-18956270D01*
X8864753Y-18956270D02*
X8864753Y-19003889D01*
X8864753Y-19003889D02*
X8855229Y-19022936D01*
X8855229Y-19022936D02*
X8845705Y-19032460D01*
X8845705Y-19032460D02*
X8826658Y-19041984D01*
X8826658Y-19041984D02*
X8779039Y-19041984D01*
X8779039Y-19041984D02*
X8759991Y-19032460D01*
X8759991Y-19032460D02*
X8750467Y-19022936D01*
X8988563Y-18841984D02*
X9007610Y-18841984D01*
X9007610Y-18841984D02*
X9026658Y-18851508D01*
X9026658Y-18851508D02*
X9036182Y-18861031D01*
X9036182Y-18861031D02*
X9045705Y-18880079D01*
X9045705Y-18880079D02*
X9055229Y-18918174D01*
X9055229Y-18918174D02*
X9055229Y-18965793D01*
X9055229Y-18965793D02*
X9045705Y-19003889D01*
X9045705Y-19003889D02*
X9036182Y-19022936D01*
X9036182Y-19022936D02*
X9026658Y-19032460D01*
X9026658Y-19032460D02*
X9007610Y-19041984D01*
X9007610Y-19041984D02*
X8988563Y-19041984D01*
X8988563Y-19041984D02*
X8969515Y-19032460D01*
X8969515Y-19032460D02*
X8959991Y-19022936D01*
X8959991Y-19022936D02*
X8950467Y-19003889D01*
X8950467Y-19003889D02*
X8940944Y-18965793D01*
X8940944Y-18965793D02*
X8940944Y-18918174D01*
X8940944Y-18918174D02*
X8950467Y-18880079D01*
X8950467Y-18880079D02*
X8959991Y-18861031D01*
X8959991Y-18861031D02*
X8969515Y-18851508D01*
X8969515Y-18851508D02*
X8988563Y-18841984D01*
X9179039Y-18841984D02*
X9198086Y-18841984D01*
X9198086Y-18841984D02*
X9217134Y-18851508D01*
X9217134Y-18851508D02*
X9226658Y-18861031D01*
X9226658Y-18861031D02*
X9236182Y-18880079D01*
X9236182Y-18880079D02*
X9245705Y-18918174D01*
X9245705Y-18918174D02*
X9245705Y-18965793D01*
X9245705Y-18965793D02*
X9236182Y-19003889D01*
X9236182Y-19003889D02*
X9226658Y-19022936D01*
X9226658Y-19022936D02*
X9217134Y-19032460D01*
X9217134Y-19032460D02*
X9198086Y-19041984D01*
X9198086Y-19041984D02*
X9179039Y-19041984D01*
X9179039Y-19041984D02*
X9159991Y-19032460D01*
X9159991Y-19032460D02*
X9150467Y-19022936D01*
X9150467Y-19022936D02*
X9140944Y-19003889D01*
X9140944Y-19003889D02*
X9131420Y-18965793D01*
X9131420Y-18965793D02*
X9131420Y-18918174D01*
X9131420Y-18918174D02*
X9140944Y-18880079D01*
X9140944Y-18880079D02*
X9150467Y-18861031D01*
X9150467Y-18861031D02*
X9159991Y-18851508D01*
X9159991Y-18851508D02*
X9179039Y-18841984D01*
X9331420Y-19041984D02*
X9331420Y-18908650D01*
X9331420Y-18927698D02*
X9340944Y-18918174D01*
X9340944Y-18918174D02*
X9359991Y-18908650D01*
X9359991Y-18908650D02*
X9388563Y-18908650D01*
X9388563Y-18908650D02*
X9407610Y-18918174D01*
X9407610Y-18918174D02*
X9417134Y-18937222D01*
X9417134Y-18937222D02*
X9417134Y-19041984D01*
X9417134Y-18937222D02*
X9426658Y-18918174D01*
X9426658Y-18918174D02*
X9445705Y-18908650D01*
X9445705Y-18908650D02*
X9474277Y-18908650D01*
X9474277Y-18908650D02*
X9493325Y-18918174D01*
X9493325Y-18918174D02*
X9502848Y-18937222D01*
X9502848Y-18937222D02*
X9502848Y-19041984D01*
X9598086Y-19041984D02*
X9598086Y-18908650D01*
X9598086Y-18927698D02*
X9607610Y-18918174D01*
X9607610Y-18918174D02*
X9626658Y-18908650D01*
X9626658Y-18908650D02*
X9655229Y-18908650D01*
X9655229Y-18908650D02*
X9674277Y-18918174D01*
X9674277Y-18918174D02*
X9683801Y-18937222D01*
X9683801Y-18937222D02*
X9683801Y-19041984D01*
X9683801Y-18937222D02*
X9693325Y-18918174D01*
X9693325Y-18918174D02*
X9712372Y-18908650D01*
X9712372Y-18908650D02*
X9740944Y-18908650D01*
X9740944Y-18908650D02*
X9759991Y-18918174D01*
X9759991Y-18918174D02*
X9769515Y-18937222D01*
X9769515Y-18937222D02*
X9769515Y-19041984D01*
X10159991Y-18832460D02*
X9988563Y-19089603D01*
X10417134Y-18841984D02*
X10436182Y-18841984D01*
X10436182Y-18841984D02*
X10455229Y-18851508D01*
X10455229Y-18851508D02*
X10464753Y-18861031D01*
X10464753Y-18861031D02*
X10474277Y-18880079D01*
X10474277Y-18880079D02*
X10483801Y-18918174D01*
X10483801Y-18918174D02*
X10483801Y-18965793D01*
X10483801Y-18965793D02*
X10474277Y-19003889D01*
X10474277Y-19003889D02*
X10464753Y-19022936D01*
X10464753Y-19022936D02*
X10455229Y-19032460D01*
X10455229Y-19032460D02*
X10436182Y-19041984D01*
X10436182Y-19041984D02*
X10417134Y-19041984D01*
X10417134Y-19041984D02*
X10398087Y-19032460D01*
X10398087Y-19032460D02*
X10388563Y-19022936D01*
X10388563Y-19022936D02*
X10379039Y-19003889D01*
X10379039Y-19003889D02*
X10369515Y-18965793D01*
X10369515Y-18965793D02*
X10369515Y-18918174D01*
X10369515Y-18918174D02*
X10379039Y-18880079D01*
X10379039Y-18880079D02*
X10388563Y-18861031D01*
X10388563Y-18861031D02*
X10398087Y-18851508D01*
X10398087Y-18851508D02*
X10417134Y-18841984D01*
X10569515Y-19022936D02*
X10579039Y-19032460D01*
X10579039Y-19032460D02*
X10569515Y-19041984D01*
X10569515Y-19041984D02*
X10559991Y-19032460D01*
X10559991Y-19032460D02*
X10569515Y-19022936D01*
X10569515Y-19022936D02*
X10569515Y-19041984D01*
X10702848Y-18841984D02*
X10721896Y-18841984D01*
X10721896Y-18841984D02*
X10740944Y-18851508D01*
X10740944Y-18851508D02*
X10750468Y-18861031D01*
X10750468Y-18861031D02*
X10759991Y-18880079D01*
X10759991Y-18880079D02*
X10769515Y-18918174D01*
X10769515Y-18918174D02*
X10769515Y-18965793D01*
X10769515Y-18965793D02*
X10759991Y-19003889D01*
X10759991Y-19003889D02*
X10750468Y-19022936D01*
X10750468Y-19022936D02*
X10740944Y-19032460D01*
X10740944Y-19032460D02*
X10721896Y-19041984D01*
X10721896Y-19041984D02*
X10702848Y-19041984D01*
X10702848Y-19041984D02*
X10683801Y-19032460D01*
X10683801Y-19032460D02*
X10674277Y-19022936D01*
X10674277Y-19022936D02*
X10664753Y-19003889D01*
X10664753Y-19003889D02*
X10655229Y-18965793D01*
X10655229Y-18965793D02*
X10655229Y-18918174D01*
X10655229Y-18918174D02*
X10664753Y-18880079D01*
X10664753Y-18880079D02*
X10674277Y-18861031D01*
X10674277Y-18861031D02*
X10683801Y-18851508D01*
X10683801Y-18851508D02*
X10702848Y-18841984D01*
X10959991Y-19041984D02*
X10845706Y-19041984D01*
X10902848Y-19041984D02*
X10902848Y-18841984D01*
X10902848Y-18841984D02*
X10883801Y-18870555D01*
X10883801Y-18870555D02*
X10864753Y-18889603D01*
X10864753Y-18889603D02*
X10845706Y-18899127D01*
X11055229Y-19041984D02*
X11093325Y-19041984D01*
X11093325Y-19041984D02*
X11112372Y-19032460D01*
X11112372Y-19032460D02*
X11121896Y-19022936D01*
X11121896Y-19022936D02*
X11140944Y-18994365D01*
X11140944Y-18994365D02*
X11150468Y-18956270D01*
X11150468Y-18956270D02*
X11150468Y-18880079D01*
X11150468Y-18880079D02*
X11140944Y-18861031D01*
X11140944Y-18861031D02*
X11131420Y-18851508D01*
X11131420Y-18851508D02*
X11112372Y-18841984D01*
X11112372Y-18841984D02*
X11074277Y-18841984D01*
X11074277Y-18841984D02*
X11055229Y-18851508D01*
X11055229Y-18851508D02*
X11045706Y-18861031D01*
X11045706Y-18861031D02*
X11036182Y-18880079D01*
X11036182Y-18880079D02*
X11036182Y-18927698D01*
X11036182Y-18927698D02*
X11045706Y-18946746D01*
X11045706Y-18946746D02*
X11055229Y-18956270D01*
X11055229Y-18956270D02*
X11074277Y-18965793D01*
X11074277Y-18965793D02*
X11112372Y-18965793D01*
X11112372Y-18965793D02*
X11131420Y-18956270D01*
X11131420Y-18956270D02*
X11140944Y-18946746D01*
X11140944Y-18946746D02*
X11150468Y-18927698D01*
X11217134Y-18841984D02*
X11350467Y-18841984D01*
X11350467Y-18841984D02*
X11264753Y-19041984D01*
X11417134Y-18841984D02*
X11417134Y-18880079D01*
X11493325Y-18841984D02*
X11493325Y-18880079D01*
X11788563Y-19118174D02*
X11779039Y-19108650D01*
X11779039Y-19108650D02*
X11759991Y-19080079D01*
X11759991Y-19080079D02*
X11750468Y-19061031D01*
X11750468Y-19061031D02*
X11740944Y-19032460D01*
X11740944Y-19032460D02*
X11731420Y-18984841D01*
X11731420Y-18984841D02*
X11731420Y-18946746D01*
X11731420Y-18946746D02*
X11740944Y-18899127D01*
X11740944Y-18899127D02*
X11750468Y-18870555D01*
X11750468Y-18870555D02*
X11759991Y-18851508D01*
X11759991Y-18851508D02*
X11779039Y-18822936D01*
X11779039Y-18822936D02*
X11788563Y-18813412D01*
X11845706Y-18841984D02*
X11969515Y-18841984D01*
X11969515Y-18841984D02*
X11902848Y-18918174D01*
X11902848Y-18918174D02*
X11931420Y-18918174D01*
X11931420Y-18918174D02*
X11950468Y-18927698D01*
X11950468Y-18927698D02*
X11959991Y-18937222D01*
X11959991Y-18937222D02*
X11969515Y-18956270D01*
X11969515Y-18956270D02*
X11969515Y-19003889D01*
X11969515Y-19003889D02*
X11959991Y-19022936D01*
X11959991Y-19022936D02*
X11950468Y-19032460D01*
X11950468Y-19032460D02*
X11931420Y-19041984D01*
X11931420Y-19041984D02*
X11874277Y-19041984D01*
X11874277Y-19041984D02*
X11855229Y-19032460D01*
X11855229Y-19032460D02*
X11845706Y-19022936D01*
X12207610Y-19041984D02*
X12207610Y-18841984D01*
X12293325Y-19041984D02*
X12293325Y-18937222D01*
X12293325Y-18937222D02*
X12283801Y-18918174D01*
X12283801Y-18918174D02*
X12264753Y-18908650D01*
X12264753Y-18908650D02*
X12236182Y-18908650D01*
X12236182Y-18908650D02*
X12217134Y-18918174D01*
X12217134Y-18918174D02*
X12207610Y-18927698D01*
X12417134Y-19041984D02*
X12398087Y-19032460D01*
X12398087Y-19032460D02*
X12388563Y-19022936D01*
X12388563Y-19022936D02*
X12379039Y-19003889D01*
X12379039Y-19003889D02*
X12379039Y-18946746D01*
X12379039Y-18946746D02*
X12388563Y-18927698D01*
X12388563Y-18927698D02*
X12398087Y-18918174D01*
X12398087Y-18918174D02*
X12417134Y-18908650D01*
X12417134Y-18908650D02*
X12445706Y-18908650D01*
X12445706Y-18908650D02*
X12464753Y-18918174D01*
X12464753Y-18918174D02*
X12474277Y-18927698D01*
X12474277Y-18927698D02*
X12483801Y-18946746D01*
X12483801Y-18946746D02*
X12483801Y-19003889D01*
X12483801Y-19003889D02*
X12474277Y-19022936D01*
X12474277Y-19022936D02*
X12464753Y-19032460D01*
X12464753Y-19032460D02*
X12445706Y-19041984D01*
X12445706Y-19041984D02*
X12417134Y-19041984D01*
X12598087Y-19041984D02*
X12579039Y-19032460D01*
X12579039Y-19032460D02*
X12569515Y-19013412D01*
X12569515Y-19013412D02*
X12569515Y-18841984D01*
X12750468Y-19032460D02*
X12731420Y-19041984D01*
X12731420Y-19041984D02*
X12693325Y-19041984D01*
X12693325Y-19041984D02*
X12674277Y-19032460D01*
X12674277Y-19032460D02*
X12664753Y-19013412D01*
X12664753Y-19013412D02*
X12664753Y-18937222D01*
X12664753Y-18937222D02*
X12674277Y-18918174D01*
X12674277Y-18918174D02*
X12693325Y-18908650D01*
X12693325Y-18908650D02*
X12731420Y-18908650D01*
X12731420Y-18908650D02*
X12750468Y-18918174D01*
X12750468Y-18918174D02*
X12759991Y-18937222D01*
X12759991Y-18937222D02*
X12759991Y-18956270D01*
X12759991Y-18956270D02*
X12664753Y-18975317D01*
X12836182Y-19032460D02*
X12855230Y-19041984D01*
X12855230Y-19041984D02*
X12893325Y-19041984D01*
X12893325Y-19041984D02*
X12912372Y-19032460D01*
X12912372Y-19032460D02*
X12921896Y-19013412D01*
X12921896Y-19013412D02*
X12921896Y-19003889D01*
X12921896Y-19003889D02*
X12912372Y-18984841D01*
X12912372Y-18984841D02*
X12893325Y-18975317D01*
X12893325Y-18975317D02*
X12864753Y-18975317D01*
X12864753Y-18975317D02*
X12845706Y-18965793D01*
X12845706Y-18965793D02*
X12836182Y-18946746D01*
X12836182Y-18946746D02*
X12836182Y-18937222D01*
X12836182Y-18937222D02*
X12845706Y-18918174D01*
X12845706Y-18918174D02*
X12864753Y-18908650D01*
X12864753Y-18908650D02*
X12893325Y-18908650D01*
X12893325Y-18908650D02*
X12912372Y-18918174D01*
X13159992Y-18965793D02*
X13312373Y-18965793D01*
X13236182Y-19041984D02*
X13236182Y-18889603D01*
X13664753Y-19041984D02*
X13550468Y-19041984D01*
X13607611Y-19041984D02*
X13607611Y-18841984D01*
X13607611Y-18841984D02*
X13588563Y-18870555D01*
X13588563Y-18870555D02*
X13569515Y-18889603D01*
X13569515Y-18889603D02*
X13550468Y-18899127D01*
X13893325Y-19032460D02*
X13912373Y-19041984D01*
X13912373Y-19041984D02*
X13950468Y-19041984D01*
X13950468Y-19041984D02*
X13969515Y-19032460D01*
X13969515Y-19032460D02*
X13979039Y-19013412D01*
X13979039Y-19013412D02*
X13979039Y-19003889D01*
X13979039Y-19003889D02*
X13969515Y-18984841D01*
X13969515Y-18984841D02*
X13950468Y-18975317D01*
X13950468Y-18975317D02*
X13921896Y-18975317D01*
X13921896Y-18975317D02*
X13902849Y-18965793D01*
X13902849Y-18965793D02*
X13893325Y-18946746D01*
X13893325Y-18946746D02*
X13893325Y-18937222D01*
X13893325Y-18937222D02*
X13902849Y-18918174D01*
X13902849Y-18918174D02*
X13921896Y-18908650D01*
X13921896Y-18908650D02*
X13950468Y-18908650D01*
X13950468Y-18908650D02*
X13969515Y-18918174D01*
X14093325Y-19041984D02*
X14074277Y-19032460D01*
X14074277Y-19032460D02*
X14064754Y-19013412D01*
X14064754Y-19013412D02*
X14064754Y-18841984D01*
X14198087Y-19041984D02*
X14179039Y-19032460D01*
X14179039Y-19032460D02*
X14169515Y-19022936D01*
X14169515Y-19022936D02*
X14159992Y-19003889D01*
X14159992Y-19003889D02*
X14159992Y-18946746D01*
X14159992Y-18946746D02*
X14169515Y-18927698D01*
X14169515Y-18927698D02*
X14179039Y-18918174D01*
X14179039Y-18918174D02*
X14198087Y-18908650D01*
X14198087Y-18908650D02*
X14226658Y-18908650D01*
X14226658Y-18908650D02*
X14245706Y-18918174D01*
X14245706Y-18918174D02*
X14255230Y-18927698D01*
X14255230Y-18927698D02*
X14264754Y-18946746D01*
X14264754Y-18946746D02*
X14264754Y-19003889D01*
X14264754Y-19003889D02*
X14255230Y-19022936D01*
X14255230Y-19022936D02*
X14245706Y-19032460D01*
X14245706Y-19032460D02*
X14226658Y-19041984D01*
X14226658Y-19041984D02*
X14198087Y-19041984D01*
X14321896Y-18908650D02*
X14398087Y-18908650D01*
X14350468Y-18841984D02*
X14350468Y-19013412D01*
X14350468Y-19013412D02*
X14359992Y-19032460D01*
X14359992Y-19032460D02*
X14379039Y-19041984D01*
X14379039Y-19041984D02*
X14398087Y-19041984D01*
X14445706Y-19118174D02*
X14455230Y-19108650D01*
X14455230Y-19108650D02*
X14474277Y-19080079D01*
X14474277Y-19080079D02*
X14483801Y-19061031D01*
X14483801Y-19061031D02*
X14493325Y-19032460D01*
X14493325Y-19032460D02*
X14502849Y-18984841D01*
X14502849Y-18984841D02*
X14502849Y-18946746D01*
X14502849Y-18946746D02*
X14493325Y-18899127D01*
X14493325Y-18899127D02*
X14483801Y-18870555D01*
X14483801Y-18870555D02*
X14474277Y-18851508D01*
X14474277Y-18851508D02*
X14455230Y-18822936D01*
X14455230Y-18822936D02*
X14445706Y-18813412D01*
M02*
