%TF.GenerationSoftware,KiCad,Pcbnew,9.0.3*%
%TF.CreationDate,2025-09-14T16:33:05+03:00*%
%TF.ProjectId,Right,52696768-742e-46b6-9963-61645f706362,rev?*%
%TF.SameCoordinates,Original*%
%TF.FileFunction,Copper,L2,Bot*%
%TF.FilePolarity,Positive*%
%FSLAX46Y46*%
G04 Gerber Fmt 4.6, Leading zero omitted, Abs format (unit mm)*
G04 Created by KiCad (PCBNEW 9.0.3) date 2025-09-14 16:33:05*
%MOMM*%
%LPD*%
G01*
G04 APERTURE LIST*
G04 Aperture macros list*
%AMRoundRect*
0 Rectangle with rounded corners*
0 $1 Rounding radius*
0 $2 $3 $4 $5 $6 $7 $8 $9 X,Y pos of 4 corners*
0 Add a 4 corners polygon primitive as box body*
4,1,4,$2,$3,$4,$5,$6,$7,$8,$9,$2,$3,0*
0 Add four circle primitives for the rounded corners*
1,1,$1+$1,$2,$3*
1,1,$1+$1,$4,$5*
1,1,$1+$1,$6,$7*
1,1,$1+$1,$8,$9*
0 Add four rect primitives between the rounded corners*
20,1,$1+$1,$2,$3,$4,$5,0*
20,1,$1+$1,$4,$5,$6,$7,0*
20,1,$1+$1,$6,$7,$8,$9,0*
20,1,$1+$1,$8,$9,$2,$3,0*%
G04 Aperture macros list end*
%TA.AperFunction,ComponentPad*%
%ADD10R,2.000000X2.000000*%
%TD*%
%TA.AperFunction,SMDPad,CuDef*%
%ADD11RoundRect,0.200000X-0.300000X0.200000X-0.300000X-0.200000X0.300000X-0.200000X0.300000X0.200000X0*%
%TD*%
%TA.AperFunction,ViaPad*%
%ADD12C,0.500000*%
%TD*%
%TA.AperFunction,Conductor*%
%ADD13C,0.140000*%
%TD*%
%TA.AperFunction,Conductor*%
%ADD14C,1.000000*%
%TD*%
G04 APERTURE END LIST*
D10*
%TO.P,SW2,1,B*%
%TO.N,Net-(J1-Pin_5)*%
X148340000Y-119260000D03*
X142110000Y-119280000D03*
%TO.P,SW2,2,C*%
%TO.N,Net-(J1-Pin_7)*%
X148340000Y-122050000D03*
%TO.P,SW2,3,A*%
X142110000Y-122040000D03*
%TD*%
D11*
%TO.P,D1,1,K*%
%TO.N,Net-(D1-K)*%
X104510000Y-102690000D03*
%TO.P,D1,2,A*%
%TO.N,Net-(D1-A)*%
X104510000Y-104290000D03*
%TD*%
%TO.P,D2,1,K*%
%TO.N,Net-(D2-K)*%
X106120000Y-102670000D03*
%TO.P,D2,2,A*%
%TO.N,Net-(D2-A)*%
X106120000Y-104270000D03*
%TD*%
D12*
%TO.N,Net-(D1-A)*%
X110430000Y-127500000D03*
%TO.N,Net-(D1-K)*%
X109830000Y-127920000D03*
%TO.N,Net-(D2-K)*%
X111660000Y-126500000D03*
%TO.N,Net-(D2-A)*%
X111210000Y-127120000D03*
%TO.N,Net-(J1-Pin_25)*%
X123630000Y-127910000D03*
X116732500Y-128192500D03*
%TO.N,Net-(J1-Pin_23)*%
X122300000Y-129190000D03*
X119050000Y-124950000D03*
X125475000Y-124950000D03*
%TO.N,Net-(J1-Pin_26)*%
X116775000Y-129100000D03*
X122970000Y-128570000D03*
%TO.N,Net-(J1-Pin_19)*%
X124620000Y-125825000D03*
X113900000Y-126340000D03*
%TO.N,Net-(J1-Pin_21)*%
X125975000Y-126425000D03*
X115915000Y-126435000D03*
%TO.N,Net-(J1-Pin_22)*%
X125225000Y-127250000D03*
X115650000Y-127525000D03*
%TO.N,Net-(J1-Pin_20)*%
X117840000Y-124910000D03*
X126175000Y-124300000D03*
%TO.N,Net-(J1-Pin_5)*%
X111510000Y-128570000D03*
%TO.N,Net-(J1-Pin_7)*%
X112510000Y-128560000D03*
%TD*%
D13*
%TO.N,Net-(D1-A)*%
X105110000Y-122530000D02*
X105110000Y-104890000D01*
X105110000Y-104890000D02*
X104510000Y-104290000D01*
X110350000Y-127500000D02*
X110160000Y-127310000D01*
X110430000Y-127500000D02*
X110350000Y-127500000D01*
X110160000Y-127310000D02*
X109890000Y-127310000D01*
X109890000Y-127310000D02*
X105110000Y-122530000D01*
%TO.N,Net-(D1-K)*%
X109800000Y-127740000D02*
X104750000Y-122690000D01*
X104840000Y-101390000D02*
X105110000Y-101660000D01*
X103770000Y-103320000D02*
X104400000Y-102690000D01*
X104750000Y-105090000D02*
X104580000Y-104920000D01*
X104580000Y-104920000D02*
X104000000Y-104920000D01*
X104000000Y-104920000D02*
X103770000Y-104690000D01*
X105110000Y-102090000D02*
X104510000Y-102690000D01*
X104750000Y-122690000D02*
X104750000Y-105090000D01*
X103770000Y-104690000D02*
X103770000Y-103320000D01*
X103800000Y-102090000D02*
X103800000Y-101650000D01*
X104400000Y-102690000D02*
X103800000Y-102090000D01*
X103800000Y-101650000D02*
X104060000Y-101390000D01*
X109800000Y-127890000D02*
X109800000Y-127740000D01*
X109830000Y-127920000D02*
X109800000Y-127890000D01*
X105110000Y-101660000D02*
X105110000Y-102090000D01*
X104060000Y-101390000D02*
X104840000Y-101390000D01*
%TO.N,Net-(D2-K)*%
X106190000Y-102670000D02*
X106770000Y-102090000D01*
X106870000Y-104640000D02*
X106870000Y-103330000D01*
X106770000Y-102090000D02*
X106770000Y-101660000D01*
X106510000Y-101400000D02*
X105700000Y-101400000D01*
X105450000Y-101660000D02*
X105450000Y-102120000D01*
X111640000Y-126480000D02*
X110230000Y-126480000D01*
X106870000Y-103330000D02*
X106210000Y-102670000D01*
X110230000Y-126480000D02*
X105840000Y-122090000D01*
X105700000Y-101410000D02*
X105450000Y-101660000D01*
X111660000Y-126500000D02*
X111640000Y-126480000D01*
X106120000Y-102670000D02*
X106190000Y-102670000D01*
X106000000Y-102670000D02*
X106120000Y-102670000D01*
X106610000Y-104900000D02*
X106870000Y-104640000D01*
X105840000Y-122090000D02*
X105840000Y-105040000D01*
X105700000Y-101400000D02*
X105700000Y-101410000D01*
X105450000Y-102120000D02*
X106000000Y-102670000D01*
X106210000Y-102670000D02*
X106120000Y-102670000D01*
X105980000Y-104900000D02*
X106610000Y-104900000D01*
X106770000Y-101660000D02*
X106510000Y-101400000D01*
X105840000Y-105040000D02*
X105980000Y-104900000D01*
%TO.N,Net-(D2-A)*%
X105500000Y-122340000D02*
X105500000Y-104890000D01*
X111050000Y-126960000D02*
X110120000Y-126960000D01*
X111210000Y-127120000D02*
X111050000Y-126960000D01*
X105500000Y-104890000D02*
X106120000Y-104270000D01*
X110120000Y-126960000D02*
X105500000Y-122340000D01*
%TO.N,Net-(J1-Pin_25)*%
X116880000Y-128050000D02*
X117110000Y-128050000D01*
X117250000Y-127910000D02*
X123630000Y-127910000D01*
X116737500Y-128192500D02*
X116880000Y-128050000D01*
X117110000Y-128050000D02*
X117250000Y-127910000D01*
X116732500Y-128192500D02*
X116737500Y-128192500D01*
%TO.N,Net-(J1-Pin_23)*%
X119050000Y-124950000D02*
X125475000Y-124950000D01*
%TO.N,Net-(J1-Pin_26)*%
X117600000Y-128280000D02*
X116780000Y-129100000D01*
X122690000Y-128280000D02*
X117600000Y-128280000D01*
X116780000Y-129100000D02*
X116775000Y-129100000D01*
X122970000Y-128570000D02*
X122970000Y-128560000D01*
X122970000Y-128560000D02*
X122690000Y-128280000D01*
%TO.N,Net-(J1-Pin_19)*%
X124620000Y-125825000D02*
X114450000Y-125825000D01*
X113935000Y-126340000D02*
X113900000Y-126340000D01*
X114450000Y-125825000D02*
X113935000Y-126340000D01*
%TO.N,Net-(J1-Pin_21)*%
X116115000Y-126435000D02*
X116125000Y-126425000D01*
X115915000Y-126435000D02*
X116115000Y-126435000D01*
X116125000Y-126425000D02*
X125975000Y-126425000D01*
%TO.N,Net-(J1-Pin_22)*%
X115650000Y-127525000D02*
X115900000Y-127275000D01*
X115900000Y-127275000D02*
X125200000Y-127275000D01*
X125200000Y-127275000D02*
X125225000Y-127250000D01*
%TO.N,Net-(J1-Pin_20)*%
X117840000Y-124910000D02*
X118450000Y-124300000D01*
X118450000Y-124300000D02*
X126175000Y-124300000D01*
D14*
%TO.N,Net-(J1-Pin_5)*%
X148340000Y-119260000D02*
X142130000Y-119260000D01*
D13*
X116300000Y-122450000D02*
X129100000Y-122450000D01*
X111510000Y-128570000D02*
X111510000Y-128560000D01*
X112860000Y-125890000D02*
X116300000Y-122450000D01*
X142200000Y-119260000D02*
X142180000Y-119280000D01*
X142180000Y-119280000D02*
X142110000Y-119280000D01*
X142130000Y-119260000D02*
X142110000Y-119280000D01*
X129100000Y-122450000D02*
X132270000Y-119280000D01*
X111510000Y-128560000D02*
X112860000Y-127210000D01*
X112860000Y-127210000D02*
X112860000Y-125890000D01*
X132270000Y-119280000D02*
X142110000Y-119280000D01*
%TO.N,Net-(J1-Pin_7)*%
X116440000Y-122860000D02*
X129265000Y-122860000D01*
X142210000Y-122050000D02*
X142200000Y-122040000D01*
X137720000Y-119660000D02*
X140100000Y-122040000D01*
D14*
X148340000Y-122050000D02*
X142120000Y-122050000D01*
D13*
X142120000Y-122050000D02*
X142110000Y-122040000D01*
X112510000Y-128560000D02*
X113270000Y-127800000D01*
X129265000Y-122860000D02*
X132465000Y-119660000D01*
X132465000Y-119660000D02*
X137720000Y-119660000D01*
X113270000Y-126030000D02*
X116440000Y-122860000D01*
X113270000Y-127800000D02*
X113270000Y-126030000D01*
X142200000Y-122040000D02*
X142110000Y-122040000D01*
X140100000Y-122040000D02*
X142110000Y-122040000D01*
%TD*%
%TA.AperFunction,NonConductor*%
G36*
X149972759Y-134239839D02*
G01*
X150018655Y-134292520D01*
X150030000Y-134344334D01*
X150030000Y-144016331D01*
X150010315Y-144083370D01*
X149957511Y-144129125D01*
X149906332Y-144140331D01*
X148754832Y-144143417D01*
X148687740Y-144123912D01*
X148641844Y-144071231D01*
X148630500Y-144019417D01*
X148630500Y-141460010D01*
X148630499Y-141460007D01*
X148615200Y-141423071D01*
X148586928Y-141394799D01*
X148549992Y-141379500D01*
X148549991Y-141379500D01*
X142049991Y-141379500D01*
X142010009Y-141379500D01*
X142010007Y-141379500D01*
X141973071Y-141394799D01*
X141944799Y-141423071D01*
X141929500Y-141460007D01*
X141929500Y-144038047D01*
X141909815Y-144105086D01*
X141857011Y-144150841D01*
X141805832Y-144162047D01*
X127775086Y-144199664D01*
X127707994Y-144180159D01*
X127662098Y-144127478D01*
X127650756Y-144074916D01*
X127687885Y-137936304D01*
X144329500Y-137936304D01*
X144329500Y-138113695D01*
X144364103Y-138287658D01*
X144364106Y-138287667D01*
X144431983Y-138451540D01*
X144431990Y-138451553D01*
X144530535Y-138599034D01*
X144530538Y-138599038D01*
X144655961Y-138724461D01*
X144655965Y-138724464D01*
X144803446Y-138823009D01*
X144803459Y-138823016D01*
X144926363Y-138873923D01*
X144967334Y-138890894D01*
X144967336Y-138890894D01*
X144967341Y-138890896D01*
X145141304Y-138925499D01*
X145141307Y-138925500D01*
X145141309Y-138925500D01*
X145318693Y-138925500D01*
X145318694Y-138925499D01*
X145376682Y-138913964D01*
X145492658Y-138890896D01*
X145492661Y-138890894D01*
X145492666Y-138890894D01*
X145656547Y-138823013D01*
X145804035Y-138724464D01*
X145929464Y-138599035D01*
X146028013Y-138451547D01*
X146095894Y-138287666D01*
X146130500Y-138113691D01*
X146130500Y-137936309D01*
X146130500Y-137936306D01*
X146130499Y-137936304D01*
X146095896Y-137762341D01*
X146095893Y-137762332D01*
X146028016Y-137598459D01*
X146028009Y-137598446D01*
X145929464Y-137450965D01*
X145929461Y-137450961D01*
X145804038Y-137325538D01*
X145804034Y-137325535D01*
X145656553Y-137226990D01*
X145656540Y-137226983D01*
X145492667Y-137159106D01*
X145492658Y-137159103D01*
X145318694Y-137124500D01*
X145318691Y-137124500D01*
X145141309Y-137124500D01*
X145141306Y-137124500D01*
X144967341Y-137159103D01*
X144967332Y-137159106D01*
X144803459Y-137226983D01*
X144803446Y-137226990D01*
X144655965Y-137325535D01*
X144655961Y-137325538D01*
X144530538Y-137450961D01*
X144530535Y-137450965D01*
X144431990Y-137598446D01*
X144431983Y-137598459D01*
X144364106Y-137762332D01*
X144364103Y-137762341D01*
X144329500Y-137936304D01*
X127687885Y-137936304D01*
X127709256Y-134402917D01*
X127729346Y-134336000D01*
X127782426Y-134290565D01*
X127832918Y-134279669D01*
X149905667Y-134220334D01*
X149972759Y-134239839D01*
G37*
%TD.AperFunction*%
%TA.AperFunction,NonConductor*%
G36*
X99653623Y-100120185D02*
G01*
X99699378Y-100172989D01*
X99710583Y-100224359D01*
X99710584Y-100224500D01*
X99744554Y-130775362D01*
X99724944Y-130842423D01*
X99672191Y-130888237D01*
X99620554Y-130899500D01*
X90140007Y-130899500D01*
X90103071Y-130914799D01*
X90074799Y-130943071D01*
X90059500Y-130980007D01*
X90059500Y-171215500D01*
X90039815Y-171282539D01*
X89987011Y-171328294D01*
X89935500Y-171339500D01*
X88186929Y-171339500D01*
X88160000Y-171339500D01*
X88115830Y-171339500D01*
X88032818Y-171369714D01*
X88032817Y-171369714D01*
X88032816Y-171369715D01*
X87965148Y-171426495D01*
X87965143Y-171426501D01*
X87920977Y-171502999D01*
X87920975Y-171503004D01*
X87905636Y-171589999D01*
X87905636Y-171590000D01*
X87920975Y-171676995D01*
X87920977Y-171677000D01*
X87965143Y-171753498D01*
X87965145Y-171753500D01*
X87965146Y-171753502D01*
X88032818Y-171810286D01*
X88115830Y-171840500D01*
X88140009Y-171840500D01*
X91935500Y-171840500D01*
X92002539Y-171860185D01*
X92048294Y-171912989D01*
X92059500Y-171964500D01*
X92059500Y-180215500D01*
X92039815Y-180282539D01*
X91987011Y-180328294D01*
X91935500Y-180339500D01*
X82384500Y-180339500D01*
X82317461Y-180319815D01*
X82271706Y-180267011D01*
X82260500Y-180215500D01*
X82260500Y-171964500D01*
X82280185Y-171897461D01*
X82332989Y-171851706D01*
X82384500Y-171840500D01*
X86204168Y-171840500D01*
X86204170Y-171840500D01*
X86287182Y-171810286D01*
X86354854Y-171753502D01*
X86399024Y-171676998D01*
X86414364Y-171590000D01*
X86399024Y-171503002D01*
X86354854Y-171426498D01*
X86354852Y-171426496D01*
X86354851Y-171426495D01*
X86287183Y-171369715D01*
X86287182Y-171369714D01*
X86204170Y-171339500D01*
X86204168Y-171339500D01*
X82384500Y-171339500D01*
X82317461Y-171319815D01*
X82271706Y-171267011D01*
X82260500Y-171215500D01*
X82260500Y-100224500D01*
X82280185Y-100157461D01*
X82332989Y-100111706D01*
X82384500Y-100100500D01*
X99586584Y-100100500D01*
X99653623Y-100120185D01*
G37*
%TD.AperFunction*%
%TA.AperFunction,NonConductor*%
G36*
X127192319Y-127270083D02*
G01*
X127238437Y-127322570D01*
X127250000Y-127374858D01*
X127250000Y-127624012D01*
X127230315Y-127691051D01*
X127177511Y-127736806D01*
X127150192Y-127745629D01*
X127045677Y-127766418D01*
X127045667Y-127766421D01*
X126918195Y-127819221D01*
X126918182Y-127819228D01*
X126803458Y-127895885D01*
X126803454Y-127895888D01*
X126705888Y-127993454D01*
X126705885Y-127993458D01*
X126629228Y-128108182D01*
X126629221Y-128108195D01*
X126576421Y-128235667D01*
X126576418Y-128235677D01*
X126549500Y-128371004D01*
X126549500Y-128371007D01*
X126549500Y-128374802D01*
X126549500Y-128508993D01*
X126549500Y-128508995D01*
X126549499Y-128508995D01*
X126576418Y-128644322D01*
X126576421Y-128644332D01*
X126629221Y-128771804D01*
X126629228Y-128771817D01*
X126705885Y-128886541D01*
X126705888Y-128886545D01*
X126803454Y-128984111D01*
X126803458Y-128984114D01*
X126918182Y-129060771D01*
X126918195Y-129060778D01*
X126994678Y-129092458D01*
X127045672Y-129113580D01*
X127150194Y-129134371D01*
X127212102Y-129166754D01*
X127246676Y-129227470D01*
X127250000Y-129255987D01*
X127250000Y-130775500D01*
X127230315Y-130842539D01*
X127177511Y-130888294D01*
X127126000Y-130899500D01*
X121119352Y-130899500D01*
X121052313Y-130879815D01*
X121006558Y-130827011D01*
X120998954Y-130805170D01*
X120998507Y-130803356D01*
X120936380Y-130684984D01*
X120936378Y-130684982D01*
X120936378Y-130684981D01*
X120847734Y-130584923D01*
X120847732Y-130584921D01*
X120847730Y-130584919D01*
X120830481Y-130573013D01*
X120737710Y-130508977D01*
X120612711Y-130461571D01*
X120612708Y-130461570D01*
X120480000Y-130445457D01*
X120347291Y-130461570D01*
X120347288Y-130461571D01*
X120222289Y-130508977D01*
X120112272Y-130584917D01*
X120112265Y-130584923D01*
X120023620Y-130684983D01*
X120023618Y-130684985D01*
X119961493Y-130803354D01*
X119929500Y-130933157D01*
X119929500Y-139426000D01*
X119909815Y-139493039D01*
X119857011Y-139538794D01*
X119805500Y-139550000D01*
X110254500Y-139550000D01*
X110187461Y-139530315D01*
X110141706Y-139477511D01*
X110130500Y-139426000D01*
X110130500Y-139145332D01*
X110509000Y-139145332D01*
X110684064Y-138970267D01*
X111036204Y-138970267D01*
X111216937Y-139151000D01*
X111565407Y-139151000D01*
X111746140Y-138970267D01*
X112098278Y-138970267D01*
X112279011Y-139151000D01*
X112627481Y-139151000D01*
X112808214Y-138970267D01*
X113160353Y-138970267D01*
X113341086Y-139151000D01*
X113689556Y-139151000D01*
X113870289Y-138970267D01*
X114222427Y-138970267D01*
X114403160Y-139151000D01*
X114751630Y-139151000D01*
X114932363Y-138970267D01*
X115284501Y-138970267D01*
X115465234Y-139151000D01*
X115813704Y-139151000D01*
X115994436Y-138970267D01*
X116346576Y-138970267D01*
X116527309Y-139151000D01*
X116875779Y-139151000D01*
X117056512Y-138970267D01*
X117408650Y-138970267D01*
X117589383Y-139151000D01*
X117937853Y-139151000D01*
X118118586Y-138970267D01*
X118118585Y-138970266D01*
X118470724Y-138970266D01*
X118651458Y-139151000D01*
X118999928Y-139151000D01*
X119180661Y-138970267D01*
X118825692Y-138615298D01*
X118470724Y-138970266D01*
X118118585Y-138970266D01*
X117763618Y-138615299D01*
X117408650Y-138970267D01*
X117056512Y-138970267D01*
X116701544Y-138615299D01*
X116346576Y-138970267D01*
X115994436Y-138970267D01*
X115994437Y-138970266D01*
X115639469Y-138615298D01*
X115284501Y-138970267D01*
X114932363Y-138970267D01*
X114577395Y-138615299D01*
X114222427Y-138970267D01*
X113870289Y-138970267D01*
X113515321Y-138615299D01*
X113160353Y-138970267D01*
X112808214Y-138970267D01*
X112453246Y-138615299D01*
X112098278Y-138970267D01*
X111746140Y-138970267D01*
X111391172Y-138615299D01*
X111036204Y-138970267D01*
X110684064Y-138970267D01*
X110684065Y-138970266D01*
X110509000Y-138795201D01*
X110509000Y-139145332D01*
X110130500Y-139145332D01*
X110130500Y-138435396D01*
X110509000Y-138435396D01*
X110509000Y-138443063D01*
X110860135Y-138794198D01*
X111215103Y-138439229D01*
X111567240Y-138439229D01*
X111922209Y-138794198D01*
X112277177Y-138439229D01*
X112629314Y-138439229D01*
X112984283Y-138794198D01*
X113339251Y-138439229D01*
X113691389Y-138439229D01*
X114046358Y-138794198D01*
X114401326Y-138439229D01*
X114753463Y-138439229D01*
X115108432Y-138794198D01*
X115463400Y-138439229D01*
X115815538Y-138439229D01*
X116170507Y-138794198D01*
X116525475Y-138439229D01*
X116877612Y-138439229D01*
X117232581Y-138794198D01*
X117587549Y-138439229D01*
X117939686Y-138439229D01*
X118294655Y-138794198D01*
X118649623Y-138439229D01*
X119001761Y-138439229D01*
X119356729Y-138794197D01*
X119553223Y-138597703D01*
X119553961Y-138281492D01*
X119356730Y-138084261D01*
X119001761Y-138439229D01*
X118649623Y-138439229D01*
X118294655Y-138084261D01*
X117939686Y-138439229D01*
X117587549Y-138439229D01*
X117232581Y-138084261D01*
X116877612Y-138439229D01*
X116525475Y-138439229D01*
X116170507Y-138084261D01*
X115815538Y-138439229D01*
X115463400Y-138439229D01*
X115108432Y-138084261D01*
X114753463Y-138439229D01*
X114401326Y-138439229D01*
X114046358Y-138084261D01*
X113691389Y-138439229D01*
X113339251Y-138439229D01*
X112984283Y-138084261D01*
X112629314Y-138439229D01*
X112277177Y-138439229D01*
X111922209Y-138084261D01*
X111567240Y-138439229D01*
X111215103Y-138439229D01*
X110860134Y-138084261D01*
X110509000Y-138435396D01*
X110130500Y-138435396D01*
X110130500Y-138083257D01*
X110509000Y-138083257D01*
X110684064Y-137908192D01*
X111036204Y-137908192D01*
X111391172Y-138263160D01*
X111746140Y-137908192D01*
X112098278Y-137908192D01*
X112453246Y-138263160D01*
X112808214Y-137908192D01*
X113160353Y-137908192D01*
X113515321Y-138263160D01*
X113870289Y-137908192D01*
X114222427Y-137908192D01*
X114577395Y-138263160D01*
X114932363Y-137908192D01*
X115284501Y-137908192D01*
X115639469Y-138263160D01*
X115994437Y-137908192D01*
X116346576Y-137908192D01*
X116701544Y-138263160D01*
X117056512Y-137908192D01*
X117408650Y-137908192D01*
X117763618Y-138263160D01*
X118118586Y-137908192D01*
X118470724Y-137908192D01*
X118825692Y-138263160D01*
X119180661Y-137908192D01*
X118825692Y-137553223D01*
X118470724Y-137908192D01*
X118118586Y-137908192D01*
X117763618Y-137553224D01*
X117408650Y-137908192D01*
X117056512Y-137908192D01*
X116701544Y-137553224D01*
X116346576Y-137908192D01*
X115994437Y-137908192D01*
X115639469Y-137553223D01*
X115284501Y-137908192D01*
X114932363Y-137908192D01*
X114577395Y-137553224D01*
X114222427Y-137908192D01*
X113870289Y-137908192D01*
X113515321Y-137553224D01*
X113160353Y-137908192D01*
X112808214Y-137908192D01*
X112453246Y-137553224D01*
X112098278Y-137908192D01*
X111746140Y-137908192D01*
X111391172Y-137553224D01*
X111036204Y-137908192D01*
X110684064Y-137908192D01*
X110684065Y-137908191D01*
X110509000Y-137733126D01*
X110509000Y-138083257D01*
X110130500Y-138083257D01*
X110130500Y-137373322D01*
X110509000Y-137373322D01*
X110509000Y-137380988D01*
X110860135Y-137732123D01*
X111215103Y-137377155D01*
X111567241Y-137377155D01*
X111922209Y-137732123D01*
X112277177Y-137377155D01*
X112629315Y-137377155D01*
X112984283Y-137732123D01*
X113339251Y-137377155D01*
X113691390Y-137377155D01*
X114046358Y-137732123D01*
X114401326Y-137377155D01*
X114753464Y-137377155D01*
X115108432Y-137732123D01*
X115463400Y-137377155D01*
X115815539Y-137377155D01*
X116170507Y-137732123D01*
X116525475Y-137377155D01*
X116877613Y-137377155D01*
X117232581Y-137732123D01*
X117587549Y-137377155D01*
X117939687Y-137377155D01*
X118294655Y-137732123D01*
X118649623Y-137377155D01*
X119001762Y-137377155D01*
X119356729Y-137732122D01*
X119555710Y-137533141D01*
X119556437Y-137221894D01*
X119356730Y-137022187D01*
X119001762Y-137377155D01*
X118649623Y-137377155D01*
X118294655Y-137022187D01*
X117939687Y-137377155D01*
X117587549Y-137377155D01*
X117232581Y-137022187D01*
X116877613Y-137377155D01*
X116525475Y-137377155D01*
X116170507Y-137022187D01*
X115815539Y-137377155D01*
X115463400Y-137377155D01*
X115108432Y-137022187D01*
X114753464Y-137377155D01*
X114401326Y-137377155D01*
X114046358Y-137022187D01*
X113691390Y-137377155D01*
X113339251Y-137377155D01*
X112984283Y-137022186D01*
X112629315Y-137377155D01*
X112277177Y-137377155D01*
X111922209Y-137022187D01*
X111567241Y-137377155D01*
X111215103Y-137377155D01*
X110860135Y-137022187D01*
X110509000Y-137373322D01*
X110130500Y-137373322D01*
X110130500Y-137021183D01*
X110509000Y-137021183D01*
X110684064Y-136846118D01*
X111036204Y-136846118D01*
X111391172Y-137201086D01*
X111746140Y-136846118D01*
X112098278Y-136846118D01*
X112453246Y-137201086D01*
X112808214Y-136846118D01*
X113160353Y-136846118D01*
X113515321Y-137201086D01*
X113870289Y-136846118D01*
X114222427Y-136846118D01*
X114577395Y-137201086D01*
X114932363Y-136846118D01*
X115284501Y-136846118D01*
X115639469Y-137201086D01*
X115994437Y-136846118D01*
X116346576Y-136846118D01*
X116701544Y-137201086D01*
X117056512Y-136846118D01*
X117408650Y-136846118D01*
X117763618Y-137201086D01*
X118118586Y-136846118D01*
X118470724Y-136846118D01*
X118825692Y-137201086D01*
X119180661Y-136846118D01*
X118825692Y-136491149D01*
X118470724Y-136846118D01*
X118118586Y-136846118D01*
X117763618Y-136491150D01*
X117408650Y-136846118D01*
X117056512Y-136846118D01*
X116701544Y-136491150D01*
X116346576Y-136846118D01*
X115994437Y-136846118D01*
X115639469Y-136491149D01*
X115284501Y-136846118D01*
X114932363Y-136846118D01*
X114577395Y-136491150D01*
X114222427Y-136846118D01*
X113870289Y-136846118D01*
X113515321Y-136491150D01*
X113160353Y-136846118D01*
X112808214Y-136846118D01*
X112453246Y-136491150D01*
X112098278Y-136846118D01*
X111746140Y-136846118D01*
X111391172Y-136491150D01*
X111036204Y-136846118D01*
X110684064Y-136846118D01*
X110684065Y-136846117D01*
X110509000Y-136671052D01*
X110509000Y-137021183D01*
X110130500Y-137021183D01*
X110130500Y-136311248D01*
X110509000Y-136311248D01*
X110509000Y-136318914D01*
X110860135Y-136670049D01*
X111215103Y-136315081D01*
X111567241Y-136315081D01*
X111922209Y-136670049D01*
X112277177Y-136315081D01*
X112629315Y-136315081D01*
X112984283Y-136670049D01*
X113339251Y-136315081D01*
X113691390Y-136315081D01*
X114046358Y-136670049D01*
X114401326Y-136315081D01*
X114753464Y-136315081D01*
X115108432Y-136670049D01*
X115463400Y-136315081D01*
X115815539Y-136315081D01*
X116170507Y-136670049D01*
X116525475Y-136315081D01*
X116877613Y-136315081D01*
X117232581Y-136670049D01*
X117587549Y-136315081D01*
X117939687Y-136315081D01*
X118294655Y-136670049D01*
X118649623Y-136315081D01*
X119001762Y-136315081D01*
X119356729Y-136670048D01*
X119558197Y-136468580D01*
X119558913Y-136162296D01*
X119356730Y-135960113D01*
X119001762Y-136315081D01*
X118649623Y-136315081D01*
X118294655Y-135960113D01*
X117939687Y-136315081D01*
X117587549Y-136315081D01*
X117232581Y-135960113D01*
X116877613Y-136315081D01*
X116525475Y-136315081D01*
X116170507Y-135960113D01*
X115815539Y-136315081D01*
X115463400Y-136315081D01*
X115108432Y-135960113D01*
X114753464Y-136315081D01*
X114401326Y-136315081D01*
X114046358Y-135960113D01*
X113691390Y-136315081D01*
X113339251Y-136315081D01*
X112984283Y-135960112D01*
X112629315Y-136315081D01*
X112277177Y-136315081D01*
X111922209Y-135960113D01*
X111567241Y-136315081D01*
X111215103Y-136315081D01*
X110860135Y-135960113D01*
X110509000Y-136311248D01*
X110130500Y-136311248D01*
X110130500Y-135959109D01*
X110509000Y-135959109D01*
X110684064Y-135784044D01*
X111036204Y-135784044D01*
X111391172Y-136139012D01*
X111746140Y-135784044D01*
X112098278Y-135784044D01*
X112453246Y-136139012D01*
X112808214Y-135784044D01*
X113160353Y-135784044D01*
X113515321Y-136139012D01*
X113870289Y-135784044D01*
X114222427Y-135784044D01*
X114577395Y-136139012D01*
X114932363Y-135784044D01*
X115284501Y-135784044D01*
X115639469Y-136139012D01*
X115994437Y-135784044D01*
X116346576Y-135784044D01*
X116701544Y-136139012D01*
X117056512Y-135784044D01*
X117408650Y-135784044D01*
X117763618Y-136139012D01*
X118118586Y-135784044D01*
X118470724Y-135784044D01*
X118825692Y-136139012D01*
X119180661Y-135784044D01*
X118825692Y-135429075D01*
X118470724Y-135784044D01*
X118118586Y-135784044D01*
X117763618Y-135429076D01*
X117408650Y-135784044D01*
X117056512Y-135784044D01*
X116701544Y-135429076D01*
X116346576Y-135784044D01*
X115994437Y-135784044D01*
X115639469Y-135429075D01*
X115284501Y-135784044D01*
X114932363Y-135784044D01*
X114577395Y-135429076D01*
X114222427Y-135784044D01*
X113870289Y-135784044D01*
X113515321Y-135429076D01*
X113160353Y-135784044D01*
X112808214Y-135784044D01*
X112453246Y-135429076D01*
X112098278Y-135784044D01*
X111746140Y-135784044D01*
X111391172Y-135429076D01*
X111036204Y-135784044D01*
X110684064Y-135784044D01*
X110684065Y-135784043D01*
X110509000Y-135608978D01*
X110509000Y-135959109D01*
X110130500Y-135959109D01*
X110130500Y-135249173D01*
X110509000Y-135249173D01*
X110509000Y-135256839D01*
X110860135Y-135607974D01*
X111215103Y-135253006D01*
X111567241Y-135253006D01*
X111922209Y-135607974D01*
X112277177Y-135253006D01*
X112629315Y-135253006D01*
X112984283Y-135607974D01*
X113339251Y-135253006D01*
X113691390Y-135253006D01*
X114046358Y-135607974D01*
X114401326Y-135253006D01*
X114753464Y-135253006D01*
X115108432Y-135607974D01*
X115463400Y-135253006D01*
X115815539Y-135253006D01*
X116170507Y-135607974D01*
X116525475Y-135253006D01*
X116877613Y-135253006D01*
X117232581Y-135607974D01*
X117587549Y-135253006D01*
X117939687Y-135253006D01*
X118294655Y-135607974D01*
X118649623Y-135253006D01*
X119001762Y-135253006D01*
X119356729Y-135607973D01*
X119560684Y-135404018D01*
X119561389Y-135102697D01*
X119356730Y-134898038D01*
X119001762Y-135253006D01*
X118649623Y-135253006D01*
X118294655Y-134898038D01*
X117939687Y-135253006D01*
X117587549Y-135253006D01*
X117232581Y-134898038D01*
X116877613Y-135253006D01*
X116525475Y-135253006D01*
X116170507Y-134898038D01*
X115815539Y-135253006D01*
X115463400Y-135253006D01*
X115108432Y-134898038D01*
X114753464Y-135253006D01*
X114401326Y-135253006D01*
X114046358Y-134898038D01*
X113691390Y-135253006D01*
X113339251Y-135253006D01*
X112984283Y-134898037D01*
X112629315Y-135253006D01*
X112277177Y-135253006D01*
X111922209Y-134898038D01*
X111567241Y-135253006D01*
X111215103Y-135253006D01*
X110860135Y-134898038D01*
X110509000Y-135249173D01*
X110130500Y-135249173D01*
X110130500Y-134897034D01*
X110509000Y-134897034D01*
X110684064Y-134721969D01*
X111036204Y-134721969D01*
X111391172Y-135076937D01*
X111746140Y-134721969D01*
X112098278Y-134721969D01*
X112453246Y-135076937D01*
X112808214Y-134721969D01*
X113160353Y-134721969D01*
X113515321Y-135076937D01*
X113870289Y-134721969D01*
X114222427Y-134721969D01*
X114577395Y-135076937D01*
X114932363Y-134721969D01*
X115284501Y-134721969D01*
X115639469Y-135076937D01*
X115994437Y-134721969D01*
X116346576Y-134721969D01*
X116701544Y-135076937D01*
X117056512Y-134721969D01*
X117408650Y-134721969D01*
X117763618Y-135076937D01*
X118118586Y-134721969D01*
X118470724Y-134721969D01*
X118825692Y-135076937D01*
X119180661Y-134721969D01*
X118825692Y-134367000D01*
X118470724Y-134721969D01*
X118118586Y-134721969D01*
X117763618Y-134367001D01*
X117408650Y-134721969D01*
X117056512Y-134721969D01*
X116701544Y-134367001D01*
X116346576Y-134721969D01*
X115994437Y-134721969D01*
X115639469Y-134367000D01*
X115284501Y-134721969D01*
X114932363Y-134721969D01*
X114577395Y-134367001D01*
X114222427Y-134721969D01*
X113870289Y-134721969D01*
X113515321Y-134367001D01*
X113160353Y-134721969D01*
X112808214Y-134721969D01*
X112453246Y-134367001D01*
X112098278Y-134721969D01*
X111746140Y-134721969D01*
X111391172Y-134367001D01*
X111036204Y-134721969D01*
X110684064Y-134721969D01*
X110684065Y-134721968D01*
X110509000Y-134546903D01*
X110509000Y-134897034D01*
X110130500Y-134897034D01*
X110130500Y-134187099D01*
X110509000Y-134187099D01*
X110509000Y-134194765D01*
X110860135Y-134545900D01*
X111215103Y-134190932D01*
X111567241Y-134190932D01*
X111922209Y-134545900D01*
X112277177Y-134190932D01*
X112629315Y-134190932D01*
X112984283Y-134545900D01*
X113339251Y-134190932D01*
X113691390Y-134190932D01*
X114046358Y-134545900D01*
X114401326Y-134190932D01*
X114753464Y-134190932D01*
X115108432Y-134545900D01*
X115463400Y-134190932D01*
X115815539Y-134190932D01*
X116170507Y-134545900D01*
X116525475Y-134190932D01*
X116877613Y-134190932D01*
X117232581Y-134545900D01*
X117587549Y-134190932D01*
X117939687Y-134190932D01*
X118294655Y-134545900D01*
X118649623Y-134190932D01*
X119001762Y-134190932D01*
X119356729Y-134545899D01*
X119563172Y-134339456D01*
X119563864Y-134043098D01*
X119356730Y-133835964D01*
X119001762Y-134190932D01*
X118649623Y-134190932D01*
X118294655Y-133835964D01*
X117939687Y-134190932D01*
X117587549Y-134190932D01*
X117232581Y-133835964D01*
X116877613Y-134190932D01*
X116525475Y-134190932D01*
X116170507Y-133835964D01*
X115815539Y-134190932D01*
X115463400Y-134190932D01*
X115108432Y-133835964D01*
X114753464Y-134190932D01*
X114401326Y-134190932D01*
X114046358Y-133835964D01*
X113691390Y-134190932D01*
X113339251Y-134190932D01*
X112984283Y-133835963D01*
X112629315Y-134190932D01*
X112277177Y-134190932D01*
X111922209Y-133835964D01*
X111567241Y-134190932D01*
X111215103Y-134190932D01*
X110860135Y-133835964D01*
X110509000Y-134187099D01*
X110130500Y-134187099D01*
X110130500Y-133834960D01*
X110509000Y-133834960D01*
X110684064Y-133659895D01*
X111036204Y-133659895D01*
X111391172Y-134014863D01*
X111746140Y-133659895D01*
X112098278Y-133659895D01*
X112453246Y-134014863D01*
X112808214Y-133659895D01*
X113160353Y-133659895D01*
X113515321Y-134014863D01*
X113870289Y-133659895D01*
X114222427Y-133659895D01*
X114577395Y-134014863D01*
X114932363Y-133659895D01*
X115284501Y-133659895D01*
X115639469Y-134014863D01*
X115994437Y-133659895D01*
X116346576Y-133659895D01*
X116701544Y-134014863D01*
X117056512Y-133659895D01*
X117408650Y-133659895D01*
X117763618Y-134014863D01*
X118118586Y-133659895D01*
X118470724Y-133659895D01*
X118825692Y-134014863D01*
X119180661Y-133659895D01*
X118825692Y-133304926D01*
X118470724Y-133659895D01*
X118118586Y-133659895D01*
X117763618Y-133304927D01*
X117408650Y-133659895D01*
X117056512Y-133659895D01*
X116701544Y-133304927D01*
X116346576Y-133659895D01*
X115994437Y-133659895D01*
X115639469Y-133304926D01*
X115284501Y-133659895D01*
X114932363Y-133659895D01*
X114577395Y-133304927D01*
X114222427Y-133659895D01*
X113870289Y-133659895D01*
X113515321Y-133304927D01*
X113160353Y-133659895D01*
X112808214Y-133659895D01*
X112453246Y-133304927D01*
X112098278Y-133659895D01*
X111746140Y-133659895D01*
X111391172Y-133304927D01*
X111036204Y-133659895D01*
X110684064Y-133659895D01*
X110684065Y-133659894D01*
X110509000Y-133484829D01*
X110509000Y-133834960D01*
X110130500Y-133834960D01*
X110130500Y-133125025D01*
X110509000Y-133125025D01*
X110509000Y-133132691D01*
X110860135Y-133483826D01*
X111215103Y-133128858D01*
X111567241Y-133128858D01*
X111922209Y-133483826D01*
X112277177Y-133128858D01*
X112629315Y-133128858D01*
X112984283Y-133483826D01*
X113339251Y-133128858D01*
X113691390Y-133128858D01*
X114046358Y-133483826D01*
X114401326Y-133128858D01*
X114753464Y-133128858D01*
X115108432Y-133483826D01*
X115463400Y-133128858D01*
X115815539Y-133128858D01*
X116170507Y-133483826D01*
X116525475Y-133128858D01*
X116877613Y-133128858D01*
X117232581Y-133483826D01*
X117587549Y-133128858D01*
X117939687Y-133128858D01*
X118294655Y-133483826D01*
X118649623Y-133128858D01*
X119001762Y-133128858D01*
X119356729Y-133483825D01*
X119565659Y-133274895D01*
X119566340Y-132983500D01*
X119356730Y-132773890D01*
X119001762Y-133128858D01*
X118649623Y-133128858D01*
X118294655Y-132773890D01*
X117939687Y-133128858D01*
X117587549Y-133128858D01*
X117232581Y-132773890D01*
X116877613Y-133128858D01*
X116525475Y-133128858D01*
X116170507Y-132773890D01*
X115815539Y-133128858D01*
X115463400Y-133128858D01*
X115108432Y-132773890D01*
X114753464Y-133128858D01*
X114401326Y-133128858D01*
X114046358Y-132773890D01*
X113691390Y-133128858D01*
X113339251Y-133128858D01*
X112984283Y-132773889D01*
X112629315Y-133128858D01*
X112277177Y-133128858D01*
X111922209Y-132773890D01*
X111567241Y-133128858D01*
X111215103Y-133128858D01*
X110860135Y-132773890D01*
X110509000Y-133125025D01*
X110130500Y-133125025D01*
X110130500Y-132772886D01*
X110509000Y-132772886D01*
X110684066Y-132597820D01*
X111036203Y-132597820D01*
X111391172Y-132952788D01*
X111746140Y-132597820D01*
X112098277Y-132597820D01*
X112453246Y-132952788D01*
X112808214Y-132597820D01*
X113160352Y-132597820D01*
X113515321Y-132952788D01*
X113870289Y-132597820D01*
X114222426Y-132597820D01*
X114577395Y-132952788D01*
X114932363Y-132597820D01*
X115284500Y-132597820D01*
X115639469Y-132952788D01*
X115994437Y-132597820D01*
X116346575Y-132597820D01*
X116701544Y-132952788D01*
X117056512Y-132597820D01*
X117408649Y-132597820D01*
X117763618Y-132952788D01*
X118118586Y-132597820D01*
X118470724Y-132597820D01*
X118825692Y-132952788D01*
X119180661Y-132597820D01*
X118825692Y-132242851D01*
X118470724Y-132597820D01*
X118118586Y-132597820D01*
X117763618Y-132242852D01*
X117408649Y-132597820D01*
X117056512Y-132597820D01*
X116701544Y-132242852D01*
X116346575Y-132597820D01*
X115994437Y-132597820D01*
X115639469Y-132242851D01*
X115284500Y-132597820D01*
X114932363Y-132597820D01*
X114577395Y-132242852D01*
X114222426Y-132597820D01*
X113870289Y-132597820D01*
X113515321Y-132242852D01*
X113160352Y-132597820D01*
X112808214Y-132597820D01*
X112453246Y-132242852D01*
X112098277Y-132597820D01*
X111746140Y-132597820D01*
X111391172Y-132242852D01*
X111036203Y-132597820D01*
X110684066Y-132597820D01*
X110509000Y-132422754D01*
X110509000Y-132772886D01*
X110130500Y-132772886D01*
X110130500Y-132062950D01*
X110509000Y-132062950D01*
X110509000Y-132070616D01*
X110860135Y-132421751D01*
X111215103Y-132066783D01*
X111567241Y-132066783D01*
X111922209Y-132421751D01*
X112277177Y-132066783D01*
X112629315Y-132066783D01*
X112984283Y-132421751D01*
X113339251Y-132066783D01*
X113691390Y-132066783D01*
X114046358Y-132421751D01*
X114401326Y-132066783D01*
X114753464Y-132066783D01*
X115108432Y-132421751D01*
X115463400Y-132066783D01*
X115815539Y-132066783D01*
X116170507Y-132421751D01*
X116525475Y-132066783D01*
X116877613Y-132066783D01*
X117232581Y-132421751D01*
X117587549Y-132066783D01*
X117939687Y-132066783D01*
X118294655Y-132421751D01*
X118649623Y-132066783D01*
X119001762Y-132066783D01*
X119356729Y-132421750D01*
X119568146Y-132210333D01*
X119568816Y-131923901D01*
X119356730Y-131711815D01*
X119001762Y-132066783D01*
X118649623Y-132066783D01*
X118294655Y-131711815D01*
X117939687Y-132066783D01*
X117587549Y-132066783D01*
X117232581Y-131711815D01*
X116877613Y-132066783D01*
X116525475Y-132066783D01*
X116170507Y-131711815D01*
X115815539Y-132066783D01*
X115463400Y-132066783D01*
X115108432Y-131711815D01*
X114753464Y-132066783D01*
X114401326Y-132066783D01*
X114046358Y-131711815D01*
X113691390Y-132066783D01*
X113339251Y-132066783D01*
X112984283Y-131711814D01*
X112629315Y-132066783D01*
X112277177Y-132066783D01*
X111922209Y-131711815D01*
X111567241Y-132066783D01*
X111215103Y-132066783D01*
X110860135Y-131711815D01*
X110509000Y-132062950D01*
X110130500Y-132062950D01*
X110130500Y-131710811D01*
X110509000Y-131710811D01*
X110684064Y-131535746D01*
X111036204Y-131535746D01*
X111391172Y-131890714D01*
X111746140Y-131535746D01*
X112098278Y-131535746D01*
X112453246Y-131890714D01*
X112808214Y-131535746D01*
X113160353Y-131535746D01*
X113515321Y-131890714D01*
X113870289Y-131535746D01*
X114222427Y-131535746D01*
X114577395Y-131890714D01*
X114932363Y-131535746D01*
X115284501Y-131535746D01*
X115639469Y-131890714D01*
X115994437Y-131535746D01*
X116346576Y-131535746D01*
X116701544Y-131890714D01*
X117056512Y-131535746D01*
X117408650Y-131535746D01*
X117763618Y-131890714D01*
X118118586Y-131535746D01*
X118470724Y-131535746D01*
X118825692Y-131890714D01*
X119180661Y-131535746D01*
X118825692Y-131180777D01*
X118470724Y-131535746D01*
X118118586Y-131535746D01*
X117763618Y-131180778D01*
X117408650Y-131535746D01*
X117056512Y-131535746D01*
X116701544Y-131180778D01*
X116346576Y-131535746D01*
X115994437Y-131535746D01*
X115639469Y-131180777D01*
X115284501Y-131535746D01*
X114932363Y-131535746D01*
X114577395Y-131180778D01*
X114222427Y-131535746D01*
X113870289Y-131535746D01*
X113515321Y-131180778D01*
X113160353Y-131535746D01*
X112808214Y-131535746D01*
X112453246Y-131180778D01*
X112098278Y-131535746D01*
X111746140Y-131535746D01*
X111391172Y-131180778D01*
X111036204Y-131535746D01*
X110684064Y-131535746D01*
X110684065Y-131535745D01*
X110509000Y-131360680D01*
X110509000Y-131710811D01*
X110130500Y-131710811D01*
X110130500Y-131000876D01*
X110509000Y-131000876D01*
X110509000Y-131008542D01*
X110860135Y-131359677D01*
X111215103Y-131004709D01*
X111567241Y-131004709D01*
X111922209Y-131359677D01*
X112277177Y-131004709D01*
X112629315Y-131004709D01*
X112984283Y-131359677D01*
X113339251Y-131004709D01*
X113691390Y-131004709D01*
X114046358Y-131359677D01*
X114401326Y-131004709D01*
X114753464Y-131004709D01*
X115108432Y-131359677D01*
X115463400Y-131004709D01*
X115815539Y-131004709D01*
X116170507Y-131359677D01*
X116525475Y-131004709D01*
X116877613Y-131004709D01*
X117232581Y-131359677D01*
X117587549Y-131004709D01*
X117939687Y-131004709D01*
X118294655Y-131359677D01*
X118649623Y-131004709D01*
X119001762Y-131004709D01*
X119356729Y-131359676D01*
X119570634Y-131145771D01*
X119571266Y-130875568D01*
X119573845Y-130866856D01*
X119356730Y-130649741D01*
X119001762Y-131004709D01*
X118649623Y-131004709D01*
X118294655Y-130649741D01*
X117939687Y-131004709D01*
X117587549Y-131004709D01*
X117232581Y-130649741D01*
X116877613Y-131004709D01*
X116525475Y-131004709D01*
X116170507Y-130649741D01*
X115815539Y-131004709D01*
X115463400Y-131004709D01*
X115108432Y-130649741D01*
X114753464Y-131004709D01*
X114401326Y-131004709D01*
X114046358Y-130649741D01*
X113691390Y-131004709D01*
X113339251Y-131004709D01*
X112984283Y-130649740D01*
X112629315Y-131004709D01*
X112277177Y-131004709D01*
X111922209Y-130649741D01*
X111567241Y-131004709D01*
X111215103Y-131004709D01*
X110860135Y-130649741D01*
X110509000Y-131000876D01*
X110130500Y-131000876D01*
X110130500Y-130933154D01*
X110108165Y-130842539D01*
X110098507Y-130803353D01*
X110093895Y-130794566D01*
X110036381Y-130684982D01*
X110036379Y-130684980D01*
X109947734Y-130584920D01*
X109947732Y-130584918D01*
X109947730Y-130584916D01*
X109898312Y-130550805D01*
X109837710Y-130508974D01*
X109712711Y-130461568D01*
X109712708Y-130461567D01*
X109580000Y-130445454D01*
X109447291Y-130461567D01*
X109447288Y-130461568D01*
X109322289Y-130508974D01*
X109212272Y-130584914D01*
X109212265Y-130584920D01*
X109123620Y-130684980D01*
X109123618Y-130684982D01*
X109061492Y-130803352D01*
X109061492Y-130803353D01*
X109061044Y-130805173D01*
X109060350Y-130806363D01*
X109058832Y-130810368D01*
X109058166Y-130810115D01*
X109025889Y-130865554D01*
X108963670Y-130897344D01*
X108940647Y-130899500D01*
X108439620Y-130899500D01*
X108372581Y-130879815D01*
X108326826Y-130827011D01*
X108315658Y-130772418D01*
X108318086Y-130674765D01*
X108323086Y-130473672D01*
X108912055Y-130473672D01*
X108930106Y-130491723D01*
X109013402Y-130397703D01*
X109018577Y-130392208D01*
X109019646Y-130391140D01*
X109025056Y-130386050D01*
X109037414Y-130375101D01*
X109043237Y-130370250D01*
X109044427Y-130369319D01*
X109050393Y-130364932D01*
X109066213Y-130354012D01*
X110093787Y-130354012D01*
X110109607Y-130364932D01*
X110115573Y-130369319D01*
X110116763Y-130370250D01*
X110122586Y-130375101D01*
X110134944Y-130386050D01*
X110140354Y-130391140D01*
X110141423Y-130392208D01*
X110146598Y-130397703D01*
X110246198Y-130510128D01*
X110251046Y-130515948D01*
X110251977Y-130517138D01*
X110256360Y-130523099D01*
X110265741Y-130536688D01*
X110269835Y-130543023D01*
X110270616Y-130544316D01*
X110274272Y-130550801D01*
X110339333Y-130674765D01*
X110410953Y-130746783D01*
X110684064Y-130473672D01*
X111036204Y-130473672D01*
X111391172Y-130828640D01*
X111746140Y-130473672D01*
X112098278Y-130473672D01*
X112453246Y-130828640D01*
X112808214Y-130473672D01*
X113160353Y-130473672D01*
X113515321Y-130828640D01*
X113870289Y-130473672D01*
X114222427Y-130473672D01*
X114577395Y-130828640D01*
X114932363Y-130473672D01*
X115284501Y-130473672D01*
X115639469Y-130828640D01*
X115994437Y-130473672D01*
X115994436Y-130473671D01*
X116346575Y-130473671D01*
X116701544Y-130828640D01*
X117056512Y-130473672D01*
X117408650Y-130473672D01*
X117763618Y-130828640D01*
X118118586Y-130473672D01*
X118470724Y-130473672D01*
X118825692Y-130828640D01*
X119180661Y-130473672D01*
X119532799Y-130473672D01*
X119725219Y-130666092D01*
X119785728Y-130550804D01*
X119789384Y-130544319D01*
X119790165Y-130543026D01*
X119794259Y-130536691D01*
X119803640Y-130523102D01*
X119808023Y-130517141D01*
X119808954Y-130515951D01*
X119813802Y-130510131D01*
X119913402Y-130397706D01*
X119918577Y-130392211D01*
X119919646Y-130391143D01*
X119925056Y-130386053D01*
X119937414Y-130375104D01*
X119943237Y-130370253D01*
X119944427Y-130369322D01*
X119950393Y-130364935D01*
X120059018Y-130289955D01*
X120017366Y-130248303D01*
X120820240Y-130248303D01*
X120842238Y-130256646D01*
X120849175Y-130259520D01*
X120850552Y-130260140D01*
X120857268Y-130263411D01*
X120871888Y-130271084D01*
X120878374Y-130274741D01*
X120879667Y-130275522D01*
X120885997Y-130279612D01*
X121009607Y-130364935D01*
X121015573Y-130369322D01*
X121016763Y-130370253D01*
X121022586Y-130375104D01*
X121034944Y-130386053D01*
X121040354Y-130391143D01*
X121041423Y-130392211D01*
X121046598Y-130397706D01*
X121146198Y-130510131D01*
X121151046Y-130515951D01*
X121151977Y-130517141D01*
X121156360Y-130523102D01*
X121165741Y-130536691D01*
X121169835Y-130543026D01*
X121170616Y-130544319D01*
X121174273Y-130550805D01*
X121192653Y-130585826D01*
X121304808Y-130473671D01*
X121656947Y-130473671D01*
X121769330Y-130586054D01*
X122255837Y-130584717D01*
X122366882Y-130473672D01*
X122719022Y-130473672D01*
X122828494Y-130583144D01*
X123320837Y-130581791D01*
X123428957Y-130473671D01*
X123781096Y-130473671D01*
X123887659Y-130580234D01*
X124385838Y-130578865D01*
X124491031Y-130473672D01*
X124843171Y-130473672D01*
X124946823Y-130577324D01*
X125450838Y-130575939D01*
X125553105Y-130473672D01*
X125905245Y-130473672D01*
X126005987Y-130574414D01*
X126515838Y-130573013D01*
X126615180Y-130473671D01*
X126260213Y-130118704D01*
X125905245Y-130473672D01*
X125553105Y-130473672D01*
X125553106Y-130473671D01*
X125198139Y-130118704D01*
X124843171Y-130473672D01*
X124491031Y-130473672D01*
X124491032Y-130473671D01*
X124136064Y-130118703D01*
X123781096Y-130473671D01*
X123428957Y-130473671D01*
X123073990Y-130118704D01*
X122719022Y-130473672D01*
X122366882Y-130473672D01*
X122366883Y-130473671D01*
X122097081Y-130203869D01*
X122449219Y-130203869D01*
X122542952Y-130297602D01*
X122714361Y-130126193D01*
X122617191Y-130166443D01*
X122611489Y-130168642D01*
X122610334Y-130169055D01*
X122604585Y-130170953D01*
X122591751Y-130174847D01*
X122585847Y-130176481D01*
X122584656Y-130176779D01*
X122578750Y-130178104D01*
X122449219Y-130203869D01*
X122097081Y-130203869D01*
X122083746Y-130190534D01*
X122021251Y-130178104D01*
X122015344Y-130176779D01*
X122014153Y-130176481D01*
X122008249Y-130174847D01*
X121995415Y-130170953D01*
X121989666Y-130169055D01*
X121988511Y-130168642D01*
X121982810Y-130166443D01*
X121969633Y-130160985D01*
X121656947Y-130473671D01*
X121304808Y-130473671D01*
X120949840Y-130118703D01*
X120820240Y-130248303D01*
X120017366Y-130248303D01*
X119887767Y-130118704D01*
X119532799Y-130473672D01*
X119180661Y-130473672D01*
X118825692Y-130118703D01*
X118470724Y-130473672D01*
X118118586Y-130473672D01*
X117763618Y-130118704D01*
X117408650Y-130473672D01*
X117056512Y-130473672D01*
X116706340Y-130123500D01*
X116696747Y-130123500D01*
X116346575Y-130473671D01*
X115994436Y-130473671D01*
X115639469Y-130118703D01*
X115284501Y-130473672D01*
X114932363Y-130473672D01*
X114577395Y-130118704D01*
X114222427Y-130473672D01*
X113870289Y-130473672D01*
X113515321Y-130118704D01*
X113160353Y-130473672D01*
X112808214Y-130473672D01*
X112453246Y-130118704D01*
X112098278Y-130473672D01*
X111746140Y-130473672D01*
X111391172Y-130118704D01*
X111036204Y-130473672D01*
X110684064Y-130473672D01*
X110684065Y-130473671D01*
X110329096Y-130118703D01*
X110093787Y-130354012D01*
X109066213Y-130354012D01*
X109174003Y-130279609D01*
X109180333Y-130275519D01*
X109181626Y-130274738D01*
X109188112Y-130271081D01*
X109202732Y-130263408D01*
X109209448Y-130260137D01*
X109210825Y-130259517D01*
X109217762Y-130256643D01*
X109353487Y-130205168D01*
X109267023Y-130118704D01*
X108912055Y-130473672D01*
X108323086Y-130473672D01*
X108327691Y-130288430D01*
X108726813Y-130288430D01*
X108735985Y-130297602D01*
X109090954Y-129942634D01*
X109443091Y-129942634D01*
X109683468Y-130183011D01*
X109753813Y-130191553D01*
X109761273Y-130192690D01*
X109762759Y-130192963D01*
X109770024Y-130194524D01*
X109786056Y-130198475D01*
X109793301Y-130200496D01*
X109794744Y-130200946D01*
X109801800Y-130203381D01*
X109867400Y-130228260D01*
X110153026Y-129942634D01*
X110505166Y-129942634D01*
X110860135Y-130297602D01*
X111215103Y-129942634D01*
X111567240Y-129942634D01*
X111922209Y-130297602D01*
X112277177Y-129942634D01*
X112629314Y-129942634D01*
X112984283Y-130297602D01*
X113339251Y-129942634D01*
X113691389Y-129942634D01*
X114046358Y-130297602D01*
X114401326Y-129942634D01*
X114753463Y-129942634D01*
X115108432Y-130297602D01*
X115463400Y-129942634D01*
X115463399Y-129942633D01*
X115815538Y-129942633D01*
X116170506Y-130297602D01*
X116374916Y-130093192D01*
X117028170Y-130093192D01*
X117232581Y-130297602D01*
X117587549Y-129942634D01*
X117939686Y-129942634D01*
X118294655Y-130297602D01*
X118649623Y-129942634D01*
X119001761Y-129942634D01*
X119356730Y-130297602D01*
X119711698Y-129942634D01*
X120063836Y-129942634D01*
X120312046Y-130190844D01*
X120455290Y-130173452D01*
X120462767Y-130172773D01*
X120464275Y-130172682D01*
X120471744Y-130172457D01*
X120488256Y-130172457D01*
X120495725Y-130172682D01*
X120497233Y-130172773D01*
X120504710Y-130173452D01*
X120538813Y-130177592D01*
X120773772Y-129942634D01*
X121125910Y-129942634D01*
X121480878Y-130297602D01*
X121735028Y-130043451D01*
X121664337Y-129996217D01*
X121659330Y-129992690D01*
X121658345Y-129991959D01*
X121653578Y-129988237D01*
X121643211Y-129979729D01*
X121638646Y-129975793D01*
X121637736Y-129974969D01*
X121633285Y-129970733D01*
X121605186Y-129942634D01*
X123250058Y-129942634D01*
X123605027Y-130297602D01*
X123959995Y-129942634D01*
X124312133Y-129942634D01*
X124667102Y-130297602D01*
X125022070Y-129942634D01*
X125374207Y-129942634D01*
X125729176Y-130297602D01*
X126084144Y-129942634D01*
X126436281Y-129942634D01*
X126791250Y-130297602D01*
X126851000Y-130237853D01*
X126851000Y-129647415D01*
X126791250Y-129587665D01*
X126436281Y-129942634D01*
X126084144Y-129942634D01*
X125729176Y-129587666D01*
X125374207Y-129942634D01*
X125022070Y-129942634D01*
X124667102Y-129587666D01*
X124312133Y-129942634D01*
X123959995Y-129942634D01*
X123605027Y-129587666D01*
X123250058Y-129942634D01*
X121605186Y-129942634D01*
X121519267Y-129856715D01*
X121515031Y-129852264D01*
X121514207Y-129851354D01*
X121510271Y-129846789D01*
X121501763Y-129836422D01*
X121498041Y-129831655D01*
X121497310Y-129830670D01*
X121493783Y-129825663D01*
X121404199Y-129691591D01*
X121400936Y-129686438D01*
X121400305Y-129685385D01*
X121397311Y-129680099D01*
X121394222Y-129674321D01*
X121125910Y-129942634D01*
X120773772Y-129942634D01*
X120418804Y-129587666D01*
X120063836Y-129942634D01*
X119711698Y-129942634D01*
X119356730Y-129587666D01*
X119001761Y-129942634D01*
X118649623Y-129942634D01*
X118294655Y-129587666D01*
X117939686Y-129942634D01*
X117587549Y-129942634D01*
X117483681Y-129838766D01*
X117441715Y-129880733D01*
X117437264Y-129884969D01*
X117436354Y-129885793D01*
X117431789Y-129889729D01*
X117421422Y-129898237D01*
X117416655Y-129901959D01*
X117415670Y-129902690D01*
X117410663Y-129906217D01*
X117276591Y-129995801D01*
X117271438Y-129999064D01*
X117270385Y-129999695D01*
X117265099Y-130002689D01*
X117253271Y-130009011D01*
X117247793Y-130011767D01*
X117246684Y-130012291D01*
X117241163Y-130014737D01*
X117092191Y-130076443D01*
X117086489Y-130078642D01*
X117085334Y-130079055D01*
X117079585Y-130080953D01*
X117066751Y-130084847D01*
X117060847Y-130086481D01*
X117059656Y-130086779D01*
X117053750Y-130088104D01*
X117028170Y-130093192D01*
X116374916Y-130093192D01*
X116411038Y-130057070D01*
X116308837Y-130014737D01*
X116303316Y-130012291D01*
X116302207Y-130011767D01*
X116296729Y-130009011D01*
X116284901Y-130002689D01*
X116279615Y-129999695D01*
X116278562Y-129999064D01*
X116273409Y-129995801D01*
X116139337Y-129906217D01*
X116134330Y-129902690D01*
X116133345Y-129901959D01*
X116128578Y-129898237D01*
X116118211Y-129889729D01*
X116113646Y-129885793D01*
X116112736Y-129884969D01*
X116108285Y-129880733D01*
X115994267Y-129766715D01*
X115992896Y-129765275D01*
X115815538Y-129942633D01*
X115463399Y-129942633D01*
X115108432Y-129587666D01*
X114753463Y-129942634D01*
X114401326Y-129942634D01*
X114046358Y-129587666D01*
X113691389Y-129942634D01*
X113339251Y-129942634D01*
X112984283Y-129587665D01*
X112629314Y-129942634D01*
X112277177Y-129942634D01*
X111922209Y-129587666D01*
X111567240Y-129942634D01*
X111215103Y-129942634D01*
X110860135Y-129587666D01*
X110505166Y-129942634D01*
X110153026Y-129942634D01*
X110153027Y-129942633D01*
X109798060Y-129587666D01*
X109443091Y-129942634D01*
X109090954Y-129942634D01*
X108744035Y-129595715D01*
X108726813Y-130288430D01*
X108327691Y-130288430D01*
X108349490Y-129411597D01*
X108912055Y-129411597D01*
X109267023Y-129766565D01*
X109621991Y-129411597D01*
X109974129Y-129411597D01*
X110329097Y-129766565D01*
X110564605Y-129531057D01*
X111155664Y-129531057D01*
X111391172Y-129766565D01*
X111564237Y-129593500D01*
X111429376Y-129593500D01*
X111423310Y-129593352D01*
X111422085Y-129593292D01*
X111416002Y-129592843D01*
X111402655Y-129591529D01*
X111396518Y-129590770D01*
X111395304Y-129590589D01*
X111389398Y-129589562D01*
X111231250Y-129558104D01*
X111225344Y-129556779D01*
X111224153Y-129556481D01*
X111218249Y-129554847D01*
X111205415Y-129550953D01*
X111199666Y-129549055D01*
X111199459Y-129548981D01*
X112235662Y-129548981D01*
X112453246Y-129766565D01*
X112642644Y-129577166D01*
X112630602Y-129579562D01*
X112624696Y-129580589D01*
X112623482Y-129580770D01*
X112617345Y-129581529D01*
X112603998Y-129582843D01*
X112597915Y-129583292D01*
X112596690Y-129583352D01*
X112590624Y-129583500D01*
X112429376Y-129583500D01*
X112423310Y-129583352D01*
X112422085Y-129583292D01*
X112416002Y-129582843D01*
X112402655Y-129581529D01*
X112396518Y-129580770D01*
X112395304Y-129580589D01*
X112389398Y-129579562D01*
X112235662Y-129548981D01*
X111199459Y-129548981D01*
X111198511Y-129548642D01*
X111192809Y-129546443D01*
X111155664Y-129531057D01*
X110564605Y-129531057D01*
X110684065Y-129411597D01*
X113160353Y-129411597D01*
X113515321Y-129766565D01*
X113870289Y-129411597D01*
X114222427Y-129411597D01*
X114577395Y-129766565D01*
X114932363Y-129411597D01*
X115284501Y-129411597D01*
X115639469Y-129766565D01*
X115854290Y-129551743D01*
X115798557Y-129417191D01*
X115796358Y-129411489D01*
X115795945Y-129410334D01*
X115794047Y-129404585D01*
X115790153Y-129391751D01*
X115788519Y-129385847D01*
X115788221Y-129384656D01*
X115786896Y-129378750D01*
X115755438Y-129220602D01*
X115754411Y-129214696D01*
X115754230Y-129213482D01*
X115753471Y-129207345D01*
X115752157Y-129193998D01*
X115751708Y-129187915D01*
X115751648Y-129186690D01*
X115751500Y-129180624D01*
X115751500Y-129168659D01*
X115639469Y-129056628D01*
X115284501Y-129411597D01*
X114932363Y-129411597D01*
X114577395Y-129056629D01*
X114222427Y-129411597D01*
X113870289Y-129411597D01*
X113515321Y-129056629D01*
X113160353Y-129411597D01*
X110684065Y-129411597D01*
X110329097Y-129056628D01*
X109974129Y-129411597D01*
X109621991Y-129411597D01*
X109267023Y-129056629D01*
X108912055Y-129411597D01*
X108349490Y-129411597D01*
X108354301Y-129218089D01*
X108753424Y-129218089D01*
X109090954Y-128880560D01*
X109443092Y-128880560D01*
X109798060Y-129235528D01*
X110131785Y-128901802D01*
X110121751Y-128904847D01*
X110115847Y-128906481D01*
X110114656Y-128906779D01*
X110108750Y-128908104D01*
X109950602Y-128939562D01*
X109944696Y-128940589D01*
X109943482Y-128940770D01*
X109937345Y-128941529D01*
X109923998Y-128942843D01*
X109917915Y-128943292D01*
X109916690Y-128943352D01*
X109910624Y-128943500D01*
X109749376Y-128943500D01*
X109743310Y-128943352D01*
X109742085Y-128943292D01*
X109736002Y-128942843D01*
X109722655Y-128941529D01*
X109716518Y-128940770D01*
X109715304Y-128940589D01*
X109709398Y-128939562D01*
X109551250Y-128908104D01*
X109545344Y-128906779D01*
X109544153Y-128906481D01*
X109538249Y-128904847D01*
X109525415Y-128900953D01*
X109519666Y-128899055D01*
X109518511Y-128898642D01*
X109512809Y-128896443D01*
X109452281Y-128871371D01*
X109443092Y-128880560D01*
X109090954Y-128880560D01*
X108769799Y-128559405D01*
X108753424Y-129218089D01*
X108354301Y-129218089D01*
X108397014Y-127500080D01*
X108418358Y-127433556D01*
X108472283Y-127389127D01*
X108520112Y-127379171D01*
X108579736Y-127378760D01*
X108646905Y-127397981D01*
X108668267Y-127415075D01*
X109017654Y-127764462D01*
X109051139Y-127825785D01*
X109052533Y-127833298D01*
X109062157Y-127895886D01*
X109083323Y-128033549D01*
X109083328Y-128033577D01*
X109084918Y-128043286D01*
X109085002Y-128043770D01*
X109085005Y-128043786D01*
X109100132Y-128106650D01*
X109101275Y-128109886D01*
X109105968Y-128126981D01*
X109108341Y-128138910D01*
X109108343Y-128138917D01*
X109164912Y-128275488D01*
X109164919Y-128275500D01*
X109247048Y-128398415D01*
X109247051Y-128398419D01*
X109351580Y-128502948D01*
X109351584Y-128502951D01*
X109474498Y-128585080D01*
X109474511Y-128585087D01*
X109610906Y-128641583D01*
X109611087Y-128641658D01*
X109611091Y-128641658D01*
X109611092Y-128641659D01*
X109756079Y-128670500D01*
X109756082Y-128670500D01*
X109903920Y-128670500D01*
X110044554Y-128642525D01*
X110048913Y-128641658D01*
X110185495Y-128585084D01*
X110308416Y-128502951D01*
X110412951Y-128398416D01*
X110484457Y-128291399D01*
X110538067Y-128246596D01*
X110563367Y-128238674D01*
X110578460Y-128235672D01*
X110638878Y-128223654D01*
X110708469Y-128229881D01*
X110763647Y-128272744D01*
X110786891Y-128338634D01*
X110784686Y-128369463D01*
X110759500Y-128496079D01*
X110759500Y-128496082D01*
X110759500Y-128643918D01*
X110759500Y-128643920D01*
X110759499Y-128643920D01*
X110788340Y-128788907D01*
X110788343Y-128788917D01*
X110844912Y-128925488D01*
X110844919Y-128925501D01*
X110927048Y-129048415D01*
X110927051Y-129048419D01*
X111031580Y-129152948D01*
X111031584Y-129152951D01*
X111154498Y-129235080D01*
X111154511Y-129235087D01*
X111266947Y-129281659D01*
X111291087Y-129291658D01*
X111291091Y-129291658D01*
X111291092Y-129291659D01*
X111436079Y-129320500D01*
X111436082Y-129320500D01*
X111583920Y-129320500D01*
X111681462Y-129301096D01*
X111728913Y-129291658D01*
X111865495Y-129235084D01*
X111948594Y-129179558D01*
X112015269Y-129158682D01*
X112082649Y-129177166D01*
X112086332Y-129179532D01*
X112154505Y-129225084D01*
X112154507Y-129225085D01*
X112154511Y-129225087D01*
X112291082Y-129281656D01*
X112291087Y-129281658D01*
X112291091Y-129281658D01*
X112291092Y-129281659D01*
X112436079Y-129310500D01*
X112436082Y-129310500D01*
X112583920Y-129310500D01*
X112681462Y-129291096D01*
X112728913Y-129281658D01*
X112841355Y-129235083D01*
X112865488Y-129225087D01*
X112865488Y-129225086D01*
X112865495Y-129225084D01*
X112988416Y-129142951D01*
X113092951Y-129038416D01*
X113175084Y-128915495D01*
X113182723Y-128897052D01*
X113185717Y-128890658D01*
X113186755Y-128888280D01*
X113190123Y-128880560D01*
X113691390Y-128880560D01*
X114046358Y-129235528D01*
X114401326Y-128880560D01*
X114753464Y-128880560D01*
X115108432Y-129235528D01*
X115463400Y-128880560D01*
X115115021Y-128532181D01*
X115467159Y-128532181D01*
X115639468Y-128704490D01*
X115778964Y-128564994D01*
X115770508Y-128544578D01*
X115764597Y-128545604D01*
X115763383Y-128545784D01*
X115757354Y-128546528D01*
X115744007Y-128547843D01*
X115737915Y-128548292D01*
X115736690Y-128548352D01*
X115730624Y-128548500D01*
X115569376Y-128548500D01*
X115563310Y-128548352D01*
X115562085Y-128548292D01*
X115556002Y-128547843D01*
X115542655Y-128546529D01*
X115536518Y-128545770D01*
X115535304Y-128545589D01*
X115529398Y-128544562D01*
X115467159Y-128532181D01*
X115115021Y-128532181D01*
X115108432Y-128525592D01*
X114753464Y-128880560D01*
X114401326Y-128880560D01*
X114046358Y-128525592D01*
X113691390Y-128880560D01*
X113190123Y-128880560D01*
X113330815Y-128558110D01*
X113356783Y-128520024D01*
X113527285Y-128349523D01*
X114222427Y-128349523D01*
X114577395Y-128704491D01*
X114932363Y-128349523D01*
X114577395Y-127994555D01*
X114222427Y-128349523D01*
X113527285Y-128349523D01*
X113714755Y-128162054D01*
X114034958Y-128162054D01*
X114046358Y-128173454D01*
X114401326Y-127818486D01*
X114321012Y-127738172D01*
X114113500Y-127739604D01*
X114113500Y-127884054D01*
X114113235Y-127892162D01*
X114113128Y-127893795D01*
X114112332Y-127901876D01*
X114109996Y-127919615D01*
X114108678Y-127927599D01*
X114108359Y-127929204D01*
X114106513Y-127937124D01*
X114063004Y-128099503D01*
X114060644Y-128107281D01*
X114060118Y-128108830D01*
X114057267Y-128116404D01*
X114050421Y-128132935D01*
X114047067Y-128140338D01*
X114046343Y-128141806D01*
X114042519Y-128148960D01*
X114034958Y-128162054D01*
X113714755Y-128162054D01*
X113726514Y-128150295D01*
X113801622Y-128020205D01*
X113840500Y-127875108D01*
X113840500Y-127724892D01*
X113840500Y-127465626D01*
X113860185Y-127398587D01*
X113912989Y-127352832D01*
X113963640Y-127341630D01*
X114774648Y-127336036D01*
X114841818Y-127355258D01*
X114887936Y-127407745D01*
X114899500Y-127460033D01*
X114899500Y-127598918D01*
X114899500Y-127598920D01*
X114899499Y-127598920D01*
X114928340Y-127743907D01*
X114928343Y-127743917D01*
X114984912Y-127880488D01*
X114984919Y-127880501D01*
X115067048Y-128003415D01*
X115067051Y-128003419D01*
X115171580Y-128107948D01*
X115171584Y-128107951D01*
X115294498Y-128190080D01*
X115294511Y-128190087D01*
X115404552Y-128235667D01*
X115431087Y-128246658D01*
X115431091Y-128246658D01*
X115431092Y-128246659D01*
X115576079Y-128275500D01*
X115576082Y-128275500D01*
X115723919Y-128275500D01*
X115786634Y-128263024D01*
X115852297Y-128249963D01*
X115921888Y-128256190D01*
X115977066Y-128299052D01*
X115998106Y-128347388D01*
X116010840Y-128411407D01*
X116010843Y-128411417D01*
X116067412Y-128547988D01*
X116067419Y-128548001D01*
X116108286Y-128609162D01*
X116129164Y-128675839D01*
X116111926Y-128738675D01*
X116112786Y-128739135D01*
X116110761Y-128742921D01*
X116110680Y-128743220D01*
X116110219Y-128743936D01*
X116109914Y-128744506D01*
X116053343Y-128881082D01*
X116053340Y-128881092D01*
X116024500Y-129026079D01*
X116024500Y-129026082D01*
X116024500Y-129173918D01*
X116024500Y-129173920D01*
X116024499Y-129173920D01*
X116053340Y-129318907D01*
X116053343Y-129318917D01*
X116109912Y-129455488D01*
X116109919Y-129455501D01*
X116192048Y-129578415D01*
X116192051Y-129578419D01*
X116296580Y-129682948D01*
X116296584Y-129682951D01*
X116419498Y-129765080D01*
X116419511Y-129765087D01*
X116556082Y-129821656D01*
X116556087Y-129821658D01*
X116556091Y-129821658D01*
X116556092Y-129821659D01*
X116701079Y-129850500D01*
X116701082Y-129850500D01*
X116848920Y-129850500D01*
X116948608Y-129830670D01*
X116993913Y-129821658D01*
X117111510Y-129772948D01*
X117130488Y-129765087D01*
X117130488Y-129765086D01*
X117130495Y-129765084D01*
X117253416Y-129682951D01*
X117291522Y-129644845D01*
X117641898Y-129644845D01*
X117763618Y-129766565D01*
X118118586Y-129411597D01*
X118470724Y-129411597D01*
X118825692Y-129766565D01*
X119180661Y-129411597D01*
X119532799Y-129411597D01*
X119887767Y-129766565D01*
X120242735Y-129411597D01*
X120594873Y-129411597D01*
X120949840Y-129766564D01*
X121301237Y-129415167D01*
X121299464Y-129406252D01*
X121016712Y-129123500D01*
X120882970Y-129123500D01*
X120594873Y-129411597D01*
X120242735Y-129411597D01*
X119954638Y-129123500D01*
X120306776Y-129123500D01*
X120418804Y-129235528D01*
X120530832Y-129123500D01*
X120306776Y-129123500D01*
X119954638Y-129123500D01*
X119820896Y-129123500D01*
X119532799Y-129411597D01*
X119180661Y-129411597D01*
X118892564Y-129123500D01*
X119244702Y-129123500D01*
X119356730Y-129235528D01*
X119468758Y-129123500D01*
X119244702Y-129123500D01*
X118892564Y-129123500D01*
X118758822Y-129123500D01*
X118470724Y-129411597D01*
X118118586Y-129411597D01*
X117889938Y-129182949D01*
X117835482Y-129237404D01*
X117697879Y-129546948D01*
X117696225Y-129550496D01*
X117689742Y-129566151D01*
X117687290Y-129571686D01*
X117686765Y-129572797D01*
X117684011Y-129578270D01*
X117677689Y-129590098D01*
X117674695Y-129595384D01*
X117674064Y-129596437D01*
X117670801Y-129601590D01*
X117641898Y-129644845D01*
X117291522Y-129644845D01*
X117357951Y-129578416D01*
X117440084Y-129455495D01*
X117446231Y-129440653D01*
X117448608Y-129435621D01*
X117450397Y-129431595D01*
X117450401Y-129431590D01*
X117587358Y-129123500D01*
X118182627Y-129123500D01*
X118294655Y-129235528D01*
X118406683Y-129123500D01*
X118182627Y-129123500D01*
X117587358Y-129123500D01*
X117597258Y-129101229D01*
X117622879Y-129063928D01*
X117799991Y-128886816D01*
X117861314Y-128853334D01*
X117887671Y-128850500D01*
X121451234Y-128850500D01*
X121518273Y-128870185D01*
X121564028Y-128922989D01*
X121573972Y-128992147D01*
X121572851Y-128998692D01*
X121549500Y-129116079D01*
X121549500Y-129116082D01*
X121549500Y-129263918D01*
X121549500Y-129263920D01*
X121549499Y-129263920D01*
X121578340Y-129408907D01*
X121578343Y-129408917D01*
X121634912Y-129545488D01*
X121634919Y-129545501D01*
X121717048Y-129668415D01*
X121717051Y-129668419D01*
X121821580Y-129772948D01*
X121821584Y-129772951D01*
X121944498Y-129855080D01*
X121944511Y-129855087D01*
X122057671Y-129901959D01*
X122081087Y-129911658D01*
X122081091Y-129911658D01*
X122081092Y-129911659D01*
X122226079Y-129940500D01*
X122226082Y-129940500D01*
X122373920Y-129940500D01*
X122471462Y-129921096D01*
X122518913Y-129911658D01*
X122624547Y-129867902D01*
X122655488Y-129855087D01*
X122655488Y-129855086D01*
X122655495Y-129855084D01*
X122778416Y-129772951D01*
X122882951Y-129668416D01*
X122965084Y-129545495D01*
X123020546Y-129411597D01*
X123781096Y-129411597D01*
X124136064Y-129766565D01*
X124491033Y-129411597D01*
X124843171Y-129411597D01*
X125198139Y-129766565D01*
X125553107Y-129411597D01*
X125905245Y-129411597D01*
X126260213Y-129766565D01*
X126615181Y-129411597D01*
X126260213Y-129056629D01*
X125905245Y-129411597D01*
X125553107Y-129411597D01*
X125198139Y-129056629D01*
X124843171Y-129411597D01*
X124491033Y-129411597D01*
X124136064Y-129056628D01*
X123781096Y-129411597D01*
X123020546Y-129411597D01*
X123021658Y-129408913D01*
X123022887Y-129402732D01*
X123055270Y-129340821D01*
X123115985Y-129306245D01*
X123120313Y-129305304D01*
X123160863Y-129297237D01*
X123188913Y-129291658D01*
X123325495Y-129235084D01*
X123448416Y-129152951D01*
X123552951Y-129048416D01*
X123635084Y-128925495D01*
X123653697Y-128880560D01*
X124312134Y-128880560D01*
X124667102Y-129235528D01*
X125022070Y-128880560D01*
X125374208Y-128880560D01*
X125729176Y-129235528D01*
X126084144Y-128880560D01*
X125729176Y-128525592D01*
X125374208Y-128880560D01*
X125022070Y-128880560D01*
X124667102Y-128525592D01*
X124312134Y-128880560D01*
X123653697Y-128880560D01*
X123691658Y-128788913D01*
X123701584Y-128739009D01*
X123733967Y-128677100D01*
X123794683Y-128642525D01*
X123798969Y-128641592D01*
X123848913Y-128631658D01*
X123961353Y-128585084D01*
X123985488Y-128575087D01*
X123985488Y-128575086D01*
X123985495Y-128575084D01*
X124108416Y-128492951D01*
X124212951Y-128388416D01*
X124238939Y-128349522D01*
X124843170Y-128349522D01*
X125198139Y-128704491D01*
X125553107Y-128349523D01*
X125905245Y-128349523D01*
X126260212Y-128704490D01*
X126301772Y-128662931D01*
X126280438Y-128555676D01*
X126279411Y-128549771D01*
X126279230Y-128548557D01*
X126278471Y-128542420D01*
X126277157Y-128529073D01*
X126276708Y-128522990D01*
X126276648Y-128521765D01*
X126276500Y-128515699D01*
X126276500Y-128364301D01*
X126276648Y-128358235D01*
X126276708Y-128357010D01*
X126277157Y-128350927D01*
X126278471Y-128337580D01*
X126279230Y-128331443D01*
X126279411Y-128330229D01*
X126280438Y-128324324D01*
X126309974Y-128175836D01*
X126311299Y-128169929D01*
X126311597Y-128168738D01*
X126313231Y-128162834D01*
X126317125Y-128150000D01*
X126319023Y-128144251D01*
X126319436Y-128143096D01*
X126321635Y-128137395D01*
X126345481Y-128079823D01*
X126260213Y-127994555D01*
X125905245Y-128349523D01*
X125553107Y-128349523D01*
X125451984Y-128248400D01*
X125345602Y-128269562D01*
X125339696Y-128270589D01*
X125338482Y-128270770D01*
X125332345Y-128271529D01*
X125318998Y-128272843D01*
X125312915Y-128273292D01*
X125311690Y-128273352D01*
X125305624Y-128273500D01*
X125144376Y-128273500D01*
X125138310Y-128273352D01*
X125137085Y-128273292D01*
X125130993Y-128272843D01*
X125117646Y-128271528D01*
X125111632Y-128270786D01*
X125110417Y-128270606D01*
X125104392Y-128269561D01*
X125086612Y-128266023D01*
X125085818Y-128265950D01*
X125084404Y-128265779D01*
X125077350Y-128264719D01*
X124982484Y-128247664D01*
X124977353Y-128246630D01*
X124971198Y-128245253D01*
X124966097Y-128243997D01*
X124959412Y-128242201D01*
X124955692Y-128241140D01*
X124952514Y-128240179D01*
X124843170Y-128349522D01*
X124238939Y-128349522D01*
X124295084Y-128265495D01*
X124295406Y-128264719D01*
X124332222Y-128175836D01*
X124340845Y-128155018D01*
X125710740Y-128155018D01*
X125729176Y-128173454D01*
X125817718Y-128084911D01*
X125726591Y-128145801D01*
X125721438Y-128149064D01*
X125720385Y-128149695D01*
X125715099Y-128152689D01*
X125710740Y-128155018D01*
X124340845Y-128155018D01*
X124351658Y-128128913D01*
X124368591Y-128043786D01*
X124380500Y-127983920D01*
X124380500Y-127969500D01*
X124400185Y-127902461D01*
X124452989Y-127856706D01*
X124504500Y-127845500D01*
X124611885Y-127845500D01*
X124651426Y-127851973D01*
X124665494Y-127856706D01*
X124997457Y-127968392D01*
X125005335Y-127971346D01*
X125006087Y-127971658D01*
X125006095Y-127971659D01*
X125006096Y-127971660D01*
X125007276Y-127972018D01*
X125016558Y-127974337D01*
X125032487Y-127979153D01*
X125033890Y-127979530D01*
X125118004Y-127994651D01*
X125118005Y-127994650D01*
X125121800Y-127995333D01*
X125131480Y-127996600D01*
X125146163Y-127999521D01*
X125151081Y-128000500D01*
X125151082Y-128000500D01*
X125298920Y-128000500D01*
X125409939Y-127978416D01*
X125443913Y-127971658D01*
X125580495Y-127915084D01*
X125688799Y-127842718D01*
X126059911Y-127842718D01*
X126084144Y-127818486D01*
X126084143Y-127818485D01*
X126436281Y-127818485D01*
X126471159Y-127853363D01*
X126482620Y-127836211D01*
X126486147Y-127831204D01*
X126486878Y-127830219D01*
X126490600Y-127825452D01*
X126499108Y-127815085D01*
X126503044Y-127810520D01*
X126503868Y-127809610D01*
X126508104Y-127805159D01*
X126615159Y-127698104D01*
X126619610Y-127693868D01*
X126620520Y-127693044D01*
X126625085Y-127689108D01*
X126635452Y-127680600D01*
X126640219Y-127676878D01*
X126641204Y-127676147D01*
X126646211Y-127672620D01*
X126675619Y-127652969D01*
X126601284Y-127653482D01*
X126436281Y-127818485D01*
X126084143Y-127818485D01*
X126079323Y-127813665D01*
X126059911Y-127842718D01*
X125688799Y-127842718D01*
X125703416Y-127832951D01*
X125807951Y-127728416D01*
X125890084Y-127605495D01*
X125892808Y-127598920D01*
X125946656Y-127468917D01*
X125946658Y-127468913D01*
X125968759Y-127357807D01*
X126001144Y-127295897D01*
X126061860Y-127261322D01*
X126089509Y-127258003D01*
X127125145Y-127250861D01*
X127192319Y-127270083D01*
G37*
%TD.AperFunction*%
%TA.AperFunction,Conductor*%
%TO.N,Net-(D1-A)*%
G36*
X110005319Y-127240366D02*
G01*
X110465013Y-127254384D01*
X110473177Y-127258062D01*
X110476351Y-127266436D01*
X110476140Y-127268317D01*
X110431934Y-127495201D01*
X110426988Y-127502666D01*
X110426929Y-127502706D01*
X110230623Y-127633246D01*
X110221836Y-127634973D01*
X110215378Y-127631251D01*
X109996237Y-127383319D01*
X109993303Y-127375571D01*
X109993303Y-127252062D01*
X109996730Y-127243789D01*
X110005003Y-127240362D01*
X110005319Y-127240366D01*
G37*
%TD.AperFunction*%
%TD*%
%TA.AperFunction,Conductor*%
%TO.N,Net-(D1-K)*%
G36*
X109629191Y-127467928D02*
G01*
X109959748Y-127705559D01*
X109964466Y-127713170D01*
X109962673Y-127721520D01*
X109833411Y-127916625D01*
X109825985Y-127921629D01*
X109825901Y-127921646D01*
X109596760Y-127966435D01*
X109587984Y-127964659D01*
X109583033Y-127957196D01*
X109582952Y-127956730D01*
X109577558Y-127921646D01*
X109523027Y-127566978D01*
X109525157Y-127558283D01*
X109526311Y-127556937D01*
X109614093Y-127469155D01*
X109622365Y-127465729D01*
X109629191Y-127467928D01*
G37*
%TD.AperFunction*%
%TD*%
%TA.AperFunction,Conductor*%
%TO.N,Net-(D2-K)*%
G36*
X111607522Y-126259719D02*
G01*
X111613475Y-126266408D01*
X111613890Y-126267923D01*
X111660025Y-126495202D01*
X111658313Y-126503991D01*
X111658266Y-126504061D01*
X111526584Y-126699727D01*
X111519121Y-126704678D01*
X111512137Y-126703892D01*
X111171764Y-126553083D01*
X111165589Y-126546599D01*
X111164804Y-126542386D01*
X111164804Y-126418319D01*
X111168231Y-126410046D01*
X111172661Y-126407268D01*
X111598584Y-126259199D01*
X111607522Y-126259719D01*
G37*
%TD.AperFunction*%
%TD*%
%TA.AperFunction,Conductor*%
%TO.N,Net-(D2-A)*%
G36*
X111159683Y-126878293D02*
G01*
X111163206Y-126884556D01*
X111210025Y-127115201D01*
X111208313Y-127123991D01*
X111208266Y-127124061D01*
X111079040Y-127316079D01*
X111071577Y-127321030D01*
X111062801Y-127319254D01*
X111061060Y-127317820D01*
X110776667Y-127033427D01*
X110773240Y-127025154D01*
X110773240Y-126901250D01*
X110776667Y-126892977D01*
X110784480Y-126889559D01*
X111151283Y-126875193D01*
X111159683Y-126878293D01*
G37*
%TD.AperFunction*%
%TD*%
%TA.AperFunction,Conductor*%
%TO.N,Net-(J1-Pin_25)*%
G36*
X117118198Y-127949644D02*
G01*
X117205687Y-128037133D01*
X117209114Y-128045406D01*
X117205874Y-128053488D01*
X116947129Y-128324314D01*
X116938936Y-128327929D01*
X116932207Y-128325986D01*
X116735874Y-128195911D01*
X116730870Y-128188485D01*
X116686445Y-127961210D01*
X116688221Y-127952436D01*
X116695684Y-127947485D01*
X116697893Y-127947268D01*
X117109917Y-127946238D01*
X117118198Y-127949644D01*
G37*
%TD.AperFunction*%
%TD*%
%TA.AperFunction,Conductor*%
%TO.N,Net-(J1-Pin_23)*%
G36*
X125422211Y-124710060D02*
G01*
X125428423Y-124716510D01*
X125428998Y-124718456D01*
X125475527Y-124947672D01*
X125475527Y-124952328D01*
X125428998Y-125181543D01*
X125423994Y-125188969D01*
X125415204Y-125190681D01*
X125413258Y-125190106D01*
X124987230Y-125022914D01*
X124980780Y-125016702D01*
X124979804Y-125012023D01*
X124979804Y-124887976D01*
X124983231Y-124879703D01*
X124987227Y-124877086D01*
X125413259Y-124709893D01*
X125422211Y-124710060D01*
G37*
%TD.AperFunction*%
%TD*%
%TA.AperFunction,Conductor*%
%TO.N,Net-(J1-Pin_23)*%
G36*
X119111738Y-124709892D02*
G01*
X119537771Y-124877086D01*
X119544220Y-124883297D01*
X119545196Y-124887976D01*
X119545196Y-125012023D01*
X119541769Y-125020296D01*
X119537770Y-125022914D01*
X119111741Y-125190106D01*
X119102788Y-125189939D01*
X119096576Y-125183489D01*
X119096002Y-125181548D01*
X119049472Y-124952325D01*
X119049472Y-124947674D01*
X119096002Y-124718454D01*
X119101005Y-124711030D01*
X119109795Y-124709318D01*
X119111738Y-124709892D01*
G37*
%TD.AperFunction*%
%TD*%
%TA.AperFunction,Conductor*%
%TO.N,Net-(J1-Pin_26)*%
G36*
X117083757Y-128708444D02*
G01*
X117171471Y-128796158D01*
X117174898Y-128804431D01*
X117173889Y-128809184D01*
X116988486Y-129226250D01*
X116981994Y-129232417D01*
X116973042Y-129232188D01*
X116971333Y-129231251D01*
X116776273Y-129102018D01*
X116772981Y-129098726D01*
X116716260Y-129013113D01*
X116643853Y-128903825D01*
X116642142Y-128895038D01*
X116647146Y-128887611D01*
X116648994Y-128886614D01*
X117070882Y-128705961D01*
X117079833Y-128705855D01*
X117083757Y-128708444D01*
G37*
%TD.AperFunction*%
%TD*%
%TA.AperFunction,Conductor*%
%TO.N,Net-(J1-Pin_26)*%
G36*
X122612627Y-128214029D02*
G01*
X123008290Y-128321944D01*
X123015369Y-128327427D01*
X123016694Y-128335470D01*
X122971934Y-128565201D01*
X122966988Y-128572666D01*
X122966929Y-128572706D01*
X122773545Y-128701303D01*
X122764758Y-128703030D01*
X122757323Y-128698039D01*
X122756428Y-128696430D01*
X122598917Y-128352320D01*
X122597855Y-128347450D01*
X122597855Y-128225318D01*
X122601282Y-128217045D01*
X122609555Y-128213618D01*
X122612627Y-128214029D01*
G37*
%TD.AperFunction*%
%TD*%
%TA.AperFunction,Conductor*%
%TO.N,Net-(J1-Pin_19)*%
G36*
X124567211Y-125585060D02*
G01*
X124573423Y-125591510D01*
X124573998Y-125593456D01*
X124620527Y-125822672D01*
X124620527Y-125827328D01*
X124573998Y-126056543D01*
X124568994Y-126063969D01*
X124560204Y-126065681D01*
X124558258Y-126065106D01*
X124132230Y-125897914D01*
X124125780Y-125891702D01*
X124124804Y-125887023D01*
X124124804Y-125762976D01*
X124128231Y-125754703D01*
X124132227Y-125752086D01*
X124558259Y-125584893D01*
X124567211Y-125585060D01*
G37*
%TD.AperFunction*%
%TD*%
%TA.AperFunction,Conductor*%
%TO.N,Net-(J1-Pin_19)*%
G36*
X114220061Y-125960792D02*
G01*
X114223476Y-125963163D01*
X114311211Y-126050898D01*
X114314638Y-126059171D01*
X114313420Y-126064369D01*
X114113757Y-126467013D01*
X114107011Y-126472902D01*
X114098077Y-126472297D01*
X114096813Y-126471569D01*
X113903374Y-126343411D01*
X113898370Y-126335985D01*
X113853129Y-126104537D01*
X113854905Y-126095763D01*
X113860518Y-126091335D01*
X114211115Y-125960475D01*
X114220061Y-125960792D01*
G37*
%TD.AperFunction*%
%TD*%
%TA.AperFunction,Conductor*%
%TO.N,Net-(J1-Pin_21)*%
G36*
X115976574Y-126194541D02*
G01*
X116402557Y-126352173D01*
X116409126Y-126358257D01*
X116410196Y-126363145D01*
X116410196Y-126487188D01*
X116406769Y-126495461D01*
X116402981Y-126497994D01*
X116062738Y-126639196D01*
X116053783Y-126639202D01*
X116048546Y-126634922D01*
X115956394Y-126497994D01*
X115916732Y-126439060D01*
X115914957Y-126430285D01*
X115914974Y-126430202D01*
X115930813Y-126352172D01*
X115961056Y-126203186D01*
X115966059Y-126195762D01*
X115974848Y-126194050D01*
X115976574Y-126194541D01*
G37*
%TD.AperFunction*%
%TD*%
%TA.AperFunction,Conductor*%
%TO.N,Net-(J1-Pin_21)*%
G36*
X125922211Y-126185060D02*
G01*
X125928423Y-126191510D01*
X125928998Y-126193456D01*
X125975527Y-126422672D01*
X125975527Y-126427328D01*
X125928998Y-126656543D01*
X125923994Y-126663969D01*
X125915204Y-126665681D01*
X125913258Y-126665106D01*
X125487230Y-126497914D01*
X125480780Y-126491702D01*
X125479804Y-126487023D01*
X125479804Y-126362976D01*
X125483231Y-126354703D01*
X125487227Y-126352086D01*
X125913259Y-126184893D01*
X125922211Y-126185060D01*
G37*
%TD.AperFunction*%
%TD*%
%TA.AperFunction,Conductor*%
%TO.N,Net-(J1-Pin_22)*%
G36*
X116036714Y-127209312D02*
G01*
X116041478Y-127216895D01*
X116041643Y-127218854D01*
X116041643Y-127341870D01*
X116040080Y-127347712D01*
X115864095Y-127653084D01*
X115856995Y-127658541D01*
X115848116Y-127657379D01*
X115847479Y-127656985D01*
X115653070Y-127527706D01*
X115648079Y-127520271D01*
X115648065Y-127520201D01*
X115614458Y-127347712D01*
X115603519Y-127291568D01*
X115605300Y-127282793D01*
X115612765Y-127277847D01*
X115612974Y-127277808D01*
X116027986Y-127207319D01*
X116036714Y-127209312D01*
G37*
%TD.AperFunction*%
%TD*%
%TA.AperFunction,Conductor*%
%TO.N,Net-(J1-Pin_22)*%
G36*
X125091649Y-127050368D02*
G01*
X125223266Y-127245938D01*
X125225042Y-127254714D01*
X125225025Y-127254798D01*
X125178863Y-127482209D01*
X125173859Y-127489635D01*
X125165069Y-127491347D01*
X125163666Y-127490970D01*
X124737773Y-127347681D01*
X124731025Y-127341795D01*
X124729804Y-127336592D01*
X124729804Y-127212516D01*
X124733231Y-127204243D01*
X124736638Y-127201875D01*
X125077080Y-127046258D01*
X125086027Y-127045936D01*
X125091649Y-127050368D01*
G37*
%TD.AperFunction*%
%TD*%
%TA.AperFunction,Conductor*%
%TO.N,Net-(J1-Pin_20)*%
G36*
X118146299Y-124515986D02*
G01*
X118234013Y-124603700D01*
X118237440Y-124611973D01*
X118236464Y-124616652D01*
X118053438Y-125036123D01*
X118046988Y-125042335D01*
X118038035Y-125042168D01*
X118036252Y-125041198D01*
X117841273Y-124912018D01*
X117837981Y-124908726D01*
X117781119Y-124822901D01*
X117708800Y-124713745D01*
X117707089Y-124704958D01*
X117712093Y-124697531D01*
X117713870Y-124696563D01*
X118133350Y-124513534D01*
X118142300Y-124513368D01*
X118146299Y-124515986D01*
G37*
%TD.AperFunction*%
%TD*%
%TA.AperFunction,Conductor*%
%TO.N,Net-(J1-Pin_20)*%
G36*
X126122211Y-124060060D02*
G01*
X126128423Y-124066510D01*
X126128998Y-124068456D01*
X126175527Y-124297672D01*
X126175527Y-124302328D01*
X126128998Y-124531543D01*
X126123994Y-124538969D01*
X126115204Y-124540681D01*
X126113258Y-124540106D01*
X125687230Y-124372914D01*
X125680780Y-124366702D01*
X125679804Y-124362023D01*
X125679804Y-124237976D01*
X125683231Y-124229703D01*
X125687227Y-124227086D01*
X126113259Y-124059893D01*
X126122211Y-124060060D01*
G37*
%TD.AperFunction*%
%TD*%
%TA.AperFunction,Conductor*%
%TO.N,Net-(J1-Pin_5)*%
G36*
X111811383Y-128171070D02*
G01*
X111899095Y-128258782D01*
X111902522Y-128267055D01*
X111901609Y-128271587D01*
X111723339Y-128695868D01*
X111716975Y-128702168D01*
X111708020Y-128702123D01*
X111706090Y-128701090D01*
X111511273Y-128572018D01*
X111507981Y-128568726D01*
X111378694Y-128373585D01*
X111376982Y-128364796D01*
X111381986Y-128357369D01*
X111383610Y-128356470D01*
X111798285Y-128168684D01*
X111807234Y-128168394D01*
X111811383Y-128171070D01*
G37*
%TD.AperFunction*%
%TD*%
%TA.AperFunction,Conductor*%
%TO.N,Net-(J1-Pin_7)*%
G36*
X112816299Y-128165986D02*
G01*
X112904013Y-128253700D01*
X112907440Y-128261973D01*
X112906464Y-128266652D01*
X112723438Y-128686123D01*
X112716988Y-128692335D01*
X112708035Y-128692168D01*
X112706252Y-128691198D01*
X112511273Y-128562018D01*
X112507981Y-128558726D01*
X112451119Y-128472901D01*
X112378800Y-128363745D01*
X112377089Y-128354958D01*
X112382093Y-128347531D01*
X112383870Y-128346563D01*
X112803350Y-128163534D01*
X112812300Y-128163368D01*
X112816299Y-128165986D01*
G37*
%TD.AperFunction*%
%TD*%
%TA.AperFunction,Conductor*%
%TO.N,Net-(J1-Pin_25)*%
G36*
X123577211Y-127670060D02*
G01*
X123583423Y-127676510D01*
X123583998Y-127678456D01*
X123630527Y-127907672D01*
X123630527Y-127912328D01*
X123583998Y-128141543D01*
X123578994Y-128148969D01*
X123570204Y-128150681D01*
X123568258Y-128150106D01*
X123142230Y-127982914D01*
X123135780Y-127976702D01*
X123134804Y-127972023D01*
X123134804Y-127847976D01*
X123138231Y-127839703D01*
X123142227Y-127837086D01*
X123568259Y-127669893D01*
X123577211Y-127670060D01*
G37*
%TD.AperFunction*%
%TD*%
M02*
