%TF.GenerationSoftware,KiCad,Pcbnew,9.0.3*%
%TF.CreationDate,2025-09-15T23:10:18+03:00*%
%TF.ProjectId,Right,52696768-742e-46b6-9963-61645f706362,rev?*%
%TF.SameCoordinates,Original*%
%TF.FileFunction,Legend,Top*%
%TF.FilePolarity,Positive*%
%FSLAX46Y46*%
G04 Gerber Fmt 4.6, Leading zero omitted, Abs format (unit mm)*
G04 Created by KiCad (PCBNEW 9.0.3) date 2025-09-15 23:10:18*
%MOMM*%
%LPD*%
G01*
G04 APERTURE LIST*
G04 Aperture macros list*
%AMRoundRect*
0 Rectangle with rounded corners*
0 $1 Rounding radius*
0 $2 $3 $4 $5 $6 $7 $8 $9 X,Y pos of 4 corners*
0 Add a 4 corners polygon primitive as box body*
4,1,4,$2,$3,$4,$5,$6,$7,$8,$9,$2,$3,0*
0 Add four circle primitives for the rounded corners*
1,1,$1+$1,$2,$3*
1,1,$1+$1,$4,$5*
1,1,$1+$1,$6,$7*
1,1,$1+$1,$8,$9*
0 Add four rect primitives between the rounded corners*
20,1,$1+$1,$2,$3,$4,$5,0*
20,1,$1+$1,$4,$5,$6,$7,0*
20,1,$1+$1,$6,$7,$8,$9,0*
20,1,$1+$1,$8,$9,$2,$3,0*%
%AMRotRect*
0 Rectangle, with rotation*
0 The origin of the aperture is its center*
0 $1 length*
0 $2 width*
0 $3 Rotation angle, in degrees counterclockwise*
0 Add horizontal line*
21,1,$1,$2,0,0,$3*%
%AMFreePoly0*
4,1,72,0.663536,1.453536,0.664990,1.450312,0.674986,1.290376,0.684974,1.180502,0.694961,1.090620,0.704950,1.010707,0.714943,0.940757,0.734918,0.820906,0.764878,0.671101,0.824807,0.431389,0.834743,0.401581,0.834851,0.401213,0.844807,0.361389,0.934706,0.091692,0.964677,0.011772,1.004608,-0.088058,1.034593,-0.158023,1.074525,-0.247870,1.184421,-0.467662,1.234361,-0.557554,
1.274329,-0.627498,1.334250,-0.727365,1.404218,-0.837317,1.405000,-0.840001,1.405000,-0.860000,1.403536,-0.863536,1.402936,-0.864047,-0.017064,-1.894047,-0.020786,-1.894938,-0.024047,-1.892936,-0.094096,-1.792867,-0.094218,-1.792684,-0.164258,-1.682620,-0.244258,-1.552620,-0.244341,-1.552480,-0.324341,-1.412481,-0.384389,-1.302394,-0.384472,-1.302236,-0.524472,-1.022236,-0.524569,-1.022031,
-0.564525,-0.932131,-0.574472,-0.912236,-0.574596,-0.911970,-0.634596,-0.771971,-0.634642,-0.771857,-0.694683,-0.621756,-0.724682,-0.541756,-0.784714,-0.371664,-0.824743,-0.251582,-0.824789,-0.251437,-0.854808,-0.151375,-0.894808,-0.011374,-0.894852,-0.011213,-0.954851,0.228787,-0.954893,0.228971,-0.994893,0.418970,-1.024932,0.579178,-1.044932,0.699179,-1.044950,0.699293,-1.054950,0.769293,
-1.074969,0.929448,-1.084969,1.019448,-1.084984,1.019585,-1.094983,1.139584,-1.104990,1.279688,-1.114990,1.439688,-1.115000,1.440000,-1.115000,1.450000,-1.113536,1.453535,-1.110000,1.455000,0.660000,1.455000,0.663536,1.453536,0.663536,1.453536,$1*%
%AMFreePoly1*
4,1,7,0.150000,0.330000,0.150000,-0.365000,-0.150000,-0.365000,-0.150000,0.330000,-0.050000,0.370000,0.050000,0.370000,0.150000,0.330000,0.150000,0.330000,$1*%
%AMFreePoly2*
4,1,7,0.120000,-0.275000,0.050000,-0.315000,-0.050000,-0.315000,-0.120000,-0.275000,-0.120000,0.300000,0.120000,0.300000,0.120000,-0.275000,0.120000,-0.275000,$1*%
G04 Aperture macros list end*
%ADD10C,0.100000*%
%ADD11C,0.250000*%
%ADD12C,0.150000*%
%ADD13RoundRect,0.200000X0.275000X-0.200000X0.275000X0.200000X-0.275000X0.200000X-0.275000X-0.200000X0*%
%ADD14RoundRect,0.200000X0.282843X0.000000X0.000000X0.282843X-0.282843X0.000000X0.000000X-0.282843X0*%
%ADD15RotRect,0.400000X0.800000X135.000000*%
%ADD16RotRect,0.400000X0.800000X315.000000*%
%ADD17RoundRect,0.150000X-0.150000X-0.150000X0.150000X-0.150000X0.150000X0.150000X-0.150000X0.150000X0*%
%ADD18RoundRect,0.111111X-0.388889X-0.288889X0.388889X-0.288889X0.388889X0.288889X-0.388889X0.288889X0*%
%ADD19RoundRect,0.200000X0.105232X0.323344X-0.275191X0.199737X-0.105232X-0.323344X0.275191X-0.199737X0*%
%ADD20RoundRect,0.200000X-0.278635X-0.194904X0.099572X-0.325131X0.278635X0.194904X-0.099572X0.325131X0*%
%ADD21RoundRect,0.200000X-0.339982X0.006097X-0.110552X-0.321564X0.339982X-0.006097X0.110552X0.321564X0*%
%ADD22RoundRect,0.200000X-0.099572X-0.325131X0.278635X-0.194904X0.099572X0.325131X-0.278635X0.194904X0*%
%ADD23FreePoly0,324.000000*%
%ADD24FreePoly0,288.000000*%
%ADD25FreePoly0,252.000000*%
%ADD26FreePoly0,216.000000*%
%ADD27FreePoly0,180.000000*%
%ADD28FreePoly0,144.000000*%
%ADD29FreePoly0,108.000000*%
%ADD30FreePoly0,72.000000*%
%ADD31FreePoly0,36.000000*%
%ADD32FreePoly0,0.000000*%
%ADD33C,0.858836*%
%ADD34C,8.420022*%
%ADD35RoundRect,0.200000X0.275191X0.199737X-0.105232X0.323344X-0.275191X-0.199737X0.105232X-0.323344X0*%
%ADD36RoundRect,0.138889X-0.361111X-0.361111X0.361111X-0.361111X0.361111X0.361111X-0.361111X0.361111X0*%
%ADD37RoundRect,0.080000X-0.620000X0.320000X-0.620000X-0.320000X0.620000X-0.320000X0.620000X0.320000X0*%
%ADD38RoundRect,0.150000X0.150000X-0.150000X0.150000X0.150000X-0.150000X0.150000X-0.150000X-0.150000X0*%
%ADD39RoundRect,0.200000X0.340037X-0.000162X0.104923X0.323444X-0.340037X0.000162X-0.104923X-0.323444X0*%
%ADD40FreePoly1,0.000000*%
%ADD41FreePoly2,0.000000*%
%ADD42RoundRect,0.178571X-0.321429X-0.321429X0.321429X-0.321429X0.321429X0.321429X-0.321429X0.321429X0*%
%ADD43RoundRect,0.140000X0.560000X0.860000X-0.560000X0.860000X-0.560000X-0.860000X0.560000X-0.860000X0*%
%ADD44RoundRect,0.178571X0.321429X0.321429X-0.321429X0.321429X-0.321429X-0.321429X0.321429X-0.321429X0*%
%ADD45RoundRect,0.200000X-0.104923X0.323444X-0.340037X-0.000162X0.104923X-0.323444X0.340037X0.000162X0*%
%ADD46R,2.000000X1.400000*%
%ADD47RoundRect,0.200000X0.110552X-0.321564X0.339982X0.006097X-0.110552X0.321564X-0.339982X-0.006097X0*%
%ADD48RoundRect,0.120000X0.480000X0.580000X-0.480000X0.580000X-0.480000X-0.580000X0.480000X-0.580000X0*%
%ADD49RoundRect,0.140000X1.460000X0.560000X-1.460000X0.560000X-1.460000X-0.560000X1.460000X-0.560000X0*%
G04 APERTURE END LIST*
D10*
X115223884Y-100641466D02*
X115985789Y-100641466D01*
X115253884Y-106701466D02*
X116015789Y-106701466D01*
X115634836Y-107082419D02*
X115634836Y-106320514D01*
D11*
X96950142Y-122032858D02*
X97807285Y-122032858D01*
X97807285Y-122032858D02*
X97978714Y-122090001D01*
X97978714Y-122090001D02*
X98093000Y-122204287D01*
X98093000Y-122204287D02*
X98150142Y-122375715D01*
X98150142Y-122375715D02*
X98150142Y-122490001D01*
X98150142Y-120890001D02*
X98150142Y-121461429D01*
X98150142Y-121461429D02*
X96950142Y-121461429D01*
X98035857Y-119804286D02*
X98093000Y-119861429D01*
X98093000Y-119861429D02*
X98150142Y-120032857D01*
X98150142Y-120032857D02*
X98150142Y-120147143D01*
X98150142Y-120147143D02*
X98093000Y-120318572D01*
X98093000Y-120318572D02*
X97978714Y-120432857D01*
X97978714Y-120432857D02*
X97864428Y-120490000D01*
X97864428Y-120490000D02*
X97635857Y-120547143D01*
X97635857Y-120547143D02*
X97464428Y-120547143D01*
X97464428Y-120547143D02*
X97235857Y-120490000D01*
X97235857Y-120490000D02*
X97121571Y-120432857D01*
X97121571Y-120432857D02*
X97007285Y-120318572D01*
X97007285Y-120318572D02*
X96950142Y-120147143D01*
X96950142Y-120147143D02*
X96950142Y-120032857D01*
X96950142Y-120032857D02*
X97007285Y-119861429D01*
X97007285Y-119861429D02*
X97064428Y-119804286D01*
X96950142Y-118947143D02*
X97807285Y-118947143D01*
X97807285Y-118947143D02*
X97978714Y-119004286D01*
X97978714Y-119004286D02*
X98093000Y-119118572D01*
X98093000Y-119118572D02*
X98150142Y-119290000D01*
X98150142Y-119290000D02*
X98150142Y-119404286D01*
X98150142Y-117804286D02*
X98150142Y-118375714D01*
X98150142Y-118375714D02*
X96950142Y-118375714D01*
X98035857Y-116718571D02*
X98093000Y-116775714D01*
X98093000Y-116775714D02*
X98150142Y-116947142D01*
X98150142Y-116947142D02*
X98150142Y-117061428D01*
X98150142Y-117061428D02*
X98093000Y-117232857D01*
X98093000Y-117232857D02*
X97978714Y-117347142D01*
X97978714Y-117347142D02*
X97864428Y-117404285D01*
X97864428Y-117404285D02*
X97635857Y-117461428D01*
X97635857Y-117461428D02*
X97464428Y-117461428D01*
X97464428Y-117461428D02*
X97235857Y-117404285D01*
X97235857Y-117404285D02*
X97121571Y-117347142D01*
X97121571Y-117347142D02*
X97007285Y-117232857D01*
X97007285Y-117232857D02*
X96950142Y-117061428D01*
X96950142Y-117061428D02*
X96950142Y-116947142D01*
X96950142Y-116947142D02*
X97007285Y-116775714D01*
X97007285Y-116775714D02*
X97064428Y-116718571D01*
X96950142Y-115861428D02*
X97807285Y-115861428D01*
X97807285Y-115861428D02*
X97978714Y-115918571D01*
X97978714Y-115918571D02*
X98093000Y-116032857D01*
X98093000Y-116032857D02*
X98150142Y-116204285D01*
X98150142Y-116204285D02*
X98150142Y-116318571D01*
X98150142Y-114718571D02*
X98150142Y-115289999D01*
X98150142Y-115289999D02*
X96950142Y-115289999D01*
X98035857Y-113632856D02*
X98093000Y-113689999D01*
X98093000Y-113689999D02*
X98150142Y-113861427D01*
X98150142Y-113861427D02*
X98150142Y-113975713D01*
X98150142Y-113975713D02*
X98093000Y-114147142D01*
X98093000Y-114147142D02*
X97978714Y-114261427D01*
X97978714Y-114261427D02*
X97864428Y-114318570D01*
X97864428Y-114318570D02*
X97635857Y-114375713D01*
X97635857Y-114375713D02*
X97464428Y-114375713D01*
X97464428Y-114375713D02*
X97235857Y-114318570D01*
X97235857Y-114318570D02*
X97121571Y-114261427D01*
X97121571Y-114261427D02*
X97007285Y-114147142D01*
X97007285Y-114147142D02*
X96950142Y-113975713D01*
X96950142Y-113975713D02*
X96950142Y-113861427D01*
X96950142Y-113861427D02*
X97007285Y-113689999D01*
X97007285Y-113689999D02*
X97064428Y-113632856D01*
X96950142Y-112775713D02*
X97807285Y-112775713D01*
X97807285Y-112775713D02*
X97978714Y-112832856D01*
X97978714Y-112832856D02*
X98093000Y-112947142D01*
X98093000Y-112947142D02*
X98150142Y-113118570D01*
X98150142Y-113118570D02*
X98150142Y-113232856D01*
X98150142Y-111632856D02*
X98150142Y-112204284D01*
X98150142Y-112204284D02*
X96950142Y-112204284D01*
X98035857Y-110547141D02*
X98093000Y-110604284D01*
X98093000Y-110604284D02*
X98150142Y-110775712D01*
X98150142Y-110775712D02*
X98150142Y-110889998D01*
X98150142Y-110889998D02*
X98093000Y-111061427D01*
X98093000Y-111061427D02*
X97978714Y-111175712D01*
X97978714Y-111175712D02*
X97864428Y-111232855D01*
X97864428Y-111232855D02*
X97635857Y-111289998D01*
X97635857Y-111289998D02*
X97464428Y-111289998D01*
X97464428Y-111289998D02*
X97235857Y-111232855D01*
X97235857Y-111232855D02*
X97121571Y-111175712D01*
X97121571Y-111175712D02*
X97007285Y-111061427D01*
X97007285Y-111061427D02*
X96950142Y-110889998D01*
X96950142Y-110889998D02*
X96950142Y-110775712D01*
X96950142Y-110775712D02*
X97007285Y-110604284D01*
X97007285Y-110604284D02*
X97064428Y-110547141D01*
D12*
X120654819Y-107266666D02*
X120178628Y-107599999D01*
X120654819Y-107838094D02*
X119654819Y-107838094D01*
X119654819Y-107838094D02*
X119654819Y-107457142D01*
X119654819Y-107457142D02*
X119702438Y-107361904D01*
X119702438Y-107361904D02*
X119750057Y-107314285D01*
X119750057Y-107314285D02*
X119845295Y-107266666D01*
X119845295Y-107266666D02*
X119988152Y-107266666D01*
X119988152Y-107266666D02*
X120083390Y-107314285D01*
X120083390Y-107314285D02*
X120131009Y-107361904D01*
X120131009Y-107361904D02*
X120178628Y-107457142D01*
X120178628Y-107457142D02*
X120178628Y-107838094D01*
X120654819Y-106790475D02*
X120654819Y-106599999D01*
X120654819Y-106599999D02*
X120607200Y-106504761D01*
X120607200Y-106504761D02*
X120559580Y-106457142D01*
X120559580Y-106457142D02*
X120416723Y-106361904D01*
X120416723Y-106361904D02*
X120226247Y-106314285D01*
X120226247Y-106314285D02*
X119845295Y-106314285D01*
X119845295Y-106314285D02*
X119750057Y-106361904D01*
X119750057Y-106361904D02*
X119702438Y-106409523D01*
X119702438Y-106409523D02*
X119654819Y-106504761D01*
X119654819Y-106504761D02*
X119654819Y-106695237D01*
X119654819Y-106695237D02*
X119702438Y-106790475D01*
X119702438Y-106790475D02*
X119750057Y-106838094D01*
X119750057Y-106838094D02*
X119845295Y-106885713D01*
X119845295Y-106885713D02*
X120083390Y-106885713D01*
X120083390Y-106885713D02*
X120178628Y-106838094D01*
X120178628Y-106838094D02*
X120226247Y-106790475D01*
X120226247Y-106790475D02*
X120273866Y-106695237D01*
X120273866Y-106695237D02*
X120273866Y-106504761D01*
X120273866Y-106504761D02*
X120226247Y-106409523D01*
X120226247Y-106409523D02*
X120178628Y-106361904D01*
X120178628Y-106361904D02*
X120083390Y-106314285D01*
X115683931Y-126684072D02*
X115219762Y-126334193D01*
X115140470Y-126860653D02*
X114831453Y-125909596D01*
X114831453Y-125909596D02*
X115193761Y-125791876D01*
X115193761Y-125791876D02*
X115299053Y-125807734D01*
X115299053Y-125807734D02*
X115359056Y-125838307D01*
X115359056Y-125838307D02*
X115433775Y-125914169D01*
X115433775Y-125914169D02*
X115477920Y-126050034D01*
X115477920Y-126050034D02*
X115462062Y-126155326D01*
X115462062Y-126155326D02*
X115431488Y-126215330D01*
X115431488Y-126215330D02*
X115355627Y-126290048D01*
X115355627Y-126290048D02*
X114993320Y-126407769D01*
X116190106Y-125468144D02*
X116008952Y-125527004D01*
X116008952Y-125527004D02*
X115933090Y-125601723D01*
X115933090Y-125601723D02*
X115902517Y-125661726D01*
X115902517Y-125661726D02*
X115856085Y-125827021D01*
X115856085Y-125827021D02*
X115869657Y-126022890D01*
X115869657Y-126022890D02*
X115987378Y-126385197D01*
X115987378Y-126385197D02*
X116062097Y-126461059D01*
X116062097Y-126461059D02*
X116122100Y-126491632D01*
X116122100Y-126491632D02*
X116227392Y-126507491D01*
X116227392Y-126507491D02*
X116408546Y-126448630D01*
X116408546Y-126448630D02*
X116484408Y-126373912D01*
X116484408Y-126373912D02*
X116514981Y-126313908D01*
X116514981Y-126313908D02*
X116530839Y-126208616D01*
X116530839Y-126208616D02*
X116457264Y-125982174D01*
X116457264Y-125982174D02*
X116382545Y-125906313D01*
X116382545Y-125906313D02*
X116322542Y-125875739D01*
X116322542Y-125875739D02*
X116217250Y-125859881D01*
X116217250Y-125859881D02*
X116036096Y-125918741D01*
X116036096Y-125918741D02*
X115960234Y-125993460D01*
X115960234Y-125993460D02*
X115929661Y-126053463D01*
X115929661Y-126053463D02*
X115913803Y-126158755D01*
X115549901Y-109483686D02*
X115389761Y-108924916D01*
X115009605Y-109297647D02*
X115335173Y-108352129D01*
X115335173Y-108352129D02*
X115695370Y-108476155D01*
X115695370Y-108476155D02*
X115769916Y-108552186D01*
X115769916Y-108552186D02*
X115799438Y-108612714D01*
X115799438Y-108612714D02*
X115813456Y-108718266D01*
X115813456Y-108718266D02*
X115766946Y-108853340D01*
X115766946Y-108853340D02*
X115690915Y-108927887D01*
X115690915Y-108927887D02*
X115630387Y-108957408D01*
X115630387Y-108957408D02*
X115524835Y-108971426D01*
X115524835Y-108971426D02*
X115164637Y-108847400D01*
X116190642Y-108646690D02*
X116775963Y-108848232D01*
X116775963Y-108848232D02*
X116336764Y-109099907D01*
X116336764Y-109099907D02*
X116471838Y-109146417D01*
X116471838Y-109146417D02*
X116546384Y-109222448D01*
X116546384Y-109222448D02*
X116575906Y-109282976D01*
X116575906Y-109282976D02*
X116589924Y-109388529D01*
X116589924Y-109388529D02*
X116512408Y-109613652D01*
X116512408Y-109613652D02*
X116436377Y-109688198D01*
X116436377Y-109688198D02*
X116375849Y-109717720D01*
X116375849Y-109717720D02*
X116270296Y-109731738D01*
X116270296Y-109731738D02*
X116000148Y-109638719D01*
X116000148Y-109638719D02*
X115925602Y-109562687D01*
X115925602Y-109562687D02*
X115896080Y-109502159D01*
X120053225Y-112474134D02*
X120252105Y-111927952D01*
X119725467Y-112006047D02*
X120544619Y-111432471D01*
X120544619Y-111432471D02*
X120763124Y-111744529D01*
X120763124Y-111744529D02*
X120778743Y-111849856D01*
X120778743Y-111849856D02*
X120767049Y-111916177D01*
X120767049Y-111916177D02*
X120716348Y-112009810D01*
X120716348Y-112009810D02*
X120599326Y-112091750D01*
X120599326Y-112091750D02*
X120493998Y-112107369D01*
X120493998Y-112107369D02*
X120427678Y-112095675D01*
X120427678Y-112095675D02*
X120334044Y-112044973D01*
X120334044Y-112044973D02*
X120115539Y-111732916D01*
X121090963Y-112793880D02*
X120544862Y-113176264D01*
X121266455Y-112380339D02*
X120544781Y-112595000D01*
X120544781Y-112595000D02*
X120899852Y-113102094D01*
X110034926Y-109622209D02*
X109564721Y-109280484D01*
X109494630Y-109808248D02*
X109169062Y-108862729D01*
X109169062Y-108862729D02*
X109529259Y-108738703D01*
X109529259Y-108738703D02*
X109634812Y-108752721D01*
X109634812Y-108752721D02*
X109695340Y-108782243D01*
X109695340Y-108782243D02*
X109771371Y-108856789D01*
X109771371Y-108856789D02*
X109817881Y-108991863D01*
X109817881Y-108991863D02*
X109803862Y-109097415D01*
X109803862Y-109097415D02*
X109774341Y-109157943D01*
X109774341Y-109157943D02*
X109699795Y-109233975D01*
X109699795Y-109233975D02*
X109339597Y-109358001D01*
X110100562Y-108642713D02*
X110130083Y-108582185D01*
X110130083Y-108582185D02*
X110204630Y-108506154D01*
X110204630Y-108506154D02*
X110429753Y-108428638D01*
X110429753Y-108428638D02*
X110535306Y-108442656D01*
X110535306Y-108442656D02*
X110595834Y-108472178D01*
X110595834Y-108472178D02*
X110671865Y-108546724D01*
X110671865Y-108546724D02*
X110702871Y-108636773D01*
X110702871Y-108636773D02*
X110704356Y-108787351D01*
X110704356Y-108787351D02*
X110350099Y-109513686D01*
X110350099Y-109513686D02*
X110935420Y-109312144D01*
X101090000Y-110324819D02*
X101090000Y-109324819D01*
X101090000Y-109324819D02*
X101423333Y-110039104D01*
X101423333Y-110039104D02*
X101756666Y-109324819D01*
X101756666Y-109324819D02*
X101756666Y-110324819D01*
X102375714Y-110324819D02*
X102280476Y-110277200D01*
X102280476Y-110277200D02*
X102232857Y-110229580D01*
X102232857Y-110229580D02*
X102185238Y-110134342D01*
X102185238Y-110134342D02*
X102185238Y-109848628D01*
X102185238Y-109848628D02*
X102232857Y-109753390D01*
X102232857Y-109753390D02*
X102280476Y-109705771D01*
X102280476Y-109705771D02*
X102375714Y-109658152D01*
X102375714Y-109658152D02*
X102518571Y-109658152D01*
X102518571Y-109658152D02*
X102613809Y-109705771D01*
X102613809Y-109705771D02*
X102661428Y-109753390D01*
X102661428Y-109753390D02*
X102709047Y-109848628D01*
X102709047Y-109848628D02*
X102709047Y-110134342D01*
X102709047Y-110134342D02*
X102661428Y-110229580D01*
X102661428Y-110229580D02*
X102613809Y-110277200D01*
X102613809Y-110277200D02*
X102518571Y-110324819D01*
X102518571Y-110324819D02*
X102375714Y-110324819D01*
X103566190Y-110324819D02*
X103566190Y-109324819D01*
X103566190Y-110277200D02*
X103470952Y-110324819D01*
X103470952Y-110324819D02*
X103280476Y-110324819D01*
X103280476Y-110324819D02*
X103185238Y-110277200D01*
X103185238Y-110277200D02*
X103137619Y-110229580D01*
X103137619Y-110229580D02*
X103090000Y-110134342D01*
X103090000Y-110134342D02*
X103090000Y-109848628D01*
X103090000Y-109848628D02*
X103137619Y-109753390D01*
X103137619Y-109753390D02*
X103185238Y-109705771D01*
X103185238Y-109705771D02*
X103280476Y-109658152D01*
X103280476Y-109658152D02*
X103470952Y-109658152D01*
X103470952Y-109658152D02*
X103566190Y-109705771D01*
X104423333Y-110277200D02*
X104328095Y-110324819D01*
X104328095Y-110324819D02*
X104137619Y-110324819D01*
X104137619Y-110324819D02*
X104042381Y-110277200D01*
X104042381Y-110277200D02*
X103994762Y-110181961D01*
X103994762Y-110181961D02*
X103994762Y-109801009D01*
X103994762Y-109801009D02*
X104042381Y-109705771D01*
X104042381Y-109705771D02*
X104137619Y-109658152D01*
X104137619Y-109658152D02*
X104328095Y-109658152D01*
X104328095Y-109658152D02*
X104423333Y-109705771D01*
X104423333Y-109705771D02*
X104470952Y-109801009D01*
X104470952Y-109801009D02*
X104470952Y-109896247D01*
X104470952Y-109896247D02*
X103994762Y-109991485D01*
X105661429Y-110324819D02*
X105661429Y-109324819D01*
X105661429Y-109324819D02*
X105899524Y-109324819D01*
X105899524Y-109324819D02*
X106042381Y-109372438D01*
X106042381Y-109372438D02*
X106137619Y-109467676D01*
X106137619Y-109467676D02*
X106185238Y-109562914D01*
X106185238Y-109562914D02*
X106232857Y-109753390D01*
X106232857Y-109753390D02*
X106232857Y-109896247D01*
X106232857Y-109896247D02*
X106185238Y-110086723D01*
X106185238Y-110086723D02*
X106137619Y-110181961D01*
X106137619Y-110181961D02*
X106042381Y-110277200D01*
X106042381Y-110277200D02*
X105899524Y-110324819D01*
X105899524Y-110324819D02*
X105661429Y-110324819D01*
X106661429Y-110324819D02*
X106661429Y-109658152D01*
X106661429Y-109324819D02*
X106613810Y-109372438D01*
X106613810Y-109372438D02*
X106661429Y-109420057D01*
X106661429Y-109420057D02*
X106709048Y-109372438D01*
X106709048Y-109372438D02*
X106661429Y-109324819D01*
X106661429Y-109324819D02*
X106661429Y-109420057D01*
X107566190Y-110324819D02*
X107566190Y-109801009D01*
X107566190Y-109801009D02*
X107518571Y-109705771D01*
X107518571Y-109705771D02*
X107423333Y-109658152D01*
X107423333Y-109658152D02*
X107232857Y-109658152D01*
X107232857Y-109658152D02*
X107137619Y-109705771D01*
X107566190Y-110277200D02*
X107470952Y-110324819D01*
X107470952Y-110324819D02*
X107232857Y-110324819D01*
X107232857Y-110324819D02*
X107137619Y-110277200D01*
X107137619Y-110277200D02*
X107090000Y-110181961D01*
X107090000Y-110181961D02*
X107090000Y-110086723D01*
X107090000Y-110086723D02*
X107137619Y-109991485D01*
X107137619Y-109991485D02*
X107232857Y-109943866D01*
X107232857Y-109943866D02*
X107470952Y-109943866D01*
X107470952Y-109943866D02*
X107566190Y-109896247D01*
X108185238Y-110324819D02*
X108090000Y-110277200D01*
X108090000Y-110277200D02*
X108042381Y-110181961D01*
X108042381Y-110181961D02*
X108042381Y-109324819D01*
X109939050Y-126551066D02*
X109769182Y-125995177D01*
X109395589Y-126374485D02*
X109704606Y-125423429D01*
X109704606Y-125423429D02*
X110066913Y-125541150D01*
X110066913Y-125541150D02*
X110142775Y-125615868D01*
X110142775Y-125615868D02*
X110173348Y-125675872D01*
X110173348Y-125675872D02*
X110189206Y-125781164D01*
X110189206Y-125781164D02*
X110145061Y-125917029D01*
X110145061Y-125917029D02*
X110070342Y-125992890D01*
X110070342Y-125992890D02*
X110010339Y-126023464D01*
X110010339Y-126023464D02*
X109905047Y-126039322D01*
X109905047Y-126039322D02*
X109542740Y-125921601D01*
X110565086Y-125703016D02*
X111199123Y-125909027D01*
X111199123Y-125909027D02*
X110482511Y-126727648D01*
X128738094Y-142941009D02*
X128404761Y-142941009D01*
X128404761Y-143464819D02*
X128404761Y-142464819D01*
X128404761Y-142464819D02*
X128880951Y-142464819D01*
X129404761Y-143464819D02*
X129309523Y-143417200D01*
X129309523Y-143417200D02*
X129261904Y-143369580D01*
X129261904Y-143369580D02*
X129214285Y-143274342D01*
X129214285Y-143274342D02*
X129214285Y-142988628D01*
X129214285Y-142988628D02*
X129261904Y-142893390D01*
X129261904Y-142893390D02*
X129309523Y-142845771D01*
X129309523Y-142845771D02*
X129404761Y-142798152D01*
X129404761Y-142798152D02*
X129547618Y-142798152D01*
X129547618Y-142798152D02*
X129642856Y-142845771D01*
X129642856Y-142845771D02*
X129690475Y-142893390D01*
X129690475Y-142893390D02*
X129738094Y-142988628D01*
X129738094Y-142988628D02*
X129738094Y-143274342D01*
X129738094Y-143274342D02*
X129690475Y-143369580D01*
X129690475Y-143369580D02*
X129642856Y-143417200D01*
X129642856Y-143417200D02*
X129547618Y-143464819D01*
X129547618Y-143464819D02*
X129404761Y-143464819D01*
X130595237Y-143417200D02*
X130499999Y-143464819D01*
X130499999Y-143464819D02*
X130309523Y-143464819D01*
X130309523Y-143464819D02*
X130214285Y-143417200D01*
X130214285Y-143417200D02*
X130166666Y-143369580D01*
X130166666Y-143369580D02*
X130119047Y-143274342D01*
X130119047Y-143274342D02*
X130119047Y-142988628D01*
X130119047Y-142988628D02*
X130166666Y-142893390D01*
X130166666Y-142893390D02*
X130214285Y-142845771D01*
X130214285Y-142845771D02*
X130309523Y-142798152D01*
X130309523Y-142798152D02*
X130499999Y-142798152D01*
X130499999Y-142798152D02*
X130595237Y-142845771D01*
X131452380Y-142798152D02*
X131452380Y-143464819D01*
X131023809Y-142798152D02*
X131023809Y-143321961D01*
X131023809Y-143321961D02*
X131071428Y-143417200D01*
X131071428Y-143417200D02*
X131166666Y-143464819D01*
X131166666Y-143464819D02*
X131309523Y-143464819D01*
X131309523Y-143464819D02*
X131404761Y-143417200D01*
X131404761Y-143417200D02*
X131452380Y-143369580D01*
X131880952Y-143417200D02*
X131976190Y-143464819D01*
X131976190Y-143464819D02*
X132166666Y-143464819D01*
X132166666Y-143464819D02*
X132261904Y-143417200D01*
X132261904Y-143417200D02*
X132309523Y-143321961D01*
X132309523Y-143321961D02*
X132309523Y-143274342D01*
X132309523Y-143274342D02*
X132261904Y-143179104D01*
X132261904Y-143179104D02*
X132166666Y-143131485D01*
X132166666Y-143131485D02*
X132023809Y-143131485D01*
X132023809Y-143131485D02*
X131928571Y-143083866D01*
X131928571Y-143083866D02*
X131880952Y-142988628D01*
X131880952Y-142988628D02*
X131880952Y-142941009D01*
X131880952Y-142941009D02*
X131928571Y-142845771D01*
X131928571Y-142845771D02*
X132023809Y-142798152D01*
X132023809Y-142798152D02*
X132166666Y-142798152D01*
X132166666Y-142798152D02*
X132261904Y-142845771D01*
X132738095Y-143083866D02*
X133500000Y-143083866D01*
X133119047Y-143464819D02*
X133119047Y-142702914D01*
X133928571Y-143417200D02*
X134071428Y-143464819D01*
X134071428Y-143464819D02*
X134309523Y-143464819D01*
X134309523Y-143464819D02*
X134404761Y-143417200D01*
X134404761Y-143417200D02*
X134452380Y-143369580D01*
X134452380Y-143369580D02*
X134499999Y-143274342D01*
X134499999Y-143274342D02*
X134499999Y-143179104D01*
X134499999Y-143179104D02*
X134452380Y-143083866D01*
X134452380Y-143083866D02*
X134404761Y-143036247D01*
X134404761Y-143036247D02*
X134309523Y-142988628D01*
X134309523Y-142988628D02*
X134119047Y-142941009D01*
X134119047Y-142941009D02*
X134023809Y-142893390D01*
X134023809Y-142893390D02*
X133976190Y-142845771D01*
X133976190Y-142845771D02*
X133928571Y-142750533D01*
X133928571Y-142750533D02*
X133928571Y-142655295D01*
X133928571Y-142655295D02*
X133976190Y-142560057D01*
X133976190Y-142560057D02*
X134023809Y-142512438D01*
X134023809Y-142512438D02*
X134119047Y-142464819D01*
X134119047Y-142464819D02*
X134357142Y-142464819D01*
X134357142Y-142464819D02*
X134499999Y-142512438D01*
X134928571Y-143464819D02*
X134928571Y-142464819D01*
X135357142Y-143464819D02*
X135357142Y-142941009D01*
X135357142Y-142941009D02*
X135309523Y-142845771D01*
X135309523Y-142845771D02*
X135214285Y-142798152D01*
X135214285Y-142798152D02*
X135071428Y-142798152D01*
X135071428Y-142798152D02*
X134976190Y-142845771D01*
X134976190Y-142845771D02*
X134928571Y-142893390D01*
X136261904Y-142798152D02*
X136261904Y-143464819D01*
X135833333Y-142798152D02*
X135833333Y-143321961D01*
X135833333Y-143321961D02*
X135880952Y-143417200D01*
X135880952Y-143417200D02*
X135976190Y-143464819D01*
X135976190Y-143464819D02*
X136119047Y-143464819D01*
X136119047Y-143464819D02*
X136214285Y-143417200D01*
X136214285Y-143417200D02*
X136261904Y-143369580D01*
X136595238Y-142798152D02*
X136976190Y-142798152D01*
X136738095Y-142464819D02*
X136738095Y-143321961D01*
X136738095Y-143321961D02*
X136785714Y-143417200D01*
X136785714Y-143417200D02*
X136880952Y-143464819D01*
X136880952Y-143464819D02*
X136976190Y-143464819D01*
X137166667Y-142798152D02*
X137547619Y-142798152D01*
X137309524Y-142464819D02*
X137309524Y-143321961D01*
X137309524Y-143321961D02*
X137357143Y-143417200D01*
X137357143Y-143417200D02*
X137452381Y-143464819D01*
X137452381Y-143464819D02*
X137547619Y-143464819D01*
X138261905Y-143417200D02*
X138166667Y-143464819D01*
X138166667Y-143464819D02*
X137976191Y-143464819D01*
X137976191Y-143464819D02*
X137880953Y-143417200D01*
X137880953Y-143417200D02*
X137833334Y-143321961D01*
X137833334Y-143321961D02*
X137833334Y-142941009D01*
X137833334Y-142941009D02*
X137880953Y-142845771D01*
X137880953Y-142845771D02*
X137976191Y-142798152D01*
X137976191Y-142798152D02*
X138166667Y-142798152D01*
X138166667Y-142798152D02*
X138261905Y-142845771D01*
X138261905Y-142845771D02*
X138309524Y-142941009D01*
X138309524Y-142941009D02*
X138309524Y-143036247D01*
X138309524Y-143036247D02*
X137833334Y-143131485D01*
X138738096Y-143464819D02*
X138738096Y-142798152D01*
X138738096Y-142988628D02*
X138785715Y-142893390D01*
X138785715Y-142893390D02*
X138833334Y-142845771D01*
X138833334Y-142845771D02*
X138928572Y-142798152D01*
X138928572Y-142798152D02*
X139023810Y-142798152D01*
X140642858Y-143464819D02*
X140071430Y-143464819D01*
X140357144Y-143464819D02*
X140357144Y-142464819D01*
X140357144Y-142464819D02*
X140261906Y-142607676D01*
X140261906Y-142607676D02*
X140166668Y-142702914D01*
X140166668Y-142702914D02*
X140071430Y-142750533D01*
X112350057Y-105078570D02*
X112302438Y-105030951D01*
X112302438Y-105030951D02*
X112254819Y-104935713D01*
X112254819Y-104935713D02*
X112254819Y-104697618D01*
X112254819Y-104697618D02*
X112302438Y-104602380D01*
X112302438Y-104602380D02*
X112350057Y-104554761D01*
X112350057Y-104554761D02*
X112445295Y-104507142D01*
X112445295Y-104507142D02*
X112540533Y-104507142D01*
X112540533Y-104507142D02*
X112683390Y-104554761D01*
X112683390Y-104554761D02*
X113254819Y-105126189D01*
X113254819Y-105126189D02*
X113254819Y-104507142D01*
X113159580Y-104078570D02*
X113207200Y-104030951D01*
X113207200Y-104030951D02*
X113254819Y-104078570D01*
X113254819Y-104078570D02*
X113207200Y-104126189D01*
X113207200Y-104126189D02*
X113159580Y-104078570D01*
X113159580Y-104078570D02*
X113254819Y-104078570D01*
X112254819Y-103173809D02*
X112254819Y-103364285D01*
X112254819Y-103364285D02*
X112302438Y-103459523D01*
X112302438Y-103459523D02*
X112350057Y-103507142D01*
X112350057Y-103507142D02*
X112492914Y-103602380D01*
X112492914Y-103602380D02*
X112683390Y-103649999D01*
X112683390Y-103649999D02*
X113064342Y-103649999D01*
X113064342Y-103649999D02*
X113159580Y-103602380D01*
X113159580Y-103602380D02*
X113207200Y-103554761D01*
X113207200Y-103554761D02*
X113254819Y-103459523D01*
X113254819Y-103459523D02*
X113254819Y-103269047D01*
X113254819Y-103269047D02*
X113207200Y-103173809D01*
X113207200Y-103173809D02*
X113159580Y-103126190D01*
X113159580Y-103126190D02*
X113064342Y-103078571D01*
X113064342Y-103078571D02*
X112826247Y-103078571D01*
X112826247Y-103078571D02*
X112731009Y-103126190D01*
X112731009Y-103126190D02*
X112683390Y-103173809D01*
X112683390Y-103173809D02*
X112635771Y-103269047D01*
X112635771Y-103269047D02*
X112635771Y-103459523D01*
X112635771Y-103459523D02*
X112683390Y-103554761D01*
X112683390Y-103554761D02*
X112731009Y-103602380D01*
X112731009Y-103602380D02*
X112826247Y-103649999D01*
X112254819Y-102792856D02*
X113254819Y-102459523D01*
X113254819Y-102459523D02*
X112254819Y-102126190D01*
X104947185Y-123323033D02*
X105136503Y-122773463D01*
X104611308Y-122860737D02*
X105420325Y-122272952D01*
X105420325Y-122272952D02*
X105644243Y-122581149D01*
X105644243Y-122581149D02*
X105661698Y-122686188D01*
X105661698Y-122686188D02*
X105651163Y-122752702D01*
X105651163Y-122752702D02*
X105602104Y-122847206D01*
X105602104Y-122847206D02*
X105486530Y-122931176D01*
X105486530Y-122931176D02*
X105381491Y-122948631D01*
X105381491Y-122948631D02*
X105314976Y-122938096D01*
X105314976Y-122938096D02*
X105220472Y-122889036D01*
X105220472Y-122889036D02*
X104996554Y-122580839D01*
X105745358Y-123449451D02*
X105727903Y-123344412D01*
X105727903Y-123344412D02*
X105738438Y-123277897D01*
X105738438Y-123277897D02*
X105787497Y-123183393D01*
X105787497Y-123183393D02*
X105826022Y-123155403D01*
X105826022Y-123155403D02*
X105931061Y-123137949D01*
X105931061Y-123137949D02*
X105997575Y-123148483D01*
X105997575Y-123148483D02*
X106092080Y-123197543D01*
X106092080Y-123197543D02*
X106204039Y-123351641D01*
X106204039Y-123351641D02*
X106221494Y-123456680D01*
X106221494Y-123456680D02*
X106210959Y-123523195D01*
X106210959Y-123523195D02*
X106161899Y-123617699D01*
X106161899Y-123617699D02*
X106123375Y-123645689D01*
X106123375Y-123645689D02*
X106018336Y-123663144D01*
X106018336Y-123663144D02*
X105951821Y-123652609D01*
X105951821Y-123652609D02*
X105857317Y-123603549D01*
X105857317Y-123603549D02*
X105745358Y-123449451D01*
X105745358Y-123449451D02*
X105650854Y-123400391D01*
X105650854Y-123400391D02*
X105584339Y-123389856D01*
X105584339Y-123389856D02*
X105479300Y-123407311D01*
X105479300Y-123407311D02*
X105325202Y-123519271D01*
X105325202Y-123519271D02*
X105276142Y-123613775D01*
X105276142Y-123613775D02*
X105265608Y-123680289D01*
X105265608Y-123680289D02*
X105283063Y-123785328D01*
X105283063Y-123785328D02*
X105395022Y-123939427D01*
X105395022Y-123939427D02*
X105489526Y-123988486D01*
X105489526Y-123988486D02*
X105556040Y-123999021D01*
X105556040Y-123999021D02*
X105661079Y-123981566D01*
X105661079Y-123981566D02*
X105815178Y-123869607D01*
X105815178Y-123869607D02*
X105864237Y-123775103D01*
X105864237Y-123775103D02*
X105874772Y-123708588D01*
X105874772Y-123708588D02*
X105857317Y-123603549D01*
X142093809Y-108480057D02*
X142141428Y-108432438D01*
X142141428Y-108432438D02*
X142236666Y-108384819D01*
X142236666Y-108384819D02*
X142474761Y-108384819D01*
X142474761Y-108384819D02*
X142569999Y-108432438D01*
X142569999Y-108432438D02*
X142617618Y-108480057D01*
X142617618Y-108480057D02*
X142665237Y-108575295D01*
X142665237Y-108575295D02*
X142665237Y-108670533D01*
X142665237Y-108670533D02*
X142617618Y-108813390D01*
X142617618Y-108813390D02*
X142046190Y-109384819D01*
X142046190Y-109384819D02*
X142665237Y-109384819D01*
X143093809Y-108718152D02*
X143093809Y-109384819D01*
X143093809Y-108813390D02*
X143141428Y-108765771D01*
X143141428Y-108765771D02*
X143236666Y-108718152D01*
X143236666Y-108718152D02*
X143379523Y-108718152D01*
X143379523Y-108718152D02*
X143474761Y-108765771D01*
X143474761Y-108765771D02*
X143522380Y-108861009D01*
X143522380Y-108861009D02*
X143522380Y-109384819D01*
X144427142Y-109384819D02*
X144427142Y-108384819D01*
X144427142Y-109337200D02*
X144331904Y-109384819D01*
X144331904Y-109384819D02*
X144141428Y-109384819D01*
X144141428Y-109384819D02*
X144046190Y-109337200D01*
X144046190Y-109337200D02*
X143998571Y-109289580D01*
X143998571Y-109289580D02*
X143950952Y-109194342D01*
X143950952Y-109194342D02*
X143950952Y-108908628D01*
X143950952Y-108908628D02*
X143998571Y-108813390D01*
X143998571Y-108813390D02*
X144046190Y-108765771D01*
X144046190Y-108765771D02*
X144141428Y-108718152D01*
X144141428Y-108718152D02*
X144331904Y-108718152D01*
X144331904Y-108718152D02*
X144427142Y-108765771D01*
X146093809Y-109384819D02*
X146093809Y-108384819D01*
X146093809Y-109337200D02*
X145998571Y-109384819D01*
X145998571Y-109384819D02*
X145808095Y-109384819D01*
X145808095Y-109384819D02*
X145712857Y-109337200D01*
X145712857Y-109337200D02*
X145665238Y-109289580D01*
X145665238Y-109289580D02*
X145617619Y-109194342D01*
X145617619Y-109194342D02*
X145617619Y-108908628D01*
X145617619Y-108908628D02*
X145665238Y-108813390D01*
X145665238Y-108813390D02*
X145712857Y-108765771D01*
X145712857Y-108765771D02*
X145808095Y-108718152D01*
X145808095Y-108718152D02*
X145998571Y-108718152D01*
X145998571Y-108718152D02*
X146093809Y-108765771D01*
X146570000Y-109384819D02*
X146570000Y-108718152D01*
X146570000Y-108384819D02*
X146522381Y-108432438D01*
X146522381Y-108432438D02*
X146570000Y-108480057D01*
X146570000Y-108480057D02*
X146617619Y-108432438D01*
X146617619Y-108432438D02*
X146570000Y-108384819D01*
X146570000Y-108384819D02*
X146570000Y-108480057D01*
X147474761Y-109384819D02*
X147474761Y-108861009D01*
X147474761Y-108861009D02*
X147427142Y-108765771D01*
X147427142Y-108765771D02*
X147331904Y-108718152D01*
X147331904Y-108718152D02*
X147141428Y-108718152D01*
X147141428Y-108718152D02*
X147046190Y-108765771D01*
X147474761Y-109337200D02*
X147379523Y-109384819D01*
X147379523Y-109384819D02*
X147141428Y-109384819D01*
X147141428Y-109384819D02*
X147046190Y-109337200D01*
X147046190Y-109337200D02*
X146998571Y-109241961D01*
X146998571Y-109241961D02*
X146998571Y-109146723D01*
X146998571Y-109146723D02*
X147046190Y-109051485D01*
X147046190Y-109051485D02*
X147141428Y-109003866D01*
X147141428Y-109003866D02*
X147379523Y-109003866D01*
X147379523Y-109003866D02*
X147474761Y-108956247D01*
X148093809Y-109384819D02*
X147998571Y-109337200D01*
X147998571Y-109337200D02*
X147950952Y-109241961D01*
X147950952Y-109241961D02*
X147950952Y-108384819D01*
X120806886Y-123692704D02*
X120225711Y-123682479D01*
X120471009Y-124155000D02*
X119661992Y-123567214D01*
X119661992Y-123567214D02*
X119885910Y-123259017D01*
X119885910Y-123259017D02*
X119980414Y-123209958D01*
X119980414Y-123209958D02*
X120046928Y-123199423D01*
X120046928Y-123199423D02*
X120151967Y-123216878D01*
X120151967Y-123216878D02*
X120267541Y-123300847D01*
X120267541Y-123300847D02*
X120316601Y-123395352D01*
X120316601Y-123395352D02*
X120327136Y-123461866D01*
X120327136Y-123461866D02*
X120309681Y-123566905D01*
X120309681Y-123566905D02*
X120085762Y-123875102D01*
X120529675Y-122372951D02*
X120249777Y-122758197D01*
X120249777Y-122758197D02*
X120607033Y-123076620D01*
X120607033Y-123076620D02*
X120596498Y-123010105D01*
X120596498Y-123010105D02*
X120613953Y-122905066D01*
X120613953Y-122905066D02*
X120753902Y-122712443D01*
X120753902Y-122712443D02*
X120848406Y-122663384D01*
X120848406Y-122663384D02*
X120914921Y-122652849D01*
X120914921Y-122652849D02*
X121019960Y-122670304D01*
X121019960Y-122670304D02*
X121212583Y-122810253D01*
X121212583Y-122810253D02*
X121261642Y-122904757D01*
X121261642Y-122904757D02*
X121272177Y-122971271D01*
X121272177Y-122971271D02*
X121254722Y-123076310D01*
X121254722Y-123076310D02*
X121114773Y-123268933D01*
X121114773Y-123268933D02*
X121020269Y-123317993D01*
X121020269Y-123317993D02*
X120953755Y-123328528D01*
X105645583Y-112817184D02*
X105064318Y-112817103D01*
X105317825Y-113285271D02*
X104498673Y-112711694D01*
X104498673Y-112711694D02*
X104717178Y-112399636D01*
X104717178Y-112399636D02*
X104810812Y-112348935D01*
X104810812Y-112348935D02*
X104877132Y-112337241D01*
X104877132Y-112337241D02*
X104982460Y-112352860D01*
X104982460Y-112352860D02*
X105099481Y-112434800D01*
X105099481Y-112434800D02*
X105150183Y-112528433D01*
X105150183Y-112528433D02*
X105161877Y-112594754D01*
X105161877Y-112594754D02*
X105146258Y-112700081D01*
X105146258Y-112700081D02*
X104927752Y-113012139D01*
X106191846Y-112037039D02*
X105864088Y-112505126D01*
X106027967Y-112271083D02*
X105208815Y-111697506D01*
X105208815Y-111697506D02*
X105271210Y-111857460D01*
X105271210Y-111857460D02*
X105294598Y-111990101D01*
X105294598Y-111990101D02*
X105278979Y-112095429D01*
X142716190Y-116664819D02*
X142906666Y-116664819D01*
X142906666Y-116664819D02*
X143001904Y-116712438D01*
X143001904Y-116712438D02*
X143097142Y-116807676D01*
X143097142Y-116807676D02*
X143144761Y-116998152D01*
X143144761Y-116998152D02*
X143144761Y-117331485D01*
X143144761Y-117331485D02*
X143097142Y-117521961D01*
X143097142Y-117521961D02*
X143001904Y-117617200D01*
X143001904Y-117617200D02*
X142906666Y-117664819D01*
X142906666Y-117664819D02*
X142716190Y-117664819D01*
X142716190Y-117664819D02*
X142620952Y-117617200D01*
X142620952Y-117617200D02*
X142525714Y-117521961D01*
X142525714Y-117521961D02*
X142478095Y-117331485D01*
X142478095Y-117331485D02*
X142478095Y-116998152D01*
X142478095Y-116998152D02*
X142525714Y-116807676D01*
X142525714Y-116807676D02*
X142620952Y-116712438D01*
X142620952Y-116712438D02*
X142716190Y-116664819D01*
X143573333Y-117664819D02*
X143573333Y-116664819D01*
X143573333Y-116664819D02*
X144144761Y-117664819D01*
X144144761Y-117664819D02*
X144144761Y-116664819D01*
X145335237Y-116617200D02*
X144478095Y-117902914D01*
X145859047Y-116664819D02*
X146049523Y-116664819D01*
X146049523Y-116664819D02*
X146144761Y-116712438D01*
X146144761Y-116712438D02*
X146239999Y-116807676D01*
X146239999Y-116807676D02*
X146287618Y-116998152D01*
X146287618Y-116998152D02*
X146287618Y-117331485D01*
X146287618Y-117331485D02*
X146239999Y-117521961D01*
X146239999Y-117521961D02*
X146144761Y-117617200D01*
X146144761Y-117617200D02*
X146049523Y-117664819D01*
X146049523Y-117664819D02*
X145859047Y-117664819D01*
X145859047Y-117664819D02*
X145763809Y-117617200D01*
X145763809Y-117617200D02*
X145668571Y-117521961D01*
X145668571Y-117521961D02*
X145620952Y-117331485D01*
X145620952Y-117331485D02*
X145620952Y-116998152D01*
X145620952Y-116998152D02*
X145668571Y-116807676D01*
X145668571Y-116807676D02*
X145763809Y-116712438D01*
X145763809Y-116712438D02*
X145859047Y-116664819D01*
X147049523Y-117141009D02*
X146716190Y-117141009D01*
X146716190Y-117664819D02*
X146716190Y-116664819D01*
X146716190Y-116664819D02*
X147192380Y-116664819D01*
X147906666Y-117141009D02*
X147573333Y-117141009D01*
X147573333Y-117664819D02*
X147573333Y-116664819D01*
X147573333Y-116664819D02*
X148049523Y-116664819D01*
X102984819Y-104021428D02*
X102508628Y-104354761D01*
X102984819Y-104592856D02*
X101984819Y-104592856D01*
X101984819Y-104592856D02*
X101984819Y-104211904D01*
X101984819Y-104211904D02*
X102032438Y-104116666D01*
X102032438Y-104116666D02*
X102080057Y-104069047D01*
X102080057Y-104069047D02*
X102175295Y-104021428D01*
X102175295Y-104021428D02*
X102318152Y-104021428D01*
X102318152Y-104021428D02*
X102413390Y-104069047D01*
X102413390Y-104069047D02*
X102461009Y-104116666D01*
X102461009Y-104116666D02*
X102508628Y-104211904D01*
X102508628Y-104211904D02*
X102508628Y-104592856D01*
X102937200Y-103211904D02*
X102984819Y-103307142D01*
X102984819Y-103307142D02*
X102984819Y-103497618D01*
X102984819Y-103497618D02*
X102937200Y-103592856D01*
X102937200Y-103592856D02*
X102841961Y-103640475D01*
X102841961Y-103640475D02*
X102461009Y-103640475D01*
X102461009Y-103640475D02*
X102365771Y-103592856D01*
X102365771Y-103592856D02*
X102318152Y-103497618D01*
X102318152Y-103497618D02*
X102318152Y-103307142D01*
X102318152Y-103307142D02*
X102365771Y-103211904D01*
X102365771Y-103211904D02*
X102461009Y-103164285D01*
X102461009Y-103164285D02*
X102556247Y-103164285D01*
X102556247Y-103164285D02*
X102651485Y-103640475D01*
X102984819Y-102307142D02*
X101984819Y-102307142D01*
X102937200Y-102307142D02*
X102984819Y-102402380D01*
X102984819Y-102402380D02*
X102984819Y-102592856D01*
X102984819Y-102592856D02*
X102937200Y-102688094D01*
X102937200Y-102688094D02*
X102889580Y-102735713D01*
X102889580Y-102735713D02*
X102794342Y-102783332D01*
X102794342Y-102783332D02*
X102508628Y-102783332D01*
X102508628Y-102783332D02*
X102413390Y-102735713D01*
X102413390Y-102735713D02*
X102365771Y-102688094D01*
X102365771Y-102688094D02*
X102318152Y-102592856D01*
X102318152Y-102592856D02*
X102318152Y-102402380D01*
X102318152Y-102402380D02*
X102365771Y-102307142D01*
X108111009Y-104261428D02*
X108158628Y-104118571D01*
X108158628Y-104118571D02*
X108206247Y-104070952D01*
X108206247Y-104070952D02*
X108301485Y-104023333D01*
X108301485Y-104023333D02*
X108444342Y-104023333D01*
X108444342Y-104023333D02*
X108539580Y-104070952D01*
X108539580Y-104070952D02*
X108587200Y-104118571D01*
X108587200Y-104118571D02*
X108634819Y-104213809D01*
X108634819Y-104213809D02*
X108634819Y-104594761D01*
X108634819Y-104594761D02*
X107634819Y-104594761D01*
X107634819Y-104594761D02*
X107634819Y-104261428D01*
X107634819Y-104261428D02*
X107682438Y-104166190D01*
X107682438Y-104166190D02*
X107730057Y-104118571D01*
X107730057Y-104118571D02*
X107825295Y-104070952D01*
X107825295Y-104070952D02*
X107920533Y-104070952D01*
X107920533Y-104070952D02*
X108015771Y-104118571D01*
X108015771Y-104118571D02*
X108063390Y-104166190D01*
X108063390Y-104166190D02*
X108111009Y-104261428D01*
X108111009Y-104261428D02*
X108111009Y-104594761D01*
X108634819Y-103451904D02*
X108587200Y-103547142D01*
X108587200Y-103547142D02*
X108491961Y-103594761D01*
X108491961Y-103594761D02*
X107634819Y-103594761D01*
X107968152Y-102642380D02*
X108634819Y-102642380D01*
X107968152Y-103070951D02*
X108491961Y-103070951D01*
X108491961Y-103070951D02*
X108587200Y-103023332D01*
X108587200Y-103023332D02*
X108634819Y-102928094D01*
X108634819Y-102928094D02*
X108634819Y-102785237D01*
X108634819Y-102785237D02*
X108587200Y-102689999D01*
X108587200Y-102689999D02*
X108539580Y-102642380D01*
X108587200Y-101785237D02*
X108634819Y-101880475D01*
X108634819Y-101880475D02*
X108634819Y-102070951D01*
X108634819Y-102070951D02*
X108587200Y-102166189D01*
X108587200Y-102166189D02*
X108491961Y-102213808D01*
X108491961Y-102213808D02*
X108111009Y-102213808D01*
X108111009Y-102213808D02*
X108015771Y-102166189D01*
X108015771Y-102166189D02*
X107968152Y-102070951D01*
X107968152Y-102070951D02*
X107968152Y-101880475D01*
X107968152Y-101880475D02*
X108015771Y-101785237D01*
X108015771Y-101785237D02*
X108111009Y-101737618D01*
X108111009Y-101737618D02*
X108206247Y-101737618D01*
X108206247Y-101737618D02*
X108301485Y-102213808D01*
%LPC*%
D10*
%TO.C,J1*%
X111990000Y-180220000D02*
X102890000Y-180220000D01*
X102890000Y-178520000D01*
X111990000Y-178520000D01*
X111990000Y-180220000D01*
G36*
X111990000Y-180220000D02*
G01*
X102890000Y-180220000D01*
X102890000Y-178520000D01*
X111990000Y-178520000D01*
X111990000Y-180220000D01*
G37*
%TD*%
D13*
%TO.C,R9*%
X118300000Y-109040000D03*
X118300000Y-107390000D03*
%TD*%
D14*
%TO.C,J4*%
X130951788Y-113540817D03*
X127416254Y-110005283D03*
D15*
X129325442Y-113328685D03*
X131658894Y-110570969D03*
X128901178Y-112904421D03*
X131234630Y-110146705D03*
X128476914Y-112480157D03*
X130810366Y-109722441D03*
X128052650Y-112055893D03*
X130386102Y-109298177D03*
D16*
X127628386Y-111631629D03*
%TD*%
D17*
%TO.C,U1*%
X129730000Y-124300000D03*
X129730000Y-126300000D03*
X130730000Y-124300000D03*
X130730000Y-126300000D03*
%TD*%
D18*
%TO.C,SW4*%
X84930000Y-173040000D03*
X84930000Y-179840000D03*
X89390000Y-173040000D03*
X89390000Y-179840000D03*
%TD*%
D19*
%TO.C,R6*%
X116039866Y-124586606D03*
X114470623Y-125096484D03*
%TD*%
D20*
%TO.C,R3*%
X114614675Y-110193034D03*
X116174780Y-110730222D03*
%TD*%
D21*
%TO.C,R4*%
X118879667Y-112498295D03*
X119826068Y-113849896D03*
%TD*%
D22*
%TO.C,R2*%
X109734675Y-110756966D03*
X111294780Y-110219778D03*
%TD*%
D23*
%TO.C,SW1*%
X107820000Y-116120000D03*
D24*
X109790000Y-113440000D03*
D25*
X112980000Y-112430000D03*
D26*
X116140000Y-113480000D03*
D27*
X118080000Y-116180000D03*
D28*
X118060000Y-119520000D03*
D29*
X116080000Y-122200000D03*
D30*
X112910000Y-123210000D03*
D31*
X109740000Y-122160000D03*
D32*
X107800000Y-119450000D03*
D33*
X109310000Y-117820000D03*
D34*
X112970000Y-117830000D03*
%TD*%
D35*
%TO.C,R7*%
X111459866Y-125063394D03*
X109890623Y-124553516D03*
%TD*%
D36*
%TO.C,SW3*%
X131250000Y-136450000D03*
X131250000Y-139550000D03*
X137750000Y-136450000D03*
X137750000Y-139550000D03*
%TD*%
D37*
%TO.C,BT1*%
X115625000Y-102850000D03*
X115625000Y-104450000D03*
%TD*%
D38*
%TO.C,U2*%
X133800000Y-121220000D03*
X135800000Y-121220000D03*
X133800000Y-120220000D03*
X135800000Y-120220000D03*
%TD*%
D39*
%TO.C,R8*%
X107051984Y-123013394D03*
X106082138Y-121678516D03*
%TD*%
D40*
%TO.C,J1*%
X103240000Y-179730000D03*
D41*
X103490000Y-178980000D03*
D40*
X103734118Y-179730000D03*
D41*
X103983750Y-178980000D03*
D40*
X104228235Y-179730000D03*
D41*
X104477500Y-178980000D03*
D40*
X104722353Y-179730000D03*
D41*
X104971250Y-178980000D03*
D40*
X105216471Y-179730000D03*
D41*
X105465000Y-178980000D03*
D40*
X105710588Y-179730000D03*
D41*
X105958750Y-178980000D03*
D40*
X106204706Y-179730000D03*
D41*
X106452500Y-178980000D03*
D40*
X106698824Y-179730000D03*
D41*
X106950000Y-178980000D03*
D40*
X107192941Y-179730000D03*
D41*
X107440000Y-178980000D03*
D40*
X107687059Y-179730000D03*
D41*
X107933750Y-178980000D03*
D40*
X108181176Y-179730000D03*
D41*
X108427500Y-178980000D03*
D40*
X108675294Y-179730000D03*
D41*
X108921250Y-178980000D03*
D40*
X109169412Y-179730000D03*
D41*
X109420000Y-178980000D03*
D40*
X109663529Y-179730000D03*
D41*
X109908750Y-178980000D03*
D40*
X110157647Y-179730000D03*
D41*
X110402500Y-178980000D03*
D40*
X110651765Y-179730000D03*
D41*
X110896250Y-178980000D03*
D40*
X111145882Y-179730000D03*
D41*
X111390000Y-178980000D03*
D40*
X111640000Y-179730000D03*
%TD*%
D42*
%TO.C,J5*%
X143380000Y-140480000D03*
X145280000Y-140480000D03*
X147180000Y-140480000D03*
%TD*%
D43*
%TO.C,RV1*%
X148950000Y-111300000D03*
D44*
X146870000Y-107120000D03*
X145040000Y-107100000D03*
X143220000Y-107100000D03*
D43*
X141140000Y-111290000D03*
%TD*%
D45*
%TO.C,R5*%
X119861984Y-121786606D03*
X118892138Y-123121484D03*
%TD*%
D46*
%TO.C,J6*%
X91420000Y-108540000D03*
X91420000Y-110440000D03*
X91420000Y-112340000D03*
%TD*%
D47*
%TO.C,R1*%
X106069667Y-113911705D03*
X107016068Y-112560104D03*
%TD*%
D48*
%TO.C,SW2*%
X148340000Y-119260000D03*
D49*
X147340000Y-122050000D03*
D48*
X142110000Y-119280000D03*
X142110000Y-122040000D03*
%TD*%
%LPD*%
M02*
