%TF.GenerationSoftware,KiCad,Pcbnew,9.0.3*%
%TF.CreationDate,2025-08-12T13:31:52+03:00*%
%TF.ProjectId,Right,52696768-742e-46b6-9963-61645f706362,rev?*%
%TF.SameCoordinates,Original*%
%TF.FileFunction,Soldermask,Top*%
%TF.FilePolarity,Negative*%
%FSLAX46Y46*%
G04 Gerber Fmt 4.6, Leading zero omitted, Abs format (unit mm)*
G04 Created by KiCad (PCBNEW 9.0.3) date 2025-08-12 13:31:52*
%MOMM*%
%LPD*%
G01*
G04 APERTURE LIST*
G04 Aperture macros list*
%AMRoundRect*
0 Rectangle with rounded corners*
0 $1 Rounding radius*
0 $2 $3 $4 $5 $6 $7 $8 $9 X,Y pos of 4 corners*
0 Add a 4 corners polygon primitive as box body*
4,1,4,$2,$3,$4,$5,$6,$7,$8,$9,$2,$3,0*
0 Add four circle primitives for the rounded corners*
1,1,$1+$1,$2,$3*
1,1,$1+$1,$4,$5*
1,1,$1+$1,$6,$7*
1,1,$1+$1,$8,$9*
0 Add four rect primitives between the rounded corners*
20,1,$1+$1,$2,$3,$4,$5,0*
20,1,$1+$1,$4,$5,$6,$7,0*
20,1,$1+$1,$6,$7,$8,$9,0*
20,1,$1+$1,$8,$9,$2,$3,0*%
%AMFreePoly0*
4,1,72,0.663536,1.453536,0.664990,1.450312,0.674986,1.290376,0.684974,1.180502,0.694961,1.090620,0.704950,1.010707,0.714943,0.940757,0.734918,0.820906,0.764878,0.671101,0.824807,0.431389,0.834743,0.401581,0.834851,0.401213,0.844807,0.361389,0.934706,0.091692,0.964677,0.011772,1.004608,-0.088058,1.034593,-0.158023,1.074525,-0.247870,1.184421,-0.467662,1.234361,-0.557554,
1.274329,-0.627498,1.334250,-0.727365,1.404218,-0.837317,1.405000,-0.840001,1.405000,-0.860000,1.403536,-0.863536,1.402936,-0.864047,-0.017064,-1.894047,-0.020786,-1.894938,-0.024047,-1.892936,-0.094096,-1.792867,-0.094218,-1.792684,-0.164258,-1.682620,-0.244258,-1.552620,-0.244341,-1.552480,-0.324341,-1.412481,-0.384389,-1.302394,-0.384472,-1.302236,-0.524472,-1.022236,-0.524569,-1.022031,
-0.564525,-0.932131,-0.574472,-0.912236,-0.574596,-0.911970,-0.634596,-0.771971,-0.634642,-0.771857,-0.694683,-0.621756,-0.724682,-0.541756,-0.784714,-0.371664,-0.824743,-0.251582,-0.824789,-0.251437,-0.854808,-0.151375,-0.894808,-0.011374,-0.894852,-0.011213,-0.954851,0.228787,-0.954893,0.228971,-0.994893,0.418970,-1.024932,0.579178,-1.044932,0.699179,-1.044950,0.699293,-1.054950,0.769293,
-1.074969,0.929448,-1.084969,1.019448,-1.084984,1.019585,-1.094983,1.139584,-1.104990,1.279688,-1.114990,1.439688,-1.115000,1.440000,-1.115000,1.450000,-1.113536,1.453535,-1.110000,1.455000,0.660000,1.455000,0.663536,1.453536,0.663536,1.453536,$1*%
%AMFreePoly1*
4,1,7,0.150000,0.330000,0.150000,-0.365000,-0.150000,-0.365000,-0.150000,0.330000,-0.050000,0.370000,0.050000,0.370000,0.150000,0.330000,0.150000,0.330000,$1*%
%AMFreePoly2*
4,1,7,0.150000,-0.275000,0.050000,-0.315000,-0.050000,-0.315000,-0.150000,-0.275000,-0.150000,0.300000,0.150000,0.300000,0.150000,-0.275000,0.150000,-0.275000,$1*%
%AMFreePoly3*
4,1,18,0.303536,0.288536,0.305000,0.285000,0.305000,-0.285000,0.303536,-0.288536,0.302883,-0.289085,0.133380,-0.408734,0.004109,-0.557891,-0.085642,-0.717451,-0.088652,-0.719815,-0.090000,-0.720000,-0.300000,-0.720000,-0.303536,-0.718536,-0.305000,-0.715000,-0.305000,0.285000,-0.303536,0.288536,-0.300000,0.290000,0.300000,0.290000,0.303536,0.288536,0.303536,0.288536,$1*%
%AMFreePoly4*
4,1,18,0.303536,0.283536,0.305000,0.280000,0.305000,-0.720000,0.303536,-0.723536,0.300125,-0.724998,0.100125,-0.729998,0.096554,-0.728623,0.095554,-0.727287,0.005843,-0.552850,-0.113359,-0.418746,-0.302896,-0.284076,-0.304930,-0.280834,-0.305000,-0.280000,-0.305000,0.280000,-0.303536,0.283536,-0.300000,0.285000,0.300000,0.285000,0.303536,0.283536,0.303536,0.283536,$1*%
G04 Aperture macros list end*
%ADD10C,0.100000*%
%ADD11RoundRect,0.100000X-0.100000X-0.100000X0.100000X-0.100000X0.100000X0.100000X-0.100000X0.100000X0*%
%ADD12RoundRect,0.100000X0.100000X-0.100000X0.100000X0.100000X-0.100000X0.100000X-0.100000X-0.100000X0*%
%ADD13RoundRect,0.150000X0.065404X0.284117X-0.219913X0.191412X-0.065404X-0.284117X0.219913X-0.191412X0*%
%ADD14RoundRect,0.150000X-0.223220X-0.187544X0.060436X-0.285215X0.223220X0.187544X-0.060436X0.285215X0*%
%ADD15RoundRect,0.150000X-0.290824X-0.020521X-0.118752X-0.266267X0.290824X0.020521X0.118752X0.266267X0*%
%ADD16RoundRect,0.150000X-0.060436X-0.285215X0.223220X-0.187544X0.060436X0.285215X-0.223220X0.187544X0*%
%ADD17FreePoly0,324.000000*%
%ADD18FreePoly0,288.000000*%
%ADD19FreePoly0,252.000000*%
%ADD20FreePoly0,216.000000*%
%ADD21FreePoly0,180.000000*%
%ADD22FreePoly0,144.000000*%
%ADD23FreePoly0,108.000000*%
%ADD24FreePoly0,72.000000*%
%ADD25FreePoly0,36.000000*%
%ADD26FreePoly0,0.000000*%
%ADD27C,0.858836*%
%ADD28C,8.420022*%
%ADD29RoundRect,0.150000X0.219913X0.191412X-0.065404X0.284117X-0.219913X-0.191412X0.065404X-0.284117X0*%
%ADD30RoundRect,0.080000X-0.620000X0.320000X-0.620000X-0.320000X0.620000X-0.320000X0.620000X0.320000X0*%
%ADD31RoundRect,0.150000X0.290422X0.025594X0.114086X0.268299X-0.290422X-0.025594X-0.114086X-0.268299X0*%
%ADD32RoundRect,0.120000X0.480000X0.580000X-0.480000X0.580000X-0.480000X-0.580000X0.480000X-0.580000X0*%
%ADD33FreePoly1,0.000000*%
%ADD34FreePoly2,0.000000*%
%ADD35FreePoly3,270.000000*%
%ADD36FreePoly4,90.000000*%
%ADD37FreePoly3,90.000000*%
%ADD38FreePoly4,270.000000*%
%ADD39RoundRect,0.150000X0.250000X-0.150000X0.250000X0.150000X-0.250000X0.150000X-0.250000X-0.150000X0*%
%ADD40RoundRect,0.140000X0.560000X1.160000X-0.560000X1.160000X-0.560000X-1.160000X0.560000X-1.160000X0*%
%ADD41RoundRect,0.178571X0.321429X0.321429X-0.321429X0.321429X-0.321429X-0.321429X0.321429X-0.321429X0*%
%ADD42RoundRect,0.150000X-0.114086X0.268299X-0.290422X0.025594X0.114086X-0.268299X0.290422X-0.025594X0*%
%ADD43FreePoly3,0.000000*%
%ADD44FreePoly4,180.000000*%
%ADD45FreePoly3,180.000000*%
%ADD46FreePoly4,0.000000*%
%ADD47RoundRect,0.150000X0.118752X-0.266267X0.290824X-0.020521X-0.118752X0.266267X-0.290824X0.020521X0*%
%ADD48RoundRect,0.138889X-0.361111X0.361111X-0.361111X-0.361111X0.361111X-0.361111X0.361111X0.361111X0*%
%ADD49RoundRect,0.138889X-0.361111X-0.361111X0.361111X-0.361111X0.361111X0.361111X-0.361111X0.361111X0*%
G04 APERTURE END LIST*
D10*
%TO.C,J1*%
X119580000Y-180420000D02*
X110480000Y-180420000D01*
X110480000Y-178720000D01*
X119580000Y-178720000D01*
X119580000Y-180420000D01*
G36*
X119580000Y-180420000D02*
G01*
X110480000Y-180420000D01*
X110480000Y-178720000D01*
X119580000Y-178720000D01*
X119580000Y-180420000D01*
G37*
%TD*%
D11*
%TO.C,U1*%
X129730000Y-124300000D03*
X129730000Y-126300000D03*
X130730000Y-124300000D03*
X130730000Y-126300000D03*
%TD*%
D12*
%TO.C,U2*%
X133800000Y-121220000D03*
X135800000Y-121220000D03*
X133800000Y-120220000D03*
X135800000Y-120220000D03*
%TD*%
D13*
%TO.C,R6*%
X115830634Y-124654590D03*
X114679856Y-125028500D03*
%TD*%
D14*
%TO.C,R3*%
X114652689Y-110644659D03*
X115796766Y-111038598D03*
%TD*%
D15*
%TO.C,R4*%
X118615854Y-113018509D03*
X119309882Y-114009683D03*
%TD*%
D16*
%TO.C,R2*%
X110052689Y-111065341D03*
X111196766Y-110671402D03*
%TD*%
D17*
%TO.C,SW1*%
X107820000Y-116120000D03*
D18*
X109790000Y-113440000D03*
D19*
X112980000Y-112430000D03*
D20*
X116140000Y-113480000D03*
D21*
X118080000Y-116180000D03*
D22*
X118060000Y-119520000D03*
D23*
X116080000Y-122200000D03*
D24*
X112910000Y-123210000D03*
D25*
X109740000Y-122160000D03*
D26*
X107800000Y-119450000D03*
D27*
X109310000Y-117820000D03*
D28*
X112970000Y-117830000D03*
%TD*%
D29*
%TO.C,R7*%
X111250634Y-124995410D03*
X110099856Y-124621500D03*
%TD*%
D30*
%TO.C,BT1*%
X115525000Y-102950000D03*
X115525000Y-104350000D03*
%TD*%
D31*
%TO.C,R8*%
X107372671Y-122565410D03*
X106661451Y-121586500D03*
%TD*%
D32*
%TO.C,SW6*%
X148340000Y-137570000D03*
X148340000Y-134780000D03*
X142110000Y-137550000D03*
X142110000Y-134790000D03*
%TD*%
D33*
%TO.C,J1*%
X110830000Y-179930000D03*
D34*
X111080000Y-179180000D03*
D33*
X111324118Y-179930000D03*
D34*
X111573750Y-179180000D03*
D33*
X111818235Y-179930000D03*
D34*
X112067500Y-179180000D03*
D33*
X112312353Y-179930000D03*
D34*
X112561250Y-179180000D03*
D33*
X112806471Y-179930000D03*
D34*
X113055000Y-179180000D03*
D33*
X113300588Y-179930000D03*
D34*
X113548750Y-179180000D03*
D33*
X113794706Y-179930000D03*
D34*
X114042500Y-179180000D03*
D33*
X114288824Y-179930000D03*
D34*
X114536250Y-179180000D03*
D33*
X114782941Y-179930000D03*
D34*
X115030000Y-179180000D03*
D33*
X115277059Y-179930000D03*
D34*
X115523750Y-179180000D03*
D33*
X115771176Y-179930000D03*
D34*
X116017500Y-179180000D03*
D33*
X116265294Y-179930000D03*
D34*
X116511250Y-179180000D03*
D33*
X116759412Y-179930000D03*
D34*
X117005000Y-179180000D03*
D33*
X117253529Y-179930000D03*
D34*
X117498750Y-179180000D03*
D33*
X117747647Y-179930000D03*
D34*
X117992500Y-179180000D03*
D33*
X118241765Y-179930000D03*
D34*
X118486250Y-179180000D03*
D33*
X118735882Y-179930000D03*
D34*
X118980000Y-179180000D03*
D33*
X119230000Y-179930000D03*
%TD*%
D35*
%TO.C,J5*%
X146285000Y-124265000D03*
D36*
X144155000Y-124265000D03*
D37*
X144155000Y-125725000D03*
D38*
X146285000Y-125725000D03*
%TD*%
D39*
%TO.C,F1*%
X121820000Y-115070000D03*
X121820000Y-113860000D03*
%TD*%
D40*
%TO.C,RV1*%
X148950000Y-111300000D03*
D41*
X146870000Y-107120000D03*
X145040000Y-107100000D03*
X143220000Y-107100000D03*
D40*
X141140000Y-111290000D03*
%TD*%
D42*
%TO.C,R5*%
X119312671Y-121644590D03*
X118601451Y-122623500D03*
%TD*%
D43*
%TO.C,J6*%
X96420000Y-100490000D03*
D44*
X96420000Y-102620000D03*
D45*
X97880000Y-102620000D03*
D46*
X97880000Y-100490000D03*
%TD*%
D47*
%TO.C,R1*%
X106655854Y-114001491D03*
X107349882Y-113010317D03*
%TD*%
D48*
%TO.C,SW3*%
X99435000Y-184435000D03*
X94825000Y-184455000D03*
X99415000Y-188075000D03*
X94825000Y-188115000D03*
%TD*%
D49*
%TO.C,SW4*%
X132700000Y-135650000D03*
X132720000Y-140260000D03*
X136340000Y-135670000D03*
X136380000Y-140260000D03*
%TD*%
M02*
