M48
; DRILL file {KiCad 9.0.3} date 2025-09-15T23:10:25+0300
; FORMAT={-:-/ absolute / metric / decimal}
; #@! TF.CreationDate,2025-09-15T23:10:25+03:00
; #@! TF.GenerationSoftware,Kicad,Pcbnew,9.0.3
; #@! TF.FileFunction,Plated,1,2,PTH
FMAT,2
METRIC
; #@! TA.AperFunction,Plated,PTH,ViaDrill
T1C0.300
; #@! TA.AperFunction,Plated,PTH,ComponentDrill
T2C0.500
%
G90
G05
T1
X109.83Y-127.92
X110.43Y-127.5
X111.21Y-127.12
X111.51Y-128.57
X111.66Y-126.5
X112.51Y-128.56
X113.81Y-126.46
X115.65Y-127.525
X115.915Y-126.435
X116.733Y-128.192
X116.775Y-129.1
X117.84Y-124.91
X119.05Y-124.95
X122.3Y-129.19
X122.97Y-128.57
X123.63Y-127.91
X124.62Y-125.825
X125.225Y-127.25
X125.475Y-124.95
X125.975Y-126.425
X126.175Y-124.3
X129.66Y-122.09
X130.54Y-121.39
T2
X142.11Y-119.28
X142.11Y-122.04
X148.34Y-119.26
T2
X148.34Y-122.05G85X146.34Y-122.05
G05
M30
