%TF.GenerationSoftware,KiCad,Pcbnew,9.0.3*%
%TF.CreationDate,2025-09-15T23:10:18+03:00*%
%TF.ProjectId,Right,52696768-742e-46b6-9963-61645f706362,rev?*%
%TF.SameCoordinates,Original*%
%TF.FileFunction,Profile,NP*%
%FSLAX46Y46*%
G04 Gerber Fmt 4.6, Leading zero omitted, Abs format (unit mm)*
G04 Created by KiCad (PCBNEW 9.0.3) date 2025-09-15 23:10:18*
%MOMM*%
%LPD*%
G01*
G04 APERTURE LIST*
%TA.AperFunction,Profile*%
%ADD10C,0.050000*%
%TD*%
G04 APERTURE END LIST*
D10*
X146030000Y-138025000D02*
G75*
G02*
X144430000Y-138025000I-800000J0D01*
G01*
X144430000Y-138025000D02*
G75*
G02*
X146030000Y-138025000I800000J0D01*
G01*
X115470000Y-117800000D02*
G75*
G02*
X110470000Y-117800000I-2500000J0D01*
G01*
X110470000Y-117800000D02*
G75*
G02*
X115470000Y-117800000I2500000J0D01*
G01*
X132270000Y-100000000D02*
X141480000Y-100000000D01*
X103930000Y-111937000D02*
G75*
G02*
X102330000Y-111937000I-800000J0D01*
G01*
X102330000Y-111937000D02*
G75*
G02*
X103930000Y-111937000I800000J0D01*
G01*
X125700000Y-144100000D02*
G75*
G02*
X124100000Y-144100000I-800000J0D01*
G01*
X124100000Y-144100000D02*
G75*
G02*
X125700000Y-144100000I800000J0D01*
G01*
X137500000Y-125000000D02*
G75*
G02*
X131500000Y-125000000I-3000000J0D01*
G01*
X131500000Y-125000000D02*
G75*
G02*
X137500000Y-125000000I3000000J0D01*
G01*
X88160000Y-171440000D02*
X90160000Y-171440000D01*
X102440000Y-177070000D02*
X102440000Y-151233860D01*
X153000000Y-148000000D02*
X121000000Y-148000000D01*
X82160000Y-171740000D02*
X86160000Y-171740000D01*
X82160000Y-171440000D02*
X86160000Y-171440000D01*
X142030000Y-141480000D02*
X148530000Y-141480000D01*
X148530000Y-146980000D01*
X142030000Y-146980000D01*
X142030000Y-141480000D01*
X88000000Y-180440000D02*
X88000000Y-180140000D01*
X120030000Y-146091573D02*
G75*
G02*
X119444206Y-147505780I-1999900J-27D01*
G01*
X120930000Y-131000000D02*
X140840000Y-131000000D01*
X82160000Y-100000000D02*
X123770000Y-100000000D01*
X92160000Y-171740000D02*
X92160000Y-180440000D01*
X90160000Y-131000000D02*
X90160000Y-171440000D01*
X88160000Y-171740000D02*
G75*
G02*
X88160000Y-171440000I0J150000D01*
G01*
X82160000Y-180440000D02*
X82160000Y-171740000D01*
X146180000Y-128960000D02*
X141120000Y-128960000D01*
X141120000Y-128960000D02*
G75*
G02*
X141120000Y-133490000I0J-2265000D01*
G01*
X146650000Y-111300000D02*
G75*
G02*
X143450000Y-111300000I-1600000J0D01*
G01*
X143450000Y-111300000D02*
G75*
G02*
X146650000Y-111300000I1600000J0D01*
G01*
X109437647Y-143466890D02*
X103032353Y-149813110D01*
X121000000Y-133160000D02*
G75*
G02*
X122800000Y-131360000I1800000J0D01*
G01*
X130470000Y-101800000D02*
G75*
G02*
X132270000Y-100000000I1800000J0D01*
G01*
X122160000Y-109400000D02*
G75*
G02*
X120560000Y-109400000I-800000J0D01*
G01*
X120560000Y-109400000D02*
G75*
G02*
X122160000Y-109400000I800000J0D01*
G01*
X92160000Y-180440000D02*
X88000000Y-180440000D01*
X125700000Y-118900000D02*
G75*
G02*
X124100000Y-118900000I-800000J0D01*
G01*
X124100000Y-118900000D02*
G75*
G02*
X125700000Y-118900000I800000J0D01*
G01*
X86310000Y-180140000D02*
X86310000Y-180440000D01*
X110030000Y-142046140D02*
G75*
G02*
X109437669Y-143466912I-2000200J40D01*
G01*
X88160000Y-171740000D02*
X92160000Y-171740000D01*
X135450000Y-105310000D02*
G75*
G02*
X133850000Y-105310000I-800000J0D01*
G01*
X133850000Y-105310000D02*
G75*
G02*
X135450000Y-105310000I800000J0D01*
G01*
X140830000Y-131360000D02*
X122800000Y-131360000D01*
X102440000Y-151233860D02*
G75*
G02*
X103032331Y-149813088I2000200J-40D01*
G01*
X121000000Y-133160000D02*
X121000000Y-148000000D01*
X120030000Y-131000000D02*
X120030000Y-146091573D01*
X146030000Y-124975000D02*
G75*
G02*
X144430000Y-124975000I-800000J0D01*
G01*
X144430000Y-124975000D02*
G75*
G02*
X146030000Y-124975000I800000J0D01*
G01*
X150530000Y-122975000D02*
G75*
G02*
X148930000Y-122975000I-800000J0D01*
G01*
X148930000Y-122975000D02*
G75*
G02*
X150530000Y-122975000I800000J0D01*
G01*
X153000000Y-105110000D02*
X153000000Y-126000000D01*
X130470000Y-101800000D02*
X125570000Y-101800000D01*
X86160000Y-171440000D02*
G75*
G02*
X86160000Y-171740000I0J-150000D01*
G01*
X120030000Y-131000000D02*
G75*
G02*
X120930000Y-131000000I450000J0D01*
G01*
X86310000Y-180440000D02*
X82160000Y-180440000D01*
X88000000Y-180140000D02*
X86310000Y-180140000D01*
X82160000Y-171440000D02*
X82160000Y-100000000D01*
X146180000Y-128960000D02*
X153000000Y-126000000D01*
X109130000Y-130999997D02*
G75*
G02*
X110030000Y-130999997I450000J0D01*
G01*
X112440000Y-155338427D02*
G75*
G02*
X113025793Y-153924221I1999900J27D01*
G01*
X123770000Y-100000000D02*
G75*
G02*
X125570000Y-101800000I0J-1800000D01*
G01*
X110030000Y-130999997D02*
X110030000Y-142046140D01*
X124260000Y-133790000D02*
G75*
G02*
X123960000Y-133490000I-300000J0D01*
G01*
X112440000Y-177070000D02*
X112440000Y-155338427D01*
X141480000Y-100000000D02*
X153000000Y-105110000D01*
X140840000Y-130999722D02*
G75*
G02*
X140830000Y-131360000I0J-180278D01*
G01*
X153000000Y-133790000D02*
X124260000Y-133790000D01*
X123960000Y-133490000D02*
X141120000Y-133490000D01*
X119444213Y-147505787D02*
X113025786Y-153924214D01*
X108300000Y-127350000D02*
G75*
G02*
X106700000Y-127350000I-800000J0D01*
G01*
X106700000Y-127350000D02*
G75*
G02*
X108300000Y-127350000I800000J0D01*
G01*
X109130000Y-131000000D02*
X90160000Y-131000000D01*
X153000000Y-148000000D02*
X153000000Y-133790000D01*
X127850000Y-128440000D02*
G75*
G02*
X126650000Y-128440000I-600000J0D01*
G01*
X126650000Y-128440000D02*
G75*
G02*
X127850000Y-128440000I600000J0D01*
G01*
%TO.C,J1*%
X101900000Y-178070000D02*
X101900000Y-177070000D01*
X102440000Y-177070000D02*
X101900000Y-177070000D01*
X102900000Y-178070000D02*
X101900000Y-178070000D01*
X102900000Y-180240000D02*
X102900000Y-178070000D01*
X102900000Y-180240000D02*
X111980000Y-180240000D01*
X111980000Y-178070000D02*
X112980000Y-178070000D01*
X111980000Y-180240000D02*
X111980000Y-178070000D01*
X112440000Y-177070000D02*
X112980000Y-177070000D01*
X112980000Y-178070000D02*
X112980000Y-177070000D01*
%TD*%
M02*
