%TF.GenerationSoftware,KiCad,Pcbnew,9.0.3*%
%TF.CreationDate,2025-08-12T13:31:52+03:00*%
%TF.ProjectId,Right,52696768-742e-46b6-9963-61645f706362,rev?*%
%TF.SameCoordinates,Original*%
%TF.FileFunction,Copper,L2,Bot*%
%TF.FilePolarity,Positive*%
%FSLAX46Y46*%
G04 Gerber Fmt 4.6, Leading zero omitted, Abs format (unit mm)*
G04 Created by KiCad (PCBNEW 9.0.3) date 2025-08-12 13:31:52*
%MOMM*%
%LPD*%
G01*
G04 APERTURE LIST*
G04 Aperture macros list*
%AMRoundRect*
0 Rectangle with rounded corners*
0 $1 Rounding radius*
0 $2 $3 $4 $5 $6 $7 $8 $9 X,Y pos of 4 corners*
0 Add a 4 corners polygon primitive as box body*
4,1,4,$2,$3,$4,$5,$6,$7,$8,$9,$2,$3,0*
0 Add four circle primitives for the rounded corners*
1,1,$1+$1,$2,$3*
1,1,$1+$1,$4,$5*
1,1,$1+$1,$6,$7*
1,1,$1+$1,$8,$9*
0 Add four rect primitives between the rounded corners*
20,1,$1+$1,$2,$3,$4,$5,0*
20,1,$1+$1,$4,$5,$6,$7,0*
20,1,$1+$1,$6,$7,$8,$9,0*
20,1,$1+$1,$8,$9,$2,$3,0*%
G04 Aperture macros list end*
%TA.AperFunction,SMDPad,CuDef*%
%ADD10RoundRect,0.200000X-0.300000X0.200000X-0.300000X-0.200000X0.300000X-0.200000X0.300000X0.200000X0*%
%TD*%
%TA.AperFunction,SMDPad,CuDef*%
%ADD11R,2.000000X2.000000*%
%TD*%
%TA.AperFunction,ViaPad*%
%ADD12C,0.500000*%
%TD*%
%TA.AperFunction,Conductor*%
%ADD13C,0.140000*%
%TD*%
G04 APERTURE END LIST*
D10*
%TO.P,D1,1,K*%
%TO.N,Net-(D1-K)*%
X104510000Y-102690000D03*
%TO.P,D1,2,A*%
%TO.N,Net-(D1-A)*%
X104510000Y-104290000D03*
%TD*%
D11*
%TO.P,SW2,1,B*%
%TO.N,Net-(J1-Pin_5)*%
X148340000Y-119260000D03*
X142110000Y-119280000D03*
%TO.P,SW2,2,C*%
%TO.N,Net-(J1-Pin_7)*%
X148340000Y-122050000D03*
%TO.P,SW2,3,A*%
X142110000Y-122040000D03*
%TD*%
D10*
%TO.P,D2,1,K*%
%TO.N,Net-(D2-K)*%
X106120000Y-102670000D03*
%TO.P,D2,2,A*%
%TO.N,Net-(D2-A)*%
X106120000Y-104270000D03*
%TD*%
D12*
%TO.N,Net-(D1-A)*%
X109560000Y-127800000D03*
%TO.N,Net-(D1-K)*%
X109010000Y-128370000D03*
%TO.N,Net-(D2-K)*%
X110790000Y-126480000D03*
%TO.N,Net-(D2-A)*%
X110230000Y-127170000D03*
%TO.N,Net-(J1-Pin_25)*%
X130230000Y-129670000D03*
X116425000Y-128500000D03*
%TO.N,Net-(J1-Pin_23)*%
X119050000Y-124950000D03*
X142040000Y-124260000D03*
X125475000Y-124950000D03*
X132900000Y-129825000D03*
%TO.N,Net-(J1-Pin_26)*%
X116775000Y-129100000D03*
X128825000Y-129100000D03*
%TO.N,Net-(J1-Pin_19)*%
X124620000Y-125825000D03*
X113900000Y-126340000D03*
%TO.N,Net-(J1-Pin_21)*%
X125975000Y-126425000D03*
X116025000Y-126325000D03*
%TO.N,Net-(J1-Pin_22)*%
X125225000Y-127250000D03*
X115650000Y-127525000D03*
%TO.N,Net-(J1-Pin_20)*%
X117840000Y-124910000D03*
X126175000Y-124300000D03*
%TO.N,Net-(J1-Pin_5)*%
X111230000Y-129240000D03*
X145310000Y-119260000D03*
%TO.N,Net-(J1-Pin_7)*%
X145310000Y-122050000D03*
X112175000Y-129275000D03*
%TD*%
D13*
%TO.N,Net-(D1-A)*%
X109500000Y-127740000D02*
X109500000Y-126920000D01*
X105110000Y-104890000D02*
X104510000Y-104290000D01*
X105110000Y-122530000D02*
X105110000Y-104890000D01*
X109560000Y-127800000D02*
X109500000Y-127740000D01*
X109500000Y-126920000D02*
X105110000Y-122530000D01*
%TO.N,Net-(D1-K)*%
X104580000Y-104920000D02*
X104000000Y-104920000D01*
X105170000Y-102030000D02*
X104510000Y-102690000D01*
X109010000Y-126950000D02*
X104750000Y-122690000D01*
X109010000Y-128370000D02*
X109010000Y-126950000D01*
X104400000Y-102690000D02*
X103760000Y-102050000D01*
X103760000Y-101640000D02*
X104010000Y-101390000D01*
X104750000Y-122690000D02*
X104750000Y-105090000D01*
X104750000Y-105090000D02*
X104580000Y-104920000D01*
X103760000Y-102050000D02*
X103760000Y-101640000D01*
X104010000Y-101390000D02*
X104930000Y-101390000D01*
X104000000Y-104920000D02*
X103770000Y-104690000D01*
X105170000Y-101630000D02*
X105170000Y-102030000D01*
X103770000Y-104690000D02*
X103770000Y-103320000D01*
X104930000Y-101390000D02*
X105170000Y-101630000D01*
X103770000Y-103320000D02*
X104400000Y-102690000D01*
%TO.N,Net-(D2-K)*%
X105450000Y-101660000D02*
X105700000Y-101410000D01*
X105840000Y-105040000D02*
X105980000Y-104900000D01*
X105450000Y-102120000D02*
X105450000Y-101660000D01*
X105840000Y-122090000D02*
X105840000Y-105040000D01*
X106120000Y-102670000D02*
X106000000Y-102670000D01*
X106870000Y-103330000D02*
X106210000Y-102670000D01*
X105700000Y-101400000D02*
X106460000Y-101400000D01*
X106710000Y-101650000D02*
X106710000Y-101940000D01*
X106190000Y-102670000D02*
X107020000Y-101840000D01*
X106460000Y-101400000D02*
X106470000Y-101410000D01*
X106870000Y-104640000D02*
X106870000Y-103330000D01*
X110790000Y-126480000D02*
X110230000Y-126480000D01*
X105700000Y-101410000D02*
X105700000Y-101400000D01*
X106210000Y-102670000D02*
X106120000Y-102670000D01*
X106470000Y-101410000D02*
X106710000Y-101650000D01*
X106610000Y-104900000D02*
X106870000Y-104640000D01*
X110230000Y-126480000D02*
X105840000Y-122090000D01*
X106000000Y-102670000D02*
X105450000Y-102120000D01*
X105980000Y-104900000D02*
X106610000Y-104900000D01*
X106120000Y-102670000D02*
X106190000Y-102670000D01*
%TO.N,Net-(D2-A)*%
X110060000Y-126900000D02*
X105500000Y-122340000D01*
X105500000Y-104890000D02*
X106120000Y-104270000D01*
X110060000Y-127000000D02*
X110060000Y-126900000D01*
X110230000Y-127170000D02*
X110060000Y-127000000D01*
X105500000Y-122340000D02*
X105500000Y-104890000D01*
%TO.N,Net-(J1-Pin_25)*%
X129550000Y-128500000D02*
X116425000Y-128500000D01*
X130230000Y-129670000D02*
X130230000Y-129180000D01*
X130230000Y-129180000D02*
X129550000Y-128500000D01*
%TO.N,Net-(J1-Pin_23)*%
X139130000Y-125100000D02*
X139130000Y-127180000D01*
X136485000Y-129825000D02*
X132900000Y-129825000D01*
X142040000Y-124260000D02*
X139970000Y-124260000D01*
X128025000Y-124950000D02*
X132900000Y-129825000D01*
X139130000Y-127180000D02*
X136485000Y-129825000D01*
X119050000Y-124950000D02*
X125475000Y-124950000D01*
X125475000Y-124950000D02*
X128025000Y-124950000D01*
X139970000Y-124260000D02*
X139130000Y-125100000D01*
%TO.N,Net-(J1-Pin_26)*%
X128825000Y-129100000D02*
X116775000Y-129100000D01*
%TO.N,Net-(J1-Pin_19)*%
X124620000Y-125825000D02*
X114450000Y-125825000D01*
X113935000Y-126340000D02*
X113900000Y-126340000D01*
X114450000Y-125825000D02*
X113935000Y-126340000D01*
%TO.N,Net-(J1-Pin_21)*%
X116125000Y-126425000D02*
X116025000Y-126325000D01*
X125975000Y-126425000D02*
X116125000Y-126425000D01*
%TO.N,Net-(J1-Pin_22)*%
X115650000Y-127525000D02*
X115900000Y-127275000D01*
X115900000Y-127275000D02*
X125200000Y-127275000D01*
X125200000Y-127275000D02*
X125225000Y-127250000D01*
%TO.N,Net-(J1-Pin_20)*%
X117840000Y-124910000D02*
X118450000Y-124300000D01*
X118450000Y-124300000D02*
X126175000Y-124300000D01*
%TO.N,Net-(J1-Pin_5)*%
X116300000Y-122450000D02*
X129100000Y-122450000D01*
X142200000Y-119260000D02*
X142180000Y-119280000D01*
X138865000Y-119280000D02*
X138470000Y-119675000D01*
X142110000Y-119280000D02*
X138865000Y-119280000D01*
X142180000Y-119280000D02*
X142110000Y-119280000D01*
X111230000Y-129240000D02*
X111230000Y-127520000D01*
X111230000Y-127520000D02*
X116300000Y-122450000D01*
X131875000Y-119675000D02*
X138470000Y-119675000D01*
X129100000Y-122450000D02*
X131875000Y-119675000D01*
X145310000Y-119260000D02*
X148340000Y-119260000D01*
X145310000Y-119260000D02*
X142200000Y-119260000D01*
%TO.N,Net-(J1-Pin_7)*%
X131950000Y-120175000D02*
X138235000Y-120175000D01*
X140100000Y-122040000D02*
X138235000Y-120175000D01*
X142210000Y-122050000D02*
X142200000Y-122040000D01*
X112175000Y-127125000D02*
X116375000Y-122925000D01*
X116375000Y-122925000D02*
X129200000Y-122925000D01*
X145310000Y-122050000D02*
X148340000Y-122050000D01*
X142110000Y-122040000D02*
X140100000Y-122040000D01*
X129200000Y-122925000D02*
X131950000Y-120175000D01*
X145310000Y-122050000D02*
X142210000Y-122050000D01*
X142200000Y-122040000D02*
X142110000Y-122040000D01*
X112175000Y-129275000D02*
X112175000Y-127125000D01*
%TD*%
%TA.AperFunction,NonConductor*%
G36*
X139672481Y-133519772D02*
G01*
X139718265Y-133572550D01*
X139729500Y-133624125D01*
X139729500Y-146525500D01*
X139709815Y-146592539D01*
X139657011Y-146638294D01*
X139605500Y-146649500D01*
X122224500Y-146649500D01*
X122157461Y-146629815D01*
X122111706Y-146577011D01*
X122100500Y-146525500D01*
X122100500Y-144011304D01*
X123999500Y-144011304D01*
X123999500Y-144188695D01*
X124034103Y-144362658D01*
X124034106Y-144362667D01*
X124101983Y-144526540D01*
X124101990Y-144526553D01*
X124200535Y-144674034D01*
X124200538Y-144674038D01*
X124325961Y-144799461D01*
X124325965Y-144799464D01*
X124473446Y-144898009D01*
X124473459Y-144898016D01*
X124596363Y-144948923D01*
X124637334Y-144965894D01*
X124637336Y-144965894D01*
X124637341Y-144965896D01*
X124811304Y-145000499D01*
X124811307Y-145000500D01*
X124811309Y-145000500D01*
X124988693Y-145000500D01*
X124988694Y-145000499D01*
X125046682Y-144988964D01*
X125162658Y-144965896D01*
X125162661Y-144965894D01*
X125162666Y-144965894D01*
X125326547Y-144898013D01*
X125474035Y-144799464D01*
X125599464Y-144674035D01*
X125698013Y-144526547D01*
X125765894Y-144362666D01*
X125800500Y-144188691D01*
X125800500Y-144011309D01*
X125800500Y-144011306D01*
X125800499Y-144011304D01*
X125765896Y-143837341D01*
X125765893Y-143837332D01*
X125698016Y-143673459D01*
X125698009Y-143673446D01*
X125599464Y-143525965D01*
X125599461Y-143525961D01*
X125474038Y-143400538D01*
X125474034Y-143400535D01*
X125326553Y-143301990D01*
X125326540Y-143301983D01*
X125162667Y-143234106D01*
X125162658Y-143234103D01*
X124988694Y-143199500D01*
X124988691Y-143199500D01*
X124811309Y-143199500D01*
X124811306Y-143199500D01*
X124637341Y-143234103D01*
X124637332Y-143234106D01*
X124473459Y-143301983D01*
X124473446Y-143301990D01*
X124325965Y-143400535D01*
X124325961Y-143400538D01*
X124200538Y-143525961D01*
X124200535Y-143525965D01*
X124101990Y-143673446D01*
X124101983Y-143673459D01*
X124034106Y-143837332D01*
X124034103Y-143837341D01*
X123999500Y-144011304D01*
X122100500Y-144011304D01*
X122100500Y-137911304D01*
X133599500Y-137911304D01*
X133599500Y-138088695D01*
X133634103Y-138262658D01*
X133634106Y-138262667D01*
X133701983Y-138426540D01*
X133701990Y-138426553D01*
X133800535Y-138574034D01*
X133800538Y-138574038D01*
X133925961Y-138699461D01*
X133925965Y-138699464D01*
X134073446Y-138798009D01*
X134073459Y-138798016D01*
X134196363Y-138848923D01*
X134237334Y-138865894D01*
X134237336Y-138865894D01*
X134237341Y-138865896D01*
X134411304Y-138900499D01*
X134411307Y-138900500D01*
X134411309Y-138900500D01*
X134588693Y-138900500D01*
X134588694Y-138900499D01*
X134646682Y-138888964D01*
X134762658Y-138865896D01*
X134762661Y-138865894D01*
X134762666Y-138865894D01*
X134926547Y-138798013D01*
X135074035Y-138699464D01*
X135199464Y-138574035D01*
X135298013Y-138426547D01*
X135365894Y-138262666D01*
X135400500Y-138088691D01*
X135400500Y-137911309D01*
X135400500Y-137911306D01*
X135400499Y-137911304D01*
X135365896Y-137737341D01*
X135365893Y-137737332D01*
X135298016Y-137573459D01*
X135298009Y-137573446D01*
X135199464Y-137425965D01*
X135199461Y-137425961D01*
X135074038Y-137300538D01*
X135074034Y-137300535D01*
X134926553Y-137201990D01*
X134926540Y-137201983D01*
X134762667Y-137134106D01*
X134762658Y-137134103D01*
X134588694Y-137099500D01*
X134588691Y-137099500D01*
X134411309Y-137099500D01*
X134411306Y-137099500D01*
X134237341Y-137134103D01*
X134237332Y-137134106D01*
X134073459Y-137201983D01*
X134073446Y-137201990D01*
X133925965Y-137300535D01*
X133925961Y-137300538D01*
X133800538Y-137425961D01*
X133800535Y-137425965D01*
X133701990Y-137573446D01*
X133701983Y-137573459D01*
X133634106Y-137737332D01*
X133634103Y-137737341D01*
X133599500Y-137911304D01*
X122100500Y-137911304D01*
X122100500Y-133633867D01*
X122120185Y-133566828D01*
X122172989Y-133521073D01*
X122224424Y-133509868D01*
X139605432Y-133500125D01*
X139672481Y-133519772D01*
G37*
%TD.AperFunction*%
%TA.AperFunction,NonConductor*%
G36*
X140552540Y-119870185D02*
G01*
X140598295Y-119922989D01*
X140609501Y-119974500D01*
X140609501Y-120327876D01*
X140615908Y-120387483D01*
X140666202Y-120522328D01*
X140666203Y-120522330D01*
X140713634Y-120585689D01*
X140738051Y-120651153D01*
X140723200Y-120719426D01*
X140713634Y-120734311D01*
X140666203Y-120797669D01*
X140666202Y-120797671D01*
X140615908Y-120932517D01*
X140609501Y-120992116D01*
X140609501Y-120992123D01*
X140609500Y-120992135D01*
X140609500Y-121345500D01*
X140606949Y-121354185D01*
X140608238Y-121363147D01*
X140597259Y-121387187D01*
X140589815Y-121412539D01*
X140582974Y-121418466D01*
X140579213Y-121426703D01*
X140556978Y-121440992D01*
X140537011Y-121458294D01*
X140526496Y-121460581D01*
X140520435Y-121464477D01*
X140485500Y-121469500D01*
X140387671Y-121469500D01*
X140320632Y-121449815D01*
X140299990Y-121433181D01*
X138996990Y-120130181D01*
X138963505Y-120068858D01*
X138968489Y-119999166D01*
X138996990Y-119954819D01*
X139064990Y-119886819D01*
X139126313Y-119853334D01*
X139152671Y-119850500D01*
X140485501Y-119850500D01*
X140552540Y-119870185D01*
G37*
%TD.AperFunction*%
%TA.AperFunction,NonConductor*%
G36*
X144728263Y-119839071D02*
G01*
X145063578Y-119970663D01*
X145063584Y-119970665D01*
X145063589Y-119970667D01*
X145065116Y-119971191D01*
X145065565Y-119971345D01*
X145072762Y-119974068D01*
X145091082Y-119981656D01*
X145091087Y-119981658D01*
X145094740Y-119982384D01*
X145105681Y-119985082D01*
X145106962Y-119985461D01*
X145152789Y-119994287D01*
X145208849Y-120005085D01*
X145209523Y-120005216D01*
X145223997Y-120008096D01*
X145236081Y-120010500D01*
X145236082Y-120010500D01*
X145383920Y-120010500D01*
X145528908Y-119981659D01*
X145528908Y-119981658D01*
X145528913Y-119981658D01*
X145547354Y-119974019D01*
X145554014Y-119971607D01*
X145891735Y-119839071D01*
X145937034Y-119830500D01*
X146715501Y-119830500D01*
X146782540Y-119850185D01*
X146828295Y-119902989D01*
X146839501Y-119954500D01*
X146839501Y-120307876D01*
X146845908Y-120367483D01*
X146896202Y-120502328D01*
X146896203Y-120502330D01*
X146954863Y-120580689D01*
X146979280Y-120646153D01*
X146964429Y-120714426D01*
X146954863Y-120729311D01*
X146896203Y-120807669D01*
X146896202Y-120807671D01*
X146845908Y-120942517D01*
X146840575Y-120992127D01*
X146839501Y-121002123D01*
X146839500Y-121002135D01*
X146839500Y-121355500D01*
X146819815Y-121422539D01*
X146767011Y-121468294D01*
X146715500Y-121479500D01*
X145937037Y-121479500D01*
X145891737Y-121470929D01*
X145556407Y-121339331D01*
X145554622Y-121338717D01*
X145554267Y-121338596D01*
X145550782Y-121337400D01*
X145528913Y-121328342D01*
X145518151Y-121326201D01*
X145514954Y-121325104D01*
X145513011Y-121324530D01*
X145512693Y-121324468D01*
X145512688Y-121324467D01*
X145411309Y-121304945D01*
X145410571Y-121304800D01*
X145383923Y-121299500D01*
X145383918Y-121299500D01*
X145236082Y-121299500D01*
X145236080Y-121299500D01*
X145091089Y-121328341D01*
X145072658Y-121335975D01*
X145065927Y-121338415D01*
X145002907Y-121363147D01*
X144728262Y-121470929D01*
X144682964Y-121479500D01*
X143734499Y-121479500D01*
X143667460Y-121459815D01*
X143621705Y-121407011D01*
X143610499Y-121355500D01*
X143610499Y-120992129D01*
X143610498Y-120992123D01*
X143610497Y-120992116D01*
X143604091Y-120932517D01*
X143553796Y-120797669D01*
X143506365Y-120734310D01*
X143481949Y-120668847D01*
X143496800Y-120600574D01*
X143506366Y-120585689D01*
X143510109Y-120580689D01*
X143553796Y-120522331D01*
X143604091Y-120387483D01*
X143610500Y-120327873D01*
X143610500Y-119954500D01*
X143630185Y-119887461D01*
X143682989Y-119841706D01*
X143734500Y-119830500D01*
X144682964Y-119830500D01*
X144728263Y-119839071D01*
G37*
%TD.AperFunction*%
%TA.AperFunction,NonConductor*%
G36*
X118373358Y-123515185D02*
G01*
X118419113Y-123567989D01*
X118429057Y-123637147D01*
X118400032Y-123700703D01*
X118341254Y-123738477D01*
X118338440Y-123739266D01*
X118294023Y-123751168D01*
X118229793Y-123768378D01*
X118099705Y-123843486D01*
X117879978Y-124063212D01*
X117841887Y-124089182D01*
X117511712Y-124233246D01*
X117510041Y-124234063D01*
X117509580Y-124234290D01*
X117506394Y-124235849D01*
X117484505Y-124244916D01*
X117475308Y-124251060D01*
X117472055Y-124252653D01*
X117470278Y-124253621D01*
X117470097Y-124253743D01*
X117470094Y-124253745D01*
X117385894Y-124310801D01*
X117385228Y-124311250D01*
X117361586Y-124327047D01*
X117257047Y-124431585D01*
X117174919Y-124554498D01*
X117174912Y-124554511D01*
X117118343Y-124691082D01*
X117118340Y-124691092D01*
X117089500Y-124836079D01*
X117089500Y-124836082D01*
X117089500Y-124983918D01*
X117089500Y-124983920D01*
X117089499Y-124983920D01*
X117113845Y-125106308D01*
X117107618Y-125175900D01*
X117064755Y-125231077D01*
X116998866Y-125254322D01*
X116992228Y-125254500D01*
X115151671Y-125254500D01*
X115084632Y-125234815D01*
X115038877Y-125182011D01*
X115028933Y-125112853D01*
X115057958Y-125049297D01*
X115063990Y-125042819D01*
X116574990Y-123531819D01*
X116636313Y-123498334D01*
X116662671Y-123495500D01*
X118306319Y-123495500D01*
X118373358Y-123515185D01*
G37*
%TD.AperFunction*%
%TA.AperFunction,NonConductor*%
G36*
X138014368Y-120765185D02*
G01*
X138035010Y-120781819D01*
X139643486Y-122390295D01*
X139749705Y-122496514D01*
X139879795Y-122571622D01*
X140024892Y-122610500D01*
X140485501Y-122610500D01*
X140552540Y-122630185D01*
X140598295Y-122682989D01*
X140609501Y-122734500D01*
X140609501Y-123087876D01*
X140615908Y-123147483D01*
X140666202Y-123282328D01*
X140666206Y-123282335D01*
X140752452Y-123397544D01*
X140752455Y-123397547D01*
X140844208Y-123466234D01*
X140886079Y-123522168D01*
X140891063Y-123591859D01*
X140857577Y-123653182D01*
X140796254Y-123686666D01*
X140769897Y-123689500D01*
X139894892Y-123689500D01*
X139749793Y-123728378D01*
X139619705Y-123803486D01*
X139619702Y-123803488D01*
X138673488Y-124749702D01*
X138673486Y-124749705D01*
X138598378Y-124879793D01*
X138559500Y-125024892D01*
X138559500Y-126892329D01*
X138539815Y-126959368D01*
X138523181Y-126980010D01*
X136285010Y-129218181D01*
X136223687Y-129251666D01*
X136197329Y-129254500D01*
X133527037Y-129254500D01*
X133481737Y-129245929D01*
X133367454Y-129201079D01*
X133189834Y-129131372D01*
X133185566Y-129129605D01*
X133017067Y-129056086D01*
X132898112Y-129004183D01*
X132860020Y-128978211D01*
X128707684Y-124825875D01*
X131399500Y-124825875D01*
X131399500Y-125174124D01*
X131438489Y-125520158D01*
X131438491Y-125520170D01*
X131515982Y-125859684D01*
X131515985Y-125859692D01*
X131630999Y-126188382D01*
X131782092Y-126502130D01*
X131967371Y-126796999D01*
X131967372Y-126797001D01*
X132184487Y-127069256D01*
X132430743Y-127315512D01*
X132702998Y-127532627D01*
X132703001Y-127532628D01*
X132703003Y-127532630D01*
X132997867Y-127717906D01*
X133311621Y-127869002D01*
X133558488Y-127955384D01*
X133640307Y-127984014D01*
X133640315Y-127984017D01*
X133640318Y-127984017D01*
X133640319Y-127984018D01*
X133979829Y-128061509D01*
X134325876Y-128100499D01*
X134325877Y-128100500D01*
X134325880Y-128100500D01*
X134674123Y-128100500D01*
X134674123Y-128100499D01*
X135020171Y-128061509D01*
X135359681Y-127984018D01*
X135688379Y-127869002D01*
X136002133Y-127717906D01*
X136296997Y-127532630D01*
X136376896Y-127468913D01*
X136569256Y-127315512D01*
X136569258Y-127315509D01*
X136569263Y-127315506D01*
X136815506Y-127069263D01*
X136821573Y-127061656D01*
X137032627Y-126797001D01*
X137032628Y-126796999D01*
X137032630Y-126796997D01*
X137217906Y-126502133D01*
X137369002Y-126188379D01*
X137484018Y-125859681D01*
X137561509Y-125520171D01*
X137600500Y-125174120D01*
X137600500Y-124825880D01*
X137561509Y-124479829D01*
X137484018Y-124140319D01*
X137466124Y-124089182D01*
X137415500Y-123944505D01*
X137369002Y-123811621D01*
X137238437Y-123540500D01*
X137217907Y-123497869D01*
X137217536Y-123497279D01*
X137032630Y-123203003D01*
X137032628Y-123203000D01*
X137032627Y-123202998D01*
X136815512Y-122930743D01*
X136569256Y-122684487D01*
X136297001Y-122467372D01*
X136296999Y-122467371D01*
X136002130Y-122282092D01*
X135688382Y-122130999D01*
X135359692Y-122015985D01*
X135359684Y-122015982D01*
X135105048Y-121957863D01*
X135020171Y-121938491D01*
X135020167Y-121938490D01*
X135020158Y-121938489D01*
X134674124Y-121899500D01*
X134674120Y-121899500D01*
X134325880Y-121899500D01*
X134325875Y-121899500D01*
X133979841Y-121938489D01*
X133979829Y-121938491D01*
X133640315Y-122015982D01*
X133640307Y-122015985D01*
X133311617Y-122130999D01*
X132997869Y-122282092D01*
X132703000Y-122467371D01*
X132702998Y-122467372D01*
X132430743Y-122684487D01*
X132184487Y-122930743D01*
X131967372Y-123202998D01*
X131967371Y-123203000D01*
X131782092Y-123497869D01*
X131630999Y-123811617D01*
X131515985Y-124140307D01*
X131515982Y-124140315D01*
X131438491Y-124479829D01*
X131438489Y-124479841D01*
X131399500Y-124825875D01*
X128707684Y-124825875D01*
X128375297Y-124493488D01*
X128375295Y-124493486D01*
X128310250Y-124455932D01*
X128245206Y-124418378D01*
X128172656Y-124398939D01*
X128100108Y-124379500D01*
X128100107Y-124379500D01*
X127049500Y-124379500D01*
X126982461Y-124359815D01*
X126936706Y-124307011D01*
X126925500Y-124255500D01*
X126925500Y-124226079D01*
X126896659Y-124081092D01*
X126896658Y-124081091D01*
X126896658Y-124081087D01*
X126880092Y-124041092D01*
X126840087Y-123944511D01*
X126840080Y-123944498D01*
X126757951Y-123821584D01*
X126757948Y-123821580D01*
X126653419Y-123717051D01*
X126651351Y-123715354D01*
X126650558Y-123714190D01*
X126649109Y-123712741D01*
X126649383Y-123712466D01*
X126612016Y-123657609D01*
X126610145Y-123587764D01*
X126646332Y-123527995D01*
X126709087Y-123497279D01*
X126730015Y-123495500D01*
X129275106Y-123495500D01*
X129275108Y-123495500D01*
X129420205Y-123456622D01*
X129550295Y-123381514D01*
X132149990Y-120781819D01*
X132211313Y-120748334D01*
X132237671Y-120745500D01*
X137947329Y-120745500D01*
X138014368Y-120765185D01*
G37*
%TD.AperFunction*%
%TA.AperFunction,NonConductor*%
G36*
X150843169Y-100120185D02*
G01*
X150888924Y-100172989D01*
X150900129Y-100224406D01*
X150906432Y-108700535D01*
X150919891Y-126804175D01*
X150918548Y-126808758D01*
X150919552Y-126813428D01*
X150908823Y-126841970D01*
X150900256Y-126871229D01*
X150896649Y-126874358D01*
X150894969Y-126878830D01*
X150869948Y-126903723D01*
X150857580Y-126912932D01*
X150853071Y-126914800D01*
X150847236Y-126920634D01*
X150839992Y-126926029D01*
X150774466Y-126950279D01*
X150766398Y-126950572D01*
X140382843Y-126989317D01*
X140315730Y-126969883D01*
X140295480Y-126950062D01*
X140293836Y-126951707D01*
X140256928Y-126914799D01*
X140219992Y-126899500D01*
X140219991Y-126899500D01*
X139849991Y-126899500D01*
X139824500Y-126899500D01*
X139757461Y-126879815D01*
X139711706Y-126827011D01*
X139700500Y-126775500D01*
X139700500Y-125387671D01*
X139720185Y-125320632D01*
X139736819Y-125299990D01*
X140169990Y-124866819D01*
X140231313Y-124833334D01*
X140257671Y-124830500D01*
X141412964Y-124830500D01*
X141458263Y-124839071D01*
X141793578Y-124970663D01*
X141793584Y-124970665D01*
X141793589Y-124970667D01*
X141799210Y-124972596D01*
X141821087Y-124981658D01*
X141831847Y-124983798D01*
X141835016Y-124984886D01*
X141836962Y-124985461D01*
X141867534Y-124991349D01*
X141938849Y-125005085D01*
X141939523Y-125005216D01*
X141953997Y-125008096D01*
X141966081Y-125010500D01*
X141966082Y-125010500D01*
X142113920Y-125010500D01*
X142211462Y-124991096D01*
X142258913Y-124981658D01*
X142395495Y-124925084D01*
X142453534Y-124886304D01*
X144329500Y-124886304D01*
X144329500Y-125063695D01*
X144364103Y-125237658D01*
X144364106Y-125237667D01*
X144431983Y-125401540D01*
X144431990Y-125401553D01*
X144530535Y-125549034D01*
X144530538Y-125549038D01*
X144655961Y-125674461D01*
X144655965Y-125674464D01*
X144803446Y-125773009D01*
X144803459Y-125773016D01*
X144904607Y-125814912D01*
X144967334Y-125840894D01*
X144967336Y-125840894D01*
X144967341Y-125840896D01*
X145141304Y-125875499D01*
X145141307Y-125875500D01*
X145141309Y-125875500D01*
X145318693Y-125875500D01*
X145318694Y-125875499D01*
X145398218Y-125859681D01*
X145492658Y-125840896D01*
X145492661Y-125840894D01*
X145492666Y-125840894D01*
X145632535Y-125782958D01*
X145656540Y-125773016D01*
X145656540Y-125773015D01*
X145656547Y-125773013D01*
X145804035Y-125674464D01*
X145929464Y-125549035D01*
X146028013Y-125401547D01*
X146095894Y-125237666D01*
X146096462Y-125234815D01*
X146130499Y-125063695D01*
X146130500Y-125063693D01*
X146130500Y-124886306D01*
X146130499Y-124886304D01*
X146095896Y-124712341D01*
X146095893Y-124712332D01*
X146028016Y-124548459D01*
X146028009Y-124548446D01*
X145929464Y-124400965D01*
X145929461Y-124400961D01*
X145804038Y-124275538D01*
X145804034Y-124275535D01*
X145656553Y-124176990D01*
X145656540Y-124176983D01*
X145492667Y-124109106D01*
X145492658Y-124109103D01*
X145318694Y-124074500D01*
X145318691Y-124074500D01*
X145141309Y-124074500D01*
X145141306Y-124074500D01*
X144967341Y-124109103D01*
X144967332Y-124109106D01*
X144803459Y-124176983D01*
X144803446Y-124176990D01*
X144655965Y-124275535D01*
X144655961Y-124275538D01*
X144530538Y-124400961D01*
X144530535Y-124400965D01*
X144431990Y-124548446D01*
X144431983Y-124548459D01*
X144364106Y-124712332D01*
X144364103Y-124712341D01*
X144329500Y-124886304D01*
X142453534Y-124886304D01*
X142518416Y-124842951D01*
X142535492Y-124825875D01*
X142568832Y-124792536D01*
X142622948Y-124738419D01*
X142622951Y-124738416D01*
X142705084Y-124615495D01*
X142761658Y-124478913D01*
X142771096Y-124431462D01*
X142790500Y-124333920D01*
X142790500Y-124186079D01*
X142761659Y-124041092D01*
X142761658Y-124041091D01*
X142761658Y-124041087D01*
X142721650Y-123944498D01*
X142705087Y-123904511D01*
X142705080Y-123904498D01*
X142622951Y-123781584D01*
X142622948Y-123781580D01*
X142593548Y-123752180D01*
X142560063Y-123690857D01*
X142565047Y-123621165D01*
X142606919Y-123565232D01*
X142672383Y-123540815D01*
X142681229Y-123540499D01*
X143157871Y-123540499D01*
X143157872Y-123540499D01*
X143217483Y-123534091D01*
X143352331Y-123483796D01*
X143467546Y-123397546D01*
X143553796Y-123282331D01*
X143604091Y-123147483D01*
X143610500Y-123087873D01*
X143610500Y-122744500D01*
X143630185Y-122677461D01*
X143682989Y-122631706D01*
X143734500Y-122620500D01*
X144682964Y-122620500D01*
X144728263Y-122629071D01*
X145063578Y-122760663D01*
X145063584Y-122760665D01*
X145063589Y-122760667D01*
X145069210Y-122762596D01*
X145091087Y-122771658D01*
X145101847Y-122773798D01*
X145105016Y-122774886D01*
X145106962Y-122775461D01*
X145137534Y-122781349D01*
X145208849Y-122795085D01*
X145209523Y-122795216D01*
X145223997Y-122798096D01*
X145236081Y-122800500D01*
X145236082Y-122800500D01*
X145383920Y-122800500D01*
X145528908Y-122771659D01*
X145528908Y-122771658D01*
X145528913Y-122771658D01*
X145547354Y-122764019D01*
X145554014Y-122761607D01*
X145891735Y-122629071D01*
X145937034Y-122620500D01*
X146715501Y-122620500D01*
X146782540Y-122640185D01*
X146828295Y-122692989D01*
X146839501Y-122744500D01*
X146839501Y-123097876D01*
X146845908Y-123157483D01*
X146896202Y-123292328D01*
X146896206Y-123292335D01*
X146982452Y-123407544D01*
X146982455Y-123407547D01*
X147097664Y-123493793D01*
X147097671Y-123493797D01*
X147232517Y-123544091D01*
X147232516Y-123544091D01*
X147239444Y-123544835D01*
X147292127Y-123550500D01*
X148980637Y-123550499D01*
X149047676Y-123570184D01*
X149068318Y-123586818D01*
X149155961Y-123674461D01*
X149155965Y-123674464D01*
X149303446Y-123773009D01*
X149303459Y-123773016D01*
X149396652Y-123811617D01*
X149467334Y-123840894D01*
X149467336Y-123840894D01*
X149467341Y-123840896D01*
X149641304Y-123875499D01*
X149641307Y-123875500D01*
X149641309Y-123875500D01*
X149818693Y-123875500D01*
X149818694Y-123875499D01*
X149876682Y-123863964D01*
X149992658Y-123840896D01*
X149992661Y-123840894D01*
X149992666Y-123840894D01*
X150156547Y-123773013D01*
X150304035Y-123674464D01*
X150429464Y-123549035D01*
X150528013Y-123401547D01*
X150595894Y-123237666D01*
X150611844Y-123157483D01*
X150630499Y-123063695D01*
X150630500Y-123063693D01*
X150630500Y-122886306D01*
X150630499Y-122886304D01*
X150595896Y-122712341D01*
X150595893Y-122712332D01*
X150584359Y-122684487D01*
X150555533Y-122614892D01*
X150528016Y-122548459D01*
X150528009Y-122548446D01*
X150429464Y-122400965D01*
X150429461Y-122400961D01*
X150304038Y-122275538D01*
X150304034Y-122275535D01*
X150156553Y-122176990D01*
X150156540Y-122176983D01*
X149992667Y-122109106D01*
X149992661Y-122109104D01*
X149940306Y-122098690D01*
X149878396Y-122066304D01*
X149843822Y-122005588D01*
X149840499Y-121977073D01*
X149840499Y-121002129D01*
X149840498Y-121002123D01*
X149840497Y-121002116D01*
X149834091Y-120942517D01*
X149830361Y-120932517D01*
X149783797Y-120807671D01*
X149783796Y-120807669D01*
X149725137Y-120729311D01*
X149700720Y-120663847D01*
X149715571Y-120595574D01*
X149725137Y-120580689D01*
X149783796Y-120502331D01*
X149834091Y-120367483D01*
X149840500Y-120307873D01*
X149840499Y-118212128D01*
X149834091Y-118152517D01*
X149791256Y-118037671D01*
X149783797Y-118017671D01*
X149783793Y-118017664D01*
X149697547Y-117902455D01*
X149697544Y-117902452D01*
X149582335Y-117816206D01*
X149582328Y-117816202D01*
X149447482Y-117765908D01*
X149447483Y-117765908D01*
X149387883Y-117759501D01*
X149387881Y-117759500D01*
X149387873Y-117759500D01*
X149387864Y-117759500D01*
X147292129Y-117759500D01*
X147292123Y-117759501D01*
X147232516Y-117765908D01*
X147097671Y-117816202D01*
X147097664Y-117816206D01*
X146982455Y-117902452D01*
X146982452Y-117902455D01*
X146896206Y-118017664D01*
X146896202Y-118017671D01*
X146845908Y-118152517D01*
X146840746Y-118200535D01*
X146839501Y-118212123D01*
X146839500Y-118212135D01*
X146839500Y-118565500D01*
X146819815Y-118632539D01*
X146767011Y-118678294D01*
X146715500Y-118689500D01*
X145937037Y-118689500D01*
X145891737Y-118680929D01*
X145556407Y-118549331D01*
X145554622Y-118548717D01*
X145554267Y-118548596D01*
X145550782Y-118547400D01*
X145528913Y-118538342D01*
X145518151Y-118536201D01*
X145514954Y-118535104D01*
X145513011Y-118534530D01*
X145512693Y-118534468D01*
X145512688Y-118534467D01*
X145411309Y-118514945D01*
X145410571Y-118514800D01*
X145383923Y-118509500D01*
X145383918Y-118509500D01*
X145236082Y-118509500D01*
X145236080Y-118509500D01*
X145091089Y-118538341D01*
X145072658Y-118545975D01*
X145065927Y-118548415D01*
X144971430Y-118585500D01*
X144728262Y-118680929D01*
X144682964Y-118689500D01*
X143734499Y-118689500D01*
X143667460Y-118669815D01*
X143621705Y-118617011D01*
X143610499Y-118565500D01*
X143610499Y-118232129D01*
X143610498Y-118232123D01*
X143610497Y-118232116D01*
X143604091Y-118172517D01*
X143596631Y-118152517D01*
X143553797Y-118037671D01*
X143553793Y-118037664D01*
X143467547Y-117922455D01*
X143467544Y-117922452D01*
X143352335Y-117836206D01*
X143352328Y-117836202D01*
X143217482Y-117785908D01*
X143217483Y-117785908D01*
X143157883Y-117779501D01*
X143157881Y-117779500D01*
X143157873Y-117779500D01*
X143157864Y-117779500D01*
X141062129Y-117779500D01*
X141062123Y-117779501D01*
X141002516Y-117785908D01*
X140867671Y-117836202D01*
X140867664Y-117836206D01*
X140752455Y-117922452D01*
X140752452Y-117922455D01*
X140666206Y-118037664D01*
X140666202Y-118037671D01*
X140615908Y-118172517D01*
X140611650Y-118212127D01*
X140609501Y-118232123D01*
X140609500Y-118232135D01*
X140609500Y-118585500D01*
X140589815Y-118652539D01*
X140537011Y-118698294D01*
X140485500Y-118709500D01*
X138789892Y-118709500D01*
X138644793Y-118748378D01*
X138514705Y-118823486D01*
X138514702Y-118823488D01*
X138270010Y-119068181D01*
X138208687Y-119101666D01*
X138182329Y-119104500D01*
X131799892Y-119104500D01*
X131654793Y-119143378D01*
X131524705Y-119218486D01*
X131524702Y-119218488D01*
X128900010Y-121843181D01*
X128838687Y-121876666D01*
X128812329Y-121879500D01*
X116224892Y-121879500D01*
X116079793Y-121918378D01*
X115949705Y-121993486D01*
X115949702Y-121993488D01*
X111692804Y-126250385D01*
X111631481Y-126283870D01*
X111561789Y-126278886D01*
X111505856Y-126237014D01*
X111490562Y-126210156D01*
X111455087Y-126124511D01*
X111455080Y-126124498D01*
X111372951Y-126001584D01*
X111372948Y-126001580D01*
X111268419Y-125897051D01*
X111268415Y-125897048D01*
X111145501Y-125814919D01*
X111145488Y-125814912D01*
X111008917Y-125758343D01*
X111008907Y-125758340D01*
X110863920Y-125729500D01*
X110863918Y-125729500D01*
X110716082Y-125729500D01*
X110716080Y-125729500D01*
X110571088Y-125758341D01*
X110571084Y-125758342D01*
X110552657Y-125765975D01*
X110550248Y-125766943D01*
X110544928Y-125769016D01*
X110543591Y-125769332D01*
X110463804Y-125800643D01*
X110463074Y-125800928D01*
X110462998Y-125800959D01*
X110462997Y-125800959D01*
X110462741Y-125801059D01*
X110428070Y-125804053D01*
X110393400Y-125807125D01*
X110393273Y-125807058D01*
X110393131Y-125807071D01*
X110362527Y-125790940D01*
X110331518Y-125774685D01*
X110331325Y-125774495D01*
X110331321Y-125774493D01*
X110331318Y-125774488D01*
X110330019Y-125773210D01*
X106446819Y-121890010D01*
X106413334Y-121828687D01*
X106410500Y-121802329D01*
X106410500Y-117653952D01*
X110369500Y-117653952D01*
X110369500Y-117946047D01*
X110402199Y-118236271D01*
X110402202Y-118236285D01*
X110467196Y-118521044D01*
X110467197Y-118521046D01*
X110563665Y-118796738D01*
X110690393Y-119059890D01*
X110690395Y-119059893D01*
X110845792Y-119307206D01*
X111027902Y-119535565D01*
X111234435Y-119742098D01*
X111462794Y-119924208D01*
X111710107Y-120079605D01*
X111973263Y-120206335D01*
X112248955Y-120302803D01*
X112533714Y-120367798D01*
X112533723Y-120367799D01*
X112533728Y-120367800D01*
X112708418Y-120387482D01*
X112823953Y-120400499D01*
X112823956Y-120400500D01*
X112823959Y-120400500D01*
X113116044Y-120400500D01*
X113116045Y-120400499D01*
X113264371Y-120383787D01*
X113406271Y-120367800D01*
X113406274Y-120367799D01*
X113406286Y-120367798D01*
X113691045Y-120302803D01*
X113966737Y-120206335D01*
X114229893Y-120079605D01*
X114477206Y-119924208D01*
X114705565Y-119742098D01*
X114912098Y-119535565D01*
X115094208Y-119307206D01*
X115249605Y-119059893D01*
X115369320Y-118811304D01*
X123999500Y-118811304D01*
X123999500Y-118988695D01*
X124034103Y-119162658D01*
X124034106Y-119162667D01*
X124101983Y-119326540D01*
X124101990Y-119326553D01*
X124200535Y-119474034D01*
X124200538Y-119474038D01*
X124325961Y-119599461D01*
X124325965Y-119599464D01*
X124473446Y-119698009D01*
X124473459Y-119698016D01*
X124579885Y-119742098D01*
X124637334Y-119765894D01*
X124637336Y-119765894D01*
X124637341Y-119765896D01*
X124811304Y-119800499D01*
X124811307Y-119800500D01*
X124811309Y-119800500D01*
X124988693Y-119800500D01*
X124988694Y-119800499D01*
X125046682Y-119788964D01*
X125162658Y-119765896D01*
X125162661Y-119765894D01*
X125162666Y-119765894D01*
X125326547Y-119698013D01*
X125474035Y-119599464D01*
X125599464Y-119474035D01*
X125698013Y-119326547D01*
X125765894Y-119162666D01*
X125800500Y-118988691D01*
X125800500Y-118811309D01*
X125800500Y-118811306D01*
X125800499Y-118811304D01*
X125765896Y-118637341D01*
X125765893Y-118637332D01*
X125698016Y-118473459D01*
X125698009Y-118473446D01*
X125599464Y-118325965D01*
X125599461Y-118325961D01*
X125474038Y-118200538D01*
X125474034Y-118200535D01*
X125326553Y-118101990D01*
X125326540Y-118101983D01*
X125162667Y-118034106D01*
X125162658Y-118034103D01*
X124988694Y-117999500D01*
X124988691Y-117999500D01*
X124811309Y-117999500D01*
X124811306Y-117999500D01*
X124637341Y-118034103D01*
X124637332Y-118034106D01*
X124473459Y-118101983D01*
X124473446Y-118101990D01*
X124325965Y-118200535D01*
X124325961Y-118200538D01*
X124200538Y-118325961D01*
X124200535Y-118325965D01*
X124101990Y-118473446D01*
X124101983Y-118473459D01*
X124034106Y-118637332D01*
X124034103Y-118637341D01*
X123999500Y-118811304D01*
X115369320Y-118811304D01*
X115376335Y-118796737D01*
X115472803Y-118521045D01*
X115537798Y-118236286D01*
X115538267Y-118232129D01*
X115562429Y-118017671D01*
X115570500Y-117946041D01*
X115570500Y-117653959D01*
X115537798Y-117363714D01*
X115472803Y-117078955D01*
X115376335Y-116803263D01*
X115249605Y-116540107D01*
X115094208Y-116292794D01*
X114912098Y-116064435D01*
X114705565Y-115857902D01*
X114477206Y-115675792D01*
X114229893Y-115520395D01*
X114229890Y-115520393D01*
X113966738Y-115393665D01*
X113691046Y-115297197D01*
X113691044Y-115297196D01*
X113471280Y-115247036D01*
X113406286Y-115232202D01*
X113406283Y-115232201D01*
X113406271Y-115232199D01*
X113116047Y-115199500D01*
X113116041Y-115199500D01*
X112823959Y-115199500D01*
X112823952Y-115199500D01*
X112533728Y-115232199D01*
X112533714Y-115232202D01*
X112248955Y-115297196D01*
X112248953Y-115297197D01*
X111973261Y-115393665D01*
X111710109Y-115520393D01*
X111462795Y-115675791D01*
X111234435Y-115857901D01*
X111027901Y-116064435D01*
X110845791Y-116292795D01*
X110690393Y-116540109D01*
X110563665Y-116803261D01*
X110467197Y-117078953D01*
X110467196Y-117078955D01*
X110402202Y-117363714D01*
X110402199Y-117363728D01*
X110369500Y-117653952D01*
X106410500Y-117653952D01*
X106410500Y-111188542D01*
X143349500Y-111188542D01*
X143349500Y-111411450D01*
X143349501Y-111411466D01*
X143378594Y-111632452D01*
X143378595Y-111632457D01*
X143378596Y-111632463D01*
X143436290Y-111847780D01*
X143436293Y-111847790D01*
X143509984Y-112025695D01*
X143521595Y-112053726D01*
X143633052Y-112246774D01*
X143633057Y-112246780D01*
X143633058Y-112246782D01*
X143768751Y-112423622D01*
X143768757Y-112423629D01*
X143926370Y-112581242D01*
X143926377Y-112581248D01*
X144052294Y-112677867D01*
X144103226Y-112716948D01*
X144296274Y-112828405D01*
X144502219Y-112913710D01*
X144717537Y-112971404D01*
X144938543Y-113000500D01*
X144938550Y-113000500D01*
X145161450Y-113000500D01*
X145161457Y-113000500D01*
X145382463Y-112971404D01*
X145597781Y-112913710D01*
X145803726Y-112828405D01*
X145996774Y-112716948D01*
X146173624Y-112581247D01*
X146331247Y-112423624D01*
X146466948Y-112246774D01*
X146578405Y-112053726D01*
X146663710Y-111847781D01*
X146721404Y-111632463D01*
X146750500Y-111411457D01*
X146750500Y-111188543D01*
X146721404Y-110967537D01*
X146663710Y-110752219D01*
X146578405Y-110546274D01*
X146466948Y-110353226D01*
X146347850Y-110198013D01*
X146331248Y-110176377D01*
X146331242Y-110176370D01*
X146173629Y-110018757D01*
X146173622Y-110018751D01*
X145996782Y-109883058D01*
X145996780Y-109883057D01*
X145996774Y-109883052D01*
X145803726Y-109771595D01*
X145803722Y-109771593D01*
X145597790Y-109686293D01*
X145597783Y-109686291D01*
X145597781Y-109686290D01*
X145382463Y-109628596D01*
X145382457Y-109628595D01*
X145382452Y-109628594D01*
X145161466Y-109599501D01*
X145161463Y-109599500D01*
X145161457Y-109599500D01*
X144938543Y-109599500D01*
X144938537Y-109599500D01*
X144938533Y-109599501D01*
X144717547Y-109628594D01*
X144717540Y-109628595D01*
X144717537Y-109628596D01*
X144590382Y-109662667D01*
X144502219Y-109686290D01*
X144502209Y-109686293D01*
X144296277Y-109771593D01*
X144296273Y-109771595D01*
X144103226Y-109883052D01*
X144103217Y-109883058D01*
X143926377Y-110018751D01*
X143926370Y-110018757D01*
X143768757Y-110176370D01*
X143768751Y-110176377D01*
X143633058Y-110353217D01*
X143633052Y-110353226D01*
X143521595Y-110546273D01*
X143521593Y-110546277D01*
X143436293Y-110752209D01*
X143436290Y-110752219D01*
X143378597Y-110967534D01*
X143378594Y-110967547D01*
X143350315Y-111182353D01*
X143349500Y-111188542D01*
X106410500Y-111188542D01*
X106410500Y-109311304D01*
X120459500Y-109311304D01*
X120459500Y-109488695D01*
X120494103Y-109662658D01*
X120494106Y-109662667D01*
X120561983Y-109826540D01*
X120561990Y-109826553D01*
X120660535Y-109974034D01*
X120660538Y-109974038D01*
X120785961Y-110099461D01*
X120785965Y-110099464D01*
X120933446Y-110198009D01*
X120933459Y-110198016D01*
X121056363Y-110248923D01*
X121097334Y-110265894D01*
X121097336Y-110265894D01*
X121097341Y-110265896D01*
X121271304Y-110300499D01*
X121271307Y-110300500D01*
X121271309Y-110300500D01*
X121448693Y-110300500D01*
X121448694Y-110300499D01*
X121506682Y-110288964D01*
X121622658Y-110265896D01*
X121622661Y-110265894D01*
X121622666Y-110265894D01*
X121786547Y-110198013D01*
X121934035Y-110099464D01*
X122059464Y-109974035D01*
X122158013Y-109826547D01*
X122225894Y-109662666D01*
X122232672Y-109628594D01*
X122260499Y-109488695D01*
X122260500Y-109488693D01*
X122260500Y-109311306D01*
X122260499Y-109311304D01*
X122225896Y-109137341D01*
X122225893Y-109137332D01*
X122158016Y-108973459D01*
X122158009Y-108973446D01*
X122059464Y-108825965D01*
X122059461Y-108825961D01*
X121934038Y-108700538D01*
X121934034Y-108700535D01*
X121786553Y-108601990D01*
X121786540Y-108601983D01*
X121622667Y-108534106D01*
X121622658Y-108534103D01*
X121448694Y-108499500D01*
X121448691Y-108499500D01*
X121271309Y-108499500D01*
X121271306Y-108499500D01*
X121097341Y-108534103D01*
X121097332Y-108534106D01*
X120933459Y-108601983D01*
X120933446Y-108601990D01*
X120785965Y-108700535D01*
X120785961Y-108700538D01*
X120660538Y-108825961D01*
X120660535Y-108825965D01*
X120561990Y-108973446D01*
X120561983Y-108973459D01*
X120494106Y-109137332D01*
X120494103Y-109137341D01*
X120459500Y-109311304D01*
X106410500Y-109311304D01*
X106410500Y-105594500D01*
X106430185Y-105527461D01*
X106482989Y-105481706D01*
X106534500Y-105470500D01*
X106685106Y-105470500D01*
X106685108Y-105470500D01*
X106830205Y-105431622D01*
X106960295Y-105356514D01*
X107095505Y-105221304D01*
X133749500Y-105221304D01*
X133749500Y-105398695D01*
X133784103Y-105572658D01*
X133784106Y-105572667D01*
X133851983Y-105736540D01*
X133851990Y-105736553D01*
X133950535Y-105884034D01*
X133950538Y-105884038D01*
X134075961Y-106009461D01*
X134075965Y-106009464D01*
X134223446Y-106108009D01*
X134223459Y-106108016D01*
X134346363Y-106158923D01*
X134387334Y-106175894D01*
X134387336Y-106175894D01*
X134387341Y-106175896D01*
X134561304Y-106210499D01*
X134561307Y-106210500D01*
X134561309Y-106210500D01*
X134738693Y-106210500D01*
X134738694Y-106210499D01*
X134796682Y-106198964D01*
X134912658Y-106175896D01*
X134912661Y-106175894D01*
X134912666Y-106175894D01*
X135076547Y-106108013D01*
X135224035Y-106009464D01*
X135349464Y-105884035D01*
X135448013Y-105736547D01*
X135515894Y-105572666D01*
X135528323Y-105510185D01*
X135539971Y-105451622D01*
X135550500Y-105398691D01*
X135550500Y-105221309D01*
X135550500Y-105221306D01*
X135550499Y-105221304D01*
X135515896Y-105047341D01*
X135515893Y-105047332D01*
X135448016Y-104883459D01*
X135448009Y-104883446D01*
X135349464Y-104735965D01*
X135349461Y-104735961D01*
X135224038Y-104610538D01*
X135224034Y-104610535D01*
X135076553Y-104511990D01*
X135076540Y-104511983D01*
X134912667Y-104444106D01*
X134912658Y-104444103D01*
X134738694Y-104409500D01*
X134738691Y-104409500D01*
X134561309Y-104409500D01*
X134561306Y-104409500D01*
X134387341Y-104444103D01*
X134387332Y-104444106D01*
X134223459Y-104511983D01*
X134223446Y-104511990D01*
X134075965Y-104610535D01*
X134075961Y-104610538D01*
X133950538Y-104735961D01*
X133950535Y-104735965D01*
X133851990Y-104883446D01*
X133851983Y-104883459D01*
X133784106Y-105047332D01*
X133784103Y-105047341D01*
X133749500Y-105221304D01*
X107095505Y-105221304D01*
X107326514Y-104990295D01*
X107401622Y-104860205D01*
X107440500Y-104715108D01*
X107440500Y-104564891D01*
X107440500Y-103254892D01*
X107401622Y-103109795D01*
X107395848Y-103099795D01*
X107391558Y-103092363D01*
X107326514Y-102979705D01*
X107220295Y-102873486D01*
X107156819Y-102810010D01*
X107142115Y-102783082D01*
X107125523Y-102757264D01*
X107124631Y-102751063D01*
X107123334Y-102748687D01*
X107120500Y-102722329D01*
X107120500Y-102597671D01*
X107140185Y-102530632D01*
X107156819Y-102509990D01*
X107266515Y-102400294D01*
X107476514Y-102190295D01*
X107551622Y-102060205D01*
X107590500Y-101915108D01*
X107590500Y-101764892D01*
X107551622Y-101619795D01*
X107476514Y-101489705D01*
X107370295Y-101383486D01*
X107305250Y-101345932D01*
X107240206Y-101308378D01*
X107183481Y-101293179D01*
X107127894Y-101261085D01*
X106810297Y-100943488D01*
X106810295Y-100943486D01*
X106745250Y-100905932D01*
X106680206Y-100868378D01*
X106607656Y-100848939D01*
X106535108Y-100829500D01*
X105775108Y-100829500D01*
X105624892Y-100829500D01*
X105479795Y-100868378D01*
X105479794Y-100868378D01*
X105479792Y-100868379D01*
X105479791Y-100868379D01*
X105385660Y-100922726D01*
X105317760Y-100939199D01*
X105261660Y-100922726D01*
X105150208Y-100858379D01*
X105150205Y-100858378D01*
X105005108Y-100819500D01*
X104085108Y-100819500D01*
X103934892Y-100819500D01*
X103789793Y-100858378D01*
X103659705Y-100933486D01*
X103659702Y-100933488D01*
X103303488Y-101289702D01*
X103303486Y-101289705D01*
X103228378Y-101419793D01*
X103189500Y-101564892D01*
X103189500Y-102125107D01*
X103228378Y-102270206D01*
X103265932Y-102335250D01*
X103303486Y-102400295D01*
X103303488Y-102400297D01*
X103473181Y-102569990D01*
X103487884Y-102596917D01*
X103504477Y-102622736D01*
X103505368Y-102628936D01*
X103506666Y-102631313D01*
X103509500Y-102657671D01*
X103509500Y-102722329D01*
X103489815Y-102789368D01*
X103473181Y-102810010D01*
X103313488Y-102969702D01*
X103313486Y-102969705D01*
X103238378Y-103099793D01*
X103199500Y-103244892D01*
X103199500Y-104765107D01*
X103238378Y-104910206D01*
X103275932Y-104975250D01*
X103313486Y-105040295D01*
X103649705Y-105376514D01*
X103779795Y-105451622D01*
X103924892Y-105490500D01*
X104055500Y-105490500D01*
X104122539Y-105510185D01*
X104168294Y-105562989D01*
X104179500Y-105614500D01*
X104179500Y-111494206D01*
X104159815Y-111561245D01*
X104107011Y-111607000D01*
X104037853Y-111616944D01*
X103974297Y-111587919D01*
X103940939Y-111541658D01*
X103928016Y-111510459D01*
X103928009Y-111510446D01*
X103829464Y-111362965D01*
X103829461Y-111362961D01*
X103704038Y-111237538D01*
X103704034Y-111237535D01*
X103556553Y-111138990D01*
X103556540Y-111138983D01*
X103392667Y-111071106D01*
X103392658Y-111071103D01*
X103218694Y-111036500D01*
X103218691Y-111036500D01*
X103041309Y-111036500D01*
X103041306Y-111036500D01*
X102867341Y-111071103D01*
X102867332Y-111071106D01*
X102703459Y-111138983D01*
X102703446Y-111138990D01*
X102555965Y-111237535D01*
X102555961Y-111237538D01*
X102430538Y-111362961D01*
X102430535Y-111362965D01*
X102331990Y-111510446D01*
X102331983Y-111510459D01*
X102264106Y-111674332D01*
X102264103Y-111674341D01*
X102229500Y-111848304D01*
X102229500Y-112025695D01*
X102264103Y-112199658D01*
X102264106Y-112199667D01*
X102331983Y-112363540D01*
X102331990Y-112363553D01*
X102430535Y-112511034D01*
X102430538Y-112511038D01*
X102555961Y-112636461D01*
X102555965Y-112636464D01*
X102703446Y-112735009D01*
X102703459Y-112735016D01*
X102826363Y-112785923D01*
X102867334Y-112802894D01*
X102867336Y-112802894D01*
X102867341Y-112802896D01*
X103041304Y-112837499D01*
X103041307Y-112837500D01*
X103041309Y-112837500D01*
X103218693Y-112837500D01*
X103218694Y-112837499D01*
X103276682Y-112825964D01*
X103392658Y-112802896D01*
X103392661Y-112802894D01*
X103392666Y-112802894D01*
X103556547Y-112735013D01*
X103704035Y-112636464D01*
X103829464Y-112511035D01*
X103928013Y-112363547D01*
X103940938Y-112332340D01*
X103984779Y-112277938D01*
X104051073Y-112255872D01*
X104118772Y-112273150D01*
X104166383Y-112324287D01*
X104179500Y-112379793D01*
X104179500Y-122614892D01*
X104179500Y-122765108D01*
X104187532Y-122795085D01*
X104218378Y-122910206D01*
X104255932Y-122975250D01*
X104293486Y-123040295D01*
X104293488Y-123040297D01*
X107491179Y-126237988D01*
X107524664Y-126299311D01*
X107519680Y-126369003D01*
X107477808Y-126424936D01*
X107415653Y-126449072D01*
X107411303Y-126449500D01*
X107237341Y-126484103D01*
X107237332Y-126484106D01*
X107073459Y-126551983D01*
X107073446Y-126551990D01*
X106925965Y-126650535D01*
X106925961Y-126650538D01*
X106800538Y-126775961D01*
X106800535Y-126775965D01*
X106701990Y-126923446D01*
X106701983Y-126923459D01*
X106634106Y-127087332D01*
X106634103Y-127087341D01*
X106599500Y-127261304D01*
X106599500Y-127438695D01*
X106634103Y-127612658D01*
X106634106Y-127612667D01*
X106701983Y-127776540D01*
X106701990Y-127776553D01*
X106800535Y-127924034D01*
X106800538Y-127924038D01*
X106925961Y-128049461D01*
X106925965Y-128049464D01*
X107073446Y-128148009D01*
X107073459Y-128148016D01*
X107175013Y-128190080D01*
X107237334Y-128215894D01*
X107237336Y-128215894D01*
X107237341Y-128215896D01*
X107411304Y-128250499D01*
X107411307Y-128250500D01*
X107411309Y-128250500D01*
X107588693Y-128250500D01*
X107588694Y-128250499D01*
X107646682Y-128238964D01*
X107762658Y-128215896D01*
X107762661Y-128215894D01*
X107762666Y-128215894D01*
X107926547Y-128148013D01*
X108074035Y-128049464D01*
X108077338Y-128046161D01*
X108106913Y-128030008D01*
X108136178Y-128013238D01*
X108137499Y-128013305D01*
X108138659Y-128012672D01*
X108172289Y-128015074D01*
X108205957Y-128016787D01*
X108207030Y-128017556D01*
X108208351Y-128017651D01*
X108235364Y-128037870D01*
X108262741Y-128057498D01*
X108263228Y-128058726D01*
X108264287Y-128059519D01*
X108276063Y-128091087D01*
X108288501Y-128122445D01*
X108288347Y-128124016D01*
X108288708Y-128124982D01*
X108286708Y-128157694D01*
X108285482Y-128163943D01*
X108285095Y-128165074D01*
X108284522Y-128167014D01*
X108266014Y-128263139D01*
X108266017Y-128263221D01*
X108264850Y-128269177D01*
X108264848Y-128269179D01*
X108264785Y-128269506D01*
X108259500Y-128296078D01*
X108259500Y-128296082D01*
X108259500Y-128443918D01*
X108259500Y-128443920D01*
X108259499Y-128443920D01*
X108288340Y-128588907D01*
X108288343Y-128588917D01*
X108344912Y-128725488D01*
X108344919Y-128725501D01*
X108427048Y-128848415D01*
X108427051Y-128848419D01*
X108531580Y-128952948D01*
X108531584Y-128952951D01*
X108654498Y-129035080D01*
X108654511Y-129035087D01*
X108770066Y-129082951D01*
X108791087Y-129091658D01*
X108791091Y-129091658D01*
X108791092Y-129091659D01*
X108936079Y-129120500D01*
X108936082Y-129120500D01*
X109083920Y-129120500D01*
X109184397Y-129100513D01*
X109228913Y-129091658D01*
X109365495Y-129035084D01*
X109488416Y-128952951D01*
X109592951Y-128848416D01*
X109675084Y-128725495D01*
X109677813Y-128718907D01*
X109733989Y-128583286D01*
X109735498Y-128583911D01*
X109769457Y-128532076D01*
X109802376Y-128511938D01*
X109915495Y-128465084D01*
X110038416Y-128382951D01*
X110142951Y-128278416D01*
X110225084Y-128155495D01*
X110281658Y-128018913D01*
X110284959Y-128002318D01*
X110291984Y-127988886D01*
X110294287Y-127973905D01*
X110307848Y-127958557D01*
X110317342Y-127940408D01*
X110331241Y-127932083D01*
X110340552Y-127921548D01*
X110365269Y-127911706D01*
X110372798Y-127907198D01*
X110377541Y-127905854D01*
X110448913Y-127891658D01*
X110494749Y-127872672D01*
X110501722Y-127870698D01*
X110529698Y-127870969D01*
X110557517Y-127867979D01*
X110564161Y-127871304D01*
X110571588Y-127871377D01*
X110594973Y-127886728D01*
X110619996Y-127899254D01*
X110623786Y-127905643D01*
X110629997Y-127909720D01*
X110641371Y-127935281D01*
X110655648Y-127959343D01*
X110657051Y-127970517D01*
X110658403Y-127973554D01*
X110657869Y-127977026D01*
X110659500Y-127990009D01*
X110659500Y-128612963D01*
X110650929Y-128658263D01*
X110519333Y-128993584D01*
X110518695Y-128995444D01*
X110517399Y-128999220D01*
X110508342Y-129021087D01*
X110506200Y-129031852D01*
X110505095Y-129035074D01*
X110504522Y-129037014D01*
X110504462Y-129037322D01*
X110504460Y-129037330D01*
X110484930Y-129138764D01*
X110484785Y-129139506D01*
X110479500Y-129166078D01*
X110479500Y-129166082D01*
X110479500Y-129313918D01*
X110479500Y-129313920D01*
X110479499Y-129313920D01*
X110508340Y-129458907D01*
X110508343Y-129458917D01*
X110564912Y-129595488D01*
X110564919Y-129595501D01*
X110647048Y-129718415D01*
X110647051Y-129718419D01*
X110751580Y-129822948D01*
X110751584Y-129822951D01*
X110874498Y-129905080D01*
X110874511Y-129905087D01*
X111011082Y-129961656D01*
X111011087Y-129961658D01*
X111011091Y-129961658D01*
X111011092Y-129961659D01*
X111156079Y-129990500D01*
X111156082Y-129990500D01*
X111303920Y-129990500D01*
X111401462Y-129971096D01*
X111448913Y-129961658D01*
X111585495Y-129905084D01*
X111607416Y-129890436D01*
X111674092Y-129869557D01*
X111741473Y-129888040D01*
X111745196Y-129890432D01*
X111819505Y-129940084D01*
X111819507Y-129940085D01*
X111819511Y-129940087D01*
X111941220Y-129990500D01*
X111956087Y-129996658D01*
X111956091Y-129996658D01*
X111956092Y-129996659D01*
X112101079Y-130025500D01*
X112101082Y-130025500D01*
X112248920Y-130025500D01*
X112346462Y-130006096D01*
X112393913Y-129996658D01*
X112530495Y-129940084D01*
X112653416Y-129857951D01*
X112757951Y-129753416D01*
X112840084Y-129630495D01*
X112896658Y-129493913D01*
X112911146Y-129421078D01*
X112925500Y-129348920D01*
X112925500Y-129201079D01*
X112896659Y-129056092D01*
X112896658Y-129056091D01*
X112896658Y-129056087D01*
X112889024Y-129037659D01*
X112886602Y-129030972D01*
X112872407Y-128994802D01*
X112754071Y-128693264D01*
X112745500Y-128647964D01*
X112745500Y-127412670D01*
X112765185Y-127345631D01*
X112781815Y-127324993D01*
X113215041Y-126891766D01*
X113276362Y-126858283D01*
X113346053Y-126863267D01*
X113390402Y-126891769D01*
X113421580Y-126922948D01*
X113421584Y-126922951D01*
X113544498Y-127005080D01*
X113544511Y-127005087D01*
X113644685Y-127046580D01*
X113681087Y-127061658D01*
X113681091Y-127061658D01*
X113681092Y-127061659D01*
X113826079Y-127090500D01*
X113826082Y-127090500D01*
X113973920Y-127090500D01*
X114080716Y-127069256D01*
X114118913Y-127061658D01*
X114224547Y-127017902D01*
X114255488Y-127005087D01*
X114255488Y-127005086D01*
X114255495Y-127005084D01*
X114378416Y-126922951D01*
X114482951Y-126818416D01*
X114565084Y-126695495D01*
X114565457Y-126694593D01*
X114568912Y-126686989D01*
X114679285Y-126464410D01*
X114726703Y-126413096D01*
X114790376Y-126395500D01*
X115172056Y-126395500D01*
X115239095Y-126415185D01*
X115284850Y-126467989D01*
X115293673Y-126495308D01*
X115303340Y-126543907D01*
X115303343Y-126543917D01*
X115359914Y-126680493D01*
X115362085Y-126684554D01*
X115376325Y-126752957D01*
X115351323Y-126818200D01*
X115300186Y-126857562D01*
X115294509Y-126859913D01*
X115294498Y-126859919D01*
X115171584Y-126942048D01*
X115171580Y-126942051D01*
X115067051Y-127046580D01*
X115067048Y-127046584D01*
X114984919Y-127169498D01*
X114984912Y-127169511D01*
X114928343Y-127306082D01*
X114928340Y-127306092D01*
X114899500Y-127451079D01*
X114899500Y-127451082D01*
X114899500Y-127598918D01*
X114899500Y-127598920D01*
X114899499Y-127598920D01*
X114928340Y-127743907D01*
X114928343Y-127743917D01*
X114984912Y-127880488D01*
X114984919Y-127880501D01*
X115067048Y-128003415D01*
X115067051Y-128003419D01*
X115171580Y-128107948D01*
X115171584Y-128107951D01*
X115294498Y-128190080D01*
X115294511Y-128190087D01*
X115431082Y-128246656D01*
X115431087Y-128246658D01*
X115431091Y-128246658D01*
X115431092Y-128246659D01*
X115577949Y-128275872D01*
X115639860Y-128308257D01*
X115674434Y-128368973D01*
X115675376Y-128421670D01*
X115674500Y-128426072D01*
X115674500Y-128426082D01*
X115674500Y-128573918D01*
X115674500Y-128573920D01*
X115674499Y-128573920D01*
X115703340Y-128718907D01*
X115703343Y-128718917D01*
X115759912Y-128855488D01*
X115759919Y-128855501D01*
X115842048Y-128978415D01*
X115842051Y-128978419D01*
X115946581Y-129082949D01*
X115972868Y-129100513D01*
X116017673Y-129154125D01*
X116025594Y-129179423D01*
X116053340Y-129318907D01*
X116053343Y-129318917D01*
X116109912Y-129455488D01*
X116109919Y-129455501D01*
X116192048Y-129578415D01*
X116192051Y-129578419D01*
X116296580Y-129682948D01*
X116296584Y-129682951D01*
X116419498Y-129765080D01*
X116419511Y-129765087D01*
X116534209Y-129812596D01*
X116556087Y-129821658D01*
X116556091Y-129821658D01*
X116556092Y-129821659D01*
X116701079Y-129850500D01*
X116701082Y-129850500D01*
X116848920Y-129850500D01*
X116993908Y-129821659D01*
X116993908Y-129821658D01*
X116993913Y-129821658D01*
X117012354Y-129814019D01*
X117019014Y-129811607D01*
X117356735Y-129679071D01*
X117402034Y-129670500D01*
X128197964Y-129670500D01*
X128243263Y-129679071D01*
X128578578Y-129810663D01*
X128578584Y-129810665D01*
X128578589Y-129810667D01*
X128584210Y-129812596D01*
X128606087Y-129821658D01*
X128616847Y-129823798D01*
X128620016Y-129824886D01*
X128621962Y-129825461D01*
X128652534Y-129831349D01*
X128723849Y-129845085D01*
X128724523Y-129845216D01*
X128738997Y-129848096D01*
X128751081Y-129850500D01*
X128751082Y-129850500D01*
X128898920Y-129850500D01*
X128996462Y-129831096D01*
X129043913Y-129821658D01*
X129180495Y-129765084D01*
X129293835Y-129689352D01*
X129360511Y-129668475D01*
X129427891Y-129686959D01*
X129474582Y-129738938D01*
X129484342Y-129768263D01*
X129508340Y-129888907D01*
X129508343Y-129888917D01*
X129564912Y-130025488D01*
X129564919Y-130025500D01*
X129647048Y-130148415D01*
X129647051Y-130148419D01*
X129751580Y-130252948D01*
X129751584Y-130252951D01*
X129874498Y-130335080D01*
X129874511Y-130335087D01*
X129926502Y-130356622D01*
X130011087Y-130391658D01*
X130011091Y-130391658D01*
X130011092Y-130391659D01*
X130156079Y-130420500D01*
X130156082Y-130420500D01*
X130303920Y-130420500D01*
X130429603Y-130395499D01*
X130448913Y-130391658D01*
X130585495Y-130335084D01*
X130708416Y-130252951D01*
X130812951Y-130148416D01*
X130895084Y-130025495D01*
X130951658Y-129888913D01*
X130964394Y-129824886D01*
X130980500Y-129743920D01*
X130980500Y-129596079D01*
X130951659Y-129451092D01*
X130951658Y-129451091D01*
X130951658Y-129451087D01*
X130941824Y-129427347D01*
X130939342Y-129420594D01*
X130938747Y-129419120D01*
X130938747Y-129419117D01*
X130780486Y-129026670D01*
X130775717Y-129012403D01*
X130761622Y-128959795D01*
X130686514Y-128829705D01*
X130580295Y-128723486D01*
X129900295Y-128043486D01*
X129830892Y-128003416D01*
X129770206Y-127968378D01*
X129697656Y-127948939D01*
X129625108Y-127929500D01*
X129625107Y-127929500D01*
X125905102Y-127929500D01*
X125838063Y-127909815D01*
X125792308Y-127857011D01*
X125782364Y-127787853D01*
X125805921Y-127734385D01*
X125804567Y-127733481D01*
X125890080Y-127605501D01*
X125890080Y-127605500D01*
X125890084Y-127605495D01*
X125892779Y-127598990D01*
X125918161Y-127537710D01*
X125946658Y-127468913D01*
X125967384Y-127364719D01*
X125975500Y-127323920D01*
X125975500Y-127291868D01*
X125995185Y-127224829D01*
X126047989Y-127179074D01*
X126075308Y-127170251D01*
X126156803Y-127154039D01*
X126193913Y-127146658D01*
X126299547Y-127102902D01*
X126330488Y-127090087D01*
X126330488Y-127090086D01*
X126330495Y-127090084D01*
X126453416Y-127007951D01*
X126557951Y-126903416D01*
X126640084Y-126780495D01*
X126696658Y-126643913D01*
X126714944Y-126551987D01*
X126725500Y-126498920D01*
X126725500Y-126351079D01*
X126696659Y-126206092D01*
X126696658Y-126206091D01*
X126696658Y-126206087D01*
X126689323Y-126188379D01*
X126640087Y-126069511D01*
X126640080Y-126069498D01*
X126557951Y-125946584D01*
X126557948Y-125946580D01*
X126453419Y-125842051D01*
X126453415Y-125842048D01*
X126330501Y-125759919D01*
X126330494Y-125759915D01*
X126328433Y-125759062D01*
X126327519Y-125758325D01*
X126325125Y-125757046D01*
X126325367Y-125756591D01*
X126274029Y-125715221D01*
X126251963Y-125648928D01*
X126269241Y-125581228D01*
X126320378Y-125533617D01*
X126375884Y-125520500D01*
X127737329Y-125520500D01*
X127804368Y-125540185D01*
X127825010Y-125556819D01*
X132053213Y-129785022D01*
X132079183Y-129823111D01*
X132223244Y-130153280D01*
X132225853Y-130158615D01*
X132234916Y-130180495D01*
X132241022Y-130189634D01*
X132242519Y-130192694D01*
X132243489Y-130194477D01*
X132243668Y-130194741D01*
X132300847Y-130279173D01*
X132301199Y-130279696D01*
X132317049Y-130303416D01*
X132370254Y-130356621D01*
X132421585Y-130407952D01*
X132544498Y-130490080D01*
X132544511Y-130490087D01*
X132662657Y-130539024D01*
X132681087Y-130546658D01*
X132681091Y-130546658D01*
X132681092Y-130546659D01*
X132826079Y-130575500D01*
X132826082Y-130575500D01*
X132973920Y-130575500D01*
X133118908Y-130546659D01*
X133118908Y-130546658D01*
X133118913Y-130546658D01*
X133137354Y-130539019D01*
X133144014Y-130536607D01*
X133481735Y-130404071D01*
X133527034Y-130395500D01*
X136560106Y-130395500D01*
X136560108Y-130395500D01*
X136705205Y-130356622D01*
X136835295Y-130281514D01*
X139517819Y-127598990D01*
X139579142Y-127565505D01*
X139648834Y-127570489D01*
X139704767Y-127612361D01*
X139729184Y-127677825D01*
X139729500Y-127686671D01*
X139729500Y-130866000D01*
X139709815Y-130933039D01*
X139657011Y-130978794D01*
X139605500Y-130990000D01*
X121546929Y-130990000D01*
X121504518Y-130982522D01*
X121359937Y-130929898D01*
X121187534Y-130899500D01*
X121187532Y-130899500D01*
X121119991Y-130899500D01*
X120956929Y-130899500D01*
X120930000Y-130899500D01*
X120842468Y-130899500D01*
X120842465Y-130899500D01*
X120670062Y-130929898D01*
X120525482Y-130982522D01*
X120483071Y-130990000D01*
X109496824Y-130990000D01*
X109454339Y-130982495D01*
X109444191Y-130978794D01*
X109318576Y-130932983D01*
X109318573Y-130932982D01*
X109318565Y-130932980D01*
X109129100Y-130899511D01*
X109127955Y-130899510D01*
X109065482Y-130899500D01*
X109065435Y-130899496D01*
X109052884Y-130899496D01*
X109032948Y-130899496D01*
X109032892Y-130899496D01*
X109005963Y-130899496D01*
X109005962Y-130899496D01*
X100104000Y-130899499D01*
X100036961Y-130879814D01*
X99991206Y-130827010D01*
X99980000Y-130775499D01*
X99980000Y-100224500D01*
X99999685Y-100157461D01*
X100052489Y-100111706D01*
X100104000Y-100100500D01*
X150776130Y-100100500D01*
X150843169Y-100120185D01*
G37*
%TD.AperFunction*%
%TA.AperFunction,NonConductor*%
G36*
X119872539Y-175009685D02*
G01*
X119918294Y-175062489D01*
X119929500Y-175114000D01*
X119929500Y-177289992D01*
X119944799Y-177326928D01*
X119944800Y-177326929D01*
X119973071Y-177355200D01*
X120010009Y-177370500D01*
X120049991Y-177370500D01*
X120345500Y-177370500D01*
X120412539Y-177390185D01*
X120458294Y-177442989D01*
X120469500Y-177494500D01*
X120469500Y-178045500D01*
X120449815Y-178112539D01*
X120397011Y-178158294D01*
X120345500Y-178169500D01*
X119550007Y-178169500D01*
X119513071Y-178184799D01*
X119484799Y-178213071D01*
X119469500Y-178250007D01*
X119469500Y-180215500D01*
X119449815Y-180282539D01*
X119397011Y-180328294D01*
X119345500Y-180339500D01*
X110714500Y-180339500D01*
X110647461Y-180319815D01*
X110601706Y-180267011D01*
X110590500Y-180215500D01*
X110590500Y-178250010D01*
X110590499Y-178250007D01*
X110575200Y-178213071D01*
X110546928Y-178184799D01*
X110509992Y-178169500D01*
X110509991Y-178169500D01*
X109714500Y-178169500D01*
X109647461Y-178149815D01*
X109601706Y-178097011D01*
X109590500Y-178045500D01*
X109590500Y-177494500D01*
X109610185Y-177427461D01*
X109662989Y-177381706D01*
X109714500Y-177370500D01*
X110049989Y-177370500D01*
X110049991Y-177370500D01*
X110086929Y-177355200D01*
X110115200Y-177326929D01*
X110130500Y-177289991D01*
X110130500Y-175114000D01*
X110150185Y-175046961D01*
X110202989Y-175001206D01*
X110254500Y-174990000D01*
X119805500Y-174990000D01*
X119872539Y-175009685D01*
G37*
%TD.AperFunction*%
%TA.AperFunction,NonConductor*%
G36*
X150752539Y-130019685D02*
G01*
X150798294Y-130072489D01*
X150809500Y-130124000D01*
X150809500Y-133629634D01*
X150789815Y-133696673D01*
X150737011Y-133742428D01*
X150667853Y-133752372D01*
X150604297Y-133723347D01*
X150570939Y-133677086D01*
X150528016Y-133573459D01*
X150528009Y-133573446D01*
X150429464Y-133425965D01*
X150429461Y-133425961D01*
X150304038Y-133300538D01*
X150304034Y-133300535D01*
X150156553Y-133201990D01*
X150156540Y-133201983D01*
X149992667Y-133134106D01*
X149992658Y-133134103D01*
X149818694Y-133099500D01*
X149818691Y-133099500D01*
X149641309Y-133099500D01*
X149641306Y-133099500D01*
X149467341Y-133134103D01*
X149467332Y-133134106D01*
X149303459Y-133201983D01*
X149303446Y-133201990D01*
X149155965Y-133300535D01*
X149155961Y-133300538D01*
X149030538Y-133425961D01*
X149030535Y-133425965D01*
X148931990Y-133573446D01*
X148931983Y-133573459D01*
X148864106Y-133737332D01*
X148864103Y-133737341D01*
X148829500Y-133911304D01*
X148829500Y-134088695D01*
X148864103Y-134262658D01*
X148864106Y-134262667D01*
X148931983Y-134426540D01*
X148931990Y-134426553D01*
X149030535Y-134574034D01*
X149030538Y-134574038D01*
X149155961Y-134699461D01*
X149155965Y-134699464D01*
X149303446Y-134798009D01*
X149303459Y-134798016D01*
X149426363Y-134848923D01*
X149467334Y-134865894D01*
X149467336Y-134865894D01*
X149467341Y-134865896D01*
X149641304Y-134900499D01*
X149641307Y-134900500D01*
X149641309Y-134900500D01*
X149818693Y-134900500D01*
X149818694Y-134900499D01*
X149876682Y-134888964D01*
X149992658Y-134865896D01*
X149992661Y-134865894D01*
X149992666Y-134865894D01*
X150156547Y-134798013D01*
X150304035Y-134699464D01*
X150429464Y-134574035D01*
X150528013Y-134426547D01*
X150570940Y-134322910D01*
X150614779Y-134268509D01*
X150681073Y-134246444D01*
X150748772Y-134263723D01*
X150796383Y-134314859D01*
X150809500Y-134370365D01*
X150809500Y-138775500D01*
X150789815Y-138842539D01*
X150737011Y-138888294D01*
X150685500Y-138899500D01*
X140424500Y-138899500D01*
X140357461Y-138879815D01*
X140311706Y-138827011D01*
X140300500Y-138775500D01*
X140300500Y-131911304D01*
X144319500Y-131911304D01*
X144319500Y-132088695D01*
X144354103Y-132262658D01*
X144354106Y-132262667D01*
X144421983Y-132426540D01*
X144421990Y-132426553D01*
X144520535Y-132574034D01*
X144520538Y-132574038D01*
X144645961Y-132699461D01*
X144645965Y-132699464D01*
X144793446Y-132798009D01*
X144793459Y-132798016D01*
X144916363Y-132848923D01*
X144957334Y-132865894D01*
X144957336Y-132865894D01*
X144957341Y-132865896D01*
X145131304Y-132900499D01*
X145131307Y-132900500D01*
X145131309Y-132900500D01*
X145308693Y-132900500D01*
X145308694Y-132900499D01*
X145366682Y-132888964D01*
X145482658Y-132865896D01*
X145482661Y-132865894D01*
X145482666Y-132865894D01*
X145646547Y-132798013D01*
X145794035Y-132699464D01*
X145919464Y-132574035D01*
X146018013Y-132426547D01*
X146085894Y-132262666D01*
X146120500Y-132088691D01*
X146120500Y-131911309D01*
X146120500Y-131911306D01*
X146120499Y-131911304D01*
X146085896Y-131737341D01*
X146085893Y-131737332D01*
X146018016Y-131573459D01*
X146018009Y-131573446D01*
X145919464Y-131425965D01*
X145919461Y-131425961D01*
X145794038Y-131300538D01*
X145794034Y-131300535D01*
X145646553Y-131201990D01*
X145646540Y-131201983D01*
X145482667Y-131134106D01*
X145482658Y-131134103D01*
X145308694Y-131099500D01*
X145308691Y-131099500D01*
X145131309Y-131099500D01*
X145131306Y-131099500D01*
X144957341Y-131134103D01*
X144957332Y-131134106D01*
X144793459Y-131201983D01*
X144793446Y-131201990D01*
X144645965Y-131300535D01*
X144645961Y-131300538D01*
X144520538Y-131425961D01*
X144520535Y-131425965D01*
X144421990Y-131573446D01*
X144421983Y-131573459D01*
X144354106Y-131737332D01*
X144354103Y-131737341D01*
X144319500Y-131911304D01*
X140300500Y-131911304D01*
X140300500Y-130124000D01*
X140320185Y-130056961D01*
X140372989Y-130011206D01*
X140424500Y-130000000D01*
X150685500Y-130000000D01*
X150752539Y-130019685D01*
G37*
%TD.AperFunction*%
%TA.AperFunction,NonConductor*%
G36*
X99871261Y-183239685D02*
G01*
X99905088Y-183278724D01*
X99908012Y-183276771D01*
X99914799Y-183286928D01*
X99914800Y-183286929D01*
X99943071Y-183315200D01*
X99980009Y-183330500D01*
X102225500Y-183330500D01*
X102292539Y-183350185D01*
X102338294Y-183402989D01*
X102349500Y-183454500D01*
X102349500Y-189005500D01*
X102329815Y-189072539D01*
X102277011Y-189118294D01*
X102225500Y-189129500D01*
X91674500Y-189129500D01*
X91607461Y-189109815D01*
X91561706Y-189057011D01*
X91550500Y-189005500D01*
X91550500Y-183454500D01*
X91570185Y-183387461D01*
X91622989Y-183341706D01*
X91674500Y-183330500D01*
X94269989Y-183330500D01*
X94269991Y-183330500D01*
X94306929Y-183315200D01*
X94335200Y-183286929D01*
X94335201Y-183286926D01*
X94341988Y-183276771D01*
X94345343Y-183279013D01*
X94375075Y-183242132D01*
X94441373Y-183220078D01*
X94445778Y-183220000D01*
X99804222Y-183220000D01*
X99871261Y-183239685D01*
G37*
%TD.AperFunction*%
%TA.AperFunction,Conductor*%
%TO.N,Net-(D1-A)*%
G36*
X109571431Y-127312881D02*
G01*
X109573355Y-127315417D01*
X109762570Y-127651694D01*
X109763640Y-127660584D01*
X109758905Y-127667138D01*
X109564061Y-127798266D01*
X109555285Y-127800042D01*
X109555201Y-127800025D01*
X109326915Y-127753685D01*
X109319489Y-127748681D01*
X109317777Y-127739891D01*
X109317916Y-127739290D01*
X109427719Y-127318202D01*
X109433122Y-127311061D01*
X109439040Y-127309454D01*
X109563158Y-127309454D01*
X109571431Y-127312881D01*
G37*
%TD.AperFunction*%
%TD*%
%TA.AperFunction,Conductor*%
%TO.N,Net-(D1-K)*%
G36*
X109080296Y-127878231D02*
G01*
X109082914Y-127882230D01*
X109250106Y-128308258D01*
X109249939Y-128317211D01*
X109243489Y-128323423D01*
X109241543Y-128323998D01*
X109012328Y-128370527D01*
X109007672Y-128370527D01*
X108778456Y-128323998D01*
X108771030Y-128318994D01*
X108769318Y-128310204D01*
X108769891Y-128308264D01*
X108937086Y-127882230D01*
X108943298Y-127875780D01*
X108947977Y-127874804D01*
X109072023Y-127874804D01*
X109080296Y-127878231D01*
G37*
%TD.AperFunction*%
%TD*%
%TA.AperFunction,Conductor*%
%TO.N,Net-(D2-K)*%
G36*
X110737211Y-126240060D02*
G01*
X110743423Y-126246510D01*
X110743998Y-126248456D01*
X110790527Y-126477672D01*
X110790527Y-126482328D01*
X110743998Y-126711543D01*
X110738994Y-126718969D01*
X110730204Y-126720681D01*
X110728258Y-126720106D01*
X110302230Y-126552914D01*
X110295780Y-126546702D01*
X110294804Y-126542023D01*
X110294804Y-126417976D01*
X110298231Y-126409703D01*
X110302227Y-126407086D01*
X110728259Y-126239893D01*
X110737211Y-126240060D01*
G37*
%TD.AperFunction*%
%TD*%
%TA.AperFunction,Conductor*%
%TO.N,Net-(D2-A)*%
G36*
X110006486Y-126744365D02*
G01*
X110155824Y-126834101D01*
X110358411Y-126955834D01*
X110363738Y-126963033D01*
X110362414Y-126971889D01*
X110362139Y-126972325D01*
X110233411Y-127166625D01*
X110225985Y-127171629D01*
X110225901Y-127171646D01*
X109995976Y-127216589D01*
X109987200Y-127214813D01*
X109982315Y-127207663D01*
X109901063Y-126844929D01*
X109902599Y-126836109D01*
X109904202Y-126834106D01*
X109992188Y-126746120D01*
X110000460Y-126742694D01*
X110006486Y-126744365D01*
G37*
%TD.AperFunction*%
%TD*%
%TA.AperFunction,Conductor*%
%TO.N,Net-(J1-Pin_25)*%
G36*
X116486738Y-128259892D02*
G01*
X116912771Y-128427086D01*
X116919220Y-128433297D01*
X116920196Y-128437976D01*
X116920196Y-128562023D01*
X116916769Y-128570296D01*
X116912770Y-128572914D01*
X116486741Y-128740106D01*
X116477788Y-128739939D01*
X116471576Y-128733489D01*
X116471002Y-128731548D01*
X116424472Y-128502325D01*
X116424472Y-128497674D01*
X116471002Y-128268454D01*
X116476005Y-128261030D01*
X116484795Y-128259318D01*
X116486738Y-128259892D01*
G37*
%TD.AperFunction*%
%TD*%
%TA.AperFunction,Conductor*%
%TO.N,Net-(J1-Pin_25)*%
G36*
X130279860Y-129139337D02*
G01*
X130282438Y-129143234D01*
X130469932Y-129608174D01*
X130469848Y-129617129D01*
X130463457Y-129623401D01*
X130461402Y-129624018D01*
X130235484Y-129669740D01*
X130226695Y-129668022D01*
X130226655Y-129667995D01*
X130030747Y-129536872D01*
X130025778Y-129529423D01*
X130026818Y-129521861D01*
X130175987Y-129227483D01*
X130178146Y-129224505D01*
X130263315Y-129139336D01*
X130271587Y-129135910D01*
X130279860Y-129139337D01*
G37*
%TD.AperFunction*%
%TD*%
%TA.AperFunction,Conductor*%
%TO.N,Net-(J1-Pin_23)*%
G36*
X132961738Y-129584892D02*
G01*
X133387771Y-129752086D01*
X133394220Y-129758297D01*
X133395196Y-129762976D01*
X133395196Y-129887023D01*
X133391769Y-129895296D01*
X133387770Y-129897914D01*
X132961741Y-130065106D01*
X132952788Y-130064939D01*
X132946576Y-130058489D01*
X132946002Y-130056548D01*
X132899472Y-129827325D01*
X132899472Y-129822674D01*
X132946002Y-129593454D01*
X132951005Y-129586030D01*
X132959795Y-129584318D01*
X132961738Y-129584892D01*
G37*
%TD.AperFunction*%
%TD*%
%TA.AperFunction,Conductor*%
%TO.N,Net-(J1-Pin_23)*%
G36*
X141987211Y-124020060D02*
G01*
X141993423Y-124026510D01*
X141993998Y-124028456D01*
X142040527Y-124257672D01*
X142040527Y-124262328D01*
X141993998Y-124491543D01*
X141988994Y-124498969D01*
X141980204Y-124500681D01*
X141978258Y-124500106D01*
X141552230Y-124332914D01*
X141545780Y-124326702D01*
X141544804Y-124322023D01*
X141544804Y-124197976D01*
X141548231Y-124189703D01*
X141552227Y-124187086D01*
X141978259Y-124019893D01*
X141987211Y-124020060D01*
G37*
%TD.AperFunction*%
%TD*%
%TA.AperFunction,Conductor*%
%TO.N,Net-(J1-Pin_23)*%
G36*
X132606647Y-129428534D02*
G01*
X133026123Y-129611561D01*
X133032335Y-129618011D01*
X133032168Y-129626964D01*
X133031198Y-129628747D01*
X132902018Y-129823726D01*
X132898726Y-129827018D01*
X132703747Y-129956198D01*
X132694958Y-129957910D01*
X132687531Y-129952906D01*
X132686561Y-129951123D01*
X132631839Y-129825707D01*
X132503534Y-129531649D01*
X132503368Y-129522699D01*
X132505984Y-129518702D01*
X132593701Y-129430985D01*
X132601973Y-129427559D01*
X132606647Y-129428534D01*
G37*
%TD.AperFunction*%
%TD*%
%TA.AperFunction,Conductor*%
%TO.N,Net-(J1-Pin_23)*%
G36*
X119111738Y-124709892D02*
G01*
X119537771Y-124877086D01*
X119544220Y-124883297D01*
X119545196Y-124887976D01*
X119545196Y-125012023D01*
X119541769Y-125020296D01*
X119537770Y-125022914D01*
X119111741Y-125190106D01*
X119102788Y-125189939D01*
X119096576Y-125183489D01*
X119096002Y-125181548D01*
X119049472Y-124952325D01*
X119049472Y-124947674D01*
X119096002Y-124718454D01*
X119101005Y-124711030D01*
X119109795Y-124709318D01*
X119111738Y-124709892D01*
G37*
%TD.AperFunction*%
%TD*%
%TA.AperFunction,Conductor*%
%TO.N,Net-(J1-Pin_23)*%
G36*
X125422211Y-124710060D02*
G01*
X125428423Y-124716510D01*
X125428998Y-124718456D01*
X125475527Y-124947672D01*
X125475527Y-124952328D01*
X125428998Y-125181543D01*
X125423994Y-125188969D01*
X125415204Y-125190681D01*
X125413258Y-125190106D01*
X124987230Y-125022914D01*
X124980780Y-125016702D01*
X124979804Y-125012023D01*
X124979804Y-124887976D01*
X124983231Y-124879703D01*
X124987227Y-124877086D01*
X125413259Y-124709893D01*
X125422211Y-124710060D01*
G37*
%TD.AperFunction*%
%TD*%
%TA.AperFunction,Conductor*%
%TO.N,Net-(J1-Pin_23)*%
G36*
X125536738Y-124709892D02*
G01*
X125962771Y-124877086D01*
X125969220Y-124883297D01*
X125970196Y-124887976D01*
X125970196Y-125012023D01*
X125966769Y-125020296D01*
X125962770Y-125022914D01*
X125536741Y-125190106D01*
X125527788Y-125189939D01*
X125521576Y-125183489D01*
X125521002Y-125181548D01*
X125474472Y-124952325D01*
X125474472Y-124947674D01*
X125521002Y-124718454D01*
X125526005Y-124711030D01*
X125534795Y-124709318D01*
X125536738Y-124709892D01*
G37*
%TD.AperFunction*%
%TD*%
%TA.AperFunction,Conductor*%
%TO.N,Net-(J1-Pin_26)*%
G36*
X116836738Y-128859892D02*
G01*
X117262771Y-129027086D01*
X117269220Y-129033297D01*
X117270196Y-129037976D01*
X117270196Y-129162023D01*
X117266769Y-129170296D01*
X117262770Y-129172914D01*
X116836741Y-129340106D01*
X116827788Y-129339939D01*
X116821576Y-129333489D01*
X116821002Y-129331548D01*
X116774472Y-129102325D01*
X116774472Y-129097674D01*
X116821002Y-128868454D01*
X116826005Y-128861030D01*
X116834795Y-128859318D01*
X116836738Y-128859892D01*
G37*
%TD.AperFunction*%
%TD*%
%TA.AperFunction,Conductor*%
%TO.N,Net-(J1-Pin_26)*%
G36*
X128772211Y-128860060D02*
G01*
X128778423Y-128866510D01*
X128778998Y-128868456D01*
X128825527Y-129097672D01*
X128825527Y-129102328D01*
X128778998Y-129331543D01*
X128773994Y-129338969D01*
X128765204Y-129340681D01*
X128763258Y-129340106D01*
X128337230Y-129172914D01*
X128330780Y-129166702D01*
X128329804Y-129162023D01*
X128329804Y-129037976D01*
X128333231Y-129029703D01*
X128337227Y-129027086D01*
X128763259Y-128859893D01*
X128772211Y-128860060D01*
G37*
%TD.AperFunction*%
%TD*%
%TA.AperFunction,Conductor*%
%TO.N,Net-(J1-Pin_19)*%
G36*
X124567211Y-125585060D02*
G01*
X124573423Y-125591510D01*
X124573998Y-125593456D01*
X124620527Y-125822672D01*
X124620527Y-125827328D01*
X124573998Y-126056543D01*
X124568994Y-126063969D01*
X124560204Y-126065681D01*
X124558258Y-126065106D01*
X124132230Y-125897914D01*
X124125780Y-125891702D01*
X124124804Y-125887023D01*
X124124804Y-125762976D01*
X124128231Y-125754703D01*
X124132227Y-125752086D01*
X124558259Y-125584893D01*
X124567211Y-125585060D01*
G37*
%TD.AperFunction*%
%TD*%
%TA.AperFunction,Conductor*%
%TO.N,Net-(J1-Pin_19)*%
G36*
X114220061Y-125960792D02*
G01*
X114223476Y-125963163D01*
X114311211Y-126050898D01*
X114314638Y-126059171D01*
X114313420Y-126064369D01*
X114113757Y-126467013D01*
X114107011Y-126472902D01*
X114098077Y-126472297D01*
X114096813Y-126471569D01*
X113903374Y-126343411D01*
X113898370Y-126335985D01*
X113853129Y-126104537D01*
X113854905Y-126095763D01*
X113860518Y-126091335D01*
X114211115Y-125960475D01*
X114220061Y-125960792D01*
G37*
%TD.AperFunction*%
%TD*%
%TA.AperFunction,Conductor*%
%TO.N,Net-(J1-Pin_21)*%
G36*
X125922211Y-126185060D02*
G01*
X125928423Y-126191510D01*
X125928998Y-126193456D01*
X125975527Y-126422672D01*
X125975527Y-126427328D01*
X125928998Y-126656543D01*
X125923994Y-126663969D01*
X125915204Y-126665681D01*
X125913258Y-126665106D01*
X125487230Y-126497914D01*
X125480780Y-126491702D01*
X125479804Y-126487023D01*
X125479804Y-126362976D01*
X125483231Y-126354703D01*
X125487227Y-126352086D01*
X125913259Y-126184893D01*
X125922211Y-126185060D01*
G37*
%TD.AperFunction*%
%TD*%
%TA.AperFunction,Conductor*%
%TO.N,Net-(J1-Pin_21)*%
G36*
X116173433Y-126123910D02*
G01*
X116173661Y-126124067D01*
X116494050Y-126351502D01*
X116498812Y-126359086D01*
X116498977Y-126361043D01*
X116498977Y-126485187D01*
X116495550Y-126493460D01*
X116489315Y-126496708D01*
X116085007Y-126568209D01*
X116076263Y-126566275D01*
X116071503Y-126559017D01*
X116024974Y-126329798D01*
X116026685Y-126321009D01*
X116157196Y-126127083D01*
X116164657Y-126122134D01*
X116173433Y-126123910D01*
G37*
%TD.AperFunction*%
%TD*%
%TA.AperFunction,Conductor*%
%TO.N,Net-(J1-Pin_22)*%
G36*
X116036714Y-127209312D02*
G01*
X116041478Y-127216895D01*
X116041643Y-127218854D01*
X116041643Y-127341870D01*
X116040080Y-127347712D01*
X115864095Y-127653084D01*
X115856995Y-127658541D01*
X115848116Y-127657379D01*
X115847479Y-127656985D01*
X115653070Y-127527706D01*
X115648079Y-127520271D01*
X115648065Y-127520201D01*
X115614458Y-127347712D01*
X115603519Y-127291568D01*
X115605300Y-127282793D01*
X115612765Y-127277847D01*
X115612974Y-127277808D01*
X116027986Y-127207319D01*
X116036714Y-127209312D01*
G37*
%TD.AperFunction*%
%TD*%
%TA.AperFunction,Conductor*%
%TO.N,Net-(J1-Pin_22)*%
G36*
X125091649Y-127050368D02*
G01*
X125223266Y-127245938D01*
X125225042Y-127254714D01*
X125225025Y-127254798D01*
X125178863Y-127482209D01*
X125173859Y-127489635D01*
X125165069Y-127491347D01*
X125163666Y-127490970D01*
X124737773Y-127347681D01*
X124731025Y-127341795D01*
X124729804Y-127336592D01*
X124729804Y-127212516D01*
X124733231Y-127204243D01*
X124736638Y-127201875D01*
X125077080Y-127046258D01*
X125086027Y-127045936D01*
X125091649Y-127050368D01*
G37*
%TD.AperFunction*%
%TD*%
%TA.AperFunction,Conductor*%
%TO.N,Net-(J1-Pin_20)*%
G36*
X118146299Y-124515986D02*
G01*
X118234013Y-124603700D01*
X118237440Y-124611973D01*
X118236464Y-124616652D01*
X118053438Y-125036123D01*
X118046988Y-125042335D01*
X118038035Y-125042168D01*
X118036252Y-125041198D01*
X117841273Y-124912018D01*
X117837981Y-124908726D01*
X117781119Y-124822901D01*
X117708800Y-124713745D01*
X117707089Y-124704958D01*
X117712093Y-124697531D01*
X117713870Y-124696563D01*
X118133350Y-124513534D01*
X118142300Y-124513368D01*
X118146299Y-124515986D01*
G37*
%TD.AperFunction*%
%TD*%
%TA.AperFunction,Conductor*%
%TO.N,Net-(J1-Pin_20)*%
G36*
X126122211Y-124060060D02*
G01*
X126128423Y-124066510D01*
X126128998Y-124068456D01*
X126175527Y-124297672D01*
X126175527Y-124302328D01*
X126128998Y-124531543D01*
X126123994Y-124538969D01*
X126115204Y-124540681D01*
X126113258Y-124540106D01*
X125687230Y-124372914D01*
X125680780Y-124366702D01*
X125679804Y-124362023D01*
X125679804Y-124237976D01*
X125683231Y-124229703D01*
X125687227Y-124227086D01*
X126113259Y-124059893D01*
X126122211Y-124060060D01*
G37*
%TD.AperFunction*%
%TD*%
%TA.AperFunction,Conductor*%
%TO.N,Net-(J1-Pin_5)*%
G36*
X111300296Y-128748231D02*
G01*
X111302914Y-128752230D01*
X111470106Y-129178258D01*
X111469939Y-129187211D01*
X111463489Y-129193423D01*
X111461543Y-129193998D01*
X111232328Y-129240527D01*
X111227672Y-129240527D01*
X110998456Y-129193998D01*
X110991030Y-129188994D01*
X110989318Y-129180204D01*
X110989891Y-129178264D01*
X111157086Y-128752230D01*
X111163298Y-128745780D01*
X111167977Y-128744804D01*
X111292023Y-128744804D01*
X111300296Y-128748231D01*
G37*
%TD.AperFunction*%
%TD*%
%TA.AperFunction,Conductor*%
%TO.N,Net-(J1-Pin_5)*%
G36*
X145371738Y-119019892D02*
G01*
X145797771Y-119187086D01*
X145804220Y-119193297D01*
X145805196Y-119197976D01*
X145805196Y-119322023D01*
X145801769Y-119330296D01*
X145797770Y-119332914D01*
X145371741Y-119500106D01*
X145362788Y-119499939D01*
X145356576Y-119493489D01*
X145356002Y-119491548D01*
X145309472Y-119262325D01*
X145309472Y-119257674D01*
X145356002Y-119028454D01*
X145361005Y-119021030D01*
X145369795Y-119019318D01*
X145371738Y-119019892D01*
G37*
%TD.AperFunction*%
%TD*%
%TA.AperFunction,Conductor*%
%TO.N,Net-(J1-Pin_5)*%
G36*
X145257211Y-119020060D02*
G01*
X145263423Y-119026510D01*
X145263998Y-119028456D01*
X145310527Y-119257672D01*
X145310527Y-119262328D01*
X145263998Y-119491543D01*
X145258994Y-119498969D01*
X145250204Y-119500681D01*
X145248258Y-119500106D01*
X144822230Y-119332914D01*
X144815780Y-119326702D01*
X144814804Y-119322023D01*
X144814804Y-119197976D01*
X144818231Y-119189703D01*
X144822227Y-119187086D01*
X145248259Y-119019893D01*
X145257211Y-119020060D01*
G37*
%TD.AperFunction*%
%TD*%
%TA.AperFunction,Conductor*%
%TO.N,Net-(J1-Pin_7)*%
G36*
X145371738Y-121809892D02*
G01*
X145797771Y-121977086D01*
X145804220Y-121983297D01*
X145805196Y-121987976D01*
X145805196Y-122112023D01*
X145801769Y-122120296D01*
X145797770Y-122122914D01*
X145371741Y-122290106D01*
X145362788Y-122289939D01*
X145356576Y-122283489D01*
X145356002Y-122281548D01*
X145309472Y-122052325D01*
X145309472Y-122047674D01*
X145356002Y-121818454D01*
X145361005Y-121811030D01*
X145369795Y-121809318D01*
X145371738Y-121809892D01*
G37*
%TD.AperFunction*%
%TD*%
%TA.AperFunction,Conductor*%
%TO.N,Net-(J1-Pin_7)*%
G36*
X145257211Y-121810060D02*
G01*
X145263423Y-121816510D01*
X145263998Y-121818456D01*
X145310527Y-122047672D01*
X145310527Y-122052328D01*
X145263998Y-122281543D01*
X145258994Y-122288969D01*
X145250204Y-122290681D01*
X145248258Y-122290106D01*
X144822230Y-122122914D01*
X144815780Y-122116702D01*
X144814804Y-122112023D01*
X144814804Y-121987976D01*
X144818231Y-121979703D01*
X144822227Y-121977086D01*
X145248259Y-121809893D01*
X145257211Y-121810060D01*
G37*
%TD.AperFunction*%
%TD*%
%TA.AperFunction,Conductor*%
%TO.N,Net-(J1-Pin_7)*%
G36*
X112245296Y-128783231D02*
G01*
X112247914Y-128787230D01*
X112415106Y-129213258D01*
X112414939Y-129222211D01*
X112408489Y-129228423D01*
X112406543Y-129228998D01*
X112177328Y-129275527D01*
X112172672Y-129275527D01*
X111943456Y-129228998D01*
X111936030Y-129223994D01*
X111934318Y-129215204D01*
X111934891Y-129213264D01*
X112102086Y-128787230D01*
X112108298Y-128780780D01*
X112112977Y-128779804D01*
X112237023Y-128779804D01*
X112245296Y-128783231D01*
G37*
%TD.AperFunction*%
%TD*%
M02*
