%TF.GenerationSoftware,KiCad,Pcbnew,9.0.3*%
%TF.CreationDate,2025-09-15T23:10:18+03:00*%
%TF.ProjectId,Right,52696768-742e-46b6-9963-61645f706362,rev?*%
%TF.SameCoordinates,Original*%
%TF.FileFunction,Copper,L1,Top*%
%TF.FilePolarity,Positive*%
%FSLAX46Y46*%
G04 Gerber Fmt 4.6, Leading zero omitted, Abs format (unit mm)*
G04 Created by KiCad (PCBNEW 9.0.3) date 2025-09-15 23:10:18*
%MOMM*%
%LPD*%
G01*
G04 APERTURE LIST*
G04 Aperture macros list*
%AMRotRect*
0 Rectangle, with rotation*
0 The origin of the aperture is its center*
0 $1 length*
0 $2 width*
0 $3 Rotation angle, in degrees counterclockwise*
0 Add horizontal line*
21,1,$1,$2,0,0,$3*%
%AMFreePoly0*
4,1,72,0.663536,1.453536,0.664990,1.450312,0.674986,1.290376,0.684974,1.180502,0.694961,1.090620,0.704950,1.010707,0.714943,0.940757,0.734918,0.820906,0.764878,0.671101,0.824807,0.431389,0.834743,0.401581,0.834851,0.401213,0.844807,0.361389,0.934706,0.091692,0.964677,0.011772,1.004608,-0.088058,1.034593,-0.158023,1.074525,-0.247870,1.184421,-0.467662,1.234361,-0.557554,
1.274329,-0.627498,1.334250,-0.727365,1.404218,-0.837317,1.405000,-0.840001,1.405000,-0.860000,1.403536,-0.863536,1.402936,-0.864047,-0.017064,-1.894047,-0.020786,-1.894938,-0.024047,-1.892936,-0.094096,-1.792867,-0.094218,-1.792684,-0.164258,-1.682620,-0.244258,-1.552620,-0.244341,-1.552480,-0.324341,-1.412481,-0.384389,-1.302394,-0.384472,-1.302236,-0.524472,-1.022236,-0.524569,-1.022031,
-0.564525,-0.932131,-0.574472,-0.912236,-0.574596,-0.911970,-0.634596,-0.771971,-0.634642,-0.771857,-0.694683,-0.621756,-0.724682,-0.541756,-0.784714,-0.371664,-0.824743,-0.251582,-0.824789,-0.251437,-0.854808,-0.151375,-0.894808,-0.011374,-0.894852,-0.011213,-0.954851,0.228787,-0.954893,0.228971,-0.994893,0.418970,-1.024932,0.579178,-1.044932,0.699179,-1.044950,0.699293,-1.054950,0.769293,
-1.074969,0.929448,-1.084969,1.019448,-1.084984,1.019585,-1.094983,1.139584,-1.104990,1.279688,-1.114990,1.439688,-1.115000,1.440000,-1.115000,1.450000,-1.113536,1.453535,-1.110000,1.455000,0.660000,1.455000,0.663536,1.453536,0.663536,1.453536,$1*%
%AMFreePoly1*
4,1,7,0.150000,0.330000,0.150000,-0.365000,-0.150000,-0.365000,-0.150000,0.330000,-0.050000,0.370000,0.050000,0.370000,0.150000,0.330000,0.150000,0.330000,$1*%
%AMFreePoly2*
4,1,7,0.120000,-0.275000,0.050000,-0.315000,-0.050000,-0.315000,-0.120000,-0.275000,-0.120000,0.300000,0.120000,0.300000,0.120000,-0.275000,0.120000,-0.275000,$1*%
G04 Aperture macros list end*
%TA.AperFunction,SMDPad,CuDef*%
%ADD10R,1.200000X1.200000*%
%TD*%
%TA.AperFunction,SMDPad,CuDef*%
%ADD11RotRect,0.400000X0.800000X135.000000*%
%TD*%
%TA.AperFunction,SMDPad,CuDef*%
%ADD12RotRect,0.400000X0.800000X315.000000*%
%TD*%
%TA.AperFunction,SMDPad,CuDef*%
%ADD13RotRect,1.400000X1.000000X135.000000*%
%TD*%
%TA.AperFunction,SMDPad,CuDef*%
%ADD14R,0.800000X0.800000*%
%TD*%
%TA.AperFunction,SMDPad,CuDef*%
%ADD15R,2.000000X2.000000*%
%TD*%
%TA.AperFunction,SMDPad,CuDef*%
%ADD16RotRect,1.200000X1.200000X198.000000*%
%TD*%
%TA.AperFunction,SMDPad,CuDef*%
%ADD17RotRect,1.200000X1.200000X341.000000*%
%TD*%
%TA.AperFunction,SMDPad,CuDef*%
%ADD18RotRect,1.200000X1.200000X305.000000*%
%TD*%
%TA.AperFunction,SMDPad,CuDef*%
%ADD19RotRect,1.200000X1.200000X19.000000*%
%TD*%
%TA.AperFunction,SMDPad,CuDef*%
%ADD20FreePoly0,324.000000*%
%TD*%
%TA.AperFunction,SMDPad,CuDef*%
%ADD21FreePoly0,288.000000*%
%TD*%
%TA.AperFunction,SMDPad,CuDef*%
%ADD22FreePoly0,252.000000*%
%TD*%
%TA.AperFunction,SMDPad,CuDef*%
%ADD23FreePoly0,216.000000*%
%TD*%
%TA.AperFunction,SMDPad,CuDef*%
%ADD24FreePoly0,180.000000*%
%TD*%
%TA.AperFunction,SMDPad,CuDef*%
%ADD25FreePoly0,144.000000*%
%TD*%
%TA.AperFunction,SMDPad,CuDef*%
%ADD26FreePoly0,108.000000*%
%TD*%
%TA.AperFunction,SMDPad,CuDef*%
%ADD27FreePoly0,72.000000*%
%TD*%
%TA.AperFunction,SMDPad,CuDef*%
%ADD28FreePoly0,36.000000*%
%TD*%
%TA.AperFunction,SMDPad,CuDef*%
%ADD29FreePoly0,0.000000*%
%TD*%
%TA.AperFunction,SMDPad,CuDef*%
%ADD30C,0.858836*%
%TD*%
%TA.AperFunction,SMDPad,CuDef*%
%ADD31C,8.420022*%
%TD*%
%TA.AperFunction,SMDPad,CuDef*%
%ADD32RotRect,1.200000X1.200000X162.000000*%
%TD*%
%TA.AperFunction,SMDPad,CuDef*%
%ADD33R,1.800000X1.800000*%
%TD*%
%TA.AperFunction,SMDPad,CuDef*%
%ADD34R,2.200000X2.200000*%
%TD*%
%TA.AperFunction,SMDPad,CuDef*%
%ADD35RotRect,1.200000X1.200000X126.000000*%
%TD*%
%TA.AperFunction,SMDPad,CuDef*%
%ADD36FreePoly1,0.000000*%
%TD*%
%TA.AperFunction,SMDPad,CuDef*%
%ADD37FreePoly2,0.000000*%
%TD*%
%TA.AperFunction,SMDPad,CuDef*%
%ADD38R,1.400000X1.600000*%
%TD*%
%TA.AperFunction,SMDPad,CuDef*%
%ADD39R,3.000000X3.000000*%
%TD*%
%TA.AperFunction,SMDPad,CuDef*%
%ADD40RotRect,1.200000X1.200000X234.000000*%
%TD*%
%TA.AperFunction,SMDPad,CuDef*%
%ADD41R,2.000000X1.400000*%
%TD*%
%TA.AperFunction,SMDPad,CuDef*%
%ADD42RotRect,1.200000X1.200000X55.000000*%
%TD*%
%TA.AperFunction,ComponentPad*%
%ADD43R,2.000000X2.000000*%
%TD*%
%TA.AperFunction,ComponentPad*%
%ADD44R,4.000000X2.000000*%
%TD*%
%TA.AperFunction,ViaPad*%
%ADD45C,0.600000*%
%TD*%
%TA.AperFunction,ViaPad*%
%ADD46C,0.500000*%
%TD*%
%TA.AperFunction,Conductor*%
%ADD47C,0.140000*%
%TD*%
%TA.AperFunction,Conductor*%
%ADD48C,0.250000*%
%TD*%
%TA.AperFunction,Conductor*%
%ADD49C,0.100000*%
%TD*%
%TA.AperFunction,Conductor*%
%ADD50C,0.200000*%
%TD*%
%TA.AperFunction,Conductor*%
%ADD51C,1.000000*%
%TD*%
%TA.AperFunction,Conductor*%
%ADD52C,0.040000*%
%TD*%
G04 APERTURE END LIST*
D10*
%TO.P,R9,1*%
%TO.N,Net-(J1-Pin_31)*%
X118300000Y-109040000D03*
%TO.P,R9,2*%
%TO.N,Net-(BT1-+)*%
X118300000Y-107390000D03*
%TD*%
D11*
%TO.P,J4,1,Pin_1*%
%TO.N,Net-(J1-Pin_26)*%
X129325442Y-113328685D03*
%TO.P,J4,2,Pin_2*%
%TO.N,Net-(J1-Pin_23)*%
X131658894Y-110570969D03*
%TO.P,J4,3,Pin_3*%
%TO.N,Net-(J1-Pin_25)*%
X128901178Y-112904421D03*
%TO.P,J4,4,Pin_4*%
%TO.N,Net-(J1-Pin_19)*%
X131234630Y-110146705D03*
%TO.P,J4,5,Pin_5*%
%TO.N,Net-(J1-Pin_23)*%
X128476914Y-112480157D03*
%TO.P,J4,6,Pin_6*%
%TO.N,Net-(J1-Pin_20)*%
X130810366Y-109722441D03*
%TO.P,J4,7,Pin_7*%
%TO.N,Net-(J1-Pin_23)*%
X128052650Y-112055893D03*
%TO.P,J4,8,Pin_8*%
%TO.N,Net-(J1-Pin_21)*%
X130386102Y-109298177D03*
D12*
%TO.P,J4,9,Pin_9*%
%TO.N,Net-(J1-Pin_22)*%
X127628386Y-111631629D03*
D13*
%TO.P,J4,SH*%
%TO.N,N/C*%
X130881077Y-113470107D03*
X127416254Y-110005283D03*
%TD*%
D14*
%TO.P,U1,1,A*%
%TO.N,Net-(J1-Pin_21)*%
X129730000Y-126300000D03*
%TO.P,U1,2,K*%
%TO.N,Net-(U1-K)*%
X130730000Y-126300000D03*
%TO.P,U1,3,C*%
%TO.N,Net-(J1-Pin_23)*%
X129730000Y-124300000D03*
%TO.P,U1,4,E*%
%TO.N,Net-(J1-Pin_19)*%
X130730000Y-124300000D03*
%TD*%
D15*
%TO.P,SW4,1,1*%
%TO.N,Net-(J6-Pin_1)*%
X85310000Y-179340000D03*
%TO.P,SW4,2,2*%
%TO.N,Net-(J6-Pin_2)*%
X85310000Y-173540000D03*
%TO.P,SW4,3,3*%
X89010000Y-179340000D03*
%TO.P,SW4,4,4*%
%TO.N,Net-(J6-Pin_3)*%
X89010000Y-173540000D03*
%TD*%
D16*
%TO.P,R6,1*%
%TO.N,Net-(R5-Pad2)*%
X116039866Y-124586606D03*
%TO.P,R6,2*%
%TO.N,Net-(R6-Pad2)*%
X114470623Y-125096484D03*
%TD*%
D17*
%TO.P,R3,1*%
%TO.N,Net-(R2-Pad2)*%
X114614675Y-110193034D03*
%TO.P,R3,2*%
%TO.N,Net-(R3-Pad2)*%
X116174780Y-110730222D03*
%TD*%
D18*
%TO.P,R4,1*%
%TO.N,Net-(R3-Pad2)*%
X118879667Y-112498295D03*
%TO.P,R4,2*%
%TO.N,Net-(R4-Pad2)*%
X119826068Y-113849896D03*
%TD*%
D19*
%TO.P,R2,1*%
%TO.N,Net-(R1-Pad2)*%
X109734675Y-110756966D03*
%TO.P,R2,2*%
%TO.N,Net-(R2-Pad2)*%
X111294780Y-110219778D03*
%TD*%
D20*
%TO.P,SW1,1,1*%
%TO.N,Net-(J1-Pin_1)*%
X107820000Y-116120000D03*
D21*
%TO.P,SW1,2,2*%
%TO.N,Net-(R1-Pad2)*%
X109790000Y-113440000D03*
D22*
%TO.P,SW1,3,3*%
%TO.N,Net-(R2-Pad2)*%
X112980000Y-112430000D03*
D23*
%TO.P,SW1,4,4*%
%TO.N,Net-(R3-Pad2)*%
X116140000Y-113480000D03*
D24*
%TO.P,SW1,5,5*%
%TO.N,Net-(R4-Pad2)*%
X118080000Y-116180000D03*
D25*
%TO.P,SW1,6,6*%
%TO.N,Net-(R5-Pad1)*%
X118060000Y-119520000D03*
D26*
%TO.P,SW1,7,7*%
%TO.N,Net-(R5-Pad2)*%
X116080000Y-122200000D03*
D27*
%TO.P,SW1,8,8*%
%TO.N,Net-(R6-Pad2)*%
X112910000Y-123210000D03*
D28*
%TO.P,SW1,9,9*%
%TO.N,Net-(R7-Pad2)*%
X109740000Y-122160000D03*
D29*
%TO.P,SW1,10,10*%
%TO.N,Net-(J1-Pin_4)*%
X107800000Y-119450000D03*
D30*
%TO.P,SW1,13,13*%
%TO.N,Net-(J1-Pin_2)*%
X109310000Y-117820000D03*
D31*
X112970000Y-117830000D03*
%TD*%
D32*
%TO.P,R7,1*%
%TO.N,Net-(R6-Pad2)*%
X111459866Y-125063394D03*
%TO.P,R7,2*%
%TO.N,Net-(R7-Pad2)*%
X109890623Y-124553516D03*
%TD*%
D33*
%TO.P,SW3,1,1*%
%TO.N,Net-(J1-Pin_23)*%
X131250000Y-139550000D03*
%TO.P,SW3,2,2*%
%TO.N,Net-(J1-Pin_26)*%
X137750000Y-139550000D03*
%TO.P,SW3,3,3*%
X137750000Y-136450000D03*
%TO.P,SW3,4,4*%
%TO.N,Net-(J1-Pin_25)*%
X131250000Y-136450000D03*
%TD*%
D34*
%TO.P,BT1,1,+*%
%TO.N,Net-(BT1-+)*%
X115625000Y-104850000D03*
%TO.P,BT1,2,-*%
%TO.N,Net-(BT1--)*%
X115625000Y-102450000D03*
%TD*%
D14*
%TO.P,U2,1,A*%
%TO.N,Net-(U1-K)*%
X135800000Y-121220000D03*
%TO.P,U2,2,K*%
%TO.N,Net-(J1-Pin_22)*%
X135800000Y-120220000D03*
%TO.P,U2,3,C*%
%TO.N,Net-(J1-Pin_23)*%
X133800000Y-121220000D03*
%TO.P,U2,4,E*%
%TO.N,Net-(J1-Pin_20)*%
X133800000Y-120220000D03*
%TD*%
D35*
%TO.P,R8,1*%
%TO.N,Net-(R7-Pad2)*%
X107051984Y-123013394D03*
%TO.P,R8,2*%
%TO.N,Net-(J1-Pin_4)*%
X106082138Y-121678516D03*
%TD*%
D36*
%TO.P,J1,1,Pin_1*%
%TO.N,Net-(J1-Pin_1)*%
X103240000Y-179730000D03*
D37*
%TO.P,J1,2,Pin_2*%
%TO.N,Net-(J1-Pin_2)*%
X103490000Y-178980000D03*
D36*
%TO.P,J1,3,Pin_3*%
X103734118Y-179730000D03*
D37*
%TO.P,J1,4,Pin_4*%
%TO.N,Net-(J1-Pin_4)*%
X103983750Y-178980000D03*
D36*
%TO.P,J1,5,Pin_5*%
%TO.N,Net-(J1-Pin_5)*%
X104228235Y-179730000D03*
D37*
%TO.P,J1,6,Pin_6*%
X104477500Y-178980000D03*
D36*
%TO.P,J1,7,Pin_7*%
%TO.N,Net-(J1-Pin_7)*%
X104722353Y-179730000D03*
D37*
%TO.P,J1,8,Pin_8*%
%TO.N,Net-(J1-Pin_8)*%
X104971250Y-178980000D03*
D36*
%TO.P,J1,9,Pin_9*%
X105216471Y-179730000D03*
D37*
%TO.P,J1,10,Pin_10*%
%TO.N,unconnected-(J1-Pin_10-Pad10)*%
X105465000Y-178980000D03*
D36*
%TO.P,J1,11,Pin_11*%
%TO.N,unconnected-(J1-Pin_11-Pad11)*%
X105710588Y-179730000D03*
D37*
%TO.P,J1,12,Pin_12*%
%TO.N,Net-(J1-Pin_12)*%
X105958750Y-178980000D03*
D36*
%TO.P,J1,13,Pin_13*%
X106204706Y-179730000D03*
D37*
%TO.P,J1,14,Pin_14*%
%TO.N,unconnected-(J1-Pin_14-Pad14)*%
X106452500Y-178980000D03*
D36*
%TO.P,J1,15,Pin_15*%
%TO.N,Net-(D1-K)*%
X106698824Y-179730000D03*
D37*
%TO.P,J1,16,Pin_16*%
%TO.N,Net-(D1-A)*%
X106950000Y-178980000D03*
D36*
%TO.P,J1,17,Pin_17*%
%TO.N,Net-(D2-A)*%
X107192941Y-179730000D03*
D37*
%TO.P,J1,18,Pin_18*%
%TO.N,Net-(D2-K)*%
X107440000Y-178980000D03*
D36*
%TO.P,J1,19,Pin_19*%
%TO.N,Net-(J1-Pin_19)*%
X107687059Y-179730000D03*
D37*
%TO.P,J1,20,Pin_20*%
%TO.N,Net-(J1-Pin_20)*%
X107933750Y-178980000D03*
D36*
%TO.P,J1,21,Pin_21*%
%TO.N,Net-(J1-Pin_21)*%
X108181176Y-179730000D03*
D37*
%TO.P,J1,22,Pin_22*%
%TO.N,Net-(J1-Pin_22)*%
X108427500Y-178980000D03*
D36*
%TO.P,J1,23,Pin_23*%
%TO.N,Net-(J1-Pin_23)*%
X108675294Y-179730000D03*
D37*
%TO.P,J1,24,Pin_24*%
X108921250Y-178980000D03*
D36*
%TO.P,J1,25,Pin_25*%
%TO.N,Net-(J1-Pin_25)*%
X109169412Y-179730000D03*
D37*
%TO.P,J1,26,Pin_26*%
%TO.N,Net-(J1-Pin_26)*%
X109420000Y-178980000D03*
D36*
%TO.P,J1,27,Pin_27*%
%TO.N,unconnected-(J1-Pin_27-Pad27)*%
X109663529Y-179730000D03*
D37*
%TO.P,J1,28,Pin_28*%
%TO.N,unconnected-(J1-Pin_28-Pad28)*%
X109908750Y-178980000D03*
D36*
%TO.P,J1,29,Pin_29*%
%TO.N,unconnected-(J1-Pin_29-Pad29)*%
X110157647Y-179730000D03*
D37*
%TO.P,J1,30,Pin_30*%
%TO.N,unconnected-(J1-Pin_30-Pad30)*%
X110402500Y-178980000D03*
D36*
%TO.P,J1,31,Pin_31*%
%TO.N,Net-(J1-Pin_31)*%
X110651765Y-179730000D03*
D37*
%TO.P,J1,32,Pin_32*%
%TO.N,Net-(BT1--)*%
X110896250Y-178980000D03*
D36*
%TO.P,J1,33,Pin_33*%
%TO.N,Net-(J1-Pin_33)*%
X111145882Y-179730000D03*
D37*
%TO.P,J1,34,Pin_34*%
%TO.N,Net-(J1-Pin_34)*%
X111390000Y-178980000D03*
D36*
%TO.P,J1,35,Pin_35*%
%TO.N,Net-(J1-Pin_35)*%
X111640000Y-179730000D03*
%TD*%
D15*
%TO.P,J5,1,Pin_1*%
%TO.N,Net-(J1-Pin_23)*%
X143080000Y-140480000D03*
%TO.P,J5,2,Pin_2*%
%TO.N,Net-(J1-Pin_26)*%
X145280000Y-140480000D03*
%TO.P,J5,3,Pin_3*%
%TO.N,Net-(J1-Pin_25)*%
X147480000Y-140480000D03*
%TD*%
D38*
%TO.P,RV1,1,1*%
%TO.N,Net-(J1-Pin_33)*%
X146870000Y-107120000D03*
%TO.P,RV1,2,2*%
%TO.N,Net-(J1-Pin_34)*%
X145050000Y-107120000D03*
%TO.P,RV1,3,3*%
%TO.N,Net-(J1-Pin_35)*%
X143230000Y-107120000D03*
D39*
%TO.P,RV1,SH*%
%TO.N,N/C*%
X148950000Y-111300000D03*
X141150000Y-111300000D03*
%TD*%
D40*
%TO.P,R5,1*%
%TO.N,Net-(R5-Pad1)*%
X119861984Y-121786606D03*
%TO.P,R5,2*%
%TO.N,Net-(R5-Pad2)*%
X118892138Y-123121484D03*
%TD*%
D41*
%TO.P,J6,1,Pin_1*%
%TO.N,Net-(J6-Pin_1)*%
X91420000Y-108540000D03*
%TO.P,J6,2,Pin_2*%
%TO.N,Net-(J6-Pin_2)*%
X91420000Y-110440000D03*
%TO.P,J6,3,Pin_3*%
%TO.N,Net-(J6-Pin_3)*%
X91420000Y-112340000D03*
%TD*%
D42*
%TO.P,R1,1*%
%TO.N,Net-(J1-Pin_1)*%
X106069667Y-113911705D03*
%TO.P,R1,2*%
%TO.N,Net-(R1-Pad2)*%
X107016068Y-112560104D03*
%TD*%
D43*
%TO.P,SW2,1,B*%
%TO.N,Net-(J1-Pin_5)*%
X148340000Y-119260000D03*
X142110000Y-119280000D03*
D44*
%TO.P,SW2,2,C*%
%TO.N,Net-(J1-Pin_7)*%
X147340000Y-122050000D03*
D43*
%TO.P,SW2,3,A*%
X142110000Y-122040000D03*
%TD*%
D45*
%TO.N,Net-(J1-Pin_19)*%
X130540000Y-121390000D03*
%TO.N,Net-(J1-Pin_21)*%
X129660000Y-122090000D03*
D46*
%TO.N,Net-(D1-A)*%
X110430000Y-127500000D03*
%TO.N,Net-(D1-K)*%
X109830000Y-127920000D03*
%TO.N,Net-(D2-K)*%
X111660000Y-126500000D03*
%TO.N,Net-(D2-A)*%
X111210000Y-127120000D03*
%TO.N,Net-(J1-Pin_25)*%
X123630000Y-127910000D03*
X116732500Y-128192500D03*
%TO.N,Net-(J1-Pin_23)*%
X122300000Y-129190000D03*
X119050000Y-124950000D03*
X125475000Y-124950000D03*
%TO.N,Net-(J1-Pin_26)*%
X116775000Y-129100000D03*
X122970000Y-128570000D03*
%TO.N,Net-(J1-Pin_19)*%
X124620000Y-125825000D03*
X113810000Y-126460000D03*
%TO.N,Net-(J1-Pin_21)*%
X125975000Y-126425000D03*
X115915000Y-126435000D03*
%TO.N,Net-(J1-Pin_22)*%
X125225000Y-127250000D03*
X115650000Y-127525000D03*
%TO.N,Net-(J1-Pin_20)*%
X117840000Y-124910000D03*
X126175000Y-124300000D03*
%TO.N,Net-(J1-Pin_5)*%
X111510000Y-128570000D03*
%TO.N,Net-(J1-Pin_7)*%
X112510000Y-128560000D03*
%TD*%
D47*
%TO.N,Net-(J1-Pin_19)*%
X124620000Y-125825000D02*
X124625000Y-125830000D01*
X125560000Y-125830000D02*
X125970000Y-125420000D01*
X124625000Y-125830000D02*
X125560000Y-125830000D01*
X125970000Y-125420000D02*
X130180000Y-125420000D01*
X130180000Y-125420000D02*
X130730000Y-124870000D01*
X130730000Y-124870000D02*
X130730000Y-124300000D01*
%TO.N,Net-(J1-Pin_22)*%
X125225000Y-127250000D02*
X131240000Y-127250000D01*
X131240000Y-127250000D02*
X132590000Y-128600000D01*
X138510000Y-126710000D02*
X138510000Y-122390000D01*
X138510000Y-122390000D02*
X136340000Y-120220000D01*
X132590000Y-128600000D02*
X136620000Y-128600000D01*
X136620000Y-128600000D02*
X138510000Y-126710000D01*
X136340000Y-120220000D02*
X135800000Y-120220000D01*
%TO.N,Net-(U1-K)*%
X130730000Y-126300000D02*
X132750000Y-128320000D01*
X136460000Y-128320000D02*
X138200000Y-126580000D01*
X132750000Y-128320000D02*
X136460000Y-128320000D01*
X138200000Y-126580000D02*
X138200000Y-123090000D01*
X138200000Y-123090000D02*
X136330000Y-121220000D01*
X136330000Y-121220000D02*
X135800000Y-121220000D01*
%TO.N,Net-(J1-Pin_22)*%
X135800000Y-120220000D02*
X135800000Y-110940000D01*
X135800000Y-110940000D02*
X132560000Y-107700000D01*
X132560000Y-107700000D02*
X128000000Y-107700000D01*
X126250000Y-109450000D02*
X126250000Y-110253243D01*
X128000000Y-107700000D02*
X126250000Y-109450000D01*
X126250000Y-110253243D02*
X127628386Y-111631629D01*
D48*
%TO.N,Net-(BT1-+)*%
X115625000Y-104850000D02*
X117160000Y-104850000D01*
X117160000Y-104850000D02*
X118300000Y-105990000D01*
X118300000Y-105990000D02*
X118300000Y-107390000D01*
%TO.N,Net-(J1-Pin_31)*%
X118300000Y-109040000D02*
X118300000Y-109480000D01*
X118300000Y-109480000D02*
X121840000Y-113020000D01*
X121840000Y-113020000D02*
X121840000Y-123820000D01*
D47*
%TO.N,Net-(J1-Pin_19)*%
X130540000Y-118440000D02*
X132780000Y-116200000D01*
X130760000Y-111330000D02*
X130760000Y-110621335D01*
X132780000Y-116200000D02*
X132780000Y-113350000D01*
X130540000Y-121390000D02*
X130540000Y-118440000D01*
X132780000Y-113350000D02*
X130760000Y-111330000D01*
X130760000Y-110621335D02*
X131234630Y-110146705D01*
%TO.N,Net-(J1-Pin_21)*%
X129660000Y-122090000D02*
X129660000Y-118690000D01*
X129900000Y-109784279D02*
X130386102Y-109298177D01*
X129900000Y-111020000D02*
X129900000Y-109784279D01*
X129660000Y-118690000D02*
X132390000Y-115960000D01*
X132390000Y-115960000D02*
X132390000Y-113510000D01*
X132390000Y-113510000D02*
X129900000Y-111020000D01*
%TO.N,Net-(J1-Pin_26)*%
X128540000Y-114120000D02*
X128350000Y-114310000D01*
X128540000Y-114114127D02*
X128540000Y-114120000D01*
%TO.N,Net-(J1-Pin_25)*%
X128050000Y-113760000D02*
X127930000Y-113880000D01*
X128050000Y-113755599D02*
X128050000Y-113760000D01*
%TO.N,Net-(J1-Pin_23)*%
X131658894Y-110570969D02*
X132429862Y-109800000D01*
X132429862Y-109800000D02*
X132429863Y-109800000D01*
%TO.N,Net-(J1-Pin_21)*%
X130386102Y-109298177D02*
X131060000Y-108624279D01*
%TO.N,Net-(J1-Pin_19)*%
X131234630Y-110146705D02*
X131900000Y-109481335D01*
%TO.N,Net-(J1-Pin_26)*%
X129325442Y-113328685D02*
X128540000Y-114114127D01*
%TO.N,Net-(J1-Pin_25)*%
X128901178Y-112904421D02*
X128050000Y-113755599D01*
%TO.N,Net-(J1-Pin_23)*%
X128476914Y-112480157D02*
X127500000Y-113457071D01*
X128052650Y-112055893D02*
X127038543Y-113070000D01*
%TO.N,Net-(J1-Pin_22)*%
X127628386Y-111631629D02*
X126590015Y-112670000D01*
%TO.N,Net-(J1-Pin_23)*%
X132380000Y-108260000D02*
X129980000Y-108260000D01*
X134300000Y-121220000D02*
X134820000Y-120700000D01*
X133800000Y-121220000D02*
X134300000Y-121220000D01*
X134820000Y-120700000D02*
X134820000Y-110700000D01*
X134820000Y-110700000D02*
X132380000Y-108260000D01*
X129980000Y-108260000D02*
X129190000Y-109050000D01*
X129190000Y-109050000D02*
X129190000Y-110918543D01*
X129190000Y-110918543D02*
X128052650Y-112055893D01*
X129730000Y-124300000D02*
X129730000Y-123980000D01*
X129730000Y-123980000D02*
X132490000Y-121220000D01*
X132490000Y-121220000D02*
X133800000Y-121220000D01*
X122300000Y-129190000D02*
X121800000Y-128690000D01*
X121800000Y-128690000D02*
X121800000Y-127390000D01*
X124240000Y-124950000D02*
X125475000Y-124950000D01*
X121800000Y-127390000D02*
X124240000Y-124950000D01*
%TO.N,Net-(J1-Pin_35)*%
X112295786Y-153604214D02*
G75*
G03*
X111710019Y-155018427I1414214J-1414186D01*
G01*
X143230000Y-107120000D02*
X143230000Y-105070000D01*
X129370000Y-103130000D02*
X123510000Y-108990000D01*
X143230000Y-105070000D02*
X141290000Y-103130000D01*
X123510000Y-108990000D02*
X123510000Y-124990000D01*
X111710000Y-155018427D02*
X111710000Y-179620000D01*
X111710000Y-179620000D02*
X111640000Y-179690000D01*
X119300000Y-129200000D02*
X119300000Y-145771573D01*
X123510000Y-124990000D02*
X119300000Y-129200000D01*
X141290000Y-103130000D02*
X129370000Y-103130000D01*
X118714213Y-147185787D02*
X112295786Y-153604214D01*
X119300000Y-145771573D02*
G75*
G02*
X118714227Y-147185801I-2000000J-27D01*
G01*
%TO.N,Net-(J1-Pin_34)*%
X145050000Y-105070000D02*
X142790000Y-102810000D01*
X111975786Y-153524214D02*
G75*
G03*
X111390019Y-154938427I1414214J-1414186D01*
G01*
X111390000Y-154938427D02*
X111390000Y-178980000D01*
X145050000Y-107120000D02*
X145050000Y-105070000D01*
X142790000Y-102810000D02*
X129280000Y-102810000D01*
X118980000Y-145691573D02*
G75*
G02*
X118394227Y-147105801I-2000000J-27D01*
G01*
X129280000Y-102810000D02*
X123190000Y-108900000D01*
X123190000Y-108900000D02*
X123190000Y-124810000D01*
X123190000Y-124810000D02*
X118980000Y-129020000D01*
X118980000Y-129020000D02*
X118980000Y-145691573D01*
X118394213Y-147105787D02*
X111975786Y-153524214D01*
%TO.N,Net-(J1-Pin_33)*%
X111645786Y-153404214D02*
G75*
G03*
X111060019Y-154818427I1414214J-1414186D01*
G01*
X146870000Y-107120000D02*
X146870000Y-105070000D01*
X146870000Y-105070000D02*
X144290000Y-102490000D01*
X118650000Y-145571573D02*
G75*
G02*
X118064227Y-146985801I-2000000J-27D01*
G01*
X144290000Y-102490000D02*
X129180000Y-102490000D01*
X129180000Y-102490000D02*
X122880000Y-108790000D01*
X122880000Y-108790000D02*
X122880000Y-124660000D01*
X122880000Y-124660000D02*
X118650000Y-128890000D01*
X118650000Y-128890000D02*
X118650000Y-145571573D01*
X118064213Y-146985787D02*
X111645786Y-153404214D01*
X111060000Y-154818427D02*
X111060000Y-177380000D01*
D48*
%TO.N,Net-(BT1--)*%
X115625000Y-102450000D02*
X117150000Y-102450000D01*
X117539213Y-146755787D02*
X111120786Y-153174214D01*
X110535000Y-154588427D02*
X110535000Y-177475000D01*
X110535000Y-177475000D02*
X110690000Y-177630000D01*
X111120786Y-153174214D02*
G75*
G03*
X110535019Y-154588427I1414214J-1414186D01*
G01*
X117150000Y-102450000D02*
X119430000Y-104730000D01*
X118125000Y-145341573D02*
G75*
G02*
X117539227Y-146755801I-2000000J-27D01*
G01*
X119430000Y-104730000D02*
X119430000Y-109795000D01*
X122400000Y-112765000D02*
X122400000Y-124040000D01*
X122400000Y-124040000D02*
X118125000Y-128315000D01*
X119430000Y-109795000D02*
X122400000Y-112765000D01*
X118125000Y-128315000D02*
X118125000Y-145341573D01*
D47*
%TO.N,Net-(J1-Pin_31)*%
X121840000Y-123820000D02*
X121810000Y-123850000D01*
%TO.N,Net-(J1-Pin_23)*%
X128476914Y-112480157D02*
X128052650Y-112055893D01*
%TO.N,Net-(J1-Pin_20)*%
X133800000Y-110370000D02*
X132510000Y-109080000D01*
X133800000Y-120220000D02*
X133800000Y-110370000D01*
X132510000Y-109080000D02*
X131452807Y-109080000D01*
X131452807Y-109080000D02*
X130810366Y-109722441D01*
%TO.N,Net-(D1-A)*%
X112790000Y-127660000D02*
X113425000Y-128295000D01*
X110430000Y-127500000D02*
X110590000Y-127660000D01*
X106160000Y-177275000D02*
X106950000Y-178065000D01*
X106160000Y-152288427D02*
X106160000Y-177275000D01*
X112839213Y-144780787D02*
X106745786Y-150874214D01*
X110590000Y-127660000D02*
X112790000Y-127660000D01*
X113425000Y-128295000D02*
X113425000Y-143366573D01*
X106950000Y-178065000D02*
X106950000Y-178980000D01*
X106745786Y-150874214D02*
G75*
G03*
X106160019Y-152288427I1414214J-1414186D01*
G01*
X113425000Y-143366573D02*
G75*
G02*
X112839227Y-144780801I-2000000J-27D01*
G01*
%TO.N,Net-(D1-K)*%
X112564213Y-144665787D02*
X106465786Y-150764214D01*
X109830000Y-127920000D02*
X109890000Y-127980000D01*
X105880000Y-177377500D02*
X106700000Y-178197500D01*
X112750000Y-127980000D02*
X113150000Y-128380000D01*
X109890000Y-127980000D02*
X112750000Y-127980000D01*
D49*
X106700000Y-179730000D02*
X106700000Y-178430000D01*
D47*
X106700000Y-178197500D02*
X106700000Y-178430000D01*
X105880000Y-152178427D02*
X105880000Y-177377500D01*
X113150000Y-128380000D02*
X113150000Y-143251573D01*
X113150000Y-143251573D02*
G75*
G02*
X112564227Y-144665801I-2000000J-27D01*
G01*
X106465786Y-150764214D02*
G75*
G03*
X105880019Y-152178427I1414214J-1414186D01*
G01*
%TO.N,Net-(D2-K)*%
X113950000Y-127590000D02*
X113950000Y-143631573D01*
X107450000Y-177840000D02*
X107450000Y-178980000D01*
X111660000Y-126500000D02*
X111790000Y-126630000D01*
X112990000Y-126630000D02*
X113950000Y-127590000D01*
X111790000Y-126630000D02*
X112990000Y-126630000D01*
X106720000Y-152518427D02*
X106720000Y-177110000D01*
X106720000Y-177110000D02*
X107450000Y-177840000D01*
X113364213Y-145045787D02*
X107305786Y-151104214D01*
X113950000Y-143631573D02*
G75*
G02*
X113364227Y-145045801I-2000000J-27D01*
G01*
X107305786Y-151104214D02*
G75*
G03*
X106720019Y-152518427I1414214J-1414186D01*
G01*
D49*
%TO.N,Net-(D2-A)*%
X106880000Y-177620000D02*
X107200000Y-177940000D01*
D47*
X106450000Y-177190000D02*
X106880000Y-177620000D01*
X111300000Y-127030000D02*
X113020000Y-127030000D01*
X106450000Y-152398427D02*
X106450000Y-177190000D01*
X111210000Y-127120000D02*
X111300000Y-127030000D01*
X113700000Y-127710000D02*
X113700000Y-143491573D01*
D49*
X107200000Y-177940000D02*
X107200000Y-179730000D01*
D47*
X113114213Y-144905787D02*
X107035786Y-150984214D01*
X113020000Y-127030000D02*
X113700000Y-127710000D01*
X113700000Y-143491573D02*
G75*
G02*
X113114227Y-144905801I-2000000J-27D01*
G01*
X107035786Y-150984214D02*
G75*
G03*
X106450019Y-152398427I1414214J-1414186D01*
G01*
%TO.N,Net-(BT1-+)*%
X115600000Y-104325000D02*
X115625000Y-104350000D01*
D49*
%TO.N,Net-(J1-Pin_31)*%
X110640000Y-178180000D02*
X110640000Y-179730000D01*
D48*
X110545786Y-152954214D02*
X116964213Y-146535787D01*
X110360000Y-177900000D02*
X109960000Y-177500000D01*
X117550000Y-128110000D02*
X121810000Y-123850000D01*
X109960000Y-177500000D02*
X109960000Y-154368427D01*
X117550000Y-145121573D02*
X117550000Y-128110000D01*
D49*
X110360000Y-177900000D02*
X110640000Y-178180000D01*
D48*
X109960000Y-154368427D02*
G75*
G02*
X110545772Y-152954200I2000000J27D01*
G01*
X116964213Y-146535787D02*
G75*
G03*
X117549981Y-145121573I-1414213J1414187D01*
G01*
D50*
%TO.N,Net-(J1-Pin_1)*%
X106830000Y-115130000D02*
X107820000Y-116120000D01*
X103119934Y-179609934D02*
X103240000Y-179730000D01*
X103119934Y-151598493D02*
X103119934Y-179609934D01*
X107820000Y-116120000D02*
X106230000Y-116120000D01*
X106069667Y-113911705D02*
X106109667Y-113911705D01*
X106109667Y-113911705D02*
X106830000Y-114632038D01*
X106230000Y-116120000D02*
X102550000Y-119800000D01*
X105480000Y-129820000D02*
X109720000Y-129820000D01*
X102550000Y-119800000D02*
X102550000Y-126890000D01*
X110134213Y-143755787D02*
X103705720Y-150184280D01*
X106830000Y-114632038D02*
X106830000Y-115130000D01*
X102550000Y-126890000D02*
X105480000Y-129820000D01*
X110720000Y-130820000D02*
X110720000Y-142341573D01*
X110720000Y-142341573D02*
G75*
G02*
X110134227Y-143755801I-2000000J-27D01*
G01*
X103705720Y-150184280D02*
G75*
G03*
X103119919Y-151598493I1414180J-1414220D01*
G01*
X109720000Y-129820000D02*
G75*
G02*
X110720000Y-130820000I0J-1000000D01*
G01*
%TO.N,Net-(R1-Pad2)*%
X109734675Y-113144675D02*
X109734675Y-110756966D01*
D47*
X109790000Y-113440000D02*
X109660000Y-113310000D01*
X109790000Y-113440000D02*
X109910000Y-113320000D01*
D50*
X109910000Y-113320000D02*
X109734675Y-113144675D01*
X109660000Y-113310000D02*
X109260000Y-112910000D01*
X107176068Y-112720104D02*
X107176068Y-112680104D01*
X109260000Y-112910000D02*
X107365964Y-112910000D01*
X107365964Y-112910000D02*
X107176068Y-112720104D01*
%TO.N,Net-(R2-Pad2)*%
X114614675Y-110545325D02*
X114614675Y-110193034D01*
X112980000Y-111904998D02*
X111324659Y-110249657D01*
X112980000Y-112330000D02*
X112980000Y-111904998D01*
D47*
X112980000Y-112430000D02*
X112980000Y-112330000D01*
X112980000Y-112430000D02*
X112980000Y-112180000D01*
D50*
X112980000Y-112180000D02*
X114614675Y-110545325D01*
%TO.N,Net-(R3-Pad2)*%
X116174780Y-112955220D02*
X116174780Y-110730222D01*
X115940000Y-113190000D02*
X116174780Y-112955220D01*
X116610000Y-113010000D02*
X116721750Y-112898250D01*
X118479712Y-112898250D02*
X118879667Y-112498295D01*
X116721750Y-112898250D02*
X118479712Y-112898250D01*
D47*
X116140000Y-113390000D02*
X115940000Y-113190000D01*
X116140000Y-113480000D02*
X116610000Y-113010000D01*
X116140000Y-113480000D02*
X116140000Y-113390000D01*
%TO.N,Net-(R4-Pad2)*%
X119304146Y-114001491D02*
X119289784Y-113987129D01*
D50*
X118080000Y-115595964D02*
X119826068Y-113849896D01*
X118080000Y-116180000D02*
X118080000Y-115595964D01*
%TO.N,Net-(R5-Pad1)*%
X119170000Y-121094622D02*
X119170000Y-120620000D01*
X119861984Y-121786606D02*
X119170000Y-121094622D01*
X119170000Y-120620000D02*
X118070000Y-119520000D01*
D47*
X118070000Y-119520000D02*
X118060000Y-119520000D01*
D50*
%TO.N,Net-(R5-Pad2)*%
X116000000Y-124546740D02*
X116000000Y-122280000D01*
X116039866Y-124586606D02*
X116000000Y-124546740D01*
X118386064Y-122615410D02*
X118892138Y-123121484D01*
X116495410Y-122615410D02*
X118386064Y-122615410D01*
D47*
X116000000Y-122280000D02*
X116080000Y-122200000D01*
X116080000Y-122200000D02*
X116495410Y-122615410D01*
%TO.N,Net-(R6-Pad2)*%
X112910000Y-123380000D02*
X112910000Y-123210000D01*
X112910000Y-123210000D02*
X112910000Y-123246044D01*
D50*
X114470623Y-125096484D02*
X114470623Y-124940623D01*
D47*
X112910000Y-123210000D02*
X112910000Y-123440000D01*
D50*
X112910000Y-123440000D02*
X111459866Y-124890134D01*
X111459866Y-124890134D02*
X111459866Y-125063394D01*
D47*
X114541697Y-125025410D02*
X114470623Y-125096484D01*
D50*
X114470623Y-124940623D02*
X112910000Y-123380000D01*
D47*
X111459866Y-125063394D02*
X111391882Y-124995410D01*
D50*
%TO.N,Net-(R7-Pad2)*%
X109930000Y-124514139D02*
X109890623Y-124553516D01*
X109930000Y-122350000D02*
X109930000Y-124514139D01*
D47*
X110038292Y-124553516D02*
X110109366Y-124624590D01*
X109740000Y-122160000D02*
X109930000Y-122350000D01*
D50*
X109200000Y-122700000D02*
X107365378Y-122700000D01*
X109330000Y-122570000D02*
X109200000Y-122700000D01*
D47*
X109740000Y-122160000D02*
X109330000Y-122570000D01*
D50*
X107365378Y-122700000D02*
X107051984Y-123013394D01*
%TO.N,Net-(J1-Pin_4)*%
X111580000Y-130699771D02*
X111580000Y-142771573D01*
X104533363Y-150647238D02*
X104453231Y-150737690D01*
X106810000Y-120950654D02*
X106810000Y-120440000D01*
X104012301Y-151717426D02*
X103997737Y-151837386D01*
X104453231Y-150737690D02*
X104378707Y-150832815D01*
X111378625Y-143647329D02*
X111322468Y-143754331D01*
X104247548Y-151035680D02*
X104191392Y-151142680D01*
X111116783Y-144052324D02*
X111036650Y-144142776D01*
X111036650Y-144142776D02*
X110994213Y-144185787D01*
X111322468Y-143754331D02*
X111259953Y-143857746D01*
X111471069Y-143424143D02*
X111428219Y-143537133D01*
X104098949Y-151365864D02*
X104063000Y-151481234D01*
X111580000Y-142771573D02*
X111579577Y-142831994D01*
X104063000Y-151481234D02*
X104034082Y-151598564D01*
X111579577Y-142831994D02*
X111572282Y-142952616D01*
X104191392Y-151142680D02*
X104141798Y-151252875D01*
X103997737Y-151837386D02*
X103990443Y-151958006D01*
X104034082Y-151598564D02*
X104012301Y-151717426D01*
X111259953Y-143857746D02*
X111191308Y-143957198D01*
X103990443Y-151958006D02*
X103990000Y-152018427D01*
X106082138Y-121678516D02*
X106810000Y-120950654D01*
X111572282Y-142952616D02*
X111557718Y-143072577D01*
X111507019Y-143308772D02*
X111471069Y-143424143D01*
X107800000Y-119450000D02*
X104250000Y-119450000D01*
X103990000Y-152018427D02*
X103990000Y-178980000D01*
X111428219Y-143537133D02*
X111378625Y-143647329D01*
X111191308Y-143957198D02*
X111116783Y-144052324D01*
X104575786Y-150604214D02*
X104533363Y-150647238D01*
X104141798Y-151252875D02*
X104098949Y-151365864D01*
X104250000Y-119450000D02*
X103550000Y-120150000D01*
X103550000Y-120150000D02*
X103550000Y-126620000D01*
X103550000Y-126620000D02*
X105860000Y-128930000D01*
X111535937Y-143191441D02*
X111507019Y-143308772D01*
X106810000Y-120440000D02*
X107800000Y-119450000D01*
X110994213Y-144185787D02*
X104575786Y-150604214D01*
X104310063Y-150932265D02*
X104247548Y-151035680D01*
X105860000Y-128930000D02*
X109810229Y-128930000D01*
X111557718Y-143072577D02*
X111535937Y-143191441D01*
X104378707Y-150832815D02*
X104310063Y-150932265D01*
X109810229Y-128930000D02*
G75*
G02*
X111580000Y-130699771I-29J-1769800D01*
G01*
D48*
%TO.N,Net-(J1-Pin_25)*%
X122840377Y-135440377D02*
X122850000Y-135450000D01*
D47*
X115654214Y-146595786D02*
X109920000Y-152330000D01*
D48*
X123630000Y-127910000D02*
X125240000Y-129520000D01*
X122840377Y-133821508D02*
X122840377Y-135440377D01*
D47*
X116732500Y-128192500D02*
X116732500Y-128197500D01*
X116732500Y-128192500D02*
X116240000Y-128685000D01*
D48*
X123850000Y-136450000D02*
X131250000Y-136450000D01*
X147420000Y-140220000D02*
X147180000Y-140460000D01*
X144060000Y-134270000D02*
X147420000Y-137630000D01*
X133430000Y-134270000D02*
X144060000Y-134270000D01*
X142670000Y-131155146D02*
X142670000Y-131275705D01*
X147420000Y-137630000D02*
X147420000Y-140220000D01*
X131250000Y-136450000D02*
X133430000Y-134270000D01*
D49*
X109920000Y-152330000D02*
X109755786Y-152494214D01*
D48*
X122840000Y-133821131D02*
X122840377Y-133821508D01*
D49*
X109170000Y-153908427D02*
X109170000Y-179730000D01*
D47*
X116240000Y-128685000D02*
X116240000Y-145181573D01*
D48*
X125240000Y-129520000D02*
X141034854Y-129520000D01*
X141075705Y-132870000D02*
X123791131Y-132870000D01*
X122850000Y-135450000D02*
G75*
G03*
X123850000Y-136450000I1000000J0D01*
G01*
X141034854Y-129520000D02*
G75*
G02*
X142670000Y-131155146I46J-1635100D01*
G01*
X142670000Y-131275705D02*
G75*
G02*
X141075705Y-132870000I-1594300J5D01*
G01*
D49*
X109755786Y-152494214D02*
G75*
G03*
X109170019Y-153908427I1414214J-1414186D01*
G01*
D47*
X116240000Y-145181573D02*
G75*
G02*
X115654228Y-146595800I-2000000J-27D01*
G01*
D48*
X123791131Y-132870000D02*
G75*
G03*
X122840000Y-133821131I-31J-951100D01*
G01*
%TO.N,Net-(J1-Pin_23)*%
X121850000Y-133395566D02*
X121850000Y-135497791D01*
X139490000Y-141760000D02*
X140760000Y-140490000D01*
D47*
X108920000Y-179215000D02*
X108670000Y-179465000D01*
X129020000Y-124950000D02*
X129670000Y-124300000D01*
D48*
X133360000Y-141760000D02*
X139490000Y-141760000D01*
X131250000Y-139650000D02*
X133360000Y-141760000D01*
D47*
X119050000Y-124950000D02*
X115850000Y-128150000D01*
D48*
X131240000Y-139540000D02*
X131250000Y-139550000D01*
X125892209Y-139540000D02*
X131240000Y-139540000D01*
X140760000Y-140490000D02*
X143380000Y-140490000D01*
D47*
X125475000Y-124950000D02*
X129020000Y-124950000D01*
D48*
X131250000Y-139550000D02*
X131250000Y-139650000D01*
X140937929Y-131930000D02*
X123315566Y-131930000D01*
X122300000Y-129190000D02*
X123540000Y-130430000D01*
D47*
X108670000Y-179465000D02*
X108670000Y-179730000D01*
D48*
X123540000Y-130430000D02*
X140962074Y-130430000D01*
D47*
X115850000Y-128150000D02*
X115850000Y-145091573D01*
X108920000Y-153678427D02*
X108920000Y-179215000D01*
X115264213Y-146505787D02*
X109505786Y-152264214D01*
D48*
X140962074Y-130430000D02*
G75*
G02*
X141700000Y-131167929I26J-737900D01*
G01*
X141700000Y-131167929D02*
G75*
G02*
X140937929Y-131930000I-762100J29D01*
G01*
X121850000Y-135497791D02*
G75*
G03*
X125892209Y-139540000I4042200J-9D01*
G01*
D47*
X109505786Y-152264214D02*
G75*
G03*
X108920019Y-153678427I1414214J-1414186D01*
G01*
D48*
X123315566Y-131930000D02*
G75*
G03*
X121850000Y-133395566I34J-1465600D01*
G01*
D47*
X115264213Y-146505787D02*
G75*
G03*
X115849981Y-145091573I-1414213J1414187D01*
G01*
D48*
%TO.N,Net-(J1-Pin_26)*%
X123029944Y-132507026D02*
X122948058Y-132548750D01*
X142182270Y-131349733D02*
X142167645Y-131442078D01*
D51*
X137750000Y-139550000D02*
X137750000Y-137970000D01*
D48*
X142189603Y-131256525D02*
X142182270Y-131349733D01*
D47*
X116034213Y-146685787D02*
X110005786Y-152714214D01*
X116620000Y-129255000D02*
X116620000Y-145271573D01*
D48*
X142168297Y-130910750D02*
X142182505Y-131000442D01*
X142190000Y-131209777D02*
X142189603Y-131256525D01*
X122600790Y-132845346D02*
X122546770Y-132919698D01*
X141934903Y-131946955D02*
X141874183Y-132018051D01*
X141736978Y-132144885D02*
X141661339Y-132199841D01*
X141599084Y-130127327D02*
X141676513Y-130174774D01*
X141434274Y-130051352D02*
X141518172Y-130086102D01*
X123114851Y-132471855D02*
X123029944Y-132507026D01*
X141169916Y-129987890D02*
X141259607Y-130002094D01*
X123474011Y-132400404D02*
X123382391Y-132407618D01*
X141033981Y-129980370D02*
X141079386Y-129980767D01*
X122546770Y-132919698D02*
X122498750Y-132998058D01*
X145280000Y-140310000D02*
X145280000Y-140460000D01*
X142145821Y-131532990D02*
X142116930Y-131621911D01*
X142189999Y-131136376D02*
X142190000Y-131209777D01*
X141498316Y-132291140D02*
X141411938Y-132326920D01*
X142043052Y-130571278D02*
X142084280Y-130652189D01*
X141661339Y-132199841D02*
X141581621Y-132248693D01*
X142119033Y-130736086D02*
X142147096Y-130822450D01*
X122350000Y-133569963D02*
X122350000Y-135466542D01*
X142940000Y-137970000D02*
X145280000Y-140310000D01*
X141819034Y-130287124D02*
X141883247Y-130351335D01*
X142081152Y-131708290D02*
X142038707Y-131791596D01*
X123202256Y-132443453D02*
X123114851Y-132471855D01*
X122660477Y-132775463D02*
X122600790Y-132845346D01*
D51*
X137750000Y-137970000D02*
X137750000Y-136450000D01*
D48*
X141347908Y-130023292D02*
X141434274Y-130051352D01*
X122371997Y-133341620D02*
X122357618Y-133432391D01*
X122357618Y-133432391D02*
X122350404Y-133524011D01*
X124886710Y-138003252D02*
X137716748Y-138003252D01*
X141676513Y-130174774D02*
X141749980Y-130228149D01*
X141518172Y-130086102D02*
X141599084Y-130127327D01*
X123519963Y-132400000D02*
X123474011Y-132400404D01*
X122970000Y-128570000D02*
X124380370Y-129980370D01*
X122457026Y-133079944D02*
X122421855Y-133164851D01*
X122725463Y-132710477D02*
X122660477Y-132775463D01*
X141808072Y-132084163D02*
X141736978Y-132144885D01*
X141942224Y-130420386D02*
X141995602Y-130493851D01*
X142182505Y-131000442D02*
X142189631Y-131090971D01*
X142167645Y-131442078D02*
X142145821Y-131532990D01*
X123291620Y-132421997D02*
X123202256Y-132443453D01*
X123382391Y-132407618D02*
X123291620Y-132421997D01*
X122421855Y-133164851D02*
X122393453Y-133252256D01*
X141883247Y-130351335D02*
X141942224Y-130420386D01*
X141046554Y-132399602D02*
X140999806Y-132400000D01*
X141581621Y-132248693D02*
X141498316Y-132291140D01*
X141139761Y-132392266D02*
X141046554Y-132399602D01*
X137716748Y-138003252D02*
X137750000Y-137970000D01*
X141232106Y-132377640D02*
X141139761Y-132392266D01*
X140999806Y-132400000D02*
X123519963Y-132400000D01*
D47*
X116775000Y-129100000D02*
X116620000Y-129255000D01*
X116775000Y-129100000D02*
X116675000Y-129200000D01*
D48*
X142189631Y-131090971D02*
X142189999Y-131136376D01*
X142084280Y-130652189D02*
X142119033Y-130736086D01*
X142147096Y-130822450D02*
X142168297Y-130910750D01*
X122795346Y-132650790D02*
X122725463Y-132710477D01*
X122498750Y-132998058D02*
X122457026Y-133079944D01*
X142038707Y-131791596D02*
X141989857Y-131871315D01*
X141259607Y-130002094D02*
X141347908Y-130023292D01*
X141749980Y-130228149D02*
X141819034Y-130287124D01*
X124380370Y-129980370D02*
X141033981Y-129980370D01*
X141995602Y-130493851D02*
X142043052Y-130571278D01*
X122869698Y-132596770D02*
X122795346Y-132650790D01*
X142116930Y-131621911D02*
X142081152Y-131708290D01*
X141874183Y-132018051D02*
X141808072Y-132084163D01*
X141323018Y-132355813D02*
X141232106Y-132377640D01*
X141989857Y-131871315D02*
X141934903Y-131946955D01*
X141079386Y-129980767D02*
X141169916Y-129987890D01*
X122948058Y-132548750D02*
X122869698Y-132596770D01*
X122393453Y-133252256D02*
X122371997Y-133341620D01*
X122350404Y-133524011D02*
X122350000Y-133569963D01*
D47*
X109420000Y-154128427D02*
X109420000Y-178980000D01*
D48*
X141411938Y-132326920D02*
X141323018Y-132355813D01*
X137750000Y-137970000D02*
X142940000Y-137970000D01*
X122350000Y-135466542D02*
G75*
G03*
X124886710Y-138003200I2536700J42D01*
G01*
D47*
X109420000Y-154128427D02*
G75*
G02*
X110005772Y-152714200I2000000J27D01*
G01*
X116620000Y-145271573D02*
G75*
G02*
X116034227Y-146685801I-2000000J-27D01*
G01*
D49*
%TO.N,Net-(J1-Pin_19)*%
X107690000Y-179720000D02*
X107680000Y-179730000D01*
D47*
X113904214Y-145885786D02*
X108460000Y-151330000D01*
X114490000Y-127140000D02*
X114490000Y-144471573D01*
X107680000Y-179730000D02*
X107680000Y-179580000D01*
D49*
X107690000Y-152928427D02*
X107690000Y-179720000D01*
X108460000Y-151330000D02*
X108275786Y-151514214D01*
D47*
X113810000Y-126460000D02*
X114490000Y-127140000D01*
X114490000Y-144471573D02*
G75*
G02*
X113904228Y-145885800I-2000000J-27D01*
G01*
D49*
X108275786Y-151514214D02*
G75*
G03*
X107690019Y-152928427I1414214J-1414186D01*
G01*
%TO.N,Net-(J1-Pin_21)*%
X108180000Y-153298427D02*
X108180000Y-179730000D01*
D47*
X126100000Y-126300000D02*
X129730000Y-126300000D01*
X115915000Y-126435000D02*
X115050000Y-127300000D01*
D49*
X108970000Y-151680000D02*
X108765786Y-151884214D01*
D47*
X115050000Y-127300000D02*
X115050000Y-144771573D01*
X125975000Y-126425000D02*
X126100000Y-126300000D01*
X114464214Y-146185786D02*
X108970000Y-151680000D01*
D49*
X108180000Y-153298427D02*
G75*
G02*
X108765772Y-151884200I2000000J27D01*
G01*
D47*
X115050000Y-144771573D02*
G75*
G02*
X114464228Y-146185800I-2000000J-27D01*
G01*
%TO.N,Net-(J1-Pin_22)*%
X115650000Y-127525000D02*
X115310000Y-127865000D01*
X115310000Y-127865000D02*
X115310000Y-144901573D01*
X108430000Y-153438427D02*
X108430000Y-178980000D01*
X114724213Y-146315787D02*
X109015786Y-152024214D01*
X115310000Y-144901573D02*
G75*
G02*
X114724227Y-146315801I-2000000J-27D01*
G01*
X108430000Y-153438427D02*
G75*
G02*
X109015772Y-152024200I2000000J27D01*
G01*
%TO.N,Net-(J1-Pin_20)*%
X114780000Y-126700000D02*
X114780000Y-144601573D01*
X132800000Y-120220000D02*
X133800000Y-120220000D01*
X107930000Y-153108427D02*
X107930000Y-178980000D01*
X117840000Y-124910000D02*
X117040000Y-125710000D01*
X117040000Y-125710000D02*
X115770000Y-125710000D01*
X128720000Y-124300000D02*
X132800000Y-120220000D01*
X114194213Y-146015787D02*
X108515786Y-151694214D01*
X126175000Y-124300000D02*
X128720000Y-124300000D01*
X115770000Y-125710000D02*
X114780000Y-126700000D01*
X114780000Y-144601573D02*
G75*
G02*
X114194227Y-146015801I-2000000J-27D01*
G01*
X108515786Y-151694214D02*
G75*
G03*
X107930019Y-153108427I1414214J-1414186D01*
G01*
%TO.N,Net-(BT1--)*%
X110890000Y-178980000D02*
X110890000Y-177830000D01*
X110890000Y-177830000D02*
X110690000Y-177630000D01*
%TO.N,Net-(J1-Pin_5)*%
X104230000Y-179455000D02*
X104230000Y-179580000D01*
X112070000Y-129130000D02*
X112070000Y-129810000D01*
X111510000Y-128570000D02*
X112070000Y-129130000D01*
D51*
X142110000Y-119280000D02*
X148320000Y-119280000D01*
D47*
X148320000Y-119280000D02*
X148340000Y-119260000D01*
X112070000Y-129810000D02*
X112070000Y-143021573D01*
X111484213Y-144435787D02*
X105061350Y-150858650D01*
X104480000Y-179205000D02*
X104230000Y-179455000D01*
X104480000Y-152262153D02*
X104480000Y-179205000D01*
X112070000Y-143021573D02*
G75*
G02*
X111484227Y-144435801I-2000000J-27D01*
G01*
X105061350Y-150858650D02*
G75*
G03*
X104479981Y-152262153I1403550J-1403550D01*
G01*
%TO.N,Net-(J1-Pin_34)*%
X145050000Y-107830000D02*
X145050000Y-107120000D01*
%TO.N,Net-(J1-Pin_2)*%
X103740000Y-179455000D02*
X103490000Y-179205000D01*
X103490000Y-179205000D02*
X103490000Y-178980000D01*
D50*
X103050000Y-120010000D02*
X103050000Y-126750000D01*
X105240000Y-117820000D02*
X103050000Y-120010000D01*
D52*
X109710000Y-120040000D02*
X109960000Y-120040000D01*
D50*
X103540000Y-151808427D02*
X103540000Y-178930000D01*
D47*
X103740000Y-179730000D02*
X103740000Y-179455000D01*
D50*
X103540000Y-178930000D02*
X103490000Y-178980000D01*
X110554213Y-143965787D02*
X104125786Y-150394214D01*
X103050000Y-126750000D02*
X105670000Y-129370000D01*
X105670000Y-129370000D02*
X109777915Y-129370000D01*
X111140000Y-130732085D02*
X111140000Y-142551573D01*
D49*
X109310000Y-117820000D02*
X106180000Y-117820000D01*
D50*
X106180000Y-117820000D02*
X105240000Y-117820000D01*
X111140000Y-142551573D02*
G75*
G02*
X110554227Y-143965801I-2000000J-27D01*
G01*
X104125786Y-150394214D02*
G75*
G03*
X103540019Y-151808427I1414214J-1414186D01*
G01*
X109777915Y-129370000D02*
G75*
G02*
X111140000Y-130732085I-15J-1362100D01*
G01*
D47*
%TO.N,Net-(J1-Pin_12)*%
X106210000Y-179450000D02*
X106210000Y-179730000D01*
X105960000Y-179200000D02*
X106210000Y-179450000D01*
X105960000Y-178980000D02*
X105960000Y-179200000D01*
D51*
%TO.N,Net-(J1-Pin_7)*%
X142120000Y-122050000D02*
X142110000Y-122040000D01*
X148340000Y-122050000D02*
X142120000Y-122050000D01*
D49*
X104730000Y-152398427D02*
X104730000Y-179730000D01*
D47*
X112510000Y-128560000D02*
X112320000Y-128750000D01*
D49*
X105430000Y-150870000D02*
X105315786Y-150984214D01*
D47*
X111734214Y-144565786D02*
X105430000Y-150870000D01*
X112320000Y-128750000D02*
X112320000Y-143151573D01*
D49*
X104730000Y-152398427D02*
G75*
G02*
X105315772Y-150984200I2000000J27D01*
G01*
D47*
X112320000Y-143151573D02*
G75*
G02*
X111734228Y-144565800I-2000000J-27D01*
G01*
%TO.N,Net-(J1-Pin_8)*%
X105220000Y-179460000D02*
X105220000Y-179730000D01*
X104980000Y-179220000D02*
X105220000Y-179460000D01*
X104980000Y-178980000D02*
X104980000Y-179220000D01*
D49*
%TO.N,Net-(J1-Pin_33)*%
X111144000Y-177464000D02*
X111060000Y-177380000D01*
D47*
X111145882Y-179730000D02*
X111144000Y-179728118D01*
D49*
X111144000Y-179728118D02*
X111144000Y-177464000D01*
D47*
%TO.N,Net-(J6-Pin_2)*%
X87430000Y-107450000D02*
X92500000Y-107450000D01*
X85310000Y-173540000D02*
X86750000Y-173540000D01*
X85220000Y-128910000D02*
X85220000Y-109660000D01*
X92500000Y-107450000D02*
X92790000Y-107740000D01*
X91740000Y-110440000D02*
X91420000Y-110440000D01*
X86750000Y-130440000D02*
X85220000Y-128910000D01*
X92790000Y-107740000D02*
X92790000Y-109390000D01*
X85220000Y-109660000D02*
X87430000Y-107450000D01*
X86750000Y-173540000D02*
X86750000Y-130440000D01*
X92790000Y-109390000D02*
X91740000Y-110440000D01*
%TO.N,Net-(J6-Pin_3)*%
X86070000Y-128464000D02*
X86070000Y-113290000D01*
X91420000Y-112340000D02*
X87020000Y-112340000D01*
X87606000Y-173540000D02*
X87606000Y-130000000D01*
X87020000Y-112340000D02*
X86070000Y-113290000D01*
X88710000Y-173540000D02*
X87606000Y-173540000D01*
X87606000Y-130000000D02*
X86070000Y-128464000D01*
%TO.N,Net-(J6-Pin_1)*%
X86970000Y-108540000D02*
X85650000Y-109860000D01*
X91420000Y-108540000D02*
X86970000Y-108540000D01*
X91730000Y-108440000D02*
X91420000Y-108440000D01*
X87180000Y-177470000D02*
X87180000Y-130210000D01*
X85650000Y-128680000D02*
X85650000Y-109860000D01*
X85620000Y-179030000D02*
X87180000Y-177470000D01*
X87180000Y-130210000D02*
X85650000Y-128680000D01*
%TD*%
%TA.AperFunction,Conductor*%
%TO.N,Net-(J1-Pin_19)*%
G36*
X114022468Y-126332093D02*
G01*
X114023438Y-126333876D01*
X114171597Y-126673438D01*
X114206464Y-126753347D01*
X114206631Y-126762300D01*
X114204013Y-126766299D01*
X114116299Y-126854013D01*
X114108026Y-126857440D01*
X114103348Y-126856464D01*
X113867017Y-126753347D01*
X113683876Y-126673438D01*
X113677664Y-126666988D01*
X113677831Y-126658035D01*
X113678795Y-126656262D01*
X113807981Y-126461272D01*
X113811273Y-126457981D01*
X114006254Y-126328800D01*
X114015041Y-126327089D01*
X114022468Y-126332093D01*
G37*
%TD.AperFunction*%
%TD*%
%TA.AperFunction,Conductor*%
%TO.N,Net-(D2-K)*%
G36*
X111807907Y-126299692D02*
G01*
X111808841Y-126300392D01*
X112117324Y-126556491D01*
X112121501Y-126564411D01*
X112121551Y-126565492D01*
X112121551Y-126689511D01*
X112118124Y-126697784D01*
X112111124Y-126701141D01*
X111719387Y-126744033D01*
X111710790Y-126741527D01*
X111706649Y-126734732D01*
X111659974Y-126504798D01*
X111661685Y-126496009D01*
X111791669Y-126302865D01*
X111799131Y-126297916D01*
X111807907Y-126299692D01*
G37*
%TD.AperFunction*%
%TD*%
%TA.AperFunction,Conductor*%
%TO.N,Net-(J1-Pin_25)*%
G36*
X123843697Y-127781279D02*
G01*
X123844079Y-127781896D01*
X124037004Y-128116985D01*
X124064071Y-128163997D01*
X124065229Y-128172877D01*
X124062204Y-128178108D01*
X123898108Y-128342204D01*
X123889835Y-128345631D01*
X123883997Y-128344071D01*
X123880754Y-128342204D01*
X123501902Y-128124082D01*
X123496443Y-128116985D01*
X123497601Y-128108105D01*
X123497972Y-128107503D01*
X123627981Y-127911272D01*
X123631273Y-127907981D01*
X123827483Y-127777986D01*
X123836270Y-127776275D01*
X123843697Y-127781279D01*
G37*
%TD.AperFunction*%
%TD*%
%TA.AperFunction,Conductor*%
%TO.N,Net-(D1-A)*%
G36*
X110577198Y-127300745D02*
G01*
X110578939Y-127302179D01*
X110863333Y-127586573D01*
X110866760Y-127594846D01*
X110866760Y-127718749D01*
X110863333Y-127727022D01*
X110855518Y-127730440D01*
X110488717Y-127744806D01*
X110480316Y-127741706D01*
X110476793Y-127735443D01*
X110475777Y-127730440D01*
X110429974Y-127504798D01*
X110431685Y-127496009D01*
X110560961Y-127303918D01*
X110568422Y-127298969D01*
X110577198Y-127300745D01*
G37*
%TD.AperFunction*%
%TD*%
%TA.AperFunction,Conductor*%
%TO.N,Net-(J1-Pin_26)*%
G36*
X123183697Y-128441279D02*
G01*
X123184079Y-128441896D01*
X123377004Y-128776985D01*
X123404071Y-128823997D01*
X123405229Y-128832877D01*
X123402204Y-128838108D01*
X123238108Y-129002204D01*
X123229835Y-129005631D01*
X123223997Y-129004071D01*
X123220754Y-129002204D01*
X122841902Y-128784082D01*
X122836443Y-128776985D01*
X122837601Y-128768105D01*
X122837972Y-128767503D01*
X122967981Y-128571272D01*
X122971273Y-128567981D01*
X123167483Y-128437986D01*
X123176270Y-128436275D01*
X123183697Y-128441279D01*
G37*
%TD.AperFunction*%
%TD*%
%TA.AperFunction,NonConductor*%
G36*
X109473039Y-100120185D02*
G01*
X109518794Y-100172989D01*
X109530000Y-100224500D01*
X109530000Y-106708638D01*
X109521355Y-106738078D01*
X109514832Y-106768065D01*
X109511077Y-106773080D01*
X109510315Y-106775677D01*
X109493681Y-106796319D01*
X109486319Y-106803681D01*
X109424996Y-106837166D01*
X109398638Y-106840000D01*
X101124000Y-106840000D01*
X101056961Y-106820315D01*
X101011206Y-106767511D01*
X101000000Y-106716000D01*
X101000000Y-100224500D01*
X101019685Y-100157461D01*
X101072489Y-100111706D01*
X101124000Y-100100500D01*
X109406000Y-100100500D01*
X109473039Y-100120185D01*
G37*
%TD.AperFunction*%
%TA.AperFunction,Conductor*%
%TO.N,Net-(J1-Pin_26)*%
G36*
X116778991Y-129101686D02*
G01*
X116779061Y-129101733D01*
X116971278Y-129231094D01*
X116976229Y-129238557D01*
X116974453Y-129247333D01*
X116973157Y-129248934D01*
X116693449Y-129538193D01*
X116685234Y-129541758D01*
X116685038Y-129541760D01*
X116561115Y-129541760D01*
X116552842Y-129538333D01*
X116549430Y-129530660D01*
X116530321Y-129158834D01*
X116533319Y-129150396D01*
X116539676Y-129146769D01*
X116770201Y-129099974D01*
X116778991Y-129101686D01*
G37*
%TD.AperFunction*%
%TD*%
%TA.AperFunction,Conductor*%
%TO.N,Net-(D2-A)*%
G36*
X111678696Y-126958130D02*
G01*
X111686144Y-126963101D01*
X111688119Y-126969606D01*
X111688119Y-127093764D01*
X111684692Y-127102037D01*
X111682943Y-127103476D01*
X111358597Y-127321348D01*
X111349819Y-127323117D01*
X111342366Y-127318168D01*
X111211733Y-127124061D01*
X111209957Y-127115285D01*
X111209974Y-127115201D01*
X111213060Y-127100000D01*
X111256456Y-126886217D01*
X111261459Y-126878793D01*
X111270198Y-126877071D01*
X111678696Y-126958130D01*
G37*
%TD.AperFunction*%
%TD*%
%TA.AperFunction,Conductor*%
%TO.N,Net-(J1-Pin_21)*%
G36*
X115716964Y-126302831D02*
G01*
X115718741Y-126303798D01*
X115827901Y-126376119D01*
X115913726Y-126432981D01*
X115917018Y-126436273D01*
X116046198Y-126631252D01*
X116047910Y-126640041D01*
X116042906Y-126647468D01*
X116041123Y-126648438D01*
X115621652Y-126831464D01*
X115612699Y-126831631D01*
X115608700Y-126829013D01*
X115520986Y-126741299D01*
X115517559Y-126733026D01*
X115518533Y-126728353D01*
X115701562Y-126308875D01*
X115708011Y-126302664D01*
X115716964Y-126302831D01*
G37*
%TD.AperFunction*%
%TD*%
%TA.AperFunction,Conductor*%
%TO.N,Net-(J1-Pin_22)*%
G36*
X115642287Y-127522497D02*
G01*
X115649752Y-127527443D01*
X115651526Y-127531707D01*
X115696785Y-127760165D01*
X115695031Y-127768947D01*
X115689099Y-127773508D01*
X115381843Y-127878733D01*
X115378052Y-127879364D01*
X115257423Y-127879364D01*
X115249150Y-127875937D01*
X115245723Y-127867664D01*
X115246593Y-127863237D01*
X115288729Y-127760165D01*
X115401168Y-127485119D01*
X115407470Y-127478759D01*
X115414233Y-127478064D01*
X115642287Y-127522497D01*
G37*
%TD.AperFunction*%
%TD*%
%TA.AperFunction,Conductor*%
%TO.N,Net-(J1-Pin_23)*%
G36*
X118851964Y-124817831D02*
G01*
X118853741Y-124818798D01*
X118962901Y-124891119D01*
X119048726Y-124947981D01*
X119052018Y-124951273D01*
X119181198Y-125146252D01*
X119182910Y-125155041D01*
X119177906Y-125162468D01*
X119176123Y-125163438D01*
X118756652Y-125346464D01*
X118747699Y-125346631D01*
X118743700Y-125344013D01*
X118655986Y-125256299D01*
X118652559Y-125248026D01*
X118653533Y-125243353D01*
X118836562Y-124823875D01*
X118843011Y-124817664D01*
X118851964Y-124817831D01*
G37*
%TD.AperFunction*%
%TD*%
%TA.AperFunction,Conductor*%
%TO.N,Net-(D1-K)*%
G36*
X109978305Y-127717429D02*
G01*
X110314584Y-127906645D01*
X110320113Y-127913688D01*
X110320546Y-127916841D01*
X110320546Y-128040960D01*
X110317119Y-128049233D01*
X110311798Y-128052281D01*
X109890732Y-128162077D01*
X109881862Y-128160849D01*
X109876459Y-128153708D01*
X109876314Y-128153084D01*
X109829974Y-127924798D01*
X109831685Y-127916009D01*
X109962863Y-127721092D01*
X109970324Y-127716143D01*
X109978305Y-127717429D01*
G37*
%TD.AperFunction*%
%TD*%
%TA.AperFunction,Conductor*%
%TO.N,Net-(J1-Pin_20)*%
G36*
X126236738Y-124059892D02*
G01*
X126662771Y-124227086D01*
X126669220Y-124233297D01*
X126670196Y-124237976D01*
X126670196Y-124362023D01*
X126666769Y-124370296D01*
X126662770Y-124372914D01*
X126236741Y-124540106D01*
X126227788Y-124539939D01*
X126221576Y-124533489D01*
X126221002Y-124531548D01*
X126174472Y-124302325D01*
X126174472Y-124297674D01*
X126221002Y-124068454D01*
X126226005Y-124061030D01*
X126234795Y-124059318D01*
X126236738Y-124059892D01*
G37*
%TD.AperFunction*%
%TD*%
%TA.AperFunction,Conductor*%
%TO.N,Net-(J1-Pin_20)*%
G36*
X117641964Y-124777831D02*
G01*
X117643741Y-124778798D01*
X117752901Y-124851119D01*
X117838726Y-124907981D01*
X117842018Y-124911273D01*
X117971198Y-125106252D01*
X117972910Y-125115041D01*
X117967906Y-125122468D01*
X117966123Y-125123438D01*
X117546652Y-125306464D01*
X117537699Y-125306631D01*
X117533700Y-125304013D01*
X117445986Y-125216299D01*
X117442559Y-125208026D01*
X117443533Y-125203353D01*
X117626562Y-124783875D01*
X117633011Y-124777664D01*
X117641964Y-124777831D01*
G37*
%TD.AperFunction*%
%TD*%
%TA.AperFunction,Conductor*%
%TO.N,Net-(J1-Pin_25)*%
G36*
X116534464Y-128060331D02*
G01*
X116536241Y-128061298D01*
X116645401Y-128133619D01*
X116731226Y-128190481D01*
X116734518Y-128193773D01*
X116863698Y-128388752D01*
X116865410Y-128397541D01*
X116860406Y-128404968D01*
X116858623Y-128405938D01*
X116439152Y-128588964D01*
X116430199Y-128589131D01*
X116426200Y-128586513D01*
X116338486Y-128498799D01*
X116335059Y-128490526D01*
X116336033Y-128485853D01*
X116519062Y-128066375D01*
X116525511Y-128060164D01*
X116534464Y-128060331D01*
G37*
%TD.AperFunction*%
%TD*%
%TA.AperFunction,Conductor*%
%TO.N,Net-(J1-Pin_23)*%
G36*
X122006647Y-128793534D02*
G01*
X122426123Y-128976561D01*
X122432335Y-128983011D01*
X122432168Y-128991964D01*
X122431198Y-128993747D01*
X122302018Y-129188726D01*
X122298726Y-129192018D01*
X122103747Y-129321198D01*
X122094958Y-129322910D01*
X122087531Y-129317906D01*
X122086561Y-129316123D01*
X122031839Y-129190707D01*
X121903534Y-128896649D01*
X121903368Y-128887699D01*
X121905984Y-128883702D01*
X121993701Y-128795985D01*
X122001973Y-128792559D01*
X122006647Y-128793534D01*
G37*
%TD.AperFunction*%
%TD*%
%TA.AperFunction,Conductor*%
%TO.N,Net-(J1-Pin_23)*%
G36*
X125422211Y-124710060D02*
G01*
X125428423Y-124716510D01*
X125428998Y-124718456D01*
X125475527Y-124947672D01*
X125475527Y-124952328D01*
X125428998Y-125181543D01*
X125423994Y-125188969D01*
X125415204Y-125190681D01*
X125413258Y-125190106D01*
X124987230Y-125022914D01*
X124980780Y-125016702D01*
X124979804Y-125012023D01*
X124979804Y-124887976D01*
X124983231Y-124879703D01*
X124987227Y-124877086D01*
X125413259Y-124709893D01*
X125422211Y-124710060D01*
G37*
%TD.AperFunction*%
%TD*%
%TA.AperFunction,Conductor*%
%TO.N,Net-(J1-Pin_23)*%
G36*
X125536738Y-124709892D02*
G01*
X125962771Y-124877086D01*
X125969220Y-124883297D01*
X125970196Y-124887976D01*
X125970196Y-125012023D01*
X125966769Y-125020296D01*
X125962770Y-125022914D01*
X125536741Y-125190106D01*
X125527788Y-125189939D01*
X125521576Y-125183489D01*
X125521002Y-125181548D01*
X125474472Y-124952325D01*
X125474472Y-124947674D01*
X125521002Y-124718454D01*
X125526005Y-124711030D01*
X125534795Y-124709318D01*
X125536738Y-124709892D01*
G37*
%TD.AperFunction*%
%TD*%
%TA.AperFunction,Conductor*%
%TO.N,Net-(J1-Pin_23)*%
G36*
X122513697Y-129061279D02*
G01*
X122514079Y-129061896D01*
X122707004Y-129396985D01*
X122734071Y-129443997D01*
X122735229Y-129452877D01*
X122732204Y-129458108D01*
X122568108Y-129622204D01*
X122559835Y-129625631D01*
X122553997Y-129624071D01*
X122550754Y-129622204D01*
X122171902Y-129404082D01*
X122166443Y-129396985D01*
X122167601Y-129388105D01*
X122167972Y-129387503D01*
X122297981Y-129191272D01*
X122301273Y-129187981D01*
X122497483Y-129057986D01*
X122506270Y-129056275D01*
X122513697Y-129061279D01*
G37*
%TD.AperFunction*%
%TD*%
%TA.AperFunction,Conductor*%
%TO.N,Net-(J1-Pin_5)*%
G36*
X111722468Y-128442093D02*
G01*
X111723438Y-128443876D01*
X111871597Y-128783438D01*
X111906464Y-128863347D01*
X111906631Y-128872300D01*
X111904013Y-128876299D01*
X111816299Y-128964013D01*
X111808026Y-128967440D01*
X111803348Y-128966464D01*
X111567017Y-128863347D01*
X111383876Y-128783438D01*
X111377664Y-128776988D01*
X111377831Y-128768035D01*
X111378795Y-128766262D01*
X111507981Y-128571272D01*
X111511273Y-128567981D01*
X111706254Y-128438800D01*
X111715041Y-128437089D01*
X111722468Y-128442093D01*
G37*
%TD.AperFunction*%
%TD*%
%TA.AperFunction,Conductor*%
%TO.N,Net-(J1-Pin_7)*%
G36*
X112278296Y-128513855D02*
G01*
X112293449Y-128516808D01*
X112505201Y-128558065D01*
X112512666Y-128563011D01*
X112512706Y-128563070D01*
X112642981Y-128758977D01*
X112644708Y-128767764D01*
X112640579Y-128774566D01*
X112393214Y-128973906D01*
X112385873Y-128976496D01*
X112262078Y-128976496D01*
X112253805Y-128973069D01*
X112250378Y-128964796D01*
X112250384Y-128964424D01*
X112263156Y-128563011D01*
X112264366Y-128524966D01*
X112268054Y-128516808D01*
X112276432Y-128513646D01*
X112278296Y-128513855D01*
G37*
%TD.AperFunction*%
%TD*%
%TA.AperFunction,Conductor*%
%TO.N,Net-(J1-Pin_21)*%
G36*
X126428327Y-126228754D02*
G01*
X126436129Y-126233150D01*
X126438622Y-126240369D01*
X126438622Y-126364418D01*
X126435195Y-126372691D01*
X126434283Y-126373512D01*
X126123825Y-126624826D01*
X126115239Y-126627368D01*
X126107370Y-126623093D01*
X126106757Y-126622264D01*
X125976733Y-126429061D01*
X125974957Y-126420285D01*
X125974974Y-126420201D01*
X126021624Y-126190386D01*
X126026628Y-126182962D01*
X126034494Y-126181101D01*
X126428327Y-126228754D01*
G37*
%TD.AperFunction*%
%TD*%
%TA.AperFunction,Conductor*%
%TO.N,Net-(J1-Pin_21)*%
G36*
X129730495Y-121499191D02*
G01*
X129733010Y-121502936D01*
X129905717Y-121914457D01*
X129905759Y-121923412D01*
X129901456Y-121928695D01*
X129666527Y-122086612D01*
X129657749Y-122088383D01*
X129653473Y-122086612D01*
X129418543Y-121928695D01*
X129413589Y-121921236D01*
X129414282Y-121914457D01*
X129586990Y-121502936D01*
X129593351Y-121496634D01*
X129597778Y-121495764D01*
X129722222Y-121495764D01*
X129730495Y-121499191D01*
G37*
%TD.AperFunction*%
%TD*%
%TA.AperFunction,Conductor*%
%TO.N,Net-(J1-Pin_19)*%
G36*
X130610495Y-120799191D02*
G01*
X130613010Y-120802936D01*
X130785717Y-121214457D01*
X130785759Y-121223412D01*
X130781456Y-121228695D01*
X130546527Y-121386612D01*
X130537749Y-121388383D01*
X130533473Y-121386612D01*
X130298543Y-121228695D01*
X130293589Y-121221236D01*
X130294282Y-121214457D01*
X130466990Y-120802936D01*
X130473351Y-120796634D01*
X130477778Y-120795764D01*
X130602222Y-120795764D01*
X130610495Y-120799191D01*
G37*
%TD.AperFunction*%
%TD*%
%TA.AperFunction,Conductor*%
%TO.N,Net-(J1-Pin_22)*%
G36*
X125286738Y-127009892D02*
G01*
X125712771Y-127177086D01*
X125719220Y-127183297D01*
X125720196Y-127187976D01*
X125720196Y-127312023D01*
X125716769Y-127320296D01*
X125712770Y-127322914D01*
X125286741Y-127490106D01*
X125277788Y-127489939D01*
X125271576Y-127483489D01*
X125271002Y-127481548D01*
X125224472Y-127252325D01*
X125224472Y-127247674D01*
X125271002Y-127018454D01*
X125276005Y-127011030D01*
X125284795Y-127009318D01*
X125286738Y-127009892D01*
G37*
%TD.AperFunction*%
%TD*%
%TA.AperFunction,Conductor*%
%TO.N,Net-(J1-Pin_19)*%
G36*
X124681819Y-125585070D02*
G01*
X125107876Y-125757045D01*
X125114264Y-125763318D01*
X125115196Y-125767893D01*
X125115196Y-125891939D01*
X125111769Y-125900212D01*
X125107664Y-125902871D01*
X124681662Y-126065281D01*
X124672711Y-126065027D01*
X124666562Y-126058517D01*
X124666030Y-126056685D01*
X124619472Y-125827325D01*
X124619472Y-125822674D01*
X124665974Y-125593590D01*
X124670978Y-125586165D01*
X124679768Y-125584453D01*
X124681819Y-125585070D01*
G37*
%TD.AperFunction*%
%TD*%
M02*
