%TF.GenerationSoftware,KiCad,Pcbnew,9.0.3*%
%TF.CreationDate,2025-08-07T08:56:10+03:00*%
%TF.ProjectId,Battery,42617474-6572-4792-9e6b-696361645f70,rev?*%
%TF.SameCoordinates,Original*%
%TF.FileFunction,Profile,NP*%
%FSLAX46Y46*%
G04 Gerber Fmt 4.6, Leading zero omitted, Abs format (unit mm)*
G04 Created by KiCad (PCBNEW 9.0.3) date 2025-08-07 08:56:10*
%MOMM*%
%LPD*%
G01*
G04 APERTURE LIST*
%TA.AperFunction,Profile*%
%ADD10C,0.050000*%
%TD*%
G04 APERTURE END LIST*
D10*
X154800000Y-84700000D02*
G75*
G02*
X153800000Y-85700000I-1000000J0D01*
G01*
X153800000Y-69700000D02*
G75*
G02*
X154800000Y-70700000I0J-1000000D01*
G01*
X145540000Y-93420000D02*
X134000000Y-93420000D01*
X136425000Y-84367000D02*
G75*
G02*
X134825000Y-84367000I-800000J0D01*
G01*
X134825000Y-84367000D02*
G75*
G02*
X136425000Y-84367000I800000J0D01*
G01*
X153800000Y-85700000D02*
X146540000Y-85700000D01*
X134000000Y-89930000D02*
X133000000Y-89930000D01*
X139860000Y-83520000D02*
G75*
G02*
X138260000Y-83520000I-800000J0D01*
G01*
X138260000Y-83520000D02*
G75*
G02*
X139860000Y-83520000I800000J0D01*
G01*
X154800000Y-84700000D02*
X154800000Y-70700000D01*
X152860000Y-71520000D02*
G75*
G02*
X151260000Y-71520000I-800000J0D01*
G01*
X151260000Y-71520000D02*
G75*
G02*
X152860000Y-71520000I800000J0D01*
G01*
X135827000Y-71710000D02*
G75*
G02*
X134227000Y-71710000I-800000J0D01*
G01*
X134227000Y-71710000D02*
G75*
G02*
X135827000Y-71710000I800000J0D01*
G01*
X146360000Y-71520000D02*
G75*
G02*
X144760000Y-71520000I-800000J0D01*
G01*
X144760000Y-71520000D02*
G75*
G02*
X146360000Y-71520000I800000J0D01*
G01*
X139860000Y-71520000D02*
G75*
G02*
X138260000Y-71520000I-800000J0D01*
G01*
X138260000Y-71520000D02*
G75*
G02*
X139860000Y-71520000I800000J0D01*
G01*
X146540000Y-89930000D02*
X146540000Y-85700000D01*
X146540000Y-89930000D02*
X145540000Y-89930000D01*
X145540000Y-89930000D02*
X145540000Y-93420000D01*
X133000000Y-70700000D02*
X133000000Y-89930000D01*
X133000000Y-70700000D02*
G75*
G02*
X134000000Y-69700000I1000000J0D01*
G01*
X152860000Y-83520000D02*
G75*
G02*
X151260000Y-83520000I-800000J0D01*
G01*
X151260000Y-83520000D02*
G75*
G02*
X152860000Y-83520000I800000J0D01*
G01*
X134000000Y-93420000D02*
X134000000Y-89930000D01*
X153800000Y-69700000D02*
X134000000Y-69700000D01*
X146360000Y-83520000D02*
G75*
G02*
X144760000Y-83520000I-800000J0D01*
G01*
X144760000Y-83520000D02*
G75*
G02*
X146360000Y-83520000I800000J0D01*
G01*
%TO.C,Connector_Battery1*%
X150902178Y-79162177D02*
G75*
G02*
X149797822Y-79162177I-552178J0D01*
G01*
X149797822Y-79162177D02*
G75*
G02*
X150902178Y-79162177I552178J0D01*
G01*
X139304355Y-77150000D02*
G75*
G02*
X138199999Y-77150000I-552178J0D01*
G01*
X138199999Y-77150000D02*
G75*
G02*
X139304355Y-77150000I552178J0D01*
G01*
%TD*%
M02*
