%TF.GenerationSoftware,KiCad,Pcbnew,9.0.3*%
%TF.CreationDate,2025-08-11T00:11:25+03:00*%
%TF.ProjectId,Back,4261636b-2e6b-4696-9361-645f70636258,rev?*%
%TF.SameCoordinates,Original*%
%TF.FileFunction,Legend,Top*%
%TF.FilePolarity,Positive*%
%FSLAX46Y46*%
G04 Gerber Fmt 4.6, Leading zero omitted, Abs format (unit mm)*
G04 Created by KiCad (PCBNEW 9.0.3) date 2025-08-11 00:11:25*
%MOMM*%
%LPD*%
G01*
G04 APERTURE LIST*
%ADD10C,0.100000*%
G04 APERTURE END LIST*
D10*
X114840951Y-53752419D02*
X114840951Y-54466704D01*
X114840951Y-54466704D02*
X114793332Y-54609561D01*
X114793332Y-54609561D02*
X114698094Y-54704800D01*
X114698094Y-54704800D02*
X114555237Y-54752419D01*
X114555237Y-54752419D02*
X114459999Y-54752419D01*
X115793332Y-54752419D02*
X115317142Y-54752419D01*
X115317142Y-54752419D02*
X115317142Y-53752419D01*
X116698094Y-54657180D02*
X116650475Y-54704800D01*
X116650475Y-54704800D02*
X116507618Y-54752419D01*
X116507618Y-54752419D02*
X116412380Y-54752419D01*
X116412380Y-54752419D02*
X116269523Y-54704800D01*
X116269523Y-54704800D02*
X116174285Y-54609561D01*
X116174285Y-54609561D02*
X116126666Y-54514323D01*
X116126666Y-54514323D02*
X116079047Y-54323847D01*
X116079047Y-54323847D02*
X116079047Y-54180990D01*
X116079047Y-54180990D02*
X116126666Y-53990514D01*
X116126666Y-53990514D02*
X116174285Y-53895276D01*
X116174285Y-53895276D02*
X116269523Y-53800038D01*
X116269523Y-53800038D02*
X116412380Y-53752419D01*
X116412380Y-53752419D02*
X116507618Y-53752419D01*
X116507618Y-53752419D02*
X116650475Y-53800038D01*
X116650475Y-53800038D02*
X116698094Y-53847657D01*
X117412380Y-53752419D02*
X117412380Y-54466704D01*
X117412380Y-54466704D02*
X117364761Y-54609561D01*
X117364761Y-54609561D02*
X117269523Y-54704800D01*
X117269523Y-54704800D02*
X117126666Y-54752419D01*
X117126666Y-54752419D02*
X117031428Y-54752419D01*
X118364761Y-54752419D02*
X117888571Y-54752419D01*
X117888571Y-54752419D02*
X117888571Y-53752419D01*
X119269523Y-54657180D02*
X119221904Y-54704800D01*
X119221904Y-54704800D02*
X119079047Y-54752419D01*
X119079047Y-54752419D02*
X118983809Y-54752419D01*
X118983809Y-54752419D02*
X118840952Y-54704800D01*
X118840952Y-54704800D02*
X118745714Y-54609561D01*
X118745714Y-54609561D02*
X118698095Y-54514323D01*
X118698095Y-54514323D02*
X118650476Y-54323847D01*
X118650476Y-54323847D02*
X118650476Y-54180990D01*
X118650476Y-54180990D02*
X118698095Y-53990514D01*
X118698095Y-53990514D02*
X118745714Y-53895276D01*
X118745714Y-53895276D02*
X118840952Y-53800038D01*
X118840952Y-53800038D02*
X118983809Y-53752419D01*
X118983809Y-53752419D02*
X119079047Y-53752419D01*
X119079047Y-53752419D02*
X119221904Y-53800038D01*
X119221904Y-53800038D02*
X119269523Y-53847657D01*
X119983809Y-53752419D02*
X119983809Y-54466704D01*
X119983809Y-54466704D02*
X119936190Y-54609561D01*
X119936190Y-54609561D02*
X119840952Y-54704800D01*
X119840952Y-54704800D02*
X119698095Y-54752419D01*
X119698095Y-54752419D02*
X119602857Y-54752419D01*
X120936190Y-54752419D02*
X120460000Y-54752419D01*
X120460000Y-54752419D02*
X120460000Y-53752419D01*
X121840952Y-54657180D02*
X121793333Y-54704800D01*
X121793333Y-54704800D02*
X121650476Y-54752419D01*
X121650476Y-54752419D02*
X121555238Y-54752419D01*
X121555238Y-54752419D02*
X121412381Y-54704800D01*
X121412381Y-54704800D02*
X121317143Y-54609561D01*
X121317143Y-54609561D02*
X121269524Y-54514323D01*
X121269524Y-54514323D02*
X121221905Y-54323847D01*
X121221905Y-54323847D02*
X121221905Y-54180990D01*
X121221905Y-54180990D02*
X121269524Y-53990514D01*
X121269524Y-53990514D02*
X121317143Y-53895276D01*
X121317143Y-53895276D02*
X121412381Y-53800038D01*
X121412381Y-53800038D02*
X121555238Y-53752419D01*
X121555238Y-53752419D02*
X121650476Y-53752419D01*
X121650476Y-53752419D02*
X121793333Y-53800038D01*
X121793333Y-53800038D02*
X121840952Y-53847657D01*
X122555238Y-53752419D02*
X122555238Y-54466704D01*
X122555238Y-54466704D02*
X122507619Y-54609561D01*
X122507619Y-54609561D02*
X122412381Y-54704800D01*
X122412381Y-54704800D02*
X122269524Y-54752419D01*
X122269524Y-54752419D02*
X122174286Y-54752419D01*
X123507619Y-54752419D02*
X123031429Y-54752419D01*
X123031429Y-54752419D02*
X123031429Y-53752419D01*
X124412381Y-54657180D02*
X124364762Y-54704800D01*
X124364762Y-54704800D02*
X124221905Y-54752419D01*
X124221905Y-54752419D02*
X124126667Y-54752419D01*
X124126667Y-54752419D02*
X123983810Y-54704800D01*
X123983810Y-54704800D02*
X123888572Y-54609561D01*
X123888572Y-54609561D02*
X123840953Y-54514323D01*
X123840953Y-54514323D02*
X123793334Y-54323847D01*
X123793334Y-54323847D02*
X123793334Y-54180990D01*
X123793334Y-54180990D02*
X123840953Y-53990514D01*
X123840953Y-53990514D02*
X123888572Y-53895276D01*
X123888572Y-53895276D02*
X123983810Y-53800038D01*
X123983810Y-53800038D02*
X124126667Y-53752419D01*
X124126667Y-53752419D02*
X124221905Y-53752419D01*
X124221905Y-53752419D02*
X124364762Y-53800038D01*
X124364762Y-53800038D02*
X124412381Y-53847657D01*
M02*
