%TF.GenerationSoftware,KiCad,Pcbnew,9.0.3*%
%TF.CreationDate,2025-08-11T00:11:25+03:00*%
%TF.ProjectId,Back,4261636b-2e6b-4696-9361-645f70636258,rev?*%
%TF.SameCoordinates,Original*%
%TF.FileFunction,Profile,NP*%
%FSLAX46Y46*%
G04 Gerber Fmt 4.6, Leading zero omitted, Abs format (unit mm)*
G04 Created by KiCad (PCBNEW 9.0.3) date 2025-08-11 00:11:25*
%MOMM*%
%LPD*%
G01*
G04 APERTURE LIST*
%TA.AperFunction,Profile*%
%ADD10C,0.050000*%
%TD*%
G04 APERTURE END LIST*
D10*
X99560000Y-46270000D02*
X99560000Y-47990263D01*
X66300000Y-101500000D02*
G75*
G02*
X64700000Y-101500000I-800000J0D01*
G01*
X64700000Y-101500000D02*
G75*
G02*
X66300000Y-101500000I800000J0D01*
G01*
X186685857Y-58020000D02*
G75*
G02*
X182514143Y-58020000I-2085857J0D01*
G01*
X182514143Y-58020000D02*
G75*
G02*
X186685857Y-58020000I2085857J0D01*
G01*
X113003183Y-131886817D02*
X113003183Y-104996817D01*
X152800000Y-87587000D02*
G75*
G02*
X151200000Y-87587000I-800000J0D01*
G01*
X151200000Y-87587000D02*
G75*
G02*
X152800000Y-87587000I800000J0D01*
G01*
X77450000Y-95730000D02*
G75*
G02*
X75850000Y-95730000I-800000J0D01*
G01*
X75850000Y-95730000D02*
G75*
G02*
X77450000Y-95730000I800000J0D01*
G01*
X101559737Y-49990263D02*
G75*
G02*
X99560037Y-47990037I263J1999963D01*
G01*
X152800000Y-101375000D02*
G75*
G02*
X151200000Y-101375000I-800000J0D01*
G01*
X151200000Y-101375000D02*
G75*
G02*
X152800000Y-101375000I800000J0D01*
G01*
X70142000Y-68000000D02*
G75*
G02*
X68542000Y-68000000I-800000J0D01*
G01*
X68542000Y-68000000D02*
G75*
G02*
X70142000Y-68000000I800000J0D01*
G01*
X95300000Y-46270000D02*
X95300000Y-48000000D01*
X186478764Y-52390000D02*
G75*
G02*
X184781236Y-52390000I-848764J0D01*
G01*
X184781236Y-52390000D02*
G75*
G02*
X186478764Y-52390000I848764J0D01*
G01*
X144700000Y-96880000D02*
X147100000Y-96880000D01*
X147100000Y-100100000D01*
X144700000Y-100100000D01*
X144700000Y-96880000D01*
X168800000Y-55500000D02*
G75*
G02*
X167200000Y-55500000I-800000J0D01*
G01*
X167200000Y-55500000D02*
G75*
G02*
X168800000Y-55500000I800000J0D01*
G01*
X70142000Y-85000000D02*
G75*
G02*
X68542000Y-85000000I-800000J0D01*
G01*
X68542000Y-85000000D02*
G75*
G02*
X70142000Y-85000000I800000J0D01*
G01*
X59400000Y-50000000D02*
X93300000Y-50000000D01*
X187390000Y-66010000D02*
X180965000Y-66010000D01*
X123000000Y-131890000D02*
X123000000Y-105000000D01*
X77450000Y-57270000D02*
G75*
G02*
X75850000Y-57270000I-800000J0D01*
G01*
X75850000Y-57270000D02*
G75*
G02*
X77450000Y-57270000I800000J0D01*
G01*
X71000000Y-71000000D02*
X74000000Y-71000000D01*
X74000000Y-82000000D01*
X71000000Y-82000000D01*
X71000000Y-71000000D01*
X187400000Y-50010000D02*
X187390000Y-66010000D01*
X82678000Y-67731000D02*
G75*
G02*
X81078000Y-67731000I-800000J0D01*
G01*
X81078000Y-67731000D02*
G75*
G02*
X82678000Y-67731000I800000J0D01*
G01*
X138750000Y-57270000D02*
G75*
G02*
X137150000Y-57270000I-800000J0D01*
G01*
X137150000Y-57270000D02*
G75*
G02*
X138750000Y-57270000I800000J0D01*
G01*
X150800000Y-55500000D02*
G75*
G02*
X149200000Y-55500000I-800000J0D01*
G01*
X149200000Y-55500000D02*
G75*
G02*
X150800000Y-55500000I800000J0D01*
G01*
X168800000Y-80500000D02*
G75*
G02*
X167200000Y-80500000I-800000J0D01*
G01*
X167200000Y-80500000D02*
G75*
G02*
X168800000Y-80500000I800000J0D01*
G01*
X59400000Y-103000000D02*
X111003183Y-103000000D01*
X177455000Y-116780000D02*
X177455000Y-66000000D01*
X66300000Y-51500000D02*
G75*
G02*
X64700000Y-51500000I-800000J0D01*
G01*
X64700000Y-51500000D02*
G75*
G02*
X66300000Y-51500000I800000J0D01*
G01*
X175000000Y-50000000D02*
X187400000Y-50010000D01*
X150800000Y-80500000D02*
G75*
G02*
X149200000Y-80500000I-800000J0D01*
G01*
X149200000Y-80500000D02*
G75*
G02*
X150800000Y-80500000I800000J0D01*
G01*
X175000000Y-50000000D02*
X101560000Y-49990263D01*
X144700000Y-52920000D02*
X147100000Y-52920000D01*
X147100000Y-56120000D01*
X144700000Y-56120000D01*
X144700000Y-52920000D01*
X181275464Y-63940000D02*
G75*
G02*
X179604536Y-63940000I-835464J0D01*
G01*
X179604536Y-63940000D02*
G75*
G02*
X181275464Y-63940000I835464J0D01*
G01*
X124994214Y-103000000D02*
X175000000Y-103000000D01*
X82678000Y-88231000D02*
G75*
G02*
X81078000Y-88231000I-800000J0D01*
G01*
X81078000Y-88231000D02*
G75*
G02*
X82678000Y-88231000I800000J0D01*
G01*
X186390000Y-63940000D02*
G75*
G02*
X184870000Y-63940000I-760000J0D01*
G01*
X184870000Y-63940000D02*
G75*
G02*
X186390000Y-63940000I760000J0D01*
G01*
X111003183Y-102996817D02*
G75*
G02*
X113003183Y-104996817I17J-1999983D01*
G01*
X67900000Y-55420000D02*
X70300000Y-55420000D01*
X70300000Y-60000000D01*
X67900000Y-60000000D01*
X67900000Y-55420000D01*
X161800000Y-101375000D02*
G75*
G02*
X160200000Y-101375000I-800000J0D01*
G01*
X160200000Y-101375000D02*
G75*
G02*
X161800000Y-101375000I800000J0D01*
G01*
X95300000Y-48000000D02*
G75*
G02*
X93300000Y-50000000I-2000000J0D01*
G01*
X161800000Y-87587000D02*
G75*
G02*
X160200000Y-87587000I-800000J0D01*
G01*
X160200000Y-87587000D02*
G75*
G02*
X161800000Y-87587000I800000J0D01*
G01*
X59400000Y-50000000D02*
X59400000Y-103000000D01*
X122994214Y-105000000D02*
G75*
G02*
X124994214Y-103000014I1999986J0D01*
G01*
X175000000Y-103000000D02*
X175000000Y-66000000D01*
X138750000Y-95730000D02*
G75*
G02*
X137150000Y-95730000I-800000J0D01*
G01*
X137150000Y-95730000D02*
G75*
G02*
X138750000Y-95730000I800000J0D01*
G01*
X67900000Y-93000000D02*
X70300000Y-93000000D01*
X70300000Y-97580000D01*
X67900000Y-97580000D01*
X67900000Y-93000000D01*
X180965000Y-66010000D02*
X180965000Y-116780000D01*
X175000000Y-66000000D02*
X177455000Y-66000000D01*
%TO.C,J4*%
X94800000Y-45270000D02*
X94800000Y-46270000D01*
X95300000Y-46270000D02*
X94800000Y-46270000D01*
X95800000Y-45270000D02*
X94800000Y-45270000D01*
X95805000Y-43100000D02*
X95805000Y-45270000D01*
X99055000Y-43100000D02*
X95805000Y-43100000D01*
X99055000Y-43100000D02*
X99055000Y-45270000D01*
X99060000Y-45270000D02*
X100060000Y-45270000D01*
X99560000Y-46270000D02*
X100060000Y-46270000D01*
X100060000Y-45270000D02*
X100060000Y-46270000D01*
%TO.C,J3*%
X176955000Y-117780000D02*
X176955000Y-116780000D01*
X177455000Y-116780000D02*
X176955000Y-116780000D01*
X177955000Y-117780000D02*
X176955000Y-117780000D01*
X177960000Y-119950000D02*
X177960000Y-117780000D01*
X177960000Y-119950000D02*
X180460000Y-119950000D01*
X180460000Y-119950000D02*
X180460000Y-117780000D01*
X180465000Y-117780000D02*
X181465000Y-117780000D01*
X180965000Y-116780000D02*
X181465000Y-116780000D01*
X181465000Y-117780000D02*
X181465000Y-116780000D01*
%TO.C,J1*%
X112463183Y-132886817D02*
X112463183Y-131886817D01*
X113003183Y-131886817D02*
X112463183Y-131886817D01*
X113463183Y-132886817D02*
X112463183Y-132886817D01*
X113463183Y-135056817D02*
X113463183Y-132886817D01*
X113463183Y-135056817D02*
X122543183Y-135056817D01*
X122543183Y-132886817D02*
X123543183Y-132886817D01*
X122543183Y-135056817D02*
X122543183Y-132886817D01*
X123003183Y-131886817D02*
X123543183Y-131886817D01*
X123543183Y-132886817D02*
X123543183Y-131886817D01*
%TD*%
M02*
