%TF.GenerationSoftware,KiCad,Pcbnew,9.0.3*%
%TF.CreationDate,2025-08-10T18:34:40+03:00*%
%TF.ProjectId,Back,4261636b-2e6b-4696-9361-645f70636258,rev?*%
%TF.SameCoordinates,Original*%
%TF.FileFunction,Copper,L1,Top*%
%TF.FilePolarity,Positive*%
%FSLAX46Y46*%
G04 Gerber Fmt 4.6, Leading zero omitted, Abs format (unit mm)*
G04 Created by KiCad (PCBNEW 9.0.3) date 2025-08-10 18:34:40*
%MOMM*%
%LPD*%
G01*
G04 APERTURE LIST*
G04 Aperture macros list*
%AMRoundRect*
0 Rectangle with rounded corners*
0 $1 Rounding radius*
0 $2 $3 $4 $5 $6 $7 $8 $9 X,Y pos of 4 corners*
0 Add a 4 corners polygon primitive as box body*
4,1,4,$2,$3,$4,$5,$6,$7,$8,$9,$2,$3,0*
0 Add four circle primitives for the rounded corners*
1,1,$1+$1,$2,$3*
1,1,$1+$1,$4,$5*
1,1,$1+$1,$6,$7*
1,1,$1+$1,$8,$9*
0 Add four rect primitives between the rounded corners*
20,1,$1+$1,$2,$3,$4,$5,0*
20,1,$1+$1,$4,$5,$6,$7,0*
20,1,$1+$1,$6,$7,$8,$9,0*
20,1,$1+$1,$8,$9,$2,$3,0*%
%AMFreePoly0*
4,1,7,0.150000,0.330000,0.150000,-0.365000,-0.150000,-0.365000,-0.150000,0.330000,-0.050000,0.370000,0.050000,0.370000,0.150000,0.330000,0.150000,0.330000,$1*%
%AMFreePoly1*
4,1,7,0.150000,-0.275000,0.050000,-0.315000,-0.050000,-0.315000,-0.150000,-0.275000,-0.150000,0.300000,0.150000,0.300000,0.150000,-0.275000,0.150000,-0.275000,$1*%
G04 Aperture macros list end*
%TA.AperFunction,SMDPad,CuDef*%
%ADD10FreePoly0,0.000000*%
%TD*%
%TA.AperFunction,SMDPad,CuDef*%
%ADD11FreePoly1,0.000000*%
%TD*%
%TA.AperFunction,SMDPad,CuDef*%
%ADD12RoundRect,0.200000X-0.300000X0.200000X-0.300000X-0.200000X0.300000X-0.200000X0.300000X0.200000X0*%
%TD*%
%TA.AperFunction,SMDPad,CuDef*%
%ADD13RoundRect,0.200000X0.300000X-0.200000X0.300000X0.200000X-0.300000X0.200000X-0.300000X-0.200000X0*%
%TD*%
%TA.AperFunction,SMDPad,CuDef*%
%ADD14RoundRect,0.200000X-0.200000X-0.300000X0.200000X-0.300000X0.200000X0.300000X-0.200000X0.300000X0*%
%TD*%
%TA.AperFunction,SMDPad,CuDef*%
%ADD15R,2.000000X2.000000*%
%TD*%
%TA.AperFunction,SMDPad,CuDef*%
%ADD16R,0.300000X0.730000*%
%TD*%
%TA.AperFunction,ComponentPad*%
%ADD17R,1.500000X1.500000*%
%TD*%
%TA.AperFunction,ComponentPad*%
%ADD18C,1.600000*%
%TD*%
%TA.AperFunction,ViaPad*%
%ADD19C,0.600000*%
%TD*%
%TA.AperFunction,Conductor*%
%ADD20C,0.200000*%
%TD*%
%TA.AperFunction,Conductor*%
%ADD21C,0.100000*%
%TD*%
G04 APERTURE END LIST*
D10*
%TO.P,J1,1,Pin_1*%
%TO.N,Net-(J1-Pin_1)*%
X113803183Y-134546817D03*
D11*
%TO.P,J1,2,Pin_2*%
X114053183Y-133796817D03*
D10*
%TO.P,J1,3,Pin_3*%
%TO.N,Net-(J1-Pin_3)*%
X114297301Y-134546817D03*
D11*
%TO.P,J1,4,Pin_4*%
X114546933Y-133796817D03*
D10*
%TO.P,J1,5,Pin_5*%
%TO.N,Net-(J1-Pin_5)*%
X114791418Y-134546817D03*
D11*
%TO.P,J1,6,Pin_6*%
X115040683Y-133796817D03*
D10*
%TO.P,J1,7,Pin_7*%
%TO.N,Net-(J1-Pin_7)*%
X115285536Y-134546817D03*
D11*
%TO.P,J1,8,Pin_8*%
X115534433Y-133796817D03*
D10*
%TO.P,J1,9,Pin_9*%
%TO.N,Net-(J1-Pin_9)*%
X115779654Y-134546817D03*
D11*
%TO.P,J1,10,Pin_10*%
%TO.N,Net-(J1-Pin_10)*%
X116028183Y-133796817D03*
D10*
%TO.P,J1,11,Pin_11*%
%TO.N,Net-(J1-Pin_11)*%
X116273771Y-134546817D03*
D11*
%TO.P,J1,12,Pin_12*%
%TO.N,Net-(J1-Pin_12)*%
X116521933Y-133796817D03*
D10*
%TO.P,J1,13,Pin_13*%
%TO.N,Net-(J1-Pin_13)*%
X116767889Y-134546817D03*
D11*
%TO.P,J1,14,Pin_14*%
%TO.N,Net-(J1-Pin_14)*%
X117015683Y-133796817D03*
D10*
%TO.P,J1,15,Pin_15*%
%TO.N,Net-(J1-Pin_15)*%
X117262007Y-134546817D03*
D11*
%TO.P,J1,16,Pin_16*%
%TO.N,Net-(J1-Pin_16)*%
X117509433Y-133796817D03*
D10*
%TO.P,J1,17,Pin_17*%
%TO.N,Net-(J1-Pin_17)*%
X117756124Y-134546817D03*
D11*
%TO.P,J1,18,Pin_18*%
%TO.N,unconnected-(J1-Pin_18-Pad18)*%
X118003183Y-133796817D03*
D10*
%TO.P,J1,19,Pin_19*%
%TO.N,unconnected-(J1-Pin_19-Pad19)*%
X118250242Y-134546817D03*
D11*
%TO.P,J1,20,Pin_20*%
%TO.N,unconnected-(J1-Pin_20-Pad20)*%
X118496933Y-133796817D03*
D10*
%TO.P,J1,21,Pin_21*%
%TO.N,unconnected-(J1-Pin_21-Pad21)*%
X118744359Y-134546817D03*
D11*
%TO.P,J1,22,Pin_22*%
%TO.N,unconnected-(J1-Pin_22-Pad22)*%
X118990683Y-133796817D03*
D10*
%TO.P,J1,23,Pin_23*%
%TO.N,unconnected-(J1-Pin_23-Pad23)*%
X119238477Y-134546817D03*
D11*
%TO.P,J1,24,Pin_24*%
%TO.N,Net-(J1-Pin_24)*%
X119484433Y-133796817D03*
D10*
%TO.P,J1,25,Pin_25*%
%TO.N,Net-(J1-Pin_25)*%
X119732595Y-134546817D03*
D11*
%TO.P,J1,26,Pin_26*%
%TO.N,Net-(J1-Pin_26)*%
X119978183Y-133796817D03*
D10*
%TO.P,J1,27,Pin_27*%
%TO.N,Net-(J1-Pin_27)*%
X120226712Y-134546817D03*
D11*
%TO.P,J1,28,Pin_28*%
%TO.N,Net-(J1-Pin_28)*%
X120471933Y-133796817D03*
D10*
%TO.P,J1,29,Pin_29*%
%TO.N,Net-(J1-Pin_29)*%
X120720830Y-134546817D03*
D11*
%TO.P,J1,30,Pin_30*%
%TO.N,Net-(J1-Pin_30)*%
X120965683Y-133796817D03*
D10*
%TO.P,J1,31,Pin_31*%
%TO.N,Net-(J1-Pin_31)*%
X121214948Y-134546817D03*
D11*
%TO.P,J1,32,Pin_32*%
%TO.N,Net-(J1-Pin_32)*%
X121459433Y-133796817D03*
D10*
%TO.P,J1,33,Pin_33*%
%TO.N,Net-(J1-Pin_33)*%
X121709065Y-134546817D03*
D11*
%TO.P,J1,34,Pin_34*%
%TO.N,Net-(J1-Pin_34)*%
X121953183Y-133796817D03*
D10*
%TO.P,J1,35,Pin_35*%
X122203183Y-134546817D03*
%TD*%
D12*
%TO.P,C1,1*%
%TO.N,Net-(J1-Pin_28)*%
X117710000Y-68240000D03*
%TO.P,C1,2*%
%TO.N,Net-(J1-Pin_25)*%
X117710000Y-69440000D03*
%TD*%
%TO.P,C2,1*%
%TO.N,Net-(J1-Pin_28)*%
X119860000Y-68236817D03*
%TO.P,C2,2*%
%TO.N,Net-(J1-Pin_26)*%
X119860000Y-69436817D03*
%TD*%
D13*
%TO.P,R3,1*%
%TO.N,Net-(SW3A-D)*%
X164610000Y-75725000D03*
%TO.P,R3,2*%
%TO.N,Net-(SW2A-D)*%
X164610000Y-74525000D03*
%TD*%
D14*
%TO.P,R2,1*%
%TO.N,Net-(SW5A-D)*%
X165720000Y-61340000D03*
%TO.P,R2,2*%
%TO.N,Net-(SW2A-D)*%
X166920000Y-61340000D03*
%TD*%
D13*
%TO.P,R1,1*%
%TO.N,Net-(J1-Pin_27)*%
X151750000Y-60705000D03*
%TO.P,R1,2*%
%TO.N,Net-(SW5A-D)*%
X151750000Y-59505000D03*
%TD*%
D15*
%TO.P,SW11,1,C*%
%TO.N,Net-(J5-Pin_2)*%
X61375000Y-91740000D03*
X64775000Y-91740000D03*
%TO.P,SW11,2,D*%
%TO.N,Net-(J5-Pin_1)*%
X61375000Y-97260000D03*
X64775000Y-97260000D03*
%TD*%
%TO.P,SW2,1,C*%
%TO.N,Net-(J1-Pin_28)*%
X164600000Y-65240000D03*
X168000000Y-65240000D03*
%TO.P,SW2,2,D*%
%TO.N,Net-(SW2A-D)*%
X164600000Y-70760000D03*
X168000000Y-70760000D03*
%TD*%
%TO.P,SW5,1,C*%
%TO.N,Net-(J1-Pin_28)*%
X157300000Y-57840000D03*
X160700000Y-57840000D03*
%TO.P,SW5,2,D*%
%TO.N,Net-(SW5A-D)*%
X157300000Y-63360000D03*
X160700000Y-63360000D03*
%TD*%
%TO.P,SW10,1,C*%
%TO.N,Net-(J1-Pin_12)*%
X64825000Y-85410000D03*
X61425000Y-85410000D03*
%TO.P,SW10,2,D*%
%TO.N,Net-(J1-Pin_14)*%
X64825000Y-79890000D03*
X61425000Y-79890000D03*
%TD*%
%TO.P,SW6,1,C*%
%TO.N,Net-(J1-Pin_30)*%
X150280000Y-91800000D03*
X153680000Y-91800000D03*
%TO.P,SW6,2,D*%
%TO.N,Net-(J1-Pin_31)*%
X150280000Y-97320000D03*
X153680000Y-97320000D03*
%TD*%
%TO.P,SW8,1,C*%
%TO.N,Net-(J1-Pin_28)*%
X61550000Y-55840000D03*
X64950000Y-55840000D03*
%TO.P,SW8,2,D*%
%TO.N,Net-(J1-Pin_24)*%
X61550000Y-61360000D03*
X64950000Y-61360000D03*
%TD*%
D16*
%TO.P,J4,1,Pin_1*%
%TO.N,Net-(J1-Pin_11)*%
X98595000Y-43520000D03*
%TO.P,J4,2,Pin_2*%
%TO.N,Net-(J1-Pin_10)*%
X98206000Y-43520000D03*
%TO.P,J4,3,Pin_3*%
%TO.N,Net-(J1-Pin_9)*%
X97818000Y-43520000D03*
%TO.P,J4,4,Pin_4*%
%TO.N,Net-(J1-Pin_7)*%
X97430000Y-43520000D03*
%TO.P,J4,5,Pin_5*%
%TO.N,Net-(J1-Pin_5)*%
X97042000Y-43520000D03*
%TO.P,J4,6*%
%TO.N,N/C*%
X96654000Y-43520000D03*
%TO.P,J4,7*%
X96265000Y-43520000D03*
%TD*%
D15*
%TO.P,SW1,1,C*%
%TO.N,Net-(J1-Pin_28)*%
X156240000Y-69700000D03*
X156240000Y-66300000D03*
%TO.P,SW1,2,D*%
%TO.N,Net-(J1-Pin_29)*%
X161760000Y-69700000D03*
X161760000Y-66300000D03*
%TD*%
%TO.P,SW3,1,C*%
%TO.N,Net-(J1-Pin_28)*%
X157300000Y-72640000D03*
X160700000Y-72640000D03*
%TO.P,SW3,2,D*%
%TO.N,Net-(SW3A-D)*%
X157300000Y-78160000D03*
X160700000Y-78160000D03*
%TD*%
%TO.P,SW4,1,C*%
%TO.N,Net-(J1-Pin_28)*%
X149800000Y-65240000D03*
X153200000Y-65240000D03*
%TO.P,SW4,2,D*%
%TO.N,Net-(J1-Pin_27)*%
X149800000Y-70760000D03*
X153200000Y-70760000D03*
%TD*%
D17*
%TO.P,SW12,1,B*%
%TO.N,Net-(J1-Pin_32)*%
X129285000Y-89400000D03*
D18*
%TO.P,SW12,2,C*%
%TO.N,Net-(J1-Pin_33)*%
X126745000Y-89400000D03*
%TO.P,SW12,3,A*%
%TO.N,Net-(J1-Pin_34)*%
X131825000Y-89400000D03*
%TD*%
D16*
%TO.P,J3,1,Pin_1*%
%TO.N,Net-(J3-Pin_1)*%
X178405000Y-119410000D03*
%TO.P,J3,2,Pin_2*%
%TO.N,Net-(J3-Pin_2)*%
X178794000Y-119410000D03*
%TO.P,J3,3,Pin_3*%
%TO.N,Net-(J3-Pin_3)*%
X179182000Y-119410000D03*
%TO.P,J3,4,Pin_4*%
%TO.N,Net-(J3-Pin_4)*%
X179570000Y-119410000D03*
%TO.P,J3,5,Pin_5*%
%TO.N,Net-(J3-Pin_5)*%
X179958000Y-119410000D03*
%TO.P,J3,6*%
%TO.N,N/C*%
X180346000Y-119410000D03*
%TO.P,J3,7*%
X180735000Y-119410000D03*
%TD*%
D15*
%TO.P,SW7,1,C*%
%TO.N,Net-(J1-Pin_16)*%
X159370000Y-91800000D03*
X162770000Y-91800000D03*
%TO.P,SW7,2,D*%
%TO.N,Net-(J1-Pin_17)*%
X159370000Y-97320000D03*
X162770000Y-97320000D03*
%TD*%
%TO.P,SW13,1,B*%
%TO.N,Net-(J3-Pin_1)*%
X180070000Y-52240000D03*
X180050000Y-58470000D03*
%TO.P,SW13,2,C*%
%TO.N,Net-(J3-Pin_2)*%
X177280000Y-52240000D03*
%TO.P,SW13,3,A*%
%TO.N,Net-(J3-Pin_3)*%
X177290000Y-58470000D03*
%TD*%
%TO.P,SW9,1,C*%
%TO.N,Net-(J1-Pin_28)*%
X61225000Y-67780000D03*
X64625000Y-67780000D03*
%TO.P,SW9,2,D*%
%TO.N,Net-(J1-Pin_30)*%
X61225000Y-73300000D03*
X64625000Y-73300000D03*
%TD*%
D19*
%TO.N,Net-(J1-Pin_7)*%
X96000000Y-73000000D03*
%TO.N,Net-(J1-Pin_5)*%
X95000000Y-73000000D03*
X95000000Y-62000000D03*
%TO.N,Net-(J1-Pin_30)*%
X122580000Y-83670000D03*
X114480000Y-78800000D03*
%TO.N,Net-(J1-Pin_17)*%
X116940000Y-78840000D03*
X122980000Y-78900000D03*
%TO.N,Net-(J1-Pin_16)*%
X124330000Y-78880000D03*
X115650000Y-78840000D03*
%TO.N,Net-(J1-Pin_9)*%
X97000000Y-73000000D03*
X97000000Y-62000000D03*
%TO.N,Net-(J1-Pin_7)*%
X96000000Y-62000000D03*
%TO.N,Net-(J1-Pin_10)*%
X98000000Y-73000000D03*
X98000000Y-62000000D03*
%TO.N,Net-(J1-Pin_11)*%
X99000000Y-73000000D03*
X99000000Y-62000000D03*
%TD*%
D20*
%TO.N,Net-(J1-Pin_28)*%
X66710000Y-57600000D02*
X66710000Y-62350000D01*
X113661163Y-68250000D02*
X113664346Y-68246817D01*
X68670952Y-64310952D02*
X107222115Y-64310952D01*
X64950000Y-55840000D02*
X66710000Y-57600000D01*
X107222115Y-64310952D02*
X111161163Y-68250000D01*
X120323183Y-68236817D02*
X120903183Y-68236817D01*
X111161163Y-68250000D02*
X113661163Y-68250000D01*
X66710000Y-62350000D02*
X68670952Y-64310952D01*
X113664346Y-68246817D02*
X120313183Y-68246817D01*
X120313183Y-68246817D02*
X120323183Y-68236817D01*
X120903183Y-68236817D02*
X121703183Y-69036817D01*
X121703183Y-69036817D02*
X121703183Y-73396817D01*
X121703183Y-73396817D02*
X122706366Y-74400000D01*
X122706366Y-74400000D02*
X122930000Y-74400000D01*
%TO.N,Net-(J1-Pin_11)*%
X99000000Y-62000000D02*
X99000000Y-58540000D01*
X99000000Y-58540000D02*
X98600000Y-58140000D01*
X98600000Y-58140000D02*
X98600000Y-43525000D01*
X98600000Y-43525000D02*
X98595000Y-43520000D01*
%TO.N,Net-(J1-Pin_10)*%
X98206000Y-43520000D02*
X98206000Y-58434000D01*
X98206000Y-58434000D02*
X98000000Y-58640000D01*
X98000000Y-58640000D02*
X98000000Y-62000000D01*
%TO.N,Net-(J1-Pin_9)*%
X97000000Y-62000000D02*
X97000000Y-58990000D01*
X97000000Y-58990000D02*
X97810000Y-58180000D01*
X97810000Y-58180000D02*
X97810000Y-43528000D01*
X97810000Y-43528000D02*
X97818000Y-43520000D01*
%TO.N,Net-(J1-Pin_5)*%
X97042000Y-43520000D02*
X97042000Y-57748000D01*
X97042000Y-57748000D02*
X95000000Y-59790000D01*
X95000000Y-59790000D02*
X95000000Y-62000000D01*
%TO.N,Net-(J1-Pin_7)*%
X97430000Y-43520000D02*
X97430000Y-57940000D01*
X97430000Y-57940000D02*
X96010000Y-59360000D01*
X96010000Y-59360000D02*
X96010000Y-61990000D01*
X96010000Y-61990000D02*
X96000000Y-62000000D01*
X95870000Y-73020000D02*
X96000000Y-73150000D01*
X96000000Y-73150000D02*
X96000000Y-74440000D01*
X96000000Y-74440000D02*
X114203183Y-92643183D01*
X115543183Y-133319717D02*
X115543183Y-133796817D01*
X114203183Y-92643183D02*
X114203183Y-131979717D01*
X114203183Y-131979717D02*
X115543183Y-133319717D01*
%TO.N,Net-(J1-Pin_11)*%
X99020000Y-73010000D02*
X99010000Y-73020000D01*
X115463183Y-91893183D02*
X115463183Y-131316817D01*
X99010000Y-73020000D02*
X99010000Y-75440000D01*
X99010000Y-75440000D02*
X115463183Y-91893183D01*
X115463183Y-131316817D02*
X116119533Y-131973167D01*
%TO.N,Net-(J1-Pin_10)*%
X98000000Y-72990000D02*
X98000000Y-75080000D01*
X98000000Y-75080000D02*
X115033183Y-92113183D01*
X115033183Y-92113183D02*
X115033183Y-131586817D01*
X116033183Y-132586817D02*
X116033183Y-133796817D01*
X115033183Y-131586817D02*
X116033183Y-132586817D01*
%TO.N,Net-(J1-Pin_9)*%
X97020000Y-72960000D02*
X96970000Y-72960000D01*
X96970000Y-72960000D02*
X97000000Y-72990000D01*
X114623183Y-92413183D02*
X114623183Y-131790073D01*
X97000000Y-74790000D02*
X114623183Y-92413183D01*
X97000000Y-72990000D02*
X97000000Y-74790000D01*
X114623183Y-131790073D02*
X115649927Y-132816817D01*
%TO.N,Net-(J1-Pin_5)*%
X95000000Y-73000000D02*
X95000000Y-74070000D01*
X113783183Y-92853183D02*
X113783183Y-132126817D01*
X115043183Y-133796817D02*
X114973183Y-133866817D01*
X113783183Y-132126817D02*
X115043183Y-133386817D01*
X114793183Y-134286817D02*
X114793183Y-134546817D01*
X115043183Y-133386817D02*
X115043183Y-133796817D01*
X95000000Y-74070000D02*
X113783183Y-92853183D01*
X114973183Y-133866817D02*
X114973183Y-134106817D01*
X114973183Y-134106817D02*
X114793183Y-134286817D01*
%TO.N,Net-(J1-Pin_30)*%
X64625000Y-73300000D02*
X64820000Y-73300000D01*
X66730000Y-71390000D02*
X66730000Y-66780000D01*
X68310000Y-65200000D02*
X106800000Y-65200000D01*
X64820000Y-73300000D02*
X66730000Y-71390000D01*
X66730000Y-66780000D02*
X68310000Y-65200000D01*
X106800000Y-65200000D02*
X114490000Y-72890000D01*
X114490000Y-72890000D02*
X114490000Y-78790000D01*
X114490000Y-78790000D02*
X114480000Y-78800000D01*
%TO.N,Net-(J1-Pin_31)*%
X121052183Y-130116817D02*
X121050461Y-130115095D01*
X121050461Y-130115095D02*
X121050461Y-86069539D01*
X149020000Y-97320000D02*
X150420000Y-97320000D01*
X121050461Y-86069539D02*
X122800000Y-84320000D01*
X122800000Y-84320000D02*
X141910000Y-84320000D01*
X141910000Y-84320000D02*
X148375000Y-90785000D01*
X148375000Y-96675000D02*
X149020000Y-97320000D01*
X148375000Y-90785000D02*
X148375000Y-96675000D01*
X150420000Y-97320000D02*
X150425000Y-97325000D01*
%TO.N,Net-(J1-Pin_30)*%
X122580000Y-83670000D02*
X120649461Y-85600539D01*
X120649461Y-85600539D02*
X120649461Y-130863095D01*
X120649461Y-130863095D02*
X120963183Y-131176817D01*
X120963183Y-131176817D02*
X120963183Y-133796817D01*
X142423183Y-83945000D02*
X142425000Y-83945000D01*
X122580000Y-83670000D02*
X142148183Y-83670000D01*
X142148183Y-83670000D02*
X142423183Y-83945000D01*
X142425000Y-83945000D02*
X150355000Y-91875000D01*
%TO.N,Net-(J1-Pin_16)*%
X124330000Y-78880000D02*
X124330000Y-80870000D01*
X159370000Y-91720000D02*
X159370000Y-91800000D01*
X124330000Y-80870000D02*
X125913978Y-82453978D01*
X125913978Y-82453978D02*
X150103978Y-82453978D01*
X150103978Y-82453978D02*
X159370000Y-91720000D01*
X115650000Y-78840000D02*
X115650000Y-78870000D01*
X117393183Y-80613183D02*
X117393183Y-132494717D01*
X117474183Y-132575717D02*
X117482083Y-132575717D01*
X117482083Y-132575717D02*
X117513183Y-132606817D01*
X117393183Y-132494717D02*
X117474183Y-132575717D01*
X115650000Y-78870000D02*
X117393183Y-80613183D01*
X117513183Y-132606817D02*
X117513183Y-133796817D01*
%TO.N,Net-(J1-Pin_17)*%
X116940000Y-78840000D02*
X117793183Y-79693183D01*
X117793183Y-79693183D02*
X117793183Y-132319717D01*
X122980000Y-78900000D02*
X122980000Y-80340000D01*
X122980000Y-80340000D02*
X125641000Y-83001000D01*
X125641000Y-83001000D02*
X149901000Y-83001000D01*
X157475000Y-96650000D02*
X158145000Y-97320000D01*
X149901000Y-83001000D02*
X157475000Y-90575000D01*
X157475000Y-90575000D02*
X157475000Y-96650000D01*
X158145000Y-97320000D02*
X159385000Y-97320000D01*
X159385000Y-97320000D02*
X159425000Y-97360000D01*
%TO.N,Net-(J1-Pin_28)*%
X157300000Y-57840000D02*
X160700000Y-57840000D01*
%TO.N,Net-(SW5A-D)*%
X160700000Y-63360000D02*
X157300000Y-63360000D01*
%TO.N,Net-(J1-Pin_28)*%
X156240000Y-66300000D02*
X156240000Y-66285000D01*
X157705000Y-64820000D02*
X164180000Y-64820000D01*
X156240000Y-66285000D02*
X157705000Y-64820000D01*
X164180000Y-64820000D02*
X164600000Y-65240000D01*
X164600000Y-65240000D02*
X168000000Y-65240000D01*
%TO.N,Net-(SW2A-D)*%
X164600000Y-70760000D02*
X168000000Y-70760000D01*
%TO.N,Net-(SW3A-D)*%
X160700000Y-78160000D02*
X157300000Y-78160000D01*
%TO.N,Net-(J1-Pin_28)*%
X157300000Y-72640000D02*
X160700000Y-72640000D01*
X120312183Y-77929917D02*
X120312183Y-77920717D01*
X151300000Y-66740000D02*
X149800000Y-65240000D01*
X120473183Y-132124717D02*
X119836365Y-131487899D01*
X148474183Y-75195817D02*
X151300000Y-72370000D01*
X119836365Y-131487899D02*
X119836365Y-78405735D01*
X120473183Y-133796817D02*
X120473183Y-132124717D01*
X119836365Y-78405735D02*
X120312183Y-77929917D01*
X123037083Y-75195817D02*
X148474183Y-75195817D01*
X120312183Y-77920717D02*
X123037083Y-75195817D01*
X151300000Y-72370000D02*
X151300000Y-66740000D01*
X122930000Y-74400000D02*
X147150000Y-74400000D01*
X147150000Y-74400000D02*
X148000000Y-73550000D01*
X148000000Y-73550000D02*
X148000000Y-67040000D01*
X148000000Y-67040000D02*
X149800000Y-65240000D01*
%TO.N,Net-(J1-Pin_27)*%
X122870983Y-74794817D02*
X148178817Y-74794817D01*
X148178817Y-74794817D02*
X148182000Y-74798000D01*
%TO.N,Net-(J1-Pin_29)*%
X161760000Y-69700000D02*
X161760000Y-71085000D01*
X162325000Y-71650000D02*
X162325000Y-74875000D01*
X161600000Y-75600000D02*
X123206366Y-75600000D01*
X161760000Y-71085000D02*
X162325000Y-71650000D01*
X162325000Y-74875000D02*
X161600000Y-75600000D01*
X123206366Y-75600000D02*
X123203183Y-75596817D01*
%TO.N,Net-(J1-Pin_28)*%
X122930000Y-74400000D02*
X122711066Y-74400000D01*
X122711066Y-74400000D02*
X122704883Y-74393817D01*
%TO.N,Net-(J1-Pin_12)*%
X64825000Y-85410000D02*
X66885000Y-83350000D01*
X66885000Y-83350000D02*
X74967100Y-83350000D01*
X74967100Y-83350000D02*
X87585100Y-70732000D01*
X87585100Y-70732000D02*
X101192000Y-70732000D01*
X101192000Y-70732000D02*
X116523183Y-86063183D01*
X116523183Y-86063183D02*
X116523183Y-88690283D01*
%TO.N,Net-(J1-Pin_14)*%
X67884000Y-82949000D02*
X74801000Y-82949000D01*
X87419000Y-70331000D02*
X101411000Y-70331000D01*
X74801000Y-82949000D02*
X87419000Y-70331000D01*
X101411000Y-70331000D02*
X116992183Y-85912183D01*
X64825000Y-79890000D02*
X67884000Y-82949000D01*
X116992183Y-85912183D02*
X116992183Y-133765817D01*
X116992183Y-133765817D02*
X117023183Y-133796817D01*
%TO.N,Net-(J1-Pin_12)*%
X116523183Y-133796817D02*
X116523183Y-88690283D01*
X116523183Y-88690283D02*
X116523183Y-88700000D01*
%TO.N,Net-(J5-Pin_1)*%
X61375000Y-97260000D02*
X64775000Y-97260000D01*
%TO.N,Net-(J5-Pin_2)*%
X64775000Y-91740000D02*
X61375000Y-91740000D01*
%TO.N,Net-(J1-Pin_12)*%
X61425000Y-85410000D02*
X64825000Y-85410000D01*
%TO.N,Net-(J1-Pin_14)*%
X64825000Y-79890000D02*
X61425000Y-79890000D01*
%TO.N,Net-(J1-Pin_30)*%
X61225000Y-73300000D02*
X64625000Y-73300000D01*
%TO.N,Net-(J1-Pin_28)*%
X61225000Y-67780000D02*
X64625000Y-67780000D01*
%TO.N,Net-(J1-Pin_24)*%
X61550000Y-61360000D02*
X64950000Y-61360000D01*
X115690000Y-73345937D02*
X115699120Y-73345937D01*
X115699120Y-73345937D02*
X118193183Y-75840000D01*
%TO.N,Net-(J1-Pin_26)*%
X119983183Y-133796817D02*
X119983183Y-132776817D01*
X119983183Y-132776817D02*
X119023183Y-131816817D01*
X119023183Y-131816817D02*
X119023183Y-71136817D01*
X119023183Y-71136817D02*
X119860000Y-70300000D01*
X119860000Y-70300000D02*
X119860000Y-69436817D01*
%TO.N,Net-(J1-Pin_25)*%
X119598183Y-132991817D02*
X118602247Y-131995881D01*
X118602247Y-131995881D02*
X118602247Y-71122247D01*
X118602247Y-71122247D02*
X117710000Y-70230000D01*
X117710000Y-70230000D02*
X117710000Y-69440000D01*
%TO.N,Net-(J1-Pin_29)*%
X120248461Y-86459439D02*
X120248461Y-131212095D01*
D21*
%TO.N,Net-(J1-Pin_25)*%
X119598183Y-132991817D02*
X119733183Y-133126817D01*
X119733183Y-133126817D02*
X119733183Y-134546817D01*
%TO.N,Net-(J1-Pin_27)*%
X120223183Y-134546817D02*
X120223183Y-132446817D01*
D20*
X119433183Y-131656817D02*
X120093183Y-132316817D01*
%TO.N,Net-(J1-Pin_29)*%
X120237365Y-78571835D02*
X120237365Y-86448343D01*
D21*
%TO.N,Net-(J1-Pin_27)*%
X120223183Y-132446817D02*
X120093183Y-132316817D01*
D20*
X119435365Y-78239635D02*
X119435365Y-131339635D01*
X119433183Y-131341817D02*
X119433183Y-131656817D01*
%TO.N,Net-(J1-Pin_29)*%
X120237365Y-86448343D02*
X120248461Y-86459439D01*
D21*
%TO.N,Net-(J1-Pin_31)*%
X121052183Y-130375817D02*
X121203183Y-130526817D01*
D20*
%TO.N,Net-(J1-Pin_29)*%
X120248461Y-131212095D02*
X120563183Y-131526817D01*
D21*
X120713183Y-134546817D02*
X120713183Y-131676817D01*
D20*
X120713183Y-78096017D02*
X120237365Y-78571835D01*
X123203183Y-75596817D02*
X120713183Y-78086817D01*
X120713183Y-78086817D02*
X120713183Y-78096017D01*
%TO.N,Net-(J1-Pin_27)*%
X122870983Y-74794817D02*
X119911183Y-77754617D01*
X119911183Y-77763817D02*
X119435365Y-78239635D01*
D21*
%TO.N,Net-(J1-Pin_31)*%
X121052183Y-130116817D02*
X121052183Y-130375817D01*
D20*
%TO.N,Net-(J1-Pin_27)*%
X119435365Y-131339635D02*
X119433183Y-131341817D01*
D21*
%TO.N,Net-(J1-Pin_29)*%
X120713183Y-131676817D02*
X120563183Y-131526817D01*
D20*
%TO.N,Net-(J1-Pin_27)*%
X119911183Y-77754617D02*
X119911183Y-77763817D01*
D21*
%TO.N,Net-(J1-Pin_31)*%
X121203183Y-130526817D02*
X121203183Y-134546817D01*
%TO.N,Net-(J1-Pin_11)*%
X116156833Y-132010467D02*
X116273183Y-132126817D01*
D20*
%TO.N,Net-(J1-Pin_24)*%
X107056015Y-64711952D02*
X115690000Y-73345937D01*
D21*
%TO.N,Net-(J1-Pin_11)*%
X116273183Y-132126817D02*
X116273183Y-134546817D01*
%TO.N,Net-(J1-Pin_17)*%
X117793183Y-133316817D02*
X117763183Y-133346817D01*
X117793183Y-132319717D02*
X117793183Y-133316817D01*
X117763183Y-133346817D02*
X117763183Y-134546817D01*
D20*
%TO.N,Net-(J1-Pin_3)*%
X114303183Y-134397817D02*
X114342183Y-134397817D01*
D21*
%TO.N,Net-(J1-Pin_9)*%
X115783183Y-132950073D02*
X115783183Y-134546817D01*
D20*
%TO.N,Net-(J1-Pin_3)*%
X114303183Y-134546817D02*
X114303183Y-134247817D01*
X114303183Y-134247817D02*
X114553183Y-133997817D01*
X114303183Y-134546817D02*
X114303183Y-134397817D01*
%TO.N,Net-(J1-Pin_1)*%
X113803183Y-134546817D02*
X113803183Y-134376817D01*
X114053183Y-133930717D02*
X114053183Y-133796817D01*
X113902183Y-134081717D02*
X114053183Y-133930717D01*
X113803183Y-134376817D02*
X113902183Y-134277817D01*
X113902183Y-134277817D02*
X113902183Y-134081717D01*
%TO.N,Net-(J1-Pin_3)*%
X114553183Y-133997817D02*
X114553183Y-133796817D01*
%TO.N,Net-(J1-Pin_33)*%
X121853183Y-101797817D02*
X121853183Y-102095817D01*
%TO.N,Net-(J1-Pin_34)*%
X122203183Y-134271817D02*
X122203183Y-134546817D01*
D21*
%TO.N,Net-(J1-Pin_9)*%
X115783183Y-132950073D02*
X115649927Y-132816817D01*
D20*
%TO.N,Net-(J1-Pin_34)*%
X121953183Y-133880817D02*
X121962183Y-133880817D01*
D21*
%TO.N,Net-(J1-Pin_33)*%
X121703183Y-133146817D02*
X121703183Y-134546817D01*
D20*
%TO.N,Net-(J1-Pin_34)*%
X121953183Y-133376817D02*
X122260000Y-133070000D01*
D21*
%TO.N,Net-(J1-Pin_33)*%
X121859000Y-132802000D02*
X121854183Y-132806817D01*
D20*
%TO.N,Net-(J1-Pin_34)*%
X121953183Y-133796817D02*
X121953183Y-134021817D01*
X121953183Y-134021817D02*
X122203183Y-134271817D01*
D21*
%TO.N,Net-(J1-Pin_33)*%
X121854183Y-132995817D02*
X121703183Y-133146817D01*
D20*
%TO.N,Net-(J1-Pin_34)*%
X121953183Y-133796817D02*
X121953183Y-133376817D01*
X121953183Y-133796817D02*
X121953183Y-133880817D01*
D21*
%TO.N,Net-(J1-Pin_33)*%
X121854183Y-132806817D02*
X121854183Y-132995817D01*
D20*
%TO.N,Net-(J1-Pin_34)*%
X122260000Y-133070000D02*
X122260000Y-101990000D01*
%TO.N,Net-(J1-Pin_32)*%
X121453183Y-133796817D02*
X121453183Y-101630717D01*
%TO.N,Net-(J1-Pin_33)*%
X121859000Y-102101634D02*
X121859000Y-132802000D01*
X121853183Y-102095817D02*
X121859000Y-102101634D01*
%TO.N,Net-(SW3A-D)*%
X164610000Y-75725000D02*
X164610000Y-77500000D01*
X164610000Y-77500000D02*
X164010000Y-78100000D01*
X160760000Y-78100000D02*
X160700000Y-78160000D01*
X164010000Y-78100000D02*
X160760000Y-78100000D01*
%TO.N,Net-(SW2A-D)*%
X164600000Y-70760000D02*
X164610000Y-70770000D01*
X164610000Y-70770000D02*
X164610000Y-74525000D01*
X166920000Y-61340000D02*
X168560000Y-61340000D01*
X169525000Y-69235000D02*
X168000000Y-70760000D01*
X168560000Y-61340000D02*
X169525000Y-62305000D01*
X169525000Y-62305000D02*
X169525000Y-69235000D01*
%TO.N,Net-(SW5A-D)*%
X165720000Y-61340000D02*
X165720000Y-61440000D01*
X163800000Y-63360000D02*
X160700000Y-63360000D01*
X165720000Y-61440000D02*
X163800000Y-63360000D01*
X151750000Y-59470000D02*
X154770000Y-56450000D01*
X154770000Y-56450000D02*
X164260000Y-56450000D01*
X164260000Y-56450000D02*
X165740000Y-57930000D01*
X165740000Y-57930000D02*
X165740000Y-61320000D01*
X165740000Y-61320000D02*
X165720000Y-61340000D01*
%TO.N,Net-(J1-Pin_27)*%
X153200000Y-70760000D02*
X151750000Y-69310000D01*
X151750000Y-69310000D02*
X151750000Y-60705000D01*
%TO.N,Net-(J1-Pin_28)*%
X157300000Y-70760000D02*
X156240000Y-69700000D01*
X154935000Y-57840000D02*
X157300000Y-57840000D01*
X153200000Y-65240000D02*
X153200000Y-59575000D01*
X61550000Y-55840000D02*
X64950000Y-55840000D01*
X153200000Y-65240000D02*
X155180000Y-65240000D01*
X153200000Y-59575000D02*
X154935000Y-57840000D01*
X61550000Y-55840000D02*
X59950000Y-57440000D01*
X59950000Y-66505000D02*
X61225000Y-67780000D01*
X59950000Y-57440000D02*
X59950000Y-66505000D01*
X157300000Y-72640000D02*
X157300000Y-70760000D01*
X155180000Y-65240000D02*
X156240000Y-66300000D01*
%TO.N,Net-(J1-Pin_27)*%
X149800000Y-70760000D02*
X149800000Y-73180000D01*
X149800000Y-73180000D02*
X148182000Y-74798000D01*
%TO.N,Net-(J1-Pin_16)*%
X159410000Y-91840000D02*
X159370000Y-91800000D01*
X159425000Y-91840000D02*
X159410000Y-91840000D01*
%TO.N,Net-(J1-Pin_24)*%
X68301952Y-64711952D02*
X107056015Y-64711952D01*
X64950000Y-61360000D02*
X68301952Y-64711952D01*
%TO.N,Net-(J1-Pin_32)*%
X129285000Y-91298900D02*
X129285000Y-89400000D01*
%TO.N,Net-(J1-Pin_33)*%
X126745000Y-89400000D02*
X127846000Y-88299000D01*
X130286000Y-88299000D02*
X130336000Y-88349000D01*
X127846000Y-88299000D02*
X130286000Y-88299000D01*
X130336000Y-88349000D02*
X130336000Y-90815000D01*
%TO.N,Net-(J1-Pin_34)*%
X131825000Y-89925000D02*
X131825000Y-89400000D01*
D21*
%TO.N,Net-(J3-Pin_3)*%
X178700000Y-53610000D02*
X178700000Y-64600000D01*
X180070000Y-52240000D02*
X178700000Y-53610000D01*
X178700000Y-64600000D02*
X179180000Y-65080000D01*
X179180000Y-65080000D02*
X179180000Y-119408000D01*
X179180000Y-119408000D02*
X179182000Y-119410000D01*
%TO.N,Net-(J3-Pin_2)*%
X177290000Y-58470000D02*
X177290000Y-63660000D01*
X177290000Y-63660000D02*
X178794000Y-65164000D01*
X178794000Y-65164000D02*
X178794000Y-119410000D01*
%TO.N,Net-(J3-Pin_1)*%
X177280000Y-52240000D02*
X176180000Y-53340000D01*
X178410000Y-65240000D02*
X178410000Y-116916454D01*
X176180000Y-53340000D02*
X176180000Y-63010000D01*
X176180000Y-63010000D02*
X178410000Y-65240000D01*
X178410000Y-119405000D02*
X178405000Y-119410000D01*
X178410000Y-116602948D02*
X178410000Y-119405000D01*
D20*
%TO.N,Net-(J1-Pin_24)*%
X118193183Y-75840000D02*
X118193183Y-132152617D01*
X118193183Y-132152617D02*
X119483183Y-133442617D01*
X119483183Y-133442617D02*
X119483183Y-133796817D01*
%TD*%
%TA.AperFunction,Conductor*%
%TO.N,Net-(J1-Pin_17)*%
G36*
X117194344Y-78684116D02*
G01*
X117195193Y-78685626D01*
X117267080Y-78839293D01*
X117386791Y-79095193D01*
X117427422Y-79182046D01*
X117427823Y-79190992D01*
X117425097Y-79195277D01*
X117295277Y-79325097D01*
X117287004Y-79328524D01*
X117282047Y-79327422D01*
X117131428Y-79256961D01*
X116785626Y-79095193D01*
X116779585Y-79088583D01*
X116779986Y-79079637D01*
X116780835Y-79078127D01*
X116937985Y-78841263D01*
X116941263Y-78837985D01*
X117178127Y-78680834D01*
X117186915Y-78679116D01*
X117194344Y-78684116D01*
G37*
%TD.AperFunction*%
%TD*%
%TA.AperFunction,Conductor*%
%TO.N,Net-(J1-Pin_17)*%
G36*
X123260930Y-78955835D02*
G01*
X123268358Y-78960834D01*
X123270077Y-78969622D01*
X123269608Y-78971290D01*
X123082796Y-79486524D01*
X123076755Y-79493134D01*
X123071797Y-79494236D01*
X122888203Y-79494236D01*
X122879930Y-79490809D01*
X122877204Y-79486524D01*
X122829544Y-79355078D01*
X122690391Y-78971288D01*
X122690792Y-78962344D01*
X122697402Y-78956303D01*
X122699056Y-78955837D01*
X122977682Y-78899469D01*
X122982318Y-78899469D01*
X123260930Y-78955835D01*
G37*
%TD.AperFunction*%
%TD*%
%TA.AperFunction,Conductor*%
%TO.N,Net-(J1-Pin_16)*%
G36*
X115903941Y-78684383D02*
G01*
X115904955Y-78686262D01*
X116122797Y-79197205D01*
X116122889Y-79206160D01*
X116120307Y-79210067D01*
X115990498Y-79339876D01*
X115982225Y-79343303D01*
X115976895Y-79342018D01*
X115494990Y-79095408D01*
X115489186Y-79088589D01*
X115489905Y-79079663D01*
X115490571Y-79078525D01*
X115647985Y-78841263D01*
X115651263Y-78837985D01*
X115887725Y-78681101D01*
X115896512Y-78679383D01*
X115903941Y-78684383D01*
G37*
%TD.AperFunction*%
%TD*%
%TA.AperFunction,Conductor*%
%TO.N,Net-(J1-Pin_16)*%
G36*
X124610930Y-78935835D02*
G01*
X124618358Y-78940834D01*
X124620077Y-78949622D01*
X124619608Y-78951290D01*
X124432796Y-79466524D01*
X124426755Y-79473134D01*
X124421797Y-79474236D01*
X124238203Y-79474236D01*
X124229930Y-79470809D01*
X124227204Y-79466524D01*
X124179544Y-79335078D01*
X124040391Y-78951288D01*
X124040792Y-78942344D01*
X124047402Y-78936303D01*
X124049056Y-78935837D01*
X124327682Y-78879469D01*
X124332318Y-78879469D01*
X124610930Y-78935835D01*
G37*
%TD.AperFunction*%
%TD*%
%TA.AperFunction,Conductor*%
%TO.N,Net-(J1-Pin_30)*%
G36*
X122340362Y-83509986D02*
G01*
X122341872Y-83510835D01*
X122578734Y-83667984D01*
X122582015Y-83671265D01*
X122739164Y-83908127D01*
X122740883Y-83916915D01*
X122735883Y-83924344D01*
X122734373Y-83925193D01*
X122237953Y-84157422D01*
X122229007Y-84157823D01*
X122224722Y-84155097D01*
X122094902Y-84025277D01*
X122091475Y-84017004D01*
X122092575Y-84012051D01*
X122324806Y-83515625D01*
X122331416Y-83509585D01*
X122340362Y-83509986D01*
G37*
%TD.AperFunction*%
%TD*%
%TA.AperFunction,Conductor*%
%TO.N,Net-(J1-Pin_30)*%
G36*
X122651282Y-83380389D02*
G01*
X123166525Y-83567204D01*
X123173134Y-83573244D01*
X123174236Y-83578202D01*
X123174236Y-83761797D01*
X123170809Y-83770070D01*
X123166524Y-83772796D01*
X122651290Y-83959608D01*
X122642344Y-83959207D01*
X122636303Y-83952597D01*
X122635837Y-83950939D01*
X122579469Y-83672318D01*
X122579469Y-83667680D01*
X122635835Y-83389067D01*
X122640834Y-83381641D01*
X122649622Y-83379922D01*
X122651282Y-83380389D01*
G37*
%TD.AperFunction*%
%TD*%
%TA.AperFunction,Conductor*%
%TO.N,Net-(J1-Pin_30)*%
G36*
X114589924Y-78209191D02*
G01*
X114592715Y-78213659D01*
X114769893Y-78728847D01*
X114769343Y-78737785D01*
X114762634Y-78743716D01*
X114761149Y-78744120D01*
X114482320Y-78800530D01*
X114477680Y-78800530D01*
X114199293Y-78744210D01*
X114191864Y-78739210D01*
X114190145Y-78730422D01*
X114190678Y-78728581D01*
X114387128Y-78213295D01*
X114393277Y-78206786D01*
X114398060Y-78205764D01*
X114581651Y-78205764D01*
X114589924Y-78209191D01*
G37*
%TD.AperFunction*%
%TD*%
%TA.AperFunction,Conductor*%
%TO.N,Net-(J1-Pin_11)*%
G36*
X99100070Y-61409191D02*
G01*
X99102796Y-61413476D01*
X99289608Y-61928709D01*
X99289207Y-61937655D01*
X99282597Y-61943696D01*
X99280929Y-61944165D01*
X99002320Y-62000530D01*
X98997680Y-62000530D01*
X98719070Y-61944165D01*
X98711641Y-61939165D01*
X98709922Y-61930377D01*
X98710387Y-61928720D01*
X98897204Y-61413476D01*
X98903245Y-61406866D01*
X98908203Y-61405764D01*
X99091797Y-61405764D01*
X99100070Y-61409191D01*
G37*
%TD.AperFunction*%
%TD*%
%TA.AperFunction,Conductor*%
%TO.N,Net-(J1-Pin_11)*%
G36*
X99281149Y-73055879D02*
G01*
X99288578Y-73060879D01*
X99290297Y-73069667D01*
X99289893Y-73071152D01*
X99112715Y-73586341D01*
X99106784Y-73593050D01*
X99101651Y-73594236D01*
X98918060Y-73594236D01*
X98909787Y-73590809D01*
X98907128Y-73586704D01*
X98710681Y-73071425D01*
X98710935Y-73062474D01*
X98717445Y-73056325D01*
X98719282Y-73055792D01*
X98997682Y-72999469D01*
X99002318Y-72999469D01*
X99281149Y-73055879D01*
G37*
%TD.AperFunction*%
%TD*%
%TA.AperFunction,Conductor*%
%TO.N,Net-(J1-Pin_10)*%
G36*
X98100070Y-61409191D02*
G01*
X98102796Y-61413476D01*
X98289608Y-61928709D01*
X98289207Y-61937655D01*
X98282597Y-61943696D01*
X98280929Y-61944165D01*
X98002320Y-62000530D01*
X97997680Y-62000530D01*
X97719070Y-61944165D01*
X97711641Y-61939165D01*
X97709922Y-61930377D01*
X97710387Y-61928720D01*
X97897204Y-61413476D01*
X97903245Y-61406866D01*
X97908203Y-61405764D01*
X98091797Y-61405764D01*
X98100070Y-61409191D01*
G37*
%TD.AperFunction*%
%TD*%
%TA.AperFunction,Conductor*%
%TO.N,Net-(J1-Pin_10)*%
G36*
X98280930Y-73055835D02*
G01*
X98288358Y-73060834D01*
X98290077Y-73069622D01*
X98289608Y-73071290D01*
X98102796Y-73586524D01*
X98096755Y-73593134D01*
X98091797Y-73594236D01*
X97908203Y-73594236D01*
X97899930Y-73590809D01*
X97897204Y-73586524D01*
X97849544Y-73455078D01*
X97710391Y-73071288D01*
X97710792Y-73062344D01*
X97717402Y-73056303D01*
X97719056Y-73055837D01*
X97997682Y-72999469D01*
X98002318Y-72999469D01*
X98280930Y-73055835D01*
G37*
%TD.AperFunction*%
%TD*%
%TA.AperFunction,Conductor*%
%TO.N,Net-(J1-Pin_9)*%
G36*
X97100070Y-61409191D02*
G01*
X97102796Y-61413476D01*
X97289608Y-61928709D01*
X97289207Y-61937655D01*
X97282597Y-61943696D01*
X97280929Y-61944165D01*
X97002320Y-62000530D01*
X96997680Y-62000530D01*
X96719070Y-61944165D01*
X96711641Y-61939165D01*
X96709922Y-61930377D01*
X96710387Y-61928720D01*
X96897204Y-61413476D01*
X96903245Y-61406866D01*
X96908203Y-61405764D01*
X97091797Y-61405764D01*
X97100070Y-61409191D01*
G37*
%TD.AperFunction*%
%TD*%
%TA.AperFunction,Conductor*%
%TO.N,Net-(J1-Pin_9)*%
G36*
X97280930Y-73055835D02*
G01*
X97288358Y-73060834D01*
X97290077Y-73069622D01*
X97289608Y-73071290D01*
X97102796Y-73586524D01*
X97096755Y-73593134D01*
X97091797Y-73594236D01*
X96908203Y-73594236D01*
X96899930Y-73590809D01*
X96897204Y-73586524D01*
X96849544Y-73455078D01*
X96710391Y-73071288D01*
X96710792Y-73062344D01*
X96717402Y-73056303D01*
X96719056Y-73055837D01*
X96997682Y-72999469D01*
X97002318Y-72999469D01*
X97280930Y-73055835D01*
G37*
%TD.AperFunction*%
%TD*%
%TA.AperFunction,Conductor*%
%TO.N,Net-(J1-Pin_7)*%
G36*
X96109924Y-61409191D02*
G01*
X96112715Y-61413659D01*
X96289893Y-61928847D01*
X96289343Y-61937785D01*
X96282634Y-61943716D01*
X96281149Y-61944120D01*
X96002320Y-62000530D01*
X95997680Y-62000530D01*
X95719293Y-61944210D01*
X95711864Y-61939210D01*
X95710145Y-61930422D01*
X95710678Y-61928581D01*
X95907128Y-61413295D01*
X95913277Y-61406786D01*
X95918060Y-61405764D01*
X96101651Y-61405764D01*
X96109924Y-61409191D01*
G37*
%TD.AperFunction*%
%TD*%
%TA.AperFunction,Conductor*%
%TO.N,Net-(J1-Pin_7)*%
G36*
X96280930Y-73055835D02*
G01*
X96288358Y-73060834D01*
X96290077Y-73069622D01*
X96289608Y-73071290D01*
X96102796Y-73586524D01*
X96096755Y-73593134D01*
X96091797Y-73594236D01*
X95908203Y-73594236D01*
X95899930Y-73590809D01*
X95897204Y-73586524D01*
X95849544Y-73455078D01*
X95710391Y-73071288D01*
X95710792Y-73062344D01*
X95717402Y-73056303D01*
X95719056Y-73055837D01*
X95997682Y-72999469D01*
X96002318Y-72999469D01*
X96280930Y-73055835D01*
G37*
%TD.AperFunction*%
%TD*%
%TA.AperFunction,Conductor*%
%TO.N,Net-(J1-Pin_5)*%
G36*
X95100070Y-61409191D02*
G01*
X95102796Y-61413476D01*
X95289608Y-61928709D01*
X95289207Y-61937655D01*
X95282597Y-61943696D01*
X95280929Y-61944165D01*
X95002320Y-62000530D01*
X94997680Y-62000530D01*
X94719070Y-61944165D01*
X94711641Y-61939165D01*
X94709922Y-61930377D01*
X94710387Y-61928720D01*
X94897204Y-61413476D01*
X94903245Y-61406866D01*
X94908203Y-61405764D01*
X95091797Y-61405764D01*
X95100070Y-61409191D01*
G37*
%TD.AperFunction*%
%TD*%
%TA.AperFunction,Conductor*%
%TO.N,Net-(J1-Pin_5)*%
G36*
X95280930Y-73055835D02*
G01*
X95288358Y-73060834D01*
X95290077Y-73069622D01*
X95289608Y-73071290D01*
X95102796Y-73586524D01*
X95096755Y-73593134D01*
X95091797Y-73594236D01*
X94908203Y-73594236D01*
X94899930Y-73590809D01*
X94897204Y-73586524D01*
X94849544Y-73455078D01*
X94710391Y-73071288D01*
X94710792Y-73062344D01*
X94717402Y-73056303D01*
X94719056Y-73055837D01*
X94997682Y-72999469D01*
X95002318Y-72999469D01*
X95280930Y-73055835D01*
G37*
%TD.AperFunction*%
%TD*%
M02*
