%TF.GenerationSoftware,KiCad,Pcbnew,9.0.3*%
%TF.CreationDate,2025-08-12T14:53:10+03:00*%
%TF.ProjectId,Left,4c656674-2e6b-4696-9361-645f70636258,rev?*%
%TF.SameCoordinates,Original*%
%TF.FileFunction,Legend,Top*%
%TF.FilePolarity,Positive*%
%FSLAX46Y46*%
G04 Gerber Fmt 4.6, Leading zero omitted, Abs format (unit mm)*
G04 Created by KiCad (PCBNEW 9.0.3) date 2025-08-12 14:53:10*
%MOMM*%
%LPD*%
G01*
G04 APERTURE LIST*
G04 Aperture macros list*
%AMRoundRect*
0 Rectangle with rounded corners*
0 $1 Rounding radius*
0 $2 $3 $4 $5 $6 $7 $8 $9 X,Y pos of 4 corners*
0 Add a 4 corners polygon primitive as box body*
4,1,4,$2,$3,$4,$5,$6,$7,$8,$9,$2,$3,0*
0 Add four circle primitives for the rounded corners*
1,1,$1+$1,$2,$3*
1,1,$1+$1,$4,$5*
1,1,$1+$1,$6,$7*
1,1,$1+$1,$8,$9*
0 Add four rect primitives between the rounded corners*
20,1,$1+$1,$2,$3,$4,$5,0*
20,1,$1+$1,$4,$5,$6,$7,0*
20,1,$1+$1,$6,$7,$8,$9,0*
20,1,$1+$1,$8,$9,$2,$3,0*%
%AMFreePoly0*
4,1,7,0.150000,0.290000,0.150000,-0.330000,-0.150000,-0.330000,-0.150000,0.290000,-0.070000,0.330000,0.070000,0.330000,0.150000,0.290000,0.150000,0.290000,$1*%
%AMFreePoly1*
4,1,7,0.150000,-0.190000,0.070000,-0.230000,-0.070000,-0.230000,-0.150000,-0.190000,-0.150000,0.230000,0.150000,0.230000,0.150000,-0.190000,0.150000,-0.190000,$1*%
%AMFreePoly2*
4,1,24,1.023536,0.953536,1.025000,0.950000,1.024903,0.949019,0.934970,0.499355,0.905008,0.000000,0.934970,-0.499355,1.034903,-0.999019,1.034160,-1.002774,1.031539,-1.004757,-0.668461,-1.554757,-0.672276,-1.554452,-0.674757,-1.551539,-0.674881,-1.551085,-0.854881,-0.741085,-0.854989,-0.740337,-0.904989,-0.000337,-0.904986,0.000374,-0.844986,0.800374,-0.844956,0.800661,-0.824956,0.950661,
-0.823037,0.953972,-0.820000,0.955000,1.020000,0.955000,1.023536,0.953536,1.023536,0.953536,$1*%
%AMFreePoly3*
4,1,24,-0.668462,1.554757,1.031539,1.004757,1.034452,1.002276,1.034903,0.999019,0.934970,0.499355,0.905008,0.000000,0.934970,-0.499355,1.034903,-0.999019,1.034160,-1.002774,1.031539,-1.004757,-0.668461,-1.554757,-0.672276,-1.554452,-0.674757,-1.551539,-0.674881,-1.551085,-0.854881,-0.741085,-0.854989,-0.740337,-0.904989,-0.000337,-0.904986,0.000374,-0.844986,0.800374,-0.844876,0.801105,
-0.674876,1.551105,-0.672667,1.554230,-0.668896,1.554876,-0.668462,1.554757,-0.668462,1.554757,$1*%
%AMFreePoly4*
4,1,27,0.393786,1.673266,0.394059,1.672919,1.444059,0.212919,1.444935,0.209194,1.443334,0.206274,1.063594,-0.133492,0.734066,-0.522935,0.484435,-0.932330,0.274565,-1.402040,0.271786,-1.404670,0.268444,-1.404752,-1.441556,-0.844752,-1.444460,-0.842260,-1.444752,-0.838444,-1.444572,-0.837975,-1.134572,-0.137975,-1.134260,-0.137383,-0.802997,0.401880,-0.793729,0.424257,-0.738222,0.507327,
-0.704260,0.562617,-0.703780,0.563273,-0.123780,1.233273,-0.123266,1.233786,0.386734,1.673786,0.390367,1.674986,0.393786,1.673266,0.393786,1.673266,$1*%
%AMFreePoly5*
4,1,24,-0.668461,1.554757,1.031539,1.004757,1.034452,1.002276,1.034903,0.999019,0.934970,0.499355,0.905011,0.000035,0.934970,-0.409408,1.024932,-0.949178,1.024069,-0.952906,1.020822,-0.954932,1.020000,-0.955000,-0.820000,-0.955000,-0.823536,-0.953536,-0.824954,-0.950680,-0.894954,-0.440680,-0.894999,-0.440114,-0.904999,-0.000114,-0.904986,0.000374,-0.844986,0.800374,-0.844876,0.801105,
-0.674876,1.551105,-0.672667,1.554230,-0.668895,1.554876,-0.668461,1.554757,-0.668461,1.554757,$1*%
G04 Aperture macros list end*
%ADD10C,0.100000*%
%ADD11RoundRect,0.150000X-0.025594X0.290422X-0.268299X0.114086X0.025594X-0.290422X0.268299X-0.114086X0*%
%ADD12RoundRect,0.150000X0.268299X0.114086X0.025594X0.290422X-0.268299X-0.114086X-0.025594X-0.290422X0*%
%ADD13RoundRect,0.150000X0.150000X0.250000X-0.150000X0.250000X-0.150000X-0.250000X0.150000X-0.250000X0*%
%ADD14RoundRect,0.150000X-0.191412X0.219913X-0.284117X-0.065404X0.191412X-0.219913X0.284117X0.065404X0*%
%ADD15FreePoly0,90.000000*%
%ADD16FreePoly1,90.000000*%
%ADD17RoundRect,0.150000X0.284117X-0.065404X0.191412X0.219913X-0.284117X0.065404X-0.191412X-0.219913X0*%
%ADD18FreePoly2,180.000000*%
%ADD19FreePoly3,216.000000*%
%ADD20FreePoly3,252.000000*%
%ADD21FreePoly3,288.000000*%
%ADD22FreePoly4,0.000000*%
%ADD23FreePoly5,0.000000*%
%ADD24C,6.900000*%
%ADD25C,1.000000*%
G04 APERTURE END LIST*
D10*
X107176667Y-105029800D02*
X107319524Y-105077419D01*
X107319524Y-105077419D02*
X107557619Y-105077419D01*
X107557619Y-105077419D02*
X107652857Y-105029800D01*
X107652857Y-105029800D02*
X107700476Y-104982180D01*
X107700476Y-104982180D02*
X107748095Y-104886942D01*
X107748095Y-104886942D02*
X107748095Y-104791704D01*
X107748095Y-104791704D02*
X107700476Y-104696466D01*
X107700476Y-104696466D02*
X107652857Y-104648847D01*
X107652857Y-104648847D02*
X107557619Y-104601228D01*
X107557619Y-104601228D02*
X107367143Y-104553609D01*
X107367143Y-104553609D02*
X107271905Y-104505990D01*
X107271905Y-104505990D02*
X107224286Y-104458371D01*
X107224286Y-104458371D02*
X107176667Y-104363133D01*
X107176667Y-104363133D02*
X107176667Y-104267895D01*
X107176667Y-104267895D02*
X107224286Y-104172657D01*
X107224286Y-104172657D02*
X107271905Y-104125038D01*
X107271905Y-104125038D02*
X107367143Y-104077419D01*
X107367143Y-104077419D02*
X107605238Y-104077419D01*
X107605238Y-104077419D02*
X107748095Y-104125038D01*
X108081429Y-104077419D02*
X108319524Y-105077419D01*
X108319524Y-105077419D02*
X108510000Y-104363133D01*
X108510000Y-104363133D02*
X108700476Y-105077419D01*
X108700476Y-105077419D02*
X108938572Y-104077419D01*
X109843333Y-105077419D02*
X109271905Y-105077419D01*
X109557619Y-105077419D02*
X109557619Y-104077419D01*
X109557619Y-104077419D02*
X109462381Y-104220276D01*
X109462381Y-104220276D02*
X109367143Y-104315514D01*
X109367143Y-104315514D02*
X109271905Y-104363133D01*
%LPC*%
%TO.C,J1*%
X149180000Y-97570000D02*
X147340000Y-97570000D01*
X147340000Y-89630000D01*
X149180000Y-89630000D01*
X149180000Y-97570000D01*
G36*
X149180000Y-97570000D02*
G01*
X147340000Y-97570000D01*
X147340000Y-89630000D01*
X149180000Y-89630000D01*
X149180000Y-97570000D01*
G37*
%TD*%
D11*
%TO.C,R4*%
X105255410Y-94457329D03*
X104276500Y-95168549D03*
%TD*%
D12*
%TO.C,R2*%
X112725410Y-95182671D03*
X111746500Y-94471451D03*
%TD*%
D13*
%TO.C,R3*%
X109080000Y-93620000D03*
X107870000Y-93620000D03*
%TD*%
D14*
%TO.C,R5*%
X102675410Y-97349366D03*
X102301500Y-98500144D03*
%TD*%
D15*
%TO.C,J1*%
X148670000Y-96820000D03*
D16*
X148000000Y-96572000D03*
D15*
X148670000Y-96324615D03*
D16*
X148000000Y-96076667D03*
D15*
X148670000Y-95829231D03*
D16*
X148000000Y-95581333D03*
D15*
X148670000Y-95333846D03*
D16*
X148000000Y-95086000D03*
D15*
X148670000Y-94838462D03*
D16*
X148000000Y-94590667D03*
D15*
X148670000Y-94343077D03*
D16*
X148000000Y-94095333D03*
D15*
X148670000Y-93847692D03*
D16*
X148000000Y-93600000D03*
D15*
X148670000Y-93352308D03*
D16*
X148000000Y-93104667D03*
D15*
X148670000Y-92856923D03*
D16*
X148000000Y-92609333D03*
D15*
X148670000Y-92361538D03*
D16*
X148000000Y-92114000D03*
D15*
X148670000Y-91866154D03*
D16*
X148000000Y-91618667D03*
D15*
X148670000Y-91370769D03*
D16*
X148000000Y-91123333D03*
D15*
X148670000Y-90875385D03*
D16*
X148000000Y-90628000D03*
D15*
X148670000Y-90380000D03*
%TD*%
D17*
%TO.C,R1*%
X114725410Y-98590634D03*
X114351500Y-97439856D03*
%TD*%
D18*
%TO.C,SW1*%
X113120000Y-99950000D03*
D19*
X112260000Y-97260000D03*
D20*
X109970000Y-95580000D03*
D21*
X107070000Y-95580000D03*
D22*
X104780000Y-97260000D03*
D23*
X103920000Y-99950000D03*
D24*
X108520000Y-99950000D03*
D25*
X111290000Y-100980000D03*
%TD*%
%LPD*%
M02*
