%TF.GenerationSoftware,KiCad,Pcbnew,9.0.3*%
%TF.CreationDate,2025-08-12T10:36:28+03:00*%
%TF.ProjectId,Left,4c656674-2e6b-4696-9361-645f70636258,rev?*%
%TF.SameCoordinates,Original*%
%TF.FileFunction,Copper,L1,Top*%
%TF.FilePolarity,Positive*%
%FSLAX46Y46*%
G04 Gerber Fmt 4.6, Leading zero omitted, Abs format (unit mm)*
G04 Created by KiCad (PCBNEW 9.0.3) date 2025-08-12 10:36:28*
%MOMM*%
%LPD*%
G01*
G04 APERTURE LIST*
G04 Aperture macros list*
%AMRoundRect*
0 Rectangle with rounded corners*
0 $1 Rounding radius*
0 $2 $3 $4 $5 $6 $7 $8 $9 X,Y pos of 4 corners*
0 Add a 4 corners polygon primitive as box body*
4,1,4,$2,$3,$4,$5,$6,$7,$8,$9,$2,$3,0*
0 Add four circle primitives for the rounded corners*
1,1,$1+$1,$2,$3*
1,1,$1+$1,$4,$5*
1,1,$1+$1,$6,$7*
1,1,$1+$1,$8,$9*
0 Add four rect primitives between the rounded corners*
20,1,$1+$1,$2,$3,$4,$5,0*
20,1,$1+$1,$4,$5,$6,$7,0*
20,1,$1+$1,$6,$7,$8,$9,0*
20,1,$1+$1,$8,$9,$2,$3,0*%
%AMFreePoly0*
4,1,7,0.150000,0.290000,0.150000,-0.330000,-0.150000,-0.330000,-0.150000,0.290000,-0.070000,0.330000,0.070000,0.330000,0.150000,0.290000,0.150000,0.290000,$1*%
%AMFreePoly1*
4,1,7,0.150000,-0.190000,0.070000,-0.230000,-0.070000,-0.230000,-0.150000,-0.190000,-0.150000,0.230000,0.150000,0.230000,0.150000,-0.190000,0.150000,-0.190000,$1*%
%AMFreePoly2*
4,1,24,1.023536,0.953536,1.025000,0.950000,1.024903,0.949019,0.934970,0.499355,0.905008,0.000000,0.934970,-0.499355,1.034903,-0.999019,1.034160,-1.002774,1.031539,-1.004757,-0.668461,-1.554757,-0.672276,-1.554452,-0.674757,-1.551539,-0.674881,-1.551085,-0.854881,-0.741085,-0.854989,-0.740337,-0.904989,-0.000337,-0.904986,0.000374,-0.844986,0.800374,-0.844956,0.800661,-0.824956,0.950661,
-0.823037,0.953972,-0.820000,0.955000,1.020000,0.955000,1.023536,0.953536,1.023536,0.953536,$1*%
%AMFreePoly3*
4,1,24,-0.668462,1.554757,1.031539,1.004757,1.034452,1.002276,1.034903,0.999019,0.934970,0.499355,0.905008,0.000000,0.934970,-0.499355,1.034903,-0.999019,1.034160,-1.002774,1.031539,-1.004757,-0.668461,-1.554757,-0.672276,-1.554452,-0.674757,-1.551539,-0.674881,-1.551085,-0.854881,-0.741085,-0.854989,-0.740337,-0.904989,-0.000337,-0.904986,0.000374,-0.844986,0.800374,-0.844876,0.801105,
-0.674876,1.551105,-0.672667,1.554230,-0.668896,1.554876,-0.668462,1.554757,-0.668462,1.554757,$1*%
%AMFreePoly4*
4,1,27,0.393786,1.673266,0.394059,1.672919,1.444059,0.212919,1.444935,0.209194,1.443334,0.206274,1.063594,-0.133492,0.734066,-0.522935,0.484435,-0.932330,0.274565,-1.402040,0.271786,-1.404670,0.268444,-1.404752,-1.441556,-0.844752,-1.444460,-0.842260,-1.444752,-0.838444,-1.444572,-0.837975,-1.134572,-0.137975,-1.134260,-0.137383,-0.802997,0.401880,-0.793729,0.424257,-0.738222,0.507327,
-0.704260,0.562617,-0.703780,0.563273,-0.123780,1.233273,-0.123266,1.233786,0.386734,1.673786,0.390367,1.674986,0.393786,1.673266,0.393786,1.673266,$1*%
%AMFreePoly5*
4,1,24,-0.668461,1.554757,1.031539,1.004757,1.034452,1.002276,1.034903,0.999019,0.934970,0.499355,0.905011,0.000035,0.934970,-0.409408,1.024932,-0.949178,1.024069,-0.952906,1.020822,-0.954932,1.020000,-0.955000,-0.820000,-0.955000,-0.823536,-0.953536,-0.824954,-0.950680,-0.894954,-0.440680,-0.894999,-0.440114,-0.904999,-0.000114,-0.904986,0.000374,-0.844986,0.800374,-0.844876,0.801105,
-0.674876,1.551105,-0.672667,1.554230,-0.668895,1.554876,-0.668461,1.554757,-0.668461,1.554757,$1*%
G04 Aperture macros list end*
%TA.AperFunction,Conductor*%
%ADD10C,0.200000*%
%TD*%
%TA.AperFunction,SMDPad,CuDef*%
%ADD11RoundRect,0.200000X-0.014532X0.360262X-0.338139X0.125148X0.014532X-0.360262X0.338139X-0.125148X0*%
%TD*%
%TA.AperFunction,SMDPad,CuDef*%
%ADD12RoundRect,0.200000X0.338139X0.125148X0.014532X0.360262X-0.338139X-0.125148X-0.014532X-0.360262X0*%
%TD*%
%TA.AperFunction,SMDPad,CuDef*%
%ADD13RoundRect,0.200000X0.200000X0.300000X-0.200000X0.300000X-0.200000X-0.300000X0.200000X-0.300000X0*%
%TD*%
%TA.AperFunction,SMDPad,CuDef*%
%ADD14RoundRect,0.200000X-0.223514X0.282916X-0.347120X-0.097506X0.223514X-0.282916X0.347120X0.097506X0*%
%TD*%
%TA.AperFunction,SMDPad,CuDef*%
%ADD15FreePoly0,90.000000*%
%TD*%
%TA.AperFunction,SMDPad,CuDef*%
%ADD16FreePoly1,90.000000*%
%TD*%
%TA.AperFunction,SMDPad,CuDef*%
%ADD17RoundRect,0.200000X0.347120X-0.097506X0.223514X0.282916X-0.347120X0.097506X-0.223514X-0.282916X0*%
%TD*%
%TA.AperFunction,SMDPad,CuDef*%
%ADD18FreePoly2,180.000000*%
%TD*%
%TA.AperFunction,SMDPad,CuDef*%
%ADD19FreePoly3,216.000000*%
%TD*%
%TA.AperFunction,SMDPad,CuDef*%
%ADD20FreePoly3,252.000000*%
%TD*%
%TA.AperFunction,SMDPad,CuDef*%
%ADD21FreePoly3,288.000000*%
%TD*%
%TA.AperFunction,SMDPad,CuDef*%
%ADD22FreePoly4,0.000000*%
%TD*%
%TA.AperFunction,SMDPad,CuDef*%
%ADD23FreePoly5,0.000000*%
%TD*%
%TA.AperFunction,SMDPad,CuDef*%
%ADD24C,6.900000*%
%TD*%
%TA.AperFunction,SMDPad,CuDef*%
%ADD25C,1.000000*%
%TD*%
G04 APERTURE END LIST*
D10*
%TO.N,Net-(J1-Pin_2)*%
X101185621Y-99536369D02*
G75*
G02*
X115230000Y-96960000I7334379J-413631D01*
G01*
%TD*%
D11*
%TO.P,R4,1*%
%TO.N,Net-(R3-Pad2)*%
X105255410Y-94457329D03*
%TO.P,R4,2*%
%TO.N,Net-(R4-Pad2)*%
X104284590Y-95162671D03*
%TD*%
D12*
%TO.P,R2,1*%
%TO.N,Net-(R1-Pad2)*%
X112725410Y-95182671D03*
%TO.P,R2,2*%
%TO.N,Net-(R2-Pad2)*%
X111754590Y-94477329D03*
%TD*%
D13*
%TO.P,R3,1*%
%TO.N,Net-(R2-Pad2)*%
X109080000Y-93620000D03*
%TO.P,R3,2*%
%TO.N,Net-(R3-Pad2)*%
X107880000Y-93620000D03*
%TD*%
D14*
%TO.P,R5,1*%
%TO.N,Net-(R4-Pad2)*%
X102675410Y-97349366D03*
%TO.P,R5,2*%
%TO.N,Net-(R5-Pad2)*%
X102304590Y-98490634D03*
%TD*%
D15*
%TO.P,J1,1,Pin_1*%
%TO.N,Net-(J1-Pin_1)*%
X148670000Y-96820000D03*
D16*
%TO.P,J1,2,Pin_2*%
%TO.N,Net-(J1-Pin_2)*%
X148000000Y-96572000D03*
D15*
%TO.P,J1,3*%
%TO.N,N/C*%
X148670000Y-96324615D03*
D16*
%TO.P,J1,4*%
X148000000Y-96076667D03*
D15*
%TO.P,J1,5*%
X148670000Y-95829231D03*
D16*
%TO.P,J1,6*%
X148000000Y-95581333D03*
D15*
%TO.P,J1,7*%
X148670000Y-95333846D03*
D16*
%TO.P,J1,8*%
X148000000Y-95086000D03*
D15*
%TO.P,J1,9*%
X148670000Y-94838462D03*
D16*
%TO.P,J1,10*%
X148000000Y-94590667D03*
D15*
%TO.P,J1,11*%
X148670000Y-94343077D03*
D16*
%TO.P,J1,12*%
X148000000Y-94095333D03*
D15*
%TO.P,J1,13*%
X148670000Y-93847692D03*
D16*
%TO.P,J1,14*%
X148000000Y-93600000D03*
D15*
%TO.P,J1,15*%
X148670000Y-93352308D03*
D16*
%TO.P,J1,16*%
X148000000Y-93104667D03*
D15*
%TO.P,J1,17*%
X148670000Y-92856923D03*
D16*
%TO.P,J1,18*%
X148000000Y-92609333D03*
D15*
%TO.P,J1,19*%
X148670000Y-92361538D03*
D16*
%TO.P,J1,20*%
X148000000Y-92114000D03*
D15*
%TO.P,J1,21*%
X148670000Y-91866154D03*
D16*
%TO.P,J1,22*%
X148000000Y-91618667D03*
D15*
%TO.P,J1,23*%
X148670000Y-91370769D03*
D16*
%TO.P,J1,24*%
X148000000Y-91123333D03*
D15*
%TO.P,J1,25*%
X148670000Y-90875385D03*
D16*
%TO.P,J1,26*%
X148000000Y-90628000D03*
D15*
%TO.P,J1,27*%
X148670000Y-90380000D03*
%TD*%
D17*
%TO.P,R1,1*%
%TO.N,Net-(J1-Pin_1)*%
X114725410Y-98590634D03*
%TO.P,R1,2*%
%TO.N,Net-(R1-Pad2)*%
X114354590Y-97449366D03*
%TD*%
D18*
%TO.P,SW1,1*%
%TO.N,Net-(J1-Pin_1)*%
X113120000Y-99950000D03*
D19*
%TO.P,SW1,2*%
%TO.N,Net-(R1-Pad2)*%
X112260000Y-97260000D03*
D20*
%TO.P,SW1,3*%
%TO.N,Net-(R2-Pad2)*%
X109970000Y-95580000D03*
D21*
%TO.P,SW1,4*%
%TO.N,Net-(R3-Pad2)*%
X107070000Y-95580000D03*
D22*
%TO.P,SW1,5*%
%TO.N,Net-(R4-Pad2)*%
X104780000Y-97260000D03*
D23*
%TO.P,SW1,6*%
%TO.N,Net-(R5-Pad2)*%
X103920000Y-99950000D03*
D24*
%TO.P,SW1,7*%
%TO.N,Net-(J1-Pin_2)*%
X108520000Y-99950000D03*
D25*
X111290000Y-100980000D03*
%TD*%
D10*
%TO.N,Net-(R1-Pad2)*%
X112260000Y-95648081D02*
X112725410Y-95182671D01*
X112260000Y-97260000D02*
X112260000Y-95648081D01*
X112280000Y-97280000D02*
X114185224Y-97280000D01*
X112360000Y-97260000D02*
X112777547Y-97677547D01*
X112725410Y-95182671D02*
X112528465Y-95182671D01*
X112260000Y-97260000D02*
X112280000Y-97280000D01*
X112260000Y-97260000D02*
X112360000Y-97260000D01*
X114185224Y-97280000D02*
X114354590Y-97449366D01*
%TO.N,Net-(J1-Pin_1)*%
X148670000Y-96820000D02*
X148515000Y-96975000D01*
X113120000Y-99950000D02*
X114479366Y-98590634D01*
X114479366Y-98590634D02*
X114725410Y-98590634D01*
X146020000Y-97400000D02*
X116210000Y-97400000D01*
X116210000Y-97400000D02*
X115019366Y-98590634D01*
X148515000Y-96975000D02*
X146445000Y-96975000D01*
X114523886Y-98389110D02*
X114523886Y-98379338D01*
X115019366Y-98590634D02*
X114725410Y-98590634D01*
X146445000Y-96975000D02*
X146020000Y-97400000D01*
%TO.N,Net-(R2-Pad2)*%
X110651919Y-95580000D02*
X111754590Y-94477329D01*
X109090000Y-94700000D02*
X109090000Y-93630000D01*
X109970000Y-95580000D02*
X110651919Y-95580000D01*
X111754590Y-94482329D02*
X111689590Y-94547329D01*
X109970000Y-95580000D02*
X109090000Y-94700000D01*
X109090000Y-93630000D02*
X109080000Y-93620000D01*
X111754590Y-94477329D02*
X111754590Y-94482329D01*
X109970000Y-95580000D02*
X110010000Y-95580000D01*
%TO.N,Net-(R3-Pad2)*%
X105800000Y-95110000D02*
X106600000Y-95110000D01*
X107070000Y-95580000D02*
X107900000Y-94750000D01*
X107900000Y-94750000D02*
X107900000Y-93640000D01*
X105398081Y-94708081D02*
X105800000Y-95110000D01*
X107900000Y-93640000D02*
X107880000Y-93620000D01*
X106600000Y-95110000D02*
X106801299Y-95311299D01*
X105398081Y-94600000D02*
X105398081Y-94708081D01*
X105255410Y-94457329D02*
X105398081Y-94600000D01*
%TO.N,Net-(R4-Pad2)*%
X104540000Y-97500000D02*
X102848044Y-97500000D01*
X104270000Y-96750000D02*
X104270000Y-95177261D01*
X104398398Y-95265267D02*
X104562978Y-95100687D01*
X104284590Y-95162671D02*
X104387186Y-95265267D01*
X102848044Y-97500000D02*
X102680496Y-97667548D01*
X104387186Y-95265267D02*
X104398398Y-95265267D01*
X104780000Y-97260000D02*
X104270000Y-96750000D01*
X104270000Y-95177261D02*
X104284590Y-95162671D01*
X104780000Y-97260000D02*
X104540000Y-97500000D01*
%TO.N,Net-(R5-Pad2)*%
X103920000Y-99950000D02*
X103920000Y-99830000D01*
X102482726Y-98392726D02*
X102482726Y-98276224D01*
X103920000Y-99830000D02*
X102482726Y-98392726D01*
%TO.N,Net-(J1-Pin_2)*%
X147998000Y-96570000D02*
X146250000Y-96570000D01*
X105886028Y-98913057D02*
X105886028Y-100388972D01*
X105780000Y-101000000D02*
X105625000Y-101155000D01*
X105886028Y-100388972D02*
X105100000Y-101175000D01*
X107413208Y-97385877D02*
X105886028Y-98913057D01*
X101375000Y-99750000D02*
X101375000Y-99725748D01*
X148000000Y-96572000D02*
X147998000Y-96570000D01*
X108510000Y-99970000D02*
X108500000Y-99970000D01*
X145845000Y-96975000D02*
X146250000Y-96570000D01*
X111290000Y-100980000D02*
X111290000Y-99089085D01*
X105100000Y-101175000D02*
X102800000Y-101175000D01*
X115230000Y-96960000D02*
X115610000Y-96960000D01*
X111290000Y-99089085D02*
X109586792Y-97385877D01*
X115610000Y-96960000D02*
X115625000Y-96975000D01*
X101375000Y-99725748D02*
X101185621Y-99536369D01*
X115625000Y-96975000D02*
X145845000Y-96975000D01*
X102800000Y-101175000D02*
X101375000Y-99750000D01*
X109586792Y-97385877D02*
X107413208Y-97385877D01*
%TD*%
M02*
