%TF.GenerationSoftware,KiCad,Pcbnew,9.0.3*%
%TF.CreationDate,2025-08-12T19:27:14+03:00*%
%TF.ProjectId,Left,4c656674-2e6b-4696-9361-645f70636258,rev?*%
%TF.SameCoordinates,Original*%
%TF.FileFunction,Drillmap*%
%TF.FilePolarity,Positive*%
%FSLAX45Y45*%
G04 Gerber Fmt 4.5, Leading zero omitted, Abs format (unit mm)*
G04 Created by KiCad (PCBNEW 9.0.3) date 2025-08-12 19:27:14*
%MOMM*%
%LPD*%
G01*
G04 APERTURE LIST*
%ADD10C,0.050000*%
%ADD11C,0.100000*%
%ADD12C,0.200000*%
G04 APERTURE END LIST*
D10*
X10649000Y-10150000D02*
G75*
G02*
X11064383Y-10130234I201000J150500D01*
G01*
X11064000Y-10130000D02*
X11384770Y-10130000D01*
X10315000Y-10250000D02*
X9840000Y-10250000D01*
X11889796Y-10015000D02*
G75*
G02*
X11859097Y-10250775I-1039796J15500D01*
G01*
X10315000Y-10150000D02*
X10315000Y-10250000D01*
D11*
X11780000Y-10021300D02*
G75*
G02*
X11620000Y-10021300I-80000J0D01*
G01*
X11620000Y-10021300D02*
G75*
G02*
X11780000Y-10021300I80000J0D01*
G01*
X10080000Y-10021300D02*
G75*
G02*
X9920000Y-10021300I-80000J0D01*
G01*
X9920000Y-10021300D02*
G75*
G02*
X10080000Y-10021300I80000J0D01*
G01*
D10*
X14379140Y-9010140D02*
G75*
G02*
X14479140Y-8910000I100000J140D01*
G01*
X11889000Y-10015000D02*
G75*
G02*
X12135122Y-9809802I233520J-29890D01*
G01*
X10649000Y-10150000D02*
X10315000Y-10150000D01*
X11385000Y-10251000D02*
X11860000Y-10251000D01*
X12135030Y-9810000D02*
X14500000Y-9810000D01*
X14379140Y-9010140D02*
X14379859Y-9522360D01*
X14379859Y-9522360D02*
G75*
G02*
X14279859Y-9622500I-99999J-140D01*
G01*
D11*
X10930000Y-9150000D02*
G75*
G02*
X10770000Y-9150000I-80000J0D01*
G01*
X10770000Y-9150000D02*
G75*
G02*
X10930000Y-9150000I80000J0D01*
G01*
D10*
X11992055Y-9622321D02*
G75*
G02*
X11753550Y-9483206I-5J274001D01*
G01*
X11992055Y-9622500D02*
X14279859Y-9622500D01*
X9839624Y-10250093D02*
G75*
G02*
X11753554Y-9483283I1010376J250093D01*
G01*
X14500000Y-8910000D02*
X14479140Y-8910000D01*
X11384770Y-10130000D02*
X11385000Y-10251000D01*
X14700000Y-8910000D02*
X14500000Y-8910000D01*
X14700000Y-9005000D02*
X14700000Y-8910000D01*
X14700000Y-9810000D02*
X14500000Y-9810000D01*
X14700000Y-9810000D02*
X14700000Y-9715000D01*
X14800000Y-9005000D02*
X14700000Y-9005000D01*
X14800000Y-9005000D02*
X14800000Y-8963000D01*
X14800000Y-9715000D02*
X14700000Y-9715000D01*
X14800000Y-9757000D02*
X14800000Y-9715000D01*
X14860000Y-8963000D02*
X14800000Y-8963000D01*
X14860000Y-8963000D02*
X14860000Y-9005000D01*
X14860000Y-9757000D02*
X14800000Y-9757000D01*
X14860000Y-9757000D02*
X14860000Y-9715000D01*
X14920000Y-9005000D02*
X14860000Y-9005000D01*
X14920000Y-9715000D02*
X14860000Y-9715000D01*
X14920000Y-9715000D02*
X14920000Y-9005000D01*
D12*
X10067409Y-10564984D02*
X10067409Y-10364984D01*
X10067409Y-10364984D02*
X10115028Y-10364984D01*
X10115028Y-10364984D02*
X10143599Y-10374508D01*
X10143599Y-10374508D02*
X10162647Y-10393555D01*
X10162647Y-10393555D02*
X10172171Y-10412603D01*
X10172171Y-10412603D02*
X10181695Y-10450698D01*
X10181695Y-10450698D02*
X10181695Y-10479270D01*
X10181695Y-10479270D02*
X10172171Y-10517365D01*
X10172171Y-10517365D02*
X10162647Y-10536412D01*
X10162647Y-10536412D02*
X10143599Y-10555460D01*
X10143599Y-10555460D02*
X10115028Y-10564984D01*
X10115028Y-10564984D02*
X10067409Y-10564984D01*
X10267409Y-10564984D02*
X10267409Y-10431650D01*
X10267409Y-10469746D02*
X10276933Y-10450698D01*
X10276933Y-10450698D02*
X10286456Y-10441174D01*
X10286456Y-10441174D02*
X10305504Y-10431650D01*
X10305504Y-10431650D02*
X10324552Y-10431650D01*
X10391218Y-10564984D02*
X10391218Y-10431650D01*
X10391218Y-10364984D02*
X10381695Y-10374508D01*
X10381695Y-10374508D02*
X10391218Y-10384031D01*
X10391218Y-10384031D02*
X10400742Y-10374508D01*
X10400742Y-10374508D02*
X10391218Y-10364984D01*
X10391218Y-10364984D02*
X10391218Y-10384031D01*
X10515028Y-10564984D02*
X10495980Y-10555460D01*
X10495980Y-10555460D02*
X10486456Y-10536412D01*
X10486456Y-10536412D02*
X10486456Y-10364984D01*
X10619790Y-10564984D02*
X10600742Y-10555460D01*
X10600742Y-10555460D02*
X10591218Y-10536412D01*
X10591218Y-10536412D02*
X10591218Y-10364984D01*
X10848361Y-10564984D02*
X10848361Y-10364984D01*
X10848361Y-10364984D02*
X10915028Y-10507841D01*
X10915028Y-10507841D02*
X10981695Y-10364984D01*
X10981695Y-10364984D02*
X10981695Y-10564984D01*
X11162647Y-10564984D02*
X11162647Y-10460222D01*
X11162647Y-10460222D02*
X11153123Y-10441174D01*
X11153123Y-10441174D02*
X11134076Y-10431650D01*
X11134076Y-10431650D02*
X11095980Y-10431650D01*
X11095980Y-10431650D02*
X11076933Y-10441174D01*
X11162647Y-10555460D02*
X11143599Y-10564984D01*
X11143599Y-10564984D02*
X11095980Y-10564984D01*
X11095980Y-10564984D02*
X11076933Y-10555460D01*
X11076933Y-10555460D02*
X11067409Y-10536412D01*
X11067409Y-10536412D02*
X11067409Y-10517365D01*
X11067409Y-10517365D02*
X11076933Y-10498317D01*
X11076933Y-10498317D02*
X11095980Y-10488793D01*
X11095980Y-10488793D02*
X11143599Y-10488793D01*
X11143599Y-10488793D02*
X11162647Y-10479270D01*
X11257885Y-10431650D02*
X11257885Y-10631650D01*
X11257885Y-10441174D02*
X11276933Y-10431650D01*
X11276933Y-10431650D02*
X11315028Y-10431650D01*
X11315028Y-10431650D02*
X11334075Y-10441174D01*
X11334075Y-10441174D02*
X11343599Y-10450698D01*
X11343599Y-10450698D02*
X11353123Y-10469746D01*
X11353123Y-10469746D02*
X11353123Y-10526889D01*
X11353123Y-10526889D02*
X11343599Y-10545936D01*
X11343599Y-10545936D02*
X11334075Y-10555460D01*
X11334075Y-10555460D02*
X11315028Y-10564984D01*
X11315028Y-10564984D02*
X11276933Y-10564984D01*
X11276933Y-10564984D02*
X11257885Y-10555460D01*
X11438837Y-10545936D02*
X11448361Y-10555460D01*
X11448361Y-10555460D02*
X11438837Y-10564984D01*
X11438837Y-10564984D02*
X11429314Y-10555460D01*
X11429314Y-10555460D02*
X11438837Y-10545936D01*
X11438837Y-10545936D02*
X11438837Y-10564984D01*
X11438837Y-10441174D02*
X11448361Y-10450698D01*
X11448361Y-10450698D02*
X11438837Y-10460222D01*
X11438837Y-10460222D02*
X11429314Y-10450698D01*
X11429314Y-10450698D02*
X11438837Y-10441174D01*
X11438837Y-10441174D02*
X11438837Y-10460222D01*
M02*
