%TF.GenerationSoftware,KiCad,Pcbnew,9.0.3*%
%TF.CreationDate,2025-08-12T19:27:09+03:00*%
%TF.ProjectId,Left,4c656674-2e6b-4696-9361-645f70636258,rev?*%
%TF.SameCoordinates,Original*%
%TF.FileFunction,Copper,L2,Bot*%
%TF.FilePolarity,Positive*%
%FSLAX46Y46*%
G04 Gerber Fmt 4.6, Leading zero omitted, Abs format (unit mm)*
G04 Created by KiCad (PCBNEW 9.0.3) date 2025-08-12 19:27:09*
%MOMM*%
%LPD*%
G01*
G04 APERTURE LIST*
G04 APERTURE END LIST*
%TA.AperFunction,NonConductor*%
G36*
X146733039Y-89319685D02*
G01*
X146778794Y-89372489D01*
X146790000Y-89424000D01*
X146790000Y-90230000D01*
X148876000Y-90230000D01*
X148943039Y-90249685D01*
X148988794Y-90302489D01*
X149000000Y-90354000D01*
X149000000Y-96846000D01*
X148980315Y-96913039D01*
X148927511Y-96958794D01*
X148876000Y-96970000D01*
X146790000Y-96970000D01*
X146798652Y-97774667D01*
X146779689Y-97841914D01*
X146727380Y-97888234D01*
X146674659Y-97900000D01*
X142324000Y-97900000D01*
X142256961Y-97880315D01*
X142211206Y-97827511D01*
X142200000Y-97776000D01*
X142200000Y-96524000D01*
X142219685Y-96456961D01*
X142272489Y-96411206D01*
X142324000Y-96400000D01*
X144499999Y-96400000D01*
X144500000Y-96400000D01*
X144490175Y-89424175D01*
X144509765Y-89357108D01*
X144562505Y-89311278D01*
X144614175Y-89300000D01*
X146666000Y-89300000D01*
X146733039Y-89319685D01*
G37*
%TD.AperFunction*%
%TA.AperFunction,NonConductor*%
G36*
X110196276Y-90399541D02*
G01*
X110216544Y-90415483D01*
X112154818Y-92297485D01*
X116342380Y-96363472D01*
X116376765Y-96424295D01*
X116380000Y-96452435D01*
X116380000Y-98620000D01*
X116490000Y-98730000D01*
X118366000Y-98730000D01*
X118433039Y-98749685D01*
X118478794Y-98802489D01*
X118490000Y-98854000D01*
X118490000Y-101116310D01*
X118470315Y-101183349D01*
X118417511Y-101229104D01*
X118366311Y-101240310D01*
X117182970Y-101243278D01*
X117163470Y-101237605D01*
X117143178Y-101236825D01*
X117130605Y-101228044D01*
X117115881Y-101223761D01*
X117102544Y-101208447D01*
X117085895Y-101196820D01*
X117080065Y-101182636D01*
X117069994Y-101171072D01*
X117067053Y-101150976D01*
X117059334Y-101132195D01*
X117062097Y-101117113D01*
X117059877Y-101101939D01*
X117068266Y-101083446D01*
X117071927Y-101063470D01*
X117082408Y-101052273D01*
X117088743Y-101038311D01*
X117105797Y-101027290D01*
X117119678Y-101012463D01*
X117141813Y-101004015D01*
X117147426Y-101000389D01*
X117152322Y-100999046D01*
X117155358Y-100998279D01*
X117233497Y-100982737D01*
X117259281Y-100972056D01*
X117263989Y-100970869D01*
X117265049Y-100970498D01*
X117265059Y-100970496D01*
X117274326Y-100966032D01*
X117280576Y-100963236D01*
X117379179Y-100922394D01*
X117415921Y-100897843D01*
X117426972Y-100892522D01*
X117442913Y-100879807D01*
X117510289Y-100834789D01*
X117553298Y-100791779D01*
X117567475Y-100780475D01*
X117578779Y-100766298D01*
X117621789Y-100723289D01*
X117666807Y-100655913D01*
X117679522Y-100639972D01*
X117684843Y-100628921D01*
X117709394Y-100592179D01*
X117751552Y-100490397D01*
X117757496Y-100478059D01*
X117758516Y-100473586D01*
X117769737Y-100446497D01*
X117800500Y-100291842D01*
X117800500Y-100134158D01*
X117800500Y-100134155D01*
X117800499Y-100134153D01*
X117769738Y-99979510D01*
X117769737Y-99979505D01*
X117769737Y-99979503D01*
X117758516Y-99952414D01*
X117757496Y-99947941D01*
X117751544Y-99935582D01*
X117750217Y-99932379D01*
X117721016Y-99861878D01*
X117709397Y-99833827D01*
X117709395Y-99833824D01*
X117709394Y-99833821D01*
X117684844Y-99797080D01*
X117679522Y-99786028D01*
X117666799Y-99770073D01*
X117621789Y-99702711D01*
X117621787Y-99702709D01*
X117621785Y-99702706D01*
X117583711Y-99664633D01*
X117578783Y-99659705D01*
X117567475Y-99645525D01*
X117553294Y-99634216D01*
X117548367Y-99629289D01*
X117510292Y-99591213D01*
X117510284Y-99591207D01*
X117447262Y-99549097D01*
X117447260Y-99549096D01*
X117442924Y-99546199D01*
X117426972Y-99533478D01*
X117415922Y-99528156D01*
X117408678Y-99523316D01*
X117379176Y-99503604D01*
X117280619Y-99462781D01*
X117277406Y-99461450D01*
X117265059Y-99455504D01*
X117260586Y-99454483D01*
X117250927Y-99450482D01*
X117233497Y-99443263D01*
X117233494Y-99443261D01*
X117078845Y-99412500D01*
X117078842Y-99412500D01*
X116921158Y-99412500D01*
X116921156Y-99412500D01*
X116766505Y-99443262D01*
X116766499Y-99443264D01*
X116749067Y-99450484D01*
X116749066Y-99450483D01*
X116739403Y-99454485D01*
X116734941Y-99455504D01*
X116722620Y-99461437D01*
X116719391Y-99462775D01*
X116719379Y-99462781D01*
X116620819Y-99503606D01*
X116591318Y-99523316D01*
X116591319Y-99523317D01*
X116584071Y-99528159D01*
X116573028Y-99533478D01*
X116557090Y-99546188D01*
X116552735Y-99549098D01*
X116489717Y-99591206D01*
X116489709Y-99591212D01*
X116446700Y-99634220D01*
X116432525Y-99645525D01*
X116421220Y-99659700D01*
X116378212Y-99702709D01*
X116378206Y-99702717D01*
X116336098Y-99765733D01*
X116336099Y-99765734D01*
X116333189Y-99770088D01*
X116320478Y-99786028D01*
X116315161Y-99797067D01*
X116310318Y-99804316D01*
X116310319Y-99804316D01*
X116290606Y-99833819D01*
X116249781Y-99932379D01*
X116248444Y-99935606D01*
X116242504Y-99947941D01*
X116241484Y-99952407D01*
X116237485Y-99962063D01*
X116237484Y-99962067D01*
X116230264Y-99979499D01*
X116230262Y-99979505D01*
X116199500Y-100134155D01*
X116199500Y-100291846D01*
X116230261Y-100446494D01*
X116230263Y-100446497D01*
X116237482Y-100463927D01*
X116241483Y-100473586D01*
X116242504Y-100478059D01*
X116248450Y-100490406D01*
X116249781Y-100493619D01*
X116290604Y-100592176D01*
X116310316Y-100621678D01*
X116315156Y-100628922D01*
X116320478Y-100639972D01*
X116333199Y-100655924D01*
X116336096Y-100660259D01*
X116336096Y-100660261D01*
X116336097Y-100660262D01*
X116378207Y-100723284D01*
X116378213Y-100723292D01*
X116416289Y-100761367D01*
X116421216Y-100766294D01*
X116432525Y-100780475D01*
X116446705Y-100791783D01*
X116489706Y-100834784D01*
X116489706Y-100834785D01*
X116489709Y-100834787D01*
X116489711Y-100834789D01*
X116557073Y-100879799D01*
X116573028Y-100892522D01*
X116584080Y-100897844D01*
X116620821Y-100922394D01*
X116620824Y-100922395D01*
X116620827Y-100922397D01*
X116672607Y-100943844D01*
X116722596Y-100964550D01*
X116734941Y-100970496D01*
X116739414Y-100971517D01*
X116749078Y-100975520D01*
X116749082Y-100975521D01*
X116766503Y-100982737D01*
X116766507Y-100982737D01*
X116766508Y-100982738D01*
X116846083Y-100998567D01*
X116907994Y-101030952D01*
X116942568Y-101091668D01*
X116938828Y-101161437D01*
X116897961Y-101218109D01*
X116832943Y-101243690D01*
X116822202Y-101244184D01*
X110877202Y-101259098D01*
X110810113Y-101239581D01*
X110764226Y-101186892D01*
X110754109Y-101117759D01*
X110763861Y-101084105D01*
X110853238Y-100886011D01*
X110945235Y-100588681D01*
X110999821Y-100282268D01*
X111016163Y-99971461D01*
X111015492Y-99962063D01*
X110994010Y-99661028D01*
X110994009Y-99661013D01*
X110933700Y-99355676D01*
X110915928Y-99301827D01*
X110915310Y-99299019D01*
X110911433Y-99288209D01*
X110836157Y-99060119D01*
X110809451Y-99003765D01*
X110807298Y-98997760D01*
X110797537Y-98978624D01*
X110702872Y-98778865D01*
X110666336Y-98721399D01*
X110661883Y-98712668D01*
X110645943Y-98689322D01*
X110644871Y-98687636D01*
X110644846Y-98687598D01*
X110633457Y-98669685D01*
X110535886Y-98516217D01*
X110488820Y-98459200D01*
X110481421Y-98448363D01*
X110459648Y-98423860D01*
X110458217Y-98422127D01*
X110458215Y-98422124D01*
X110337759Y-98276200D01*
X110321152Y-98260512D01*
X110279696Y-98221350D01*
X110268838Y-98209131D01*
X110241979Y-98185721D01*
X110111503Y-98062466D01*
X110042237Y-98011625D01*
X110027580Y-97998850D01*
X109996645Y-97978160D01*
X109994449Y-97976548D01*
X109860599Y-97878304D01*
X109860594Y-97878301D01*
X109838465Y-97865940D01*
X109784012Y-97835524D01*
X109780182Y-97833384D01*
X109761559Y-97820929D01*
X109727645Y-97804038D01*
X109725081Y-97802606D01*
X109588873Y-97726522D01*
X109502043Y-97691273D01*
X109497646Y-97689488D01*
X109475086Y-97678252D01*
X109439389Y-97665838D01*
X109436455Y-97664647D01*
X109436442Y-97664642D01*
X109423899Y-97659550D01*
X109395358Y-97647963D01*
X109300504Y-97609455D01*
X109300486Y-97609449D01*
X109203458Y-97583443D01*
X109199086Y-97582271D01*
X109172806Y-97573132D01*
X109136535Y-97565504D01*
X109133242Y-97564622D01*
X109133227Y-97564619D01*
X109028294Y-97536495D01*
X108999874Y-97528878D01*
X108999871Y-97528877D01*
X108999869Y-97528877D01*
X108893482Y-97514090D01*
X108893482Y-97514089D01*
X108889206Y-97513494D01*
X108859619Y-97507273D01*
X108823819Y-97504407D01*
X108820215Y-97503907D01*
X108691617Y-97486033D01*
X108691591Y-97486031D01*
X108577024Y-97484389D01*
X108577023Y-97484389D01*
X108572947Y-97484330D01*
X108540603Y-97481742D01*
X108506297Y-97483374D01*
X108502431Y-97483319D01*
X108502430Y-97483318D01*
X108380406Y-97481571D01*
X108380403Y-97481571D01*
X108380395Y-97481571D01*
X108380386Y-97481572D01*
X108259077Y-97494899D01*
X108259078Y-97494900D01*
X108255247Y-97495320D01*
X108220928Y-97496954D01*
X108188969Y-97502603D01*
X108184921Y-97503048D01*
X108071028Y-97515561D01*
X108071024Y-97515562D01*
X107944696Y-97545568D01*
X107944695Y-97545567D01*
X107941146Y-97546409D01*
X107905777Y-97552662D01*
X107876894Y-97561671D01*
X107872703Y-97562667D01*
X107872697Y-97562669D01*
X107768215Y-97587487D01*
X107768192Y-97587494D01*
X107638881Y-97635720D01*
X107635674Y-97636915D01*
X107600259Y-97647963D01*
X107574977Y-97659550D01*
X107570716Y-97661140D01*
X107570714Y-97661142D01*
X107476593Y-97696245D01*
X107476591Y-97696246D01*
X107346488Y-97764100D01*
X107346489Y-97764101D01*
X107343669Y-97765571D01*
X107309328Y-97781312D01*
X107287951Y-97794630D01*
X107283730Y-97796832D01*
X107283730Y-97796833D01*
X107200635Y-97840172D01*
X107200634Y-97840173D01*
X107072269Y-97928844D01*
X107072268Y-97928845D01*
X107069837Y-97930523D01*
X107037698Y-97950548D01*
X107020363Y-97964697D01*
X107016262Y-97967531D01*
X107016261Y-97967532D01*
X106944558Y-98017064D01*
X106944548Y-98017072D01*
X106820641Y-98127574D01*
X106820640Y-98127575D01*
X106818591Y-98129402D01*
X106789773Y-98152926D01*
X106776417Y-98167011D01*
X106772525Y-98170483D01*
X106712272Y-98224219D01*
X106595714Y-98357450D01*
X106595712Y-98357452D01*
X106594060Y-98359339D01*
X106569573Y-98385166D01*
X106559947Y-98398329D01*
X106556372Y-98402416D01*
X106556366Y-98402425D01*
X106507339Y-98458467D01*
X106507333Y-98458476D01*
X106401273Y-98615183D01*
X106399984Y-98617086D01*
X106380668Y-98643503D01*
X106374346Y-98654965D01*
X106371172Y-98659656D01*
X106371170Y-98659661D01*
X106332894Y-98716218D01*
X106332884Y-98716235D01*
X106240705Y-98897158D01*
X106240705Y-98897159D01*
X106239761Y-98899011D01*
X106226119Y-98923749D01*
X106222519Y-98932851D01*
X106219850Y-98938091D01*
X106219848Y-98938092D01*
X106191601Y-98993538D01*
X106191597Y-98993546D01*
X106116965Y-99199634D01*
X106116966Y-99199635D01*
X106116339Y-99201365D01*
X106108432Y-99221362D01*
X106106858Y-99227545D01*
X106104782Y-99233280D01*
X106104780Y-99233281D01*
X106085625Y-99286179D01*
X106032705Y-99518811D01*
X106032345Y-99520391D01*
X106029515Y-99531516D01*
X106029164Y-99534378D01*
X106027764Y-99540538D01*
X106027762Y-99540540D01*
X106027762Y-99540545D01*
X106018146Y-99582817D01*
X106016589Y-99589663D01*
X105992115Y-99833821D01*
X105985546Y-99899349D01*
X105992972Y-100210502D01*
X106038750Y-100518335D01*
X106038753Y-100518349D01*
X106122188Y-100818190D01*
X106239435Y-101099284D01*
X106247075Y-101168734D01*
X106215954Y-101231291D01*
X106155953Y-101267091D01*
X106125302Y-101271019D01*
X98684311Y-101289688D01*
X98617222Y-101270171D01*
X98571335Y-101217482D01*
X98560000Y-101165688D01*
X98560000Y-100134158D01*
X99199500Y-100134158D01*
X99199500Y-100134635D01*
X99199500Y-100141676D01*
X99199500Y-100291846D01*
X99230261Y-100446494D01*
X99230263Y-100446497D01*
X99237482Y-100463927D01*
X99241483Y-100473586D01*
X99242504Y-100478059D01*
X99248450Y-100490406D01*
X99249781Y-100493619D01*
X99290604Y-100592176D01*
X99310316Y-100621678D01*
X99315156Y-100628922D01*
X99320478Y-100639972D01*
X99333199Y-100655924D01*
X99336096Y-100660259D01*
X99336096Y-100660261D01*
X99336097Y-100660262D01*
X99378207Y-100723284D01*
X99378213Y-100723292D01*
X99416289Y-100761367D01*
X99421216Y-100766294D01*
X99432525Y-100780475D01*
X99446705Y-100791783D01*
X99489706Y-100834784D01*
X99489706Y-100834785D01*
X99489709Y-100834787D01*
X99489711Y-100834789D01*
X99557073Y-100879799D01*
X99573028Y-100892522D01*
X99584080Y-100897844D01*
X99620821Y-100922394D01*
X99620824Y-100922395D01*
X99620827Y-100922397D01*
X99672607Y-100943844D01*
X99722596Y-100964550D01*
X99734941Y-100970496D01*
X99739414Y-100971517D01*
X99749078Y-100975520D01*
X99749082Y-100975521D01*
X99766503Y-100982737D01*
X99896776Y-101008650D01*
X99921153Y-101013499D01*
X99921156Y-101013500D01*
X99921158Y-101013500D01*
X100078844Y-101013500D01*
X100078845Y-101013499D01*
X100233497Y-100982737D01*
X100260587Y-100971516D01*
X100265059Y-100970496D01*
X100277397Y-100964552D01*
X100379179Y-100922394D01*
X100415921Y-100897843D01*
X100426972Y-100892522D01*
X100442913Y-100879807D01*
X100510289Y-100834789D01*
X100553298Y-100791779D01*
X100567475Y-100780475D01*
X100578779Y-100766298D01*
X100621789Y-100723289D01*
X100666807Y-100655913D01*
X100679522Y-100639972D01*
X100684843Y-100628921D01*
X100709394Y-100592179D01*
X100751552Y-100490397D01*
X100757496Y-100478059D01*
X100758516Y-100473586D01*
X100769737Y-100446497D01*
X100800500Y-100291842D01*
X100800500Y-100134158D01*
X100800500Y-100134155D01*
X100800499Y-100134153D01*
X100769738Y-99979510D01*
X100769737Y-99979505D01*
X100769737Y-99979503D01*
X100758516Y-99952414D01*
X100757496Y-99947941D01*
X100751544Y-99935582D01*
X100750217Y-99932379D01*
X100721016Y-99861878D01*
X100709397Y-99833827D01*
X100709395Y-99833824D01*
X100709394Y-99833821D01*
X100684844Y-99797080D01*
X100679522Y-99786028D01*
X100666799Y-99770073D01*
X100621789Y-99702711D01*
X100621787Y-99702709D01*
X100621785Y-99702706D01*
X100583711Y-99664633D01*
X100578783Y-99659705D01*
X100567475Y-99645525D01*
X100553294Y-99634216D01*
X100548367Y-99629289D01*
X100510292Y-99591213D01*
X100510284Y-99591207D01*
X100447262Y-99549097D01*
X100447260Y-99549096D01*
X100442924Y-99546199D01*
X100426972Y-99533478D01*
X100415922Y-99528156D01*
X100408678Y-99523316D01*
X100379176Y-99503604D01*
X100280619Y-99462781D01*
X100277406Y-99461450D01*
X100265059Y-99455504D01*
X100260586Y-99454483D01*
X100250927Y-99450482D01*
X100233497Y-99443263D01*
X100233494Y-99443261D01*
X100078845Y-99412500D01*
X100078842Y-99412500D01*
X99921158Y-99412500D01*
X99921156Y-99412500D01*
X99766505Y-99443262D01*
X99766499Y-99443264D01*
X99749067Y-99450484D01*
X99749066Y-99450483D01*
X99739403Y-99454485D01*
X99734941Y-99455504D01*
X99722620Y-99461437D01*
X99719391Y-99462775D01*
X99719379Y-99462781D01*
X99620819Y-99503606D01*
X99591318Y-99523316D01*
X99591319Y-99523317D01*
X99584071Y-99528159D01*
X99573028Y-99533478D01*
X99557090Y-99546188D01*
X99552735Y-99549098D01*
X99489717Y-99591206D01*
X99489709Y-99591212D01*
X99446700Y-99634220D01*
X99432525Y-99645525D01*
X99421220Y-99659700D01*
X99378212Y-99702709D01*
X99378206Y-99702717D01*
X99336098Y-99765733D01*
X99336099Y-99765734D01*
X99333189Y-99770088D01*
X99320478Y-99786028D01*
X99315161Y-99797067D01*
X99310318Y-99804316D01*
X99310319Y-99804316D01*
X99290606Y-99833819D01*
X99249781Y-99932379D01*
X99246943Y-99938721D01*
X99242574Y-99947793D01*
X99242572Y-99947797D01*
X99242504Y-99947941D01*
X99241482Y-99952416D01*
X99230263Y-99979503D01*
X99199500Y-100134158D01*
X98560000Y-100134158D01*
X98560000Y-98774000D01*
X98579685Y-98706961D01*
X98632489Y-98661206D01*
X98684000Y-98650000D01*
X100788638Y-98650000D01*
X100855677Y-98669685D01*
X100857402Y-98671075D01*
X100859999Y-98669999D01*
X100860000Y-98670000D01*
X100860000Y-96401362D01*
X100879685Y-96334323D01*
X100896319Y-96313681D01*
X105788841Y-91421158D01*
X107699500Y-91421158D01*
X107699500Y-91421635D01*
X107699500Y-91428676D01*
X107699500Y-91578846D01*
X107730261Y-91733494D01*
X107730263Y-91733497D01*
X107737482Y-91750927D01*
X107741483Y-91760586D01*
X107742504Y-91765059D01*
X107748450Y-91777406D01*
X107749781Y-91780619D01*
X107790604Y-91879176D01*
X107810316Y-91908678D01*
X107815156Y-91915922D01*
X107820478Y-91926972D01*
X107833199Y-91942924D01*
X107836096Y-91947259D01*
X107836096Y-91947261D01*
X107836097Y-91947262D01*
X107878207Y-92010284D01*
X107878213Y-92010292D01*
X107916289Y-92048367D01*
X107921216Y-92053294D01*
X107932525Y-92067475D01*
X107946705Y-92078783D01*
X107989706Y-92121784D01*
X107989706Y-92121785D01*
X107989709Y-92121787D01*
X107989711Y-92121789D01*
X108057073Y-92166799D01*
X108073028Y-92179522D01*
X108084080Y-92184844D01*
X108120821Y-92209394D01*
X108120824Y-92209395D01*
X108120827Y-92209397D01*
X108172607Y-92230844D01*
X108222596Y-92251550D01*
X108234941Y-92257496D01*
X108239414Y-92258517D01*
X108249078Y-92262520D01*
X108249082Y-92262521D01*
X108266503Y-92269737D01*
X108396776Y-92295650D01*
X108421153Y-92300499D01*
X108421156Y-92300500D01*
X108421158Y-92300500D01*
X108578844Y-92300500D01*
X108578845Y-92300499D01*
X108733497Y-92269737D01*
X108760587Y-92258516D01*
X108765059Y-92257496D01*
X108777397Y-92251552D01*
X108879179Y-92209394D01*
X108915921Y-92184843D01*
X108926972Y-92179522D01*
X108942913Y-92166807D01*
X109010289Y-92121789D01*
X109053298Y-92078779D01*
X109067475Y-92067475D01*
X109078779Y-92053298D01*
X109121789Y-92010289D01*
X109166807Y-91942913D01*
X109179522Y-91926972D01*
X109184843Y-91915921D01*
X109209394Y-91879179D01*
X109251552Y-91777397D01*
X109257496Y-91765059D01*
X109258516Y-91760586D01*
X109269737Y-91733497D01*
X109300500Y-91578842D01*
X109300500Y-91421158D01*
X109300500Y-91421155D01*
X109300499Y-91421153D01*
X109298309Y-91410145D01*
X109269737Y-91266503D01*
X109258516Y-91239414D01*
X109257496Y-91234941D01*
X109251544Y-91222582D01*
X109250217Y-91219379D01*
X109230844Y-91172607D01*
X109209397Y-91120827D01*
X109209395Y-91120824D01*
X109209394Y-91120821D01*
X109184844Y-91084080D01*
X109179522Y-91073028D01*
X109166799Y-91057073D01*
X109121789Y-90989711D01*
X109121787Y-90989709D01*
X109121785Y-90989706D01*
X109083711Y-90951633D01*
X109078783Y-90946705D01*
X109067475Y-90932525D01*
X109053294Y-90921216D01*
X109048367Y-90916289D01*
X109010292Y-90878213D01*
X109010284Y-90878207D01*
X108947262Y-90836097D01*
X108947260Y-90836096D01*
X108942924Y-90833199D01*
X108926972Y-90820478D01*
X108915922Y-90815156D01*
X108908678Y-90810316D01*
X108879176Y-90790604D01*
X108780619Y-90749781D01*
X108777406Y-90748450D01*
X108765059Y-90742504D01*
X108760586Y-90741483D01*
X108750927Y-90737482D01*
X108733497Y-90730263D01*
X108733494Y-90730261D01*
X108578845Y-90699500D01*
X108578842Y-90699500D01*
X108421158Y-90699500D01*
X108421156Y-90699500D01*
X108266505Y-90730262D01*
X108266499Y-90730264D01*
X108249067Y-90737484D01*
X108249066Y-90737483D01*
X108239403Y-90741485D01*
X108234941Y-90742504D01*
X108222620Y-90748437D01*
X108219391Y-90749775D01*
X108219379Y-90749781D01*
X108120819Y-90790606D01*
X108091318Y-90810316D01*
X108091319Y-90810317D01*
X108084071Y-90815159D01*
X108073028Y-90820478D01*
X108057090Y-90833188D01*
X108052735Y-90836098D01*
X107989717Y-90878206D01*
X107989709Y-90878212D01*
X107946700Y-90921220D01*
X107932525Y-90932525D01*
X107921220Y-90946700D01*
X107878212Y-90989709D01*
X107878206Y-90989717D01*
X107836098Y-91052733D01*
X107836099Y-91052734D01*
X107833189Y-91057088D01*
X107820478Y-91073028D01*
X107815161Y-91084067D01*
X107810318Y-91091316D01*
X107810319Y-91091316D01*
X107790606Y-91120819D01*
X107749781Y-91219379D01*
X107746943Y-91225721D01*
X107742574Y-91234793D01*
X107742572Y-91234797D01*
X107742504Y-91234941D01*
X107741482Y-91239416D01*
X107730263Y-91266503D01*
X107699500Y-91421158D01*
X105788841Y-91421158D01*
X106764138Y-90445861D01*
X106825459Y-90412378D01*
X106850707Y-90409549D01*
X110129064Y-90380452D01*
X110196276Y-90399541D01*
G37*
%TD.AperFunction*%
%TA.AperFunction,NonConductor*%
G36*
X107734576Y-91269671D02*
G01*
X107734926Y-91267917D01*
X107735040Y-91267640D01*
X107734576Y-91269671D01*
G37*
%TD.AperFunction*%
%TA.AperFunction,NonConductor*%
G36*
X99234576Y-99982671D02*
G01*
X99234926Y-99980917D01*
X99235040Y-99980640D01*
X99234576Y-99982671D01*
G37*
%TD.AperFunction*%
M02*
