%TF.GenerationSoftware,KiCad,Pcbnew,9.0.3*%
%TF.CreationDate,2025-08-12T14:53:10+03:00*%
%TF.ProjectId,Left,4c656674-2e6b-4696-9361-645f70636258,rev?*%
%TF.SameCoordinates,Original*%
%TF.FileFunction,Profile,NP*%
%FSLAX46Y46*%
G04 Gerber Fmt 4.6, Leading zero omitted, Abs format (unit mm)*
G04 Created by KiCad (PCBNEW 9.0.3) date 2025-08-12 14:53:10*
%MOMM*%
%LPD*%
G01*
G04 APERTURE LIST*
%TA.AperFunction,Profile*%
%ADD10C,0.050000*%
%TD*%
%TA.AperFunction,Profile*%
%ADD11C,0.100000*%
%TD*%
G04 APERTURE END LIST*
D10*
X106490000Y-101500000D02*
G75*
G02*
X110643829Y-101302335I2010000J1505000D01*
G01*
X110640000Y-101300000D02*
X113847697Y-101300000D01*
X103150000Y-102500000D02*
X98400000Y-102500000D01*
X118897962Y-100150000D02*
G75*
G02*
X118590972Y-102507753I-10397962J155000D01*
G01*
X103150000Y-101500000D02*
X103150000Y-102500000D01*
D11*
X117800000Y-100213000D02*
G75*
G02*
X116200000Y-100213000I-800000J0D01*
G01*
X116200000Y-100213000D02*
G75*
G02*
X117800000Y-100213000I800000J0D01*
G01*
X100800000Y-100213000D02*
G75*
G02*
X99200000Y-100213000I-800000J0D01*
G01*
X99200000Y-100213000D02*
G75*
G02*
X100800000Y-100213000I800000J0D01*
G01*
D10*
X143791405Y-90101404D02*
G75*
G02*
X144791404Y-89100004I999995J1404D01*
G01*
X118890000Y-100150000D02*
G75*
G02*
X121351219Y-98098024I2335200J-298900D01*
G01*
X106490000Y-101500000D02*
X103150000Y-101500000D01*
X113850000Y-102510000D02*
X118600000Y-102510000D01*
X121350300Y-98100000D02*
X145000000Y-98100000D01*
X143791405Y-90101404D02*
X143798594Y-95223596D01*
X143798594Y-95223596D02*
G75*
G02*
X142798595Y-96224995I-999994J-1404D01*
G01*
D11*
X109300000Y-91500000D02*
G75*
G02*
X107700000Y-91500000I-800000J0D01*
G01*
X107700000Y-91500000D02*
G75*
G02*
X109300000Y-91500000I800000J0D01*
G01*
D10*
X119920546Y-96223211D02*
G75*
G02*
X117535497Y-94832060I-46J2740011D01*
G01*
X119920546Y-96225000D02*
X142798595Y-96225000D01*
X98396239Y-102500927D02*
G75*
G02*
X117535537Y-94832826I10103761J2500927D01*
G01*
X145000000Y-89100000D02*
X144791404Y-89100000D01*
X113847697Y-101300000D02*
X113850000Y-102510000D01*
%TO.C,J1*%
X147000000Y-89100000D02*
X145000000Y-89100000D01*
X147000000Y-90050000D02*
X147000000Y-89100000D01*
X147000000Y-98100000D02*
X145000000Y-98100000D01*
X147000000Y-98100000D02*
X147000000Y-97150000D01*
X148000000Y-90050000D02*
X147000000Y-90050000D01*
X148000000Y-90050000D02*
X148000000Y-89630000D01*
X148000000Y-97150000D02*
X147000000Y-97150000D01*
X148000000Y-97570000D02*
X148000000Y-97150000D01*
X148600000Y-89630000D02*
X148000000Y-89630000D01*
X148600000Y-89630000D02*
X148600000Y-90050000D01*
X148600000Y-97570000D02*
X148000000Y-97570000D01*
X148600000Y-97570000D02*
X148600000Y-97150000D01*
X149200000Y-90050000D02*
X148600000Y-90050000D01*
X149200000Y-97150000D02*
X148600000Y-97150000D01*
X149200000Y-97150000D02*
X149200000Y-90050000D01*
%TD*%
M02*
