%TF.GenerationSoftware,KiCad,Pcbnew,9.0.3*%
%TF.CreationDate,2026-01-26T00:41:47+02:00*%
%TF.ProjectId,SDCards,53444361-7264-4732-9e6b-696361645f70,rev?*%
%TF.SameCoordinates,Original*%
%TF.FileFunction,Copper,L2,Bot*%
%TF.FilePolarity,Positive*%
%FSLAX46Y46*%
G04 Gerber Fmt 4.6, Leading zero omitted, Abs format (unit mm)*
G04 Created by KiCad (PCBNEW 9.0.3) date 2026-01-26 00:41:47*
%MOMM*%
%LPD*%
G01*
G04 APERTURE LIST*
G04 Aperture macros list*
%AMRoundRect*
0 Rectangle with rounded corners*
0 $1 Rounding radius*
0 $2 $3 $4 $5 $6 $7 $8 $9 X,Y pos of 4 corners*
0 Add a 4 corners polygon primitive as box body*
4,1,4,$2,$3,$4,$5,$6,$7,$8,$9,$2,$3,0*
0 Add four circle primitives for the rounded corners*
1,1,$1+$1,$2,$3*
1,1,$1+$1,$4,$5*
1,1,$1+$1,$6,$7*
1,1,$1+$1,$8,$9*
0 Add four rect primitives between the rounded corners*
20,1,$1+$1,$2,$3,$4,$5,0*
20,1,$1+$1,$4,$5,$6,$7,0*
20,1,$1+$1,$6,$7,$8,$9,0*
20,1,$1+$1,$8,$9,$2,$3,0*%
G04 Aperture macros list end*
%TA.AperFunction,ComponentPad*%
%ADD10R,3.000000X1.000000*%
%TD*%
%TA.AperFunction,ComponentPad*%
%ADD11R,1.000000X2.500000*%
%TD*%
%TA.AperFunction,ComponentPad*%
%ADD12R,2.500000X2.000000*%
%TD*%
%TA.AperFunction,ComponentPad*%
%ADD13R,2.500000X2.500000*%
%TD*%
%TA.AperFunction,ComponentPad*%
%ADD14R,2.000000X1.000000*%
%TD*%
%TA.AperFunction,ComponentPad*%
%ADD15RoundRect,0.128571X1.571429X-0.771429X1.571429X0.771429X-1.571429X0.771429X-1.571429X-0.771429X0*%
%TD*%
%TA.AperFunction,ComponentPad*%
%ADD16RoundRect,0.128571X1.671429X-0.771429X1.671429X0.771429X-1.671429X0.771429X-1.671429X-0.771429X0*%
%TD*%
%TA.AperFunction,ComponentPad*%
%ADD17RoundRect,0.114286X1.585714X-0.685714X1.585714X0.685714X-1.585714X0.685714X-1.585714X-0.685714X0*%
%TD*%
%TA.AperFunction,ComponentPad*%
%ADD18RoundRect,0.071429X1.628571X-0.428571X1.628571X0.428571X-1.628571X0.428571X-1.628571X-0.428571X0*%
%TD*%
%TA.AperFunction,ComponentPad*%
%ADD19RoundRect,0.057143X1.642857X-0.342857X1.642857X0.342857X-1.642857X0.342857X-1.642857X-0.342857X0*%
%TD*%
%TA.AperFunction,SMDPad,CuDef*%
%ADD20R,1.000000X3.000000*%
%TD*%
%TA.AperFunction,SMDPad,CuDef*%
%ADD21R,2.500000X1.000000*%
%TD*%
%TA.AperFunction,SMDPad,CuDef*%
%ADD22R,2.500000X2.500000*%
%TD*%
%TA.AperFunction,SMDPad,CuDef*%
%ADD23R,1.000000X2.000000*%
%TD*%
%TA.AperFunction,Conductor*%
%ADD24C,0.500000*%
%TD*%
%TA.AperFunction,Conductor*%
%ADD25C,0.100000*%
%TD*%
%TA.AperFunction,Conductor*%
%ADD26C,0.200000*%
%TD*%
%TA.AperFunction,Conductor*%
%ADD27C,0.300000*%
%TD*%
G04 APERTURE END LIST*
D10*
%TO.P,J3,1,CD/DAT3*%
%TO.N,Net-(J3-CD{slash}DAT3)*%
X71880000Y-102423529D03*
%TO.P,J3,2,CMD*%
%TO.N,Net-(J3-CMD)*%
X71880000Y-106147059D03*
%TO.P,J3,3,VSS1*%
%TO.N,Net-(J3-VSS1)*%
X71880000Y-107388235D03*
%TO.P,J3,4,VDD*%
%TO.N,Net-(J3-VDD)*%
X71880000Y-109870588D03*
%TO.P,J3,5,CLK*%
%TO.N,Net-(J3-CLK)*%
X71880000Y-112352941D03*
%TO.P,J3,6,VSS2*%
%TO.N,Net-(J3-VSS2)*%
X71880000Y-116076471D03*
%TO.P,J3,7,DAT0*%
%TO.N,Net-(J3-DAT0)*%
X71880000Y-118558824D03*
%TO.P,J3,8,DAT1*%
%TO.N,Net-(J3-DAT1)*%
X71880000Y-119800000D03*
%TO.P,J3,9,DAT2*%
%TO.N,Net-(J3-DAT2)*%
X71880000Y-99941176D03*
%TO.P,J3,11,D0+*%
%TO.N,Net-(J3-D0+)*%
X71880000Y-104905882D03*
%TO.P,J3,12,D0-*%
%TO.N,Net-(J3-D0-)*%
X71880000Y-103664706D03*
%TO.P,J3,13,VSS4*%
%TO.N,Net-(J3-VSS4)*%
X71880000Y-98700000D03*
%TO.P,J3,14,VDD2*%
%TO.N,Net-(J3-VDD2)*%
X71880000Y-108629412D03*
%TO.P,J3,15,D1-*%
%TO.N,Net-(J3-D1-)*%
X71880000Y-114835294D03*
%TO.P,J3,16,D1+*%
%TO.N,Net-(J3-D1+)*%
X71880000Y-113594118D03*
%TO.P,J3,17,Name*%
%TO.N,Net-(J3-Name)*%
X71880000Y-111111765D03*
D11*
%TO.P,J3,CD,CARD_DETECT*%
%TO.N,Net-(J3-CARD_DETECT)*%
X83680000Y-123350000D03*
%TO.P,J3,COM,COMMON*%
%TO.N,Net-(J3-COMMON)*%
X93630000Y-123350000D03*
D12*
%TO.P,J3,SH,SHIELD*%
%TO.N,Net-(J1-SHIELD)*%
X71880000Y-123350000D03*
D13*
X95680000Y-123350000D03*
D14*
X70780000Y-117317647D03*
X70780000Y-101182353D03*
D12*
X71880000Y-95150000D03*
D13*
X95680000Y-95150000D03*
D11*
%TO.P,J3,WP,WRITE_PROTECT*%
%TO.N,Net-(J3-WRITE_PROTECT)*%
X92400000Y-123350000D03*
%TD*%
D15*
%TO.P,J2,1,CD/DAT3*%
%TO.N,Net-(J1-CD{slash}DAT3)*%
X82645000Y-70767473D03*
%TO.P,J2,2,CMD*%
%TO.N,Net-(J1-CMD)*%
X82645000Y-73267473D03*
D16*
%TO.P,J2,3,VSS1*%
%TO.N,Net-(J1-VSS1)*%
X82545000Y-75767473D03*
%TO.P,J2,4,VDD*%
%TO.N,Net-(J1-VDD)*%
X82545000Y-78267473D03*
D15*
%TO.P,J2,5,CLK*%
%TO.N,Net-(J1-CLK)*%
X82645000Y-80767473D03*
%TO.P,J2,6,VSS2*%
%TO.N,Net-(J1-VSS2)*%
X82645000Y-83267473D03*
D17*
%TO.P,J2,7,DAT0*%
%TO.N,Net-(J1-DAT0)*%
X82645000Y-85692473D03*
D18*
%TO.P,J2,8,DAT1*%
%TO.N,Net-(J1-DAT1)*%
X82645000Y-87392473D03*
D15*
%TO.P,J2,9,DAT2*%
%TO.N,Net-(J1-DAT2)*%
X84945000Y-68267473D03*
%TO.P,J2,10,VSS3*%
%TO.N,Net-(J1-VSS1)*%
X87615000Y-70762473D03*
D19*
%TO.P,J2,11,D0+*%
%TO.N,Net-(J1-D0+)*%
X87585000Y-72722473D03*
%TO.P,J2,12,D0-*%
%TO.N,Net-(J1-D0-)*%
X87595000Y-73692473D03*
D16*
%TO.P,J2,13,VSS4*%
%TO.N,Net-(J1-VSS4)*%
X87515000Y-75762473D03*
%TO.P,J2,14,VDD2*%
%TO.N,Net-(J1-VDD2)*%
X87515000Y-78262473D03*
D19*
%TO.P,J2,15,D1-*%
%TO.N,Net-(J1-D1-)*%
X87605000Y-80252473D03*
%TO.P,J2,16,D1+*%
%TO.N,Net-(J1-D1+)*%
X87615000Y-81222473D03*
D15*
%TO.P,J2,17,Name*%
%TO.N,Net-(J1-Name)*%
X87615000Y-83262473D03*
%TD*%
D10*
%TO.P,J1,1,CD/DAT3*%
%TO.N,Net-(J1-CD{slash}DAT3)*%
X71880000Y-72823529D03*
%TO.P,J1,2,CMD*%
%TO.N,Net-(J1-CMD)*%
X71880000Y-76547059D03*
%TO.P,J1,3,VSS1*%
%TO.N,Net-(J1-VSS1)*%
X71880000Y-77788235D03*
%TO.P,J1,4,VDD*%
%TO.N,Net-(J1-VDD)*%
X71880000Y-80270588D03*
%TO.P,J1,5,CLK*%
%TO.N,Net-(J1-CLK)*%
X71880000Y-82752941D03*
%TO.P,J1,6,VSS2*%
%TO.N,Net-(J1-VSS2)*%
X71880000Y-86476471D03*
%TO.P,J1,7,DAT0*%
%TO.N,Net-(J1-DAT0)*%
X71880000Y-88958824D03*
%TO.P,J1,8,DAT1*%
%TO.N,Net-(J1-DAT1)*%
X71880000Y-90200000D03*
%TO.P,J1,9,DAT2*%
%TO.N,Net-(J1-DAT2)*%
X71880000Y-70341176D03*
%TO.P,J1,11,D0+*%
%TO.N,Net-(J1-D0+)*%
X71880000Y-75305882D03*
%TO.P,J1,12,D0-*%
%TO.N,Net-(J1-D0-)*%
X71880000Y-74064706D03*
%TO.P,J1,13,VSS4*%
%TO.N,Net-(J1-VSS4)*%
X71880000Y-69100000D03*
%TO.P,J1,14,VDD2*%
%TO.N,Net-(J1-VDD2)*%
X71880000Y-79029412D03*
%TO.P,J1,15,D1-*%
%TO.N,Net-(J1-D1-)*%
X71880000Y-85235294D03*
%TO.P,J1,16,D1+*%
%TO.N,Net-(J1-D1+)*%
X71880000Y-83994118D03*
%TO.P,J1,17,Name*%
%TO.N,Net-(J1-Name)*%
X71880000Y-81511765D03*
D11*
%TO.P,J1,CD,CARD_DETECT*%
%TO.N,Net-(J1-CARD_DETECT)*%
X83680000Y-93750000D03*
%TO.P,J1,COM,COMMON*%
X93630000Y-93750000D03*
D12*
%TO.P,J1,SH,SHIELD*%
%TO.N,Net-(J1-SHIELD)*%
X71880000Y-93750000D03*
D13*
X95680000Y-93750000D03*
D14*
X70780000Y-87717647D03*
X70780000Y-71582353D03*
D12*
X71880000Y-65550000D03*
D13*
X95680000Y-65550000D03*
D11*
%TO.P,J1,WP,WRITE_PROTECT*%
%TO.N,Net-(J1-CARD_DETECT)*%
X92400000Y-93750000D03*
%TD*%
D20*
%TO.P,J4,1,CD/DAT3*%
%TO.N,Net-(J3-CD{slash}DAT3)*%
X118323529Y-90620000D03*
%TO.P,J4,2,CMD*%
%TO.N,Net-(J3-CMD)*%
X122047059Y-90620000D03*
%TO.P,J4,3,VSS1*%
%TO.N,Net-(J3-VSS1)*%
X123288235Y-90620000D03*
%TO.P,J4,4,VDD*%
%TO.N,Net-(J3-VDD)*%
X125770588Y-90620000D03*
%TO.P,J4,5,CLK*%
%TO.N,Net-(J3-CLK)*%
X128252941Y-90620000D03*
%TO.P,J4,6,VSS2*%
%TO.N,Net-(J3-VSS2)*%
X131976471Y-90620000D03*
%TO.P,J4,7,DAT0*%
%TO.N,Net-(J3-DAT0)*%
X134458824Y-90620000D03*
%TO.P,J4,8,DAT1*%
%TO.N,Net-(J3-DAT1)*%
X135700000Y-90620000D03*
%TO.P,J4,9,DAT2*%
%TO.N,Net-(J3-DAT2)*%
X115841176Y-90620000D03*
%TO.P,J4,11,D0+*%
%TO.N,Net-(J3-D0+)*%
X120805882Y-90620000D03*
%TO.P,J4,12,D0-*%
%TO.N,Net-(J3-D0-)*%
X119564706Y-90620000D03*
%TO.P,J4,13,VSS4*%
%TO.N,Net-(J3-VSS4)*%
X114600000Y-90620000D03*
%TO.P,J4,14,VDD2*%
%TO.N,Net-(J3-VDD2)*%
X124529412Y-90620000D03*
%TO.P,J4,15,D1-*%
%TO.N,Net-(J3-D1-)*%
X130735294Y-90620000D03*
%TO.P,J4,16,D1+*%
%TO.N,Net-(J3-D1+)*%
X129494118Y-90620000D03*
%TO.P,J4,17,Name*%
%TO.N,Net-(J3-Name)*%
X127011765Y-90620000D03*
D21*
%TO.P,J4,CD,CARD_DETECT*%
%TO.N,Net-(J3-CARD_DETECT)*%
X139650000Y-102420000D03*
%TO.P,J4,COM,COMMON*%
%TO.N,Net-(J3-COMMON)*%
X139650000Y-112370000D03*
D22*
%TO.P,J4,SH,SHIELD*%
%TO.N,Net-(J1-SHIELD)*%
X140550000Y-114420000D03*
X139950000Y-90620000D03*
D23*
X133217647Y-89520000D03*
X117082353Y-89520000D03*
D22*
X110350000Y-90620000D03*
X109750000Y-114420000D03*
D21*
%TO.P,J4,WP,WRITE_PROTECT*%
%TO.N,Net-(J3-WRITE_PROTECT)*%
X139650000Y-111140000D03*
%TD*%
D24*
%TO.N,Net-(J1-VDD2)*%
X79189412Y-79029412D02*
X71880000Y-79029412D01*
D25*
X84560000Y-79390000D02*
X85000000Y-78950000D01*
D26*
X85000000Y-78950000D02*
X85687527Y-78262473D01*
D24*
X79370000Y-79210000D02*
X79189412Y-79029412D01*
D25*
X79390000Y-79210000D02*
X79570000Y-79390000D01*
X79570000Y-79390000D02*
X84560000Y-79390000D01*
D26*
X85687527Y-78262473D02*
X87515000Y-78262473D01*
D24*
%TO.N,Net-(J3-DAT2)*%
X76370000Y-98190000D02*
X97820000Y-98190000D01*
X114250000Y-96540000D02*
X115861176Y-94928824D01*
X97820000Y-98190000D02*
X99470000Y-96540000D01*
X74650000Y-99910000D02*
X76370000Y-98190000D01*
X71880000Y-99941176D02*
X71911176Y-99910000D01*
X115861176Y-94928824D02*
X115861176Y-92250000D01*
X71911176Y-99910000D02*
X74650000Y-99910000D01*
X99470000Y-96540000D02*
X114250000Y-96540000D01*
D25*
%TO.N,Net-(J1-D0-)*%
X84920000Y-74340000D02*
X85190000Y-74070000D01*
D27*
X79495000Y-74115000D02*
X79460000Y-74080000D01*
D24*
X71880000Y-74064706D02*
X78955294Y-74064706D01*
D25*
X79495000Y-74115000D02*
X79720000Y-74340000D01*
X79720000Y-74340000D02*
X84920000Y-74340000D01*
D27*
X79460000Y-74080000D02*
X79180000Y-74080000D01*
D26*
X85567527Y-73692473D02*
X87595000Y-73692473D01*
D24*
X78955294Y-74064706D02*
X78960000Y-74060000D01*
D26*
X85190000Y-74070000D02*
X85567527Y-73692473D01*
D24*
%TO.N,Net-(J3-DAT1)*%
X74850000Y-119800000D02*
X82180000Y-112470000D01*
X71880000Y-119800000D02*
X74850000Y-119800000D01*
X118210000Y-112470000D02*
X135720000Y-94960000D01*
X135720000Y-94960000D02*
X135720000Y-92250000D01*
D26*
X135720000Y-92250000D02*
X135279824Y-92250000D01*
D24*
X82180000Y-112470000D02*
X118210000Y-112470000D01*
%TO.N,Net-(J3-CLK)*%
X71880000Y-112352941D02*
X75077059Y-112352941D01*
X128272941Y-94927059D02*
X128272941Y-92250000D01*
X79660000Y-107770000D02*
X115430000Y-107770000D01*
X115430000Y-107770000D02*
X128272941Y-94927059D01*
X75077059Y-112352941D02*
X79660000Y-107770000D01*
%TO.N,Net-(J3-VDD)*%
X125790588Y-94929412D02*
X125790588Y-92250000D01*
X71880000Y-109870588D02*
X74649412Y-109870588D01*
X114910000Y-105810000D02*
X125790588Y-94929412D01*
X78710000Y-105810000D02*
X114910000Y-105810000D01*
X74649412Y-109870588D02*
X78710000Y-105810000D01*
%TO.N,Net-(J3-CD{slash}DAT3)*%
X71880000Y-102423529D02*
X73576471Y-102423529D01*
X73576471Y-102423529D02*
X76920000Y-99080000D01*
X98250000Y-99080000D02*
X99920000Y-97410000D01*
X118343529Y-94936471D02*
X118343529Y-92250000D01*
X76920000Y-99080000D02*
X98250000Y-99080000D01*
X99920000Y-97410000D02*
X115870000Y-97410000D01*
X115870000Y-97410000D02*
X118343529Y-94936471D01*
%TO.N,Net-(J3-DAT0)*%
X117830000Y-111530000D02*
X81670000Y-111530000D01*
X134478824Y-92250000D02*
X134478824Y-94881176D01*
X81670000Y-111530000D02*
X74641176Y-118558824D01*
X134478824Y-94881176D02*
X117830000Y-111530000D01*
X74641176Y-118558824D02*
X71880000Y-118558824D01*
%TO.N,Net-(J3-CMD)*%
X122067059Y-94972941D02*
X122067059Y-92250000D01*
X77390000Y-102900000D02*
X114140000Y-102900000D01*
X71880000Y-106147059D02*
X71897059Y-106130000D01*
X114140000Y-102900000D02*
X122067059Y-94972941D01*
X71897059Y-106130000D02*
X74160000Y-106130000D01*
X74160000Y-106130000D02*
X77390000Y-102900000D01*
%TO.N,Net-(J1-Name)*%
X75988235Y-81511765D02*
X71880000Y-81511765D01*
D25*
X85570000Y-79500000D02*
X85380000Y-79690000D01*
D24*
X79678235Y-80391765D02*
X77108235Y-80391765D01*
D25*
X80380000Y-79690000D02*
X80045500Y-80024500D01*
D24*
X77108235Y-80391765D02*
X75988235Y-81511765D01*
D26*
X90240000Y-80310000D02*
X89430000Y-79500000D01*
X89430000Y-79500000D02*
X85570000Y-79500000D01*
D27*
X80045500Y-80024500D02*
X79678235Y-80391765D01*
D26*
X87615000Y-83262473D02*
X89437527Y-83262473D01*
D25*
X85380000Y-79690000D02*
X80380000Y-79690000D01*
D26*
X89437527Y-83262473D02*
X90240000Y-82460000D01*
X90240000Y-82460000D02*
X90240000Y-80310000D01*
%TO.N,Net-(J1-VSS1)*%
X84710000Y-77020000D02*
X89410000Y-77020000D01*
X89315000Y-70762473D02*
X87615000Y-70762473D01*
X82545000Y-75767473D02*
X83457473Y-75767473D01*
X83457473Y-75767473D02*
X84710000Y-77020000D01*
X89410000Y-77020000D02*
X90270000Y-76160000D01*
X90270000Y-71717473D02*
X89315000Y-70762473D01*
X90270000Y-76160000D02*
X90270000Y-71717473D01*
%TO.N,Net-(J1-D0+)*%
X85304671Y-74470000D02*
X89400000Y-74470000D01*
X89770000Y-73080000D02*
X89412473Y-72722473D01*
D24*
X78550000Y-75300000D02*
X77580000Y-75300000D01*
D25*
X85133671Y-74641000D02*
X85304671Y-74470000D01*
D26*
X89770000Y-74100000D02*
X89770000Y-73080000D01*
D27*
X79480000Y-74880000D02*
X79060000Y-75300000D01*
D26*
X89412473Y-72722473D02*
X87585000Y-72722473D01*
D27*
X77580000Y-75300000D02*
X77574118Y-75305882D01*
D25*
X79719000Y-74641000D02*
X85133671Y-74641000D01*
D26*
X89400000Y-74470000D02*
X89770000Y-74100000D01*
D27*
X79060000Y-75300000D02*
X78620000Y-75300000D01*
D25*
X79480000Y-74880000D02*
X79719000Y-74641000D01*
D24*
X77574118Y-75305882D02*
X71880000Y-75305882D01*
D27*
%TO.N,Net-(J1-D1+)*%
X77770000Y-82100000D02*
X77395000Y-82475000D01*
D26*
X78520000Y-81870000D02*
X78000000Y-81870000D01*
D24*
X75875882Y-83994118D02*
X71880000Y-83994118D01*
D25*
X84960000Y-81870000D02*
X85110000Y-81720000D01*
D26*
X85130000Y-81700000D02*
X85607527Y-81222473D01*
D25*
X78000000Y-81870000D02*
X84960000Y-81870000D01*
D24*
X77395000Y-82475000D02*
X75875882Y-83994118D01*
D26*
X78000000Y-81870000D02*
X77770000Y-82100000D01*
X85607527Y-81222473D02*
X87615000Y-81222473D01*
D24*
%TO.N,Net-(J1-D1-)*%
X78166100Y-82843900D02*
X75774706Y-85235294D01*
D26*
X89770000Y-80650000D02*
X89372473Y-80252473D01*
D25*
X78839000Y-82171000D02*
X85159000Y-82171000D01*
D26*
X85350000Y-81980000D02*
X89420000Y-81980000D01*
D25*
X78730000Y-82280000D02*
X78839000Y-82171000D01*
D26*
X89372473Y-80252473D02*
X87605000Y-80252473D01*
X89420000Y-81980000D02*
X89770000Y-81630000D01*
D24*
X75774706Y-85235294D02*
X71880000Y-85235294D01*
D25*
X85159000Y-82171000D02*
X85350000Y-81980000D01*
D26*
X71880000Y-85235294D02*
X71884706Y-85240000D01*
X89770000Y-81630000D02*
X89770000Y-80650000D01*
D27*
X78166100Y-82843900D02*
X78580000Y-82430000D01*
D26*
X78580000Y-82430000D02*
X78730000Y-82280000D01*
D24*
%TO.N,Net-(J3-VSS2)*%
X81200000Y-110550000D02*
X116390000Y-110550000D01*
X75673529Y-116076471D02*
X81200000Y-110550000D01*
X71880000Y-116076471D02*
X75673529Y-116076471D01*
X131996471Y-94943529D02*
X131996471Y-92250000D01*
X116390000Y-110550000D02*
X131996471Y-94943529D01*
%TO.N,Net-(J3-VSS4)*%
X74610000Y-98700000D02*
X71880000Y-98700000D01*
X114620000Y-94910000D02*
X113910000Y-95620000D01*
X97410000Y-97290000D02*
X76020000Y-97290000D01*
X76020000Y-97290000D02*
X74610000Y-98700000D01*
X114620000Y-92250000D02*
X114620000Y-94910000D01*
X113910000Y-95620000D02*
X99080000Y-95620000D01*
X99080000Y-95620000D02*
X97410000Y-97290000D01*
%TO.N,Net-(J3-Name)*%
X127031765Y-94998235D02*
X127031765Y-92250000D01*
X79190000Y-106790000D02*
X115240000Y-106790000D01*
X74868235Y-111111765D02*
X79190000Y-106790000D01*
X115240000Y-106790000D02*
X127031765Y-94998235D01*
X71880000Y-111111765D02*
X74868235Y-111111765D01*
%TO.N,Net-(J3-VSS1)*%
X114450000Y-103880000D02*
X123308235Y-95021765D01*
X74321765Y-107388235D02*
X77830000Y-103880000D01*
X77830000Y-103880000D02*
X114450000Y-103880000D01*
X71880000Y-107388235D02*
X74321765Y-107388235D01*
X123308235Y-95021765D02*
X123308235Y-92250000D01*
%TO.N,Net-(J3-D0+)*%
X100895000Y-99145000D02*
X116635000Y-99145000D01*
X120825882Y-94954118D02*
X120825882Y-92250000D01*
X71880000Y-104905882D02*
X73934118Y-104905882D01*
X116635000Y-99145000D02*
X120825882Y-94954118D01*
X99180000Y-100860000D02*
X100895000Y-99145000D01*
X77980000Y-100860000D02*
X99180000Y-100860000D01*
X73934118Y-104905882D02*
X77980000Y-100860000D01*
%TO.N,Net-(J3-D1-)*%
X116040000Y-109620000D02*
X130755294Y-94904706D01*
X130755294Y-94904706D02*
X130755294Y-92250000D01*
X80650000Y-109620000D02*
X116040000Y-109620000D01*
X75434706Y-114835294D02*
X80650000Y-109620000D01*
X71880000Y-114835294D02*
X75434706Y-114835294D01*
%TO.N,Net-(J3-D0-)*%
X77410000Y-99970000D02*
X98720000Y-99970000D01*
X116260000Y-98270000D02*
X119584706Y-94945294D01*
X100420000Y-98270000D02*
X116260000Y-98270000D01*
X73710000Y-103670000D02*
X77410000Y-99970000D01*
X119584706Y-94945294D02*
X119584706Y-92250000D01*
X98720000Y-99970000D02*
X100420000Y-98270000D01*
X71885294Y-103670000D02*
X73710000Y-103670000D01*
%TO.N,Net-(J3-VDD2)*%
X74470588Y-108629412D02*
X78250000Y-104850000D01*
X78250000Y-104850000D02*
X114700000Y-104850000D01*
X114700000Y-104850000D02*
X124549412Y-95000588D01*
X71880000Y-108629412D02*
X74470588Y-108629412D01*
X124549412Y-95000588D02*
X124549412Y-92250000D01*
%TO.N,Net-(J3-D1+)*%
X115710000Y-108710000D02*
X129514118Y-94905882D01*
X71880000Y-113594118D02*
X75255882Y-113594118D01*
X80140000Y-108710000D02*
X115710000Y-108710000D01*
X75255882Y-113594118D02*
X80140000Y-108710000D01*
X129514118Y-94905882D02*
X129514118Y-92250000D01*
D26*
%TO.N,Net-(J3-WRITE_PROTECT)*%
X122670000Y-118590000D02*
X130120000Y-111140000D01*
X92400000Y-123350000D02*
X92400000Y-121680000D01*
X95490000Y-118590000D02*
X122670000Y-118590000D01*
X130120000Y-111140000D02*
X139650000Y-111140000D01*
X92400000Y-121680000D02*
X95490000Y-118590000D01*
%TO.N,Net-(J3-COMMON)*%
X96170000Y-119140000D02*
X122980000Y-119140000D01*
X129750000Y-112370000D02*
X139650000Y-112370000D01*
X122980000Y-119140000D02*
X129750000Y-112370000D01*
X93630000Y-123350000D02*
X93630000Y-121680000D01*
X93630000Y-121680000D02*
X96170000Y-119140000D01*
%TO.N,Net-(J3-CARD_DETECT)*%
X87340000Y-118040000D02*
X122420000Y-118040000D01*
X122420000Y-118040000D02*
X138040000Y-102420000D01*
X83680000Y-121700000D02*
X87340000Y-118040000D01*
X83680000Y-123350000D02*
X83680000Y-121700000D01*
X138040000Y-102420000D02*
X139650000Y-102420000D01*
%TD*%
M02*
