M48
; DRILL file {KiCad 9.0.3} date 2026-01-26T00:42:01+0200
; FORMAT={-:-/ absolute / metric / decimal}
; #@! TF.CreationDate,2026-01-26T00:42:01+02:00
; #@! TF.GenerationSoftware,Kicad,Pcbnew,9.0.3
; #@! TF.FileFunction,Plated,1,2,PTH
FMAT,2
METRIC
; #@! TA.AperFunction,Plated,PTH,ComponentDrill
T1C0.300
; #@! TA.AperFunction,Plated,PTH,ComponentDrill
T2C0.400
; #@! TA.AperFunction,Plated,PTH,ComponentDrill
T3C0.700
; #@! TA.AperFunction,Plated,PTH,ComponentDrill
T4C0.800
; #@! TA.AperFunction,Plated,PTH,ComponentDrill
T5C1.000
%
G90
G05
T2
X70.78Y-71.582
X70.78Y-87.718
X70.78Y-101.182
X70.78Y-117.318
X71.88Y-69.1
X71.88Y-70.341
X71.88Y-72.824
X71.88Y-74.065
X71.88Y-75.306
X71.88Y-76.547
X71.88Y-77.788
X71.88Y-79.029
X71.88Y-80.271
X71.88Y-81.512
X71.88Y-82.753
X71.88Y-83.994
X71.88Y-85.235
X71.88Y-86.476
X71.88Y-88.959
X71.88Y-90.2
X71.88Y-98.7
X71.88Y-99.941
X71.88Y-102.424
X71.88Y-103.665
X71.88Y-104.906
X71.88Y-106.147
X71.88Y-107.388
X71.88Y-108.629
X71.88Y-109.871
X71.88Y-111.112
X71.88Y-112.353
X71.88Y-113.594
X71.88Y-114.835
X71.88Y-116.076
X71.88Y-118.559
X71.88Y-119.8
X83.68Y-93.75
X83.68Y-123.35
X92.4Y-93.75
X92.4Y-123.35
X93.63Y-93.75
X93.63Y-123.35
T5
X71.88Y-65.55
X71.88Y-93.75
X71.88Y-95.15
X71.88Y-123.35
X95.68Y-65.55
X95.68Y-93.75
X95.68Y-95.15
X95.68Y-123.35
T1
X87.235Y-72.722G85X87.935Y-72.722
G05
X87.245Y-73.692G85X87.945Y-73.692
G05
X87.255Y-80.252G85X87.955Y-80.252
G05
X87.265Y-81.222G85X87.965Y-81.222
G05
T2
X82.245Y-87.392G85X83.045Y-87.392
G05
T3
X82.395Y-85.692G85X82.895Y-85.692
G05
T4
X82.345Y-75.767G85X82.745Y-75.767
G05
X82.345Y-78.267G85X82.745Y-78.267
G05
X82.445Y-70.767G85X82.845Y-70.767
G05
X82.445Y-73.267G85X82.845Y-73.267
G05
X82.445Y-80.767G85X82.845Y-80.767
G05
X82.445Y-83.267G85X82.845Y-83.267
G05
X84.745Y-68.267G85X85.145Y-68.267
G05
X87.315Y-75.762G85X87.715Y-75.762
G05
X87.315Y-78.262G85X87.715Y-78.262
G05
X87.415Y-70.762G85X87.815Y-70.762
G05
X87.415Y-83.262G85X87.815Y-83.262
G05
M30
