%TF.GenerationSoftware,KiCad,Pcbnew,9.0.3*%
%TF.CreationDate,2026-01-26T00:42:01+02:00*%
%TF.ProjectId,SDCards,53444361-7264-4732-9e6b-696361645f70,rev?*%
%TF.SameCoordinates,Original*%
%TF.FileFunction,Drillmap*%
%TF.FilePolarity,Positive*%
%FSLAX45Y45*%
G04 Gerber Fmt 4.5, Leading zero omitted, Abs format (unit mm)*
G04 Created by KiCad (PCBNEW 9.0.3) date 2026-01-26 00:42:01*
%MOMM*%
%LPD*%
G01*
G04 APERTURE LIST*
%ADD10C,0.050000*%
%ADD11C,0.200000*%
G04 APERTURE END LIST*
D10*
X6950000Y-12510000D02*
X14319000Y-12510000D01*
X6950000Y-6400000D02*
X6950000Y-12510000D01*
X6950000Y-6400000D02*
X10469000Y-6400000D01*
X14319000Y-8843000D02*
X14319000Y-12510000D01*
X10470000Y-8843000D02*
X14319000Y-8843000D01*
X10469000Y-6400000D02*
X10470000Y-8843000D01*
D11*
X7208277Y-12823984D02*
X7208277Y-12623984D01*
X7208277Y-12623984D02*
X7255896Y-12623984D01*
X7255896Y-12623984D02*
X7284467Y-12633508D01*
X7284467Y-12633508D02*
X7303515Y-12652555D01*
X7303515Y-12652555D02*
X7313039Y-12671603D01*
X7313039Y-12671603D02*
X7322562Y-12709698D01*
X7322562Y-12709698D02*
X7322562Y-12738269D01*
X7322562Y-12738269D02*
X7313039Y-12776365D01*
X7313039Y-12776365D02*
X7303515Y-12795412D01*
X7303515Y-12795412D02*
X7284467Y-12814460D01*
X7284467Y-12814460D02*
X7255896Y-12823984D01*
X7255896Y-12823984D02*
X7208277Y-12823984D01*
X7408277Y-12823984D02*
X7408277Y-12690650D01*
X7408277Y-12728746D02*
X7417801Y-12709698D01*
X7417801Y-12709698D02*
X7427324Y-12700174D01*
X7427324Y-12700174D02*
X7446372Y-12690650D01*
X7446372Y-12690650D02*
X7465420Y-12690650D01*
X7532086Y-12823984D02*
X7532086Y-12690650D01*
X7532086Y-12623984D02*
X7522562Y-12633508D01*
X7522562Y-12633508D02*
X7532086Y-12643031D01*
X7532086Y-12643031D02*
X7541610Y-12633508D01*
X7541610Y-12633508D02*
X7532086Y-12623984D01*
X7532086Y-12623984D02*
X7532086Y-12643031D01*
X7655896Y-12823984D02*
X7636848Y-12814460D01*
X7636848Y-12814460D02*
X7627324Y-12795412D01*
X7627324Y-12795412D02*
X7627324Y-12623984D01*
X7760658Y-12823984D02*
X7741610Y-12814460D01*
X7741610Y-12814460D02*
X7732086Y-12795412D01*
X7732086Y-12795412D02*
X7732086Y-12623984D01*
X7989229Y-12823984D02*
X7989229Y-12623984D01*
X7989229Y-12623984D02*
X8055896Y-12766841D01*
X8055896Y-12766841D02*
X8122562Y-12623984D01*
X8122562Y-12623984D02*
X8122562Y-12823984D01*
X8303515Y-12823984D02*
X8303515Y-12719222D01*
X8303515Y-12719222D02*
X8293991Y-12700174D01*
X8293991Y-12700174D02*
X8274943Y-12690650D01*
X8274943Y-12690650D02*
X8236848Y-12690650D01*
X8236848Y-12690650D02*
X8217801Y-12700174D01*
X8303515Y-12814460D02*
X8284467Y-12823984D01*
X8284467Y-12823984D02*
X8236848Y-12823984D01*
X8236848Y-12823984D02*
X8217801Y-12814460D01*
X8217801Y-12814460D02*
X8208277Y-12795412D01*
X8208277Y-12795412D02*
X8208277Y-12776365D01*
X8208277Y-12776365D02*
X8217801Y-12757317D01*
X8217801Y-12757317D02*
X8236848Y-12747793D01*
X8236848Y-12747793D02*
X8284467Y-12747793D01*
X8284467Y-12747793D02*
X8303515Y-12738269D01*
X8398753Y-12690650D02*
X8398753Y-12890650D01*
X8398753Y-12700174D02*
X8417801Y-12690650D01*
X8417801Y-12690650D02*
X8455896Y-12690650D01*
X8455896Y-12690650D02*
X8474944Y-12700174D01*
X8474944Y-12700174D02*
X8484467Y-12709698D01*
X8484467Y-12709698D02*
X8493991Y-12728746D01*
X8493991Y-12728746D02*
X8493991Y-12785888D01*
X8493991Y-12785888D02*
X8484467Y-12804936D01*
X8484467Y-12804936D02*
X8474944Y-12814460D01*
X8474944Y-12814460D02*
X8455896Y-12823984D01*
X8455896Y-12823984D02*
X8417801Y-12823984D01*
X8417801Y-12823984D02*
X8398753Y-12814460D01*
X8579705Y-12804936D02*
X8589229Y-12814460D01*
X8589229Y-12814460D02*
X8579705Y-12823984D01*
X8579705Y-12823984D02*
X8570182Y-12814460D01*
X8570182Y-12814460D02*
X8579705Y-12804936D01*
X8579705Y-12804936D02*
X8579705Y-12823984D01*
X8579705Y-12700174D02*
X8589229Y-12709698D01*
X8589229Y-12709698D02*
X8579705Y-12719222D01*
X8579705Y-12719222D02*
X8570182Y-12709698D01*
X8570182Y-12709698D02*
X8579705Y-12700174D01*
X8579705Y-12700174D02*
X8579705Y-12719222D01*
M02*
