<?xml version="1.0" encoding="UTF-8" standalone="no"?>
<!DOCTYPE svg PUBLIC "-//W3C//DTD SVG 1.1//EN" "http://www.w3.org/Graphics/SVG/1.1/DTD/svg11.dtd">
<svg width="100%" height="100%" viewBox="0 0 2500 2500" version="1.1" xmlns="http://www.w3.org/2000/svg" xmlns:xlink="http://www.w3.org/1999/xlink" xml:space="preserve" xmlns:serif="http://www.serif.com/" style="fill-rule:evenodd;clip-rule:evenodd;stroke-linecap:round;stroke-miterlimit:1.5;">
    <g transform="matrix(12.969765,0,0,12.969765,0,0)">
        <g transform="matrix(0.077102,0,0,0.077102,6.168192,-40.941374)">
            <path d="M309.227,1737.666C406.787,1766.173 499.519,1768.496 566.146,1763.971C748.117,1751.614 838.951,1609.692 889.334,1522.352C1004.246,1323.15 786.373,1156.943 641.75,1400.95C594.537,1480.609 554.634,1599.752 510.192,1757.779C475.405,1881.473 453.639,2019.674 361.993,2121.475C204.528,2296.388 -50.696,2150.742 106.307,2054.959C195.382,2000.617 423.905,2111.505 568.569,2155.049C737.221,2205.815 1286.247,2376.041 2256.416,2154.787" style="fill:none;stroke:rgb(246,44,44);stroke-width:33px;"/>
        </g>
        <g transform="matrix(0.077102,0,0,0.077102,4.317734,-40.016146)">
            <path d="M849.118,1717.042C749.2,1972.377 759.447,2060.479 859.438,2056.64C973.809,2052.249 1028.052,1916.73 1081.562,1720.581" style="fill:none;stroke:rgb(246,44,44);stroke-width:33px;stroke-linejoin:round;"/>
        </g>
        <g transform="matrix(0.077102,0,0,0.077102,1.156536,-41.249784)">
            <path d="M1283.766,1731.407C1262.548,1800.735 1210.513,1997.964 1188.434,2072.214" style="fill:none;stroke:rgb(246,44,44);stroke-width:33px;stroke-linejoin:round;"/>
        </g>
        <g transform="matrix(0.077102,0,0,0.077102,0.925229,-39.939043)">
            <path d="M1243.155,1869.396C1287.477,1765.393 1343.094,1702.373 1415.857,1716.803C1483.687,1730.254 1486.732,1823.859 1482.786,1838.825C1465.137,1905.764 1444.039,1987.934 1423.119,2055.776" style="fill:none;stroke:rgb(246,44,44);stroke-width:33px;stroke-linejoin:round;"/>
        </g>
        <g transform="matrix(0.077102,0,0,0.077102,1.156536,-40.324555)">
            <path d="M1480.773,1848.449C1523.179,1754.033 1584.596,1706.597 1649.572,1721.378C1824.468,1761.166 1567.576,2022.652 1722.544,2059.932C1766.053,2070.399 1816.332,2023.68 1843.265,1991.814" style="fill:none;stroke:rgb(246,44,44);stroke-width:33px;stroke-linejoin:round;"/>
        </g>
        <g transform="matrix(0.077102,0,0,0.077102,0.077102,-40.247453)">
            <path d="M1914.776,1720.792C1886.126,1826.55 1874.682,1873.117 1865.701,1909.297C1830.654,2050.478 1908.714,2096.792 1998.357,2026.569" style="fill:none;stroke:rgb(246,44,44);stroke-width:33px;stroke-linejoin:round;"/>
        </g>
        <g transform="matrix(0.077102,0,0,0.077102,-60.06277,-39.630634)">
            <path d="M1917.776,1711.792C1891.126,1803.55 1868.682,1875.117 1862.701,1894.297C1819.394,2033.167 1892.714,2093.792 1988.357,2014.569" style="fill:none;stroke:rgb(246,44,44);stroke-width:33px;stroke-linejoin:round;"/>
        </g>
        <g transform="matrix(0.077102,0,0,0.077102,0,0)">
            <ellipse cx="1946.5" cy="1053.5" rx="12.5" ry="13.5" style="fill:rgb(255,7,0);stroke:rgb(246,44,44);stroke-width:33px;stroke-linejoin:round;"/>
        </g>
        <g transform="matrix(0.077102,0,0,0.077102,1.387843,-40.247453)">
            <path d="M2017.106,1715.243C2130.714,1723.006 2199.505,2066.946 2302.334,2065.182" style="fill:none;stroke:rgb(246,44,44);stroke-width:33px;stroke-linejoin:round;"/>
        </g>
        <g transform="matrix(0.077102,0,0,0.077102,1.387843,-40.247453)">
            <path d="M2014.664,2059.131C2054.001,2012.141 2254.651,1762.922 2292.58,1718.946" style="fill:none;stroke:rgb(246,44,44);stroke-width:33px;stroke-linejoin:round;"/>
        </g>
    </g>
</svg>
