%TF.GenerationSoftware,KiCad,Pcbnew,8.0.6*%
%TF.CreationDate,2025-04-07T23:29:29+03:00*%
%TF.ProjectId,USBC_90deg,55534243-5f39-4306-9465-672e6b696361,rev?*%
%TF.SameCoordinates,Original*%
%TF.FileFunction,Legend,Top*%
%TF.FilePolarity,Positive*%
%FSLAX46Y46*%
G04 Gerber Fmt 4.6, Leading zero omitted, Abs format (unit mm)*
G04 Created by KiCad (PCBNEW 8.0.6) date 2025-04-07 23:29:29*
%MOMM*%
%LPD*%
G01*
G04 APERTURE LIST*
%ADD10C,0.150000*%
%ADD11C,0.200000*%
G04 APERTURE END LIST*
D10*
X111483333Y-92046033D02*
X111483333Y-91346033D01*
X111483333Y-91346033D02*
X111750000Y-91346033D01*
X111750000Y-91346033D02*
X111816667Y-91379366D01*
X111816667Y-91379366D02*
X111850000Y-91412700D01*
X111850000Y-91412700D02*
X111883333Y-91479366D01*
X111883333Y-91479366D02*
X111883333Y-91579366D01*
X111883333Y-91579366D02*
X111850000Y-91646033D01*
X111850000Y-91646033D02*
X111816667Y-91679366D01*
X111816667Y-91679366D02*
X111750000Y-91712700D01*
X111750000Y-91712700D02*
X111483333Y-91712700D01*
X112550000Y-92046033D02*
X112150000Y-92046033D01*
X112350000Y-92046033D02*
X112350000Y-91346033D01*
X112350000Y-91346033D02*
X112283333Y-91446033D01*
X112283333Y-91446033D02*
X112216667Y-91512700D01*
X112216667Y-91512700D02*
X112150000Y-91546033D01*
X69256033Y-79806666D02*
X68556033Y-79806666D01*
X68556033Y-79806666D02*
X68556033Y-79539999D01*
X68556033Y-79539999D02*
X68589366Y-79473333D01*
X68589366Y-79473333D02*
X68622700Y-79439999D01*
X68622700Y-79439999D02*
X68689366Y-79406666D01*
X68689366Y-79406666D02*
X68789366Y-79406666D01*
X68789366Y-79406666D02*
X68856033Y-79439999D01*
X68856033Y-79439999D02*
X68889366Y-79473333D01*
X68889366Y-79473333D02*
X68922700Y-79539999D01*
X68922700Y-79539999D02*
X68922700Y-79806666D01*
X68622700Y-79139999D02*
X68589366Y-79106666D01*
X68589366Y-79106666D02*
X68556033Y-79039999D01*
X68556033Y-79039999D02*
X68556033Y-78873333D01*
X68556033Y-78873333D02*
X68589366Y-78806666D01*
X68589366Y-78806666D02*
X68622700Y-78773333D01*
X68622700Y-78773333D02*
X68689366Y-78739999D01*
X68689366Y-78739999D02*
X68756033Y-78739999D01*
X68756033Y-78739999D02*
X68856033Y-78773333D01*
X68856033Y-78773333D02*
X69256033Y-79173333D01*
X69256033Y-79173333D02*
X69256033Y-78739999D01*
D11*
%TO.C,P1*%
X106220000Y-82730000D02*
X108600000Y-82730000D01*
X108600000Y-89360000D02*
X108600000Y-82730000D01*
X108600000Y-89360000D02*
X115400000Y-89390000D01*
X115400000Y-89390000D02*
X115400000Y-82730000D01*
X117780000Y-82730000D02*
X115420000Y-82730000D01*
%TO.C,P2*%
X59940000Y-85070000D02*
X59940000Y-82690000D01*
X66570000Y-82690000D02*
X59940000Y-82690000D01*
X66570000Y-82690000D02*
X66600000Y-75890000D01*
X66600000Y-75890000D02*
X59940000Y-75890000D01*
X59940000Y-73510000D02*
X59940000Y-75870000D01*
%TD*%
M02*
