M48
; DRILL file {KiCad 9.0.3} date 2025-08-11T00:11:34+0300
; FORMAT={-:-/ absolute / metric / decimal}
; #@! TF.CreationDate,2025-08-11T00:11:34+03:00
; #@! TF.GenerationSoftware,Kicad,Pcbnew,9.0.3
; #@! TF.FileFunction,Plated,1,2,PTH
FMAT,2
METRIC
; #@! TA.AperFunction,Plated,PTH,ViaDrill
T1C0.300
%
G90
G05
T1
X74.77Y-100.39
X76.28Y-101.04
X95.0Y-62.0
X95.0Y-73.0
X96.0Y-62.0
X96.0Y-73.0
X97.0Y-62.0
X97.0Y-73.0
X98.0Y-62.0
X98.0Y-73.0
X99.0Y-62.0
X99.0Y-73.0
X114.48Y-78.8
X114.497Y-84.083
X114.5Y-81.49
X114.5Y-82.94
X115.65Y-78.84
X116.94Y-78.84
X122.58Y-83.67
X122.98Y-78.9
X123.77Y-85.95
X124.33Y-78.88
X124.91Y-85.96
X126.18Y-85.96
X180.2Y-72.0
X180.22Y-70.42
M30
