0
SECTION
2
HEADER
9
$INSUNITS
70
4
9
$ACADVER
1
AC1014
9
$HANDSEED
5
FFFF
0
ENDSEC
0
SECTION
2
TABLES
0
TABLE
2
VPORT
5
8
100
AcDbSymbolTable
0
ENDTAB
0
TABLE
2
LTYPE
5
5
100
AcDbSymbolTable
0
LTYPE
5
14
100
AcDbSymbolTableRecord
100
AcDbLinetypeTableRecord
2
BYBLOCK
70
0
0
LTYPE
5
15
100
AcDbSymbolTableRecord
100
AcDbLinetypeTableRecord
2
BYLAYER
70
0
0
LTYPE
5
16
100
AcDbSymbolTableRecord
100
AcDbLinetypeTableRecord
2
DASHED
70
0
3
Dashed __ __ __ __ __ __ __ __ __ __ __ __ __ _
72
65
73
2
40
0.75
49
0.5
74
0
49
-0.25
74
0
0
ENDTAB
0
TABLE
2
LAYER
5
2
100
AcDbSymbolTable
70
3
0
LAYER
5
50
100
AcDbSymbolTableRecord
100
AcDbLayerTableRecord
2
1
70
0
62
7
6
DASHED
0
LAYER
5
51
100
AcDbSymbolTableRecord
100
AcDbLayerTableRecord
2
0
70
0
62
7
6
CONTINUOUS
0
ENDTAB
0
TABLE
2
STYLE
5
3
100
AcDbSymbolTable
70
1
0
STYLE
5
11
100
AcDbSymbolTableRecord
100
AcDbTextStyleTableRecord
2
STANDARD
70
0
0
ENDTAB
0
TABLE
2
VIEW
5
6
100
AcDbSymbolTable
70
0
0
ENDTAB
0
TABLE
2
UCS
5
7
100
AcDbSymbolTable
70
0
0
ENDTAB
0
TABLE
2
APPID
5
9
100
AcDbSymbolTable
70
2
0
APPID
5
12
100
AcDbSymbolTableRecord
100
AcDbRegAppTableRecord
2
ACAD
70
0
0
ENDTAB
0
TABLE
2
DIMSTYLE
5
A
100
AcDbSymbolTable
70
1
0
ENDTAB
0
TABLE
2
BLOCK_RECORD
5
1
100
AcDbSymbolTable
70
1
0
BLOCK_RECORD
5
1F
100
AcDbSymbolTableRecord
100
AcDbBlockTableRecord
2
*MODEL_SPACE
0
BLOCK_RECORD
5
1B
100
AcDbSymbolTableRecord
100
AcDbBlockTableRecord
2
*PAPER_SPACE
0
ENDTAB
0
ENDSEC
0
SECTION
2
BLOCKS
0
BLOCK
5
20
100
AcDbEntity
100
AcDbBlockBegin
2
*MODEL_SPACE
0
ENDBLK
5
21
100
AcDbEntity
100
AcDbBlockEnd
0
BLOCK
5
1C
100
AcDbEntity
100
AcDbBlockBegin
2
*PAPER_SPACE
0
ENDBLK
5
1D
100
AcDbEntity
100
AcDbBlockEnd
0
ENDSEC
0
SECTION
2
ENTITIES
0
POINT
5
100
100
AcDbEntity
8
0
100
AcDbPoint
10
49.300000014901158
20
33.999999985098846
30
0
0
POINT
5
101
100
AcDbEntity
8
0
100
AcDbPoint
10
36.419516421103886
20
31.022969525954096
30
0
0
POINT
5
102
100
AcDbEntity
8
0
100
AcDbPoint
10
11.419516421103884
20
31.022969525954096
30
0
0
POINT
5
103
100
AcDbEntity
8
0
100
AcDbPoint
10
36.419516421103886
20
28.022969525954096
30
0
0
LINE
5
104
100
AcDbEntity
8
0
100
AcDbLine
10
16.99999999999989
20
-3.9975297122346025e-16
30
0
11
119.00000000000003
21
-3.9975297122346025e-16
31
0
0
LINE
5
105
100
AcDbEntity
8
0
100
AcDbLine
10
136
20
17.000000000000004
30
0
11
136
21
18.000000000000007
31
0
0
LINE
5
106
100
AcDbEntity
8
0
100
AcDbLine
10
119.00000000000003
20
35
30
0
11
17
21
35
31
0
0
LINE
5
107
100
AcDbEntity
8
0
100
AcDbLine
10
0
20
18
30
0
11
-1.1102230246251526e-13
21
17
31
0
0
ARC
5
108
100
AcDbEntity
8
0
100
AcDbCircle
10
17
20
18
30
0
40
17
210
0
220
-0
230
1
100
AcDbArc
50
90
51
180
0
ARC
5
109
100
AcDbEntity
8
0
100
AcDbCircle
10
119.00000000000003
20
18.000000000000007
30
0
40
16.999999999999993
210
-0
220
0
230
1
100
AcDbArc
50
0
51
90
0
ARC
5
110
100
AcDbEntity
8
0
100
AcDbCircle
10
119.00000000000003
20
17
30
0
40
17
210
0
220
0
230
1
100
AcDbArc
50
-90
51
0
0
LINE
5
111
100
AcDbEntity
8
0
100
AcDbLine
10
1.9999999999999987
20
18.000000000000004
30
0
11
1.9999999999999041
21
17.000000000000014
31
0
0
ARC
5
112
100
AcDbEntity
8
0
100
AcDbCircle
10
16.99999999999989
20
17
30
0
40
14.999999999999986
210
0
220
0
230
1
100
AcDbArc
50
180
51
270.00000000000006
0
LINE
5
113
100
AcDbEntity
8
0
100
AcDbLine
10
16.999999999999901
20
2.0000000000000009
30
0
11
119.00000000000003
21
1.9999999999999982
31
0
0
ARC
5
114
100
AcDbEntity
8
0
100
AcDbCircle
10
119.00000000000003
20
17
30
0
40
15.000000000000004
210
0
220
0
230
1
100
AcDbArc
50
-90
51
0
0
LINE
5
115
100
AcDbEntity
8
0
100
AcDbLine
10
134.00000000000003
20
17
30
0
11
134.00000000000003
21
18.000000000000007
31
0
0
ARC
5
116
100
AcDbEntity
8
0
100
AcDbCircle
10
119.00000000000003
20
18.000000000000007
30
0
40
15
210
0
220
0
230
1
100
AcDbArc
50
0
51
90
0
LINE
5
117
100
AcDbEntity
8
0
100
AcDbLine
10
119.00000000000003
20
33
30
0
11
16.999999999999996
21
33
31
0
0
ARC
5
118
100
AcDbEntity
8
0
100
AcDbCircle
10
17
20
18
30
0
40
14.999999999999998
210
0
220
0
230
1
100
AcDbArc
50
90.000000000000014
51
180
0
LWPOLYLINE
5
119
100
AcDbEntity
8
0
100
AcDbPolyline
90
4
70
1
43
0.0
10
131.04585837753575
20
14.627098635848553
10
131.04585837753575
20
20.327098434682842
42
0.99999999999999989
10
127.7458583775358
20
20.327098434682842
10
127.7458583775358
20
14.627098635848553
42
0.99999999999999989
0
LINE
5
120
100
AcDbEntity
8
1
100
AcDbLine
10
129.39585837753577
20
12.977098635848579
30
0
11
129.39585837753577
21
21.977098434682816
31
0
0
LWPOLYLINE
5
121
100
AcDbEntity
8
0
100
AcDbPolyline
90
4
70
1
43
0.0
10
128.04585837753581
20
20.327098434682842
10
128.04585837753581
20
14.627098635848553
42
0.99999999999999989
10
130.74585837753577
20
14.627098635848553
10
130.74585837753577
20
20.327098434682842
42
0.99999999999999989
0
LINE
5
122
100
AcDbEntity
8
0
100
AcDbLine
10
130.31400000000002
20
27.848522934938025
30
0
11
130.31400000000002
21
7.151477065061977
31
0
0
LINE
5
123
100
AcDbEntity
8
0
100
AcDbLine
10
130.31400000000002
20
22.848522934938025
30
0
11
133.93257597835623
21
22.848522934938025
31
0
0
LINE
5
124
100
AcDbEntity
8
0
100
AcDbLine
10
130.31400000000002
20
12.151477065061977
30
0
11
133.93257597835623
21
12.151477065061977
31
0
0
LINE
5
125
100
AcDbEntity
8
0
100
AcDbLine
10
5.6860000000000017
20
28.88500822232119
30
0
11
5.6859999999999991
21
7.1514770650618829
31
0
0
LINE
5
126
100
AcDbEntity
8
0
100
AcDbLine
10
5.6860000000000017
20
22.848522934938007
30
0
11
2.8052183761292016
21
22.848522934938007
31
0
0
LINE
5
127
100
AcDbEntity
8
0
100
AcDbLine
10
5.6859999999999991
20
12.151477065061883
30
0
11
2.8052183761291447
21
12.151477065061883
31
0
0
LINE
5
128
100
AcDbEntity
8
0
100
AcDbLine
10
1.0000000149011612
20
16.999999493360519
30
0
11
1.0000000149011612
21
17.999999985098839
31
0
0
ARC
5
129
100
AcDbEntity
8
0
100
AcDbCircle
10
17.000000014901161
20
16.999999493360523
30
0
40
16
210
0
220
0
230
1
100
AcDbArc
50
180
51
270
0
ARC
5
130
100
AcDbEntity
8
0
100
AcDbCircle
10
17.000000014901158
20
17.999999985098846
30
0
40
15.999999999999996
210
0
220
-0
230
1
100
AcDbArc
50
89.999999999999986
51
180
0
LINE
5
131
100
AcDbEntity
8
0
100
AcDbLine
10
20.400000453740343
20
33.699999999999996
30
0
11
20.400000453740347
21
31.200000775605453
31
0
0
LINE
5
132
100
AcDbEntity
8
0
100
AcDbLine
10
20.400000453740347
20
31.200000775605453
30
0
11
15.600000453740353
21
31.200000775605446
31
0
0
LINE
5
133
100
AcDbEntity
8
0
100
AcDbLine
10
15.600000453740353
20
31.200000775605446
30
0
11
15.600000453740353
21
33.637455076529321
31
0
0
LWPOLYLINE
5
134
100
AcDbEntity
8
0
100
AcDbPolyline
90
4
70
1
43
0.0
10
45.699999863654376
20
33.000001475214972
10
45.699999863654376
20
2.0000014305114888
10
49.899999863654372
20
2.0000014305114888
10
49.899999863654372
20
33.000001475214972
0
LINE
5
135
100
AcDbEntity
8
0
100
AcDbLine
10
45.686000000000007
20
23.000000000000004
30
0
11
5.6859999999999928
21
23.000000000000004
31
0
0
ARC
5
136
100
AcDbEntity
8
0
100
AcDbCircle
10
15.985999999999995
20
12.000000000000002
30
0
40
10.300000000000001
210
0
220
0
230
1
100
AcDbArc
50
180
51
270
0
LINE
5
137
100
AcDbEntity
8
0
100
AcDbLine
10
15.985999999999995
20
1.7000000000000015
30
0
11
35.386000000000017
21
1.7000000000000006
31
0
0
ARC
5
138
100
AcDbEntity
8
0
100
AcDbCircle
10
35.386000000000017
20
11.999999999999996
30
0
40
10.299999999999995
210
0
220
0
230
1
100
AcDbArc
50
-90
51
0
0
LINE
5
139
100
AcDbEntity
8
0
100
AcDbLine
10
45.686000000000007
20
11.999999999999996
30
0
11
45.686000000000007
21
23.000000000000004
31
0
0
ARC
5
140
100
AcDbEntity
8
0
100
AcDbCircle
10
17.000000000000238
20
17
30
0
40
16.999999999999972
210
0
220
0
230
1
100
AcDbArc
50
180
51
270
0
LINE
5
141
100
AcDbEntity
8
0
100
AcDbLine
10
47.400000000000013
20
2
30
0
11
47.400000000000013
21
22.980838116989439
31
0
0
LINE
5
142
100
AcDbEntity
8
0
100
AcDbLine
10
47.400000000000013
20
22.980838116989439
30
0
11
45.699999863654376
21
22.980838116989439
31
0
0
LINE
5
143
100
AcDbEntity
8
0
100
AcDbLine
10
45.686000000000007
20
23.000000000000004
30
0
11
45.699999863654376
21
23.000000000000004
31
0
0
LWPOLYLINE
5
144
100
AcDbEntity
8
0
100
AcDbPolyline
90
8
70
1
43
0.0
10
16.999999999999904
20
1.3000000000000123
10
119.00000000000003
20
1.2999999999999989
42
0.41421356237309509
10
134.70000000000002
20
17
10
134.70000000000002
20
18.000000000000007
42
0.41421356237309509
10
119.00000000000003
20
33.700000000000003
10
16.999999999999993
20
33.699999999999996
42
0.41421356237309481
10
1.3000000000000034
20
18.000000000000004
10
1.2999999999999035
20
17.000000000000078
42
0.41421356237309676
0
LINE
5
145
100
AcDbEntity
8
0
100
AcDbLine
10
49.890000000000015
20
1.9999999999999982
30
0
11
49.890000000000015
21
1.3000000000000076
31
0
0
LINE
5
146
100
AcDbEntity
8
0
100
AcDbLine
10
119.00000000000003
20
1.299999999999998
30
0
11
119.00000000000003
21
15.000000223517418
31
0
0
LINE
5
147
100
AcDbEntity
8
0
100
AcDbLine
10
119.00000000000003
20
15.000000223517418
30
0
11
49.899999863654372
21
15.000000223517418
31
0
0
LINE
5
148
100
AcDbEntity
8
0
100
AcDbLine
10
17.000000014901161
20
33.999999985098846
30
0
11
47.800000014901165
21
33.999999985098846
31
0
0
LINE
5
149
100
AcDbEntity
8
0
100
AcDbLine
10
49.300000014901158
20
32.499999985098832
30
0
11
49.300000014901158
21
2.4999999850988521
31
0
0
LINE
5
150
100
AcDbEntity
8
0
100
AcDbLine
10
47.800000014901151
20
0.99999998509884003
30
0
11
17.000000014901161
21
0.99999998509884058
31
0
0
ARC
5
151
100
AcDbEntity
8
0
100
AcDbCircle
10
47.800000014901151
20
32.499999985098832
30
0
40
1.5000000000000124
210
0
220
-0
230
1
100
AcDbArc
50
0
51
89.99999999999946
0
ARC
5
152
100
AcDbEntity
8
0
100
AcDbCircle
10
47.800000014901151
20
2.4999999850988521
30
0
40
1.5000000000000122
210
-0
220
0
230
1
100
AcDbArc
50
-90
51
0
0
LINE
5
153
100
AcDbEntity
8
0
100
AcDbLine
10
4.0859999999999932
20
22.848522934938007
30
0
11
4.0859999999999932
21
12.151477065061883
31
0
0
LINE
5
154
100
AcDbEntity
8
0
100
AcDbLine
10
2.6860000000000008
20
20.502478479795716
30
0
11
2.6860000000000008
21
14.502478479795716
31
0
0
CIRCLE
5
155
100
AcDbEntity
8
0
100
AcDbCircle
10
45.296739695463913
20
4.1680326527253548
30
0
40
0.62499999999999867
210
0
220
0
230
1
0
CIRCLE
5
156
100
AcDbEntity
8
0
100
AcDbCircle
10
45.296739695463913
20
4.1680326527253548
30
0
40
0.80000000000000071
210
0
220
0
230
1
0
CIRCLE
5
157
100
AcDbEntity
8
0
100
AcDbCircle
10
45.296739695463913
20
4.1680326527253548
30
0
40
1.5000000000000009
210
0
220
0
230
1
0
CIRCLE
5
158
100
AcDbEntity
8
0
100
AcDbCircle
10
3.885999999999993
20
12.151477065061883
30
0
40
0.62499999999999867
210
0
220
0
230
1
0
CIRCLE
5
159
100
AcDbEntity
8
0
100
AcDbCircle
10
3.885999999999993
20
12.151477065061883
30
0
40
0.80000000000000071
210
0
220
0
230
1
0
CIRCLE
5
160
100
AcDbEntity
8
0
100
AcDbCircle
10
3.885999999999993
20
12.151477065061883
30
0
40
1.5000000000000009
210
0
220
0
230
1
0
CIRCLE
5
161
100
AcDbEntity
8
0
100
AcDbCircle
10
4.0859999999999932
20
17.501477065061884
30
0
40
0.80000000000000071
210
0
220
0
230
1
0
LINE
5
162
100
AcDbEntity
8
0
100
AcDbLine
10
5.6860000000000008
20
20.502478479795716
30
0
11
2.2102196954059083
21
20.502478479795716
31
0
0
LINE
5
163
100
AcDbEntity
8
0
100
AcDbLine
10
5.6860000000000008
20
14.502478479795716
30
0
11
2.2093818162958683
21
14.502478479795716
31
0
0
CIRCLE
5
164
100
AcDbEntity
8
0
100
AcDbCircle
10
3.885999999999993
20
22.851477065061886
30
0
40
1.5000000000000009
210
0
220
0
230
1
0
CIRCLE
5
165
100
AcDbEntity
8
0
100
AcDbCircle
10
3.885999999999993
20
22.851477065061886
30
0
40
0.80000000000000071
210
0
220
0
230
1
0
CIRCLE
5
166
100
AcDbEntity
8
0
100
AcDbCircle
10
3.885999999999993
20
22.851477065061886
30
0
40
0.62499999999999867
210
0
220
0
230
1
0
LINE
5
167
100
AcDbEntity
8
0
100
AcDbLine
10
130.31400000000002
20
12.163345865602624
30
0
11
130.31400000000002
21
22.848522934938025
31
0
0
LINE
5
168
100
AcDbEntity
8
0
100
AcDbLine
10
44.337503782435441
20
3.0148342902757577
30
0
11
42.49542961020456
21
4.5470803964119701
31
0
0
LINE
5
169
100
AcDbEntity
8
0
100
AcDbLine
10
44.34148105387461
20
6.9118412865071459
30
0
11
46.255307308125339
21
5.3217865831440516
31
0
0
LINE
5
170
100
AcDbEntity
8
0
100
AcDbLine
10
4.6859945456784065
20
22.848522934938007
30
0
11
4.6859945456784065
21
20.502478479795716
31
0
0
LINE
5
171
100
AcDbEntity
8
0
100
AcDbLine
10
3.0860054543215769
20
22.848522934938007
30
0
11
3.0860054543215769
21
20.502478479795716
31
0
0
LINE
5
172
100
AcDbEntity
8
0
100
AcDbLine
10
4.6859999999999937
20
12.151477065061883
30
0
11
4.6859999999999937
21
14.502478479795716
31
0
0
LINE
5
173
100
AcDbEntity
8
0
100
AcDbLine
10
3.0859999999999923
20
12.151477065061883
30
0
11
3.0859999999999923
21
14.502478479795716
31
0
0
LWPOLYLINE
5
174
100
AcDbEntity
8
0
100
AcDbPolyline
90
8
70
1
43
0.0
10
35.419516421103886
20
31.022969525954096
10
12.4195164211039
20
31.022969525954096
42
0.41421356237309637
10
11.419516421103886
20
30.022969525954085
10
11.419516421103886
20
29.022969525954107
42
0.41421356237309509
10
12.419516421103896
20
28.022969525954096
10
35.419516421103879
20
28.022969525954096
42
0.41421356237309509
10
36.419516421103886
20
29.022969525954107
10
36.419516421103886
20
30.022969525954096
42
0.41421356237308982
0
LINE
5
175
100
AcDbEntity
8
0
100
AcDbLine
10
119.00000000000003
20
1.299999999999998
30
0
11
119.00000000000003
21
0.79999999999999805
31
0
0
LINE
5
176
100
AcDbEntity
8
0
100
AcDbLine
10
119.00000000000003
20
0.79999999999999805
30
0
11
49.890000000000015
21
0.79999999999999916
31
0
0
LINE
5
177
100
AcDbEntity
8
0
100
AcDbLine
10
49.890000000000015
20
0.79999999999999916
30
0
11
49.890000000000015
21
1.3000000000000076
31
0
0
LINE
5
178
100
AcDbEntity
8
0
100
AcDbLine
10
127.44585837753581
20
14.627098635848553
30
0
11
127.44585837753581
21
20.327098434682842
31
0
0
LWPOLYLINE
5
179
100
AcDbEntity
8
0
100
AcDbPolyline
90
4
70
1
43
0.0
10
127.44585837753581
20
14.627098635848553
10
126.44585837753581
20
14.627098635848553
10
126.44585837753581
20
20.327098434682842
10
127.44585837753581
20
20.327098434682842
0
LWPOLYLINE
5
180
100
AcDbEntity
8
0
100
AcDbPolyline
90
4
70
1
43
0.0
10
14.958847959322604
20
25.993827557768078
10
9.9588478848167998
20
25.993827557768078
42
0.99999999999999989
10
9.9588478848167998
20
23.99382752796576
10
14.958847959322604
20
23.99382752796576
42
0.99999999999999989
0
LINE
5
181
100
AcDbEntity
8
1
100
AcDbLine
10
15.958847974223765
20
24.993827542866917
30
0
11
8.9588478699156422
21
24.993827542866917
31
0
0
LWPOLYLINE
5
182
100
AcDbEntity
8
0
100
AcDbPolyline
90
4
70
1
43
0.0
10
14.958847959322604
20
23.293827557768072
10
9.9588478848167998
20
23.293827557768072
42
0.99999999999999989
10
9.9588478848167998
20
21.293827527965753
10
14.958847959322604
20
21.293827527965753
42
0.99999999999999989
0
LINE
5
183
100
AcDbEntity
8
0
100
AcDbLine
10
15.958847974223765
20
24.993827542866917
30
0
11
15.958847974223765
21
22.293827542866914
31
0
0
LINE
5
184
100
AcDbEntity
8
0
100
AcDbLine
10
8.9588478699156422
20
24.993827542866917
30
0
11
8.9588478699156422
21
22.293827542866914
31
0
0
LINE
5
185
100
AcDbEntity
8
0
100
AcDbLine
10
43.698013173749793
20
2.2460353819760255
30
0
11
41.728418954862718
21
3.8843532727823638
31
0
0
LINE
5
186
100
AcDbEntity
8
0
100
AcDbLine
10
44.803338808485734
20
7.8282222295298691
30
0
11
46.894352383232956
21
6.0909558700898412
31
0
0
ARC
5
187
100
AcDbEntity
8
0
100
AcDbCircle
10
44.271922319955067
20
5.0199784783997607
30
0
40
2.8326898895387336
210
0
220
0
230
1
100
AcDbArc
50
-101.68916882375268
51
22.21467291523668
0
CIRCLE
5
188
100
AcDbEntity
8
0
100
AcDbCircle
10
125.00000186264515
20
25.00000037252903
30
0
40
1.5000000000000067
210
0
220
0
230
1
0
CIRCLE
5
189
100
AcDbEntity
8
0
100
AcDbCircle
10
125.00000186264515
20
25.00000037252903
30
0
40
0.62500000000000089
210
0
220
0
230
1
0
LINE
5
190
100
AcDbEntity
8
0
100
AcDbLine
10
9.4534112352424913
20
4.0366286014927075
30
0
11
9.4534112352424913
21
3.2326837032180844
31
0
0
LINE
5
191
100
AcDbEntity
8
0
100
AcDbLine
10
37.853792535850623
20
2.0000000000000009
30
0
11
37.853792535850623
21
1.3000000000000096
31
0
0
LINE
5
192
100
AcDbEntity
8
0
100
AcDbLine
10
47.400000000000013
20
2
30
0
11
47.400000000000013
21
1.2999999709427357
31
0
0
ENDSEC
0
SECTION
2
OBJECTS
0
DICTIONARY
5
C
100
AcDbDictionary
3
ACAD_GROUP
350
D
3
ACAD_MLINESTYLE
350
17
0
DICTIONARY
5
D
100
AcDbDictionary
0
DICTIONARY
5
1A
330
C
100
AcDbDictionary
0
DICTIONARY
5
17
100
AcDbDictionary
0
ENDSEC
0
EOF
