%TF.GenerationSoftware,KiCad,Pcbnew,9.0.3*%
%TF.CreationDate,2025-08-10T01:48:50+03:00*%
%TF.ProjectId,Right,52696768-742e-46b6-9963-61645f706362,rev?*%
%TF.SameCoordinates,Original*%
%TF.FileFunction,Legend,Top*%
%TF.FilePolarity,Positive*%
%FSLAX46Y46*%
G04 Gerber Fmt 4.6, Leading zero omitted, Abs format (unit mm)*
G04 Created by KiCad (PCBNEW 9.0.3) date 2025-08-10 01:48:50*
%MOMM*%
%LPD*%
G01*
G04 APERTURE LIST*
%ADD10C,0.250000*%
G04 APERTURE END LIST*
D10*
X132137141Y-101590142D02*
X132137141Y-102447285D01*
X132137141Y-102447285D02*
X132079998Y-102618714D01*
X132079998Y-102618714D02*
X131965712Y-102733000D01*
X131965712Y-102733000D02*
X131794284Y-102790142D01*
X131794284Y-102790142D02*
X131679998Y-102790142D01*
X133279998Y-102790142D02*
X132708570Y-102790142D01*
X132708570Y-102790142D02*
X132708570Y-101590142D01*
X134365713Y-102675857D02*
X134308570Y-102733000D01*
X134308570Y-102733000D02*
X134137142Y-102790142D01*
X134137142Y-102790142D02*
X134022856Y-102790142D01*
X134022856Y-102790142D02*
X133851427Y-102733000D01*
X133851427Y-102733000D02*
X133737142Y-102618714D01*
X133737142Y-102618714D02*
X133679999Y-102504428D01*
X133679999Y-102504428D02*
X133622856Y-102275857D01*
X133622856Y-102275857D02*
X133622856Y-102104428D01*
X133622856Y-102104428D02*
X133679999Y-101875857D01*
X133679999Y-101875857D02*
X133737142Y-101761571D01*
X133737142Y-101761571D02*
X133851427Y-101647285D01*
X133851427Y-101647285D02*
X134022856Y-101590142D01*
X134022856Y-101590142D02*
X134137142Y-101590142D01*
X134137142Y-101590142D02*
X134308570Y-101647285D01*
X134308570Y-101647285D02*
X134365713Y-101704428D01*
X135222856Y-101590142D02*
X135222856Y-102447285D01*
X135222856Y-102447285D02*
X135165713Y-102618714D01*
X135165713Y-102618714D02*
X135051427Y-102733000D01*
X135051427Y-102733000D02*
X134879999Y-102790142D01*
X134879999Y-102790142D02*
X134765713Y-102790142D01*
X136365713Y-102790142D02*
X135794285Y-102790142D01*
X135794285Y-102790142D02*
X135794285Y-101590142D01*
X137451428Y-102675857D02*
X137394285Y-102733000D01*
X137394285Y-102733000D02*
X137222857Y-102790142D01*
X137222857Y-102790142D02*
X137108571Y-102790142D01*
X137108571Y-102790142D02*
X136937142Y-102733000D01*
X136937142Y-102733000D02*
X136822857Y-102618714D01*
X136822857Y-102618714D02*
X136765714Y-102504428D01*
X136765714Y-102504428D02*
X136708571Y-102275857D01*
X136708571Y-102275857D02*
X136708571Y-102104428D01*
X136708571Y-102104428D02*
X136765714Y-101875857D01*
X136765714Y-101875857D02*
X136822857Y-101761571D01*
X136822857Y-101761571D02*
X136937142Y-101647285D01*
X136937142Y-101647285D02*
X137108571Y-101590142D01*
X137108571Y-101590142D02*
X137222857Y-101590142D01*
X137222857Y-101590142D02*
X137394285Y-101647285D01*
X137394285Y-101647285D02*
X137451428Y-101704428D01*
X138308571Y-101590142D02*
X138308571Y-102447285D01*
X138308571Y-102447285D02*
X138251428Y-102618714D01*
X138251428Y-102618714D02*
X138137142Y-102733000D01*
X138137142Y-102733000D02*
X137965714Y-102790142D01*
X137965714Y-102790142D02*
X137851428Y-102790142D01*
X139451428Y-102790142D02*
X138880000Y-102790142D01*
X138880000Y-102790142D02*
X138880000Y-101590142D01*
X140537143Y-102675857D02*
X140480000Y-102733000D01*
X140480000Y-102733000D02*
X140308572Y-102790142D01*
X140308572Y-102790142D02*
X140194286Y-102790142D01*
X140194286Y-102790142D02*
X140022857Y-102733000D01*
X140022857Y-102733000D02*
X139908572Y-102618714D01*
X139908572Y-102618714D02*
X139851429Y-102504428D01*
X139851429Y-102504428D02*
X139794286Y-102275857D01*
X139794286Y-102275857D02*
X139794286Y-102104428D01*
X139794286Y-102104428D02*
X139851429Y-101875857D01*
X139851429Y-101875857D02*
X139908572Y-101761571D01*
X139908572Y-101761571D02*
X140022857Y-101647285D01*
X140022857Y-101647285D02*
X140194286Y-101590142D01*
X140194286Y-101590142D02*
X140308572Y-101590142D01*
X140308572Y-101590142D02*
X140480000Y-101647285D01*
X140480000Y-101647285D02*
X140537143Y-101704428D01*
X141394286Y-101590142D02*
X141394286Y-102447285D01*
X141394286Y-102447285D02*
X141337143Y-102618714D01*
X141337143Y-102618714D02*
X141222857Y-102733000D01*
X141222857Y-102733000D02*
X141051429Y-102790142D01*
X141051429Y-102790142D02*
X140937143Y-102790142D01*
X142537143Y-102790142D02*
X141965715Y-102790142D01*
X141965715Y-102790142D02*
X141965715Y-101590142D01*
X143622858Y-102675857D02*
X143565715Y-102733000D01*
X143565715Y-102733000D02*
X143394287Y-102790142D01*
X143394287Y-102790142D02*
X143280001Y-102790142D01*
X143280001Y-102790142D02*
X143108572Y-102733000D01*
X143108572Y-102733000D02*
X142994287Y-102618714D01*
X142994287Y-102618714D02*
X142937144Y-102504428D01*
X142937144Y-102504428D02*
X142880001Y-102275857D01*
X142880001Y-102275857D02*
X142880001Y-102104428D01*
X142880001Y-102104428D02*
X142937144Y-101875857D01*
X142937144Y-101875857D02*
X142994287Y-101761571D01*
X142994287Y-101761571D02*
X143108572Y-101647285D01*
X143108572Y-101647285D02*
X143280001Y-101590142D01*
X143280001Y-101590142D02*
X143394287Y-101590142D01*
X143394287Y-101590142D02*
X143565715Y-101647285D01*
X143565715Y-101647285D02*
X143622858Y-101704428D01*
M02*
