%TF.GenerationSoftware,KiCad,Pcbnew,9.0.3*%
%TF.CreationDate,2025-08-09T15:08:58+03:00*%
%TF.ProjectId,Right,52696768-742e-46b6-9963-61645f706362,rev?*%
%TF.SameCoordinates,Original*%
%TF.FileFunction,Copper,L2,Bot*%
%TF.FilePolarity,Positive*%
%FSLAX46Y46*%
G04 Gerber Fmt 4.6, Leading zero omitted, Abs format (unit mm)*
G04 Created by KiCad (PCBNEW 9.0.3) date 2025-08-09 15:08:58*
%MOMM*%
%LPD*%
G01*
G04 APERTURE LIST*
G04 Aperture macros list*
%AMRoundRect*
0 Rectangle with rounded corners*
0 $1 Rounding radius*
0 $2 $3 $4 $5 $6 $7 $8 $9 X,Y pos of 4 corners*
0 Add a 4 corners polygon primitive as box body*
4,1,4,$2,$3,$4,$5,$6,$7,$8,$9,$2,$3,0*
0 Add four circle primitives for the rounded corners*
1,1,$1+$1,$2,$3*
1,1,$1+$1,$4,$5*
1,1,$1+$1,$6,$7*
1,1,$1+$1,$8,$9*
0 Add four rect primitives between the rounded corners*
20,1,$1+$1,$2,$3,$4,$5,0*
20,1,$1+$1,$4,$5,$6,$7,0*
20,1,$1+$1,$6,$7,$8,$9,0*
20,1,$1+$1,$8,$9,$2,$3,0*%
G04 Aperture macros list end*
%TA.AperFunction,SMDPad,CuDef*%
%ADD10R,2.000000X2.000000*%
%TD*%
%TA.AperFunction,SMDPad,CuDef*%
%ADD11RoundRect,0.200000X-0.300000X0.200000X-0.300000X-0.200000X0.300000X-0.200000X0.300000X0.200000X0*%
%TD*%
%TA.AperFunction,ViaPad*%
%ADD12C,0.500000*%
%TD*%
%TA.AperFunction,Conductor*%
%ADD13C,0.140000*%
%TD*%
G04 APERTURE END LIST*
D10*
%TO.P,SW2,1,A*%
%TO.N,Net-(J1-Pin_7)*%
X148170000Y-122030000D03*
%TO.P,SW2,2,B*%
%TO.N,Net-(J1-Pin_5)*%
X141940000Y-122020000D03*
%TO.P,SW2,3*%
%TO.N,N/C*%
X148170000Y-119240000D03*
%TO.P,SW2,4*%
X141940000Y-119260000D03*
%TD*%
D11*
%TO.P,D2,1,K*%
%TO.N,Net-(D2-K)*%
X127170000Y-103500000D03*
%TO.P,D2,2,A*%
%TO.N,Net-(D2-A)*%
X127170000Y-105100000D03*
%TD*%
%TO.P,D1,1,K*%
%TO.N,Net-(D1-K)*%
X125560000Y-103520000D03*
%TO.P,D1,2,A*%
%TO.N,Net-(D1-A)*%
X125560000Y-105120000D03*
%TD*%
D12*
%TO.N,Net-(D2-K)*%
X111400000Y-126140000D03*
%TO.N,Net-(D2-A)*%
X110520000Y-126900000D03*
%TO.N,Net-(D1-A)*%
X109660000Y-127660000D03*
%TO.N,Net-(D1-K)*%
X109010000Y-128370000D03*
%TO.N,Net-(J1-Pin_25)*%
X130050000Y-129000000D03*
X116425000Y-128500000D03*
%TO.N,Net-(J1-Pin_23)*%
X118350000Y-124950000D03*
X125475000Y-124950000D03*
X132900000Y-129825000D03*
%TO.N,Net-(J1-Pin_26)*%
X116775000Y-129100000D03*
X128825000Y-129100000D03*
%TO.N,Net-(J1-Pin_19)*%
X125225000Y-125775000D03*
X114350000Y-125925000D03*
%TO.N,Net-(J1-Pin_21)*%
X125975000Y-126425000D03*
X116025000Y-126325000D03*
%TO.N,Net-(J1-Pin_22)*%
X125225000Y-127250000D03*
X115650000Y-127525000D03*
%TO.N,Net-(J1-Pin_20)*%
X117375000Y-124300000D03*
X126175000Y-124300000D03*
%TO.N,Net-(J1-Pin_5)*%
X111230000Y-129240000D03*
%TO.N,Net-(J1-Pin_7)*%
X112175000Y-129275000D03*
%TD*%
D13*
%TO.N,Net-(D2-A)*%
X111381000Y-125669000D02*
X126550000Y-110500000D01*
X110520000Y-126351953D02*
X111202953Y-125669000D01*
X111202953Y-125669000D02*
X111381000Y-125669000D01*
X110520000Y-126900000D02*
X110520000Y-126351953D01*
X126550000Y-110500000D02*
X126550000Y-105720000D01*
X126550000Y-105720000D02*
X127170000Y-105100000D01*
%TO.N,Net-(D1-K)*%
X124810000Y-102470000D02*
X125060000Y-102220000D01*
X125450000Y-103520000D02*
X124810000Y-102880000D01*
X124810000Y-102880000D02*
X124810000Y-102470000D01*
X109010000Y-128370000D02*
X109010000Y-126950000D01*
X109010000Y-126950000D02*
X125800000Y-110160000D01*
X125800000Y-105920000D02*
X125630000Y-105750000D01*
X125630000Y-105750000D02*
X125050000Y-105750000D01*
X125800000Y-110160000D02*
X125800000Y-105920000D01*
X124820000Y-105520000D02*
X124820000Y-104150000D01*
X125050000Y-105750000D02*
X124820000Y-105520000D01*
X124820000Y-104150000D02*
X125450000Y-103520000D01*
X126220000Y-102860000D02*
X125560000Y-103520000D01*
X126220000Y-102460000D02*
X126220000Y-102860000D01*
X125980000Y-102220000D02*
X126220000Y-102460000D01*
X125060000Y-102220000D02*
X125980000Y-102220000D01*
%TO.N,Net-(D1-A)*%
X109660000Y-127660000D02*
X109660000Y-126860000D01*
X109660000Y-126860000D02*
X126160000Y-110360000D01*
X126160000Y-105720000D02*
X125560000Y-105120000D01*
X126160000Y-110360000D02*
X126160000Y-105720000D01*
%TO.N,Net-(D2-K)*%
X126890000Y-110650000D02*
X126890000Y-105870000D01*
X126890000Y-105870000D02*
X127030000Y-105730000D01*
X111400000Y-126140000D02*
X126890000Y-110650000D01*
X127030000Y-105730000D02*
X127660000Y-105730000D01*
X127660000Y-105730000D02*
X127920000Y-105470000D01*
X127920000Y-105470000D02*
X127920000Y-104160000D01*
X127920000Y-104160000D02*
X127260000Y-103500000D01*
X127260000Y-103500000D02*
X127170000Y-103500000D01*
%TO.N,Net-(J1-Pin_25)*%
X129550000Y-128500000D02*
X130050000Y-129000000D01*
X116425000Y-128500000D02*
X129550000Y-128500000D01*
%TO.N,Net-(J1-Pin_23)*%
X118350000Y-124950000D02*
X125475000Y-124950000D01*
X128025000Y-124950000D02*
X132900000Y-129825000D01*
X125475000Y-124950000D02*
X128025000Y-124950000D01*
%TO.N,Net-(J1-Pin_26)*%
X128825000Y-129100000D02*
X116775000Y-129100000D01*
%TO.N,Net-(J1-Pin_19)*%
X114350000Y-125925000D02*
X114450000Y-125825000D01*
X125175000Y-125825000D02*
X125225000Y-125775000D01*
X114450000Y-125825000D02*
X125175000Y-125825000D01*
%TO.N,Net-(J1-Pin_21)*%
X116125000Y-126425000D02*
X116025000Y-126325000D01*
X125975000Y-126425000D02*
X116125000Y-126425000D01*
%TO.N,Net-(J1-Pin_22)*%
X115650000Y-127525000D02*
X115900000Y-127275000D01*
X115900000Y-127275000D02*
X125200000Y-127275000D01*
X125200000Y-127275000D02*
X125225000Y-127250000D01*
%TO.N,Net-(J1-Pin_20)*%
X117375000Y-124300000D02*
X126175000Y-124300000D01*
%TO.N,Net-(J1-Pin_5)*%
X129100000Y-122450000D02*
X131875000Y-119675000D01*
X111230000Y-129240000D02*
X111230000Y-127520000D01*
X131875000Y-119675000D02*
X140155000Y-119675000D01*
X140155000Y-119675000D02*
X143080000Y-122600000D01*
X116300000Y-122450000D02*
X129100000Y-122450000D01*
X111230000Y-127520000D02*
X116300000Y-122450000D01*
%TO.N,Net-(J1-Pin_7)*%
X112175000Y-129275000D02*
X112175000Y-127125000D01*
X144650000Y-126350000D02*
X147100000Y-126350000D01*
X129200000Y-122925000D02*
X131950000Y-120175000D01*
X147100000Y-122960000D02*
X146720000Y-122580000D01*
X112175000Y-127125000D02*
X116375000Y-122925000D01*
X147100000Y-126350000D02*
X147100000Y-122960000D01*
X138475000Y-120175000D02*
X144650000Y-126350000D01*
X116375000Y-122925000D02*
X129200000Y-122925000D01*
X131950000Y-120175000D02*
X138475000Y-120175000D01*
%TD*%
%TA.AperFunction,Conductor*%
%TO.N,Net-(J1-Pin_22)*%
G36*
X116041457Y-127209360D02*
G01*
X116046270Y-127216912D01*
X116046448Y-127218946D01*
X116046448Y-127341758D01*
X116044779Y-127347780D01*
X115886152Y-127612037D01*
X115878956Y-127617366D01*
X115871660Y-127616831D01*
X115656270Y-127527998D01*
X115649928Y-127521676D01*
X115649031Y-127517135D01*
X115649960Y-127284772D01*
X115653420Y-127276516D01*
X115659624Y-127273300D01*
X116032716Y-127207424D01*
X116041457Y-127209360D01*
G37*
%TD.AperFunction*%
%TD*%
%TA.AperFunction,Conductor*%
%TO.N,Net-(J1-Pin_19)*%
G36*
X125133820Y-125554896D02*
G01*
X125134296Y-125555898D01*
X125224109Y-125770483D01*
X125224142Y-125779437D01*
X125224109Y-125779517D01*
X125133326Y-125996420D01*
X125126970Y-126002729D01*
X125119364Y-126003166D01*
X124743477Y-125897400D01*
X124736441Y-125891860D01*
X124734946Y-125886137D01*
X124734946Y-125762010D01*
X124738373Y-125753737D01*
X124741124Y-125751694D01*
X125117985Y-125550097D01*
X125126896Y-125549218D01*
X125133820Y-125554896D01*
G37*
%TD.AperFunction*%
%TD*%
%TA.AperFunction,Conductor*%
%TO.N,Net-(J1-Pin_20)*%
G36*
X117867628Y-124227065D02*
G01*
X117874047Y-124233309D01*
X117875000Y-124237935D01*
X117875000Y-124362064D01*
X117871573Y-124370337D01*
X117867628Y-124372934D01*
X117481353Y-124526717D01*
X117472399Y-124526594D01*
X117466232Y-124520364D01*
X117399976Y-124362064D01*
X117375889Y-124304515D01*
X117375857Y-124295563D01*
X117466232Y-124079634D01*
X117472588Y-124073326D01*
X117481351Y-124073282D01*
X117867628Y-124227065D01*
G37*
%TD.AperFunction*%
%TD*%
%TA.AperFunction,Conductor*%
%TO.N,Net-(J1-Pin_25)*%
G36*
X116917628Y-128427065D02*
G01*
X116924047Y-128433309D01*
X116925000Y-128437935D01*
X116925000Y-128562064D01*
X116921573Y-128570337D01*
X116917628Y-128572934D01*
X116531353Y-128726717D01*
X116522399Y-128726594D01*
X116516232Y-128720364D01*
X116449976Y-128562064D01*
X116425889Y-128504515D01*
X116425857Y-128495563D01*
X116516232Y-128279634D01*
X116522588Y-128273326D01*
X116531351Y-128273282D01*
X116917628Y-128427065D01*
G37*
%TD.AperFunction*%
%TD*%
%TA.AperFunction,Conductor*%
%TO.N,Net-(J1-Pin_23)*%
G36*
X125377600Y-124723405D02*
G01*
X125383767Y-124729635D01*
X125474109Y-124945483D01*
X125474142Y-124954437D01*
X125474109Y-124954517D01*
X125383767Y-125170364D01*
X125377411Y-125176673D01*
X125368646Y-125176717D01*
X125368535Y-125176673D01*
X125338508Y-125164718D01*
X124982372Y-125022934D01*
X124975953Y-125016690D01*
X124975000Y-125012064D01*
X124975000Y-124887935D01*
X124978427Y-124879662D01*
X124982372Y-124877065D01*
X125368648Y-124723282D01*
X125377600Y-124723405D01*
G37*
%TD.AperFunction*%
%TD*%
%TA.AperFunction,Conductor*%
%TO.N,Net-(J1-Pin_23)*%
G36*
X132606647Y-129428534D02*
G01*
X133026123Y-129611561D01*
X133032335Y-129618011D01*
X133032168Y-129626964D01*
X133031198Y-129628747D01*
X132902018Y-129823726D01*
X132898726Y-129827018D01*
X132703747Y-129956198D01*
X132694958Y-129957910D01*
X132687531Y-129952906D01*
X132686561Y-129951123D01*
X132631839Y-129825707D01*
X132503534Y-129531649D01*
X132503368Y-129522699D01*
X132505984Y-129518702D01*
X132593701Y-129430985D01*
X132601973Y-129427559D01*
X132606647Y-129428534D01*
G37*
%TD.AperFunction*%
%TD*%
%TA.AperFunction,Conductor*%
%TO.N,Net-(J1-Pin_22)*%
G36*
X125133840Y-127029834D02*
G01*
X125134027Y-127030256D01*
X125224109Y-127245483D01*
X125224142Y-127254437D01*
X125224109Y-127254517D01*
X125133548Y-127470888D01*
X125127192Y-127477197D01*
X125118984Y-127477447D01*
X124737902Y-127347699D01*
X124731175Y-127341788D01*
X124729973Y-127336623D01*
X124729973Y-127212457D01*
X124733400Y-127204184D01*
X124736731Y-127201852D01*
X125118297Y-127024166D01*
X125127241Y-127023781D01*
X125133840Y-127029834D01*
G37*
%TD.AperFunction*%
%TD*%
%TA.AperFunction,Conductor*%
%TO.N,Net-(J1-Pin_19)*%
G36*
X114363567Y-125677270D02*
G01*
X114818308Y-125753365D01*
X114825902Y-125758111D01*
X114828077Y-125764905D01*
X114828077Y-125888839D01*
X114824650Y-125897112D01*
X114822997Y-125898486D01*
X114534771Y-126096290D01*
X114526011Y-126098146D01*
X114519901Y-126094939D01*
X114424623Y-126000198D01*
X114352468Y-125928449D01*
X114349019Y-125920187D01*
X114349944Y-125688761D01*
X114353404Y-125680505D01*
X114361691Y-125677111D01*
X114363567Y-125677270D01*
G37*
%TD.AperFunction*%
%TD*%
%TA.AperFunction,Conductor*%
%TO.N,Net-(J1-Pin_21)*%
G36*
X116209770Y-126153708D02*
G01*
X116497997Y-126351514D01*
X116502880Y-126359020D01*
X116503077Y-126361160D01*
X116503077Y-126485094D01*
X116499650Y-126493367D01*
X116493308Y-126496634D01*
X116038575Y-126572728D01*
X116029850Y-126570713D01*
X116025104Y-126563119D01*
X116024944Y-126561246D01*
X116024019Y-126329890D01*
X116027412Y-126321607D01*
X116194901Y-126155059D01*
X116203184Y-126151656D01*
X116209770Y-126153708D01*
G37*
%TD.AperFunction*%
%TD*%
%TA.AperFunction,Conductor*%
%TO.N,Net-(J1-Pin_23)*%
G36*
X125967628Y-124877065D02*
G01*
X125974047Y-124883309D01*
X125975000Y-124887935D01*
X125975000Y-125012064D01*
X125971573Y-125020337D01*
X125967628Y-125022934D01*
X125581353Y-125176717D01*
X125572399Y-125176594D01*
X125566232Y-125170364D01*
X125499976Y-125012064D01*
X125475889Y-124954515D01*
X125475857Y-124945563D01*
X125566232Y-124729634D01*
X125572588Y-124723326D01*
X125581351Y-124723282D01*
X125967628Y-124877065D01*
G37*
%TD.AperFunction*%
%TD*%
%TA.AperFunction,Conductor*%
%TO.N,Net-(J1-Pin_26)*%
G36*
X128727600Y-128873405D02*
G01*
X128733767Y-128879635D01*
X128824109Y-129095483D01*
X128824142Y-129104437D01*
X128824109Y-129104517D01*
X128733767Y-129320364D01*
X128727411Y-129326673D01*
X128718646Y-129326717D01*
X128718535Y-129326673D01*
X128688508Y-129314718D01*
X128332372Y-129172934D01*
X128325953Y-129166690D01*
X128325000Y-129162064D01*
X128325000Y-129037935D01*
X128328427Y-129029662D01*
X128332372Y-129027065D01*
X128718648Y-128873282D01*
X128727600Y-128873405D01*
G37*
%TD.AperFunction*%
%TD*%
%TA.AperFunction,Conductor*%
%TO.N,Net-(J1-Pin_26)*%
G36*
X117267628Y-129027065D02*
G01*
X117274047Y-129033309D01*
X117275000Y-129037935D01*
X117275000Y-129162064D01*
X117271573Y-129170337D01*
X117267628Y-129172934D01*
X116881353Y-129326717D01*
X116872399Y-129326594D01*
X116866232Y-129320364D01*
X116799976Y-129162064D01*
X116775889Y-129104515D01*
X116775857Y-129095563D01*
X116866232Y-128879634D01*
X116872588Y-128873326D01*
X116881351Y-128873282D01*
X117267628Y-129027065D01*
G37*
%TD.AperFunction*%
%TD*%
%TA.AperFunction,Conductor*%
%TO.N,Net-(J1-Pin_20)*%
G36*
X126077600Y-124073405D02*
G01*
X126083767Y-124079635D01*
X126174109Y-124295483D01*
X126174142Y-124304437D01*
X126174109Y-124304517D01*
X126083767Y-124520364D01*
X126077411Y-124526673D01*
X126068646Y-124526717D01*
X126068535Y-124526673D01*
X126038508Y-124514718D01*
X125682372Y-124372934D01*
X125675953Y-124366690D01*
X125675000Y-124362064D01*
X125675000Y-124237935D01*
X125678427Y-124229662D01*
X125682372Y-124227065D01*
X126068648Y-124073282D01*
X126077600Y-124073405D01*
G37*
%TD.AperFunction*%
%TD*%
%TA.AperFunction,Conductor*%
%TO.N,Net-(J1-Pin_23)*%
G36*
X118842628Y-124877065D02*
G01*
X118849047Y-124883309D01*
X118850000Y-124887935D01*
X118850000Y-125012064D01*
X118846573Y-125020337D01*
X118842628Y-125022934D01*
X118456353Y-125176717D01*
X118447399Y-125176594D01*
X118441232Y-125170364D01*
X118374976Y-125012064D01*
X118350889Y-124954515D01*
X118350857Y-124945563D01*
X118441232Y-124729634D01*
X118447588Y-124723326D01*
X118456351Y-124723282D01*
X118842628Y-124877065D01*
G37*
%TD.AperFunction*%
%TD*%
%TA.AperFunction,Conductor*%
%TO.N,Net-(J1-Pin_7)*%
G36*
X112245338Y-128778427D02*
G01*
X112247935Y-128782372D01*
X112401717Y-129168646D01*
X112401593Y-129177600D01*
X112395364Y-129183767D01*
X112179517Y-129274109D01*
X112170563Y-129274142D01*
X112170483Y-129274109D01*
X111954635Y-129183767D01*
X111948326Y-129177411D01*
X111948282Y-129168648D01*
X112102065Y-128782371D01*
X112108309Y-128775953D01*
X112112935Y-128775000D01*
X112237065Y-128775000D01*
X112245338Y-128778427D01*
G37*
%TD.AperFunction*%
%TD*%
%TA.AperFunction,Conductor*%
%TO.N,Net-(J1-Pin_25)*%
G36*
X129753229Y-128600085D02*
G01*
X130135110Y-128764483D01*
X130141354Y-128770901D01*
X130141310Y-128779666D01*
X130052564Y-128996175D01*
X130046255Y-129002531D01*
X130046175Y-129002564D01*
X129829666Y-129091310D01*
X129820712Y-129091277D01*
X129814483Y-129085110D01*
X129650085Y-128703230D01*
X129649962Y-128694278D01*
X129652557Y-128690335D01*
X129740334Y-128602558D01*
X129748606Y-128599132D01*
X129753229Y-128600085D01*
G37*
%TD.AperFunction*%
%TD*%
%TA.AperFunction,Conductor*%
%TO.N,Net-(J1-Pin_21)*%
G36*
X125877600Y-126198405D02*
G01*
X125883767Y-126204635D01*
X125974109Y-126420483D01*
X125974142Y-126429437D01*
X125974109Y-126429517D01*
X125883767Y-126645364D01*
X125877411Y-126651673D01*
X125868646Y-126651717D01*
X125868535Y-126651673D01*
X125838508Y-126639718D01*
X125482372Y-126497934D01*
X125475953Y-126491690D01*
X125475000Y-126487064D01*
X125475000Y-126362935D01*
X125478427Y-126354662D01*
X125482372Y-126352065D01*
X125868648Y-126198282D01*
X125877600Y-126198405D01*
G37*
%TD.AperFunction*%
%TD*%
%TA.AperFunction,Conductor*%
%TO.N,Net-(J1-Pin_5)*%
G36*
X111300296Y-128748231D02*
G01*
X111302914Y-128752230D01*
X111470106Y-129178258D01*
X111469939Y-129187211D01*
X111463489Y-129193423D01*
X111461543Y-129193998D01*
X111232328Y-129240527D01*
X111227672Y-129240527D01*
X110998456Y-129193998D01*
X110991030Y-129188994D01*
X110989318Y-129180204D01*
X110989891Y-129178264D01*
X111157086Y-128752230D01*
X111163298Y-128745780D01*
X111167977Y-128744804D01*
X111292023Y-128744804D01*
X111300296Y-128748231D01*
G37*
%TD.AperFunction*%
%TD*%
%TA.AperFunction,Conductor*%
%TO.N,Net-(D1-K)*%
G36*
X109080296Y-127878231D02*
G01*
X109082914Y-127882230D01*
X109250106Y-128308258D01*
X109249939Y-128317211D01*
X109243489Y-128323423D01*
X109241543Y-128323998D01*
X109012328Y-128370527D01*
X109007672Y-128370527D01*
X108778456Y-128323998D01*
X108771030Y-128318994D01*
X108769318Y-128310204D01*
X108769891Y-128308264D01*
X108937086Y-127882230D01*
X108943298Y-127875780D01*
X108947977Y-127874804D01*
X109072023Y-127874804D01*
X109080296Y-127878231D01*
G37*
%TD.AperFunction*%
%TD*%
%TA.AperFunction,Conductor*%
%TO.N,Net-(D1-A)*%
G36*
X109730296Y-127168231D02*
G01*
X109732914Y-127172230D01*
X109900106Y-127598258D01*
X109899939Y-127607211D01*
X109893489Y-127613423D01*
X109891543Y-127613998D01*
X109662328Y-127660527D01*
X109657672Y-127660527D01*
X109428456Y-127613998D01*
X109421030Y-127608994D01*
X109419318Y-127600204D01*
X109419891Y-127598264D01*
X109587086Y-127172230D01*
X109593298Y-127165780D01*
X109597977Y-127164804D01*
X109722023Y-127164804D01*
X109730296Y-127168231D01*
G37*
%TD.AperFunction*%
%TD*%
%TA.AperFunction,Conductor*%
%TO.N,Net-(D2-A)*%
G36*
X110590296Y-126408231D02*
G01*
X110592914Y-126412230D01*
X110760106Y-126838258D01*
X110759939Y-126847211D01*
X110753489Y-126853423D01*
X110751543Y-126853998D01*
X110522328Y-126900527D01*
X110517672Y-126900527D01*
X110288456Y-126853998D01*
X110281030Y-126848994D01*
X110279318Y-126840204D01*
X110279891Y-126838264D01*
X110447086Y-126412230D01*
X110453298Y-126405780D01*
X110457977Y-126404804D01*
X110582023Y-126404804D01*
X110590296Y-126408231D01*
G37*
%TD.AperFunction*%
%TD*%
%TA.AperFunction,Conductor*%
%TO.N,Net-(D2-K)*%
G36*
X111706299Y-125745986D02*
G01*
X111794013Y-125833700D01*
X111797440Y-125841973D01*
X111796464Y-125846652D01*
X111613438Y-126266123D01*
X111606988Y-126272335D01*
X111598035Y-126272168D01*
X111596252Y-126271198D01*
X111401273Y-126142018D01*
X111397981Y-126138726D01*
X111341119Y-126052901D01*
X111268800Y-125943745D01*
X111267089Y-125934958D01*
X111272093Y-125927531D01*
X111273870Y-125926563D01*
X111693350Y-125743534D01*
X111702300Y-125743368D01*
X111706299Y-125745986D01*
G37*
%TD.AperFunction*%
%TD*%
M02*
