%TF.GenerationSoftware,KiCad,Pcbnew,9.0.3*%
%TF.CreationDate,2025-08-09T15:08:58+03:00*%
%TF.ProjectId,Right,52696768-742e-46b6-9963-61645f706362,rev?*%
%TF.SameCoordinates,Original*%
%TF.FileFunction,Paste,Top*%
%TF.FilePolarity,Positive*%
%FSLAX46Y46*%
G04 Gerber Fmt 4.6, Leading zero omitted, Abs format (unit mm)*
G04 Created by KiCad (PCBNEW 9.0.3) date 2025-08-09 15:08:58*
%MOMM*%
%LPD*%
G01*
G04 APERTURE LIST*
G04 Aperture macros list*
%AMRoundRect*
0 Rectangle with rounded corners*
0 $1 Rounding radius*
0 $2 $3 $4 $5 $6 $7 $8 $9 X,Y pos of 4 corners*
0 Add a 4 corners polygon primitive as box body*
4,1,4,$2,$3,$4,$5,$6,$7,$8,$9,$2,$3,0*
0 Add four circle primitives for the rounded corners*
1,1,$1+$1,$2,$3*
1,1,$1+$1,$4,$5*
1,1,$1+$1,$6,$7*
1,1,$1+$1,$8,$9*
0 Add four rect primitives between the rounded corners*
20,1,$1+$1,$2,$3,$4,$5,0*
20,1,$1+$1,$4,$5,$6,$7,0*
20,1,$1+$1,$6,$7,$8,$9,0*
20,1,$1+$1,$8,$9,$2,$3,0*%
%AMFreePoly0*
4,1,7,0.150000,0.330000,0.150000,-0.365000,-0.150000,-0.365000,-0.150000,0.330000,-0.050000,0.370000,0.050000,0.370000,0.150000,0.330000,0.150000,0.330000,$1*%
%AMFreePoly1*
4,1,7,0.150000,-0.275000,0.050000,-0.315000,-0.050000,-0.315000,-0.150000,-0.275000,-0.150000,0.300000,0.150000,0.300000,0.150000,-0.275000,0.150000,-0.275000,$1*%
%AMFreePoly2*
4,1,72,0.663536,1.453536,0.664990,1.450312,0.674986,1.290376,0.684974,1.180502,0.694961,1.090620,0.704950,1.010707,0.714943,0.940757,0.734918,0.820906,0.764878,0.671101,0.824807,0.431389,0.834743,0.401581,0.834851,0.401213,0.844807,0.361389,0.934706,0.091692,0.964677,0.011772,1.004608,-0.088058,1.034593,-0.158023,1.074525,-0.247870,1.184421,-0.467662,1.234361,-0.557554,
1.274329,-0.627498,1.334250,-0.727365,1.404218,-0.837317,1.405000,-0.840001,1.405000,-0.860000,1.403536,-0.863536,1.402936,-0.864047,-0.017064,-1.894047,-0.020786,-1.894938,-0.024047,-1.892936,-0.094096,-1.792867,-0.094218,-1.792684,-0.164258,-1.682620,-0.244258,-1.552620,-0.244341,-1.552480,-0.324341,-1.412481,-0.384389,-1.302394,-0.384472,-1.302236,-0.524472,-1.022236,-0.524569,-1.022031,
-0.564525,-0.932131,-0.574472,-0.912236,-0.574596,-0.911970,-0.634596,-0.771971,-0.634642,-0.771857,-0.694683,-0.621756,-0.724682,-0.541756,-0.784714,-0.371664,-0.824743,-0.251582,-0.824789,-0.251437,-0.854808,-0.151375,-0.894808,-0.011374,-0.894852,-0.011213,-0.954851,0.228787,-0.954893,0.228971,-0.994893,0.418970,-1.024932,0.579178,-1.044932,0.699179,-1.044950,0.699293,-1.054950,0.769293,
-1.074969,0.929448,-1.084969,1.019448,-1.084984,1.019585,-1.094983,1.139584,-1.104990,1.279688,-1.114990,1.439688,-1.115000,1.440000,-1.115000,1.450000,-1.113536,1.453535,-1.110000,1.455000,0.660000,1.455000,0.663536,1.453536,0.663536,1.453536,$1*%
%AMFreePoly3*
4,1,18,0.303536,0.288536,0.305000,0.285000,0.305000,-0.285000,0.303536,-0.288536,0.302883,-0.289085,0.133380,-0.408734,0.004109,-0.557891,-0.085642,-0.717451,-0.088652,-0.719815,-0.090000,-0.720000,-0.300000,-0.720000,-0.303536,-0.718536,-0.305000,-0.715000,-0.305000,0.285000,-0.303536,0.288536,-0.300000,0.290000,0.300000,0.290000,0.303536,0.288536,0.303536,0.288536,$1*%
%AMFreePoly4*
4,1,18,0.303536,0.283536,0.305000,0.280000,0.305000,-0.720000,0.303536,-0.723536,0.300125,-0.724998,0.100125,-0.729998,0.096554,-0.728623,0.095554,-0.727287,0.005843,-0.552850,-0.113359,-0.418746,-0.302896,-0.284076,-0.304930,-0.280834,-0.305000,-0.280000,-0.305000,0.280000,-0.303536,0.283536,-0.300000,0.285000,0.300000,0.285000,0.303536,0.283536,0.303536,0.283536,$1*%
G04 Aperture macros list end*
%ADD10FreePoly0,0.000000*%
%ADD11FreePoly1,0.000000*%
%ADD12RoundRect,0.100000X-0.100000X-0.100000X0.100000X-0.100000X0.100000X0.100000X-0.100000X0.100000X0*%
%ADD13RoundRect,0.150000X0.065404X0.284117X-0.219913X0.191412X-0.065404X-0.284117X0.219913X-0.191412X0*%
%ADD14RoundRect,0.150000X-0.223220X-0.187544X0.060436X-0.285215X0.223220X0.187544X-0.060436X0.285215X0*%
%ADD15RoundRect,0.150000X-0.290824X-0.020521X-0.118752X-0.266267X0.290824X0.020521X0.118752X0.266267X0*%
%ADD16RoundRect,0.150000X-0.060436X-0.285215X0.223220X-0.187544X0.060436X0.285215X-0.223220X0.187544X0*%
%ADD17FreePoly2,324.000000*%
%ADD18FreePoly2,288.000000*%
%ADD19FreePoly2,252.000000*%
%ADD20FreePoly2,216.000000*%
%ADD21FreePoly2,180.000000*%
%ADD22FreePoly2,144.000000*%
%ADD23FreePoly2,108.000000*%
%ADD24FreePoly2,72.000000*%
%ADD25FreePoly2,36.000000*%
%ADD26FreePoly2,0.000000*%
%ADD27C,0.858836*%
%ADD28C,8.420022*%
%ADD29RoundRect,0.150000X0.219913X0.191412X-0.065404X0.284117X-0.219913X-0.191412X0.065404X-0.284117X0*%
%ADD30RoundRect,0.100000X-0.900000X0.400000X-0.900000X-0.400000X0.900000X-0.400000X0.900000X0.400000X0*%
%ADD31RoundRect,0.150000X0.290422X0.025594X0.114086X0.268299X-0.290422X-0.025594X-0.114086X-0.268299X0*%
%ADD32FreePoly3,0.000000*%
%ADD33FreePoly4,180.000000*%
%ADD34FreePoly3,180.000000*%
%ADD35FreePoly4,0.000000*%
%ADD36RoundRect,0.150000X0.250000X-0.150000X0.250000X0.150000X-0.250000X0.150000X-0.250000X-0.150000X0*%
%ADD37RoundRect,0.140000X0.560000X1.260000X-0.560000X1.260000X-0.560000X-1.260000X0.560000X-1.260000X0*%
%ADD38RoundRect,0.178571X0.321429X0.321429X-0.321429X0.321429X-0.321429X-0.321429X0.321429X-0.321429X0*%
%ADD39RoundRect,0.150000X-0.114086X0.268299X-0.290422X0.025594X0.114086X-0.268299X0.290422X-0.025594X0*%
%ADD40RoundRect,0.150000X0.118752X-0.266267X0.290824X-0.020521X-0.118752X0.266267X-0.290824X0.020521X0*%
%ADD41R,1.400000X1.400000*%
G04 APERTURE END LIST*
D10*
%TO.C,J1*%
X110830000Y-179930000D03*
D11*
X111080000Y-179180000D03*
D10*
X111324118Y-179930000D03*
D11*
X111573750Y-179180000D03*
D10*
X111818235Y-179930000D03*
D11*
X112067500Y-179180000D03*
D10*
X112312353Y-179930000D03*
D11*
X112561250Y-179180000D03*
D10*
X112806471Y-179930000D03*
D11*
X113055000Y-179180000D03*
D10*
X113300588Y-179930000D03*
D11*
X113548750Y-179180000D03*
D10*
X113794706Y-179930000D03*
D11*
X114042500Y-179180000D03*
D10*
X114288824Y-179930000D03*
D11*
X114536250Y-179180000D03*
D10*
X114782941Y-179930000D03*
D11*
X115030000Y-179180000D03*
D10*
X115277059Y-179930000D03*
D11*
X115523750Y-179180000D03*
D10*
X115771176Y-179930000D03*
D11*
X116017500Y-179180000D03*
D10*
X116265294Y-179930000D03*
D11*
X116511250Y-179180000D03*
D10*
X116759412Y-179930000D03*
D11*
X117005000Y-179180000D03*
D10*
X117253529Y-179930000D03*
D11*
X117498750Y-179180000D03*
D10*
X117747647Y-179930000D03*
D11*
X117992500Y-179180000D03*
D10*
X118241765Y-179930000D03*
D11*
X118486250Y-179180000D03*
D10*
X118735882Y-179930000D03*
D11*
X118980000Y-179180000D03*
D10*
X119230000Y-179930000D03*
%TD*%
D12*
%TO.C,U1*%
X128250000Y-124950000D03*
X128250000Y-126950000D03*
X129250000Y-124950000D03*
X129250000Y-126950000D03*
%TD*%
D13*
%TO.C,R6*%
X115695634Y-124339590D03*
X114544856Y-124713500D03*
%TD*%
D14*
%TO.C,R3*%
X114555123Y-110950477D03*
X115699200Y-111344415D03*
%TD*%
D15*
%TO.C,R4*%
X118280854Y-113233509D03*
X118974882Y-114224683D03*
%TD*%
D16*
%TO.C,R2*%
X110155123Y-111324523D03*
X111299200Y-110930585D03*
%TD*%
D17*
%TO.C,SW1*%
X107820000Y-116120000D03*
D18*
X109790000Y-113440000D03*
D19*
X112980000Y-112430000D03*
D20*
X116140000Y-113480000D03*
D21*
X118080000Y-116180000D03*
D22*
X118060000Y-119520000D03*
D23*
X116080000Y-122200000D03*
D24*
X112910000Y-123210000D03*
D25*
X109740000Y-122160000D03*
D26*
X107800000Y-119450000D03*
D27*
X109310000Y-117820000D03*
D28*
X112970000Y-117830000D03*
%TD*%
D29*
%TO.C,R7*%
X111321336Y-124735410D03*
X110170558Y-124361500D03*
%TD*%
D30*
%TO.C,BT1*%
X115625000Y-102950000D03*
X115625000Y-104350000D03*
%TD*%
D12*
%TO.C,U2*%
X137800000Y-118975000D03*
X137800000Y-120975000D03*
X138800000Y-118975000D03*
X138800000Y-120975000D03*
%TD*%
D31*
%TO.C,R8*%
X107614580Y-122401525D03*
X106903360Y-121422615D03*
%TD*%
D32*
%TO.C,J5*%
X144490000Y-123930000D03*
D33*
X144490000Y-126060000D03*
D34*
X145950000Y-126060000D03*
D35*
X145950000Y-123930000D03*
%TD*%
D36*
%TO.C,F1*%
X111900000Y-105410000D03*
X111900000Y-104200000D03*
%TD*%
D37*
%TO.C,RV1*%
X148905000Y-112330000D03*
D38*
X146825000Y-108150000D03*
X144995000Y-108130000D03*
X143175000Y-108130000D03*
D37*
X141095000Y-112320000D03*
%TD*%
D39*
%TO.C,R5*%
X119102671Y-121489590D03*
X118391451Y-122468500D03*
%TD*%
D32*
%TO.C,J6*%
X96420000Y-100490000D03*
D33*
X96420000Y-102620000D03*
D34*
X97880000Y-102620000D03*
D35*
X97880000Y-100490000D03*
%TD*%
D40*
%TO.C,R1*%
X106922310Y-114178620D03*
X107616338Y-113187446D03*
%TD*%
D41*
%TO.C,SW3*%
X94825000Y-184455000D03*
X94805000Y-188095000D03*
X99435000Y-184435000D03*
X99415000Y-188075000D03*
%TD*%
%TO.C,SW4*%
X132720000Y-140260000D03*
X136360000Y-140280000D03*
X132700000Y-135650000D03*
X136340000Y-135670000D03*
%TD*%
M02*
