%TF.GenerationSoftware,KiCad,Pcbnew,9.0.3*%
%TF.CreationDate,2025-08-10T01:48:50+03:00*%
%TF.ProjectId,Right,52696768-742e-46b6-9963-61645f706362,rev?*%
%TF.SameCoordinates,Original*%
%TF.FileFunction,Copper,L2,Bot*%
%TF.FilePolarity,Positive*%
%FSLAX46Y46*%
G04 Gerber Fmt 4.6, Leading zero omitted, Abs format (unit mm)*
G04 Created by KiCad (PCBNEW 9.0.3) date 2025-08-10 01:48:50*
%MOMM*%
%LPD*%
G01*
G04 APERTURE LIST*
G04 Aperture macros list*
%AMRoundRect*
0 Rectangle with rounded corners*
0 $1 Rounding radius*
0 $2 $3 $4 $5 $6 $7 $8 $9 X,Y pos of 4 corners*
0 Add a 4 corners polygon primitive as box body*
4,1,4,$2,$3,$4,$5,$6,$7,$8,$9,$2,$3,0*
0 Add four circle primitives for the rounded corners*
1,1,$1+$1,$2,$3*
1,1,$1+$1,$4,$5*
1,1,$1+$1,$6,$7*
1,1,$1+$1,$8,$9*
0 Add four rect primitives between the rounded corners*
20,1,$1+$1,$2,$3,$4,$5,0*
20,1,$1+$1,$4,$5,$6,$7,0*
20,1,$1+$1,$6,$7,$8,$9,0*
20,1,$1+$1,$8,$9,$2,$3,0*%
G04 Aperture macros list end*
%TA.AperFunction,SMDPad,CuDef*%
%ADD10R,2.000000X2.000000*%
%TD*%
%TA.AperFunction,SMDPad,CuDef*%
%ADD11RoundRect,0.200000X-0.300000X0.200000X-0.300000X-0.200000X0.300000X-0.200000X0.300000X0.200000X0*%
%TD*%
%TA.AperFunction,ViaPad*%
%ADD12C,0.500000*%
%TD*%
%TA.AperFunction,Conductor*%
%ADD13C,0.140000*%
%TD*%
G04 APERTURE END LIST*
D10*
%TO.P,SW2,3,A*%
%TO.N,Net-(J1-Pin_7)*%
X142110000Y-122040000D03*
%TO.P,SW2,2,C*%
X148340000Y-122050000D03*
%TO.P,SW2,1,B*%
%TO.N,Net-(J1-Pin_5)*%
X142110000Y-119280000D03*
X148340000Y-119260000D03*
%TD*%
D11*
%TO.P,D2,1,K*%
%TO.N,Net-(D2-K)*%
X106120000Y-102670000D03*
%TO.P,D2,2,A*%
%TO.N,Net-(D2-A)*%
X106120000Y-104270000D03*
%TD*%
%TO.P,D1,1,K*%
%TO.N,Net-(D1-K)*%
X104510000Y-102690000D03*
%TO.P,D1,2,A*%
%TO.N,Net-(D1-A)*%
X104510000Y-104290000D03*
%TD*%
D12*
%TO.N,Net-(J1-Pin_5)*%
X145310000Y-119260000D03*
%TO.N,Net-(J1-Pin_7)*%
X145310000Y-122050000D03*
%TO.N,Net-(J1-Pin_23)*%
X142220000Y-124860000D03*
%TO.N,Net-(D2-K)*%
X110790000Y-126480000D03*
%TO.N,Net-(D2-A)*%
X110230000Y-127170000D03*
%TO.N,Net-(D1-A)*%
X109560000Y-127800000D03*
%TO.N,Net-(D1-K)*%
X109010000Y-128370000D03*
%TO.N,Net-(J1-Pin_25)*%
X130230000Y-129670000D03*
X116425000Y-128500000D03*
%TO.N,Net-(J1-Pin_23)*%
X119050000Y-124950000D03*
X125475000Y-124950000D03*
X132900000Y-129825000D03*
%TO.N,Net-(J1-Pin_26)*%
X116775000Y-129100000D03*
X128825000Y-129100000D03*
%TO.N,Net-(J1-Pin_19)*%
X124620000Y-125825000D03*
X113900000Y-126340000D03*
%TO.N,Net-(J1-Pin_21)*%
X125975000Y-126425000D03*
X116025000Y-126325000D03*
%TO.N,Net-(J1-Pin_22)*%
X125225000Y-127250000D03*
X115650000Y-127525000D03*
%TO.N,Net-(J1-Pin_20)*%
X117840000Y-124910000D03*
X126175000Y-124300000D03*
%TO.N,Net-(J1-Pin_5)*%
X111230000Y-129240000D03*
%TO.N,Net-(J1-Pin_7)*%
X112175000Y-129275000D03*
%TD*%
D13*
%TO.N,Net-(J1-Pin_5)*%
X145310000Y-119260000D02*
X148340000Y-119260000D01*
X145310000Y-119260000D02*
X142200000Y-119260000D01*
X142200000Y-119260000D02*
X142180000Y-119280000D01*
X142180000Y-119280000D02*
X142110000Y-119280000D01*
%TO.N,Net-(J1-Pin_7)*%
X145310000Y-122050000D02*
X142210000Y-122050000D01*
X142200000Y-122040000D02*
X142110000Y-122040000D01*
X142210000Y-122050000D02*
X142200000Y-122040000D01*
X145310000Y-122050000D02*
X148340000Y-122050000D01*
%TO.N,Net-(J1-Pin_23)*%
X142220000Y-124860000D02*
X140020000Y-124860000D01*
X140020000Y-124860000D02*
X139130000Y-125750000D01*
X139130000Y-125750000D02*
X139130000Y-127505000D01*
X139130000Y-127505000D02*
X136810000Y-129825000D01*
%TO.N,Net-(J1-Pin_7)*%
X142110000Y-122040000D02*
X140100000Y-122040000D01*
X140100000Y-122040000D02*
X138235000Y-120175000D01*
%TO.N,Net-(J1-Pin_5)*%
X131875000Y-119675000D02*
X138470000Y-119675000D01*
X142110000Y-119280000D02*
X138865000Y-119280000D01*
X138865000Y-119280000D02*
X138470000Y-119675000D01*
%TO.N,Net-(J1-Pin_25)*%
X130230000Y-129180000D02*
X129550000Y-128500000D01*
X130230000Y-129670000D02*
X130230000Y-129180000D01*
X129550000Y-128500000D02*
X116425000Y-128500000D01*
%TO.N,Net-(J1-Pin_23)*%
X136810000Y-129825000D02*
X132900000Y-129825000D01*
%TO.N,Net-(J1-Pin_7)*%
X112175000Y-129275000D02*
X112175000Y-127125000D01*
X116375000Y-122925000D02*
X129200000Y-122925000D01*
X112175000Y-127125000D02*
X116375000Y-122925000D01*
X129200000Y-122925000D02*
X131950000Y-120175000D01*
X131950000Y-120175000D02*
X138235000Y-120175000D01*
%TO.N,Net-(J1-Pin_5)*%
X111230000Y-129240000D02*
X111230000Y-127520000D01*
X116300000Y-122450000D02*
X129100000Y-122450000D01*
X111230000Y-127520000D02*
X116300000Y-122450000D01*
X129100000Y-122450000D02*
X131875000Y-119675000D01*
%TO.N,Net-(J1-Pin_20)*%
X118450000Y-124300000D02*
X126175000Y-124300000D01*
X117840000Y-124910000D02*
X118450000Y-124300000D01*
%TO.N,Net-(J1-Pin_19)*%
X113935000Y-126340000D02*
X113900000Y-126340000D01*
X124620000Y-125825000D02*
X114450000Y-125825000D01*
X114450000Y-125825000D02*
X113935000Y-126340000D01*
%TO.N,Net-(J1-Pin_23)*%
X119050000Y-124950000D02*
X125475000Y-124950000D01*
%TO.N,Net-(D2-K)*%
X110790000Y-126480000D02*
X110230000Y-126480000D01*
X110230000Y-126480000D02*
X105840000Y-122090000D01*
X105840000Y-122090000D02*
X105840000Y-105040000D01*
X105980000Y-104900000D02*
X106610000Y-104900000D01*
X105840000Y-105040000D02*
X105980000Y-104900000D01*
X106610000Y-104900000D02*
X106870000Y-104640000D01*
X106870000Y-104640000D02*
X106870000Y-103330000D01*
X106870000Y-103330000D02*
X106210000Y-102670000D01*
X106210000Y-102670000D02*
X106120000Y-102670000D01*
%TO.N,Net-(D1-A)*%
X109560000Y-127800000D02*
X109500000Y-127740000D01*
X105110000Y-122530000D02*
X105110000Y-104890000D01*
X109500000Y-127740000D02*
X109500000Y-126920000D01*
X109500000Y-126920000D02*
X105110000Y-122530000D01*
X105110000Y-104890000D02*
X104510000Y-104290000D01*
%TO.N,Net-(D2-A)*%
X110230000Y-127170000D02*
X110060000Y-127000000D01*
X110060000Y-126900000D02*
X105500000Y-122340000D01*
X105500000Y-122340000D02*
X105500000Y-104890000D01*
X105500000Y-104890000D02*
X106120000Y-104270000D01*
X110060000Y-127000000D02*
X110060000Y-126900000D01*
%TO.N,Net-(D2-K)*%
X106470000Y-101410000D02*
X106710000Y-101650000D01*
X105700000Y-101410000D02*
X105700000Y-101400000D01*
X105700000Y-101400000D02*
X106460000Y-101400000D01*
X106710000Y-101650000D02*
X106710000Y-101940000D01*
X106120000Y-102670000D02*
X106000000Y-102670000D01*
X105450000Y-102120000D02*
X105450000Y-101660000D01*
X106000000Y-102670000D02*
X105450000Y-102120000D01*
X105450000Y-101660000D02*
X105700000Y-101410000D01*
X106460000Y-101400000D02*
X106470000Y-101410000D01*
X106190000Y-102670000D02*
X107020000Y-101840000D01*
X106120000Y-102670000D02*
X106190000Y-102670000D01*
%TO.N,Net-(D1-K)*%
X109010000Y-126950000D02*
X104750000Y-122690000D01*
X109010000Y-128370000D02*
X109010000Y-126950000D01*
X104580000Y-104920000D02*
X104000000Y-104920000D01*
X105170000Y-101630000D02*
X105170000Y-102030000D01*
X104000000Y-104920000D02*
X103770000Y-104690000D01*
X103770000Y-104690000D02*
X103770000Y-103320000D01*
X104750000Y-122690000D02*
X104750000Y-105090000D01*
X104400000Y-102690000D02*
X103760000Y-102050000D01*
X104750000Y-105090000D02*
X104580000Y-104920000D01*
X103760000Y-101640000D02*
X104010000Y-101390000D01*
X103770000Y-103320000D02*
X104400000Y-102690000D01*
X103760000Y-102050000D02*
X103760000Y-101640000D01*
X104010000Y-101390000D02*
X104930000Y-101390000D01*
X104930000Y-101390000D02*
X105170000Y-101630000D01*
X105170000Y-102030000D02*
X104510000Y-102690000D01*
%TO.N,Net-(J1-Pin_23)*%
X128025000Y-124950000D02*
X132900000Y-129825000D01*
X125475000Y-124950000D02*
X128025000Y-124950000D01*
%TO.N,Net-(J1-Pin_26)*%
X128825000Y-129100000D02*
X116775000Y-129100000D01*
%TO.N,Net-(J1-Pin_21)*%
X116125000Y-126425000D02*
X116025000Y-126325000D01*
X125975000Y-126425000D02*
X116125000Y-126425000D01*
%TO.N,Net-(J1-Pin_22)*%
X115650000Y-127525000D02*
X115900000Y-127275000D01*
X115900000Y-127275000D02*
X125200000Y-127275000D01*
X125200000Y-127275000D02*
X125225000Y-127250000D01*
%TD*%
%TA.AperFunction,Conductor*%
%TO.N,Net-(J1-Pin_7)*%
G36*
X112245296Y-128783231D02*
G01*
X112247914Y-128787230D01*
X112415106Y-129213258D01*
X112414939Y-129222211D01*
X112408489Y-129228423D01*
X112406543Y-129228998D01*
X112177328Y-129275527D01*
X112172672Y-129275527D01*
X111943456Y-129228998D01*
X111936030Y-129223994D01*
X111934318Y-129215204D01*
X111934891Y-129213264D01*
X112102086Y-128787230D01*
X112108298Y-128780780D01*
X112112977Y-128779804D01*
X112237023Y-128779804D01*
X112245296Y-128783231D01*
G37*
%TD.AperFunction*%
%TD*%
%TA.AperFunction,Conductor*%
%TO.N,Net-(J1-Pin_5)*%
G36*
X111300296Y-128748231D02*
G01*
X111302914Y-128752230D01*
X111470106Y-129178258D01*
X111469939Y-129187211D01*
X111463489Y-129193423D01*
X111461543Y-129193998D01*
X111232328Y-129240527D01*
X111227672Y-129240527D01*
X110998456Y-129193998D01*
X110991030Y-129188994D01*
X110989318Y-129180204D01*
X110989891Y-129178264D01*
X111157086Y-128752230D01*
X111163298Y-128745780D01*
X111167977Y-128744804D01*
X111292023Y-128744804D01*
X111300296Y-128748231D01*
G37*
%TD.AperFunction*%
%TD*%
%TA.AperFunction,Conductor*%
%TO.N,Net-(J1-Pin_20)*%
G36*
X126122211Y-124060060D02*
G01*
X126128423Y-124066510D01*
X126128998Y-124068456D01*
X126175527Y-124297672D01*
X126175527Y-124302328D01*
X126128998Y-124531543D01*
X126123994Y-124538969D01*
X126115204Y-124540681D01*
X126113258Y-124540106D01*
X125687230Y-124372914D01*
X125680780Y-124366702D01*
X125679804Y-124362023D01*
X125679804Y-124237976D01*
X125683231Y-124229703D01*
X125687227Y-124227086D01*
X126113259Y-124059893D01*
X126122211Y-124060060D01*
G37*
%TD.AperFunction*%
%TD*%
%TA.AperFunction,Conductor*%
%TO.N,Net-(J1-Pin_20)*%
G36*
X118146299Y-124515986D02*
G01*
X118234013Y-124603700D01*
X118237440Y-124611973D01*
X118236464Y-124616652D01*
X118053438Y-125036123D01*
X118046988Y-125042335D01*
X118038035Y-125042168D01*
X118036252Y-125041198D01*
X117841273Y-124912018D01*
X117837981Y-124908726D01*
X117781119Y-124822901D01*
X117708800Y-124713745D01*
X117707089Y-124704958D01*
X117712093Y-124697531D01*
X117713870Y-124696563D01*
X118133350Y-124513534D01*
X118142300Y-124513368D01*
X118146299Y-124515986D01*
G37*
%TD.AperFunction*%
%TD*%
%TA.AperFunction,Conductor*%
%TO.N,Net-(J1-Pin_19)*%
G36*
X124567211Y-125585060D02*
G01*
X124573423Y-125591510D01*
X124573998Y-125593456D01*
X124620527Y-125822672D01*
X124620527Y-125827328D01*
X124573998Y-126056543D01*
X124568994Y-126063969D01*
X124560204Y-126065681D01*
X124558258Y-126065106D01*
X124132230Y-125897914D01*
X124125780Y-125891702D01*
X124124804Y-125887023D01*
X124124804Y-125762976D01*
X124128231Y-125754703D01*
X124132227Y-125752086D01*
X124558259Y-125584893D01*
X124567211Y-125585060D01*
G37*
%TD.AperFunction*%
%TD*%
%TA.AperFunction,Conductor*%
%TO.N,Net-(J1-Pin_19)*%
G36*
X114220061Y-125960792D02*
G01*
X114223476Y-125963163D01*
X114311211Y-126050898D01*
X114314638Y-126059171D01*
X114313420Y-126064369D01*
X114113757Y-126467013D01*
X114107011Y-126472902D01*
X114098077Y-126472297D01*
X114096813Y-126471569D01*
X113903374Y-126343411D01*
X113898370Y-126335985D01*
X113853129Y-126104537D01*
X113854905Y-126095763D01*
X113860518Y-126091335D01*
X114211115Y-125960475D01*
X114220061Y-125960792D01*
G37*
%TD.AperFunction*%
%TD*%
%TA.AperFunction,Conductor*%
%TO.N,Net-(J1-Pin_23)*%
G36*
X119111738Y-124709892D02*
G01*
X119537771Y-124877086D01*
X119544220Y-124883297D01*
X119545196Y-124887976D01*
X119545196Y-125012023D01*
X119541769Y-125020296D01*
X119537770Y-125022914D01*
X119111741Y-125190106D01*
X119102788Y-125189939D01*
X119096576Y-125183489D01*
X119096002Y-125181548D01*
X119049472Y-124952325D01*
X119049472Y-124947674D01*
X119096002Y-124718454D01*
X119101005Y-124711030D01*
X119109795Y-124709318D01*
X119111738Y-124709892D01*
G37*
%TD.AperFunction*%
%TD*%
%TA.AperFunction,Conductor*%
%TO.N,Net-(J1-Pin_23)*%
G36*
X125422211Y-124710060D02*
G01*
X125428423Y-124716510D01*
X125428998Y-124718456D01*
X125475527Y-124947672D01*
X125475527Y-124952328D01*
X125428998Y-125181543D01*
X125423994Y-125188969D01*
X125415204Y-125190681D01*
X125413258Y-125190106D01*
X124987230Y-125022914D01*
X124980780Y-125016702D01*
X124979804Y-125012023D01*
X124979804Y-124887976D01*
X124983231Y-124879703D01*
X124987227Y-124877086D01*
X125413259Y-124709893D01*
X125422211Y-124710060D01*
G37*
%TD.AperFunction*%
%TD*%
%TA.AperFunction,Conductor*%
%TO.N,Net-(D2-K)*%
G36*
X110737211Y-126240060D02*
G01*
X110743423Y-126246510D01*
X110743998Y-126248456D01*
X110790527Y-126477672D01*
X110790527Y-126482328D01*
X110743998Y-126711543D01*
X110738994Y-126718969D01*
X110730204Y-126720681D01*
X110728258Y-126720106D01*
X110302230Y-126552914D01*
X110295780Y-126546702D01*
X110294804Y-126542023D01*
X110294804Y-126417976D01*
X110298231Y-126409703D01*
X110302227Y-126407086D01*
X110728259Y-126239893D01*
X110737211Y-126240060D01*
G37*
%TD.AperFunction*%
%TD*%
%TA.AperFunction,Conductor*%
%TO.N,Net-(D1-A)*%
G36*
X109571431Y-127312881D02*
G01*
X109573355Y-127315417D01*
X109762570Y-127651694D01*
X109763640Y-127660584D01*
X109758905Y-127667138D01*
X109564061Y-127798266D01*
X109555285Y-127800042D01*
X109555201Y-127800025D01*
X109326915Y-127753685D01*
X109319489Y-127748681D01*
X109317777Y-127739891D01*
X109317916Y-127739290D01*
X109427719Y-127318202D01*
X109433122Y-127311061D01*
X109439040Y-127309454D01*
X109563158Y-127309454D01*
X109571431Y-127312881D01*
G37*
%TD.AperFunction*%
%TD*%
%TA.AperFunction,Conductor*%
%TO.N,Net-(D2-A)*%
G36*
X110006486Y-126744365D02*
G01*
X110155824Y-126834101D01*
X110358411Y-126955834D01*
X110363738Y-126963033D01*
X110362414Y-126971889D01*
X110362139Y-126972325D01*
X110233411Y-127166625D01*
X110225985Y-127171629D01*
X110225901Y-127171646D01*
X109995976Y-127216589D01*
X109987200Y-127214813D01*
X109982315Y-127207663D01*
X109901063Y-126844929D01*
X109902599Y-126836109D01*
X109904202Y-126834106D01*
X109992188Y-126746120D01*
X110000460Y-126742694D01*
X110006486Y-126744365D01*
G37*
%TD.AperFunction*%
%TD*%
%TA.AperFunction,Conductor*%
%TO.N,Net-(D1-K)*%
G36*
X109080296Y-127878231D02*
G01*
X109082914Y-127882230D01*
X109250106Y-128308258D01*
X109249939Y-128317211D01*
X109243489Y-128323423D01*
X109241543Y-128323998D01*
X109012328Y-128370527D01*
X109007672Y-128370527D01*
X108778456Y-128323998D01*
X108771030Y-128318994D01*
X108769318Y-128310204D01*
X108769891Y-128308264D01*
X108937086Y-127882230D01*
X108943298Y-127875780D01*
X108947977Y-127874804D01*
X109072023Y-127874804D01*
X109080296Y-127878231D01*
G37*
%TD.AperFunction*%
%TD*%
%TA.AperFunction,Conductor*%
%TO.N,Net-(J1-Pin_23)*%
G36*
X125536738Y-124709892D02*
G01*
X125962771Y-124877086D01*
X125969220Y-124883297D01*
X125970196Y-124887976D01*
X125970196Y-125012023D01*
X125966769Y-125020296D01*
X125962770Y-125022914D01*
X125536741Y-125190106D01*
X125527788Y-125189939D01*
X125521576Y-125183489D01*
X125521002Y-125181548D01*
X125474472Y-124952325D01*
X125474472Y-124947674D01*
X125521002Y-124718454D01*
X125526005Y-124711030D01*
X125534795Y-124709318D01*
X125536738Y-124709892D01*
G37*
%TD.AperFunction*%
%TD*%
%TA.AperFunction,Conductor*%
%TO.N,Net-(J1-Pin_26)*%
G36*
X116836738Y-128859892D02*
G01*
X117262771Y-129027086D01*
X117269220Y-129033297D01*
X117270196Y-129037976D01*
X117270196Y-129162023D01*
X117266769Y-129170296D01*
X117262770Y-129172914D01*
X116836741Y-129340106D01*
X116827788Y-129339939D01*
X116821576Y-129333489D01*
X116821002Y-129331548D01*
X116774472Y-129102325D01*
X116774472Y-129097674D01*
X116821002Y-128868454D01*
X116826005Y-128861030D01*
X116834795Y-128859318D01*
X116836738Y-128859892D01*
G37*
%TD.AperFunction*%
%TD*%
%TA.AperFunction,Conductor*%
%TO.N,Net-(J1-Pin_21)*%
G36*
X116173433Y-126123910D02*
G01*
X116173661Y-126124067D01*
X116494050Y-126351502D01*
X116498812Y-126359086D01*
X116498977Y-126361043D01*
X116498977Y-126485187D01*
X116495550Y-126493460D01*
X116489315Y-126496708D01*
X116085007Y-126568209D01*
X116076263Y-126566275D01*
X116071503Y-126559017D01*
X116024974Y-126329798D01*
X116026685Y-126321009D01*
X116157196Y-126127083D01*
X116164657Y-126122134D01*
X116173433Y-126123910D01*
G37*
%TD.AperFunction*%
%TD*%
%TA.AperFunction,Conductor*%
%TO.N,Net-(J1-Pin_21)*%
G36*
X125922211Y-126185060D02*
G01*
X125928423Y-126191510D01*
X125928998Y-126193456D01*
X125975527Y-126422672D01*
X125975527Y-126427328D01*
X125928998Y-126656543D01*
X125923994Y-126663969D01*
X125915204Y-126665681D01*
X125913258Y-126665106D01*
X125487230Y-126497914D01*
X125480780Y-126491702D01*
X125479804Y-126487023D01*
X125479804Y-126362976D01*
X125483231Y-126354703D01*
X125487227Y-126352086D01*
X125913259Y-126184893D01*
X125922211Y-126185060D01*
G37*
%TD.AperFunction*%
%TD*%
%TA.AperFunction,Conductor*%
%TO.N,Net-(J1-Pin_22)*%
G36*
X116036714Y-127209312D02*
G01*
X116041478Y-127216895D01*
X116041643Y-127218854D01*
X116041643Y-127341870D01*
X116040080Y-127347712D01*
X115864095Y-127653084D01*
X115856995Y-127658541D01*
X115848116Y-127657379D01*
X115847479Y-127656985D01*
X115653070Y-127527706D01*
X115648079Y-127520271D01*
X115648065Y-127520201D01*
X115614458Y-127347712D01*
X115603519Y-127291568D01*
X115605300Y-127282793D01*
X115612765Y-127277847D01*
X115612974Y-127277808D01*
X116027986Y-127207319D01*
X116036714Y-127209312D01*
G37*
%TD.AperFunction*%
%TD*%
%TA.AperFunction,Conductor*%
%TO.N,Net-(J1-Pin_22)*%
G36*
X125091649Y-127050368D02*
G01*
X125223266Y-127245938D01*
X125225042Y-127254714D01*
X125225025Y-127254798D01*
X125178863Y-127482209D01*
X125173859Y-127489635D01*
X125165069Y-127491347D01*
X125163666Y-127490970D01*
X124737773Y-127347681D01*
X124731025Y-127341795D01*
X124729804Y-127336592D01*
X124729804Y-127212516D01*
X124733231Y-127204243D01*
X124736638Y-127201875D01*
X125077080Y-127046258D01*
X125086027Y-127045936D01*
X125091649Y-127050368D01*
G37*
%TD.AperFunction*%
%TD*%
%TA.AperFunction,Conductor*%
%TO.N,Net-(J1-Pin_25)*%
G36*
X116486738Y-128259892D02*
G01*
X116912771Y-128427086D01*
X116919220Y-128433297D01*
X116920196Y-128437976D01*
X116920196Y-128562023D01*
X116916769Y-128570296D01*
X116912770Y-128572914D01*
X116486741Y-128740106D01*
X116477788Y-128739939D01*
X116471576Y-128733489D01*
X116471002Y-128731548D01*
X116424472Y-128502325D01*
X116424472Y-128497674D01*
X116471002Y-128268454D01*
X116476005Y-128261030D01*
X116484795Y-128259318D01*
X116486738Y-128259892D01*
G37*
%TD.AperFunction*%
%TD*%
%TA.AperFunction,Conductor*%
%TO.N,Net-(J1-Pin_26)*%
G36*
X128772211Y-128860060D02*
G01*
X128778423Y-128866510D01*
X128778998Y-128868456D01*
X128825527Y-129097672D01*
X128825527Y-129102328D01*
X128778998Y-129331543D01*
X128773994Y-129338969D01*
X128765204Y-129340681D01*
X128763258Y-129340106D01*
X128337230Y-129172914D01*
X128330780Y-129166702D01*
X128329804Y-129162023D01*
X128329804Y-129037976D01*
X128333231Y-129029703D01*
X128337227Y-129027086D01*
X128763259Y-128859893D01*
X128772211Y-128860060D01*
G37*
%TD.AperFunction*%
%TD*%
%TA.AperFunction,Conductor*%
%TO.N,Net-(J1-Pin_25)*%
G36*
X130279860Y-129139337D02*
G01*
X130282438Y-129143234D01*
X130469932Y-129608174D01*
X130469848Y-129617129D01*
X130463457Y-129623401D01*
X130461402Y-129624018D01*
X130235484Y-129669740D01*
X130226695Y-129668022D01*
X130226655Y-129667995D01*
X130030747Y-129536872D01*
X130025778Y-129529423D01*
X130026818Y-129521861D01*
X130175987Y-129227483D01*
X130178146Y-129224505D01*
X130263315Y-129139336D01*
X130271587Y-129135910D01*
X130279860Y-129139337D01*
G37*
%TD.AperFunction*%
%TD*%
%TA.AperFunction,Conductor*%
%TO.N,Net-(J1-Pin_23)*%
G36*
X132961738Y-129584892D02*
G01*
X133387771Y-129752086D01*
X133394220Y-129758297D01*
X133395196Y-129762976D01*
X133395196Y-129887023D01*
X133391769Y-129895296D01*
X133387770Y-129897914D01*
X132961741Y-130065106D01*
X132952788Y-130064939D01*
X132946576Y-130058489D01*
X132946002Y-130056548D01*
X132899472Y-129827325D01*
X132899472Y-129822674D01*
X132946002Y-129593454D01*
X132951005Y-129586030D01*
X132959795Y-129584318D01*
X132961738Y-129584892D01*
G37*
%TD.AperFunction*%
%TD*%
%TA.AperFunction,Conductor*%
%TO.N,Net-(J1-Pin_23)*%
G36*
X132606647Y-129428534D02*
G01*
X133026123Y-129611561D01*
X133032335Y-129618011D01*
X133032168Y-129626964D01*
X133031198Y-129628747D01*
X132902018Y-129823726D01*
X132898726Y-129827018D01*
X132703747Y-129956198D01*
X132694958Y-129957910D01*
X132687531Y-129952906D01*
X132686561Y-129951123D01*
X132631839Y-129825707D01*
X132503534Y-129531649D01*
X132503368Y-129522699D01*
X132505984Y-129518702D01*
X132593701Y-129430985D01*
X132601973Y-129427559D01*
X132606647Y-129428534D01*
G37*
%TD.AperFunction*%
%TD*%
%TA.AperFunction,Conductor*%
%TO.N,Net-(J1-Pin_7)*%
G36*
X145257211Y-121810060D02*
G01*
X145263423Y-121816510D01*
X145263998Y-121818456D01*
X145310527Y-122047672D01*
X145310527Y-122052328D01*
X145263998Y-122281543D01*
X145258994Y-122288969D01*
X145250204Y-122290681D01*
X145248258Y-122290106D01*
X144822230Y-122122914D01*
X144815780Y-122116702D01*
X144814804Y-122112023D01*
X144814804Y-121987976D01*
X144818231Y-121979703D01*
X144822227Y-121977086D01*
X145248259Y-121809893D01*
X145257211Y-121810060D01*
G37*
%TD.AperFunction*%
%TD*%
%TA.AperFunction,Conductor*%
%TO.N,Net-(J1-Pin_7)*%
G36*
X145371738Y-121809892D02*
G01*
X145797771Y-121977086D01*
X145804220Y-121983297D01*
X145805196Y-121987976D01*
X145805196Y-122112023D01*
X145801769Y-122120296D01*
X145797770Y-122122914D01*
X145371741Y-122290106D01*
X145362788Y-122289939D01*
X145356576Y-122283489D01*
X145356002Y-122281548D01*
X145309472Y-122052325D01*
X145309472Y-122047674D01*
X145356002Y-121818454D01*
X145361005Y-121811030D01*
X145369795Y-121809318D01*
X145371738Y-121809892D01*
G37*
%TD.AperFunction*%
%TD*%
%TA.AperFunction,Conductor*%
%TO.N,Net-(J1-Pin_23)*%
G36*
X142167211Y-124620060D02*
G01*
X142173423Y-124626510D01*
X142173998Y-124628456D01*
X142220527Y-124857672D01*
X142220527Y-124862328D01*
X142173998Y-125091543D01*
X142168994Y-125098969D01*
X142160204Y-125100681D01*
X142158258Y-125100106D01*
X141732230Y-124932914D01*
X141725780Y-124926702D01*
X141724804Y-124922023D01*
X141724804Y-124797976D01*
X141728231Y-124789703D01*
X141732227Y-124787086D01*
X142158259Y-124619893D01*
X142167211Y-124620060D01*
G37*
%TD.AperFunction*%
%TD*%
%TA.AperFunction,Conductor*%
%TO.N,Net-(J1-Pin_5)*%
G36*
X145371738Y-119019892D02*
G01*
X145797771Y-119187086D01*
X145804220Y-119193297D01*
X145805196Y-119197976D01*
X145805196Y-119322023D01*
X145801769Y-119330296D01*
X145797770Y-119332914D01*
X145371741Y-119500106D01*
X145362788Y-119499939D01*
X145356576Y-119493489D01*
X145356002Y-119491548D01*
X145309472Y-119262325D01*
X145309472Y-119257674D01*
X145356002Y-119028454D01*
X145361005Y-119021030D01*
X145369795Y-119019318D01*
X145371738Y-119019892D01*
G37*
%TD.AperFunction*%
%TD*%
%TA.AperFunction,Conductor*%
%TO.N,Net-(J1-Pin_5)*%
G36*
X145257211Y-119020060D02*
G01*
X145263423Y-119026510D01*
X145263998Y-119028456D01*
X145310527Y-119257672D01*
X145310527Y-119262328D01*
X145263998Y-119491543D01*
X145258994Y-119498969D01*
X145250204Y-119500681D01*
X145248258Y-119500106D01*
X144822230Y-119332914D01*
X144815780Y-119326702D01*
X144814804Y-119322023D01*
X144814804Y-119197976D01*
X144818231Y-119189703D01*
X144822227Y-119187086D01*
X145248259Y-119019893D01*
X145257211Y-119020060D01*
G37*
%TD.AperFunction*%
%TD*%
M02*
