%TF.GenerationSoftware,KiCad,Pcbnew,9.0.3*%
%TF.CreationDate,2025-08-09T15:08:58+03:00*%
%TF.ProjectId,Right,52696768-742e-46b6-9963-61645f706362,rev?*%
%TF.SameCoordinates,Original*%
%TF.FileFunction,Legend,Top*%
%TF.FilePolarity,Positive*%
%FSLAX46Y46*%
G04 Gerber Fmt 4.6, Leading zero omitted, Abs format (unit mm)*
G04 Created by KiCad (PCBNEW 9.0.3) date 2025-08-09 15:08:58*
%MOMM*%
%LPD*%
G01*
G04 APERTURE LIST*
%ADD10C,0.250000*%
%ADD11C,0.100000*%
%ADD12C,0.150000*%
G04 APERTURE END LIST*
D10*
X132137141Y-101590142D02*
X132137141Y-102447285D01*
X132137141Y-102447285D02*
X132079998Y-102618714D01*
X132079998Y-102618714D02*
X131965712Y-102733000D01*
X131965712Y-102733000D02*
X131794284Y-102790142D01*
X131794284Y-102790142D02*
X131679998Y-102790142D01*
X133279998Y-102790142D02*
X132708570Y-102790142D01*
X132708570Y-102790142D02*
X132708570Y-101590142D01*
X134365713Y-102675857D02*
X134308570Y-102733000D01*
X134308570Y-102733000D02*
X134137142Y-102790142D01*
X134137142Y-102790142D02*
X134022856Y-102790142D01*
X134022856Y-102790142D02*
X133851427Y-102733000D01*
X133851427Y-102733000D02*
X133737142Y-102618714D01*
X133737142Y-102618714D02*
X133679999Y-102504428D01*
X133679999Y-102504428D02*
X133622856Y-102275857D01*
X133622856Y-102275857D02*
X133622856Y-102104428D01*
X133622856Y-102104428D02*
X133679999Y-101875857D01*
X133679999Y-101875857D02*
X133737142Y-101761571D01*
X133737142Y-101761571D02*
X133851427Y-101647285D01*
X133851427Y-101647285D02*
X134022856Y-101590142D01*
X134022856Y-101590142D02*
X134137142Y-101590142D01*
X134137142Y-101590142D02*
X134308570Y-101647285D01*
X134308570Y-101647285D02*
X134365713Y-101704428D01*
X135222856Y-101590142D02*
X135222856Y-102447285D01*
X135222856Y-102447285D02*
X135165713Y-102618714D01*
X135165713Y-102618714D02*
X135051427Y-102733000D01*
X135051427Y-102733000D02*
X134879999Y-102790142D01*
X134879999Y-102790142D02*
X134765713Y-102790142D01*
X136365713Y-102790142D02*
X135794285Y-102790142D01*
X135794285Y-102790142D02*
X135794285Y-101590142D01*
X137451428Y-102675857D02*
X137394285Y-102733000D01*
X137394285Y-102733000D02*
X137222857Y-102790142D01*
X137222857Y-102790142D02*
X137108571Y-102790142D01*
X137108571Y-102790142D02*
X136937142Y-102733000D01*
X136937142Y-102733000D02*
X136822857Y-102618714D01*
X136822857Y-102618714D02*
X136765714Y-102504428D01*
X136765714Y-102504428D02*
X136708571Y-102275857D01*
X136708571Y-102275857D02*
X136708571Y-102104428D01*
X136708571Y-102104428D02*
X136765714Y-101875857D01*
X136765714Y-101875857D02*
X136822857Y-101761571D01*
X136822857Y-101761571D02*
X136937142Y-101647285D01*
X136937142Y-101647285D02*
X137108571Y-101590142D01*
X137108571Y-101590142D02*
X137222857Y-101590142D01*
X137222857Y-101590142D02*
X137394285Y-101647285D01*
X137394285Y-101647285D02*
X137451428Y-101704428D01*
X138308571Y-101590142D02*
X138308571Y-102447285D01*
X138308571Y-102447285D02*
X138251428Y-102618714D01*
X138251428Y-102618714D02*
X138137142Y-102733000D01*
X138137142Y-102733000D02*
X137965714Y-102790142D01*
X137965714Y-102790142D02*
X137851428Y-102790142D01*
X139451428Y-102790142D02*
X138880000Y-102790142D01*
X138880000Y-102790142D02*
X138880000Y-101590142D01*
X140537143Y-102675857D02*
X140480000Y-102733000D01*
X140480000Y-102733000D02*
X140308572Y-102790142D01*
X140308572Y-102790142D02*
X140194286Y-102790142D01*
X140194286Y-102790142D02*
X140022857Y-102733000D01*
X140022857Y-102733000D02*
X139908572Y-102618714D01*
X139908572Y-102618714D02*
X139851429Y-102504428D01*
X139851429Y-102504428D02*
X139794286Y-102275857D01*
X139794286Y-102275857D02*
X139794286Y-102104428D01*
X139794286Y-102104428D02*
X139851429Y-101875857D01*
X139851429Y-101875857D02*
X139908572Y-101761571D01*
X139908572Y-101761571D02*
X140022857Y-101647285D01*
X140022857Y-101647285D02*
X140194286Y-101590142D01*
X140194286Y-101590142D02*
X140308572Y-101590142D01*
X140308572Y-101590142D02*
X140480000Y-101647285D01*
X140480000Y-101647285D02*
X140537143Y-101704428D01*
X141394286Y-101590142D02*
X141394286Y-102447285D01*
X141394286Y-102447285D02*
X141337143Y-102618714D01*
X141337143Y-102618714D02*
X141222857Y-102733000D01*
X141222857Y-102733000D02*
X141051429Y-102790142D01*
X141051429Y-102790142D02*
X140937143Y-102790142D01*
X142537143Y-102790142D02*
X141965715Y-102790142D01*
X141965715Y-102790142D02*
X141965715Y-101590142D01*
X143622858Y-102675857D02*
X143565715Y-102733000D01*
X143565715Y-102733000D02*
X143394287Y-102790142D01*
X143394287Y-102790142D02*
X143280001Y-102790142D01*
X143280001Y-102790142D02*
X143108572Y-102733000D01*
X143108572Y-102733000D02*
X142994287Y-102618714D01*
X142994287Y-102618714D02*
X142937144Y-102504428D01*
X142937144Y-102504428D02*
X142880001Y-102275857D01*
X142880001Y-102275857D02*
X142880001Y-102104428D01*
X142880001Y-102104428D02*
X142937144Y-101875857D01*
X142937144Y-101875857D02*
X142994287Y-101761571D01*
X142994287Y-101761571D02*
X143108572Y-101647285D01*
X143108572Y-101647285D02*
X143280001Y-101590142D01*
X143280001Y-101590142D02*
X143394287Y-101590142D01*
X143394287Y-101590142D02*
X143565715Y-101647285D01*
X143565715Y-101647285D02*
X143622858Y-101704428D01*
D11*
X121975000Y-131000000D02*
X147950000Y-131000000D01*
X122000000Y-133000000D02*
X147975000Y-133000000D01*
D12*
X114656666Y-175424819D02*
X114656666Y-176139104D01*
X114656666Y-176139104D02*
X114609047Y-176281961D01*
X114609047Y-176281961D02*
X114513809Y-176377200D01*
X114513809Y-176377200D02*
X114370952Y-176424819D01*
X114370952Y-176424819D02*
X114275714Y-176424819D01*
X115656666Y-176424819D02*
X115085238Y-176424819D01*
X115370952Y-176424819D02*
X115370952Y-175424819D01*
X115370952Y-175424819D02*
X115275714Y-175567676D01*
X115275714Y-175567676D02*
X115180476Y-175662914D01*
X115180476Y-175662914D02*
X115085238Y-175710533D01*
X125404819Y-126711904D02*
X126214342Y-126711904D01*
X126214342Y-126711904D02*
X126309580Y-126664285D01*
X126309580Y-126664285D02*
X126357200Y-126616666D01*
X126357200Y-126616666D02*
X126404819Y-126521428D01*
X126404819Y-126521428D02*
X126404819Y-126330952D01*
X126404819Y-126330952D02*
X126357200Y-126235714D01*
X126357200Y-126235714D02*
X126309580Y-126188095D01*
X126309580Y-126188095D02*
X126214342Y-126140476D01*
X126214342Y-126140476D02*
X125404819Y-126140476D01*
X126404819Y-125140476D02*
X126404819Y-125711904D01*
X126404819Y-125426190D02*
X125404819Y-125426190D01*
X125404819Y-125426190D02*
X125547676Y-125521428D01*
X125547676Y-125521428D02*
X125642914Y-125616666D01*
X125642914Y-125616666D02*
X125690533Y-125711904D01*
X115548931Y-126369072D02*
X115084762Y-126019193D01*
X115005470Y-126545653D02*
X114696453Y-125594596D01*
X114696453Y-125594596D02*
X115058761Y-125476876D01*
X115058761Y-125476876D02*
X115164053Y-125492734D01*
X115164053Y-125492734D02*
X115224056Y-125523307D01*
X115224056Y-125523307D02*
X115298775Y-125599169D01*
X115298775Y-125599169D02*
X115342920Y-125735034D01*
X115342920Y-125735034D02*
X115327062Y-125840326D01*
X115327062Y-125840326D02*
X115296488Y-125900330D01*
X115296488Y-125900330D02*
X115220627Y-125975048D01*
X115220627Y-125975048D02*
X114858320Y-126092769D01*
X116055106Y-125153144D02*
X115873952Y-125212004D01*
X115873952Y-125212004D02*
X115798090Y-125286723D01*
X115798090Y-125286723D02*
X115767517Y-125346726D01*
X115767517Y-125346726D02*
X115721085Y-125512021D01*
X115721085Y-125512021D02*
X115734657Y-125707890D01*
X115734657Y-125707890D02*
X115852378Y-126070197D01*
X115852378Y-126070197D02*
X115927097Y-126146059D01*
X115927097Y-126146059D02*
X115987100Y-126176632D01*
X115987100Y-126176632D02*
X116092392Y-126192491D01*
X116092392Y-126192491D02*
X116273546Y-126133630D01*
X116273546Y-126133630D02*
X116349408Y-126058912D01*
X116349408Y-126058912D02*
X116379981Y-125998908D01*
X116379981Y-125998908D02*
X116395839Y-125893616D01*
X116395839Y-125893616D02*
X116322264Y-125667174D01*
X116322264Y-125667174D02*
X116247545Y-125591313D01*
X116247545Y-125591313D02*
X116187542Y-125560739D01*
X116187542Y-125560739D02*
X116082250Y-125544881D01*
X116082250Y-125544881D02*
X115901096Y-125603741D01*
X115901096Y-125603741D02*
X115825234Y-125678460D01*
X115825234Y-125678460D02*
X115794661Y-125738463D01*
X115794661Y-125738463D02*
X115778803Y-125843755D01*
X115282335Y-110169504D02*
X115122195Y-109610734D01*
X114742039Y-109983465D02*
X115067607Y-109037947D01*
X115067607Y-109037947D02*
X115427804Y-109161973D01*
X115427804Y-109161973D02*
X115502350Y-109238004D01*
X115502350Y-109238004D02*
X115531872Y-109298532D01*
X115531872Y-109298532D02*
X115545890Y-109404084D01*
X115545890Y-109404084D02*
X115499380Y-109539158D01*
X115499380Y-109539158D02*
X115423349Y-109613705D01*
X115423349Y-109613705D02*
X115362821Y-109643226D01*
X115362821Y-109643226D02*
X115257269Y-109657244D01*
X115257269Y-109657244D02*
X114897071Y-109533218D01*
X115923076Y-109332508D02*
X116508397Y-109534050D01*
X116508397Y-109534050D02*
X116069198Y-109785725D01*
X116069198Y-109785725D02*
X116204272Y-109832235D01*
X116204272Y-109832235D02*
X116278818Y-109908266D01*
X116278818Y-109908266D02*
X116308340Y-109968794D01*
X116308340Y-109968794D02*
X116322358Y-110074347D01*
X116322358Y-110074347D02*
X116244842Y-110299470D01*
X116244842Y-110299470D02*
X116168811Y-110374016D01*
X116168811Y-110374016D02*
X116108283Y-110403538D01*
X116108283Y-110403538D02*
X116002730Y-110417556D01*
X116002730Y-110417556D02*
X115732582Y-110324537D01*
X115732582Y-110324537D02*
X115658036Y-110248505D01*
X115658036Y-110248505D02*
X115628514Y-110187977D01*
X119328225Y-113029134D02*
X119527105Y-112482952D01*
X119000467Y-112561047D02*
X119819619Y-111987471D01*
X119819619Y-111987471D02*
X120038124Y-112299529D01*
X120038124Y-112299529D02*
X120053743Y-112404856D01*
X120053743Y-112404856D02*
X120042049Y-112471177D01*
X120042049Y-112471177D02*
X119991348Y-112564810D01*
X119991348Y-112564810D02*
X119874326Y-112646750D01*
X119874326Y-112646750D02*
X119768998Y-112662369D01*
X119768998Y-112662369D02*
X119702678Y-112650675D01*
X119702678Y-112650675D02*
X119609044Y-112599973D01*
X119609044Y-112599973D02*
X119390539Y-112287916D01*
X120365963Y-113348880D02*
X119819862Y-113731264D01*
X120541455Y-112935339D02*
X119819781Y-113150000D01*
X119819781Y-113150000D02*
X120174852Y-113657094D01*
X110247360Y-110261391D02*
X109777155Y-109919666D01*
X109707064Y-110447430D02*
X109381496Y-109501911D01*
X109381496Y-109501911D02*
X109741693Y-109377885D01*
X109741693Y-109377885D02*
X109847246Y-109391903D01*
X109847246Y-109391903D02*
X109907774Y-109421425D01*
X109907774Y-109421425D02*
X109983805Y-109495971D01*
X109983805Y-109495971D02*
X110030315Y-109631045D01*
X110030315Y-109631045D02*
X110016296Y-109736597D01*
X110016296Y-109736597D02*
X109986775Y-109797125D01*
X109986775Y-109797125D02*
X109912229Y-109873157D01*
X109912229Y-109873157D02*
X109552031Y-109997183D01*
X110312996Y-109281895D02*
X110342517Y-109221367D01*
X110342517Y-109221367D02*
X110417064Y-109145336D01*
X110417064Y-109145336D02*
X110642187Y-109067820D01*
X110642187Y-109067820D02*
X110747740Y-109081838D01*
X110747740Y-109081838D02*
X110808268Y-109111360D01*
X110808268Y-109111360D02*
X110884299Y-109185906D01*
X110884299Y-109185906D02*
X110915305Y-109275955D01*
X110915305Y-109275955D02*
X110916790Y-109426533D01*
X110916790Y-109426533D02*
X110562533Y-110152868D01*
X110562533Y-110152868D02*
X111147854Y-109951326D01*
X110009752Y-126291066D02*
X109839884Y-125735177D01*
X109466291Y-126114485D02*
X109775308Y-125163429D01*
X109775308Y-125163429D02*
X110137615Y-125281150D01*
X110137615Y-125281150D02*
X110213477Y-125355868D01*
X110213477Y-125355868D02*
X110244050Y-125415872D01*
X110244050Y-125415872D02*
X110259908Y-125521164D01*
X110259908Y-125521164D02*
X110215763Y-125657029D01*
X110215763Y-125657029D02*
X110141044Y-125732890D01*
X110141044Y-125732890D02*
X110081041Y-125763464D01*
X110081041Y-125763464D02*
X109975749Y-125779322D01*
X109975749Y-125779322D02*
X109613442Y-125661601D01*
X110635788Y-125443016D02*
X111269825Y-125649027D01*
X111269825Y-125649027D02*
X110553213Y-126467648D01*
X119636009Y-104425714D02*
X119683628Y-104282857D01*
X119683628Y-104282857D02*
X119731247Y-104235238D01*
X119731247Y-104235238D02*
X119826485Y-104187619D01*
X119826485Y-104187619D02*
X119969342Y-104187619D01*
X119969342Y-104187619D02*
X120064580Y-104235238D01*
X120064580Y-104235238D02*
X120112200Y-104282857D01*
X120112200Y-104282857D02*
X120159819Y-104378095D01*
X120159819Y-104378095D02*
X120159819Y-104759047D01*
X120159819Y-104759047D02*
X119159819Y-104759047D01*
X119159819Y-104759047D02*
X119159819Y-104425714D01*
X119159819Y-104425714D02*
X119207438Y-104330476D01*
X119207438Y-104330476D02*
X119255057Y-104282857D01*
X119255057Y-104282857D02*
X119350295Y-104235238D01*
X119350295Y-104235238D02*
X119445533Y-104235238D01*
X119445533Y-104235238D02*
X119540771Y-104282857D01*
X119540771Y-104282857D02*
X119588390Y-104330476D01*
X119588390Y-104330476D02*
X119636009Y-104425714D01*
X119636009Y-104425714D02*
X119636009Y-104759047D01*
X119159819Y-103901904D02*
X119159819Y-103330476D01*
X120159819Y-103616190D02*
X119159819Y-103616190D01*
X120159819Y-102473333D02*
X120159819Y-103044761D01*
X120159819Y-102759047D02*
X119159819Y-102759047D01*
X119159819Y-102759047D02*
X119302676Y-102854285D01*
X119302676Y-102854285D02*
X119397914Y-102949523D01*
X119397914Y-102949523D02*
X119445533Y-103044761D01*
X134954819Y-120736904D02*
X135764342Y-120736904D01*
X135764342Y-120736904D02*
X135859580Y-120689285D01*
X135859580Y-120689285D02*
X135907200Y-120641666D01*
X135907200Y-120641666D02*
X135954819Y-120546428D01*
X135954819Y-120546428D02*
X135954819Y-120355952D01*
X135954819Y-120355952D02*
X135907200Y-120260714D01*
X135907200Y-120260714D02*
X135859580Y-120213095D01*
X135859580Y-120213095D02*
X135764342Y-120165476D01*
X135764342Y-120165476D02*
X134954819Y-120165476D01*
X135050057Y-119736904D02*
X135002438Y-119689285D01*
X135002438Y-119689285D02*
X134954819Y-119594047D01*
X134954819Y-119594047D02*
X134954819Y-119355952D01*
X134954819Y-119355952D02*
X135002438Y-119260714D01*
X135002438Y-119260714D02*
X135050057Y-119213095D01*
X135050057Y-119213095D02*
X135145295Y-119165476D01*
X135145295Y-119165476D02*
X135240533Y-119165476D01*
X135240533Y-119165476D02*
X135383390Y-119213095D01*
X135383390Y-119213095D02*
X135954819Y-119784523D01*
X135954819Y-119784523D02*
X135954819Y-119165476D01*
X105639094Y-122889148D02*
X105828412Y-122339578D01*
X105303217Y-122426852D02*
X106112234Y-121839067D01*
X106112234Y-121839067D02*
X106336152Y-122147264D01*
X106336152Y-122147264D02*
X106353607Y-122252303D01*
X106353607Y-122252303D02*
X106343072Y-122318817D01*
X106343072Y-122318817D02*
X106294013Y-122413321D01*
X106294013Y-122413321D02*
X106178439Y-122497291D01*
X106178439Y-122497291D02*
X106073400Y-122514746D01*
X106073400Y-122514746D02*
X106006885Y-122504211D01*
X106006885Y-122504211D02*
X105912381Y-122455151D01*
X105912381Y-122455151D02*
X105688463Y-122146954D01*
X106437267Y-123015566D02*
X106419812Y-122910527D01*
X106419812Y-122910527D02*
X106430347Y-122844012D01*
X106430347Y-122844012D02*
X106479406Y-122749508D01*
X106479406Y-122749508D02*
X106517931Y-122721518D01*
X106517931Y-122721518D02*
X106622970Y-122704064D01*
X106622970Y-122704064D02*
X106689484Y-122714598D01*
X106689484Y-122714598D02*
X106783989Y-122763658D01*
X106783989Y-122763658D02*
X106895948Y-122917756D01*
X106895948Y-122917756D02*
X106913403Y-123022795D01*
X106913403Y-123022795D02*
X106902868Y-123089310D01*
X106902868Y-123089310D02*
X106853808Y-123183814D01*
X106853808Y-123183814D02*
X106815284Y-123211804D01*
X106815284Y-123211804D02*
X106710245Y-123229259D01*
X106710245Y-123229259D02*
X106643730Y-123218724D01*
X106643730Y-123218724D02*
X106549226Y-123169664D01*
X106549226Y-123169664D02*
X106437267Y-123015566D01*
X106437267Y-123015566D02*
X106342763Y-122966506D01*
X106342763Y-122966506D02*
X106276248Y-122955971D01*
X106276248Y-122955971D02*
X106171209Y-122973426D01*
X106171209Y-122973426D02*
X106017111Y-123085386D01*
X106017111Y-123085386D02*
X105968051Y-123179890D01*
X105968051Y-123179890D02*
X105957517Y-123246404D01*
X105957517Y-123246404D02*
X105974972Y-123351443D01*
X105974972Y-123351443D02*
X106086931Y-123505542D01*
X106086931Y-123505542D02*
X106181435Y-123554601D01*
X106181435Y-123554601D02*
X106247949Y-123565136D01*
X106247949Y-123565136D02*
X106352988Y-123547681D01*
X106352988Y-123547681D02*
X106507087Y-123435722D01*
X106507087Y-123435722D02*
X106556146Y-123341218D01*
X106556146Y-123341218D02*
X106566681Y-123274703D01*
X106566681Y-123274703D02*
X106549226Y-123169664D01*
X144886666Y-121839819D02*
X144886666Y-122554104D01*
X144886666Y-122554104D02*
X144839047Y-122696961D01*
X144839047Y-122696961D02*
X144743809Y-122792200D01*
X144743809Y-122792200D02*
X144600952Y-122839819D01*
X144600952Y-122839819D02*
X144505714Y-122839819D01*
X145839047Y-121839819D02*
X145362857Y-121839819D01*
X145362857Y-121839819D02*
X145315238Y-122316009D01*
X145315238Y-122316009D02*
X145362857Y-122268390D01*
X145362857Y-122268390D02*
X145458095Y-122220771D01*
X145458095Y-122220771D02*
X145696190Y-122220771D01*
X145696190Y-122220771D02*
X145791428Y-122268390D01*
X145791428Y-122268390D02*
X145839047Y-122316009D01*
X145839047Y-122316009D02*
X145886666Y-122411247D01*
X145886666Y-122411247D02*
X145886666Y-122649342D01*
X145886666Y-122649342D02*
X145839047Y-122744580D01*
X145839047Y-122744580D02*
X145791428Y-122792200D01*
X145791428Y-122792200D02*
X145696190Y-122839819D01*
X145696190Y-122839819D02*
X145458095Y-122839819D01*
X145458095Y-122839819D02*
X145362857Y-122792200D01*
X145362857Y-122792200D02*
X145315238Y-122744580D01*
X110401009Y-105143333D02*
X110401009Y-105476666D01*
X110924819Y-105476666D02*
X109924819Y-105476666D01*
X109924819Y-105476666D02*
X109924819Y-105000476D01*
X110924819Y-104095714D02*
X110924819Y-104667142D01*
X110924819Y-104381428D02*
X109924819Y-104381428D01*
X109924819Y-104381428D02*
X110067676Y-104476666D01*
X110067676Y-104476666D02*
X110162914Y-104571904D01*
X110162914Y-104571904D02*
X110210533Y-104667142D01*
X120176886Y-123217704D02*
X119595711Y-123207479D01*
X119841009Y-123680000D02*
X119031992Y-123092214D01*
X119031992Y-123092214D02*
X119255910Y-122784017D01*
X119255910Y-122784017D02*
X119350414Y-122734958D01*
X119350414Y-122734958D02*
X119416928Y-122724423D01*
X119416928Y-122724423D02*
X119521967Y-122741878D01*
X119521967Y-122741878D02*
X119637541Y-122825847D01*
X119637541Y-122825847D02*
X119686601Y-122920352D01*
X119686601Y-122920352D02*
X119697136Y-122986866D01*
X119697136Y-122986866D02*
X119679681Y-123091905D01*
X119679681Y-123091905D02*
X119455762Y-123400102D01*
X119899675Y-121897951D02*
X119619777Y-122283197D01*
X119619777Y-122283197D02*
X119977033Y-122601620D01*
X119977033Y-122601620D02*
X119966498Y-122535105D01*
X119966498Y-122535105D02*
X119983953Y-122430066D01*
X119983953Y-122430066D02*
X120123902Y-122237443D01*
X120123902Y-122237443D02*
X120218406Y-122188384D01*
X120218406Y-122188384D02*
X120284921Y-122177849D01*
X120284921Y-122177849D02*
X120389960Y-122195304D01*
X120389960Y-122195304D02*
X120582583Y-122335253D01*
X120582583Y-122335253D02*
X120631642Y-122429757D01*
X120631642Y-122429757D02*
X120642177Y-122496271D01*
X120642177Y-122496271D02*
X120624722Y-122601310D01*
X120624722Y-122601310D02*
X120484773Y-122793933D01*
X120484773Y-122793933D02*
X120390269Y-122842993D01*
X120390269Y-122842993D02*
X120323755Y-122853528D01*
X96816666Y-98399819D02*
X96816666Y-99114104D01*
X96816666Y-99114104D02*
X96769047Y-99256961D01*
X96769047Y-99256961D02*
X96673809Y-99352200D01*
X96673809Y-99352200D02*
X96530952Y-99399819D01*
X96530952Y-99399819D02*
X96435714Y-99399819D01*
X97721428Y-98399819D02*
X97530952Y-98399819D01*
X97530952Y-98399819D02*
X97435714Y-98447438D01*
X97435714Y-98447438D02*
X97388095Y-98495057D01*
X97388095Y-98495057D02*
X97292857Y-98637914D01*
X97292857Y-98637914D02*
X97245238Y-98828390D01*
X97245238Y-98828390D02*
X97245238Y-99209342D01*
X97245238Y-99209342D02*
X97292857Y-99304580D01*
X97292857Y-99304580D02*
X97340476Y-99352200D01*
X97340476Y-99352200D02*
X97435714Y-99399819D01*
X97435714Y-99399819D02*
X97626190Y-99399819D01*
X97626190Y-99399819D02*
X97721428Y-99352200D01*
X97721428Y-99352200D02*
X97769047Y-99304580D01*
X97769047Y-99304580D02*
X97816666Y-99209342D01*
X97816666Y-99209342D02*
X97816666Y-98971247D01*
X97816666Y-98971247D02*
X97769047Y-98876009D01*
X97769047Y-98876009D02*
X97721428Y-98828390D01*
X97721428Y-98828390D02*
X97626190Y-98780771D01*
X97626190Y-98780771D02*
X97435714Y-98780771D01*
X97435714Y-98780771D02*
X97340476Y-98828390D01*
X97340476Y-98828390D02*
X97292857Y-98876009D01*
X97292857Y-98876009D02*
X97245238Y-98971247D01*
X106372039Y-113264313D02*
X105790774Y-113264232D01*
X106044281Y-113732400D02*
X105225129Y-113158823D01*
X105225129Y-113158823D02*
X105443634Y-112846765D01*
X105443634Y-112846765D02*
X105537268Y-112796064D01*
X105537268Y-112796064D02*
X105603588Y-112784370D01*
X105603588Y-112784370D02*
X105708916Y-112799989D01*
X105708916Y-112799989D02*
X105825937Y-112881929D01*
X105825937Y-112881929D02*
X105876639Y-112975562D01*
X105876639Y-112975562D02*
X105888333Y-113041883D01*
X105888333Y-113041883D02*
X105872714Y-113147210D01*
X105872714Y-113147210D02*
X105654208Y-113459268D01*
X106918302Y-112484168D02*
X106590544Y-112952255D01*
X106754423Y-112718212D02*
X105935271Y-112144635D01*
X105935271Y-112144635D02*
X105997666Y-112304589D01*
X105997666Y-112304589D02*
X106021054Y-112437230D01*
X106021054Y-112437230D02*
X106005435Y-112542558D01*
X101552200Y-187578332D02*
X101599819Y-187435475D01*
X101599819Y-187435475D02*
X101599819Y-187197380D01*
X101599819Y-187197380D02*
X101552200Y-187102142D01*
X101552200Y-187102142D02*
X101504580Y-187054523D01*
X101504580Y-187054523D02*
X101409342Y-187006904D01*
X101409342Y-187006904D02*
X101314104Y-187006904D01*
X101314104Y-187006904D02*
X101218866Y-187054523D01*
X101218866Y-187054523D02*
X101171247Y-187102142D01*
X101171247Y-187102142D02*
X101123628Y-187197380D01*
X101123628Y-187197380D02*
X101076009Y-187387856D01*
X101076009Y-187387856D02*
X101028390Y-187483094D01*
X101028390Y-187483094D02*
X100980771Y-187530713D01*
X100980771Y-187530713D02*
X100885533Y-187578332D01*
X100885533Y-187578332D02*
X100790295Y-187578332D01*
X100790295Y-187578332D02*
X100695057Y-187530713D01*
X100695057Y-187530713D02*
X100647438Y-187483094D01*
X100647438Y-187483094D02*
X100599819Y-187387856D01*
X100599819Y-187387856D02*
X100599819Y-187149761D01*
X100599819Y-187149761D02*
X100647438Y-187006904D01*
X100599819Y-186673570D02*
X101599819Y-186435475D01*
X101599819Y-186435475D02*
X100885533Y-186244999D01*
X100885533Y-186244999D02*
X101599819Y-186054523D01*
X101599819Y-186054523D02*
X100599819Y-185816428D01*
X100599819Y-185530713D02*
X100599819Y-184911666D01*
X100599819Y-184911666D02*
X100980771Y-185244999D01*
X100980771Y-185244999D02*
X100980771Y-185102142D01*
X100980771Y-185102142D02*
X101028390Y-185006904D01*
X101028390Y-185006904D02*
X101076009Y-184959285D01*
X101076009Y-184959285D02*
X101171247Y-184911666D01*
X101171247Y-184911666D02*
X101409342Y-184911666D01*
X101409342Y-184911666D02*
X101504580Y-184959285D01*
X101504580Y-184959285D02*
X101552200Y-185006904D01*
X101552200Y-185006904D02*
X101599819Y-185102142D01*
X101599819Y-185102142D02*
X101599819Y-185387856D01*
X101599819Y-185387856D02*
X101552200Y-185483094D01*
X101552200Y-185483094D02*
X101504580Y-185530713D01*
X133176667Y-134347200D02*
X133319524Y-134394819D01*
X133319524Y-134394819D02*
X133557619Y-134394819D01*
X133557619Y-134394819D02*
X133652857Y-134347200D01*
X133652857Y-134347200D02*
X133700476Y-134299580D01*
X133700476Y-134299580D02*
X133748095Y-134204342D01*
X133748095Y-134204342D02*
X133748095Y-134109104D01*
X133748095Y-134109104D02*
X133700476Y-134013866D01*
X133700476Y-134013866D02*
X133652857Y-133966247D01*
X133652857Y-133966247D02*
X133557619Y-133918628D01*
X133557619Y-133918628D02*
X133367143Y-133871009D01*
X133367143Y-133871009D02*
X133271905Y-133823390D01*
X133271905Y-133823390D02*
X133224286Y-133775771D01*
X133224286Y-133775771D02*
X133176667Y-133680533D01*
X133176667Y-133680533D02*
X133176667Y-133585295D01*
X133176667Y-133585295D02*
X133224286Y-133490057D01*
X133224286Y-133490057D02*
X133271905Y-133442438D01*
X133271905Y-133442438D02*
X133367143Y-133394819D01*
X133367143Y-133394819D02*
X133605238Y-133394819D01*
X133605238Y-133394819D02*
X133748095Y-133442438D01*
X134081429Y-133394819D02*
X134319524Y-134394819D01*
X134319524Y-134394819D02*
X134510000Y-133680533D01*
X134510000Y-133680533D02*
X134700476Y-134394819D01*
X134700476Y-134394819D02*
X134938572Y-133394819D01*
X135748095Y-133728152D02*
X135748095Y-134394819D01*
X135510000Y-133347200D02*
X135271905Y-134061485D01*
X135271905Y-134061485D02*
X135890952Y-134061485D01*
M02*
