M48
; DRILL file {KiCad 9.0.3} date 2025-08-10T01:49:06+0300
; FORMAT={-:-/ absolute / metric / decimal}
; #@! TF.CreationDate,2025-08-10T01:49:06+03:00
; #@! TF.GenerationSoftware,Kicad,Pcbnew,9.0.3
; #@! TF.FileFunction,Plated,1,2,PTH
FMAT,2
METRIC
; #@! TA.AperFunction,Plated,PTH,ViaDrill
T1C0.300
%
G90
G05
T1
X109.01Y-128.37
X109.56Y-127.8
X110.23Y-127.17
X110.79Y-126.48
X111.23Y-129.24
X112.175Y-129.275
X113.9Y-126.34
X115.65Y-127.525
X116.025Y-126.325
X116.425Y-128.5
X116.775Y-129.1
X117.84Y-124.91
X119.05Y-124.95
X124.62Y-125.825
X125.225Y-127.25
X125.475Y-124.95
X125.975Y-126.425
X126.175Y-124.3
X128.825Y-129.1
X130.23Y-129.67
X132.9Y-129.825
X142.22Y-124.86
X145.31Y-119.26
X145.31Y-122.05
M30
