M48
; DRILL file {KiCad 9.0.3} date 2025-08-09T15:09:10+0300
; FORMAT={-:-/ absolute / metric / decimal}
; #@! TF.CreationDate,2025-08-09T15:09:10+03:00
; #@! TF.GenerationSoftware,Kicad,Pcbnew,9.0.3
; #@! TF.FileFunction,Plated,1,2,PTH
FMAT,2
METRIC
; #@! TA.AperFunction,Plated,PTH,ViaDrill
T1C0.300
%
G90
G05
T1
X109.01Y-128.37
X109.66Y-127.66
X110.52Y-126.9
X111.23Y-129.24
X111.4Y-126.14
X112.175Y-129.275
X114.35Y-125.925
X115.65Y-127.525
X116.025Y-126.325
X116.425Y-128.5
X116.775Y-129.1
X117.375Y-124.3
X118.35Y-124.95
X125.225Y-125.775
X125.225Y-127.25
X125.475Y-124.95
X125.975Y-126.425
X126.175Y-124.3
X128.825Y-129.1
X130.05Y-129.0
X132.9Y-129.825
M30
