%TF.GenerationSoftware,KiCad,Pcbnew,9.0.3*%
%TF.CreationDate,2025-08-08T19:50:08+03:00*%
%TF.ProjectId,Left,4c656674-2e6b-4696-9361-645f70636258,rev?*%
%TF.SameCoordinates,Original*%
%TF.FileFunction,Profile,NP*%
%FSLAX46Y46*%
G04 Gerber Fmt 4.6, Leading zero omitted, Abs format (unit mm)*
G04 Created by KiCad (PCBNEW 9.0.3) date 2025-08-08 19:50:08*
%MOMM*%
%LPD*%
G01*
G04 APERTURE LIST*
%TA.AperFunction,Profile*%
%ADD10C,0.050000*%
%TD*%
%TA.AperFunction,Profile*%
%ADD11C,0.100000*%
%TD*%
G04 APERTURE END LIST*
D10*
X106360000Y-101300000D02*
G75*
G02*
X110640000Y-101300000I2140000J1304998D01*
G01*
X110640000Y-101300000D02*
X113847697Y-101300000D01*
X103150000Y-102500000D02*
X98400000Y-102500000D01*
X118725000Y-98100000D02*
G75*
G02*
X118590973Y-102507752I-10225000J-1895000D01*
G01*
X103150000Y-101300000D02*
X103150000Y-102500000D01*
D11*
X117800000Y-100213000D02*
G75*
G02*
X116200000Y-100213000I-800000J0D01*
G01*
X116200000Y-100213000D02*
G75*
G02*
X117800000Y-100213000I800000J0D01*
G01*
X100800000Y-100213000D02*
G75*
G02*
X99200000Y-100213000I-800000J0D01*
G01*
X99200000Y-100213000D02*
G75*
G02*
X100800000Y-100213000I800000J0D01*
G01*
D10*
X143791405Y-90101404D02*
G75*
G02*
X144791404Y-89100004I999995J1404D01*
G01*
X106360000Y-101300000D02*
X103150000Y-101300000D01*
X113850000Y-102510000D02*
X118600000Y-102510000D01*
X118725000Y-98100000D02*
X145000000Y-98100000D01*
X143791405Y-90101404D02*
X143798594Y-95223596D01*
X143798594Y-95223596D02*
G75*
G02*
X142798595Y-96224995I-999994J-1404D01*
G01*
D11*
X109300000Y-91500000D02*
G75*
G02*
X107700000Y-91500000I-800000J0D01*
G01*
X107700000Y-91500000D02*
G75*
G02*
X109300000Y-91500000I800000J0D01*
G01*
D10*
X118200000Y-96225000D02*
X142798595Y-96225000D01*
X98396240Y-102500930D02*
G75*
G02*
X118200000Y-96225000I10103760J2500930D01*
G01*
X145000000Y-89100000D02*
X144791404Y-89100000D01*
X113847697Y-101300000D02*
X113850000Y-102510000D01*
%TO.C,J1*%
X147000000Y-89100000D02*
X145000000Y-89100000D01*
X147000000Y-90050000D02*
X147000000Y-89100000D01*
X147000000Y-98100000D02*
X145000000Y-98100000D01*
X147000000Y-98100000D02*
X147000000Y-97150000D01*
X148000000Y-90050000D02*
X147000000Y-90050000D01*
X148000000Y-90050000D02*
X148000000Y-89630000D01*
X148000000Y-97150000D02*
X147000000Y-97150000D01*
X148000000Y-97570000D02*
X148000000Y-97150000D01*
X148600000Y-89630000D02*
X148000000Y-89630000D01*
X148600000Y-89630000D02*
X148600000Y-90050000D01*
X148600000Y-97570000D02*
X148000000Y-97570000D01*
X148600000Y-97570000D02*
X148600000Y-97150000D01*
X149200000Y-90050000D02*
X148600000Y-90050000D01*
X149200000Y-97150000D02*
X148600000Y-97150000D01*
X149200000Y-97150000D02*
X149200000Y-90050000D01*
%TD*%
M02*
