%TF.GenerationSoftware,KiCad,Pcbnew,9.0.3*%
%TF.CreationDate,2025-08-09T11:02:50+03:00*%
%TF.ProjectId,EVF_extender,4556465f-6578-4746-956e-6465722e6b69,rev?*%
%TF.SameCoordinates,Original*%
%TF.FileFunction,Paste,Top*%
%TF.FilePolarity,Positive*%
%FSLAX46Y46*%
G04 Gerber Fmt 4.6, Leading zero omitted, Abs format (unit mm)*
G04 Created by KiCad (PCBNEW 9.0.3) date 2025-08-09 11:02:50*
%MOMM*%
%LPD*%
G01*
G04 APERTURE LIST*
G04 Aperture macros list*
%AMFreePoly0*
4,1,9,0.275000,0.040000,0.275000,-0.040000,0.230000,-0.090000,0.200000,-0.090000,-0.200000,-0.090000,-0.275000,-0.090000,-0.275000,0.090000,0.230000,0.090000,0.275000,0.040000,0.275000,0.040000,$1*%
%AMFreePoly1*
4,1,7,0.350000,-0.090000,-0.300000,-0.090000,-0.350000,-0.040000,-0.350000,0.040000,-0.300000,0.090000,0.350000,0.090000,0.350000,-0.090000,0.350000,-0.090000,$1*%
G04 Aperture macros list end*
%ADD10FreePoly0,0.000000*%
%ADD11FreePoly1,0.000000*%
%ADD12R,0.800000X0.180000*%
%ADD13R,0.650000X0.180000*%
%ADD14R,0.950000X0.400000*%
G04 APERTURE END LIST*
D10*
%TO.C,J4*%
X132850000Y-79000000D03*
D11*
X133500000Y-79200000D03*
D10*
X132850000Y-79400000D03*
D11*
X133500000Y-79600000D03*
D10*
X132850000Y-79800000D03*
D11*
X133500000Y-80000000D03*
D10*
X132850000Y-80200000D03*
D11*
X133500000Y-80400000D03*
D10*
X132850000Y-80600000D03*
D11*
X133500000Y-80800000D03*
D10*
X132850000Y-81000000D03*
D11*
X133500000Y-81200000D03*
D10*
X132850000Y-81400000D03*
D11*
X133500000Y-81600000D03*
D10*
X132850000Y-81800000D03*
D11*
X133500000Y-82000000D03*
D10*
X132850000Y-82200000D03*
D11*
X133500000Y-82400000D03*
D10*
X132850000Y-82600000D03*
D11*
X133500000Y-82800000D03*
D10*
X132850000Y-83000000D03*
D11*
X133500000Y-83200000D03*
D10*
X132850000Y-83400000D03*
D11*
X133500000Y-83600000D03*
D10*
X132850000Y-83800000D03*
D11*
X133500000Y-84000000D03*
D10*
X132850000Y-84200000D03*
D11*
X133500000Y-84400000D03*
D10*
X132850000Y-84600000D03*
D11*
X133500000Y-84800000D03*
D10*
X132850000Y-85000000D03*
D11*
X133500000Y-85200000D03*
D10*
X132850000Y-85400000D03*
D11*
X133500000Y-85600000D03*
D10*
X132850000Y-85800000D03*
D11*
X133500000Y-86000000D03*
D10*
X132850000Y-86200000D03*
D11*
X133500000Y-86400000D03*
D10*
X132850000Y-86600000D03*
D11*
X133500000Y-86800000D03*
D10*
X132850000Y-87000000D03*
D11*
X133500000Y-87200000D03*
D10*
X132850000Y-87400000D03*
D11*
X133500000Y-87600000D03*
D10*
X132850000Y-87800000D03*
D11*
X133500000Y-88000000D03*
D10*
X132850000Y-88200000D03*
D11*
X133500000Y-88400000D03*
D10*
X132850000Y-88600000D03*
D11*
X133500000Y-88800000D03*
D10*
X132850000Y-89000000D03*
D11*
X133500000Y-89200000D03*
D10*
X132850000Y-89400000D03*
D11*
X133500000Y-89600000D03*
D10*
X132850000Y-89800000D03*
D11*
X133500000Y-90000000D03*
D10*
X132850000Y-90200000D03*
D11*
X133500000Y-90400000D03*
D10*
X132850000Y-90600000D03*
D11*
X133500000Y-90800000D03*
D10*
X132850000Y-91000000D03*
%TD*%
D12*
%TO.C,J3*%
X157010000Y-84000000D03*
D13*
X154135000Y-83800000D03*
D12*
X157010000Y-83600000D03*
D13*
X154135000Y-83400000D03*
D12*
X157010000Y-83200000D03*
D13*
X154135000Y-83000000D03*
D12*
X157010000Y-82800000D03*
D13*
X154135000Y-82600000D03*
D12*
X157010000Y-82400000D03*
D13*
X154135000Y-82200000D03*
D12*
X157010000Y-82000000D03*
D13*
X154135000Y-81800000D03*
D12*
X157010000Y-81600000D03*
D13*
X154135000Y-81400000D03*
D12*
X157010000Y-81200000D03*
D13*
X154135000Y-81000000D03*
D12*
X157010000Y-80800000D03*
D13*
X154135000Y-80600000D03*
D12*
X157010000Y-80400000D03*
D13*
X154135000Y-80200000D03*
D12*
X157010000Y-80000000D03*
D13*
X154135000Y-79800000D03*
D12*
X157010000Y-79600000D03*
D13*
X154135000Y-79400000D03*
D12*
X157010000Y-79200000D03*
D13*
X154135000Y-79000000D03*
D12*
X157010000Y-78800000D03*
D13*
X154135000Y-78600000D03*
D12*
X157010000Y-78400000D03*
D13*
X154135000Y-78200000D03*
D12*
X157010000Y-78000000D03*
D13*
X154135000Y-77800000D03*
D12*
X157010000Y-77600000D03*
D13*
X154135000Y-77400000D03*
D12*
X157010000Y-77200000D03*
D13*
X154135000Y-77000000D03*
D12*
X157010000Y-76800000D03*
D13*
X154135000Y-76600000D03*
D12*
X157010000Y-76400000D03*
D13*
X154135000Y-76200000D03*
D12*
X157010000Y-76000000D03*
D13*
X154135000Y-75800000D03*
D12*
X157010000Y-75600000D03*
D13*
X154135000Y-75400000D03*
D12*
X157010000Y-75200000D03*
D13*
X154135000Y-75000000D03*
D12*
X157010000Y-74800000D03*
D13*
X154135000Y-74600000D03*
D12*
X157010000Y-74400000D03*
D13*
X154135000Y-74200000D03*
D12*
X157010000Y-74000000D03*
D13*
X154135000Y-73800000D03*
D12*
X157010000Y-73600000D03*
D13*
X154135000Y-73400000D03*
D12*
X157010000Y-73200000D03*
D13*
X154135000Y-73000000D03*
D12*
X157010000Y-72800000D03*
D13*
X154135000Y-72600000D03*
D12*
X157010000Y-72400000D03*
D13*
X154135000Y-72200000D03*
D12*
X157010000Y-72000000D03*
D14*
X156735000Y-84700000D03*
X156735000Y-71300000D03*
%TD*%
M02*
