%TF.GenerationSoftware,KiCad,Pcbnew,9.0.3*%
%TF.CreationDate,2025-08-09T11:02:50+03:00*%
%TF.ProjectId,EVF_extender,4556465f-6578-4746-956e-6465722e6b69,rev?*%
%TF.SameCoordinates,Original*%
%TF.FileFunction,Legend,Top*%
%TF.FilePolarity,Positive*%
%FSLAX46Y46*%
G04 Gerber Fmt 4.6, Leading zero omitted, Abs format (unit mm)*
G04 Created by KiCad (PCBNEW 9.0.3) date 2025-08-09 11:02:50*
%MOMM*%
%LPD*%
G01*
G04 APERTURE LIST*
%ADD10C,0.187500*%
%ADD11C,0.150000*%
G04 APERTURE END LIST*
D10*
X158307869Y-82629048D02*
X159022154Y-82629048D01*
X159022154Y-82629048D02*
X159165011Y-82676667D01*
X159165011Y-82676667D02*
X159260250Y-82771905D01*
X159260250Y-82771905D02*
X159307869Y-82914762D01*
X159307869Y-82914762D02*
X159307869Y-83010000D01*
X159307869Y-81676667D02*
X159307869Y-82152857D01*
X159307869Y-82152857D02*
X158307869Y-82152857D01*
X159212630Y-80771905D02*
X159260250Y-80819524D01*
X159260250Y-80819524D02*
X159307869Y-80962381D01*
X159307869Y-80962381D02*
X159307869Y-81057619D01*
X159307869Y-81057619D02*
X159260250Y-81200476D01*
X159260250Y-81200476D02*
X159165011Y-81295714D01*
X159165011Y-81295714D02*
X159069773Y-81343333D01*
X159069773Y-81343333D02*
X158879297Y-81390952D01*
X158879297Y-81390952D02*
X158736440Y-81390952D01*
X158736440Y-81390952D02*
X158545964Y-81343333D01*
X158545964Y-81343333D02*
X158450726Y-81295714D01*
X158450726Y-81295714D02*
X158355488Y-81200476D01*
X158355488Y-81200476D02*
X158307869Y-81057619D01*
X158307869Y-81057619D02*
X158307869Y-80962381D01*
X158307869Y-80962381D02*
X158355488Y-80819524D01*
X158355488Y-80819524D02*
X158403107Y-80771905D01*
X158307869Y-80057619D02*
X159022154Y-80057619D01*
X159022154Y-80057619D02*
X159165011Y-80105238D01*
X159165011Y-80105238D02*
X159260250Y-80200476D01*
X159260250Y-80200476D02*
X159307869Y-80343333D01*
X159307869Y-80343333D02*
X159307869Y-80438571D01*
X159307869Y-79105238D02*
X159307869Y-79581428D01*
X159307869Y-79581428D02*
X158307869Y-79581428D01*
X159212630Y-78200476D02*
X159260250Y-78248095D01*
X159260250Y-78248095D02*
X159307869Y-78390952D01*
X159307869Y-78390952D02*
X159307869Y-78486190D01*
X159307869Y-78486190D02*
X159260250Y-78629047D01*
X159260250Y-78629047D02*
X159165011Y-78724285D01*
X159165011Y-78724285D02*
X159069773Y-78771904D01*
X159069773Y-78771904D02*
X158879297Y-78819523D01*
X158879297Y-78819523D02*
X158736440Y-78819523D01*
X158736440Y-78819523D02*
X158545964Y-78771904D01*
X158545964Y-78771904D02*
X158450726Y-78724285D01*
X158450726Y-78724285D02*
X158355488Y-78629047D01*
X158355488Y-78629047D02*
X158307869Y-78486190D01*
X158307869Y-78486190D02*
X158307869Y-78390952D01*
X158307869Y-78390952D02*
X158355488Y-78248095D01*
X158355488Y-78248095D02*
X158403107Y-78200476D01*
X158307869Y-77486190D02*
X159022154Y-77486190D01*
X159022154Y-77486190D02*
X159165011Y-77533809D01*
X159165011Y-77533809D02*
X159260250Y-77629047D01*
X159260250Y-77629047D02*
X159307869Y-77771904D01*
X159307869Y-77771904D02*
X159307869Y-77867142D01*
X159307869Y-76533809D02*
X159307869Y-77009999D01*
X159307869Y-77009999D02*
X158307869Y-77009999D01*
X159212630Y-75629047D02*
X159260250Y-75676666D01*
X159260250Y-75676666D02*
X159307869Y-75819523D01*
X159307869Y-75819523D02*
X159307869Y-75914761D01*
X159307869Y-75914761D02*
X159260250Y-76057618D01*
X159260250Y-76057618D02*
X159165011Y-76152856D01*
X159165011Y-76152856D02*
X159069773Y-76200475D01*
X159069773Y-76200475D02*
X158879297Y-76248094D01*
X158879297Y-76248094D02*
X158736440Y-76248094D01*
X158736440Y-76248094D02*
X158545964Y-76200475D01*
X158545964Y-76200475D02*
X158450726Y-76152856D01*
X158450726Y-76152856D02*
X158355488Y-76057618D01*
X158355488Y-76057618D02*
X158307869Y-75914761D01*
X158307869Y-75914761D02*
X158307869Y-75819523D01*
X158307869Y-75819523D02*
X158355488Y-75676666D01*
X158355488Y-75676666D02*
X158403107Y-75629047D01*
X158307869Y-74914761D02*
X159022154Y-74914761D01*
X159022154Y-74914761D02*
X159165011Y-74962380D01*
X159165011Y-74962380D02*
X159260250Y-75057618D01*
X159260250Y-75057618D02*
X159307869Y-75200475D01*
X159307869Y-75200475D02*
X159307869Y-75295713D01*
X159307869Y-73962380D02*
X159307869Y-74438570D01*
X159307869Y-74438570D02*
X158307869Y-74438570D01*
X159212630Y-73057618D02*
X159260250Y-73105237D01*
X159260250Y-73105237D02*
X159307869Y-73248094D01*
X159307869Y-73248094D02*
X159307869Y-73343332D01*
X159307869Y-73343332D02*
X159260250Y-73486189D01*
X159260250Y-73486189D02*
X159165011Y-73581427D01*
X159165011Y-73581427D02*
X159069773Y-73629046D01*
X159069773Y-73629046D02*
X158879297Y-73676665D01*
X158879297Y-73676665D02*
X158736440Y-73676665D01*
X158736440Y-73676665D02*
X158545964Y-73629046D01*
X158545964Y-73629046D02*
X158450726Y-73581427D01*
X158450726Y-73581427D02*
X158355488Y-73486189D01*
X158355488Y-73486189D02*
X158307869Y-73343332D01*
X158307869Y-73343332D02*
X158307869Y-73248094D01*
X158307869Y-73248094D02*
X158355488Y-73105237D01*
X158355488Y-73105237D02*
X158403107Y-73057618D01*
D11*
X134016666Y-76134819D02*
X134016666Y-76849104D01*
X134016666Y-76849104D02*
X133969047Y-76991961D01*
X133969047Y-76991961D02*
X133873809Y-77087200D01*
X133873809Y-77087200D02*
X133730952Y-77134819D01*
X133730952Y-77134819D02*
X133635714Y-77134819D01*
X134921428Y-76468152D02*
X134921428Y-77134819D01*
X134683333Y-76087200D02*
X134445238Y-76801485D01*
X134445238Y-76801485D02*
X135064285Y-76801485D01*
X155236666Y-65304819D02*
X155236666Y-66019104D01*
X155236666Y-66019104D02*
X155189047Y-66161961D01*
X155189047Y-66161961D02*
X155093809Y-66257200D01*
X155093809Y-66257200D02*
X154950952Y-66304819D01*
X154950952Y-66304819D02*
X154855714Y-66304819D01*
X155617619Y-65304819D02*
X156236666Y-65304819D01*
X156236666Y-65304819D02*
X155903333Y-65685771D01*
X155903333Y-65685771D02*
X156046190Y-65685771D01*
X156046190Y-65685771D02*
X156141428Y-65733390D01*
X156141428Y-65733390D02*
X156189047Y-65781009D01*
X156189047Y-65781009D02*
X156236666Y-65876247D01*
X156236666Y-65876247D02*
X156236666Y-66114342D01*
X156236666Y-66114342D02*
X156189047Y-66209580D01*
X156189047Y-66209580D02*
X156141428Y-66257200D01*
X156141428Y-66257200D02*
X156046190Y-66304819D01*
X156046190Y-66304819D02*
X155760476Y-66304819D01*
X155760476Y-66304819D02*
X155665238Y-66257200D01*
X155665238Y-66257200D02*
X155617619Y-66209580D01*
M02*
