%TF.GenerationSoftware,KiCad,Pcbnew,9.0.3*%
%TF.CreationDate,2025-08-07T23:45:50+03:00*%
%TF.ProjectId,EVF_extender,4556465f-6578-4746-956e-6465722e6b69,rev?*%
%TF.SameCoordinates,Original*%
%TF.FileFunction,Legend,Top*%
%TF.FilePolarity,Positive*%
%FSLAX46Y46*%
G04 Gerber Fmt 4.6, Leading zero omitted, Abs format (unit mm)*
G04 Created by KiCad (PCBNEW 9.0.3) date 2025-08-07 23:45:50*
%MOMM*%
%LPD*%
G01*
G04 APERTURE LIST*
%ADD10C,0.150000*%
G04 APERTURE END LIST*
D10*
X155546666Y-85554819D02*
X155546666Y-86269104D01*
X155546666Y-86269104D02*
X155499047Y-86411961D01*
X155499047Y-86411961D02*
X155403809Y-86507200D01*
X155403809Y-86507200D02*
X155260952Y-86554819D01*
X155260952Y-86554819D02*
X155165714Y-86554819D01*
X155927619Y-85554819D02*
X156546666Y-85554819D01*
X156546666Y-85554819D02*
X156213333Y-85935771D01*
X156213333Y-85935771D02*
X156356190Y-85935771D01*
X156356190Y-85935771D02*
X156451428Y-85983390D01*
X156451428Y-85983390D02*
X156499047Y-86031009D01*
X156499047Y-86031009D02*
X156546666Y-86126247D01*
X156546666Y-86126247D02*
X156546666Y-86364342D01*
X156546666Y-86364342D02*
X156499047Y-86459580D01*
X156499047Y-86459580D02*
X156451428Y-86507200D01*
X156451428Y-86507200D02*
X156356190Y-86554819D01*
X156356190Y-86554819D02*
X156070476Y-86554819D01*
X156070476Y-86554819D02*
X155975238Y-86507200D01*
X155975238Y-86507200D02*
X155927619Y-86459580D01*
X134016666Y-76134819D02*
X134016666Y-76849104D01*
X134016666Y-76849104D02*
X133969047Y-76991961D01*
X133969047Y-76991961D02*
X133873809Y-77087200D01*
X133873809Y-77087200D02*
X133730952Y-77134819D01*
X133730952Y-77134819D02*
X133635714Y-77134819D01*
X134921428Y-76468152D02*
X134921428Y-77134819D01*
X134683333Y-76087200D02*
X134445238Y-76801485D01*
X134445238Y-76801485D02*
X135064285Y-76801485D01*
M02*
