%TF.GenerationSoftware,KiCad,Pcbnew,9.0.3*%
%TF.CreationDate,2025-08-12T01:24:12+03:00*%
%TF.ProjectId,USBC,55534243-2e6b-4696-9361-645f70636258,rev?*%
%TF.SameCoordinates,Original*%
%TF.FileFunction,Copper,L1,Top*%
%TF.FilePolarity,Positive*%
%FSLAX46Y46*%
G04 Gerber Fmt 4.6, Leading zero omitted, Abs format (unit mm)*
G04 Created by KiCad (PCBNEW 9.0.3) date 2025-08-12 01:24:12*
%MOMM*%
%LPD*%
G01*
G04 APERTURE LIST*
%TA.AperFunction,SMDPad,CuDef*%
%ADD10R,0.300000X1.000000*%
%TD*%
%TA.AperFunction,ComponentPad*%
%ADD11O,1.000000X2.400000*%
%TD*%
%TA.AperFunction,ComponentPad*%
%ADD12O,1.000000X2.200000*%
%TD*%
%TA.AperFunction,SMDPad,CuDef*%
%ADD13R,1.000000X0.300000*%
%TD*%
%TA.AperFunction,ComponentPad*%
%ADD14O,2.400000X1.000000*%
%TD*%
%TA.AperFunction,ComponentPad*%
%ADD15O,2.200000X1.000000*%
%TD*%
%TA.AperFunction,Conductor*%
%ADD16C,1.000000*%
%TD*%
%TA.AperFunction,Conductor*%
%ADD17C,0.200000*%
%TD*%
G04 APERTURE END LIST*
D10*
%TO.P,P1,1*%
%TO.N,N/C*%
X73810000Y-149500000D03*
%TO.P,P1,2*%
X73319091Y-149500000D03*
%TO.P,P1,3*%
X72828182Y-149500000D03*
%TO.P,P1,4*%
X72337273Y-149500000D03*
%TO.P,P1,5*%
X71846364Y-149500000D03*
%TO.P,P1,6*%
X71355455Y-149500000D03*
%TO.P,P1,7*%
X70864545Y-149500000D03*
%TO.P,P1,8*%
X70373636Y-149500000D03*
%TO.P,P1,9*%
X69882727Y-149500000D03*
%TO.P,P1,10*%
X69391818Y-149500000D03*
%TO.P,P1,11*%
X68900909Y-149500000D03*
%TO.P,P1,12*%
X68410000Y-149500000D03*
D11*
%TO.P,P1,13*%
X66810000Y-145400000D03*
D12*
X66810000Y-150000000D03*
D11*
X75410000Y-145400000D03*
D12*
X75410000Y-150000000D03*
%TD*%
D13*
%TO.P,P2,1*%
%TO.N,N/C*%
X75400000Y-82700000D03*
%TO.P,P2,2*%
X75400000Y-82209091D03*
%TO.P,P2,3*%
X75400000Y-81718182D03*
%TO.P,P2,4*%
X75400000Y-81227273D03*
%TO.P,P2,5*%
X75400000Y-80736364D03*
%TO.P,P2,6*%
X75400000Y-80245455D03*
%TO.P,P2,7*%
X75400000Y-79754545D03*
%TO.P,P2,8*%
X75400000Y-79263636D03*
%TO.P,P2,9*%
X75400000Y-78772727D03*
%TO.P,P2,10*%
X75400000Y-78281818D03*
%TO.P,P2,11*%
X75400000Y-77790909D03*
%TO.P,P2,12*%
X75400000Y-77300000D03*
D14*
%TO.P,P2,13*%
X80600000Y-75700000D03*
D15*
X76000000Y-75700000D03*
D14*
X80600000Y-84300000D03*
D15*
X76000000Y-84300000D03*
%TD*%
D16*
%TO.N,*%
X66810000Y-150000000D02*
X66810000Y-145400000D01*
D17*
X75400000Y-80736364D02*
X78003636Y-80736364D01*
X71846364Y-149500000D02*
X71846364Y-83376135D01*
D16*
X66810000Y-145400000D02*
X66810000Y-82633858D01*
D17*
X68900909Y-149500000D02*
X68900909Y-82711662D01*
X73319091Y-149500000D02*
X73319091Y-83654219D01*
X74486135Y-80736364D02*
X75400000Y-80736364D01*
X75400000Y-82700000D02*
X78000000Y-82700000D01*
D16*
X75410000Y-84300000D02*
X76000000Y-84300000D01*
D17*
X71355455Y-149500000D02*
X71355455Y-83283841D01*
X72337273Y-149500000D02*
X72337273Y-83479398D01*
X75400000Y-78772727D02*
X77997273Y-78772727D01*
X78008182Y-78281818D02*
X78010000Y-78280000D01*
X75400000Y-79263636D02*
X77983636Y-79263636D01*
D16*
X76000000Y-84300000D02*
X80600000Y-84300000D01*
D17*
X73821662Y-77790909D02*
X75400000Y-77790909D01*
D16*
X80600000Y-75700000D02*
X80600000Y-84300000D01*
D17*
X69882727Y-149500000D02*
X69882727Y-82882814D01*
X73810000Y-83700000D02*
X73810000Y-149500000D01*
X74724237Y-81718182D02*
X75400000Y-81718182D01*
X75400000Y-82209091D02*
X78009091Y-82209091D01*
X77983636Y-79263636D02*
X77990000Y-79270000D01*
X75400000Y-77790909D02*
X77999091Y-77790909D01*
X72828182Y-149500000D02*
X72828182Y-83614237D01*
X75400000Y-78281818D02*
X78008182Y-78281818D01*
D16*
X73743858Y-75700000D02*
X76000000Y-75700000D01*
X76000000Y-75700000D02*
X80600000Y-75700000D01*
D17*
X78009091Y-82209091D02*
X78010000Y-82210000D01*
X70373636Y-149500000D02*
X70373636Y-83069763D01*
X75400000Y-81227273D02*
X77987273Y-81227273D01*
X68410000Y-88250000D02*
X68406901Y-88246901D01*
D16*
X75410000Y-145400000D02*
X75410000Y-150000000D01*
D17*
X74589398Y-81227273D02*
X75400000Y-81227273D01*
X70864545Y-149500000D02*
X70864545Y-83178859D01*
X75400000Y-79754545D02*
X77985455Y-79754545D01*
X74393841Y-80245455D02*
X75400000Y-80245455D01*
X73757599Y-77300000D02*
X75400000Y-77300000D01*
X77997273Y-78772727D02*
X78000000Y-78770000D01*
D16*
X75410000Y-145400000D02*
X75410000Y-84300000D01*
D17*
X74288859Y-79754545D02*
X75400000Y-79754545D01*
X69391818Y-82786207D02*
X69391818Y-149500000D01*
X68406901Y-88246901D02*
X68406901Y-82650698D01*
X68410000Y-149500000D02*
X68410000Y-88250000D01*
X74179763Y-79263636D02*
X75400000Y-79263636D01*
X73992814Y-78772727D02*
X75400000Y-78772727D01*
X75400000Y-81718182D02*
X78008182Y-81718182D01*
X75400000Y-78281818D02*
X73896207Y-78281818D01*
X75400000Y-80245455D02*
X77995455Y-80245455D01*
X75400000Y-77300000D02*
X78000000Y-77300000D01*
X74764219Y-82209091D02*
X75400000Y-82209091D01*
X75400000Y-82700000D02*
X74810000Y-82700000D01*
X74288859Y-79754545D02*
G75*
G03*
X70864545Y-83178859I41J-3424355D01*
G01*
D16*
X66810000Y-82633858D02*
G75*
G02*
X73743858Y-75700000I6933860J-2D01*
G01*
D17*
X74393841Y-80245455D02*
G75*
G03*
X71355455Y-83283841I-41J-3038345D01*
G01*
X68406901Y-82650698D02*
G75*
G02*
X73757599Y-77300001I5350699J-2D01*
G01*
X72828182Y-83614237D02*
G75*
G02*
X74724237Y-81718182I1896018J37D01*
G01*
X73992814Y-78772727D02*
G75*
G03*
X69882727Y-82882814I-14J-4110073D01*
G01*
X74589398Y-81227273D02*
G75*
G03*
X72337273Y-83479398I2J-2252127D01*
G01*
X74810000Y-82700000D02*
G75*
G03*
X73810000Y-83700000I0J-1000000D01*
G01*
X69391818Y-82786207D02*
G75*
G02*
X73896207Y-78281818I4504382J7D01*
G01*
X74486135Y-80736364D02*
G75*
G03*
X71846364Y-83376135I-35J-2639736D01*
G01*
X68900909Y-82711662D02*
G75*
G02*
X73821662Y-77790909I4920751J2D01*
G01*
X74179763Y-79263636D02*
G75*
G03*
X70373636Y-83069763I37J-3806164D01*
G01*
X73319091Y-83654219D02*
G75*
G02*
X74764219Y-82209091I1445109J19D01*
G01*
%TD*%
M02*
