%TF.GenerationSoftware,KiCad,Pcbnew,9.0.3*%
%TF.CreationDate,2025-08-12T18:06:55+03:00*%
%TF.ProjectId,USBC_extender,55534243-5f65-4787-9465-6e6465722e6b,rev?*%
%TF.SameCoordinates,Original*%
%TF.FileFunction,Drillmap*%
%TF.FilePolarity,Positive*%
%FSLAX45Y45*%
G04 Gerber Fmt 4.5, Leading zero omitted, Abs format (unit mm)*
G04 Created by KiCad (PCBNEW 9.0.3) date 2025-08-12 18:06:55*
%MOMM*%
%LPD*%
G01*
G04 APERTURE LIST*
%ADD10C,0.050000*%
%ADD11C,0.010000*%
%ADD12C,0.200000*%
G04 APERTURE END LIST*
D10*
X8207000Y-7480000D02*
X8207000Y-8520000D01*
X6591000Y-9387000D02*
X6591000Y-15183000D01*
X8207000Y-7480000D02*
X7371000Y-7480000D01*
X7631000Y-8620000D02*
G75*
G02*
X7731000Y-8520000I100000J0D01*
G01*
X7731000Y-8520000D02*
X8207000Y-8520000D01*
X6591000Y-8260000D02*
G75*
G02*
X7371000Y-7480000I780000J0D01*
G01*
X7631000Y-15183000D02*
X7631000Y-8620000D01*
X6591000Y-8260000D02*
X6591000Y-9387000D01*
D11*
X6591000Y-15183000D02*
X6811000Y-15183000D01*
X6811000Y-15020000D02*
X6811000Y-15183000D01*
X6811000Y-15020000D02*
X7411000Y-15020000D01*
X7411000Y-15020000D02*
X7411000Y-15183000D01*
X7411000Y-15183000D02*
X7631000Y-15183000D01*
D12*
X6849277Y-15496984D02*
X6849277Y-15296984D01*
X6849277Y-15296984D02*
X6896896Y-15296984D01*
X6896896Y-15296984D02*
X6925467Y-15306508D01*
X6925467Y-15306508D02*
X6944515Y-15325555D01*
X6944515Y-15325555D02*
X6954039Y-15344603D01*
X6954039Y-15344603D02*
X6963562Y-15382698D01*
X6963562Y-15382698D02*
X6963562Y-15411269D01*
X6963562Y-15411269D02*
X6954039Y-15449365D01*
X6954039Y-15449365D02*
X6944515Y-15468412D01*
X6944515Y-15468412D02*
X6925467Y-15487460D01*
X6925467Y-15487460D02*
X6896896Y-15496984D01*
X6896896Y-15496984D02*
X6849277Y-15496984D01*
X7049277Y-15496984D02*
X7049277Y-15363650D01*
X7049277Y-15401746D02*
X7058801Y-15382698D01*
X7058801Y-15382698D02*
X7068324Y-15373174D01*
X7068324Y-15373174D02*
X7087372Y-15363650D01*
X7087372Y-15363650D02*
X7106420Y-15363650D01*
X7173086Y-15496984D02*
X7173086Y-15363650D01*
X7173086Y-15296984D02*
X7163562Y-15306508D01*
X7163562Y-15306508D02*
X7173086Y-15316031D01*
X7173086Y-15316031D02*
X7182610Y-15306508D01*
X7182610Y-15306508D02*
X7173086Y-15296984D01*
X7173086Y-15296984D02*
X7173086Y-15316031D01*
X7296896Y-15496984D02*
X7277848Y-15487460D01*
X7277848Y-15487460D02*
X7268324Y-15468412D01*
X7268324Y-15468412D02*
X7268324Y-15296984D01*
X7401658Y-15496984D02*
X7382610Y-15487460D01*
X7382610Y-15487460D02*
X7373086Y-15468412D01*
X7373086Y-15468412D02*
X7373086Y-15296984D01*
X7630229Y-15496984D02*
X7630229Y-15296984D01*
X7630229Y-15296984D02*
X7696896Y-15439841D01*
X7696896Y-15439841D02*
X7763562Y-15296984D01*
X7763562Y-15296984D02*
X7763562Y-15496984D01*
X7944515Y-15496984D02*
X7944515Y-15392222D01*
X7944515Y-15392222D02*
X7934991Y-15373174D01*
X7934991Y-15373174D02*
X7915943Y-15363650D01*
X7915943Y-15363650D02*
X7877848Y-15363650D01*
X7877848Y-15363650D02*
X7858801Y-15373174D01*
X7944515Y-15487460D02*
X7925467Y-15496984D01*
X7925467Y-15496984D02*
X7877848Y-15496984D01*
X7877848Y-15496984D02*
X7858801Y-15487460D01*
X7858801Y-15487460D02*
X7849277Y-15468412D01*
X7849277Y-15468412D02*
X7849277Y-15449365D01*
X7849277Y-15449365D02*
X7858801Y-15430317D01*
X7858801Y-15430317D02*
X7877848Y-15420793D01*
X7877848Y-15420793D02*
X7925467Y-15420793D01*
X7925467Y-15420793D02*
X7944515Y-15411269D01*
X8039753Y-15363650D02*
X8039753Y-15563650D01*
X8039753Y-15373174D02*
X8058801Y-15363650D01*
X8058801Y-15363650D02*
X8096896Y-15363650D01*
X8096896Y-15363650D02*
X8115943Y-15373174D01*
X8115943Y-15373174D02*
X8125467Y-15382698D01*
X8125467Y-15382698D02*
X8134991Y-15401746D01*
X8134991Y-15401746D02*
X8134991Y-15458888D01*
X8134991Y-15458888D02*
X8125467Y-15477936D01*
X8125467Y-15477936D02*
X8115943Y-15487460D01*
X8115943Y-15487460D02*
X8096896Y-15496984D01*
X8096896Y-15496984D02*
X8058801Y-15496984D01*
X8058801Y-15496984D02*
X8039753Y-15487460D01*
X8220705Y-15477936D02*
X8230229Y-15487460D01*
X8230229Y-15487460D02*
X8220705Y-15496984D01*
X8220705Y-15496984D02*
X8211182Y-15487460D01*
X8211182Y-15487460D02*
X8220705Y-15477936D01*
X8220705Y-15477936D02*
X8220705Y-15496984D01*
X8220705Y-15373174D02*
X8230229Y-15382698D01*
X8230229Y-15382698D02*
X8220705Y-15392222D01*
X8220705Y-15392222D02*
X8211182Y-15382698D01*
X8211182Y-15382698D02*
X8220705Y-15373174D01*
X8220705Y-15373174D02*
X8220705Y-15392222D01*
M02*
