%TF.GenerationSoftware,KiCad,Pcbnew,9.0.3*%
%TF.CreationDate,2025-09-15T23:17:30+03:00*%
%TF.ProjectId,Back,4261636b-2e6b-4696-9361-645f70636258,rev?*%
%TF.SameCoordinates,Original*%
%TF.FileFunction,Profile,NP*%
%FSLAX46Y46*%
G04 Gerber Fmt 4.6, Leading zero omitted, Abs format (unit mm)*
G04 Created by KiCad (PCBNEW 9.0.3) date 2025-09-15 23:17:30*
%MOMM*%
%LPD*%
G01*
G04 APERTURE LIST*
%TA.AperFunction,Profile*%
%ADD10C,0.050000*%
%TD*%
%TA.AperFunction,Profile*%
%ADD11C,0.010000*%
%TD*%
G04 APERTURE END LIST*
D10*
X70255786Y-43525000D02*
X70255852Y-47995823D01*
X66300000Y-101500000D02*
G75*
G02*
X64700000Y-101500000I-800000J0D01*
G01*
X64700000Y-101500000D02*
G75*
G02*
X66300000Y-101500000I800000J0D01*
G01*
X113003183Y-131886817D02*
X113003183Y-104996817D01*
X152800000Y-87587000D02*
G75*
G02*
X151200000Y-87587000I-800000J0D01*
G01*
X151200000Y-87587000D02*
G75*
G02*
X152800000Y-87587000I800000J0D01*
G01*
X77450000Y-95730000D02*
G75*
G02*
X75850000Y-95730000I-800000J0D01*
G01*
X75850000Y-95730000D02*
G75*
G02*
X77450000Y-95730000I800000J0D01*
G01*
X72255523Y-49996049D02*
G75*
G02*
X70255851Y-47995823I277J1999949D01*
G01*
X201200000Y-60600000D02*
G75*
G02*
X198800000Y-60600000I-1200000J0D01*
G01*
X198800000Y-60600000D02*
G75*
G02*
X201200000Y-60600000I1200000J0D01*
G01*
X208600000Y-68000000D02*
G75*
G02*
X206200000Y-68000000I-1200000J0D01*
G01*
X206200000Y-68000000D02*
G75*
G02*
X208600000Y-68000000I1200000J0D01*
G01*
X152800000Y-101375000D02*
G75*
G02*
X151200000Y-101375000I-800000J0D01*
G01*
X151200000Y-101375000D02*
G75*
G02*
X152800000Y-101375000I800000J0D01*
G01*
X70142000Y-68000000D02*
G75*
G02*
X68542000Y-68000000I-800000J0D01*
G01*
X68542000Y-68000000D02*
G75*
G02*
X70142000Y-68000000I800000J0D01*
G01*
X65995786Y-43525000D02*
X65995786Y-48005786D01*
X144700000Y-96880000D02*
X147100000Y-96880000D01*
X147100000Y-100100000D01*
X144700000Y-100100000D01*
X144700000Y-96880000D01*
X168800000Y-55500000D02*
G75*
G02*
X167200000Y-55500000I-800000J0D01*
G01*
X167200000Y-55500000D02*
G75*
G02*
X168800000Y-55500000I800000J0D01*
G01*
X70142000Y-85000000D02*
G75*
G02*
X68542000Y-85000000I-800000J0D01*
G01*
X68542000Y-85000000D02*
G75*
G02*
X70142000Y-85000000I800000J0D01*
G01*
X59400000Y-50000000D02*
X63995800Y-50005786D01*
X123000000Y-131890000D02*
X123000000Y-105000000D01*
X77450000Y-57270000D02*
G75*
G02*
X75850000Y-57270000I-800000J0D01*
G01*
X75850000Y-57270000D02*
G75*
G02*
X77450000Y-57270000I800000J0D01*
G01*
X71000000Y-71000000D02*
X74000000Y-71000000D01*
X74000000Y-82000000D01*
X71000000Y-82000000D01*
X71000000Y-71000000D01*
X211580000Y-57000000D02*
X211580000Y-79000000D01*
X82678000Y-67731000D02*
G75*
G02*
X81078000Y-67731000I-800000J0D01*
G01*
X81078000Y-67731000D02*
G75*
G02*
X82678000Y-67731000I800000J0D01*
G01*
X138750000Y-57270000D02*
G75*
G02*
X137150000Y-57270000I-800000J0D01*
G01*
X137150000Y-57270000D02*
G75*
G02*
X138750000Y-57270000I800000J0D01*
G01*
X171000000Y-50000000D02*
X171000000Y-57000000D01*
X150800000Y-55500000D02*
G75*
G02*
X149200000Y-55500000I-800000J0D01*
G01*
X149200000Y-55500000D02*
G75*
G02*
X150800000Y-55500000I800000J0D01*
G01*
X168800000Y-80500000D02*
G75*
G02*
X167200000Y-80500000I-800000J0D01*
G01*
X167200000Y-80500000D02*
G75*
G02*
X168800000Y-80500000I800000J0D01*
G01*
X59400000Y-103000000D02*
X111003183Y-103000000D01*
X211580000Y-79000000D02*
X171000000Y-79000000D01*
X193800000Y-68000000D02*
G75*
G02*
X191400000Y-68000000I-1200000J0D01*
G01*
X191400000Y-68000000D02*
G75*
G02*
X193800000Y-68000000I1200000J0D01*
G01*
X66300000Y-51500000D02*
G75*
G02*
X64700000Y-51500000I-800000J0D01*
G01*
X64700000Y-51500000D02*
G75*
G02*
X66300000Y-51500000I800000J0D01*
G01*
X150800000Y-80500000D02*
G75*
G02*
X149200000Y-80500000I-800000J0D01*
G01*
X149200000Y-80500000D02*
G75*
G02*
X150800000Y-80500000I800000J0D01*
G01*
X171000000Y-50000000D02*
X72255800Y-49996049D01*
X171000000Y-57000000D02*
X211580000Y-57000000D01*
X144700000Y-52920000D02*
X147100000Y-52920000D01*
X147100000Y-56120000D01*
X144700000Y-56120000D01*
X144700000Y-52920000D01*
X124994214Y-103000000D02*
X171000000Y-103000000D01*
X82678000Y-88231000D02*
G75*
G02*
X81078000Y-88231000I-800000J0D01*
G01*
X81078000Y-88231000D02*
G75*
G02*
X82678000Y-88231000I800000J0D01*
G01*
X111003183Y-102996817D02*
G75*
G02*
X113003183Y-104996817I17J-1999983D01*
G01*
X67900000Y-55420000D02*
X70300000Y-55420000D01*
X70300000Y-60000000D01*
X67900000Y-60000000D01*
X67900000Y-55420000D01*
X161800000Y-101375000D02*
G75*
G02*
X160200000Y-101375000I-800000J0D01*
G01*
X160200000Y-101375000D02*
G75*
G02*
X161800000Y-101375000I800000J0D01*
G01*
X65995786Y-48005786D02*
G75*
G02*
X63995786Y-50005786I-1999986J-14D01*
G01*
X161800000Y-87587000D02*
G75*
G02*
X160200000Y-87587000I-800000J0D01*
G01*
X160200000Y-87587000D02*
G75*
G02*
X161800000Y-87587000I800000J0D01*
G01*
X59400000Y-50000000D02*
X59400000Y-103000000D01*
X122994214Y-105000000D02*
G75*
G02*
X124994214Y-103000014I1999986J0D01*
G01*
X201200000Y-75400000D02*
G75*
G02*
X198800000Y-75400000I-1200000J0D01*
G01*
X198800000Y-75400000D02*
G75*
G02*
X201200000Y-75400000I1200000J0D01*
G01*
X171000000Y-103000000D02*
X171000000Y-79000000D01*
X138750000Y-95730000D02*
G75*
G02*
X137150000Y-95730000I-800000J0D01*
G01*
X137150000Y-95730000D02*
G75*
G02*
X138750000Y-95730000I800000J0D01*
G01*
X67900000Y-93000000D02*
X70300000Y-93000000D01*
X70300000Y-97580000D01*
X67900000Y-97580000D01*
X67900000Y-93000000D01*
%TO.C,J4*%
X65495786Y-42525000D02*
X65495786Y-43525000D01*
X65995786Y-43525000D02*
X65495786Y-43525000D01*
X66495786Y-42525000D02*
X65495786Y-42525000D01*
X66500786Y-40355000D02*
X66500786Y-42525000D01*
X69750786Y-40355000D02*
X66500786Y-40355000D01*
X69750786Y-40355000D02*
X69750786Y-42525000D01*
X69755786Y-42525000D02*
X70755786Y-42525000D01*
X70255786Y-43525000D02*
X70755786Y-43525000D01*
X70755786Y-42525000D02*
X70755786Y-43525000D01*
%TO.C,J1*%
X112463183Y-132886817D02*
X112463183Y-131886817D01*
X113003183Y-131886817D02*
X112463183Y-131886817D01*
X113463183Y-132886817D02*
X112463183Y-132886817D01*
X113463183Y-135056817D02*
X113463183Y-132886817D01*
X113463183Y-135056817D02*
X122543183Y-135056817D01*
X122543183Y-132886817D02*
X123543183Y-132886817D01*
X122543183Y-135056817D02*
X122543183Y-132886817D01*
X123003183Y-131886817D02*
X123543183Y-131886817D01*
X123543183Y-132886817D02*
X123543183Y-131886817D01*
D11*
%TO.C,SW12*%
X202000000Y-68000000D02*
G75*
G02*
X198000000Y-68000000I-2000000J0D01*
G01*
X198000000Y-68000000D02*
G75*
G02*
X202000000Y-68000000I2000000J0D01*
G01*
%TD*%
M02*
