%TF.GenerationSoftware,KiCad,Pcbnew,9.0.3*%
%TF.CreationDate,2025-09-15T23:17:30+03:00*%
%TF.ProjectId,Back,4261636b-2e6b-4696-9361-645f70636258,rev?*%
%TF.SameCoordinates,Original*%
%TF.FileFunction,Copper,L2,Bot*%
%TF.FilePolarity,Positive*%
%FSLAX46Y46*%
G04 Gerber Fmt 4.6, Leading zero omitted, Abs format (unit mm)*
G04 Created by KiCad (PCBNEW 9.0.3) date 2025-09-15 23:17:30*
%MOMM*%
%LPD*%
G01*
G04 APERTURE LIST*
G04 Aperture macros list*
%AMRotRect*
0 Rectangle, with rotation*
0 The origin of the aperture is its center*
0 $1 length*
0 $2 width*
0 $3 Rotation angle, in degrees counterclockwise*
0 Add horizontal line*
21,1,$1,$2,0,0,$3*%
G04 Aperture macros list end*
%TA.AperFunction,EtchedComponent*%
%ADD10C,0.200000*%
%TD*%
%TA.AperFunction,SMDPad,CuDef*%
%ADD11R,0.240000X0.800000*%
%TD*%
%TA.AperFunction,SMDPad,CuDef*%
%ADD12R,1.000000X1.000000*%
%TD*%
%TA.AperFunction,SMDPad,CuDef*%
%ADD13R,1.200000X1.200000*%
%TD*%
%TA.AperFunction,SMDPad,CuDef*%
%ADD14RotRect,1.000000X2.500000X120.500000*%
%TD*%
%TA.AperFunction,SMDPad,CuDef*%
%ADD15C,6.800000*%
%TD*%
%TA.AperFunction,SMDPad,CuDef*%
%ADD16RotRect,1.000000X2.500000X188.000000*%
%TD*%
%TA.AperFunction,SMDPad,CuDef*%
%ADD17RotRect,1.000000X2.500000X165.500000*%
%TD*%
%TA.AperFunction,SMDPad,CuDef*%
%ADD18RotRect,1.000000X2.500000X210.500000*%
%TD*%
%TA.AperFunction,SMDPad,CuDef*%
%ADD19RotRect,1.000000X2.500000X143.000000*%
%TD*%
%TA.AperFunction,SMDPad,CuDef*%
%ADD20RotRect,1.000000X2.500000X233.000000*%
%TD*%
%TA.AperFunction,SMDPad,CuDef*%
%ADD21RotRect,1.000000X2.500000X67.500000*%
%TD*%
%TA.AperFunction,SMDPad,CuDef*%
%ADD22RotRect,1.000000X2.500000X45.000000*%
%TD*%
%TA.AperFunction,SMDPad,CuDef*%
%ADD23RotRect,1.000000X2.500000X337.500000*%
%TD*%
%TA.AperFunction,SMDPad,CuDef*%
%ADD24RotRect,1.000000X2.500000X22.500000*%
%TD*%
%TA.AperFunction,SMDPad,CuDef*%
%ADD25R,1.000000X2.500000*%
%TD*%
%TA.AperFunction,ViaPad*%
%ADD26C,0.600000*%
%TD*%
%TA.AperFunction,Conductor*%
%ADD27C,0.200000*%
%TD*%
%TA.AperFunction,Conductor*%
%ADD28C,0.100000*%
%TD*%
G04 APERTURE END LIST*
D10*
%TO.C,SW12*%
X194530000Y-65680000D02*
G75*
G02*
X202291991Y-62518205I5470000J-2320000D01*
G01*
X204681838Y-71632269D02*
G75*
G02*
X196509266Y-72788295I-4681838J3632268D01*
G01*
%TD*%
D11*
%TO.P,J5,1,Pin_1*%
%TO.N,Net-(J5-Pin_1)*%
X90350000Y-91360000D03*
%TO.P,J5,2,Pin_2*%
%TO.N,Net-(J5-Pin_2)*%
X90750000Y-91360000D03*
%TO.P,J5,3,Pin_3*%
%TO.N,Net-(J2-Pin_5)*%
X91150000Y-91360000D03*
%TO.P,J5,4,Pin_4*%
%TO.N,Net-(J2-Pin_4)*%
X91550000Y-91360000D03*
%TO.P,J5,5,Pin_5*%
%TO.N,unconnected-(J5-Pin_5-Pad5)*%
X91950000Y-91360000D03*
%TO.P,J5,6,Pin_6*%
%TO.N,unconnected-(J5-Pin_6-Pad6)*%
X92350000Y-91360000D03*
D12*
%TO.P,J5,SH*%
%TO.N,N/C*%
X93170000Y-88860000D03*
X89530000Y-88860000D03*
%TD*%
D11*
%TO.P,J2,1,Pin_1*%
%TO.N,Net-(J1-Pin_14)*%
X138460000Y-100545000D03*
%TO.P,J2,2,Pin_2*%
%TO.N,Net-(J1-Pin_13)*%
X138060000Y-100545000D03*
%TO.P,J2,3,Pin_3*%
%TO.N,Net-(J1-Pin_15)*%
X137660000Y-100545000D03*
%TO.P,J2,4,Pin_4*%
%TO.N,Net-(J2-Pin_4)*%
X137260000Y-100545000D03*
%TO.P,J2,5,Pin_5*%
%TO.N,Net-(J2-Pin_5)*%
X136860000Y-100545000D03*
D12*
%TO.P,J2,SH*%
%TO.N,N/C*%
X136420000Y-102095000D03*
X138900000Y-102095000D03*
%TD*%
D13*
%TO.P,C2,1*%
%TO.N,Net-(J1-Pin_28)*%
X119850000Y-65270000D03*
%TO.P,C2,2*%
%TO.N,Net-(J1-Pin_26)*%
X119850000Y-66920000D03*
%TD*%
D14*
%TO.P,SW12,1,B*%
%TO.N,Net-(J1-Pin_32)*%
X196020000Y-70330000D03*
D15*
X200000000Y-68000000D03*
D16*
%TO.P,SW12,2,C*%
%TO.N,Net-(J1-Pin_33)*%
X200700000Y-72700000D03*
D17*
X198810000Y-72600000D03*
D18*
X202400000Y-72100000D03*
D19*
X197130000Y-71790000D03*
D20*
X203780000Y-70880000D03*
D21*
%TO.P,SW12,3,A*%
%TO.N,Net-(J1-Pin_34)*%
X195620000Y-66130000D03*
D22*
X196660000Y-64610000D03*
D23*
X201840000Y-63610000D03*
D24*
X198190000Y-63600000D03*
D25*
X199970000Y-63240000D03*
%TD*%
D13*
%TO.P,C1,1*%
%TO.N,Net-(J1-Pin_28)*%
X117710000Y-65270000D03*
%TO.P,C1,2*%
%TO.N,Net-(J1-Pin_25)*%
X117710000Y-66920000D03*
%TD*%
D26*
%TO.N,Net-(J1-Pin_28)*%
X118770000Y-64180000D03*
%TO.N,Net-(J1-Pin_25)*%
X117710000Y-69400000D03*
%TO.N,Net-(J1-Pin_26)*%
X119850000Y-69420000D03*
%TO.N,Net-(J1-Pin_30)*%
X122580000Y-83670000D03*
X114480000Y-78800000D03*
%TO.N,Net-(J1-Pin_17)*%
X116940000Y-78840000D03*
X122980000Y-78900000D03*
%TO.N,Net-(J1-Pin_16)*%
X124330000Y-78880000D03*
X115650000Y-78840000D03*
%TO.N,Net-(J1-Pin_14)*%
X114500000Y-82940000D03*
%TO.N,Net-(J5-Pin_1)*%
X75000000Y-99020000D03*
%TO.N,Net-(J5-Pin_2)*%
X75000000Y-100180000D03*
%TO.N,Net-(J1-Pin_32)*%
X123770000Y-86170000D03*
%TO.N,Net-(J1-Pin_33)*%
X123780000Y-87090000D03*
%TO.N,Net-(J1-Pin_34)*%
X123740000Y-85200000D03*
%TO.N,Net-(J1-Pin_13)*%
X114497128Y-84082872D03*
%TO.N,Net-(J1-Pin_15)*%
X114500000Y-81490000D03*
%TO.N,Net-(J1-Pin_9)*%
X98040000Y-73000000D03*
X85750000Y-60710000D03*
%TO.N,Net-(J1-Pin_5)*%
X96010000Y-72990000D03*
X83740000Y-60720000D03*
%TO.N,Net-(J1-Pin_7)*%
X97010000Y-73000000D03*
X84730000Y-60710000D03*
%TO.N,Net-(J1-Pin_10)*%
X99070000Y-72990000D03*
X86750000Y-60710000D03*
%TO.N,Net-(J1-Pin_11)*%
X100060000Y-73010000D03*
X87750000Y-60710000D03*
%TD*%
D27*
%TO.N,Net-(J1-Pin_28)*%
X118780000Y-64180000D02*
X119850000Y-65250000D01*
X118770000Y-64180000D02*
X117710000Y-65240000D01*
X118770000Y-64180000D02*
X118780000Y-64180000D01*
%TO.N,Net-(J1-Pin_25)*%
X117710000Y-69400000D02*
X117710000Y-66920000D01*
%TO.N,Net-(J1-Pin_26)*%
X119850000Y-69420000D02*
X119850000Y-66920000D01*
%TO.N,Net-(J1-Pin_30)*%
X122580000Y-83670000D02*
X120250000Y-81340000D01*
X120250000Y-81340000D02*
X117020000Y-81340000D01*
X117020000Y-81340000D02*
X114480000Y-78800000D01*
%TO.N,Net-(J1-Pin_17)*%
X122980000Y-78940000D02*
X122980000Y-78900000D01*
X122880000Y-78840000D02*
X122980000Y-78940000D01*
X116940000Y-78840000D02*
X122880000Y-78840000D01*
%TO.N,Net-(J1-Pin_16)*%
X115650000Y-78840000D02*
X116770000Y-77720000D01*
X116770000Y-77720000D02*
X123170000Y-77720000D01*
X123170000Y-77720000D02*
X124330000Y-78880000D01*
%TO.N,Net-(J1-Pin_14)*%
X138460000Y-100545000D02*
X138460000Y-101400000D01*
X138460000Y-100545000D02*
X138460000Y-98630000D01*
X132080000Y-92250000D02*
X123810000Y-92250000D01*
X123810000Y-92250000D02*
X114500000Y-82940000D01*
X138460000Y-98630000D02*
X132080000Y-92250000D01*
%TO.N,Net-(J5-Pin_1)*%
X90350000Y-91360000D02*
X90350000Y-90000000D01*
X75000000Y-99020000D02*
X85410000Y-99020000D01*
X90350000Y-94080000D02*
X90350000Y-91360000D01*
X85410000Y-99020000D02*
X90350000Y-94080000D01*
%TO.N,Net-(J5-Pin_2)*%
X85600000Y-99440000D02*
X90750000Y-94290000D01*
X75750000Y-99440000D02*
X85600000Y-99440000D01*
X75010000Y-100180000D02*
X75750000Y-99440000D01*
X75000000Y-100180000D02*
X75010000Y-100180000D01*
X90750000Y-91360000D02*
X90750000Y-90000000D01*
X90750000Y-94290000D02*
X90750000Y-91360000D01*
%TO.N,Net-(J1-Pin_32)*%
X172010000Y-71370000D02*
X194540000Y-71370000D01*
X194540000Y-71370000D02*
X195580000Y-70330000D01*
X160050000Y-83330000D02*
X172010000Y-71370000D01*
X123770000Y-86170000D02*
X126610000Y-83330000D01*
X195580000Y-70330000D02*
X196020000Y-70330000D01*
X126610000Y-83330000D02*
X160050000Y-83330000D01*
%TO.N,Net-(J1-Pin_33)*%
X160380000Y-83990000D02*
X172230000Y-72140000D01*
X195665000Y-73255000D02*
X197130000Y-71790000D01*
X172230000Y-72140000D02*
X194550000Y-72140000D01*
X194550000Y-72140000D02*
X195665000Y-73255000D01*
X123780000Y-87090000D02*
X126880000Y-83990000D01*
X126880000Y-83990000D02*
X160380000Y-83990000D01*
%TO.N,Net-(J1-Pin_34)*%
X126270000Y-82680000D02*
X159740000Y-82680000D01*
X195500000Y-66010000D02*
X195620000Y-66130000D01*
X123740000Y-85200000D02*
X123750000Y-85200000D01*
X123750000Y-85200000D02*
X126270000Y-82680000D01*
X159740000Y-82680000D02*
X176410000Y-66010000D01*
X176410000Y-66010000D02*
X195500000Y-66010000D01*
%TO.N,Net-(J1-Pin_13)*%
X138060000Y-98930000D02*
X138060000Y-100515000D01*
X138060000Y-100545000D02*
X138060000Y-101400000D01*
D28*
X114497128Y-84082872D02*
X114782872Y-84082872D01*
D27*
X114782872Y-84082872D02*
X123490000Y-92790000D01*
X123490000Y-92790000D02*
X131920000Y-92790000D01*
X131920000Y-92790000D02*
X138060000Y-98930000D01*
%TO.N,Net-(J1-Pin_15)*%
X114390000Y-84880000D02*
X114750000Y-84880000D01*
X137660000Y-99180000D02*
X137660000Y-100515000D01*
X114750000Y-84880000D02*
X123170000Y-93300000D01*
X113790000Y-84280000D02*
X114390000Y-84880000D01*
X114500000Y-81490000D02*
X113790000Y-82200000D01*
X113790000Y-82200000D02*
X113790000Y-84280000D01*
X137660000Y-100545000D02*
X137660000Y-101400000D01*
X131780000Y-93300000D02*
X137660000Y-99180000D01*
X123170000Y-93300000D02*
X131780000Y-93300000D01*
%TO.N,Net-(J1-Pin_9)*%
X98040000Y-73000000D02*
X85750000Y-60710000D01*
%TO.N,Net-(J1-Pin_5)*%
X96010000Y-72990000D02*
X83740000Y-60720000D01*
%TO.N,Net-(J1-Pin_7)*%
X84730000Y-60720000D02*
X84730000Y-60710000D01*
X97010000Y-73000000D02*
X84730000Y-60720000D01*
%TO.N,Net-(J1-Pin_10)*%
X97510000Y-71430000D02*
X97500000Y-71430000D01*
X86780000Y-60710000D02*
X86750000Y-60710000D01*
X97500000Y-71430000D02*
X86780000Y-60710000D01*
X99070000Y-72990000D02*
X97510000Y-71430000D01*
%TO.N,Net-(J1-Pin_11)*%
X98640000Y-71600000D02*
X87750000Y-60710000D01*
X100060000Y-73010000D02*
X98650000Y-71600000D01*
X98650000Y-71600000D02*
X98640000Y-71600000D01*
%TO.N,Net-(J2-Pin_5)*%
X92570000Y-94200000D02*
X91150000Y-92780000D01*
X91150000Y-92780000D02*
X91150000Y-91360000D01*
X91150000Y-91360000D02*
X91150000Y-90000000D01*
X136860000Y-99730000D02*
X131330000Y-94200000D01*
X136860000Y-100545000D02*
X136860000Y-101400000D01*
X131330000Y-94200000D02*
X92570000Y-94200000D01*
X136860000Y-100545000D02*
X136860000Y-99730000D01*
%TO.N,Net-(J2-Pin_4)*%
X91550000Y-91360000D02*
X91550000Y-92560000D01*
X92759000Y-93769000D02*
X131559000Y-93769000D01*
X131559000Y-93769000D02*
X137260000Y-99470000D01*
X137260000Y-99470000D02*
X137260000Y-100515000D01*
X91550000Y-91360000D02*
X91550000Y-90000000D01*
X137260000Y-100545000D02*
X137260000Y-101390000D01*
X91550000Y-92560000D02*
X92759000Y-93769000D01*
%TO.N,unconnected-(J5-Pin_6-Pad6)*%
X92350000Y-91360000D02*
X92350000Y-90000000D01*
%TO.N,unconnected-(J5-Pin_5-Pad5)*%
X91950000Y-91360000D02*
X91950000Y-90000000D01*
%TD*%
%TA.AperFunction,Conductor*%
%TO.N,Net-(J1-Pin_15)*%
G36*
X114260362Y-81329986D02*
G01*
X114261872Y-81330835D01*
X114498734Y-81487984D01*
X114502015Y-81491265D01*
X114659164Y-81728127D01*
X114660883Y-81736915D01*
X114655883Y-81744344D01*
X114654373Y-81745193D01*
X114157953Y-81977422D01*
X114149007Y-81977823D01*
X114144722Y-81975097D01*
X114014902Y-81845277D01*
X114011475Y-81837004D01*
X114012575Y-81832051D01*
X114244806Y-81335625D01*
X114251416Y-81329585D01*
X114260362Y-81329986D01*
G37*
%TD.AperFunction*%
%TD*%
%TA.AperFunction,Conductor*%
%TO.N,Net-(J5-Pin_2)*%
G36*
X75360206Y-99699831D02*
G01*
X75490024Y-99829649D01*
X75493451Y-99837922D01*
X75492290Y-99843003D01*
X75255268Y-100334585D01*
X75248588Y-100340549D01*
X75239648Y-100340043D01*
X75238261Y-100339253D01*
X75001265Y-100182015D01*
X74997984Y-100178734D01*
X74994977Y-100174201D01*
X74840922Y-99942004D01*
X74839204Y-99933218D01*
X74844204Y-99925789D01*
X74845834Y-99924885D01*
X75347100Y-99697448D01*
X75356049Y-99697152D01*
X75360206Y-99699831D01*
G37*
%TD.AperFunction*%
%TD*%
%TA.AperFunction,Conductor*%
%TO.N,Net-(J5-Pin_1)*%
G36*
X75071282Y-98730389D02*
G01*
X75586525Y-98917204D01*
X75593134Y-98923244D01*
X75594236Y-98928202D01*
X75594236Y-99111797D01*
X75590809Y-99120070D01*
X75586524Y-99122796D01*
X75071290Y-99309608D01*
X75062344Y-99309207D01*
X75056303Y-99302597D01*
X75055837Y-99300939D01*
X74999469Y-99022318D01*
X74999469Y-99017680D01*
X75055835Y-98739067D01*
X75060834Y-98731641D01*
X75069622Y-98729922D01*
X75071282Y-98730389D01*
G37*
%TD.AperFunction*%
%TD*%
%TA.AperFunction,Conductor*%
%TO.N,Net-(J1-Pin_25)*%
G36*
X117810070Y-68809191D02*
G01*
X117812796Y-68813476D01*
X117999608Y-69328709D01*
X117999207Y-69337655D01*
X117992597Y-69343696D01*
X117990929Y-69344165D01*
X117712320Y-69400530D01*
X117707680Y-69400530D01*
X117429070Y-69344165D01*
X117421641Y-69339165D01*
X117419922Y-69330377D01*
X117420387Y-69328720D01*
X117607204Y-68813476D01*
X117613245Y-68806866D01*
X117618203Y-68805764D01*
X117801797Y-68805764D01*
X117810070Y-68809191D01*
G37*
%TD.AperFunction*%
%TD*%
%TA.AperFunction,Conductor*%
%TO.N,Net-(J1-Pin_11)*%
G36*
X88004344Y-60554116D02*
G01*
X88005193Y-60555626D01*
X88077080Y-60709293D01*
X88196791Y-60965193D01*
X88237422Y-61052046D01*
X88237823Y-61060992D01*
X88235097Y-61065277D01*
X88105277Y-61195097D01*
X88097004Y-61198524D01*
X88092047Y-61197422D01*
X87941428Y-61126961D01*
X87595626Y-60965193D01*
X87589585Y-60958583D01*
X87589986Y-60949637D01*
X87590835Y-60948127D01*
X87747985Y-60711263D01*
X87751263Y-60707985D01*
X87988127Y-60550834D01*
X87996915Y-60549116D01*
X88004344Y-60554116D01*
G37*
%TD.AperFunction*%
%TD*%
%TA.AperFunction,Conductor*%
%TO.N,Net-(J1-Pin_33)*%
G36*
X124135277Y-86604902D02*
G01*
X124265097Y-86734722D01*
X124268524Y-86742995D01*
X124267422Y-86747953D01*
X124035193Y-87244373D01*
X124028583Y-87250414D01*
X124019637Y-87250013D01*
X124018127Y-87249164D01*
X123781265Y-87092015D01*
X123777984Y-87088734D01*
X123620835Y-86851872D01*
X123619116Y-86843084D01*
X123624116Y-86835655D01*
X123625621Y-86834808D01*
X124122048Y-86602576D01*
X124130992Y-86602176D01*
X124135277Y-86604902D01*
G37*
%TD.AperFunction*%
%TD*%
%TA.AperFunction,Conductor*%
%TO.N,Net-(J1-Pin_13)*%
G36*
X114672214Y-83841881D02*
G01*
X114673841Y-83843203D01*
X115065705Y-84224513D01*
X115069245Y-84232738D01*
X115065931Y-84241057D01*
X115065819Y-84241171D01*
X114936175Y-84370815D01*
X114927992Y-84374242D01*
X114565314Y-84377033D01*
X114557015Y-84373670D01*
X114553753Y-84367637D01*
X114497382Y-84086951D01*
X114499113Y-84078165D01*
X114499146Y-84078115D01*
X114655977Y-83845054D01*
X114663437Y-83840105D01*
X114672214Y-83841881D01*
G37*
%TD.AperFunction*%
%TD*%
%TA.AperFunction,Conductor*%
%TO.N,Net-(J1-Pin_26)*%
G36*
X119950070Y-68829191D02*
G01*
X119952796Y-68833476D01*
X120139608Y-69348709D01*
X120139207Y-69357655D01*
X120132597Y-69363696D01*
X120130929Y-69364165D01*
X119852320Y-69420530D01*
X119847680Y-69420530D01*
X119569070Y-69364165D01*
X119561641Y-69359165D01*
X119559922Y-69350377D01*
X119560387Y-69348720D01*
X119747204Y-68833476D01*
X119753245Y-68826866D01*
X119758203Y-68825764D01*
X119941797Y-68825764D01*
X119950070Y-68829191D01*
G37*
%TD.AperFunction*%
%TD*%
%TA.AperFunction,Conductor*%
%TO.N,Net-(J1-Pin_30)*%
G36*
X122237949Y-83182576D02*
G01*
X122548713Y-83327953D01*
X122734373Y-83414806D01*
X122740414Y-83421416D01*
X122740013Y-83430362D01*
X122739164Y-83431872D01*
X122582015Y-83668734D01*
X122578734Y-83672015D01*
X122341872Y-83829164D01*
X122333084Y-83830883D01*
X122325655Y-83825883D01*
X122324806Y-83824373D01*
X122251997Y-83668734D01*
X122092576Y-83327951D01*
X122092176Y-83319007D01*
X122094900Y-83314724D01*
X122224723Y-83184901D01*
X122232995Y-83181475D01*
X122237949Y-83182576D01*
G37*
%TD.AperFunction*%
%TD*%
%TA.AperFunction,Conductor*%
%TO.N,Net-(J1-Pin_34)*%
G36*
X124100206Y-84719831D02*
G01*
X124230024Y-84849649D01*
X124233451Y-84857922D01*
X124232290Y-84863003D01*
X123995268Y-85354585D01*
X123988588Y-85360549D01*
X123979648Y-85360043D01*
X123978261Y-85359253D01*
X123741265Y-85202015D01*
X123737984Y-85198734D01*
X123734977Y-85194201D01*
X123580922Y-84962004D01*
X123579204Y-84953218D01*
X123584204Y-84945789D01*
X123585834Y-84944885D01*
X124087100Y-84717448D01*
X124096049Y-84717152D01*
X124100206Y-84719831D01*
G37*
%TD.AperFunction*%
%TD*%
%TA.AperFunction,Conductor*%
%TO.N,Net-(J1-Pin_9)*%
G36*
X97697949Y-72512576D02*
G01*
X98008713Y-72657953D01*
X98194373Y-72744806D01*
X98200414Y-72751416D01*
X98200013Y-72760362D01*
X98199164Y-72761872D01*
X98042015Y-72998734D01*
X98038734Y-73002015D01*
X97801872Y-73159164D01*
X97793084Y-73160883D01*
X97785655Y-73155883D01*
X97784806Y-73154373D01*
X97711997Y-72998734D01*
X97552576Y-72657951D01*
X97552176Y-72649007D01*
X97554900Y-72644724D01*
X97684723Y-72514901D01*
X97692995Y-72511475D01*
X97697949Y-72512576D01*
G37*
%TD.AperFunction*%
%TD*%
%TA.AperFunction,Conductor*%
%TO.N,Net-(J1-Pin_7)*%
G36*
X96667949Y-72512576D02*
G01*
X96978713Y-72657953D01*
X97164373Y-72744806D01*
X97170414Y-72751416D01*
X97170013Y-72760362D01*
X97169164Y-72761872D01*
X97012015Y-72998734D01*
X97008734Y-73002015D01*
X96771872Y-73159164D01*
X96763084Y-73160883D01*
X96755655Y-73155883D01*
X96754806Y-73154373D01*
X96681997Y-72998734D01*
X96522576Y-72657951D01*
X96522176Y-72649007D01*
X96524900Y-72644724D01*
X96654723Y-72514901D01*
X96662995Y-72511475D01*
X96667949Y-72512576D01*
G37*
%TD.AperFunction*%
%TD*%
%TA.AperFunction,Conductor*%
%TO.N,Net-(J1-Pin_10)*%
G36*
X87004742Y-60553852D02*
G01*
X87005408Y-60554990D01*
X87252018Y-61036895D01*
X87252737Y-61045821D01*
X87249876Y-61050498D01*
X87120067Y-61180307D01*
X87111794Y-61183734D01*
X87107205Y-61182797D01*
X86596262Y-60964955D01*
X86589996Y-60958558D01*
X86590088Y-60949603D01*
X86591098Y-60947730D01*
X86747985Y-60711263D01*
X86751263Y-60707985D01*
X86988525Y-60550570D01*
X86997313Y-60548852D01*
X87004742Y-60553852D01*
G37*
%TD.AperFunction*%
%TD*%
%TA.AperFunction,Conductor*%
%TO.N,Net-(J1-Pin_7)*%
G36*
X84984210Y-60554204D02*
G01*
X84985116Y-60555838D01*
X85212550Y-61057099D01*
X85212847Y-61066049D01*
X85210168Y-61070206D01*
X85080350Y-61200024D01*
X85072077Y-61203451D01*
X85066996Y-61202290D01*
X84575414Y-60965268D01*
X84569450Y-60958588D01*
X84569956Y-60949648D01*
X84570742Y-60948266D01*
X84727985Y-60711263D01*
X84731263Y-60707985D01*
X84967995Y-60550922D01*
X84976781Y-60549204D01*
X84984210Y-60554204D01*
G37*
%TD.AperFunction*%
%TD*%
%TA.AperFunction,Conductor*%
%TO.N,Net-(J1-Pin_17)*%
G36*
X117011282Y-78550389D02*
G01*
X117526525Y-78737204D01*
X117533134Y-78743244D01*
X117534236Y-78748202D01*
X117534236Y-78931797D01*
X117530809Y-78940070D01*
X117526524Y-78942796D01*
X117011290Y-79129608D01*
X117002344Y-79129207D01*
X116996303Y-79122597D01*
X116995837Y-79120939D01*
X116939469Y-78842318D01*
X116939469Y-78837680D01*
X116995835Y-78559067D01*
X117000834Y-78551641D01*
X117009622Y-78549922D01*
X117011282Y-78550389D01*
G37*
%TD.AperFunction*%
%TD*%
%TA.AperFunction,Conductor*%
%TO.N,Net-(J1-Pin_9)*%
G36*
X86004344Y-60554116D02*
G01*
X86005193Y-60555626D01*
X86077080Y-60709293D01*
X86196791Y-60965193D01*
X86237422Y-61052046D01*
X86237823Y-61060992D01*
X86235097Y-61065277D01*
X86105277Y-61195097D01*
X86097004Y-61198524D01*
X86092047Y-61197422D01*
X85941428Y-61126961D01*
X85595626Y-60965193D01*
X85589585Y-60958583D01*
X85589986Y-60949637D01*
X85590835Y-60948127D01*
X85747985Y-60711263D01*
X85751263Y-60707985D01*
X85988127Y-60550834D01*
X85996915Y-60549116D01*
X86004344Y-60554116D01*
G37*
%TD.AperFunction*%
%TD*%
%TA.AperFunction,Conductor*%
%TO.N,Net-(J1-Pin_17)*%
G36*
X122918445Y-78610055D02*
G01*
X122923782Y-78617246D01*
X122923902Y-78617773D01*
X122980030Y-78895210D01*
X122978311Y-78903998D01*
X122978272Y-78904057D01*
X122819025Y-79140967D01*
X122811566Y-79145921D01*
X122804162Y-79144944D01*
X122392921Y-78943211D01*
X122387003Y-78936491D01*
X122386374Y-78932707D01*
X122386374Y-78749127D01*
X122389801Y-78740854D01*
X122395227Y-78737779D01*
X122909588Y-78608745D01*
X122918445Y-78610055D01*
G37*
%TD.AperFunction*%
%TD*%
%TA.AperFunction,Conductor*%
%TO.N,Net-(J1-Pin_14)*%
G36*
X114754344Y-82784116D02*
G01*
X114755193Y-82785626D01*
X114827080Y-82939293D01*
X114946791Y-83195193D01*
X114987422Y-83282046D01*
X114987823Y-83290992D01*
X114985097Y-83295277D01*
X114855277Y-83425097D01*
X114847004Y-83428524D01*
X114842047Y-83427422D01*
X114691428Y-83356961D01*
X114345626Y-83195193D01*
X114339585Y-83188583D01*
X114339986Y-83179637D01*
X114340835Y-83178127D01*
X114497985Y-82941263D01*
X114501263Y-82937985D01*
X114738127Y-82780834D01*
X114746915Y-82779116D01*
X114754344Y-82784116D01*
G37*
%TD.AperFunction*%
%TD*%
%TA.AperFunction,Conductor*%
%TO.N,Net-(J1-Pin_30)*%
G36*
X114734344Y-78644116D02*
G01*
X114735193Y-78645626D01*
X114807080Y-78799293D01*
X114926791Y-79055193D01*
X114967422Y-79142046D01*
X114967823Y-79150992D01*
X114965097Y-79155277D01*
X114835277Y-79285097D01*
X114827004Y-79288524D01*
X114822047Y-79287422D01*
X114671428Y-79216961D01*
X114325626Y-79055193D01*
X114319585Y-79048583D01*
X114319986Y-79039637D01*
X114320835Y-79038127D01*
X114477985Y-78801263D01*
X114481263Y-78797985D01*
X114718127Y-78640834D01*
X114726915Y-78639116D01*
X114734344Y-78644116D01*
G37*
%TD.AperFunction*%
%TD*%
%TA.AperFunction,Conductor*%
%TO.N,Net-(J1-Pin_5)*%
G36*
X95667949Y-72502576D02*
G01*
X95978713Y-72647953D01*
X96164373Y-72734806D01*
X96170414Y-72741416D01*
X96170013Y-72750362D01*
X96169164Y-72751872D01*
X96012015Y-72988734D01*
X96008734Y-72992015D01*
X95771872Y-73149164D01*
X95763084Y-73150883D01*
X95755655Y-73145883D01*
X95754806Y-73144373D01*
X95681997Y-72988734D01*
X95522576Y-72647951D01*
X95522176Y-72639007D01*
X95524900Y-72634724D01*
X95654723Y-72504901D01*
X95662995Y-72501475D01*
X95667949Y-72502576D01*
G37*
%TD.AperFunction*%
%TD*%
%TA.AperFunction,Conductor*%
%TO.N,Net-(J1-Pin_5)*%
G36*
X83994344Y-60564116D02*
G01*
X83995193Y-60565626D01*
X84067080Y-60719293D01*
X84186791Y-60975193D01*
X84227422Y-61062046D01*
X84227823Y-61070992D01*
X84225097Y-61075277D01*
X84095277Y-61205097D01*
X84087004Y-61208524D01*
X84082047Y-61207422D01*
X83931428Y-61136961D01*
X83585626Y-60975193D01*
X83579585Y-60968583D01*
X83579986Y-60959637D01*
X83580835Y-60958127D01*
X83737985Y-60721263D01*
X83741263Y-60717985D01*
X83978127Y-60560834D01*
X83986915Y-60559116D01*
X83994344Y-60564116D01*
G37*
%TD.AperFunction*%
%TD*%
%TA.AperFunction,Conductor*%
%TO.N,Net-(J1-Pin_10)*%
G36*
X98727949Y-72502576D02*
G01*
X99038713Y-72647953D01*
X99224373Y-72734806D01*
X99230414Y-72741416D01*
X99230013Y-72750362D01*
X99229164Y-72751872D01*
X99072015Y-72988734D01*
X99068734Y-72992015D01*
X98831872Y-73149164D01*
X98823084Y-73150883D01*
X98815655Y-73145883D01*
X98814806Y-73144373D01*
X98741997Y-72988734D01*
X98582576Y-72647951D01*
X98582176Y-72639007D01*
X98584900Y-72634724D01*
X98714723Y-72504901D01*
X98722995Y-72501475D01*
X98727949Y-72502576D01*
G37*
%TD.AperFunction*%
%TD*%
%TA.AperFunction,Conductor*%
%TO.N,Net-(J1-Pin_28)*%
G36*
X119024478Y-64024027D02*
G01*
X119025268Y-64025414D01*
X119262290Y-64516996D01*
X119262796Y-64525936D01*
X119260024Y-64530350D01*
X119130206Y-64660168D01*
X119121933Y-64663595D01*
X119117099Y-64662550D01*
X118615838Y-64435116D01*
X118609720Y-64428577D01*
X118610017Y-64419627D01*
X118610916Y-64418005D01*
X118767985Y-64181263D01*
X118771263Y-64177985D01*
X119008262Y-64020745D01*
X119017049Y-64019027D01*
X119024478Y-64024027D01*
G37*
%TD.AperFunction*%
%TD*%
%TA.AperFunction,Conductor*%
%TO.N,Net-(J1-Pin_11)*%
G36*
X99717949Y-72522576D02*
G01*
X100028713Y-72667953D01*
X100214373Y-72754806D01*
X100220414Y-72761416D01*
X100220013Y-72770362D01*
X100219164Y-72771872D01*
X100062015Y-73008734D01*
X100058734Y-73012015D01*
X99821872Y-73169164D01*
X99813084Y-73170883D01*
X99805655Y-73165883D01*
X99804806Y-73164373D01*
X99731997Y-73008734D01*
X99572576Y-72667951D01*
X99572176Y-72659007D01*
X99574900Y-72654724D01*
X99704723Y-72524901D01*
X99712995Y-72521475D01*
X99717949Y-72522576D01*
G37*
%TD.AperFunction*%
%TD*%
%TA.AperFunction,Conductor*%
%TO.N,Net-(J1-Pin_16)*%
G36*
X116005277Y-78354902D02*
G01*
X116135097Y-78484722D01*
X116138524Y-78492995D01*
X116137422Y-78497953D01*
X115905193Y-78994373D01*
X115898583Y-79000414D01*
X115889637Y-79000013D01*
X115888127Y-78999164D01*
X115651265Y-78842015D01*
X115647984Y-78838734D01*
X115490835Y-78601872D01*
X115489116Y-78593084D01*
X115494116Y-78585655D01*
X115495621Y-78584808D01*
X115992048Y-78352576D01*
X116000992Y-78352176D01*
X116005277Y-78354902D01*
G37*
%TD.AperFunction*%
%TD*%
%TA.AperFunction,Conductor*%
%TO.N,Net-(J1-Pin_16)*%
G36*
X123987949Y-78392576D02*
G01*
X124298713Y-78537953D01*
X124484373Y-78624806D01*
X124490414Y-78631416D01*
X124490013Y-78640362D01*
X124489164Y-78641872D01*
X124332015Y-78878734D01*
X124328734Y-78882015D01*
X124091872Y-79039164D01*
X124083084Y-79040883D01*
X124075655Y-79035883D01*
X124074806Y-79034373D01*
X124001997Y-78878734D01*
X123842576Y-78537951D01*
X123842176Y-78529007D01*
X123844900Y-78524724D01*
X123974723Y-78394901D01*
X123982995Y-78391475D01*
X123987949Y-78392576D01*
G37*
%TD.AperFunction*%
%TD*%
%TA.AperFunction,Conductor*%
%TO.N,Net-(J1-Pin_32)*%
G36*
X124125277Y-85684902D02*
G01*
X124255097Y-85814722D01*
X124258524Y-85822995D01*
X124257422Y-85827953D01*
X124025193Y-86324373D01*
X124018583Y-86330414D01*
X124009637Y-86330013D01*
X124008127Y-86329164D01*
X123771265Y-86172015D01*
X123767984Y-86168734D01*
X123610835Y-85931872D01*
X123609116Y-85923084D01*
X123614116Y-85915655D01*
X123615621Y-85914808D01*
X124112048Y-85682576D01*
X124120992Y-85682176D01*
X124125277Y-85684902D01*
G37*
%TD.AperFunction*%
%TD*%
%TA.AperFunction,Conductor*%
%TO.N,Net-(J1-Pin_28)*%
G36*
X118530362Y-64019986D02*
G01*
X118531872Y-64020835D01*
X118768734Y-64177984D01*
X118772015Y-64181265D01*
X118929164Y-64418127D01*
X118930883Y-64426915D01*
X118925883Y-64434344D01*
X118924373Y-64435193D01*
X118427953Y-64667422D01*
X118419007Y-64667823D01*
X118414722Y-64665097D01*
X118284902Y-64535277D01*
X118281475Y-64527004D01*
X118282575Y-64522051D01*
X118514806Y-64025625D01*
X118521416Y-64019585D01*
X118530362Y-64019986D01*
G37*
%TD.AperFunction*%
%TD*%
M02*
