%TF.GenerationSoftware,KiCad,Pcbnew,9.0.3*%
%TF.CreationDate,2025-09-15T23:17:30+03:00*%
%TF.ProjectId,Back,4261636b-2e6b-4696-9361-645f70636258,rev?*%
%TF.SameCoordinates,Original*%
%TF.FileFunction,Legend,Bot*%
%TF.FilePolarity,Positive*%
%FSLAX46Y46*%
G04 Gerber Fmt 4.6, Leading zero omitted, Abs format (unit mm)*
G04 Created by KiCad (PCBNEW 9.0.3) date 2025-09-15 23:17:30*
%MOMM*%
%LPD*%
G01*
G04 APERTURE LIST*
G04 Aperture macros list*
%AMRoundRect*
0 Rectangle with rounded corners*
0 $1 Rounding radius*
0 $2 $3 $4 $5 $6 $7 $8 $9 X,Y pos of 4 corners*
0 Add a 4 corners polygon primitive as box body*
4,1,4,$2,$3,$4,$5,$6,$7,$8,$9,$2,$3,0*
0 Add four circle primitives for the rounded corners*
1,1,$1+$1,$2,$3*
1,1,$1+$1,$4,$5*
1,1,$1+$1,$6,$7*
1,1,$1+$1,$8,$9*
0 Add four rect primitives between the rounded corners*
20,1,$1+$1,$2,$3,$4,$5,0*
20,1,$1+$1,$4,$5,$6,$7,0*
20,1,$1+$1,$6,$7,$8,$9,0*
20,1,$1+$1,$8,$9,$2,$3,0*%
%AMRotRect*
0 Rectangle, with rotation*
0 The origin of the aperture is its center*
0 $1 length*
0 $2 width*
0 $3 Rotation angle, in degrees counterclockwise*
0 Add horizontal line*
21,1,$1,$2,0,0,$3*%
G04 Aperture macros list end*
%ADD10C,0.150000*%
%ADD11RoundRect,0.125000X-0.125000X0.125000X-0.125000X-0.125000X0.125000X-0.125000X0.125000X0.125000X0*%
%ADD12R,0.240000X0.800000*%
%ADD13RoundRect,0.125000X0.125000X-0.125000X0.125000X0.125000X-0.125000X0.125000X-0.125000X-0.125000X0*%
%ADD14RoundRect,0.200000X-0.275000X0.200000X-0.275000X-0.200000X0.275000X-0.200000X0.275000X0.200000X0*%
%ADD15RotRect,1.000000X2.500000X120.500000*%
%ADD16C,6.800000*%
%ADD17RotRect,1.000000X2.500000X188.000000*%
%ADD18RotRect,1.000000X2.500000X165.500000*%
%ADD19RotRect,1.000000X2.500000X210.500000*%
%ADD20RotRect,1.000000X2.500000X143.000000*%
%ADD21RotRect,1.000000X2.500000X233.000000*%
%ADD22RotRect,1.000000X2.500000X67.500000*%
%ADD23RotRect,1.000000X2.500000X45.000000*%
%ADD24RotRect,1.000000X2.500000X337.500000*%
%ADD25RotRect,1.000000X2.500000X22.500000*%
%ADD26R,1.000000X2.500000*%
G04 APERTURE END LIST*
D10*
X95861009Y-85708571D02*
X95861009Y-85375238D01*
X96384819Y-85375238D02*
X95384819Y-85375238D01*
X95384819Y-85375238D02*
X95384819Y-85851428D01*
X96384819Y-86232381D02*
X95718152Y-86232381D01*
X95908628Y-86232381D02*
X95813390Y-86280000D01*
X95813390Y-86280000D02*
X95765771Y-86327619D01*
X95765771Y-86327619D02*
X95718152Y-86422857D01*
X95718152Y-86422857D02*
X95718152Y-86518095D01*
X96384819Y-86994286D02*
X96337200Y-86899048D01*
X96337200Y-86899048D02*
X96289580Y-86851429D01*
X96289580Y-86851429D02*
X96194342Y-86803810D01*
X96194342Y-86803810D02*
X95908628Y-86803810D01*
X95908628Y-86803810D02*
X95813390Y-86851429D01*
X95813390Y-86851429D02*
X95765771Y-86899048D01*
X95765771Y-86899048D02*
X95718152Y-86994286D01*
X95718152Y-86994286D02*
X95718152Y-87137143D01*
X95718152Y-87137143D02*
X95765771Y-87232381D01*
X95765771Y-87232381D02*
X95813390Y-87280000D01*
X95813390Y-87280000D02*
X95908628Y-87327619D01*
X95908628Y-87327619D02*
X96194342Y-87327619D01*
X96194342Y-87327619D02*
X96289580Y-87280000D01*
X96289580Y-87280000D02*
X96337200Y-87232381D01*
X96337200Y-87232381D02*
X96384819Y-87137143D01*
X96384819Y-87137143D02*
X96384819Y-86994286D01*
X96384819Y-87756191D02*
X95718152Y-87756191D01*
X95813390Y-87756191D02*
X95765771Y-87803810D01*
X95765771Y-87803810D02*
X95718152Y-87899048D01*
X95718152Y-87899048D02*
X95718152Y-88041905D01*
X95718152Y-88041905D02*
X95765771Y-88137143D01*
X95765771Y-88137143D02*
X95861009Y-88184762D01*
X95861009Y-88184762D02*
X96384819Y-88184762D01*
X95861009Y-88184762D02*
X95765771Y-88232381D01*
X95765771Y-88232381D02*
X95718152Y-88327619D01*
X95718152Y-88327619D02*
X95718152Y-88470476D01*
X95718152Y-88470476D02*
X95765771Y-88565715D01*
X95765771Y-88565715D02*
X95861009Y-88613334D01*
X95861009Y-88613334D02*
X96384819Y-88613334D01*
X96384819Y-90327619D02*
X96384819Y-89851429D01*
X96384819Y-89851429D02*
X95384819Y-89851429D01*
X96289580Y-91232381D02*
X96337200Y-91184762D01*
X96337200Y-91184762D02*
X96384819Y-91041905D01*
X96384819Y-91041905D02*
X96384819Y-90946667D01*
X96384819Y-90946667D02*
X96337200Y-90803810D01*
X96337200Y-90803810D02*
X96241961Y-90708572D01*
X96241961Y-90708572D02*
X96146723Y-90660953D01*
X96146723Y-90660953D02*
X95956247Y-90613334D01*
X95956247Y-90613334D02*
X95813390Y-90613334D01*
X95813390Y-90613334D02*
X95622914Y-90660953D01*
X95622914Y-90660953D02*
X95527676Y-90708572D01*
X95527676Y-90708572D02*
X95432438Y-90803810D01*
X95432438Y-90803810D02*
X95384819Y-90946667D01*
X95384819Y-90946667D02*
X95384819Y-91041905D01*
X95384819Y-91041905D02*
X95432438Y-91184762D01*
X95432438Y-91184762D02*
X95480057Y-91232381D01*
X96384819Y-91660953D02*
X95384819Y-91660953D01*
X95384819Y-91660953D02*
X95384819Y-91899048D01*
X95384819Y-91899048D02*
X95432438Y-92041905D01*
X95432438Y-92041905D02*
X95527676Y-92137143D01*
X95527676Y-92137143D02*
X95622914Y-92184762D01*
X95622914Y-92184762D02*
X95813390Y-92232381D01*
X95813390Y-92232381D02*
X95956247Y-92232381D01*
X95956247Y-92232381D02*
X96146723Y-92184762D01*
X96146723Y-92184762D02*
X96241961Y-92137143D01*
X96241961Y-92137143D02*
X96337200Y-92041905D01*
X96337200Y-92041905D02*
X96384819Y-91899048D01*
X96384819Y-91899048D02*
X96384819Y-91660953D01*
X140494819Y-96362380D02*
X140494819Y-96933808D01*
X141494819Y-96648094D02*
X140494819Y-96648094D01*
X141494819Y-97409999D02*
X141447200Y-97314761D01*
X141447200Y-97314761D02*
X141399580Y-97267142D01*
X141399580Y-97267142D02*
X141304342Y-97219523D01*
X141304342Y-97219523D02*
X141018628Y-97219523D01*
X141018628Y-97219523D02*
X140923390Y-97267142D01*
X140923390Y-97267142D02*
X140875771Y-97314761D01*
X140875771Y-97314761D02*
X140828152Y-97409999D01*
X140828152Y-97409999D02*
X140828152Y-97552856D01*
X140828152Y-97552856D02*
X140875771Y-97648094D01*
X140875771Y-97648094D02*
X140923390Y-97695713D01*
X140923390Y-97695713D02*
X141018628Y-97743332D01*
X141018628Y-97743332D02*
X141304342Y-97743332D01*
X141304342Y-97743332D02*
X141399580Y-97695713D01*
X141399580Y-97695713D02*
X141447200Y-97648094D01*
X141447200Y-97648094D02*
X141494819Y-97552856D01*
X141494819Y-97552856D02*
X141494819Y-97409999D01*
X140971009Y-99267142D02*
X140971009Y-98933809D01*
X141494819Y-98933809D02*
X140494819Y-98933809D01*
X140494819Y-98933809D02*
X140494819Y-99409999D01*
X141494819Y-99790952D02*
X140828152Y-99790952D01*
X141018628Y-99790952D02*
X140923390Y-99838571D01*
X140923390Y-99838571D02*
X140875771Y-99886190D01*
X140875771Y-99886190D02*
X140828152Y-99981428D01*
X140828152Y-99981428D02*
X140828152Y-100076666D01*
X141494819Y-100552857D02*
X141447200Y-100457619D01*
X141447200Y-100457619D02*
X141399580Y-100410000D01*
X141399580Y-100410000D02*
X141304342Y-100362381D01*
X141304342Y-100362381D02*
X141018628Y-100362381D01*
X141018628Y-100362381D02*
X140923390Y-100410000D01*
X140923390Y-100410000D02*
X140875771Y-100457619D01*
X140875771Y-100457619D02*
X140828152Y-100552857D01*
X140828152Y-100552857D02*
X140828152Y-100695714D01*
X140828152Y-100695714D02*
X140875771Y-100790952D01*
X140875771Y-100790952D02*
X140923390Y-100838571D01*
X140923390Y-100838571D02*
X141018628Y-100886190D01*
X141018628Y-100886190D02*
X141304342Y-100886190D01*
X141304342Y-100886190D02*
X141399580Y-100838571D01*
X141399580Y-100838571D02*
X141447200Y-100790952D01*
X141447200Y-100790952D02*
X141494819Y-100695714D01*
X141494819Y-100695714D02*
X141494819Y-100552857D01*
X140828152Y-101314762D02*
X141494819Y-101314762D01*
X140923390Y-101314762D02*
X140875771Y-101362381D01*
X140875771Y-101362381D02*
X140828152Y-101457619D01*
X140828152Y-101457619D02*
X140828152Y-101600476D01*
X140828152Y-101600476D02*
X140875771Y-101695714D01*
X140875771Y-101695714D02*
X140971009Y-101743333D01*
X140971009Y-101743333D02*
X141494819Y-101743333D01*
X140828152Y-102076667D02*
X140828152Y-102457619D01*
X140494819Y-102219524D02*
X141351961Y-102219524D01*
X141351961Y-102219524D02*
X141447200Y-102267143D01*
X141447200Y-102267143D02*
X141494819Y-102362381D01*
X141494819Y-102362381D02*
X141494819Y-102457619D01*
X121849580Y-65953333D02*
X121897200Y-65905714D01*
X121897200Y-65905714D02*
X121944819Y-65762857D01*
X121944819Y-65762857D02*
X121944819Y-65667619D01*
X121944819Y-65667619D02*
X121897200Y-65524762D01*
X121897200Y-65524762D02*
X121801961Y-65429524D01*
X121801961Y-65429524D02*
X121706723Y-65381905D01*
X121706723Y-65381905D02*
X121516247Y-65334286D01*
X121516247Y-65334286D02*
X121373390Y-65334286D01*
X121373390Y-65334286D02*
X121182914Y-65381905D01*
X121182914Y-65381905D02*
X121087676Y-65429524D01*
X121087676Y-65429524D02*
X120992438Y-65524762D01*
X120992438Y-65524762D02*
X120944819Y-65667619D01*
X120944819Y-65667619D02*
X120944819Y-65762857D01*
X120944819Y-65762857D02*
X120992438Y-65905714D01*
X120992438Y-65905714D02*
X121040057Y-65953333D01*
X121040057Y-66334286D02*
X120992438Y-66381905D01*
X120992438Y-66381905D02*
X120944819Y-66477143D01*
X120944819Y-66477143D02*
X120944819Y-66715238D01*
X120944819Y-66715238D02*
X120992438Y-66810476D01*
X120992438Y-66810476D02*
X121040057Y-66858095D01*
X121040057Y-66858095D02*
X121135295Y-66905714D01*
X121135295Y-66905714D02*
X121230533Y-66905714D01*
X121230533Y-66905714D02*
X121373390Y-66858095D01*
X121373390Y-66858095D02*
X121944819Y-66286667D01*
X121944819Y-66286667D02*
X121944819Y-66905714D01*
X116639580Y-65923333D02*
X116687200Y-65875714D01*
X116687200Y-65875714D02*
X116734819Y-65732857D01*
X116734819Y-65732857D02*
X116734819Y-65637619D01*
X116734819Y-65637619D02*
X116687200Y-65494762D01*
X116687200Y-65494762D02*
X116591961Y-65399524D01*
X116591961Y-65399524D02*
X116496723Y-65351905D01*
X116496723Y-65351905D02*
X116306247Y-65304286D01*
X116306247Y-65304286D02*
X116163390Y-65304286D01*
X116163390Y-65304286D02*
X115972914Y-65351905D01*
X115972914Y-65351905D02*
X115877676Y-65399524D01*
X115877676Y-65399524D02*
X115782438Y-65494762D01*
X115782438Y-65494762D02*
X115734819Y-65637619D01*
X115734819Y-65637619D02*
X115734819Y-65732857D01*
X115734819Y-65732857D02*
X115782438Y-65875714D01*
X115782438Y-65875714D02*
X115830057Y-65923333D01*
X116734819Y-66875714D02*
X116734819Y-66304286D01*
X116734819Y-66590000D02*
X115734819Y-66590000D01*
X115734819Y-66590000D02*
X115877676Y-66494762D01*
X115877676Y-66494762D02*
X115972914Y-66399524D01*
X115972914Y-66399524D02*
X116020533Y-66304286D01*
%LPC*%
D11*
%TO.C,J5*%
X93170000Y-88860000D03*
X89530000Y-88870000D03*
D12*
X90350000Y-91360000D03*
X90750000Y-91360000D03*
X91150000Y-91360000D03*
X91550000Y-91360000D03*
X91950000Y-91360000D03*
X92350000Y-91360000D03*
%TD*%
D13*
%TO.C,J2*%
X136420000Y-102095000D03*
X138900000Y-102095000D03*
D12*
X138460000Y-100545000D03*
X138060000Y-100545000D03*
X137660000Y-100545000D03*
X137260000Y-100545000D03*
X136860000Y-100545000D03*
%TD*%
D14*
%TO.C,C2*%
X119850000Y-65270000D03*
X119850000Y-66920000D03*
%TD*%
D15*
%TO.C,SW12*%
X196020000Y-70330000D03*
D16*
X200000000Y-68000000D03*
D17*
X200700000Y-72700000D03*
D18*
X198810000Y-72600000D03*
D19*
X202400000Y-72100000D03*
D20*
X197130000Y-71790000D03*
D21*
X203780000Y-70880000D03*
D22*
X195620000Y-66130000D03*
D23*
X196660000Y-64610000D03*
D24*
X201840000Y-63610000D03*
D25*
X198190000Y-63600000D03*
D26*
X199970000Y-63240000D03*
%TD*%
D14*
%TO.C,C1*%
X117710000Y-65270000D03*
X117710000Y-66920000D03*
%TD*%
%LPD*%
M02*
