%TF.GenerationSoftware,KiCad,Pcbnew,9.0.3*%
%TF.CreationDate,2025-08-12T18:22:14+03:00*%
%TF.ProjectId,Back,4261636b-2e6b-4696-9361-645f70636258,rev?*%
%TF.SameCoordinates,Original*%
%TF.FileFunction,Drillmap*%
%TF.FilePolarity,Positive*%
%FSLAX45Y45*%
G04 Gerber Fmt 4.5, Leading zero omitted, Abs format (unit mm)*
G04 Created by KiCad (PCBNEW 9.0.3) date 2025-08-12 18:22:14*
%MOMM*%
%LPD*%
G01*
G04 APERTURE LIST*
%ADD10C,0.050000*%
%ADD11C,0.200000*%
G04 APERTURE END LIST*
D10*
X9956000Y-4627000D02*
X9956000Y-4799026D01*
X6630000Y-10150000D02*
G75*
G02*
X6470000Y-10150000I-80000J0D01*
G01*
X6470000Y-10150000D02*
G75*
G02*
X6630000Y-10150000I80000J0D01*
G01*
X18668586Y-5802000D02*
G75*
G02*
X18251414Y-5802000I-208586J0D01*
G01*
X18251414Y-5802000D02*
G75*
G02*
X18668586Y-5802000I208586J0D01*
G01*
X11300318Y-13188682D02*
X11300318Y-10499682D01*
X15280000Y-8758700D02*
G75*
G02*
X15120000Y-8758700I-80000J0D01*
G01*
X15120000Y-8758700D02*
G75*
G02*
X15280000Y-8758700I80000J0D01*
G01*
X7745000Y-9573000D02*
G75*
G02*
X7585000Y-9573000I-80000J0D01*
G01*
X7585000Y-9573000D02*
G75*
G02*
X7745000Y-9573000I80000J0D01*
G01*
X10155974Y-4999026D02*
G75*
G02*
X9956004Y-4799004I26J199996D01*
G01*
X15280000Y-10137500D02*
G75*
G02*
X15120000Y-10137500I-80000J0D01*
G01*
X15120000Y-10137500D02*
G75*
G02*
X15280000Y-10137500I80000J0D01*
G01*
X7014200Y-6800000D02*
G75*
G02*
X6854200Y-6800000I-80000J0D01*
G01*
X6854200Y-6800000D02*
G75*
G02*
X7014200Y-6800000I80000J0D01*
G01*
X9530000Y-4627000D02*
X9530000Y-4800000D01*
X18647876Y-5239000D02*
G75*
G02*
X18478124Y-5239000I-84876J0D01*
G01*
X18478124Y-5239000D02*
G75*
G02*
X18647876Y-5239000I84876J0D01*
G01*
X14470000Y-9688000D02*
X14710000Y-9688000D01*
X14710000Y-10010000D01*
X14470000Y-10010000D01*
X14470000Y-9688000D01*
X16880000Y-5550000D02*
G75*
G02*
X16720000Y-5550000I-80000J0D01*
G01*
X16720000Y-5550000D02*
G75*
G02*
X16880000Y-5550000I80000J0D01*
G01*
X7014200Y-8500000D02*
G75*
G02*
X6854200Y-8500000I-80000J0D01*
G01*
X6854200Y-8500000D02*
G75*
G02*
X7014200Y-8500000I80000J0D01*
G01*
X5940000Y-5000000D02*
X9330000Y-5000000D01*
X18739000Y-6601000D02*
X18096500Y-6601000D01*
X12300000Y-13189000D02*
X12300000Y-10500000D01*
X7745000Y-5727000D02*
G75*
G02*
X7585000Y-5727000I-80000J0D01*
G01*
X7585000Y-5727000D02*
G75*
G02*
X7745000Y-5727000I80000J0D01*
G01*
X7100000Y-7100000D02*
X7400000Y-7100000D01*
X7400000Y-8200000D01*
X7100000Y-8200000D01*
X7100000Y-7100000D01*
X18740000Y-5001000D02*
X18739000Y-6601000D01*
X8267800Y-6773100D02*
G75*
G02*
X8107800Y-6773100I-80000J0D01*
G01*
X8107800Y-6773100D02*
G75*
G02*
X8267800Y-6773100I80000J0D01*
G01*
X13875000Y-5727000D02*
G75*
G02*
X13715000Y-5727000I-80000J0D01*
G01*
X13715000Y-5727000D02*
G75*
G02*
X13875000Y-5727000I80000J0D01*
G01*
X15080000Y-5550000D02*
G75*
G02*
X14920000Y-5550000I-80000J0D01*
G01*
X14920000Y-5550000D02*
G75*
G02*
X15080000Y-5550000I80000J0D01*
G01*
X16880000Y-8050000D02*
G75*
G02*
X16720000Y-8050000I-80000J0D01*
G01*
X16720000Y-8050000D02*
G75*
G02*
X16880000Y-8050000I80000J0D01*
G01*
X5940000Y-10300000D02*
X11100318Y-10300000D01*
X17745500Y-11678000D02*
X17745500Y-6600000D01*
X6630000Y-5150000D02*
G75*
G02*
X6470000Y-5150000I-80000J0D01*
G01*
X6470000Y-5150000D02*
G75*
G02*
X6630000Y-5150000I80000J0D01*
G01*
X17500000Y-5000000D02*
X18740000Y-5001000D01*
X15080000Y-8050000D02*
G75*
G02*
X14920000Y-8050000I-80000J0D01*
G01*
X14920000Y-8050000D02*
G75*
G02*
X15080000Y-8050000I80000J0D01*
G01*
X17500000Y-5000000D02*
X10156000Y-4999026D01*
X14470000Y-5292000D02*
X14710000Y-5292000D01*
X14710000Y-5612000D01*
X14470000Y-5612000D01*
X14470000Y-5292000D01*
X18127546Y-6394000D02*
G75*
G02*
X17960454Y-6394000I-83546J0D01*
G01*
X17960454Y-6394000D02*
G75*
G02*
X18127546Y-6394000I83546J0D01*
G01*
X12499421Y-10300000D02*
X17500000Y-10300000D01*
X8267800Y-8823100D02*
G75*
G02*
X8107800Y-8823100I-80000J0D01*
G01*
X8107800Y-8823100D02*
G75*
G02*
X8267800Y-8823100I80000J0D01*
G01*
X18639000Y-6394000D02*
G75*
G02*
X18487000Y-6394000I-76000J0D01*
G01*
X18487000Y-6394000D02*
G75*
G02*
X18639000Y-6394000I76000J0D01*
G01*
X11100318Y-10299682D02*
G75*
G02*
X11300318Y-10499682I2J-199998D01*
G01*
X6790000Y-5542000D02*
X7030000Y-5542000D01*
X7030000Y-6000000D01*
X6790000Y-6000000D01*
X6790000Y-5542000D01*
X16180000Y-10137500D02*
G75*
G02*
X16020000Y-10137500I-80000J0D01*
G01*
X16020000Y-10137500D02*
G75*
G02*
X16180000Y-10137500I80000J0D01*
G01*
X9530000Y-4800000D02*
G75*
G02*
X9330000Y-5000000I-200000J0D01*
G01*
X16180000Y-8758700D02*
G75*
G02*
X16020000Y-8758700I-80000J0D01*
G01*
X16020000Y-8758700D02*
G75*
G02*
X16180000Y-8758700I80000J0D01*
G01*
X5940000Y-5000000D02*
X5940000Y-10300000D01*
X12299421Y-10500000D02*
G75*
G02*
X12499421Y-10300001I199999J0D01*
G01*
X17500000Y-10300000D02*
X17500000Y-6600000D01*
X13875000Y-9573000D02*
G75*
G02*
X13715000Y-9573000I-80000J0D01*
G01*
X13715000Y-9573000D02*
G75*
G02*
X13875000Y-9573000I80000J0D01*
G01*
X6790000Y-9300000D02*
X7030000Y-9300000D01*
X7030000Y-9758000D01*
X6790000Y-9758000D01*
X6790000Y-9300000D01*
X18096500Y-6601000D02*
X18096500Y-11678000D01*
X17500000Y-6600000D02*
X17745500Y-6600000D01*
X9480000Y-4527000D02*
X9480000Y-4627000D01*
X9530000Y-4627000D02*
X9480000Y-4627000D01*
X9580000Y-4527000D02*
X9480000Y-4527000D01*
X9580500Y-4310000D02*
X9580500Y-4527000D01*
X9905500Y-4310000D02*
X9580500Y-4310000D01*
X9905500Y-4310000D02*
X9905500Y-4527000D01*
X9906000Y-4527000D02*
X10006000Y-4527000D01*
X9956000Y-4627000D02*
X10006000Y-4627000D01*
X10006000Y-4527000D02*
X10006000Y-4627000D01*
X17695500Y-11778000D02*
X17695500Y-11678000D01*
X17745500Y-11678000D02*
X17695500Y-11678000D01*
X17795500Y-11778000D02*
X17695500Y-11778000D01*
X17796000Y-11995000D02*
X17796000Y-11778000D01*
X17796000Y-11995000D02*
X18046000Y-11995000D01*
X18046000Y-11995000D02*
X18046000Y-11778000D01*
X18046500Y-11778000D02*
X18146500Y-11778000D01*
X18096500Y-11678000D02*
X18146500Y-11678000D01*
X18146500Y-11778000D02*
X18146500Y-11678000D01*
X11246318Y-13288682D02*
X11246318Y-13188682D01*
X11300318Y-13188682D02*
X11246318Y-13188682D01*
X11346318Y-13288682D02*
X11246318Y-13288682D01*
X11346318Y-13505682D02*
X11346318Y-13288682D01*
X11346318Y-13505682D02*
X12254318Y-13505682D01*
X12254318Y-13288682D02*
X12354318Y-13288682D01*
X12254318Y-13505682D02*
X12254318Y-13288682D01*
X12300318Y-13188682D02*
X12354318Y-13188682D01*
X12354318Y-13288682D02*
X12354318Y-13188682D01*
D11*
X6198277Y-13819665D02*
X6198277Y-13619665D01*
X6198277Y-13619665D02*
X6245896Y-13619665D01*
X6245896Y-13619665D02*
X6274467Y-13629189D01*
X6274467Y-13629189D02*
X6293515Y-13648237D01*
X6293515Y-13648237D02*
X6303039Y-13667284D01*
X6303039Y-13667284D02*
X6312562Y-13705380D01*
X6312562Y-13705380D02*
X6312562Y-13733951D01*
X6312562Y-13733951D02*
X6303039Y-13772046D01*
X6303039Y-13772046D02*
X6293515Y-13791094D01*
X6293515Y-13791094D02*
X6274467Y-13810142D01*
X6274467Y-13810142D02*
X6245896Y-13819665D01*
X6245896Y-13819665D02*
X6198277Y-13819665D01*
X6398277Y-13819665D02*
X6398277Y-13686332D01*
X6398277Y-13724427D02*
X6407801Y-13705380D01*
X6407801Y-13705380D02*
X6417324Y-13695856D01*
X6417324Y-13695856D02*
X6436372Y-13686332D01*
X6436372Y-13686332D02*
X6455420Y-13686332D01*
X6522086Y-13819665D02*
X6522086Y-13686332D01*
X6522086Y-13619665D02*
X6512562Y-13629189D01*
X6512562Y-13629189D02*
X6522086Y-13638713D01*
X6522086Y-13638713D02*
X6531610Y-13629189D01*
X6531610Y-13629189D02*
X6522086Y-13619665D01*
X6522086Y-13619665D02*
X6522086Y-13638713D01*
X6645896Y-13819665D02*
X6626848Y-13810142D01*
X6626848Y-13810142D02*
X6617324Y-13791094D01*
X6617324Y-13791094D02*
X6617324Y-13619665D01*
X6750658Y-13819665D02*
X6731610Y-13810142D01*
X6731610Y-13810142D02*
X6722086Y-13791094D01*
X6722086Y-13791094D02*
X6722086Y-13619665D01*
X6979229Y-13819665D02*
X6979229Y-13619665D01*
X6979229Y-13619665D02*
X7045896Y-13762523D01*
X7045896Y-13762523D02*
X7112562Y-13619665D01*
X7112562Y-13619665D02*
X7112562Y-13819665D01*
X7293515Y-13819665D02*
X7293515Y-13714904D01*
X7293515Y-13714904D02*
X7283991Y-13695856D01*
X7283991Y-13695856D02*
X7264943Y-13686332D01*
X7264943Y-13686332D02*
X7226848Y-13686332D01*
X7226848Y-13686332D02*
X7207801Y-13695856D01*
X7293515Y-13810142D02*
X7274467Y-13819665D01*
X7274467Y-13819665D02*
X7226848Y-13819665D01*
X7226848Y-13819665D02*
X7207801Y-13810142D01*
X7207801Y-13810142D02*
X7198277Y-13791094D01*
X7198277Y-13791094D02*
X7198277Y-13772046D01*
X7198277Y-13772046D02*
X7207801Y-13752999D01*
X7207801Y-13752999D02*
X7226848Y-13743475D01*
X7226848Y-13743475D02*
X7274467Y-13743475D01*
X7274467Y-13743475D02*
X7293515Y-13733951D01*
X7388753Y-13686332D02*
X7388753Y-13886332D01*
X7388753Y-13695856D02*
X7407801Y-13686332D01*
X7407801Y-13686332D02*
X7445896Y-13686332D01*
X7445896Y-13686332D02*
X7464943Y-13695856D01*
X7464943Y-13695856D02*
X7474467Y-13705380D01*
X7474467Y-13705380D02*
X7483991Y-13724427D01*
X7483991Y-13724427D02*
X7483991Y-13781570D01*
X7483991Y-13781570D02*
X7474467Y-13800618D01*
X7474467Y-13800618D02*
X7464943Y-13810142D01*
X7464943Y-13810142D02*
X7445896Y-13819665D01*
X7445896Y-13819665D02*
X7407801Y-13819665D01*
X7407801Y-13819665D02*
X7388753Y-13810142D01*
X7569705Y-13800618D02*
X7579229Y-13810142D01*
X7579229Y-13810142D02*
X7569705Y-13819665D01*
X7569705Y-13819665D02*
X7560182Y-13810142D01*
X7560182Y-13810142D02*
X7569705Y-13800618D01*
X7569705Y-13800618D02*
X7569705Y-13819665D01*
X7569705Y-13695856D02*
X7579229Y-13705380D01*
X7579229Y-13705380D02*
X7569705Y-13714904D01*
X7569705Y-13714904D02*
X7560182Y-13705380D01*
X7560182Y-13705380D02*
X7569705Y-13695856D01*
X7569705Y-13695856D02*
X7569705Y-13714904D01*
M02*
