%TF.GenerationSoftware,KiCad,Pcbnew,9.0.3*%
%TF.CreationDate,2025-09-09T23:23:58+03:00*%
%TF.ProjectId,Back,4261636b-2e6b-4696-9361-645f70636258,rev?*%
%TF.SameCoordinates,Original*%
%TF.FileFunction,Legend,Bot*%
%TF.FilePolarity,Positive*%
%FSLAX46Y46*%
G04 Gerber Fmt 4.6, Leading zero omitted, Abs format (unit mm)*
G04 Created by KiCad (PCBNEW 9.0.3) date 2025-09-09 23:23:58*
%MOMM*%
%LPD*%
G01*
G04 APERTURE LIST*
G04 Aperture macros list*
%AMRoundRect*
0 Rectangle with rounded corners*
0 $1 Rounding radius*
0 $2 $3 $4 $5 $6 $7 $8 $9 X,Y pos of 4 corners*
0 Add a 4 corners polygon primitive as box body*
4,1,4,$2,$3,$4,$5,$6,$7,$8,$9,$2,$3,0*
0 Add four circle primitives for the rounded corners*
1,1,$1+$1,$2,$3*
1,1,$1+$1,$4,$5*
1,1,$1+$1,$6,$7*
1,1,$1+$1,$8,$9*
0 Add four rect primitives between the rounded corners*
20,1,$1+$1,$2,$3,$4,$5,0*
20,1,$1+$1,$4,$5,$6,$7,0*
20,1,$1+$1,$6,$7,$8,$9,0*
20,1,$1+$1,$8,$9,$2,$3,0*%
%AMRotRect*
0 Rectangle, with rotation*
0 The origin of the aperture is its center*
0 $1 length*
0 $2 width*
0 $3 Rotation angle, in degrees counterclockwise*
0 Add horizontal line*
21,1,$1,$2,0,0,$3*%
G04 Aperture macros list end*
%ADD10C,0.150000*%
%ADD11C,0.100000*%
%ADD12RoundRect,0.100000X0.400000X-0.400000X0.400000X0.400000X-0.400000X0.400000X-0.400000X-0.400000X0*%
%ADD13R,1.000000X2.500000*%
%ADD14RotRect,1.000000X2.500000X22.500000*%
%ADD15RotRect,1.000000X2.500000X337.500000*%
%ADD16RotRect,1.000000X2.500000X45.000000*%
%ADD17RotRect,1.000000X2.500000X67.500000*%
%ADD18RotRect,1.000000X2.500000X135.000000*%
%ADD19RotRect,1.000000X2.500000X225.000000*%
%ADD20RotRect,1.000000X2.500000X202.500000*%
%ADD21RotRect,1.000000X2.500000X157.500000*%
%ADD22C,6.800000*%
%ADD23RotRect,1.000000X2.500000X112.500000*%
%ADD24RoundRect,0.150000X-0.250000X0.150000X-0.250000X-0.150000X0.250000X-0.150000X0.250000X0.150000X0*%
%ADD25RoundRect,0.125000X-0.125000X0.125000X-0.125000X-0.125000X0.125000X-0.125000X0.125000X0.125000X0*%
%ADD26R,0.240000X0.800000*%
%ADD27RoundRect,0.125000X0.125000X-0.125000X0.125000X0.125000X-0.125000X0.125000X-0.125000X-0.125000X0*%
G04 APERTURE END LIST*
D10*
X216827200Y-60400476D02*
X216874819Y-60543333D01*
X216874819Y-60543333D02*
X216874819Y-60781428D01*
X216874819Y-60781428D02*
X216827200Y-60876666D01*
X216827200Y-60876666D02*
X216779580Y-60924285D01*
X216779580Y-60924285D02*
X216684342Y-60971904D01*
X216684342Y-60971904D02*
X216589104Y-60971904D01*
X216589104Y-60971904D02*
X216493866Y-60924285D01*
X216493866Y-60924285D02*
X216446247Y-60876666D01*
X216446247Y-60876666D02*
X216398628Y-60781428D01*
X216398628Y-60781428D02*
X216351009Y-60590952D01*
X216351009Y-60590952D02*
X216303390Y-60495714D01*
X216303390Y-60495714D02*
X216255771Y-60448095D01*
X216255771Y-60448095D02*
X216160533Y-60400476D01*
X216160533Y-60400476D02*
X216065295Y-60400476D01*
X216065295Y-60400476D02*
X215970057Y-60448095D01*
X215970057Y-60448095D02*
X215922438Y-60495714D01*
X215922438Y-60495714D02*
X215874819Y-60590952D01*
X215874819Y-60590952D02*
X215874819Y-60829047D01*
X215874819Y-60829047D02*
X215922438Y-60971904D01*
X215874819Y-61305238D02*
X216874819Y-61543333D01*
X216874819Y-61543333D02*
X216160533Y-61733809D01*
X216160533Y-61733809D02*
X216874819Y-61924285D01*
X216874819Y-61924285D02*
X215874819Y-62162381D01*
X216874819Y-63067142D02*
X216874819Y-62495714D01*
X216874819Y-62781428D02*
X215874819Y-62781428D01*
X215874819Y-62781428D02*
X216017676Y-62686190D01*
X216017676Y-62686190D02*
X216112914Y-62590952D01*
X216112914Y-62590952D02*
X216160533Y-62495714D01*
X216208152Y-63924285D02*
X216874819Y-63924285D01*
X215827200Y-63686190D02*
X216541485Y-63448095D01*
X216541485Y-63448095D02*
X216541485Y-64067142D01*
D11*
X190780200Y-69819523D02*
X190732580Y-69676666D01*
X190732580Y-69676666D02*
X190732580Y-69438571D01*
X190732580Y-69438571D02*
X190780200Y-69343333D01*
X190780200Y-69343333D02*
X190827819Y-69295714D01*
X190827819Y-69295714D02*
X190923057Y-69248095D01*
X190923057Y-69248095D02*
X191018295Y-69248095D01*
X191018295Y-69248095D02*
X191113533Y-69295714D01*
X191113533Y-69295714D02*
X191161152Y-69343333D01*
X191161152Y-69343333D02*
X191208771Y-69438571D01*
X191208771Y-69438571D02*
X191256390Y-69629047D01*
X191256390Y-69629047D02*
X191304009Y-69724285D01*
X191304009Y-69724285D02*
X191351628Y-69771904D01*
X191351628Y-69771904D02*
X191446866Y-69819523D01*
X191446866Y-69819523D02*
X191542104Y-69819523D01*
X191542104Y-69819523D02*
X191637342Y-69771904D01*
X191637342Y-69771904D02*
X191684961Y-69724285D01*
X191684961Y-69724285D02*
X191732580Y-69629047D01*
X191732580Y-69629047D02*
X191732580Y-69390952D01*
X191732580Y-69390952D02*
X191684961Y-69248095D01*
X191732580Y-68914761D02*
X190732580Y-68676666D01*
X190732580Y-68676666D02*
X191446866Y-68486190D01*
X191446866Y-68486190D02*
X190732580Y-68295714D01*
X190732580Y-68295714D02*
X191732580Y-68057619D01*
X190732580Y-67152857D02*
X190732580Y-67724285D01*
X190732580Y-67438571D02*
X191732580Y-67438571D01*
X191732580Y-67438571D02*
X191589723Y-67533809D01*
X191589723Y-67533809D02*
X191494485Y-67629047D01*
X191494485Y-67629047D02*
X191446866Y-67724285D01*
X191637342Y-66771904D02*
X191684961Y-66724285D01*
X191684961Y-66724285D02*
X191732580Y-66629047D01*
X191732580Y-66629047D02*
X191732580Y-66390952D01*
X191732580Y-66390952D02*
X191684961Y-66295714D01*
X191684961Y-66295714D02*
X191637342Y-66248095D01*
X191637342Y-66248095D02*
X191542104Y-66200476D01*
X191542104Y-66200476D02*
X191446866Y-66200476D01*
X191446866Y-66200476D02*
X191304009Y-66248095D01*
X191304009Y-66248095D02*
X190732580Y-66819523D01*
X190732580Y-66819523D02*
X190732580Y-66200476D01*
D10*
X121849580Y-65873333D02*
X121897200Y-65825714D01*
X121897200Y-65825714D02*
X121944819Y-65682857D01*
X121944819Y-65682857D02*
X121944819Y-65587619D01*
X121944819Y-65587619D02*
X121897200Y-65444762D01*
X121897200Y-65444762D02*
X121801961Y-65349524D01*
X121801961Y-65349524D02*
X121706723Y-65301905D01*
X121706723Y-65301905D02*
X121516247Y-65254286D01*
X121516247Y-65254286D02*
X121373390Y-65254286D01*
X121373390Y-65254286D02*
X121182914Y-65301905D01*
X121182914Y-65301905D02*
X121087676Y-65349524D01*
X121087676Y-65349524D02*
X120992438Y-65444762D01*
X120992438Y-65444762D02*
X120944819Y-65587619D01*
X120944819Y-65587619D02*
X120944819Y-65682857D01*
X120944819Y-65682857D02*
X120992438Y-65825714D01*
X120992438Y-65825714D02*
X121040057Y-65873333D01*
X121040057Y-66254286D02*
X120992438Y-66301905D01*
X120992438Y-66301905D02*
X120944819Y-66397143D01*
X120944819Y-66397143D02*
X120944819Y-66635238D01*
X120944819Y-66635238D02*
X120992438Y-66730476D01*
X120992438Y-66730476D02*
X121040057Y-66778095D01*
X121040057Y-66778095D02*
X121135295Y-66825714D01*
X121135295Y-66825714D02*
X121230533Y-66825714D01*
X121230533Y-66825714D02*
X121373390Y-66778095D01*
X121373390Y-66778095D02*
X121944819Y-66206667D01*
X121944819Y-66206667D02*
X121944819Y-66825714D01*
X116539580Y-65920150D02*
X116587200Y-65872531D01*
X116587200Y-65872531D02*
X116634819Y-65729674D01*
X116634819Y-65729674D02*
X116634819Y-65634436D01*
X116634819Y-65634436D02*
X116587200Y-65491579D01*
X116587200Y-65491579D02*
X116491961Y-65396341D01*
X116491961Y-65396341D02*
X116396723Y-65348722D01*
X116396723Y-65348722D02*
X116206247Y-65301103D01*
X116206247Y-65301103D02*
X116063390Y-65301103D01*
X116063390Y-65301103D02*
X115872914Y-65348722D01*
X115872914Y-65348722D02*
X115777676Y-65396341D01*
X115777676Y-65396341D02*
X115682438Y-65491579D01*
X115682438Y-65491579D02*
X115634819Y-65634436D01*
X115634819Y-65634436D02*
X115634819Y-65729674D01*
X115634819Y-65729674D02*
X115682438Y-65872531D01*
X115682438Y-65872531D02*
X115730057Y-65920150D01*
X116634819Y-66872531D02*
X116634819Y-66301103D01*
X116634819Y-66586817D02*
X115634819Y-66586817D01*
X115634819Y-66586817D02*
X115777676Y-66491579D01*
X115777676Y-66491579D02*
X115872914Y-66396341D01*
X115872914Y-66396341D02*
X115920533Y-66301103D01*
X95861009Y-85708571D02*
X95861009Y-85375238D01*
X96384819Y-85375238D02*
X95384819Y-85375238D01*
X95384819Y-85375238D02*
X95384819Y-85851428D01*
X96384819Y-86232381D02*
X95718152Y-86232381D01*
X95908628Y-86232381D02*
X95813390Y-86280000D01*
X95813390Y-86280000D02*
X95765771Y-86327619D01*
X95765771Y-86327619D02*
X95718152Y-86422857D01*
X95718152Y-86422857D02*
X95718152Y-86518095D01*
X96384819Y-86994286D02*
X96337200Y-86899048D01*
X96337200Y-86899048D02*
X96289580Y-86851429D01*
X96289580Y-86851429D02*
X96194342Y-86803810D01*
X96194342Y-86803810D02*
X95908628Y-86803810D01*
X95908628Y-86803810D02*
X95813390Y-86851429D01*
X95813390Y-86851429D02*
X95765771Y-86899048D01*
X95765771Y-86899048D02*
X95718152Y-86994286D01*
X95718152Y-86994286D02*
X95718152Y-87137143D01*
X95718152Y-87137143D02*
X95765771Y-87232381D01*
X95765771Y-87232381D02*
X95813390Y-87280000D01*
X95813390Y-87280000D02*
X95908628Y-87327619D01*
X95908628Y-87327619D02*
X96194342Y-87327619D01*
X96194342Y-87327619D02*
X96289580Y-87280000D01*
X96289580Y-87280000D02*
X96337200Y-87232381D01*
X96337200Y-87232381D02*
X96384819Y-87137143D01*
X96384819Y-87137143D02*
X96384819Y-86994286D01*
X96384819Y-87756191D02*
X95718152Y-87756191D01*
X95813390Y-87756191D02*
X95765771Y-87803810D01*
X95765771Y-87803810D02*
X95718152Y-87899048D01*
X95718152Y-87899048D02*
X95718152Y-88041905D01*
X95718152Y-88041905D02*
X95765771Y-88137143D01*
X95765771Y-88137143D02*
X95861009Y-88184762D01*
X95861009Y-88184762D02*
X96384819Y-88184762D01*
X95861009Y-88184762D02*
X95765771Y-88232381D01*
X95765771Y-88232381D02*
X95718152Y-88327619D01*
X95718152Y-88327619D02*
X95718152Y-88470476D01*
X95718152Y-88470476D02*
X95765771Y-88565715D01*
X95765771Y-88565715D02*
X95861009Y-88613334D01*
X95861009Y-88613334D02*
X96384819Y-88613334D01*
X96384819Y-90327619D02*
X96384819Y-89851429D01*
X96384819Y-89851429D02*
X95384819Y-89851429D01*
X96289580Y-91232381D02*
X96337200Y-91184762D01*
X96337200Y-91184762D02*
X96384819Y-91041905D01*
X96384819Y-91041905D02*
X96384819Y-90946667D01*
X96384819Y-90946667D02*
X96337200Y-90803810D01*
X96337200Y-90803810D02*
X96241961Y-90708572D01*
X96241961Y-90708572D02*
X96146723Y-90660953D01*
X96146723Y-90660953D02*
X95956247Y-90613334D01*
X95956247Y-90613334D02*
X95813390Y-90613334D01*
X95813390Y-90613334D02*
X95622914Y-90660953D01*
X95622914Y-90660953D02*
X95527676Y-90708572D01*
X95527676Y-90708572D02*
X95432438Y-90803810D01*
X95432438Y-90803810D02*
X95384819Y-90946667D01*
X95384819Y-90946667D02*
X95384819Y-91041905D01*
X95384819Y-91041905D02*
X95432438Y-91184762D01*
X95432438Y-91184762D02*
X95480057Y-91232381D01*
X96384819Y-91660953D02*
X95384819Y-91660953D01*
X95384819Y-91660953D02*
X95384819Y-91899048D01*
X95384819Y-91899048D02*
X95432438Y-92041905D01*
X95432438Y-92041905D02*
X95527676Y-92137143D01*
X95527676Y-92137143D02*
X95622914Y-92184762D01*
X95622914Y-92184762D02*
X95813390Y-92232381D01*
X95813390Y-92232381D02*
X95956247Y-92232381D01*
X95956247Y-92232381D02*
X96146723Y-92184762D01*
X96146723Y-92184762D02*
X96241961Y-92137143D01*
X96241961Y-92137143D02*
X96337200Y-92041905D01*
X96337200Y-92041905D02*
X96384819Y-91899048D01*
X96384819Y-91899048D02*
X96384819Y-91660953D01*
X140494819Y-96362380D02*
X140494819Y-96933808D01*
X141494819Y-96648094D02*
X140494819Y-96648094D01*
X141494819Y-97409999D02*
X141447200Y-97314761D01*
X141447200Y-97314761D02*
X141399580Y-97267142D01*
X141399580Y-97267142D02*
X141304342Y-97219523D01*
X141304342Y-97219523D02*
X141018628Y-97219523D01*
X141018628Y-97219523D02*
X140923390Y-97267142D01*
X140923390Y-97267142D02*
X140875771Y-97314761D01*
X140875771Y-97314761D02*
X140828152Y-97409999D01*
X140828152Y-97409999D02*
X140828152Y-97552856D01*
X140828152Y-97552856D02*
X140875771Y-97648094D01*
X140875771Y-97648094D02*
X140923390Y-97695713D01*
X140923390Y-97695713D02*
X141018628Y-97743332D01*
X141018628Y-97743332D02*
X141304342Y-97743332D01*
X141304342Y-97743332D02*
X141399580Y-97695713D01*
X141399580Y-97695713D02*
X141447200Y-97648094D01*
X141447200Y-97648094D02*
X141494819Y-97552856D01*
X141494819Y-97552856D02*
X141494819Y-97409999D01*
X140971009Y-99267142D02*
X140971009Y-98933809D01*
X141494819Y-98933809D02*
X140494819Y-98933809D01*
X140494819Y-98933809D02*
X140494819Y-99409999D01*
X141494819Y-99790952D02*
X140828152Y-99790952D01*
X141018628Y-99790952D02*
X140923390Y-99838571D01*
X140923390Y-99838571D02*
X140875771Y-99886190D01*
X140875771Y-99886190D02*
X140828152Y-99981428D01*
X140828152Y-99981428D02*
X140828152Y-100076666D01*
X141494819Y-100552857D02*
X141447200Y-100457619D01*
X141447200Y-100457619D02*
X141399580Y-100410000D01*
X141399580Y-100410000D02*
X141304342Y-100362381D01*
X141304342Y-100362381D02*
X141018628Y-100362381D01*
X141018628Y-100362381D02*
X140923390Y-100410000D01*
X140923390Y-100410000D02*
X140875771Y-100457619D01*
X140875771Y-100457619D02*
X140828152Y-100552857D01*
X140828152Y-100552857D02*
X140828152Y-100695714D01*
X140828152Y-100695714D02*
X140875771Y-100790952D01*
X140875771Y-100790952D02*
X140923390Y-100838571D01*
X140923390Y-100838571D02*
X141018628Y-100886190D01*
X141018628Y-100886190D02*
X141304342Y-100886190D01*
X141304342Y-100886190D02*
X141399580Y-100838571D01*
X141399580Y-100838571D02*
X141447200Y-100790952D01*
X141447200Y-100790952D02*
X141494819Y-100695714D01*
X141494819Y-100695714D02*
X141494819Y-100552857D01*
X140828152Y-101314762D02*
X141494819Y-101314762D01*
X140923390Y-101314762D02*
X140875771Y-101362381D01*
X140875771Y-101362381D02*
X140828152Y-101457619D01*
X140828152Y-101457619D02*
X140828152Y-101600476D01*
X140828152Y-101600476D02*
X140875771Y-101695714D01*
X140875771Y-101695714D02*
X140971009Y-101743333D01*
X140971009Y-101743333D02*
X141494819Y-101743333D01*
X140828152Y-102076667D02*
X140828152Y-102457619D01*
X140494819Y-102219524D02*
X141351961Y-102219524D01*
X141351961Y-102219524D02*
X141447200Y-102267143D01*
X141447200Y-102267143D02*
X141494819Y-102362381D01*
X141494819Y-102362381D02*
X141494819Y-102457619D01*
%LPC*%
D12*
%TO.C,SW14*%
X210940000Y-60880000D03*
X212520000Y-60900000D03*
X212520000Y-63520000D03*
X210920000Y-63530000D03*
%TD*%
D13*
%TO.C,SW12*%
X199970000Y-63240000D03*
D14*
X198190000Y-63600000D03*
D15*
X201840000Y-63610000D03*
D16*
X196660000Y-64610000D03*
D17*
X195620000Y-66130000D03*
D18*
X196620000Y-71350000D03*
D19*
X203370000Y-71360000D03*
D20*
X201860000Y-72380000D03*
D21*
X198180000Y-72390000D03*
D13*
X200030000Y-72750000D03*
D22*
X200000000Y-68000000D03*
D23*
X195750000Y-69780000D03*
%TD*%
D24*
%TO.C,C2*%
X119850000Y-65490000D03*
X119850000Y-66700000D03*
%TD*%
%TO.C,C1*%
X117710000Y-65490000D03*
X117710000Y-66700000D03*
%TD*%
D25*
%TO.C,J5*%
X93170000Y-88860000D03*
X89530000Y-88870000D03*
D26*
X90350000Y-91360000D03*
X90750000Y-91360000D03*
X91150000Y-91360000D03*
X91550000Y-91360000D03*
X91950000Y-91360000D03*
X92350000Y-91360000D03*
%TD*%
D27*
%TO.C,J2*%
X138900000Y-102095000D03*
X136420000Y-102095000D03*
D26*
X138460000Y-100545000D03*
X138060000Y-100545000D03*
X137660000Y-100545000D03*
X137260000Y-100545000D03*
X136860000Y-100545000D03*
%TD*%
%LPD*%
M02*
