%TF.GenerationSoftware,KiCad,Pcbnew,9.0.3*%
%TF.CreationDate,2025-09-15T23:17:30+03:00*%
%TF.ProjectId,Back,4261636b-2e6b-4696-9361-645f70636258,rev?*%
%TF.SameCoordinates,Original*%
%TF.FileFunction,Paste,Top*%
%TF.FilePolarity,Positive*%
%FSLAX46Y46*%
G04 Gerber Fmt 4.6, Leading zero omitted, Abs format (unit mm)*
G04 Created by KiCad (PCBNEW 9.0.3) date 2025-09-15 23:17:30*
%MOMM*%
%LPD*%
G01*
G04 APERTURE LIST*
G04 Aperture macros list*
%AMRoundRect*
0 Rectangle with rounded corners*
0 $1 Rounding radius*
0 $2 $3 $4 $5 $6 $7 $8 $9 X,Y pos of 4 corners*
0 Add a 4 corners polygon primitive as box body*
4,1,4,$2,$3,$4,$5,$6,$7,$8,$9,$2,$3,0*
0 Add four circle primitives for the rounded corners*
1,1,$1+$1,$2,$3*
1,1,$1+$1,$4,$5*
1,1,$1+$1,$6,$7*
1,1,$1+$1,$8,$9*
0 Add four rect primitives between the rounded corners*
20,1,$1+$1,$2,$3,$4,$5,0*
20,1,$1+$1,$4,$5,$6,$7,0*
20,1,$1+$1,$6,$7,$8,$9,0*
20,1,$1+$1,$8,$9,$2,$3,0*%
%AMFreePoly0*
4,1,7,0.150000,0.330000,0.150000,-0.365000,-0.150000,-0.365000,-0.150000,0.330000,-0.050000,0.370000,0.050000,0.370000,0.150000,0.330000,0.150000,0.330000,$1*%
%AMFreePoly1*
4,1,7,0.120000,-0.275000,0.050000,-0.315000,-0.050000,-0.315000,-0.120000,-0.275000,-0.120000,0.300000,0.120000,0.300000,0.120000,-0.275000,0.120000,-0.275000,$1*%
G04 Aperture macros list end*
%ADD10RoundRect,0.200000X-0.200000X-0.275000X0.200000X-0.275000X0.200000X0.275000X-0.200000X0.275000X0*%
%ADD11RoundRect,0.250000X-0.250000X-0.350000X0.250000X-0.350000X0.250000X0.350000X-0.250000X0.350000X0*%
%ADD12RoundRect,0.250000X0.350000X-0.250000X0.350000X0.250000X-0.350000X0.250000X-0.350000X-0.250000X0*%
%ADD13RoundRect,0.250000X0.250000X0.350000X-0.250000X0.350000X-0.250000X-0.350000X0.250000X-0.350000X0*%
%ADD14R,0.300000X0.730000*%
%ADD15RoundRect,0.250000X-0.350000X0.250000X-0.350000X-0.250000X0.350000X-0.250000X0.350000X0.250000X0*%
%ADD16FreePoly0,0.000000*%
%ADD17FreePoly1,0.000000*%
G04 APERTURE END LIST*
D10*
%TO.C,R3*%
X165480000Y-73400000D03*
X167130000Y-73400000D03*
%TD*%
D11*
%TO.C,SW11*%
X61300000Y-91840000D03*
X61300000Y-97160000D03*
X64700000Y-91840000D03*
X64700000Y-97160000D03*
%TD*%
%TO.C,SW2*%
X164600000Y-65340000D03*
X164600000Y-70660000D03*
X168000000Y-65340000D03*
X168000000Y-70660000D03*
%TD*%
D12*
%TO.C,SW5*%
X156340000Y-62300000D03*
X161660000Y-62300000D03*
X156340000Y-58900000D03*
X161660000Y-58900000D03*
%TD*%
D13*
%TO.C,SW10*%
X64700000Y-85310000D03*
X64700000Y-79990000D03*
X61300000Y-85310000D03*
X61300000Y-79990000D03*
%TD*%
%TO.C,SW6*%
X153680000Y-97220000D03*
X153680000Y-91900000D03*
X150280000Y-97220000D03*
X150280000Y-91900000D03*
%TD*%
D11*
%TO.C,SW8*%
X61300000Y-55840000D03*
X61300000Y-61160000D03*
X64700000Y-55840000D03*
X64700000Y-61160000D03*
%TD*%
D14*
%TO.C,J4*%
X69325786Y-40915000D03*
X68925786Y-40915000D03*
X68525786Y-40915000D03*
X68125786Y-40915000D03*
X67725786Y-40915000D03*
X67325786Y-40915000D03*
X66925786Y-40915000D03*
%TD*%
D12*
%TO.C,SW1*%
X156340000Y-69700000D03*
X161660000Y-69700000D03*
X156340000Y-66300000D03*
X161660000Y-66300000D03*
%TD*%
D15*
%TO.C,SW3*%
X161660000Y-73700000D03*
X156340000Y-73700000D03*
X161660000Y-77100000D03*
X156340000Y-77100000D03*
%TD*%
D13*
%TO.C,SW4*%
X153200000Y-70660000D03*
X153200000Y-65340000D03*
X149800000Y-70660000D03*
X149800000Y-65340000D03*
%TD*%
D10*
%TO.C,R1*%
X150670000Y-62790000D03*
X152320000Y-62790000D03*
%TD*%
D13*
%TO.C,SW7*%
X162770000Y-97220000D03*
X162770000Y-91900000D03*
X159370000Y-97220000D03*
X159370000Y-91900000D03*
%TD*%
D16*
%TO.C,J1*%
X113803183Y-134546817D03*
D17*
X114053183Y-133796817D03*
D16*
X114297301Y-134546817D03*
D17*
X114546933Y-133796817D03*
D16*
X114791418Y-134546817D03*
D17*
X115040683Y-133796817D03*
D16*
X115285536Y-134546817D03*
D17*
X115534433Y-133796817D03*
D16*
X115779654Y-134546817D03*
D17*
X116028183Y-133796817D03*
D16*
X116273771Y-134546817D03*
D17*
X116521933Y-133796817D03*
D16*
X116767889Y-134546817D03*
D17*
X117015683Y-133796817D03*
D16*
X117262007Y-134546817D03*
D17*
X117513183Y-133796817D03*
D16*
X117756124Y-134546817D03*
D17*
X118003183Y-133796817D03*
D16*
X118250242Y-134546817D03*
D17*
X118496933Y-133796817D03*
D16*
X118744359Y-134546817D03*
D17*
X118990683Y-133796817D03*
D16*
X119238477Y-134546817D03*
D17*
X119484433Y-133796817D03*
D16*
X119732595Y-134546817D03*
D17*
X119983183Y-133796817D03*
D16*
X120226712Y-134546817D03*
D17*
X120471933Y-133796817D03*
D16*
X120720830Y-134546817D03*
D17*
X120965683Y-133796817D03*
D16*
X121214948Y-134546817D03*
D17*
X121459433Y-133796817D03*
D16*
X121709065Y-134546817D03*
D17*
X121953183Y-133796817D03*
D16*
X122203183Y-134546817D03*
%TD*%
D11*
%TO.C,SW9*%
X61300000Y-67880000D03*
X61300000Y-73200000D03*
X64700000Y-67880000D03*
X64700000Y-73200000D03*
%TD*%
D10*
%TO.C,R2*%
X165460000Y-62580000D03*
X167110000Y-62580000D03*
%TD*%
M02*
