M48
; DRILL file {KiCad 9.0.3} date 2025-09-15T23:17:36+0300
; FORMAT={-:-/ absolute / metric / decimal}
; #@! TF.CreationDate,2025-09-15T23:17:36+03:00
; #@! TF.GenerationSoftware,Kicad,Pcbnew,9.0.3
; #@! TF.FileFunction,Plated,1,2,PTH
FMAT,2
METRIC
; #@! TA.AperFunction,Plated,PTH,ViaDrill
T1C0.300
%
G90
G05
T1
X75.0Y-99.02
X75.0Y-100.18
X83.74Y-60.72
X84.73Y-60.71
X85.75Y-60.71
X86.75Y-60.71
X87.75Y-60.71
X96.01Y-72.99
X97.01Y-73.0
X98.04Y-73.0
X99.07Y-72.99
X100.06Y-73.01
X114.48Y-78.8
X114.497Y-84.083
X114.5Y-81.49
X114.5Y-82.94
X115.65Y-78.84
X116.94Y-78.84
X117.71Y-69.4
X118.77Y-64.18
X119.85Y-69.42
X122.58Y-83.67
X122.98Y-78.9
X123.74Y-85.2
X123.77Y-86.17
X123.78Y-87.09
X124.33Y-78.88
M30
