%TF.GenerationSoftware,KiCad,Pcbnew,9.0.3*%
%TF.CreationDate,2025-09-09T23:23:58+03:00*%
%TF.ProjectId,Back,4261636b-2e6b-4696-9361-645f70636258,rev?*%
%TF.SameCoordinates,Original*%
%TF.FileFunction,Legend,Top*%
%TF.FilePolarity,Positive*%
%FSLAX46Y46*%
G04 Gerber Fmt 4.6, Leading zero omitted, Abs format (unit mm)*
G04 Created by KiCad (PCBNEW 9.0.3) date 2025-09-09 23:23:58*
%MOMM*%
%LPD*%
G01*
G04 APERTURE LIST*
G04 Aperture macros list*
%AMRoundRect*
0 Rectangle with rounded corners*
0 $1 Rounding radius*
0 $2 $3 $4 $5 $6 $7 $8 $9 X,Y pos of 4 corners*
0 Add a 4 corners polygon primitive as box body*
4,1,4,$2,$3,$4,$5,$6,$7,$8,$9,$2,$3,0*
0 Add four circle primitives for the rounded corners*
1,1,$1+$1,$2,$3*
1,1,$1+$1,$4,$5*
1,1,$1+$1,$6,$7*
1,1,$1+$1,$8,$9*
0 Add four rect primitives between the rounded corners*
20,1,$1+$1,$2,$3,$4,$5,0*
20,1,$1+$1,$4,$5,$6,$7,0*
20,1,$1+$1,$6,$7,$8,$9,0*
20,1,$1+$1,$8,$9,$2,$3,0*%
%AMFreePoly0*
4,1,7,0.150000,0.330000,0.150000,-0.365000,-0.150000,-0.365000,-0.150000,0.330000,-0.050000,0.370000,0.050000,0.370000,0.150000,0.330000,0.150000,0.330000,$1*%
%AMFreePoly1*
4,1,7,0.120000,-0.275000,0.050000,-0.315000,-0.050000,-0.315000,-0.120000,-0.275000,-0.120000,0.300000,0.120000,0.300000,0.120000,-0.275000,0.120000,-0.275000,$1*%
G04 Aperture macros list end*
%ADD10C,0.100000*%
%ADD11C,0.150000*%
%ADD12RoundRect,0.120000X-0.580000X0.480000X-0.580000X-0.480000X0.580000X-0.480000X0.580000X0.480000X0*%
%ADD13R,0.300000X0.730000*%
%ADD14RoundRect,0.150000X-0.150000X-0.250000X0.150000X-0.250000X0.150000X0.250000X-0.150000X0.250000X0*%
%ADD15RoundRect,0.250000X0.250000X-0.250000X0.250000X0.250000X-0.250000X0.250000X-0.250000X-0.250000X0*%
%ADD16RoundRect,0.250000X-0.250000X-0.250000X0.250000X-0.250000X0.250000X0.250000X-0.250000X0.250000X0*%
%ADD17RoundRect,0.250000X0.250000X0.250000X-0.250000X0.250000X-0.250000X-0.250000X0.250000X-0.250000X0*%
%ADD18RoundRect,0.250000X-0.250000X0.250000X-0.250000X-0.250000X0.250000X-0.250000X0.250000X0.250000X0*%
%ADD19FreePoly0,0.000000*%
%ADD20FreePoly1,0.000000*%
G04 APERTURE END LIST*
D10*
X114840951Y-53752419D02*
X114840951Y-54466704D01*
X114840951Y-54466704D02*
X114793332Y-54609561D01*
X114793332Y-54609561D02*
X114698094Y-54704800D01*
X114698094Y-54704800D02*
X114555237Y-54752419D01*
X114555237Y-54752419D02*
X114459999Y-54752419D01*
X115793332Y-54752419D02*
X115317142Y-54752419D01*
X115317142Y-54752419D02*
X115317142Y-53752419D01*
X116698094Y-54657180D02*
X116650475Y-54704800D01*
X116650475Y-54704800D02*
X116507618Y-54752419D01*
X116507618Y-54752419D02*
X116412380Y-54752419D01*
X116412380Y-54752419D02*
X116269523Y-54704800D01*
X116269523Y-54704800D02*
X116174285Y-54609561D01*
X116174285Y-54609561D02*
X116126666Y-54514323D01*
X116126666Y-54514323D02*
X116079047Y-54323847D01*
X116079047Y-54323847D02*
X116079047Y-54180990D01*
X116079047Y-54180990D02*
X116126666Y-53990514D01*
X116126666Y-53990514D02*
X116174285Y-53895276D01*
X116174285Y-53895276D02*
X116269523Y-53800038D01*
X116269523Y-53800038D02*
X116412380Y-53752419D01*
X116412380Y-53752419D02*
X116507618Y-53752419D01*
X116507618Y-53752419D02*
X116650475Y-53800038D01*
X116650475Y-53800038D02*
X116698094Y-53847657D01*
X117412380Y-53752419D02*
X117412380Y-54466704D01*
X117412380Y-54466704D02*
X117364761Y-54609561D01*
X117364761Y-54609561D02*
X117269523Y-54704800D01*
X117269523Y-54704800D02*
X117126666Y-54752419D01*
X117126666Y-54752419D02*
X117031428Y-54752419D01*
X118364761Y-54752419D02*
X117888571Y-54752419D01*
X117888571Y-54752419D02*
X117888571Y-53752419D01*
X119269523Y-54657180D02*
X119221904Y-54704800D01*
X119221904Y-54704800D02*
X119079047Y-54752419D01*
X119079047Y-54752419D02*
X118983809Y-54752419D01*
X118983809Y-54752419D02*
X118840952Y-54704800D01*
X118840952Y-54704800D02*
X118745714Y-54609561D01*
X118745714Y-54609561D02*
X118698095Y-54514323D01*
X118698095Y-54514323D02*
X118650476Y-54323847D01*
X118650476Y-54323847D02*
X118650476Y-54180990D01*
X118650476Y-54180990D02*
X118698095Y-53990514D01*
X118698095Y-53990514D02*
X118745714Y-53895276D01*
X118745714Y-53895276D02*
X118840952Y-53800038D01*
X118840952Y-53800038D02*
X118983809Y-53752419D01*
X118983809Y-53752419D02*
X119079047Y-53752419D01*
X119079047Y-53752419D02*
X119221904Y-53800038D01*
X119221904Y-53800038D02*
X119269523Y-53847657D01*
X119983809Y-53752419D02*
X119983809Y-54466704D01*
X119983809Y-54466704D02*
X119936190Y-54609561D01*
X119936190Y-54609561D02*
X119840952Y-54704800D01*
X119840952Y-54704800D02*
X119698095Y-54752419D01*
X119698095Y-54752419D02*
X119602857Y-54752419D01*
X120936190Y-54752419D02*
X120460000Y-54752419D01*
X120460000Y-54752419D02*
X120460000Y-53752419D01*
X121840952Y-54657180D02*
X121793333Y-54704800D01*
X121793333Y-54704800D02*
X121650476Y-54752419D01*
X121650476Y-54752419D02*
X121555238Y-54752419D01*
X121555238Y-54752419D02*
X121412381Y-54704800D01*
X121412381Y-54704800D02*
X121317143Y-54609561D01*
X121317143Y-54609561D02*
X121269524Y-54514323D01*
X121269524Y-54514323D02*
X121221905Y-54323847D01*
X121221905Y-54323847D02*
X121221905Y-54180990D01*
X121221905Y-54180990D02*
X121269524Y-53990514D01*
X121269524Y-53990514D02*
X121317143Y-53895276D01*
X121317143Y-53895276D02*
X121412381Y-53800038D01*
X121412381Y-53800038D02*
X121555238Y-53752419D01*
X121555238Y-53752419D02*
X121650476Y-53752419D01*
X121650476Y-53752419D02*
X121793333Y-53800038D01*
X121793333Y-53800038D02*
X121840952Y-53847657D01*
X122555238Y-53752419D02*
X122555238Y-54466704D01*
X122555238Y-54466704D02*
X122507619Y-54609561D01*
X122507619Y-54609561D02*
X122412381Y-54704800D01*
X122412381Y-54704800D02*
X122269524Y-54752419D01*
X122269524Y-54752419D02*
X122174286Y-54752419D01*
X123507619Y-54752419D02*
X123031429Y-54752419D01*
X123031429Y-54752419D02*
X123031429Y-53752419D01*
X124412381Y-54657180D02*
X124364762Y-54704800D01*
X124364762Y-54704800D02*
X124221905Y-54752419D01*
X124221905Y-54752419D02*
X124126667Y-54752419D01*
X124126667Y-54752419D02*
X123983810Y-54704800D01*
X123983810Y-54704800D02*
X123888572Y-54609561D01*
X123888572Y-54609561D02*
X123840953Y-54514323D01*
X123840953Y-54514323D02*
X123793334Y-54323847D01*
X123793334Y-54323847D02*
X123793334Y-54180990D01*
X123793334Y-54180990D02*
X123840953Y-53990514D01*
X123840953Y-53990514D02*
X123888572Y-53895276D01*
X123888572Y-53895276D02*
X123983810Y-53800038D01*
X123983810Y-53800038D02*
X124126667Y-53752419D01*
X124126667Y-53752419D02*
X124221905Y-53752419D01*
X124221905Y-53752419D02*
X124364762Y-53800038D01*
X124364762Y-53800038D02*
X124412381Y-53847657D01*
D11*
X216784700Y-64474523D02*
X216832319Y-64331666D01*
X216832319Y-64331666D02*
X216832319Y-64093571D01*
X216832319Y-64093571D02*
X216784700Y-63998333D01*
X216784700Y-63998333D02*
X216737080Y-63950714D01*
X216737080Y-63950714D02*
X216641842Y-63903095D01*
X216641842Y-63903095D02*
X216546604Y-63903095D01*
X216546604Y-63903095D02*
X216451366Y-63950714D01*
X216451366Y-63950714D02*
X216403747Y-63998333D01*
X216403747Y-63998333D02*
X216356128Y-64093571D01*
X216356128Y-64093571D02*
X216308509Y-64284047D01*
X216308509Y-64284047D02*
X216260890Y-64379285D01*
X216260890Y-64379285D02*
X216213271Y-64426904D01*
X216213271Y-64426904D02*
X216118033Y-64474523D01*
X216118033Y-64474523D02*
X216022795Y-64474523D01*
X216022795Y-64474523D02*
X215927557Y-64426904D01*
X215927557Y-64426904D02*
X215879938Y-64379285D01*
X215879938Y-64379285D02*
X215832319Y-64284047D01*
X215832319Y-64284047D02*
X215832319Y-64045952D01*
X215832319Y-64045952D02*
X215879938Y-63903095D01*
X215832319Y-63569761D02*
X216832319Y-63331666D01*
X216832319Y-63331666D02*
X216118033Y-63141190D01*
X216118033Y-63141190D02*
X216832319Y-62950714D01*
X216832319Y-62950714D02*
X215832319Y-62712619D01*
X216832319Y-61807857D02*
X216832319Y-62379285D01*
X216832319Y-62093571D02*
X215832319Y-62093571D01*
X215832319Y-62093571D02*
X215975176Y-62188809D01*
X215975176Y-62188809D02*
X216070414Y-62284047D01*
X216070414Y-62284047D02*
X216118033Y-62379285D01*
X215832319Y-61474523D02*
X215832319Y-60855476D01*
X215832319Y-60855476D02*
X216213271Y-61188809D01*
X216213271Y-61188809D02*
X216213271Y-61045952D01*
X216213271Y-61045952D02*
X216260890Y-60950714D01*
X216260890Y-60950714D02*
X216308509Y-60903095D01*
X216308509Y-60903095D02*
X216403747Y-60855476D01*
X216403747Y-60855476D02*
X216641842Y-60855476D01*
X216641842Y-60855476D02*
X216737080Y-60903095D01*
X216737080Y-60903095D02*
X216784700Y-60950714D01*
X216784700Y-60950714D02*
X216832319Y-61045952D01*
X216832319Y-61045952D02*
X216832319Y-61331666D01*
X216832319Y-61331666D02*
X216784700Y-61426904D01*
X216784700Y-61426904D02*
X216737080Y-61474523D01*
X212246666Y-120324819D02*
X212246666Y-121039104D01*
X212246666Y-121039104D02*
X212199047Y-121181961D01*
X212199047Y-121181961D02*
X212103809Y-121277200D01*
X212103809Y-121277200D02*
X211960952Y-121324819D01*
X211960952Y-121324819D02*
X211865714Y-121324819D01*
X212627619Y-120324819D02*
X213246666Y-120324819D01*
X213246666Y-120324819D02*
X212913333Y-120705771D01*
X212913333Y-120705771D02*
X213056190Y-120705771D01*
X213056190Y-120705771D02*
X213151428Y-120753390D01*
X213151428Y-120753390D02*
X213199047Y-120801009D01*
X213199047Y-120801009D02*
X213246666Y-120896247D01*
X213246666Y-120896247D02*
X213246666Y-121134342D01*
X213246666Y-121134342D02*
X213199047Y-121229580D01*
X213199047Y-121229580D02*
X213151428Y-121277200D01*
X213151428Y-121277200D02*
X213056190Y-121324819D01*
X213056190Y-121324819D02*
X212770476Y-121324819D01*
X212770476Y-121324819D02*
X212675238Y-121277200D01*
X212675238Y-121277200D02*
X212627619Y-121229580D01*
X166203333Y-61204819D02*
X165870000Y-60728628D01*
X165631905Y-61204819D02*
X165631905Y-60204819D01*
X165631905Y-60204819D02*
X166012857Y-60204819D01*
X166012857Y-60204819D02*
X166108095Y-60252438D01*
X166108095Y-60252438D02*
X166155714Y-60300057D01*
X166155714Y-60300057D02*
X166203333Y-60395295D01*
X166203333Y-60395295D02*
X166203333Y-60538152D01*
X166203333Y-60538152D02*
X166155714Y-60633390D01*
X166155714Y-60633390D02*
X166108095Y-60681009D01*
X166108095Y-60681009D02*
X166012857Y-60728628D01*
X166012857Y-60728628D02*
X165631905Y-60728628D01*
X166584286Y-60300057D02*
X166631905Y-60252438D01*
X166631905Y-60252438D02*
X166727143Y-60204819D01*
X166727143Y-60204819D02*
X166965238Y-60204819D01*
X166965238Y-60204819D02*
X167060476Y-60252438D01*
X167060476Y-60252438D02*
X167108095Y-60300057D01*
X167108095Y-60300057D02*
X167155714Y-60395295D01*
X167155714Y-60395295D02*
X167155714Y-60490533D01*
X167155714Y-60490533D02*
X167108095Y-60633390D01*
X167108095Y-60633390D02*
X166536667Y-61204819D01*
X166536667Y-61204819D02*
X167155714Y-61204819D01*
X158424819Y-56785713D02*
X159234342Y-56785713D01*
X159234342Y-56785713D02*
X159329580Y-56738094D01*
X159329580Y-56738094D02*
X159377200Y-56690475D01*
X159377200Y-56690475D02*
X159424819Y-56595237D01*
X159424819Y-56595237D02*
X159424819Y-56404761D01*
X159424819Y-56404761D02*
X159377200Y-56309523D01*
X159377200Y-56309523D02*
X159329580Y-56261904D01*
X159329580Y-56261904D02*
X159234342Y-56214285D01*
X159234342Y-56214285D02*
X158424819Y-56214285D01*
X159424819Y-55738094D02*
X158424819Y-55738094D01*
X158424819Y-55738094D02*
X158424819Y-55357142D01*
X158424819Y-55357142D02*
X158472438Y-55261904D01*
X158472438Y-55261904D02*
X158520057Y-55214285D01*
X158520057Y-55214285D02*
X158615295Y-55166666D01*
X158615295Y-55166666D02*
X158758152Y-55166666D01*
X158758152Y-55166666D02*
X158853390Y-55214285D01*
X158853390Y-55214285D02*
X158901009Y-55261904D01*
X158901009Y-55261904D02*
X158948628Y-55357142D01*
X158948628Y-55357142D02*
X158948628Y-55738094D01*
X93025238Y-51671009D02*
X93358571Y-51671009D01*
X93501428Y-52194819D02*
X93025238Y-52194819D01*
X93025238Y-52194819D02*
X93025238Y-51194819D01*
X93025238Y-51194819D02*
X93501428Y-51194819D01*
X93787143Y-51194819D02*
X94120476Y-52194819D01*
X94120476Y-52194819D02*
X94453809Y-51194819D01*
X95120476Y-51671009D02*
X94787143Y-51671009D01*
X94787143Y-52194819D02*
X94787143Y-51194819D01*
X94787143Y-51194819D02*
X95263333Y-51194819D01*
X95406191Y-52290057D02*
X96168095Y-52290057D01*
X96358572Y-52147200D02*
X96501429Y-52194819D01*
X96501429Y-52194819D02*
X96739524Y-52194819D01*
X96739524Y-52194819D02*
X96834762Y-52147200D01*
X96834762Y-52147200D02*
X96882381Y-52099580D01*
X96882381Y-52099580D02*
X96930000Y-52004342D01*
X96930000Y-52004342D02*
X96930000Y-51909104D01*
X96930000Y-51909104D02*
X96882381Y-51813866D01*
X96882381Y-51813866D02*
X96834762Y-51766247D01*
X96834762Y-51766247D02*
X96739524Y-51718628D01*
X96739524Y-51718628D02*
X96549048Y-51671009D01*
X96549048Y-51671009D02*
X96453810Y-51623390D01*
X96453810Y-51623390D02*
X96406191Y-51575771D01*
X96406191Y-51575771D02*
X96358572Y-51480533D01*
X96358572Y-51480533D02*
X96358572Y-51385295D01*
X96358572Y-51385295D02*
X96406191Y-51290057D01*
X96406191Y-51290057D02*
X96453810Y-51242438D01*
X96453810Y-51242438D02*
X96549048Y-51194819D01*
X96549048Y-51194819D02*
X96787143Y-51194819D01*
X96787143Y-51194819D02*
X96930000Y-51242438D01*
X97358572Y-51671009D02*
X97691905Y-51671009D01*
X97834762Y-52194819D02*
X97358572Y-52194819D01*
X97358572Y-52194819D02*
X97358572Y-51194819D01*
X97358572Y-51194819D02*
X97834762Y-51194819D01*
X98263334Y-52194819D02*
X98263334Y-51194819D01*
X98263334Y-51194819D02*
X98834762Y-52194819D01*
X98834762Y-52194819D02*
X98834762Y-51194819D01*
X99263334Y-52147200D02*
X99406191Y-52194819D01*
X99406191Y-52194819D02*
X99644286Y-52194819D01*
X99644286Y-52194819D02*
X99739524Y-52147200D01*
X99739524Y-52147200D02*
X99787143Y-52099580D01*
X99787143Y-52099580D02*
X99834762Y-52004342D01*
X99834762Y-52004342D02*
X99834762Y-51909104D01*
X99834762Y-51909104D02*
X99787143Y-51813866D01*
X99787143Y-51813866D02*
X99739524Y-51766247D01*
X99739524Y-51766247D02*
X99644286Y-51718628D01*
X99644286Y-51718628D02*
X99453810Y-51671009D01*
X99453810Y-51671009D02*
X99358572Y-51623390D01*
X99358572Y-51623390D02*
X99310953Y-51575771D01*
X99310953Y-51575771D02*
X99263334Y-51480533D01*
X99263334Y-51480533D02*
X99263334Y-51385295D01*
X99263334Y-51385295D02*
X99310953Y-51290057D01*
X99310953Y-51290057D02*
X99358572Y-51242438D01*
X99358572Y-51242438D02*
X99453810Y-51194819D01*
X99453810Y-51194819D02*
X99691905Y-51194819D01*
X99691905Y-51194819D02*
X99834762Y-51242438D01*
X100453810Y-51194819D02*
X100644286Y-51194819D01*
X100644286Y-51194819D02*
X100739524Y-51242438D01*
X100739524Y-51242438D02*
X100834762Y-51337676D01*
X100834762Y-51337676D02*
X100882381Y-51528152D01*
X100882381Y-51528152D02*
X100882381Y-51861485D01*
X100882381Y-51861485D02*
X100834762Y-52051961D01*
X100834762Y-52051961D02*
X100739524Y-52147200D01*
X100739524Y-52147200D02*
X100644286Y-52194819D01*
X100644286Y-52194819D02*
X100453810Y-52194819D01*
X100453810Y-52194819D02*
X100358572Y-52147200D01*
X100358572Y-52147200D02*
X100263334Y-52051961D01*
X100263334Y-52051961D02*
X100215715Y-51861485D01*
X100215715Y-51861485D02*
X100215715Y-51528152D01*
X100215715Y-51528152D02*
X100263334Y-51337676D01*
X100263334Y-51337676D02*
X100358572Y-51242438D01*
X100358572Y-51242438D02*
X100453810Y-51194819D01*
X101882381Y-52194819D02*
X101549048Y-51718628D01*
X101310953Y-52194819D02*
X101310953Y-51194819D01*
X101310953Y-51194819D02*
X101691905Y-51194819D01*
X101691905Y-51194819D02*
X101787143Y-51242438D01*
X101787143Y-51242438D02*
X101834762Y-51290057D01*
X101834762Y-51290057D02*
X101882381Y-51385295D01*
X101882381Y-51385295D02*
X101882381Y-51528152D01*
X101882381Y-51528152D02*
X101834762Y-51623390D01*
X101834762Y-51623390D02*
X101787143Y-51671009D01*
X101787143Y-51671009D02*
X101691905Y-51718628D01*
X101691905Y-51718628D02*
X101310953Y-51718628D01*
X166133333Y-75784819D02*
X165800000Y-75308628D01*
X165561905Y-75784819D02*
X165561905Y-74784819D01*
X165561905Y-74784819D02*
X165942857Y-74784819D01*
X165942857Y-74784819D02*
X166038095Y-74832438D01*
X166038095Y-74832438D02*
X166085714Y-74880057D01*
X166085714Y-74880057D02*
X166133333Y-74975295D01*
X166133333Y-74975295D02*
X166133333Y-75118152D01*
X166133333Y-75118152D02*
X166085714Y-75213390D01*
X166085714Y-75213390D02*
X166038095Y-75261009D01*
X166038095Y-75261009D02*
X165942857Y-75308628D01*
X165942857Y-75308628D02*
X165561905Y-75308628D01*
X166466667Y-74784819D02*
X167085714Y-74784819D01*
X167085714Y-74784819D02*
X166752381Y-75165771D01*
X166752381Y-75165771D02*
X166895238Y-75165771D01*
X166895238Y-75165771D02*
X166990476Y-75213390D01*
X166990476Y-75213390D02*
X167038095Y-75261009D01*
X167038095Y-75261009D02*
X167085714Y-75356247D01*
X167085714Y-75356247D02*
X167085714Y-75594342D01*
X167085714Y-75594342D02*
X167038095Y-75689580D01*
X167038095Y-75689580D02*
X166990476Y-75737200D01*
X166990476Y-75737200D02*
X166895238Y-75784819D01*
X166895238Y-75784819D02*
X166609524Y-75784819D01*
X166609524Y-75784819D02*
X166514286Y-75737200D01*
X166514286Y-75737200D02*
X166466667Y-75689580D01*
X61471190Y-100844819D02*
X61471190Y-99844819D01*
X61471190Y-99844819D02*
X61852142Y-99844819D01*
X61852142Y-99844819D02*
X61947380Y-99892438D01*
X61947380Y-99892438D02*
X61994999Y-99940057D01*
X61994999Y-99940057D02*
X62042618Y-100035295D01*
X62042618Y-100035295D02*
X62042618Y-100178152D01*
X62042618Y-100178152D02*
X61994999Y-100273390D01*
X61994999Y-100273390D02*
X61947380Y-100321009D01*
X61947380Y-100321009D02*
X61852142Y-100368628D01*
X61852142Y-100368628D02*
X61471190Y-100368628D01*
X62947380Y-100844819D02*
X62471190Y-100844819D01*
X62471190Y-100844819D02*
X62471190Y-99844819D01*
X63233095Y-100559104D02*
X63709285Y-100559104D01*
X63137857Y-100844819D02*
X63471190Y-99844819D01*
X63471190Y-99844819D02*
X63804523Y-100844819D01*
X64328333Y-100368628D02*
X64328333Y-100844819D01*
X63995000Y-99844819D02*
X64328333Y-100368628D01*
X64328333Y-100368628D02*
X64661666Y-99844819D01*
X169756666Y-68444819D02*
X169423333Y-67968628D01*
X169185238Y-68444819D02*
X169185238Y-67444819D01*
X169185238Y-67444819D02*
X169566190Y-67444819D01*
X169566190Y-67444819D02*
X169661428Y-67492438D01*
X169661428Y-67492438D02*
X169709047Y-67540057D01*
X169709047Y-67540057D02*
X169756666Y-67635295D01*
X169756666Y-67635295D02*
X169756666Y-67778152D01*
X169756666Y-67778152D02*
X169709047Y-67873390D01*
X169709047Y-67873390D02*
X169661428Y-67921009D01*
X169661428Y-67921009D02*
X169566190Y-67968628D01*
X169566190Y-67968628D02*
X169185238Y-67968628D01*
X170185238Y-68444819D02*
X170185238Y-67444819D01*
X171185237Y-67492438D02*
X171089999Y-67444819D01*
X171089999Y-67444819D02*
X170947142Y-67444819D01*
X170947142Y-67444819D02*
X170804285Y-67492438D01*
X170804285Y-67492438D02*
X170709047Y-67587676D01*
X170709047Y-67587676D02*
X170661428Y-67682914D01*
X170661428Y-67682914D02*
X170613809Y-67873390D01*
X170613809Y-67873390D02*
X170613809Y-68016247D01*
X170613809Y-68016247D02*
X170661428Y-68206723D01*
X170661428Y-68206723D02*
X170709047Y-68301961D01*
X170709047Y-68301961D02*
X170804285Y-68397200D01*
X170804285Y-68397200D02*
X170947142Y-68444819D01*
X170947142Y-68444819D02*
X171042380Y-68444819D01*
X171042380Y-68444819D02*
X171185237Y-68397200D01*
X171185237Y-68397200D02*
X171232856Y-68349580D01*
X171232856Y-68349580D02*
X171232856Y-68016247D01*
X171232856Y-68016247D02*
X171042380Y-68016247D01*
X171661428Y-68444819D02*
X171661428Y-67444819D01*
X171661428Y-67921009D02*
X172232856Y-67921009D01*
X172232856Y-68444819D02*
X172232856Y-67444819D01*
X172566190Y-67444819D02*
X173137618Y-67444819D01*
X172851904Y-68444819D02*
X172851904Y-67444819D01*
X61285953Y-87373866D02*
X62047858Y-87373866D01*
X62524048Y-87373866D02*
X63285953Y-87373866D01*
X62905000Y-87754819D02*
X62905000Y-86992914D01*
X63762143Y-87373866D02*
X64524048Y-87373866D01*
X148751904Y-99341009D02*
X148894761Y-99388628D01*
X148894761Y-99388628D02*
X148942380Y-99436247D01*
X148942380Y-99436247D02*
X148989999Y-99531485D01*
X148989999Y-99531485D02*
X148989999Y-99674342D01*
X148989999Y-99674342D02*
X148942380Y-99769580D01*
X148942380Y-99769580D02*
X148894761Y-99817200D01*
X148894761Y-99817200D02*
X148799523Y-99864819D01*
X148799523Y-99864819D02*
X148418571Y-99864819D01*
X148418571Y-99864819D02*
X148418571Y-98864819D01*
X148418571Y-98864819D02*
X148751904Y-98864819D01*
X148751904Y-98864819D02*
X148847142Y-98912438D01*
X148847142Y-98912438D02*
X148894761Y-98960057D01*
X148894761Y-98960057D02*
X148942380Y-99055295D01*
X148942380Y-99055295D02*
X148942380Y-99150533D01*
X148942380Y-99150533D02*
X148894761Y-99245771D01*
X148894761Y-99245771D02*
X148847142Y-99293390D01*
X148847142Y-99293390D02*
X148751904Y-99341009D01*
X148751904Y-99341009D02*
X148418571Y-99341009D01*
X149370952Y-99579104D02*
X149847142Y-99579104D01*
X149275714Y-99864819D02*
X149609047Y-98864819D01*
X149609047Y-98864819D02*
X149942380Y-99864819D01*
X150847142Y-99769580D02*
X150799523Y-99817200D01*
X150799523Y-99817200D02*
X150656666Y-99864819D01*
X150656666Y-99864819D02*
X150561428Y-99864819D01*
X150561428Y-99864819D02*
X150418571Y-99817200D01*
X150418571Y-99817200D02*
X150323333Y-99721961D01*
X150323333Y-99721961D02*
X150275714Y-99626723D01*
X150275714Y-99626723D02*
X150228095Y-99436247D01*
X150228095Y-99436247D02*
X150228095Y-99293390D01*
X150228095Y-99293390D02*
X150275714Y-99102914D01*
X150275714Y-99102914D02*
X150323333Y-99007676D01*
X150323333Y-99007676D02*
X150418571Y-98912438D01*
X150418571Y-98912438D02*
X150561428Y-98864819D01*
X150561428Y-98864819D02*
X150656666Y-98864819D01*
X150656666Y-98864819D02*
X150799523Y-98912438D01*
X150799523Y-98912438D02*
X150847142Y-98960057D01*
X151275714Y-99864819D02*
X151275714Y-98864819D01*
X151847142Y-99864819D02*
X151418571Y-99293390D01*
X151847142Y-98864819D02*
X151275714Y-99436247D01*
X152989999Y-98817200D02*
X152132857Y-100102914D01*
X153323333Y-99864819D02*
X153323333Y-98864819D01*
X153323333Y-98864819D02*
X153561428Y-98864819D01*
X153561428Y-98864819D02*
X153704285Y-98912438D01*
X153704285Y-98912438D02*
X153799523Y-99007676D01*
X153799523Y-99007676D02*
X153847142Y-99102914D01*
X153847142Y-99102914D02*
X153894761Y-99293390D01*
X153894761Y-99293390D02*
X153894761Y-99436247D01*
X153894761Y-99436247D02*
X153847142Y-99626723D01*
X153847142Y-99626723D02*
X153799523Y-99721961D01*
X153799523Y-99721961D02*
X153704285Y-99817200D01*
X153704285Y-99817200D02*
X153561428Y-99864819D01*
X153561428Y-99864819D02*
X153323333Y-99864819D01*
X154323333Y-99341009D02*
X154656666Y-99341009D01*
X154799523Y-99864819D02*
X154323333Y-99864819D01*
X154323333Y-99864819D02*
X154323333Y-98864819D01*
X154323333Y-98864819D02*
X154799523Y-98864819D01*
X155704285Y-99864819D02*
X155228095Y-99864819D01*
X155228095Y-99864819D02*
X155228095Y-98864819D01*
X61285714Y-63469104D02*
X61761904Y-63469104D01*
X61190476Y-63754819D02*
X61523809Y-62754819D01*
X61523809Y-62754819D02*
X61857142Y-63754819D01*
X62523809Y-63231009D02*
X62190476Y-63231009D01*
X62190476Y-63754819D02*
X62190476Y-62754819D01*
X62190476Y-62754819D02*
X62666666Y-62754819D01*
X63238095Y-62754819D02*
X63428571Y-62754819D01*
X63428571Y-62754819D02*
X63523809Y-62802438D01*
X63523809Y-62802438D02*
X63619047Y-62897676D01*
X63619047Y-62897676D02*
X63666666Y-63088152D01*
X63666666Y-63088152D02*
X63666666Y-63421485D01*
X63666666Y-63421485D02*
X63619047Y-63611961D01*
X63619047Y-63611961D02*
X63523809Y-63707200D01*
X63523809Y-63707200D02*
X63428571Y-63754819D01*
X63428571Y-63754819D02*
X63238095Y-63754819D01*
X63238095Y-63754819D02*
X63142857Y-63707200D01*
X63142857Y-63707200D02*
X63047619Y-63611961D01*
X63047619Y-63611961D02*
X63000000Y-63421485D01*
X63000000Y-63421485D02*
X63000000Y-63088152D01*
X63000000Y-63088152D02*
X63047619Y-62897676D01*
X63047619Y-62897676D02*
X63142857Y-62802438D01*
X63142857Y-62802438D02*
X63238095Y-62754819D01*
X64095238Y-63754819D02*
X64095238Y-62754819D01*
X64095238Y-62754819D02*
X64666666Y-63754819D01*
X64666666Y-63754819D02*
X64666666Y-62754819D01*
X159424819Y-81770951D02*
X158424819Y-81770951D01*
X158424819Y-81770951D02*
X158424819Y-81532856D01*
X158424819Y-81532856D02*
X158472438Y-81389999D01*
X158472438Y-81389999D02*
X158567676Y-81294761D01*
X158567676Y-81294761D02*
X158662914Y-81247142D01*
X158662914Y-81247142D02*
X158853390Y-81199523D01*
X158853390Y-81199523D02*
X158996247Y-81199523D01*
X158996247Y-81199523D02*
X159186723Y-81247142D01*
X159186723Y-81247142D02*
X159281961Y-81294761D01*
X159281961Y-81294761D02*
X159377200Y-81389999D01*
X159377200Y-81389999D02*
X159424819Y-81532856D01*
X159424819Y-81532856D02*
X159424819Y-81770951D01*
X158424819Y-80580475D02*
X158424819Y-80389999D01*
X158424819Y-80389999D02*
X158472438Y-80294761D01*
X158472438Y-80294761D02*
X158567676Y-80199523D01*
X158567676Y-80199523D02*
X158758152Y-80151904D01*
X158758152Y-80151904D02*
X159091485Y-80151904D01*
X159091485Y-80151904D02*
X159281961Y-80199523D01*
X159281961Y-80199523D02*
X159377200Y-80294761D01*
X159377200Y-80294761D02*
X159424819Y-80389999D01*
X159424819Y-80389999D02*
X159424819Y-80580475D01*
X159424819Y-80580475D02*
X159377200Y-80675713D01*
X159377200Y-80675713D02*
X159281961Y-80770951D01*
X159281961Y-80770951D02*
X159091485Y-80818570D01*
X159091485Y-80818570D02*
X158758152Y-80818570D01*
X158758152Y-80818570D02*
X158567676Y-80770951D01*
X158567676Y-80770951D02*
X158472438Y-80675713D01*
X158472438Y-80675713D02*
X158424819Y-80580475D01*
X158424819Y-79818570D02*
X159424819Y-79580475D01*
X159424819Y-79580475D02*
X158710533Y-79389999D01*
X158710533Y-79389999D02*
X159424819Y-79199523D01*
X159424819Y-79199523D02*
X158424819Y-78961428D01*
X159424819Y-78580475D02*
X158424819Y-78580475D01*
X158424819Y-78580475D02*
X159424819Y-78009047D01*
X159424819Y-78009047D02*
X158424819Y-78009047D01*
X145977618Y-68534819D02*
X145501428Y-68534819D01*
X145501428Y-68534819D02*
X145501428Y-67534819D01*
X146310952Y-68011009D02*
X146644285Y-68011009D01*
X146787142Y-68534819D02*
X146310952Y-68534819D01*
X146310952Y-68534819D02*
X146310952Y-67534819D01*
X146310952Y-67534819D02*
X146787142Y-67534819D01*
X147549047Y-68011009D02*
X147215714Y-68011009D01*
X147215714Y-68534819D02*
X147215714Y-67534819D01*
X147215714Y-67534819D02*
X147691904Y-67534819D01*
X147930000Y-67534819D02*
X148501428Y-67534819D01*
X148215714Y-68534819D02*
X148215714Y-67534819D01*
X151323333Y-61384819D02*
X150990000Y-60908628D01*
X150751905Y-61384819D02*
X150751905Y-60384819D01*
X150751905Y-60384819D02*
X151132857Y-60384819D01*
X151132857Y-60384819D02*
X151228095Y-60432438D01*
X151228095Y-60432438D02*
X151275714Y-60480057D01*
X151275714Y-60480057D02*
X151323333Y-60575295D01*
X151323333Y-60575295D02*
X151323333Y-60718152D01*
X151323333Y-60718152D02*
X151275714Y-60813390D01*
X151275714Y-60813390D02*
X151228095Y-60861009D01*
X151228095Y-60861009D02*
X151132857Y-60908628D01*
X151132857Y-60908628D02*
X150751905Y-60908628D01*
X152275714Y-61384819D02*
X151704286Y-61384819D01*
X151990000Y-61384819D02*
X151990000Y-60384819D01*
X151990000Y-60384819D02*
X151894762Y-60527676D01*
X151894762Y-60527676D02*
X151799524Y-60622914D01*
X151799524Y-60622914D02*
X151704286Y-60670533D01*
X161480952Y-99940057D02*
X161385714Y-99892438D01*
X161385714Y-99892438D02*
X161290476Y-99797200D01*
X161290476Y-99797200D02*
X161147619Y-99654342D01*
X161147619Y-99654342D02*
X161052381Y-99606723D01*
X161052381Y-99606723D02*
X160957143Y-99606723D01*
X161004762Y-99844819D02*
X160909524Y-99797200D01*
X160909524Y-99797200D02*
X160814286Y-99701961D01*
X160814286Y-99701961D02*
X160766667Y-99511485D01*
X160766667Y-99511485D02*
X160766667Y-99178152D01*
X160766667Y-99178152D02*
X160814286Y-98987676D01*
X160814286Y-98987676D02*
X160909524Y-98892438D01*
X160909524Y-98892438D02*
X161004762Y-98844819D01*
X161004762Y-98844819D02*
X161195238Y-98844819D01*
X161195238Y-98844819D02*
X161290476Y-98892438D01*
X161290476Y-98892438D02*
X161385714Y-98987676D01*
X161385714Y-98987676D02*
X161433333Y-99178152D01*
X161433333Y-99178152D02*
X161433333Y-99511485D01*
X161433333Y-99511485D02*
X161385714Y-99701961D01*
X161385714Y-99701961D02*
X161290476Y-99797200D01*
X161290476Y-99797200D02*
X161195238Y-99844819D01*
X161195238Y-99844819D02*
X161004762Y-99844819D01*
X115200952Y-128624819D02*
X115772380Y-128624819D01*
X115486666Y-129624819D02*
X115486666Y-128624819D01*
X116248571Y-129624819D02*
X116153333Y-129577200D01*
X116153333Y-129577200D02*
X116105714Y-129529580D01*
X116105714Y-129529580D02*
X116058095Y-129434342D01*
X116058095Y-129434342D02*
X116058095Y-129148628D01*
X116058095Y-129148628D02*
X116105714Y-129053390D01*
X116105714Y-129053390D02*
X116153333Y-129005771D01*
X116153333Y-129005771D02*
X116248571Y-128958152D01*
X116248571Y-128958152D02*
X116391428Y-128958152D01*
X116391428Y-128958152D02*
X116486666Y-129005771D01*
X116486666Y-129005771D02*
X116534285Y-129053390D01*
X116534285Y-129053390D02*
X116581904Y-129148628D01*
X116581904Y-129148628D02*
X116581904Y-129434342D01*
X116581904Y-129434342D02*
X116534285Y-129529580D01*
X116534285Y-129529580D02*
X116486666Y-129577200D01*
X116486666Y-129577200D02*
X116391428Y-129624819D01*
X116391428Y-129624819D02*
X116248571Y-129624819D01*
X117772381Y-129624819D02*
X117772381Y-128624819D01*
X117772381Y-128624819D02*
X118153333Y-128624819D01*
X118153333Y-128624819D02*
X118248571Y-128672438D01*
X118248571Y-128672438D02*
X118296190Y-128720057D01*
X118296190Y-128720057D02*
X118343809Y-128815295D01*
X118343809Y-128815295D02*
X118343809Y-128958152D01*
X118343809Y-128958152D02*
X118296190Y-129053390D01*
X118296190Y-129053390D02*
X118248571Y-129101009D01*
X118248571Y-129101009D02*
X118153333Y-129148628D01*
X118153333Y-129148628D02*
X117772381Y-129148628D01*
X119343809Y-129529580D02*
X119296190Y-129577200D01*
X119296190Y-129577200D02*
X119153333Y-129624819D01*
X119153333Y-129624819D02*
X119058095Y-129624819D01*
X119058095Y-129624819D02*
X118915238Y-129577200D01*
X118915238Y-129577200D02*
X118820000Y-129481961D01*
X118820000Y-129481961D02*
X118772381Y-129386723D01*
X118772381Y-129386723D02*
X118724762Y-129196247D01*
X118724762Y-129196247D02*
X118724762Y-129053390D01*
X118724762Y-129053390D02*
X118772381Y-128862914D01*
X118772381Y-128862914D02*
X118820000Y-128767676D01*
X118820000Y-128767676D02*
X118915238Y-128672438D01*
X118915238Y-128672438D02*
X119058095Y-128624819D01*
X119058095Y-128624819D02*
X119153333Y-128624819D01*
X119153333Y-128624819D02*
X119296190Y-128672438D01*
X119296190Y-128672438D02*
X119343809Y-128720057D01*
X120105714Y-129101009D02*
X120248571Y-129148628D01*
X120248571Y-129148628D02*
X120296190Y-129196247D01*
X120296190Y-129196247D02*
X120343809Y-129291485D01*
X120343809Y-129291485D02*
X120343809Y-129434342D01*
X120343809Y-129434342D02*
X120296190Y-129529580D01*
X120296190Y-129529580D02*
X120248571Y-129577200D01*
X120248571Y-129577200D02*
X120153333Y-129624819D01*
X120153333Y-129624819D02*
X119772381Y-129624819D01*
X119772381Y-129624819D02*
X119772381Y-128624819D01*
X119772381Y-128624819D02*
X120105714Y-128624819D01*
X120105714Y-128624819D02*
X120200952Y-128672438D01*
X120200952Y-128672438D02*
X120248571Y-128720057D01*
X120248571Y-128720057D02*
X120296190Y-128815295D01*
X120296190Y-128815295D02*
X120296190Y-128910533D01*
X120296190Y-128910533D02*
X120248571Y-129005771D01*
X120248571Y-129005771D02*
X120200952Y-129053390D01*
X120200952Y-129053390D02*
X120105714Y-129101009D01*
X120105714Y-129101009D02*
X119772381Y-129101009D01*
X61523810Y-75794819D02*
X61523810Y-74794819D01*
X61523810Y-74794819D02*
X61761905Y-74794819D01*
X61761905Y-74794819D02*
X61904762Y-74842438D01*
X61904762Y-74842438D02*
X62000000Y-74937676D01*
X62000000Y-74937676D02*
X62047619Y-75032914D01*
X62047619Y-75032914D02*
X62095238Y-75223390D01*
X62095238Y-75223390D02*
X62095238Y-75366247D01*
X62095238Y-75366247D02*
X62047619Y-75556723D01*
X62047619Y-75556723D02*
X62000000Y-75651961D01*
X62000000Y-75651961D02*
X61904762Y-75747200D01*
X61904762Y-75747200D02*
X61761905Y-75794819D01*
X61761905Y-75794819D02*
X61523810Y-75794819D01*
X62523810Y-75794819D02*
X62523810Y-74794819D01*
X62952381Y-75747200D02*
X63095238Y-75794819D01*
X63095238Y-75794819D02*
X63333333Y-75794819D01*
X63333333Y-75794819D02*
X63428571Y-75747200D01*
X63428571Y-75747200D02*
X63476190Y-75699580D01*
X63476190Y-75699580D02*
X63523809Y-75604342D01*
X63523809Y-75604342D02*
X63523809Y-75509104D01*
X63523809Y-75509104D02*
X63476190Y-75413866D01*
X63476190Y-75413866D02*
X63428571Y-75366247D01*
X63428571Y-75366247D02*
X63333333Y-75318628D01*
X63333333Y-75318628D02*
X63142857Y-75271009D01*
X63142857Y-75271009D02*
X63047619Y-75223390D01*
X63047619Y-75223390D02*
X63000000Y-75175771D01*
X63000000Y-75175771D02*
X62952381Y-75080533D01*
X62952381Y-75080533D02*
X62952381Y-74985295D01*
X62952381Y-74985295D02*
X63000000Y-74890057D01*
X63000000Y-74890057D02*
X63047619Y-74842438D01*
X63047619Y-74842438D02*
X63142857Y-74794819D01*
X63142857Y-74794819D02*
X63380952Y-74794819D01*
X63380952Y-74794819D02*
X63523809Y-74842438D01*
X63952381Y-75794819D02*
X63952381Y-74794819D01*
X63952381Y-74794819D02*
X64333333Y-74794819D01*
X64333333Y-74794819D02*
X64428571Y-74842438D01*
X64428571Y-74842438D02*
X64476190Y-74890057D01*
X64476190Y-74890057D02*
X64523809Y-74985295D01*
X64523809Y-74985295D02*
X64523809Y-75128152D01*
X64523809Y-75128152D02*
X64476190Y-75223390D01*
X64476190Y-75223390D02*
X64428571Y-75271009D01*
X64428571Y-75271009D02*
X64333333Y-75318628D01*
X64333333Y-75318628D02*
X63952381Y-75318628D01*
%LPC*%
D10*
%TO.C,J3*%
X213820000Y-126955000D02*
X211360000Y-126955000D01*
X211360000Y-125455000D01*
X213820000Y-125455000D01*
X213820000Y-126955000D01*
G36*
X213820000Y-126955000D02*
G01*
X211360000Y-126955000D01*
X211360000Y-125455000D01*
X213820000Y-125455000D01*
X213820000Y-126955000D01*
G37*
%TO.C,J4*%
X99050000Y-44500000D02*
X95810000Y-44500000D01*
X95810000Y-43120000D01*
X99050000Y-43120000D01*
X99050000Y-44500000D01*
G36*
X99050000Y-44500000D02*
G01*
X95810000Y-44500000D01*
X95810000Y-43120000D01*
X99050000Y-43120000D01*
X99050000Y-44500000D01*
G37*
%TO.C,J1*%
X122553183Y-135036817D02*
X113453183Y-135036817D01*
X113453183Y-133336817D01*
X122553183Y-133336817D01*
X122553183Y-135036817D01*
G36*
X122553183Y-135036817D02*
G01*
X113453183Y-135036817D01*
X113453183Y-133336817D01*
X122553183Y-133336817D01*
X122553183Y-135036817D01*
G37*
%TD*%
D12*
%TO.C,SW13*%
X210670000Y-65500000D03*
X213430000Y-65500000D03*
X210660000Y-59270000D03*
X213450000Y-59270000D03*
%TD*%
D13*
%TO.C,J3*%
X213390000Y-126420000D03*
X212990000Y-126420000D03*
X212590000Y-126420000D03*
X212190000Y-126420000D03*
X211790000Y-126420000D03*
%TD*%
D14*
%TO.C,R2*%
X165700000Y-62280000D03*
X166910000Y-62280000D03*
%TD*%
D15*
%TO.C,SW5*%
X156240000Y-62300000D03*
X161770000Y-62290000D03*
X156230000Y-58890000D03*
X161760000Y-58880000D03*
%TD*%
D13*
%TO.C,J4*%
X98630000Y-43660000D03*
X98230000Y-43660000D03*
X97830000Y-43660000D03*
X97430000Y-43660000D03*
X97030000Y-43660000D03*
X96630000Y-43660000D03*
X96230000Y-43660000D03*
%TD*%
D14*
%TO.C,R3*%
X165700000Y-73700000D03*
X166910000Y-73700000D03*
%TD*%
D16*
%TO.C,SW11*%
X61300000Y-91740000D03*
X61310000Y-97270000D03*
X64710000Y-91730000D03*
X64720000Y-97260000D03*
%TD*%
%TO.C,SW2*%
X164600000Y-65240000D03*
X164610000Y-70770000D03*
X168010000Y-65230000D03*
X168020000Y-70760000D03*
%TD*%
D17*
%TO.C,SW10*%
X64700000Y-85410000D03*
X64690000Y-79880000D03*
X61290000Y-85420000D03*
X61280000Y-79890000D03*
%TD*%
%TO.C,SW6*%
X153680000Y-97320000D03*
X153670000Y-91790000D03*
X150270000Y-97330000D03*
X150260000Y-91800000D03*
%TD*%
D16*
%TO.C,SW8*%
X61300000Y-55740000D03*
X61310000Y-61270000D03*
X64710000Y-55730000D03*
X64720000Y-61260000D03*
%TD*%
D15*
%TO.C,SW1*%
X156240000Y-69700000D03*
X161770000Y-69690000D03*
X156230000Y-66290000D03*
X161760000Y-66280000D03*
%TD*%
D18*
%TO.C,SW3*%
X161760000Y-73700000D03*
X156230000Y-73710000D03*
X161770000Y-77110000D03*
X156240000Y-77120000D03*
%TD*%
D17*
%TO.C,SW4*%
X153200000Y-70760000D03*
X153190000Y-65230000D03*
X149790000Y-70770000D03*
X149780000Y-65240000D03*
%TD*%
D14*
%TO.C,R1*%
X150890000Y-62360000D03*
X152100000Y-62360000D03*
%TD*%
D17*
%TO.C,SW7*%
X162770000Y-97320000D03*
X162760000Y-91790000D03*
X159360000Y-97330000D03*
X159350000Y-91800000D03*
%TD*%
D19*
%TO.C,J1*%
X113803183Y-134546817D03*
D20*
X114053183Y-133796817D03*
D19*
X114297301Y-134546817D03*
D20*
X114546933Y-133796817D03*
D19*
X114791418Y-134546817D03*
D20*
X115040683Y-133796817D03*
D19*
X115285536Y-134546817D03*
D20*
X115534433Y-133796817D03*
D19*
X115779654Y-134546817D03*
D20*
X116028183Y-133796817D03*
D19*
X116273771Y-134546817D03*
D20*
X116521933Y-133796817D03*
D19*
X116767889Y-134546817D03*
D20*
X117015683Y-133796817D03*
D19*
X117262007Y-134546817D03*
D20*
X117513183Y-133796817D03*
D19*
X117756124Y-134546817D03*
D20*
X118003183Y-133796817D03*
D19*
X118250242Y-134546817D03*
D20*
X118496933Y-133796817D03*
D19*
X118744359Y-134546817D03*
D20*
X118990683Y-133796817D03*
D19*
X119238477Y-134546817D03*
D20*
X119484433Y-133796817D03*
D19*
X119732595Y-134546817D03*
D20*
X119983183Y-133796817D03*
D19*
X120226712Y-134546817D03*
D20*
X120471933Y-133796817D03*
D19*
X120720830Y-134546817D03*
D20*
X120965683Y-133796817D03*
D19*
X121214948Y-134546817D03*
D20*
X121459433Y-133796817D03*
D19*
X121709065Y-134546817D03*
D20*
X121953183Y-133796817D03*
D19*
X122203183Y-134546817D03*
%TD*%
D16*
%TO.C,SW9*%
X61300000Y-67780000D03*
X61310000Y-73310000D03*
X64710000Y-67770000D03*
X64720000Y-73300000D03*
%TD*%
%LPD*%
M02*
