%TF.GenerationSoftware,KiCad,Pcbnew,9.0.3*%
%TF.CreationDate,2025-09-09T23:23:58+03:00*%
%TF.ProjectId,Back,4261636b-2e6b-4696-9361-645f70636258,rev?*%
%TF.SameCoordinates,Original*%
%TF.FileFunction,Copper,L1,Top*%
%TF.FilePolarity,Positive*%
%FSLAX46Y46*%
G04 Gerber Fmt 4.6, Leading zero omitted, Abs format (unit mm)*
G04 Created by KiCad (PCBNEW 9.0.3) date 2025-09-09 23:23:58*
%MOMM*%
%LPD*%
G01*
G04 APERTURE LIST*
G04 Aperture macros list*
%AMRoundRect*
0 Rectangle with rounded corners*
0 $1 Rounding radius*
0 $2 $3 $4 $5 $6 $7 $8 $9 X,Y pos of 4 corners*
0 Add a 4 corners polygon primitive as box body*
4,1,4,$2,$3,$4,$5,$6,$7,$8,$9,$2,$3,0*
0 Add four circle primitives for the rounded corners*
1,1,$1+$1,$2,$3*
1,1,$1+$1,$4,$5*
1,1,$1+$1,$6,$7*
1,1,$1+$1,$8,$9*
0 Add four rect primitives between the rounded corners*
20,1,$1+$1,$2,$3,$4,$5,0*
20,1,$1+$1,$4,$5,$6,$7,0*
20,1,$1+$1,$6,$7,$8,$9,0*
20,1,$1+$1,$8,$9,$2,$3,0*%
%AMFreePoly0*
4,1,7,0.150000,0.330000,0.150000,-0.365000,-0.150000,-0.365000,-0.150000,0.330000,-0.050000,0.370000,0.050000,0.370000,0.150000,0.330000,0.150000,0.330000,$1*%
%AMFreePoly1*
4,1,7,0.120000,-0.275000,0.050000,-0.315000,-0.050000,-0.315000,-0.120000,-0.275000,-0.120000,0.300000,0.120000,0.300000,0.120000,-0.275000,0.120000,-0.275000,$1*%
G04 Aperture macros list end*
%TA.AperFunction,SMDPad,CuDef*%
%ADD10R,2.000000X2.000000*%
%TD*%
%TA.AperFunction,SMDPad,CuDef*%
%ADD11R,0.300000X0.730000*%
%TD*%
%TA.AperFunction,SMDPad,CuDef*%
%ADD12RoundRect,0.200000X-0.200000X-0.300000X0.200000X-0.300000X0.200000X0.300000X-0.200000X0.300000X0*%
%TD*%
%TA.AperFunction,SMDPad,CuDef*%
%ADD13FreePoly0,0.000000*%
%TD*%
%TA.AperFunction,SMDPad,CuDef*%
%ADD14FreePoly1,0.000000*%
%TD*%
%TA.AperFunction,ViaPad*%
%ADD15C,0.600000*%
%TD*%
%TA.AperFunction,Conductor*%
%ADD16C,0.100000*%
%TD*%
%TA.AperFunction,Conductor*%
%ADD17C,0.076000*%
%TD*%
%TA.AperFunction,Conductor*%
%ADD18C,0.200000*%
%TD*%
G04 APERTURE END LIST*
D10*
%TO.P,SW13,3,A*%
%TO.N,Net-(J3-Pin_3)*%
X210670000Y-65500000D03*
%TO.P,SW13,2,C*%
%TO.N,Net-(J3-Pin_2)*%
X210660000Y-59270000D03*
%TO.P,SW13,1,B*%
%TO.N,Net-(J3-Pin_1)*%
X213430000Y-65500000D03*
X213450000Y-59270000D03*
%TD*%
D11*
%TO.P,J3,5,Pin_5*%
%TO.N,Net-(J3-Pin_5)*%
X213390000Y-126420000D03*
%TO.P,J3,4,Pin_4*%
%TO.N,Net-(J3-Pin_4)*%
X212990000Y-126420000D03*
%TO.P,J3,3,Pin_3*%
%TO.N,Net-(J3-Pin_3)*%
X212590000Y-126420000D03*
%TO.P,J3,2,Pin_2*%
%TO.N,Net-(J3-Pin_2)*%
X212190000Y-126420000D03*
%TO.P,J3,1,Pin_1*%
%TO.N,Net-(J3-Pin_1)*%
X211790000Y-126420000D03*
%TD*%
D12*
%TO.P,R2,1*%
%TO.N,Net-(SW5A-D)*%
X165700000Y-62280000D03*
%TO.P,R2,2*%
%TO.N,Net-(SW2A-D)*%
X166900000Y-62280000D03*
%TD*%
D10*
%TO.P,SW5,1,C*%
%TO.N,Net-(J1-Pin_28)*%
X156240000Y-62300000D03*
X161760000Y-62300000D03*
%TO.P,SW5,2,D*%
%TO.N,Net-(SW5A-D)*%
X156240000Y-58900000D03*
X161760000Y-58900000D03*
%TD*%
D11*
%TO.P,J4,1,Pin_1*%
%TO.N,Net-(J1-Pin_11)*%
X98630000Y-43660000D03*
%TO.P,J4,2,Pin_2*%
%TO.N,Net-(J1-Pin_10)*%
X98230000Y-43660000D03*
%TO.P,J4,3,Pin_3*%
%TO.N,Net-(J1-Pin_9)*%
X97830000Y-43660000D03*
%TO.P,J4,4,Pin_4*%
%TO.N,Net-(J1-Pin_7)*%
X97430000Y-43660000D03*
%TO.P,J4,5,Pin_5*%
%TO.N,Net-(J1-Pin_5)*%
X97030000Y-43660000D03*
%TO.P,J4,6*%
%TO.N,N/C*%
X96630000Y-43660000D03*
%TO.P,J4,7*%
X96230000Y-43660000D03*
%TD*%
D12*
%TO.P,R3,1*%
%TO.N,Net-(SW3A-D)*%
X165700000Y-73700000D03*
%TO.P,R3,2*%
%TO.N,Net-(SW2A-D)*%
X166900000Y-73700000D03*
%TD*%
D10*
%TO.P,SW11,1,C*%
%TO.N,Net-(J5-Pin_2)*%
X61300000Y-91740000D03*
X61300000Y-97260000D03*
%TO.P,SW11,2,D*%
%TO.N,Net-(J5-Pin_1)*%
X64700000Y-91740000D03*
X64700000Y-97260000D03*
%TD*%
%TO.P,SW2,1,C*%
%TO.N,Net-(J1-Pin_28)*%
X164600000Y-65240000D03*
X164600000Y-70760000D03*
%TO.P,SW2,2,D*%
%TO.N,Net-(SW2A-D)*%
X168000000Y-65240000D03*
X168000000Y-70760000D03*
%TD*%
%TO.P,SW10,1,C*%
%TO.N,Net-(J1-Pin_12)*%
X64700000Y-85410000D03*
X64700000Y-79890000D03*
%TO.P,SW10,2,D*%
%TO.N,Net-(J1-Pin_14)*%
X61300000Y-85410000D03*
X61300000Y-79890000D03*
%TD*%
%TO.P,SW6,1,C*%
%TO.N,Net-(J1-Pin_30)*%
X153680000Y-97320000D03*
X153680000Y-91800000D03*
%TO.P,SW6,2,D*%
%TO.N,Net-(J1-Pin_31)*%
X150280000Y-97320000D03*
X150280000Y-91800000D03*
%TD*%
%TO.P,SW8,1,C*%
%TO.N,Net-(J1-Pin_28)*%
X61300000Y-55740000D03*
X61300000Y-61260000D03*
%TO.P,SW8,2,D*%
%TO.N,Net-(J1-Pin_24)*%
X64700000Y-55740000D03*
X64700000Y-61260000D03*
%TD*%
%TO.P,SW1,1,C*%
%TO.N,Net-(J1-Pin_28)*%
X156240000Y-69700000D03*
X161760000Y-69700000D03*
%TO.P,SW1,2,D*%
%TO.N,Net-(J1-Pin_29)*%
X156240000Y-66300000D03*
X161760000Y-66300000D03*
%TD*%
%TO.P,SW3,1,C*%
%TO.N,Net-(J1-Pin_28)*%
X161760000Y-73700000D03*
X156240000Y-73700000D03*
%TO.P,SW3,2,D*%
%TO.N,Net-(SW3A-D)*%
X161760000Y-77100000D03*
X156240000Y-77100000D03*
%TD*%
%TO.P,SW4,1,C*%
%TO.N,Net-(J1-Pin_28)*%
X153200000Y-70760000D03*
X153200000Y-65240000D03*
%TO.P,SW4,2,D*%
%TO.N,Net-(J1-Pin_27)*%
X149800000Y-70760000D03*
X149800000Y-65240000D03*
%TD*%
D12*
%TO.P,R1,1*%
%TO.N,Net-(J1-Pin_27)*%
X150890000Y-62360000D03*
%TO.P,R1,2*%
%TO.N,Net-(SW5A-D)*%
X152090000Y-62360000D03*
%TD*%
D10*
%TO.P,SW7,1,C*%
%TO.N,Net-(J1-Pin_16)*%
X162770000Y-97320000D03*
X162770000Y-91800000D03*
%TO.P,SW7,2,D*%
%TO.N,Net-(J1-Pin_17)*%
X159370000Y-97320000D03*
X159370000Y-91800000D03*
%TD*%
D13*
%TO.P,J1,1,Pin_1*%
%TO.N,Net-(J1-Pin_1)*%
X113803183Y-134546817D03*
D14*
%TO.P,J1,2,Pin_2*%
X114053183Y-133796817D03*
D13*
%TO.P,J1,3,Pin_3*%
%TO.N,Net-(J1-Pin_3)*%
X114297301Y-134546817D03*
D14*
%TO.P,J1,4,Pin_4*%
X114546933Y-133796817D03*
D13*
%TO.P,J1,5,Pin_5*%
%TO.N,Net-(J1-Pin_5)*%
X114791418Y-134546817D03*
D14*
%TO.P,J1,6,Pin_6*%
X115040683Y-133796817D03*
D13*
%TO.P,J1,7,Pin_7*%
%TO.N,Net-(J1-Pin_7)*%
X115285536Y-134546817D03*
D14*
%TO.P,J1,8,Pin_8*%
X115534433Y-133796817D03*
D13*
%TO.P,J1,9,Pin_9*%
%TO.N,Net-(J1-Pin_9)*%
X115779654Y-134546817D03*
D14*
%TO.P,J1,10,Pin_10*%
%TO.N,Net-(J1-Pin_10)*%
X116028183Y-133796817D03*
D13*
%TO.P,J1,11,Pin_11*%
%TO.N,Net-(J1-Pin_11)*%
X116273771Y-134546817D03*
D14*
%TO.P,J1,12,Pin_12*%
%TO.N,Net-(J1-Pin_12)*%
X116521933Y-133796817D03*
D13*
%TO.P,J1,13,Pin_13*%
%TO.N,Net-(J1-Pin_13)*%
X116767889Y-134546817D03*
D14*
%TO.P,J1,14,Pin_14*%
%TO.N,Net-(J1-Pin_14)*%
X117015683Y-133796817D03*
D13*
%TO.P,J1,15,Pin_15*%
%TO.N,Net-(J1-Pin_15)*%
X117262007Y-134546817D03*
D14*
%TO.P,J1,16,Pin_16*%
%TO.N,Net-(J1-Pin_16)*%
X117513183Y-133796817D03*
D13*
%TO.P,J1,17,Pin_17*%
%TO.N,Net-(J1-Pin_17)*%
X117756124Y-134546817D03*
D14*
%TO.P,J1,18,Pin_18*%
%TO.N,unconnected-(J1-Pin_18-Pad18)*%
X118003183Y-133796817D03*
D13*
%TO.P,J1,19,Pin_19*%
%TO.N,unconnected-(J1-Pin_19-Pad19)*%
X118250242Y-134546817D03*
D14*
%TO.P,J1,20,Pin_20*%
%TO.N,unconnected-(J1-Pin_20-Pad20)*%
X118496933Y-133796817D03*
D13*
%TO.P,J1,21,Pin_21*%
%TO.N,unconnected-(J1-Pin_21-Pad21)*%
X118744359Y-134546817D03*
D14*
%TO.P,J1,22,Pin_22*%
%TO.N,unconnected-(J1-Pin_22-Pad22)*%
X118990683Y-133796817D03*
D13*
%TO.P,J1,23,Pin_23*%
%TO.N,unconnected-(J1-Pin_23-Pad23)*%
X119238477Y-134546817D03*
D14*
%TO.P,J1,24,Pin_24*%
%TO.N,Net-(J1-Pin_24)*%
X119484433Y-133796817D03*
D13*
%TO.P,J1,25,Pin_25*%
%TO.N,Net-(J1-Pin_25)*%
X119732595Y-134546817D03*
D14*
%TO.P,J1,26,Pin_26*%
%TO.N,Net-(J1-Pin_26)*%
X119983183Y-133796817D03*
D13*
%TO.P,J1,27,Pin_27*%
%TO.N,Net-(J1-Pin_27)*%
X120226712Y-134546817D03*
D14*
%TO.P,J1,28,Pin_28*%
%TO.N,Net-(J1-Pin_28)*%
X120471933Y-133796817D03*
D13*
%TO.P,J1,29,Pin_29*%
%TO.N,Net-(J1-Pin_29)*%
X120720830Y-134546817D03*
D14*
%TO.P,J1,30,Pin_30*%
%TO.N,Net-(J1-Pin_30)*%
X120965683Y-133796817D03*
D13*
%TO.P,J1,31,Pin_31*%
%TO.N,Net-(J1-Pin_31)*%
X121214948Y-134546817D03*
D14*
%TO.P,J1,32,Pin_32*%
%TO.N,Net-(J1-Pin_32)*%
X121459433Y-133796817D03*
D13*
%TO.P,J1,33,Pin_33*%
%TO.N,Net-(J1-Pin_33)*%
X121709065Y-134546817D03*
D14*
%TO.P,J1,34,Pin_34*%
%TO.N,Net-(J1-Pin_34)*%
X121953183Y-133796817D03*
D13*
%TO.P,J1,35,Pin_35*%
X122203183Y-134546817D03*
%TD*%
D10*
%TO.P,SW9,1,C*%
%TO.N,Net-(J1-Pin_28)*%
X61300000Y-67780000D03*
X61300000Y-73300000D03*
%TO.P,SW9,2,D*%
%TO.N,Net-(J1-Pin_30)*%
X64700000Y-67780000D03*
X64700000Y-73300000D03*
%TD*%
D15*
%TO.N,Net-(J3-Pin_5)*%
X213580000Y-79030000D03*
%TO.N,Net-(J3-Pin_4)*%
X213600000Y-77450000D03*
%TO.N,Net-(J1-Pin_28)*%
X118770000Y-64180000D03*
%TO.N,Net-(J1-Pin_26)*%
X119850000Y-69420000D03*
%TO.N,Net-(J1-Pin_25)*%
X117710000Y-69400000D03*
%TO.N,Net-(J1-Pin_30)*%
X122580000Y-83670000D03*
X114480000Y-78800000D03*
%TO.N,Net-(J1-Pin_17)*%
X116940000Y-78840000D03*
X122980000Y-78900000D03*
%TO.N,Net-(J1-Pin_16)*%
X124330000Y-78880000D03*
X115650000Y-78840000D03*
%TO.N,Net-(J1-Pin_14)*%
X114500000Y-82940000D03*
%TO.N,Net-(J5-Pin_1)*%
X75000000Y-99020000D03*
%TO.N,Net-(J5-Pin_2)*%
X75000000Y-100180000D03*
%TO.N,Net-(J1-Pin_32)*%
X123770000Y-86170000D03*
%TO.N,Net-(J1-Pin_33)*%
X123780000Y-87090000D03*
%TO.N,Net-(J1-Pin_34)*%
X123740000Y-85200000D03*
%TO.N,Net-(J1-Pin_13)*%
X114497128Y-84082872D03*
%TO.N,Net-(J1-Pin_15)*%
X114500000Y-81490000D03*
%TO.N,Net-(J1-Pin_9)*%
X97000000Y-73000000D03*
X97000000Y-62000000D03*
%TO.N,Net-(J1-Pin_5)*%
X95000000Y-73000000D03*
X95000000Y-62000000D03*
%TO.N,Net-(J1-Pin_7)*%
X96000000Y-73000000D03*
X96000000Y-62000000D03*
%TO.N,Net-(J1-Pin_10)*%
X98000000Y-73000000D03*
X98000000Y-62000000D03*
%TO.N,Net-(J1-Pin_11)*%
X99000000Y-73000000D03*
X99000000Y-62000000D03*
%TD*%
D16*
%TO.N,Net-(J1-Pin_15)*%
X117262007Y-134546817D02*
X117262007Y-132812007D01*
X117140000Y-132690000D02*
X117140000Y-130860000D01*
X117262007Y-132812007D02*
X117140000Y-132690000D01*
X117080000Y-130800000D02*
X117080000Y-84070000D01*
X117140000Y-130860000D02*
X117080000Y-130800000D01*
X117080000Y-84070000D02*
X114500000Y-81490000D01*
%TO.N,Net-(J1-Pin_14)*%
X116930000Y-131170000D02*
X116950000Y-131190000D01*
X117015683Y-132985683D02*
X117015683Y-133796817D01*
X116950000Y-131190000D02*
X116950000Y-132920000D01*
X116950000Y-132920000D02*
X117015683Y-132985683D01*
%TO.N,Net-(J1-Pin_13)*%
X116767889Y-134546817D02*
X116767889Y-131460761D01*
X116390000Y-85980000D02*
X114497128Y-84087128D01*
X116767889Y-131460761D02*
X116390000Y-131082872D01*
X116390000Y-131082872D02*
X116390000Y-85980000D01*
X114497128Y-84087128D02*
X114497128Y-84082872D01*
D17*
%TO.N,Net-(J1-Pin_14)*%
X116870000Y-131110000D02*
X116930000Y-131170000D01*
D18*
%TO.N,Net-(J1-Pin_34)*%
X123740000Y-85200000D02*
X124630000Y-86090000D01*
X122260000Y-133070000D02*
X121953183Y-133376817D01*
X124630000Y-86090000D02*
X124630000Y-87350000D01*
X124630000Y-87350000D02*
X122260000Y-89720000D01*
X122260000Y-89720000D02*
X122260000Y-133070000D01*
X121953183Y-133376817D02*
X121953183Y-133796817D01*
%TO.N,Net-(J1-Pin_32)*%
X123770000Y-86170000D02*
X121453183Y-88486817D01*
X121453183Y-88486817D02*
X121453183Y-133796817D01*
%TO.N,Net-(J1-Pin_33)*%
X121853183Y-102095817D02*
X121859000Y-102101634D01*
X123780000Y-87090000D02*
X121853183Y-89016817D01*
X121853183Y-89016817D02*
X121853183Y-102095817D01*
X121859000Y-102101634D02*
X121859000Y-132802000D01*
D16*
%TO.N,Net-(J3-Pin_3)*%
X212560000Y-126438000D02*
X212562000Y-126440000D01*
%TO.N,Net-(J3-Pin_2)*%
X212174000Y-72194000D02*
X212174000Y-126440000D01*
X210670000Y-65500000D02*
X210670000Y-70690000D01*
%TO.N,Net-(J3-Pin_3)*%
X212080000Y-60640000D02*
X212080000Y-71630000D01*
%TO.N,Net-(J3-Pin_2)*%
X209070000Y-69550000D02*
X211790000Y-72270000D01*
%TO.N,Net-(J3-Pin_3)*%
X212560000Y-72110000D02*
X212560000Y-126438000D01*
%TO.N,Net-(J3-Pin_2)*%
X209070000Y-60860000D02*
X209070000Y-69550000D01*
X210670000Y-70690000D02*
X212174000Y-72194000D01*
X211790000Y-126435000D02*
X211785000Y-126440000D01*
X210660000Y-59270000D02*
X209070000Y-60860000D01*
X211790000Y-123632948D02*
X211790000Y-126435000D01*
%TO.N,Net-(J3-Pin_3)*%
X213450000Y-59270000D02*
X212080000Y-60640000D01*
X212080000Y-71630000D02*
X212560000Y-72110000D01*
%TO.N,Net-(J3-Pin_2)*%
X211790000Y-72270000D02*
X211790000Y-123946454D01*
%TO.N,Net-(J3-Pin_4)*%
X212990000Y-78070000D02*
X212990000Y-126420000D01*
%TO.N,Net-(J3-Pin_5)*%
X213580000Y-79030000D02*
X213390000Y-79220000D01*
%TO.N,Net-(J3-Pin_4)*%
X213600000Y-77460000D02*
X212990000Y-78070000D01*
X213600000Y-77450000D02*
X213600000Y-77460000D01*
%TO.N,Net-(J3-Pin_5)*%
X213390000Y-79220000D02*
X213390000Y-126420000D01*
D18*
%TO.N,Net-(J1-Pin_25)*%
X117775000Y-69440000D02*
X118602247Y-70267247D01*
X117710000Y-69400000D02*
X117750000Y-69440000D01*
X118602247Y-131995881D02*
X119598183Y-132991817D01*
X117750000Y-69440000D02*
X117775000Y-69440000D01*
X118602247Y-70267247D02*
X118602247Y-131995881D01*
%TO.N,Net-(J1-Pin_26)*%
X119023183Y-131816817D02*
X119023183Y-70256817D01*
X119983183Y-132776817D02*
X119023183Y-131816817D01*
X119983183Y-133796817D02*
X119983183Y-132776817D01*
X119023183Y-70256817D02*
X119843183Y-69436817D01*
X119843183Y-69436817D02*
X119860000Y-69436817D01*
X119860000Y-69436817D02*
X119860000Y-69430000D01*
X119860000Y-69430000D02*
X119850000Y-69420000D01*
%TO.N,Net-(J1-Pin_31)*%
X150280000Y-91800000D02*
X150280000Y-97320000D01*
%TO.N,Net-(J1-Pin_30)*%
X153680000Y-91800000D02*
X153680000Y-97320000D01*
%TO.N,Net-(J1-Pin_17)*%
X159370000Y-91800000D02*
X159370000Y-97320000D01*
%TO.N,Net-(J1-Pin_16)*%
X162770000Y-91800000D02*
X162770000Y-97320000D01*
%TO.N,Net-(J1-Pin_28)*%
X68470000Y-64180000D02*
X118770000Y-64180000D01*
X153970000Y-57270000D02*
X148265000Y-62975000D01*
X147060000Y-64180000D02*
X148265000Y-62975000D01*
X61300000Y-58460000D02*
X61320000Y-58480000D01*
X66840000Y-62550000D02*
X68470000Y-64180000D01*
X61320000Y-58480000D02*
X65810000Y-58480000D01*
X66840000Y-59510000D02*
X66840000Y-62550000D01*
X65810000Y-58480000D02*
X66840000Y-59510000D01*
X118770000Y-64180000D02*
X147060000Y-64180000D01*
X156240000Y-73700000D02*
X154340000Y-75600000D01*
X154340000Y-75600000D02*
X154340000Y-78270000D01*
X154940000Y-78870000D02*
X164000000Y-78870000D01*
X164000000Y-78870000D02*
X169800000Y-73070000D01*
X154340000Y-78270000D02*
X154940000Y-78870000D01*
X169800000Y-73070000D02*
X169800000Y-63040000D01*
X169800000Y-63040000D02*
X164030000Y-57270000D01*
X164030000Y-57270000D02*
X153970000Y-57270000D01*
X161760000Y-73700000D02*
X161760000Y-73600000D01*
X161760000Y-73600000D02*
X164600000Y-70760000D01*
X156240000Y-73700000D02*
X156240000Y-69700000D01*
%TO.N,Net-(SW3A-D)*%
X161760000Y-77100000D02*
X161770000Y-77100000D01*
X161770000Y-77100000D02*
X165170000Y-73700000D01*
X165170000Y-73700000D02*
X165700000Y-73700000D01*
%TO.N,Net-(J1-Pin_28)*%
X161760000Y-73700000D02*
X161760000Y-69700000D01*
%TO.N,Net-(SW5A-D)*%
X156240000Y-58900000D02*
X152780000Y-62360000D01*
X152780000Y-62360000D02*
X152090000Y-62360000D01*
%TO.N,Net-(J1-Pin_27)*%
X149800000Y-62830000D02*
X150270000Y-62360000D01*
X149800000Y-65240000D02*
X149800000Y-62830000D01*
X150270000Y-62360000D02*
X150890000Y-62360000D01*
%TO.N,Net-(J1-Pin_28)*%
X153200000Y-70760000D02*
X153200000Y-65240000D01*
%TO.N,Net-(J1-Pin_27)*%
X149800000Y-70760000D02*
X149800000Y-65240000D01*
%TO.N,Net-(J1-Pin_28)*%
X156240000Y-62300000D02*
X156140000Y-62300000D01*
X156140000Y-62300000D02*
X153200000Y-65240000D01*
%TO.N,Net-(J1-Pin_29)*%
X156240000Y-66300000D02*
X154680000Y-67860000D01*
X154680000Y-67860000D02*
X154680000Y-71890000D01*
X154680000Y-71890000D02*
X150970000Y-75600000D01*
X150970000Y-75600000D02*
X123206366Y-75600000D01*
X120237365Y-86448343D02*
X120248461Y-86459439D01*
X120713183Y-78096017D02*
X120237365Y-78571835D01*
X123206366Y-75600000D02*
X123203183Y-75596817D01*
X123203183Y-75596817D02*
X120713183Y-78086817D01*
X120713183Y-78086817D02*
X120713183Y-78096017D01*
X120237365Y-78571835D02*
X120237365Y-86448343D01*
X120248461Y-86459439D02*
X120248461Y-131212095D01*
X120248461Y-131212095D02*
X120563183Y-131526817D01*
%TO.N,Net-(J1-Pin_28)*%
X120473183Y-133796817D02*
X120473183Y-132124717D01*
X120473183Y-132124717D02*
X119836365Y-131487899D01*
X119836365Y-131487899D02*
X119836365Y-78405735D01*
X153200000Y-72150000D02*
X153200000Y-70760000D01*
X119836365Y-78405735D02*
X120312183Y-77929917D01*
X120312183Y-77929917D02*
X120312183Y-77920717D01*
X120312183Y-77920717D02*
X123037083Y-75195817D01*
X123037083Y-75195817D02*
X150154183Y-75195817D01*
X150154183Y-75195817D02*
X153200000Y-72150000D01*
%TO.N,Net-(J1-Pin_27)*%
X149145183Y-74794817D02*
X149800000Y-74140000D01*
X149800000Y-74140000D02*
X149800000Y-70760000D01*
%TO.N,Net-(SW2A-D)*%
X168000000Y-65240000D02*
X168000000Y-62770000D01*
X168000000Y-62770000D02*
X167510000Y-62280000D01*
X167510000Y-62280000D02*
X166900000Y-62280000D01*
X166900000Y-73700000D02*
X167480000Y-73700000D01*
X167480000Y-73700000D02*
X168000000Y-73180000D01*
X168000000Y-73180000D02*
X168000000Y-70760000D01*
%TO.N,Net-(J1-Pin_29)*%
X156240000Y-66300000D02*
X161760000Y-66300000D01*
%TO.N,Net-(J1-Pin_28)*%
X156240000Y-73700000D02*
X161760000Y-73700000D01*
%TO.N,Net-(SW3A-D)*%
X161760000Y-77100000D02*
X156240000Y-77100000D01*
%TO.N,Net-(J1-Pin_28)*%
X161760000Y-62300000D02*
X156240000Y-62300000D01*
X164600000Y-65240000D02*
X161760000Y-62400000D01*
X161760000Y-62400000D02*
X161760000Y-62300000D01*
X161760000Y-69700000D02*
X161780000Y-69700000D01*
X164600000Y-70760000D02*
X164600000Y-65240000D01*
X156240000Y-69700000D02*
X161760000Y-69700000D01*
%TO.N,Net-(SW2A-D)*%
X168000000Y-70760000D02*
X168000000Y-65240000D01*
%TO.N,Net-(SW5A-D)*%
X161760000Y-58900000D02*
X165140000Y-62280000D01*
X165140000Y-62280000D02*
X165820000Y-62280000D01*
X156240000Y-58900000D02*
X161760000Y-58900000D01*
%TO.N,Net-(J1-Pin_27)*%
X149780000Y-70760000D02*
X149800000Y-70760000D01*
X120093183Y-132316817D02*
X119433183Y-131656817D01*
X119433183Y-131656817D02*
X119433183Y-131341817D01*
X119433183Y-131341817D02*
X119435365Y-131339635D01*
X119435365Y-131339635D02*
X119435365Y-78239635D01*
X119435365Y-78239635D02*
X119911183Y-77763817D01*
X119911183Y-77763817D02*
X119911183Y-77754617D01*
X119911183Y-77754617D02*
X122870983Y-74794817D01*
%TO.N,Net-(J1-Pin_28)*%
X153180000Y-70760000D02*
X153200000Y-70760000D01*
%TO.N,Net-(J1-Pin_27)*%
X122870983Y-74794817D02*
X149145183Y-74794817D01*
%TO.N,Net-(J5-Pin_2)*%
X75000000Y-100180000D02*
X74200000Y-99380000D01*
X63495000Y-99380000D02*
X61375000Y-97260000D01*
X74200000Y-99380000D02*
X63495000Y-99380000D01*
%TO.N,Net-(J5-Pin_1)*%
X64800000Y-97260000D02*
X64775000Y-97260000D01*
X75000000Y-99020000D02*
X74800000Y-99020000D01*
X74800000Y-99020000D02*
X74770000Y-98990000D01*
X66530000Y-98990000D02*
X64800000Y-97260000D01*
X74770000Y-98990000D02*
X66530000Y-98990000D01*
%TO.N,Net-(J1-Pin_17)*%
X122980000Y-78900000D02*
X122980000Y-78910000D01*
X122980000Y-78910000D02*
X127071000Y-83001000D01*
X127071000Y-83001000D02*
X150571000Y-83001000D01*
X150571000Y-83001000D02*
X159370000Y-91800000D01*
%TO.N,Net-(J1-Pin_16)*%
X124330000Y-78880000D02*
X124330000Y-78890000D01*
X124330000Y-78890000D02*
X127893978Y-82453978D01*
X127893978Y-82453978D02*
X150883978Y-82453978D01*
X150883978Y-82453978D02*
X158100000Y-89670000D01*
X158100000Y-89670000D02*
X160640000Y-89670000D01*
X160640000Y-89670000D02*
X162770000Y-91800000D01*
%TO.N,Net-(J1-Pin_30)*%
X122580000Y-83670000D02*
X143090000Y-83670000D01*
X143090000Y-83670000D02*
X149130000Y-89710000D01*
X149130000Y-89710000D02*
X151590000Y-89710000D01*
X151590000Y-89710000D02*
X153680000Y-91800000D01*
%TO.N,Net-(J1-Pin_31)*%
X121052183Y-130116817D02*
X121050461Y-130115095D01*
X121050461Y-130115095D02*
X121050461Y-86069539D01*
X122800000Y-84320000D02*
X142800000Y-84320000D01*
X121050461Y-86069539D02*
X122800000Y-84320000D01*
X142800000Y-84320000D02*
X150280000Y-91800000D01*
%TO.N,Net-(J1-Pin_12)*%
X116523183Y-133796817D02*
X116520000Y-133793634D01*
X67180000Y-83060000D02*
X64830000Y-85410000D01*
X115980000Y-87000000D02*
X99712000Y-70732000D01*
X116520000Y-133793634D02*
X116520000Y-131670000D01*
X115980000Y-131130000D02*
X115980000Y-87000000D01*
X116520000Y-131670000D02*
X115980000Y-131130000D01*
X99712000Y-70732000D02*
X87585100Y-70732000D01*
X87585100Y-70732000D02*
X75257100Y-83060000D01*
X64830000Y-85410000D02*
X64825000Y-85410000D01*
X75257100Y-83060000D02*
X67180000Y-83060000D01*
%TO.N,Net-(J1-Pin_14)*%
X61300000Y-82930000D02*
X61300000Y-82640000D01*
X101891000Y-70331000D02*
X87419000Y-70331000D01*
X111925000Y-80365000D02*
X101891000Y-70331000D01*
X75110000Y-82640000D02*
X61300000Y-82640000D01*
X87419000Y-70331000D02*
X75110000Y-82640000D01*
X61300000Y-82640000D02*
X61300000Y-79890000D01*
%TO.N,Net-(J5-Pin_1)*%
X64700000Y-97260000D02*
X64700000Y-91740000D01*
%TO.N,Net-(J5-Pin_2)*%
X61300000Y-97260000D02*
X61300000Y-91740000D01*
%TO.N,Net-(J1-Pin_14)*%
X61300000Y-85410000D02*
X61300000Y-82930000D01*
%TO.N,Net-(J1-Pin_30)*%
X64700000Y-67780000D02*
X64700000Y-73300000D01*
%TO.N,Net-(J1-Pin_24)*%
X119483183Y-133796817D02*
X119483183Y-133442617D01*
X115699120Y-73345937D02*
X115690000Y-73345937D01*
X119483183Y-133442617D02*
X118193183Y-132152617D01*
X64730000Y-61260000D02*
X64700000Y-61260000D01*
X118193183Y-132152617D02*
X118193183Y-75840000D01*
X115690000Y-73345937D02*
X107056015Y-64711952D01*
X107056015Y-64711952D02*
X68181952Y-64711952D01*
X118193183Y-75840000D02*
X115699120Y-73345937D01*
X68181952Y-64711952D02*
X64730000Y-61260000D01*
%TO.N,Net-(J5-Pin_1)*%
X64775000Y-97295000D02*
X64775000Y-97260000D01*
%TO.N,Net-(J1-Pin_30)*%
X64700000Y-67780000D02*
X67280000Y-65200000D01*
X114490000Y-78790000D02*
X114480000Y-78800000D01*
X67280000Y-65200000D02*
X106800000Y-65200000D01*
X106800000Y-65200000D02*
X114490000Y-72890000D01*
X114490000Y-72890000D02*
X114490000Y-78790000D01*
%TO.N,Net-(J1-Pin_28)*%
X61300000Y-58460000D02*
X61300000Y-55740000D01*
X61300000Y-61260000D02*
X61300000Y-58460000D01*
X61300000Y-67780000D02*
X61300000Y-61260000D01*
X61300000Y-73300000D02*
X61300000Y-67780000D01*
%TO.N,Net-(SW5A-D)*%
X165800000Y-62300000D02*
X165820000Y-62280000D01*
%TO.N,Net-(J1-Pin_29)*%
X156240000Y-66300000D02*
X156240000Y-66285000D01*
D16*
%TO.N,Net-(J1-Pin_25)*%
X119733183Y-133126817D02*
X119733183Y-134546817D01*
X119598183Y-132991817D02*
X119733183Y-133126817D01*
%TO.N,Net-(J1-Pin_29)*%
X120713183Y-134546817D02*
X120713183Y-131676817D01*
X120713183Y-131676817D02*
X120563183Y-131526817D01*
D18*
%TO.N,Net-(J1-Pin_28)*%
X164600000Y-70760000D02*
X164610000Y-70770000D01*
D16*
%TO.N,Net-(J1-Pin_27)*%
X120223183Y-132446817D02*
X120093183Y-132316817D01*
X120223183Y-134546817D02*
X120223183Y-132446817D01*
D18*
%TO.N,Net-(J1-Pin_31)*%
X150420000Y-97320000D02*
X150425000Y-97325000D01*
D16*
X121120000Y-130443634D02*
X121203183Y-130526817D01*
X121203183Y-130526817D02*
X121203183Y-134546817D01*
X121052183Y-130375817D02*
X121052183Y-130116817D01*
X121120000Y-130443634D02*
X121052183Y-130375817D01*
D18*
%TO.N,Net-(J1-Pin_30)*%
X64625000Y-73300000D02*
X64820000Y-73300000D01*
X120963183Y-131176817D02*
X120963183Y-133796817D01*
X120649461Y-85600539D02*
X120649461Y-130863095D01*
X120649461Y-130863095D02*
X120963183Y-131176817D01*
X122580000Y-83670000D02*
X120649461Y-85600539D01*
D16*
%TO.N,Net-(J1-Pin_17)*%
X117793183Y-132319717D02*
X117793183Y-133316817D01*
X117793183Y-133316817D02*
X117763183Y-133346817D01*
D18*
X159385000Y-97320000D02*
X159425000Y-97360000D01*
D16*
X117763183Y-133346817D02*
X117763183Y-134546817D01*
D18*
X116940000Y-78840000D02*
X117793183Y-79693183D01*
X117793183Y-79693183D02*
X117793183Y-132319717D01*
%TO.N,Net-(J1-Pin_16)*%
X115650000Y-78840000D02*
X115650000Y-78870000D01*
X117513183Y-132606817D02*
X117513183Y-133796817D01*
X117393183Y-80613183D02*
X117393183Y-132494717D01*
X117482083Y-132575717D02*
X117513183Y-132606817D01*
%TO.N,Net-(J1-Pin_17)*%
X159370000Y-91720000D02*
X159370000Y-91800000D01*
X159410000Y-91840000D02*
X159370000Y-91800000D01*
%TO.N,Net-(J1-Pin_16)*%
X117474183Y-132575717D02*
X117482083Y-132575717D01*
X115650000Y-78870000D02*
X117393183Y-80613183D01*
X117393183Y-132494717D02*
X117474183Y-132575717D01*
%TO.N,Net-(J1-Pin_17)*%
X159425000Y-91840000D02*
X159410000Y-91840000D01*
%TO.N,Net-(J1-Pin_14)*%
X116870000Y-131110000D02*
X116760000Y-131000000D01*
X114500000Y-82940000D02*
X111925000Y-80365000D01*
X116760000Y-85200000D02*
X114500000Y-82940000D01*
X116760000Y-131000000D02*
X116760000Y-85200000D01*
D16*
X111940000Y-80380000D02*
X111925000Y-80365000D01*
D18*
%TO.N,Net-(J5-Pin_1)*%
X64775000Y-97275000D02*
X64775000Y-97260000D01*
D16*
%TO.N,Net-(J1-Pin_33)*%
X121703183Y-133146817D02*
X121703183Y-134546817D01*
X121859000Y-132802000D02*
X121854183Y-132806817D01*
X121854183Y-132806817D02*
X121854183Y-132995817D01*
X121854183Y-132995817D02*
X121703183Y-133146817D01*
D18*
%TO.N,Net-(J1-Pin_34)*%
X121953183Y-133880817D02*
X121962183Y-133880817D01*
X121986817Y-133796817D02*
X122090000Y-133900000D01*
X121953183Y-133796817D02*
X121953183Y-133880817D01*
X121953183Y-133796817D02*
X121986817Y-133796817D01*
X122090000Y-134433634D02*
X122203183Y-134546817D01*
X122090000Y-133900000D02*
X122090000Y-134433634D01*
%TO.N,Net-(J1-Pin_9)*%
X97000000Y-74790000D02*
X114623183Y-92413183D01*
X114623183Y-92413183D02*
X114623183Y-131790073D01*
X97000000Y-62000000D02*
X97000000Y-58990000D01*
D16*
X115783183Y-132953183D02*
X115783183Y-134546817D01*
D18*
X97020000Y-72960000D02*
X96970000Y-72960000D01*
X97810000Y-58180000D02*
X97810000Y-43528000D01*
X97810000Y-43528000D02*
X97818000Y-43520000D01*
D16*
X115649927Y-132819927D02*
X115783183Y-132953183D01*
D18*
X114623183Y-131790073D02*
X115649927Y-132816817D01*
D17*
X115649927Y-132816817D02*
X115649927Y-132819927D01*
D18*
X97000000Y-72990000D02*
X97000000Y-74790000D01*
X96970000Y-72960000D02*
X97000000Y-72990000D01*
X97000000Y-58990000D02*
X97810000Y-58180000D01*
%TO.N,Net-(J1-Pin_1)*%
X113902183Y-134081717D02*
X114053183Y-133930717D01*
X114053183Y-133930717D02*
X114053183Y-133796817D01*
X113803183Y-134546817D02*
X113803183Y-134376817D01*
X113902183Y-134277817D02*
X113902183Y-134081717D01*
X113803183Y-134376817D02*
X113902183Y-134277817D01*
%TO.N,Net-(J1-Pin_3)*%
X114553183Y-133856817D02*
X114553183Y-133796817D01*
X114342183Y-134397817D02*
X114303183Y-134397817D01*
X114303183Y-134397817D02*
X114303183Y-134540935D01*
X114297301Y-134546817D02*
X114410000Y-134434118D01*
X114303183Y-134540935D02*
X114297301Y-134546817D01*
X114410000Y-134000000D02*
X114553183Y-133856817D01*
X114410000Y-134434118D02*
X114410000Y-134000000D01*
%TO.N,Net-(J1-Pin_5)*%
X97042000Y-43520000D02*
X97042000Y-57748000D01*
X115043183Y-133796817D02*
X114910000Y-133930000D01*
X115043183Y-133386817D02*
X115043183Y-133796817D01*
X114910000Y-134170000D02*
X114791418Y-134288582D01*
X114910000Y-133930000D02*
X114910000Y-134170000D01*
X113783183Y-132126817D02*
X115043183Y-133386817D01*
X97042000Y-57748000D02*
X95000000Y-59790000D01*
X114791418Y-134288582D02*
X114791418Y-134546817D01*
X95000000Y-73000000D02*
X95000000Y-74070000D01*
X95000000Y-59790000D02*
X95000000Y-62000000D01*
X95000000Y-74070000D02*
X113783183Y-92853183D01*
X114791418Y-134546817D02*
X114793183Y-134546817D01*
X113783183Y-92853183D02*
X113783183Y-132126817D01*
%TO.N,Net-(J1-Pin_7)*%
X96000000Y-74440000D02*
X114203183Y-92643183D01*
X96000000Y-73150000D02*
X96000000Y-74440000D01*
X114203183Y-131979717D02*
X115543183Y-133319717D01*
X96010000Y-61990000D02*
X96000000Y-62000000D01*
X97430000Y-43520000D02*
X97430000Y-57940000D01*
X97430000Y-57940000D02*
X96010000Y-59360000D01*
X96010000Y-59360000D02*
X96010000Y-61990000D01*
X115543183Y-133319717D02*
X115543183Y-133796817D01*
X114203183Y-92643183D02*
X114203183Y-131979717D01*
X95870000Y-73020000D02*
X96000000Y-73150000D01*
%TO.N,Net-(J1-Pin_10)*%
X98000000Y-58640000D02*
X98000000Y-62000000D01*
X98000000Y-72990000D02*
X98000000Y-75080000D01*
X98000000Y-75080000D02*
X115033183Y-92113183D01*
X115033183Y-92113183D02*
X115033183Y-131586817D01*
X98206000Y-43520000D02*
X98206000Y-58434000D01*
X98206000Y-58434000D02*
X98000000Y-58640000D01*
X115033183Y-131586817D02*
X116033183Y-132586817D01*
X116033183Y-132586817D02*
X116033183Y-133796817D01*
D17*
%TO.N,Net-(J1-Pin_11)*%
X116119533Y-131973167D02*
X116123167Y-131973167D01*
D18*
X115463183Y-91893183D02*
X115463183Y-131316817D01*
X99010000Y-73020000D02*
X99010000Y-75440000D01*
X99020000Y-73010000D02*
X99010000Y-73020000D01*
D16*
X116123167Y-131973167D02*
X116273183Y-132123183D01*
D18*
X98600000Y-43525000D02*
X98595000Y-43520000D01*
X99000000Y-62000000D02*
X99000000Y-58540000D01*
X99010000Y-75440000D02*
X115463183Y-91893183D01*
D16*
X116273183Y-132123183D02*
X116273183Y-134546817D01*
D18*
X98600000Y-58140000D02*
X98600000Y-43525000D01*
X99000000Y-58540000D02*
X98600000Y-58140000D01*
X115463183Y-131316817D02*
X116119533Y-131973167D01*
%TD*%
%TA.AperFunction,NonConductor*%
G36*
X95573039Y-86079685D02*
G01*
X95618794Y-86132489D01*
X95630000Y-86184000D01*
X95630000Y-93996000D01*
X95610315Y-94063039D01*
X95557511Y-94108794D01*
X95506000Y-94120000D01*
X87004000Y-94120000D01*
X86936961Y-94100315D01*
X86891206Y-94047511D01*
X86880000Y-93996000D01*
X86880000Y-86184000D01*
X86899685Y-86116961D01*
X86952489Y-86071206D01*
X87004000Y-86060000D01*
X95506000Y-86060000D01*
X95573039Y-86079685D01*
G37*
%TD.AperFunction*%
%TA.AperFunction,NonConductor*%
G36*
X142056427Y-98949576D02*
G01*
X142123396Y-98969490D01*
X142168970Y-99022450D01*
X142180000Y-99073575D01*
X142180000Y-102775500D01*
X142160315Y-102842539D01*
X142107511Y-102888294D01*
X142056000Y-102899500D01*
X133553664Y-102899500D01*
X133486625Y-102879815D01*
X133440870Y-102827011D01*
X133429664Y-102775811D01*
X133426538Y-101528794D01*
X133420312Y-99044734D01*
X133439829Y-98977648D01*
X133492518Y-98931761D01*
X133544736Y-98920427D01*
X142056427Y-98949576D01*
G37*
%TD.AperFunction*%
%TA.AperFunction,Conductor*%
%TO.N,Net-(J1-Pin_15)*%
G36*
X114793190Y-81435169D02*
G01*
X114797658Y-81440879D01*
X114952995Y-81867828D01*
X114952603Y-81876774D01*
X114950273Y-81880101D01*
X114890101Y-81940273D01*
X114881828Y-81943700D01*
X114877829Y-81942995D01*
X114450879Y-81787658D01*
X114444276Y-81781609D01*
X114443398Y-81774414D01*
X114497780Y-81497009D01*
X114502734Y-81489551D01*
X114507009Y-81487780D01*
X114784414Y-81433398D01*
X114793190Y-81435169D01*
G37*
%TD.AperFunction*%
%TD*%
%TA.AperFunction,Conductor*%
%TO.N,Net-(J1-Pin_13)*%
G36*
X114790260Y-84028053D02*
G01*
X114794751Y-84033826D01*
X114948051Y-84462858D01*
X114947608Y-84471802D01*
X114945306Y-84475068D01*
X114885136Y-84535238D01*
X114876863Y-84538665D01*
X114872799Y-84537937D01*
X114447932Y-84380564D01*
X114441364Y-84374476D01*
X114440515Y-84367343D01*
X114494908Y-84089881D01*
X114499862Y-84082423D01*
X114504137Y-84080652D01*
X114781482Y-84026282D01*
X114790260Y-84028053D01*
G37*
%TD.AperFunction*%
%TD*%
%TA.AperFunction,Conductor*%
%TO.N,Net-(J1-Pin_34)*%
G36*
X123994344Y-85044116D02*
G01*
X123995193Y-85045626D01*
X124067080Y-85199293D01*
X124186791Y-85455193D01*
X124227422Y-85542046D01*
X124227823Y-85550992D01*
X124225097Y-85555277D01*
X124095277Y-85685097D01*
X124087004Y-85688524D01*
X124082047Y-85687422D01*
X123931428Y-85616961D01*
X123585626Y-85455193D01*
X123579585Y-85448583D01*
X123579986Y-85439637D01*
X123580835Y-85438127D01*
X123737985Y-85201263D01*
X123741263Y-85197985D01*
X123978127Y-85040834D01*
X123986915Y-85039116D01*
X123994344Y-85044116D01*
G37*
%TD.AperFunction*%
%TD*%
%TA.AperFunction,Conductor*%
%TO.N,Net-(J1-Pin_32)*%
G36*
X123530362Y-86009986D02*
G01*
X123531872Y-86010835D01*
X123768734Y-86167984D01*
X123772015Y-86171265D01*
X123929164Y-86408127D01*
X123930883Y-86416915D01*
X123925883Y-86424344D01*
X123924373Y-86425193D01*
X123427953Y-86657422D01*
X123419007Y-86657823D01*
X123414722Y-86655097D01*
X123284902Y-86525277D01*
X123281475Y-86517004D01*
X123282575Y-86512051D01*
X123514806Y-86015625D01*
X123521416Y-86009585D01*
X123530362Y-86009986D01*
G37*
%TD.AperFunction*%
%TD*%
%TA.AperFunction,Conductor*%
%TO.N,Net-(J1-Pin_33)*%
G36*
X123540362Y-86929986D02*
G01*
X123541872Y-86930835D01*
X123778734Y-87087984D01*
X123782015Y-87091265D01*
X123939164Y-87328127D01*
X123940883Y-87336915D01*
X123935883Y-87344344D01*
X123934373Y-87345193D01*
X123437953Y-87577422D01*
X123429007Y-87577823D01*
X123424722Y-87575097D01*
X123294902Y-87445277D01*
X123291475Y-87437004D01*
X123292575Y-87432051D01*
X123524806Y-86935625D01*
X123531416Y-86929585D01*
X123540362Y-86929986D01*
G37*
%TD.AperFunction*%
%TD*%
%TA.AperFunction,Conductor*%
%TO.N,Net-(J3-Pin_4)*%
G36*
X213558910Y-77441099D02*
G01*
X213592989Y-77447780D01*
X213600448Y-77452734D01*
X213602219Y-77457010D01*
X213656627Y-77734547D01*
X213654856Y-77743325D01*
X213649296Y-77747737D01*
X213227241Y-77907859D01*
X213218290Y-77907590D01*
X213214818Y-77905193D01*
X213154648Y-77845023D01*
X213151221Y-77836750D01*
X213151871Y-77832905D01*
X213302424Y-77401052D01*
X213308382Y-77394371D01*
X213315721Y-77393425D01*
X213558910Y-77441099D01*
G37*
%TD.AperFunction*%
%TD*%
%TA.AperFunction,Conductor*%
%TO.N,Net-(J3-Pin_5)*%
G36*
X213581083Y-79032277D02*
G01*
X213584355Y-79035544D01*
X213741077Y-79271035D01*
X213742808Y-79279821D01*
X213739174Y-79286204D01*
X213533235Y-79471996D01*
X213451475Y-79545760D01*
X213443340Y-79553099D01*
X213435503Y-79556112D01*
X213350421Y-79556112D01*
X213342148Y-79552685D01*
X213338799Y-79545760D01*
X213307952Y-79279821D01*
X213287003Y-79099209D01*
X213289454Y-79090597D01*
X213296303Y-79086394D01*
X213572297Y-79030558D01*
X213581083Y-79032277D01*
G37*
%TD.AperFunction*%
%TD*%
%TA.AperFunction,Conductor*%
%TO.N,Net-(J1-Pin_25)*%
G36*
X117964676Y-69243895D02*
G01*
X117965374Y-69245095D01*
X118209587Y-69729420D01*
X118210252Y-69738350D01*
X118207413Y-69742961D01*
X118077601Y-69872773D01*
X118069328Y-69876200D01*
X118064678Y-69875236D01*
X117556156Y-69654996D01*
X117549926Y-69648564D01*
X117550070Y-69639610D01*
X117551053Y-69637797D01*
X117707985Y-69401263D01*
X117711263Y-69397985D01*
X117948461Y-69240613D01*
X117957247Y-69238895D01*
X117964676Y-69243895D01*
G37*
%TD.AperFunction*%
%TD*%
%TA.AperFunction,Conductor*%
%TO.N,Net-(J1-Pin_26)*%
G36*
X119610372Y-69260017D02*
G01*
X119611999Y-69260919D01*
X119844201Y-69414977D01*
X119848734Y-69417984D01*
X119852015Y-69421265D01*
X120009253Y-69658261D01*
X120010972Y-69667049D01*
X120005972Y-69674478D01*
X120004585Y-69675268D01*
X119513003Y-69912290D01*
X119504063Y-69912796D01*
X119499649Y-69910024D01*
X119369831Y-69780206D01*
X119366404Y-69771933D01*
X119367448Y-69767101D01*
X119594883Y-69265837D01*
X119601422Y-69259720D01*
X119610372Y-69260017D01*
G37*
%TD.AperFunction*%
%TD*%
%TA.AperFunction,Conductor*%
%TO.N,Net-(J1-Pin_28)*%
G36*
X118707655Y-63890792D02*
G01*
X118713696Y-63897402D01*
X118714165Y-63899070D01*
X118770530Y-64177680D01*
X118770530Y-64182320D01*
X118714165Y-64460929D01*
X118709165Y-64468358D01*
X118700377Y-64470077D01*
X118698709Y-64469608D01*
X118183476Y-64282796D01*
X118176866Y-64276755D01*
X118175764Y-64271797D01*
X118175764Y-64088202D01*
X118179191Y-64079929D01*
X118183473Y-64077204D01*
X118698711Y-63890391D01*
X118707655Y-63890792D01*
G37*
%TD.AperFunction*%
%TD*%
%TA.AperFunction,Conductor*%
%TO.N,Net-(J1-Pin_28)*%
G36*
X118841282Y-63890389D02*
G01*
X119356525Y-64077204D01*
X119363134Y-64083244D01*
X119364236Y-64088202D01*
X119364236Y-64271797D01*
X119360809Y-64280070D01*
X119356524Y-64282796D01*
X118841290Y-64469608D01*
X118832344Y-64469207D01*
X118826303Y-64462597D01*
X118825837Y-64460939D01*
X118769469Y-64182318D01*
X118769469Y-64177680D01*
X118825835Y-63899067D01*
X118830834Y-63891641D01*
X118839622Y-63889922D01*
X118841282Y-63890389D01*
G37*
%TD.AperFunction*%
%TD*%
%TA.AperFunction,Conductor*%
%TO.N,Net-(J5-Pin_2)*%
G36*
X74657949Y-99692576D02*
G01*
X74968713Y-99837953D01*
X75154373Y-99924806D01*
X75160414Y-99931416D01*
X75160013Y-99940362D01*
X75159164Y-99941872D01*
X75002015Y-100178734D01*
X74998734Y-100182015D01*
X74761872Y-100339164D01*
X74753084Y-100340883D01*
X74745655Y-100335883D01*
X74744806Y-100334373D01*
X74671997Y-100178734D01*
X74512576Y-99837951D01*
X74512176Y-99829007D01*
X74514900Y-99824724D01*
X74644723Y-99694901D01*
X74652995Y-99691475D01*
X74657949Y-99692576D01*
G37*
%TD.AperFunction*%
%TD*%
%TA.AperFunction,Conductor*%
%TO.N,Net-(J5-Pin_1)*%
G36*
X74938048Y-98730397D02*
G01*
X74943749Y-98737303D01*
X74944031Y-98738412D01*
X75000030Y-99015210D01*
X74998311Y-99023998D01*
X74998272Y-99024057D01*
X74838695Y-99261456D01*
X74831236Y-99266410D01*
X74824457Y-99265717D01*
X74412936Y-99093009D01*
X74406634Y-99086648D01*
X74405764Y-99082221D01*
X74405764Y-98898650D01*
X74409191Y-98890377D01*
X74414033Y-98887464D01*
X74929136Y-98729546D01*
X74938048Y-98730397D01*
G37*
%TD.AperFunction*%
%TD*%
%TA.AperFunction,Conductor*%
%TO.N,Net-(J1-Pin_17)*%
G36*
X123234210Y-78744204D02*
G01*
X123235116Y-78745838D01*
X123462550Y-79247099D01*
X123462847Y-79256049D01*
X123460168Y-79260206D01*
X123330350Y-79390024D01*
X123322077Y-79393451D01*
X123316996Y-79392290D01*
X122825414Y-79155268D01*
X122819450Y-79148588D01*
X122819956Y-79139648D01*
X122820742Y-79138266D01*
X122977985Y-78901263D01*
X122981263Y-78897985D01*
X123217995Y-78740922D01*
X123226781Y-78739204D01*
X123234210Y-78744204D01*
G37*
%TD.AperFunction*%
%TD*%
%TA.AperFunction,Conductor*%
%TO.N,Net-(J1-Pin_16)*%
G36*
X124584210Y-78724204D02*
G01*
X124585116Y-78725838D01*
X124812550Y-79227099D01*
X124812847Y-79236049D01*
X124810168Y-79240206D01*
X124680350Y-79370024D01*
X124672077Y-79373451D01*
X124666996Y-79372290D01*
X124175414Y-79135268D01*
X124169450Y-79128588D01*
X124169956Y-79119648D01*
X124170742Y-79118266D01*
X124327985Y-78881263D01*
X124331263Y-78877985D01*
X124567995Y-78720922D01*
X124576781Y-78719204D01*
X124584210Y-78724204D01*
G37*
%TD.AperFunction*%
%TD*%
%TA.AperFunction,Conductor*%
%TO.N,Net-(J1-Pin_30)*%
G36*
X122651282Y-83380389D02*
G01*
X123166525Y-83567204D01*
X123173134Y-83573244D01*
X123174236Y-83578202D01*
X123174236Y-83761797D01*
X123170809Y-83770070D01*
X123166524Y-83772796D01*
X122651290Y-83959608D01*
X122642344Y-83959207D01*
X122636303Y-83952597D01*
X122635837Y-83950939D01*
X122579469Y-83672318D01*
X122579469Y-83667680D01*
X122635835Y-83389067D01*
X122640834Y-83381641D01*
X122649622Y-83379922D01*
X122651282Y-83380389D01*
G37*
%TD.AperFunction*%
%TD*%
%TA.AperFunction,Conductor*%
%TO.N,Net-(J1-Pin_30)*%
G36*
X114589924Y-78209191D02*
G01*
X114592715Y-78213659D01*
X114769893Y-78728847D01*
X114769343Y-78737785D01*
X114762634Y-78743716D01*
X114761149Y-78744120D01*
X114482320Y-78800530D01*
X114477680Y-78800530D01*
X114199293Y-78744210D01*
X114191864Y-78739210D01*
X114190145Y-78730422D01*
X114190678Y-78728581D01*
X114387128Y-78213295D01*
X114393277Y-78206786D01*
X114398060Y-78205764D01*
X114581651Y-78205764D01*
X114589924Y-78209191D01*
G37*
%TD.AperFunction*%
%TD*%
%TA.AperFunction,Conductor*%
%TO.N,Net-(J1-Pin_30)*%
G36*
X122340362Y-83509986D02*
G01*
X122341872Y-83510835D01*
X122578734Y-83667984D01*
X122582015Y-83671265D01*
X122739164Y-83908127D01*
X122740883Y-83916915D01*
X122735883Y-83924344D01*
X122734373Y-83925193D01*
X122237953Y-84157422D01*
X122229007Y-84157823D01*
X122224722Y-84155097D01*
X122094902Y-84025277D01*
X122091475Y-84017004D01*
X122092575Y-84012051D01*
X122324806Y-83515625D01*
X122331416Y-83509585D01*
X122340362Y-83509986D01*
G37*
%TD.AperFunction*%
%TD*%
%TA.AperFunction,Conductor*%
%TO.N,Net-(J1-Pin_17)*%
G36*
X117194344Y-78684116D02*
G01*
X117195193Y-78685626D01*
X117267080Y-78839293D01*
X117386791Y-79095193D01*
X117427422Y-79182046D01*
X117427823Y-79190992D01*
X117425097Y-79195277D01*
X117295277Y-79325097D01*
X117287004Y-79328524D01*
X117282047Y-79327422D01*
X117131428Y-79256961D01*
X116785626Y-79095193D01*
X116779585Y-79088583D01*
X116779986Y-79079637D01*
X116780835Y-79078127D01*
X116937985Y-78841263D01*
X116941263Y-78837985D01*
X117178127Y-78680834D01*
X117186915Y-78679116D01*
X117194344Y-78684116D01*
G37*
%TD.AperFunction*%
%TD*%
%TA.AperFunction,Conductor*%
%TO.N,Net-(J1-Pin_16)*%
G36*
X115903941Y-78684383D02*
G01*
X115904955Y-78686262D01*
X116122797Y-79197205D01*
X116122889Y-79206160D01*
X116120307Y-79210067D01*
X115990498Y-79339876D01*
X115982225Y-79343303D01*
X115976895Y-79342018D01*
X115494990Y-79095408D01*
X115489186Y-79088589D01*
X115489905Y-79079663D01*
X115490571Y-79078525D01*
X115647985Y-78841263D01*
X115651263Y-78837985D01*
X115887725Y-78681101D01*
X115896512Y-78679383D01*
X115903941Y-78684383D01*
G37*
%TD.AperFunction*%
%TD*%
%TA.AperFunction,Conductor*%
%TO.N,Net-(J1-Pin_14)*%
G36*
X114157949Y-82452576D02*
G01*
X114468713Y-82597953D01*
X114654373Y-82684806D01*
X114660414Y-82691416D01*
X114660013Y-82700362D01*
X114659164Y-82701872D01*
X114502015Y-82938734D01*
X114498734Y-82942015D01*
X114261872Y-83099164D01*
X114253084Y-83100883D01*
X114245655Y-83095883D01*
X114244806Y-83094373D01*
X114171997Y-82938734D01*
X114012576Y-82597951D01*
X114012176Y-82589007D01*
X114014900Y-82584724D01*
X114144723Y-82454901D01*
X114152995Y-82451475D01*
X114157949Y-82452576D01*
G37*
%TD.AperFunction*%
%TD*%
%TA.AperFunction,Conductor*%
%TO.N,Net-(J1-Pin_14)*%
G36*
X114754344Y-82784116D02*
G01*
X114755193Y-82785626D01*
X114827080Y-82939293D01*
X114946791Y-83195193D01*
X114987422Y-83282046D01*
X114987823Y-83290992D01*
X114985097Y-83295277D01*
X114855277Y-83425097D01*
X114847004Y-83428524D01*
X114842047Y-83427422D01*
X114691428Y-83356961D01*
X114345626Y-83195193D01*
X114339585Y-83188583D01*
X114339986Y-83179637D01*
X114340835Y-83178127D01*
X114497985Y-82941263D01*
X114501263Y-82937985D01*
X114738127Y-82780834D01*
X114746915Y-82779116D01*
X114754344Y-82784116D01*
G37*
%TD.AperFunction*%
%TD*%
%TA.AperFunction,Conductor*%
%TO.N,Net-(J1-Pin_9)*%
G36*
X97100070Y-61409191D02*
G01*
X97102796Y-61413476D01*
X97289608Y-61928709D01*
X97289207Y-61937655D01*
X97282597Y-61943696D01*
X97280929Y-61944165D01*
X97002320Y-62000530D01*
X96997680Y-62000530D01*
X96719070Y-61944165D01*
X96711641Y-61939165D01*
X96709922Y-61930377D01*
X96710387Y-61928720D01*
X96897204Y-61413476D01*
X96903245Y-61406866D01*
X96908203Y-61405764D01*
X97091797Y-61405764D01*
X97100070Y-61409191D01*
G37*
%TD.AperFunction*%
%TD*%
%TA.AperFunction,Conductor*%
%TO.N,Net-(J1-Pin_9)*%
G36*
X97280930Y-73055835D02*
G01*
X97288358Y-73060834D01*
X97290077Y-73069622D01*
X97289608Y-73071290D01*
X97102796Y-73586524D01*
X97096755Y-73593134D01*
X97091797Y-73594236D01*
X96908203Y-73594236D01*
X96899930Y-73590809D01*
X96897204Y-73586524D01*
X96849544Y-73455078D01*
X96710391Y-73071288D01*
X96710792Y-73062344D01*
X96717402Y-73056303D01*
X96719056Y-73055837D01*
X96997682Y-72999469D01*
X97002318Y-72999469D01*
X97280930Y-73055835D01*
G37*
%TD.AperFunction*%
%TD*%
%TA.AperFunction,Conductor*%
%TO.N,Net-(J1-Pin_5)*%
G36*
X95280930Y-73055835D02*
G01*
X95288358Y-73060834D01*
X95290077Y-73069622D01*
X95289608Y-73071290D01*
X95102796Y-73586524D01*
X95096755Y-73593134D01*
X95091797Y-73594236D01*
X94908203Y-73594236D01*
X94899930Y-73590809D01*
X94897204Y-73586524D01*
X94849544Y-73455078D01*
X94710391Y-73071288D01*
X94710792Y-73062344D01*
X94717402Y-73056303D01*
X94719056Y-73055837D01*
X94997682Y-72999469D01*
X95002318Y-72999469D01*
X95280930Y-73055835D01*
G37*
%TD.AperFunction*%
%TD*%
%TA.AperFunction,Conductor*%
%TO.N,Net-(J1-Pin_5)*%
G36*
X95100070Y-61409191D02*
G01*
X95102796Y-61413476D01*
X95289608Y-61928709D01*
X95289207Y-61937655D01*
X95282597Y-61943696D01*
X95280929Y-61944165D01*
X95002320Y-62000530D01*
X94997680Y-62000530D01*
X94719070Y-61944165D01*
X94711641Y-61939165D01*
X94709922Y-61930377D01*
X94710387Y-61928720D01*
X94897204Y-61413476D01*
X94903245Y-61406866D01*
X94908203Y-61405764D01*
X95091797Y-61405764D01*
X95100070Y-61409191D01*
G37*
%TD.AperFunction*%
%TD*%
%TA.AperFunction,Conductor*%
%TO.N,Net-(J1-Pin_7)*%
G36*
X96280930Y-73055835D02*
G01*
X96288358Y-73060834D01*
X96290077Y-73069622D01*
X96289608Y-73071290D01*
X96102796Y-73586524D01*
X96096755Y-73593134D01*
X96091797Y-73594236D01*
X95908203Y-73594236D01*
X95899930Y-73590809D01*
X95897204Y-73586524D01*
X95849544Y-73455078D01*
X95710391Y-73071288D01*
X95710792Y-73062344D01*
X95717402Y-73056303D01*
X95719056Y-73055837D01*
X95997682Y-72999469D01*
X96002318Y-72999469D01*
X96280930Y-73055835D01*
G37*
%TD.AperFunction*%
%TD*%
%TA.AperFunction,Conductor*%
%TO.N,Net-(J1-Pin_7)*%
G36*
X96109924Y-61409191D02*
G01*
X96112715Y-61413659D01*
X96289893Y-61928847D01*
X96289343Y-61937785D01*
X96282634Y-61943716D01*
X96281149Y-61944120D01*
X96002320Y-62000530D01*
X95997680Y-62000530D01*
X95719293Y-61944210D01*
X95711864Y-61939210D01*
X95710145Y-61930422D01*
X95710678Y-61928581D01*
X95907128Y-61413295D01*
X95913277Y-61406786D01*
X95918060Y-61405764D01*
X96101651Y-61405764D01*
X96109924Y-61409191D01*
G37*
%TD.AperFunction*%
%TD*%
%TA.AperFunction,Conductor*%
%TO.N,Net-(J1-Pin_10)*%
G36*
X98100070Y-61409191D02*
G01*
X98102796Y-61413476D01*
X98289608Y-61928709D01*
X98289207Y-61937655D01*
X98282597Y-61943696D01*
X98280929Y-61944165D01*
X98002320Y-62000530D01*
X97997680Y-62000530D01*
X97719070Y-61944165D01*
X97711641Y-61939165D01*
X97709922Y-61930377D01*
X97710387Y-61928720D01*
X97897204Y-61413476D01*
X97903245Y-61406866D01*
X97908203Y-61405764D01*
X98091797Y-61405764D01*
X98100070Y-61409191D01*
G37*
%TD.AperFunction*%
%TD*%
%TA.AperFunction,Conductor*%
%TO.N,Net-(J1-Pin_10)*%
G36*
X98280930Y-73055835D02*
G01*
X98288358Y-73060834D01*
X98290077Y-73069622D01*
X98289608Y-73071290D01*
X98102796Y-73586524D01*
X98096755Y-73593134D01*
X98091797Y-73594236D01*
X97908203Y-73594236D01*
X97899930Y-73590809D01*
X97897204Y-73586524D01*
X97849544Y-73455078D01*
X97710391Y-73071288D01*
X97710792Y-73062344D01*
X97717402Y-73056303D01*
X97719056Y-73055837D01*
X97997682Y-72999469D01*
X98002318Y-72999469D01*
X98280930Y-73055835D01*
G37*
%TD.AperFunction*%
%TD*%
%TA.AperFunction,Conductor*%
%TO.N,Net-(J1-Pin_11)*%
G36*
X99281149Y-73055879D02*
G01*
X99288578Y-73060879D01*
X99290297Y-73069667D01*
X99289893Y-73071152D01*
X99112715Y-73586341D01*
X99106784Y-73593050D01*
X99101651Y-73594236D01*
X98918060Y-73594236D01*
X98909787Y-73590809D01*
X98907128Y-73586704D01*
X98710681Y-73071425D01*
X98710935Y-73062474D01*
X98717445Y-73056325D01*
X98719282Y-73055792D01*
X98997682Y-72999469D01*
X99002318Y-72999469D01*
X99281149Y-73055879D01*
G37*
%TD.AperFunction*%
%TD*%
%TA.AperFunction,Conductor*%
%TO.N,Net-(J1-Pin_11)*%
G36*
X99100070Y-61409191D02*
G01*
X99102796Y-61413476D01*
X99289608Y-61928709D01*
X99289207Y-61937655D01*
X99282597Y-61943696D01*
X99280929Y-61944165D01*
X99002320Y-62000530D01*
X98997680Y-62000530D01*
X98719070Y-61944165D01*
X98711641Y-61939165D01*
X98709922Y-61930377D01*
X98710387Y-61928720D01*
X98897204Y-61413476D01*
X98903245Y-61406866D01*
X98908203Y-61405764D01*
X99091797Y-61405764D01*
X99100070Y-61409191D01*
G37*
%TD.AperFunction*%
%TD*%
M02*
