%TF.GenerationSoftware,KiCad,Pcbnew,9.0.3*%
%TF.CreationDate,2025-08-12T18:22:14+03:00*%
%TF.ProjectId,Back,4261636b-2e6b-4696-9361-645f70636258,rev?*%
%TF.SameCoordinates,Original*%
%TF.FileFunction,Drillmap*%
%TF.FilePolarity,Positive*%
%FSLAX45Y45*%
G04 Gerber Fmt 4.5, Leading zero omitted, Abs format (unit mm)*
G04 Created by KiCad (PCBNEW 9.0.3) date 2025-08-12 18:22:14*
%MOMM*%
%LPD*%
G01*
G04 APERTURE LIST*
%ADD10C,0.050000*%
%ADD11C,0.200000*%
%ADD12C,0.100000*%
G04 APERTURE END LIST*
D10*
X9956000Y-4627000D02*
X9956000Y-4799026D01*
X6630000Y-10150000D02*
G75*
G02*
X6470000Y-10150000I-80000J0D01*
G01*
X6470000Y-10150000D02*
G75*
G02*
X6630000Y-10150000I80000J0D01*
G01*
X18668586Y-5802000D02*
G75*
G02*
X18251414Y-5802000I-208586J0D01*
G01*
X18251414Y-5802000D02*
G75*
G02*
X18668586Y-5802000I208586J0D01*
G01*
X11300318Y-13188682D02*
X11300318Y-10499682D01*
X15280000Y-8758700D02*
G75*
G02*
X15120000Y-8758700I-80000J0D01*
G01*
X15120000Y-8758700D02*
G75*
G02*
X15280000Y-8758700I80000J0D01*
G01*
X7745000Y-9573000D02*
G75*
G02*
X7585000Y-9573000I-80000J0D01*
G01*
X7585000Y-9573000D02*
G75*
G02*
X7745000Y-9573000I80000J0D01*
G01*
X10155974Y-4999026D02*
G75*
G02*
X9956004Y-4799004I26J199996D01*
G01*
X15280000Y-10137500D02*
G75*
G02*
X15120000Y-10137500I-80000J0D01*
G01*
X15120000Y-10137500D02*
G75*
G02*
X15280000Y-10137500I80000J0D01*
G01*
X7014200Y-6800000D02*
G75*
G02*
X6854200Y-6800000I-80000J0D01*
G01*
X6854200Y-6800000D02*
G75*
G02*
X7014200Y-6800000I80000J0D01*
G01*
X9530000Y-4627000D02*
X9530000Y-4800000D01*
X18647876Y-5239000D02*
G75*
G02*
X18478124Y-5239000I-84876J0D01*
G01*
X18478124Y-5239000D02*
G75*
G02*
X18647876Y-5239000I84876J0D01*
G01*
X14470000Y-9688000D02*
X14710000Y-9688000D01*
X14710000Y-10010000D01*
X14470000Y-10010000D01*
X14470000Y-9688000D01*
X16880000Y-5550000D02*
G75*
G02*
X16720000Y-5550000I-80000J0D01*
G01*
X16720000Y-5550000D02*
G75*
G02*
X16880000Y-5550000I80000J0D01*
G01*
X7014200Y-8500000D02*
G75*
G02*
X6854200Y-8500000I-80000J0D01*
G01*
X6854200Y-8500000D02*
G75*
G02*
X7014200Y-8500000I80000J0D01*
G01*
X5940000Y-5000000D02*
X9330000Y-5000000D01*
X18739000Y-6601000D02*
X18096500Y-6601000D01*
X12300000Y-13189000D02*
X12300000Y-10500000D01*
X7745000Y-5727000D02*
G75*
G02*
X7585000Y-5727000I-80000J0D01*
G01*
X7585000Y-5727000D02*
G75*
G02*
X7745000Y-5727000I80000J0D01*
G01*
X7100000Y-7100000D02*
X7400000Y-7100000D01*
X7400000Y-8200000D01*
X7100000Y-8200000D01*
X7100000Y-7100000D01*
X18740000Y-5001000D02*
X18739000Y-6601000D01*
X8267800Y-6773100D02*
G75*
G02*
X8107800Y-6773100I-80000J0D01*
G01*
X8107800Y-6773100D02*
G75*
G02*
X8267800Y-6773100I80000J0D01*
G01*
X13875000Y-5727000D02*
G75*
G02*
X13715000Y-5727000I-80000J0D01*
G01*
X13715000Y-5727000D02*
G75*
G02*
X13875000Y-5727000I80000J0D01*
G01*
X15080000Y-5550000D02*
G75*
G02*
X14920000Y-5550000I-80000J0D01*
G01*
X14920000Y-5550000D02*
G75*
G02*
X15080000Y-5550000I80000J0D01*
G01*
X16880000Y-8050000D02*
G75*
G02*
X16720000Y-8050000I-80000J0D01*
G01*
X16720000Y-8050000D02*
G75*
G02*
X16880000Y-8050000I80000J0D01*
G01*
X5940000Y-10300000D02*
X11100318Y-10300000D01*
X17745500Y-11678000D02*
X17745500Y-6600000D01*
X6630000Y-5150000D02*
G75*
G02*
X6470000Y-5150000I-80000J0D01*
G01*
X6470000Y-5150000D02*
G75*
G02*
X6630000Y-5150000I80000J0D01*
G01*
X17500000Y-5000000D02*
X18740000Y-5001000D01*
X15080000Y-8050000D02*
G75*
G02*
X14920000Y-8050000I-80000J0D01*
G01*
X14920000Y-8050000D02*
G75*
G02*
X15080000Y-8050000I80000J0D01*
G01*
X17500000Y-5000000D02*
X10156000Y-4999026D01*
X14470000Y-5292000D02*
X14710000Y-5292000D01*
X14710000Y-5612000D01*
X14470000Y-5612000D01*
X14470000Y-5292000D01*
X18127546Y-6394000D02*
G75*
G02*
X17960454Y-6394000I-83546J0D01*
G01*
X17960454Y-6394000D02*
G75*
G02*
X18127546Y-6394000I83546J0D01*
G01*
X12499421Y-10300000D02*
X17500000Y-10300000D01*
X8267800Y-8823100D02*
G75*
G02*
X8107800Y-8823100I-80000J0D01*
G01*
X8107800Y-8823100D02*
G75*
G02*
X8267800Y-8823100I80000J0D01*
G01*
X18639000Y-6394000D02*
G75*
G02*
X18487000Y-6394000I-76000J0D01*
G01*
X18487000Y-6394000D02*
G75*
G02*
X18639000Y-6394000I76000J0D01*
G01*
X11100318Y-10299682D02*
G75*
G02*
X11300318Y-10499682I2J-199998D01*
G01*
X6790000Y-5542000D02*
X7030000Y-5542000D01*
X7030000Y-6000000D01*
X6790000Y-6000000D01*
X6790000Y-5542000D01*
X16180000Y-10137500D02*
G75*
G02*
X16020000Y-10137500I-80000J0D01*
G01*
X16020000Y-10137500D02*
G75*
G02*
X16180000Y-10137500I80000J0D01*
G01*
X9530000Y-4800000D02*
G75*
G02*
X9330000Y-5000000I-200000J0D01*
G01*
X16180000Y-8758700D02*
G75*
G02*
X16020000Y-8758700I-80000J0D01*
G01*
X16020000Y-8758700D02*
G75*
G02*
X16180000Y-8758700I80000J0D01*
G01*
X5940000Y-5000000D02*
X5940000Y-10300000D01*
X12299421Y-10500000D02*
G75*
G02*
X12499421Y-10300001I199999J0D01*
G01*
X17500000Y-10300000D02*
X17500000Y-6600000D01*
X13875000Y-9573000D02*
G75*
G02*
X13715000Y-9573000I-80000J0D01*
G01*
X13715000Y-9573000D02*
G75*
G02*
X13875000Y-9573000I80000J0D01*
G01*
X6790000Y-9300000D02*
X7030000Y-9300000D01*
X7030000Y-9758000D01*
X6790000Y-9758000D01*
X6790000Y-9300000D01*
X18096500Y-6601000D02*
X18096500Y-11678000D01*
X17500000Y-6600000D02*
X17745500Y-6600000D01*
X9480000Y-4527000D02*
X9480000Y-4627000D01*
X9530000Y-4627000D02*
X9480000Y-4627000D01*
X9580000Y-4527000D02*
X9480000Y-4527000D01*
X9580500Y-4310000D02*
X9580500Y-4527000D01*
X9905500Y-4310000D02*
X9580500Y-4310000D01*
X9905500Y-4310000D02*
X9905500Y-4527000D01*
X9906000Y-4527000D02*
X10006000Y-4527000D01*
X9956000Y-4627000D02*
X10006000Y-4627000D01*
X10006000Y-4527000D02*
X10006000Y-4627000D01*
X17695500Y-11778000D02*
X17695500Y-11678000D01*
X17745500Y-11678000D02*
X17695500Y-11678000D01*
X17795500Y-11778000D02*
X17695500Y-11778000D01*
X17796000Y-11995000D02*
X17796000Y-11778000D01*
X17796000Y-11995000D02*
X18046000Y-11995000D01*
X18046000Y-11995000D02*
X18046000Y-11778000D01*
X18046500Y-11778000D02*
X18146500Y-11778000D01*
X18096500Y-11678000D02*
X18146500Y-11678000D01*
X18146500Y-11778000D02*
X18146500Y-11678000D01*
X11246318Y-13288682D02*
X11246318Y-13188682D01*
X11300318Y-13188682D02*
X11246318Y-13188682D01*
X11346318Y-13288682D02*
X11246318Y-13288682D01*
X11346318Y-13505682D02*
X11346318Y-13288682D01*
X11346318Y-13505682D02*
X12254318Y-13505682D01*
X12254318Y-13288682D02*
X12354318Y-13288682D01*
X12254318Y-13505682D02*
X12254318Y-13288682D01*
X12300318Y-13188682D02*
X12354318Y-13188682D01*
X12354318Y-13288682D02*
X12354318Y-13188682D01*
D11*
D12*
X7462000Y-10024000D02*
X7492000Y-10054000D01*
X7492000Y-10024000D02*
X7462000Y-10054000D01*
X7613000Y-10089000D02*
X7643000Y-10119000D01*
X7643000Y-10089000D02*
X7613000Y-10119000D01*
X9485000Y-6185000D02*
X9515000Y-6215000D01*
X9515000Y-6185000D02*
X9485000Y-6215000D01*
X9485000Y-7285000D02*
X9515000Y-7315000D01*
X9515000Y-7285000D02*
X9485000Y-7315000D01*
X9585000Y-6185000D02*
X9615000Y-6215000D01*
X9615000Y-6185000D02*
X9585000Y-6215000D01*
X9585000Y-7285000D02*
X9615000Y-7315000D01*
X9615000Y-7285000D02*
X9585000Y-7315000D01*
X9685000Y-6185000D02*
X9715000Y-6215000D01*
X9715000Y-6185000D02*
X9685000Y-6215000D01*
X9685000Y-7285000D02*
X9715000Y-7315000D01*
X9715000Y-7285000D02*
X9685000Y-7315000D01*
X9785000Y-6185000D02*
X9815000Y-6215000D01*
X9815000Y-6185000D02*
X9785000Y-6215000D01*
X9785000Y-7285000D02*
X9815000Y-7315000D01*
X9815000Y-7285000D02*
X9785000Y-7315000D01*
X9885000Y-6185000D02*
X9915000Y-6215000D01*
X9915000Y-6185000D02*
X9885000Y-6215000D01*
X9885000Y-7285000D02*
X9915000Y-7315000D01*
X9915000Y-7285000D02*
X9885000Y-7315000D01*
X11433000Y-7865000D02*
X11463000Y-7895000D01*
X11463000Y-7865000D02*
X11433000Y-7895000D01*
X11434713Y-8393287D02*
X11464713Y-8423287D01*
X11464713Y-8393287D02*
X11434713Y-8423287D01*
X11435000Y-8134000D02*
X11465000Y-8164000D01*
X11465000Y-8134000D02*
X11435000Y-8164000D01*
X11435000Y-8279000D02*
X11465000Y-8309000D01*
X11465000Y-8279000D02*
X11435000Y-8309000D01*
X11550000Y-7869000D02*
X11580000Y-7899000D01*
X11580000Y-7869000D02*
X11550000Y-7899000D01*
X11679000Y-7869000D02*
X11709000Y-7899000D01*
X11709000Y-7869000D02*
X11679000Y-7899000D01*
X12243000Y-8352000D02*
X12273000Y-8382000D01*
X12273000Y-8352000D02*
X12243000Y-8382000D01*
X12283000Y-7875000D02*
X12313000Y-7905000D01*
X12313000Y-7875000D02*
X12283000Y-7905000D01*
X12362000Y-8580000D02*
X12392000Y-8610000D01*
X12392000Y-8580000D02*
X12362000Y-8610000D01*
X12418000Y-7873000D02*
X12448000Y-7903000D01*
X12448000Y-7873000D02*
X12418000Y-7903000D01*
X12476000Y-8581000D02*
X12506000Y-8611000D01*
X12506000Y-8581000D02*
X12476000Y-8611000D01*
X12603000Y-8581000D02*
X12633000Y-8611000D01*
X12633000Y-8581000D02*
X12603000Y-8611000D01*
X18005000Y-7185000D02*
X18035000Y-7215000D01*
X18035000Y-7185000D02*
X18005000Y-7215000D01*
X18007000Y-7027000D02*
X18037000Y-7057000D01*
X18037000Y-7027000D02*
X18007000Y-7057000D01*
D11*
X6198277Y-13819665D02*
X6198277Y-13619665D01*
X6198277Y-13619665D02*
X6245896Y-13619665D01*
X6245896Y-13619665D02*
X6274467Y-13629189D01*
X6274467Y-13629189D02*
X6293515Y-13648237D01*
X6293515Y-13648237D02*
X6303039Y-13667284D01*
X6303039Y-13667284D02*
X6312562Y-13705380D01*
X6312562Y-13705380D02*
X6312562Y-13733951D01*
X6312562Y-13733951D02*
X6303039Y-13772046D01*
X6303039Y-13772046D02*
X6293515Y-13791094D01*
X6293515Y-13791094D02*
X6274467Y-13810142D01*
X6274467Y-13810142D02*
X6245896Y-13819665D01*
X6245896Y-13819665D02*
X6198277Y-13819665D01*
X6398277Y-13819665D02*
X6398277Y-13686332D01*
X6398277Y-13724427D02*
X6407801Y-13705380D01*
X6407801Y-13705380D02*
X6417324Y-13695856D01*
X6417324Y-13695856D02*
X6436372Y-13686332D01*
X6436372Y-13686332D02*
X6455420Y-13686332D01*
X6522086Y-13819665D02*
X6522086Y-13686332D01*
X6522086Y-13619665D02*
X6512562Y-13629189D01*
X6512562Y-13629189D02*
X6522086Y-13638713D01*
X6522086Y-13638713D02*
X6531610Y-13629189D01*
X6531610Y-13629189D02*
X6522086Y-13619665D01*
X6522086Y-13619665D02*
X6522086Y-13638713D01*
X6645896Y-13819665D02*
X6626848Y-13810142D01*
X6626848Y-13810142D02*
X6617324Y-13791094D01*
X6617324Y-13791094D02*
X6617324Y-13619665D01*
X6750658Y-13819665D02*
X6731610Y-13810142D01*
X6731610Y-13810142D02*
X6722086Y-13791094D01*
X6722086Y-13791094D02*
X6722086Y-13619665D01*
X6979229Y-13819665D02*
X6979229Y-13619665D01*
X6979229Y-13619665D02*
X7045896Y-13762523D01*
X7045896Y-13762523D02*
X7112562Y-13619665D01*
X7112562Y-13619665D02*
X7112562Y-13819665D01*
X7293515Y-13819665D02*
X7293515Y-13714904D01*
X7293515Y-13714904D02*
X7283991Y-13695856D01*
X7283991Y-13695856D02*
X7264943Y-13686332D01*
X7264943Y-13686332D02*
X7226848Y-13686332D01*
X7226848Y-13686332D02*
X7207801Y-13695856D01*
X7293515Y-13810142D02*
X7274467Y-13819665D01*
X7274467Y-13819665D02*
X7226848Y-13819665D01*
X7226848Y-13819665D02*
X7207801Y-13810142D01*
X7207801Y-13810142D02*
X7198277Y-13791094D01*
X7198277Y-13791094D02*
X7198277Y-13772046D01*
X7198277Y-13772046D02*
X7207801Y-13752999D01*
X7207801Y-13752999D02*
X7226848Y-13743475D01*
X7226848Y-13743475D02*
X7274467Y-13743475D01*
X7274467Y-13743475D02*
X7293515Y-13733951D01*
X7388753Y-13686332D02*
X7388753Y-13886332D01*
X7388753Y-13695856D02*
X7407801Y-13686332D01*
X7407801Y-13686332D02*
X7445896Y-13686332D01*
X7445896Y-13686332D02*
X7464943Y-13695856D01*
X7464943Y-13695856D02*
X7474467Y-13705380D01*
X7474467Y-13705380D02*
X7483991Y-13724427D01*
X7483991Y-13724427D02*
X7483991Y-13781570D01*
X7483991Y-13781570D02*
X7474467Y-13800618D01*
X7474467Y-13800618D02*
X7464943Y-13810142D01*
X7464943Y-13810142D02*
X7445896Y-13819665D01*
X7445896Y-13819665D02*
X7407801Y-13819665D01*
X7407801Y-13819665D02*
X7388753Y-13810142D01*
X7569705Y-13800618D02*
X7579229Y-13810142D01*
X7579229Y-13810142D02*
X7569705Y-13819665D01*
X7569705Y-13819665D02*
X7560182Y-13810142D01*
X7560182Y-13810142D02*
X7569705Y-13800618D01*
X7569705Y-13800618D02*
X7569705Y-13819665D01*
X7569705Y-13695856D02*
X7579229Y-13705380D01*
X7579229Y-13705380D02*
X7569705Y-13714904D01*
X7569705Y-13714904D02*
X7560182Y-13705380D01*
X7560182Y-13705380D02*
X7569705Y-13695856D01*
X7569705Y-13695856D02*
X7569705Y-13714904D01*
D12*
X5907500Y-14133182D02*
X5937500Y-14163182D01*
X5937500Y-14133182D02*
X5907500Y-14163182D01*
D11*
X6236372Y-14039665D02*
X6255420Y-14039665D01*
X6255420Y-14039665D02*
X6274467Y-14049189D01*
X6274467Y-14049189D02*
X6283991Y-14058713D01*
X6283991Y-14058713D02*
X6293515Y-14077761D01*
X6293515Y-14077761D02*
X6303039Y-14115856D01*
X6303039Y-14115856D02*
X6303039Y-14163475D01*
X6303039Y-14163475D02*
X6293515Y-14201570D01*
X6293515Y-14201570D02*
X6283991Y-14220618D01*
X6283991Y-14220618D02*
X6274467Y-14230142D01*
X6274467Y-14230142D02*
X6255420Y-14239665D01*
X6255420Y-14239665D02*
X6236372Y-14239665D01*
X6236372Y-14239665D02*
X6217324Y-14230142D01*
X6217324Y-14230142D02*
X6207801Y-14220618D01*
X6207801Y-14220618D02*
X6198277Y-14201570D01*
X6198277Y-14201570D02*
X6188753Y-14163475D01*
X6188753Y-14163475D02*
X6188753Y-14115856D01*
X6188753Y-14115856D02*
X6198277Y-14077761D01*
X6198277Y-14077761D02*
X6207801Y-14058713D01*
X6207801Y-14058713D02*
X6217324Y-14049189D01*
X6217324Y-14049189D02*
X6236372Y-14039665D01*
X6388753Y-14220618D02*
X6398277Y-14230142D01*
X6398277Y-14230142D02*
X6388753Y-14239665D01*
X6388753Y-14239665D02*
X6379229Y-14230142D01*
X6379229Y-14230142D02*
X6388753Y-14220618D01*
X6388753Y-14220618D02*
X6388753Y-14239665D01*
X6464943Y-14039665D02*
X6588753Y-14039665D01*
X6588753Y-14039665D02*
X6522086Y-14115856D01*
X6522086Y-14115856D02*
X6550658Y-14115856D01*
X6550658Y-14115856D02*
X6569705Y-14125380D01*
X6569705Y-14125380D02*
X6579229Y-14134904D01*
X6579229Y-14134904D02*
X6588753Y-14153951D01*
X6588753Y-14153951D02*
X6588753Y-14201570D01*
X6588753Y-14201570D02*
X6579229Y-14220618D01*
X6579229Y-14220618D02*
X6569705Y-14230142D01*
X6569705Y-14230142D02*
X6550658Y-14239665D01*
X6550658Y-14239665D02*
X6493515Y-14239665D01*
X6493515Y-14239665D02*
X6474467Y-14230142D01*
X6474467Y-14230142D02*
X6464943Y-14220618D01*
X6712562Y-14039665D02*
X6731610Y-14039665D01*
X6731610Y-14039665D02*
X6750658Y-14049189D01*
X6750658Y-14049189D02*
X6760182Y-14058713D01*
X6760182Y-14058713D02*
X6769705Y-14077761D01*
X6769705Y-14077761D02*
X6779229Y-14115856D01*
X6779229Y-14115856D02*
X6779229Y-14163475D01*
X6779229Y-14163475D02*
X6769705Y-14201570D01*
X6769705Y-14201570D02*
X6760182Y-14220618D01*
X6760182Y-14220618D02*
X6750658Y-14230142D01*
X6750658Y-14230142D02*
X6731610Y-14239665D01*
X6731610Y-14239665D02*
X6712562Y-14239665D01*
X6712562Y-14239665D02*
X6693515Y-14230142D01*
X6693515Y-14230142D02*
X6683991Y-14220618D01*
X6683991Y-14220618D02*
X6674467Y-14201570D01*
X6674467Y-14201570D02*
X6664943Y-14163475D01*
X6664943Y-14163475D02*
X6664943Y-14115856D01*
X6664943Y-14115856D02*
X6674467Y-14077761D01*
X6674467Y-14077761D02*
X6683991Y-14058713D01*
X6683991Y-14058713D02*
X6693515Y-14049189D01*
X6693515Y-14049189D02*
X6712562Y-14039665D01*
X6903039Y-14039665D02*
X6922086Y-14039665D01*
X6922086Y-14039665D02*
X6941134Y-14049189D01*
X6941134Y-14049189D02*
X6950658Y-14058713D01*
X6950658Y-14058713D02*
X6960182Y-14077761D01*
X6960182Y-14077761D02*
X6969705Y-14115856D01*
X6969705Y-14115856D02*
X6969705Y-14163475D01*
X6969705Y-14163475D02*
X6960182Y-14201570D01*
X6960182Y-14201570D02*
X6950658Y-14220618D01*
X6950658Y-14220618D02*
X6941134Y-14230142D01*
X6941134Y-14230142D02*
X6922086Y-14239665D01*
X6922086Y-14239665D02*
X6903039Y-14239665D01*
X6903039Y-14239665D02*
X6883991Y-14230142D01*
X6883991Y-14230142D02*
X6874467Y-14220618D01*
X6874467Y-14220618D02*
X6864943Y-14201570D01*
X6864943Y-14201570D02*
X6855420Y-14163475D01*
X6855420Y-14163475D02*
X6855420Y-14115856D01*
X6855420Y-14115856D02*
X6864943Y-14077761D01*
X6864943Y-14077761D02*
X6874467Y-14058713D01*
X6874467Y-14058713D02*
X6883991Y-14049189D01*
X6883991Y-14049189D02*
X6903039Y-14039665D01*
X7055420Y-14239665D02*
X7055420Y-14106332D01*
X7055420Y-14125380D02*
X7064943Y-14115856D01*
X7064943Y-14115856D02*
X7083991Y-14106332D01*
X7083991Y-14106332D02*
X7112563Y-14106332D01*
X7112563Y-14106332D02*
X7131610Y-14115856D01*
X7131610Y-14115856D02*
X7141134Y-14134904D01*
X7141134Y-14134904D02*
X7141134Y-14239665D01*
X7141134Y-14134904D02*
X7150658Y-14115856D01*
X7150658Y-14115856D02*
X7169705Y-14106332D01*
X7169705Y-14106332D02*
X7198277Y-14106332D01*
X7198277Y-14106332D02*
X7217324Y-14115856D01*
X7217324Y-14115856D02*
X7226848Y-14134904D01*
X7226848Y-14134904D02*
X7226848Y-14239665D01*
X7322086Y-14239665D02*
X7322086Y-14106332D01*
X7322086Y-14125380D02*
X7331610Y-14115856D01*
X7331610Y-14115856D02*
X7350658Y-14106332D01*
X7350658Y-14106332D02*
X7379229Y-14106332D01*
X7379229Y-14106332D02*
X7398277Y-14115856D01*
X7398277Y-14115856D02*
X7407801Y-14134904D01*
X7407801Y-14134904D02*
X7407801Y-14239665D01*
X7407801Y-14134904D02*
X7417324Y-14115856D01*
X7417324Y-14115856D02*
X7436372Y-14106332D01*
X7436372Y-14106332D02*
X7464943Y-14106332D01*
X7464943Y-14106332D02*
X7483991Y-14115856D01*
X7483991Y-14115856D02*
X7493515Y-14134904D01*
X7493515Y-14134904D02*
X7493515Y-14239665D01*
X7883991Y-14030142D02*
X7712563Y-14287284D01*
X8141134Y-14039665D02*
X8160182Y-14039665D01*
X8160182Y-14039665D02*
X8179229Y-14049189D01*
X8179229Y-14049189D02*
X8188753Y-14058713D01*
X8188753Y-14058713D02*
X8198277Y-14077761D01*
X8198277Y-14077761D02*
X8207801Y-14115856D01*
X8207801Y-14115856D02*
X8207801Y-14163475D01*
X8207801Y-14163475D02*
X8198277Y-14201570D01*
X8198277Y-14201570D02*
X8188753Y-14220618D01*
X8188753Y-14220618D02*
X8179229Y-14230142D01*
X8179229Y-14230142D02*
X8160182Y-14239665D01*
X8160182Y-14239665D02*
X8141134Y-14239665D01*
X8141134Y-14239665D02*
X8122086Y-14230142D01*
X8122086Y-14230142D02*
X8112563Y-14220618D01*
X8112563Y-14220618D02*
X8103039Y-14201570D01*
X8103039Y-14201570D02*
X8093515Y-14163475D01*
X8093515Y-14163475D02*
X8093515Y-14115856D01*
X8093515Y-14115856D02*
X8103039Y-14077761D01*
X8103039Y-14077761D02*
X8112563Y-14058713D01*
X8112563Y-14058713D02*
X8122086Y-14049189D01*
X8122086Y-14049189D02*
X8141134Y-14039665D01*
X8293515Y-14220618D02*
X8303039Y-14230142D01*
X8303039Y-14230142D02*
X8293515Y-14239665D01*
X8293515Y-14239665D02*
X8283991Y-14230142D01*
X8283991Y-14230142D02*
X8293515Y-14220618D01*
X8293515Y-14220618D02*
X8293515Y-14239665D01*
X8426848Y-14039665D02*
X8445896Y-14039665D01*
X8445896Y-14039665D02*
X8464944Y-14049189D01*
X8464944Y-14049189D02*
X8474468Y-14058713D01*
X8474468Y-14058713D02*
X8483991Y-14077761D01*
X8483991Y-14077761D02*
X8493515Y-14115856D01*
X8493515Y-14115856D02*
X8493515Y-14163475D01*
X8493515Y-14163475D02*
X8483991Y-14201570D01*
X8483991Y-14201570D02*
X8474468Y-14220618D01*
X8474468Y-14220618D02*
X8464944Y-14230142D01*
X8464944Y-14230142D02*
X8445896Y-14239665D01*
X8445896Y-14239665D02*
X8426848Y-14239665D01*
X8426848Y-14239665D02*
X8407801Y-14230142D01*
X8407801Y-14230142D02*
X8398277Y-14220618D01*
X8398277Y-14220618D02*
X8388753Y-14201570D01*
X8388753Y-14201570D02*
X8379229Y-14163475D01*
X8379229Y-14163475D02*
X8379229Y-14115856D01*
X8379229Y-14115856D02*
X8388753Y-14077761D01*
X8388753Y-14077761D02*
X8398277Y-14058713D01*
X8398277Y-14058713D02*
X8407801Y-14049189D01*
X8407801Y-14049189D02*
X8426848Y-14039665D01*
X8683991Y-14239665D02*
X8569706Y-14239665D01*
X8626848Y-14239665D02*
X8626848Y-14039665D01*
X8626848Y-14039665D02*
X8607801Y-14068237D01*
X8607801Y-14068237D02*
X8588753Y-14087284D01*
X8588753Y-14087284D02*
X8569706Y-14096808D01*
X8874468Y-14239665D02*
X8760182Y-14239665D01*
X8817325Y-14239665D02*
X8817325Y-14039665D01*
X8817325Y-14039665D02*
X8798277Y-14068237D01*
X8798277Y-14068237D02*
X8779229Y-14087284D01*
X8779229Y-14087284D02*
X8760182Y-14096808D01*
X8988753Y-14125380D02*
X8969706Y-14115856D01*
X8969706Y-14115856D02*
X8960182Y-14106332D01*
X8960182Y-14106332D02*
X8950658Y-14087284D01*
X8950658Y-14087284D02*
X8950658Y-14077761D01*
X8950658Y-14077761D02*
X8960182Y-14058713D01*
X8960182Y-14058713D02*
X8969706Y-14049189D01*
X8969706Y-14049189D02*
X8988753Y-14039665D01*
X8988753Y-14039665D02*
X9026849Y-14039665D01*
X9026849Y-14039665D02*
X9045896Y-14049189D01*
X9045896Y-14049189D02*
X9055420Y-14058713D01*
X9055420Y-14058713D02*
X9064944Y-14077761D01*
X9064944Y-14077761D02*
X9064944Y-14087284D01*
X9064944Y-14087284D02*
X9055420Y-14106332D01*
X9055420Y-14106332D02*
X9045896Y-14115856D01*
X9045896Y-14115856D02*
X9026849Y-14125380D01*
X9026849Y-14125380D02*
X8988753Y-14125380D01*
X8988753Y-14125380D02*
X8969706Y-14134904D01*
X8969706Y-14134904D02*
X8960182Y-14144427D01*
X8960182Y-14144427D02*
X8950658Y-14163475D01*
X8950658Y-14163475D02*
X8950658Y-14201570D01*
X8950658Y-14201570D02*
X8960182Y-14220618D01*
X8960182Y-14220618D02*
X8969706Y-14230142D01*
X8969706Y-14230142D02*
X8988753Y-14239665D01*
X8988753Y-14239665D02*
X9026849Y-14239665D01*
X9026849Y-14239665D02*
X9045896Y-14230142D01*
X9045896Y-14230142D02*
X9055420Y-14220618D01*
X9055420Y-14220618D02*
X9064944Y-14201570D01*
X9064944Y-14201570D02*
X9064944Y-14163475D01*
X9064944Y-14163475D02*
X9055420Y-14144427D01*
X9055420Y-14144427D02*
X9045896Y-14134904D01*
X9045896Y-14134904D02*
X9026849Y-14125380D01*
X9141134Y-14039665D02*
X9141134Y-14077761D01*
X9217325Y-14039665D02*
X9217325Y-14077761D01*
X9512563Y-14315856D02*
X9503039Y-14306332D01*
X9503039Y-14306332D02*
X9483991Y-14277761D01*
X9483991Y-14277761D02*
X9474468Y-14258713D01*
X9474468Y-14258713D02*
X9464944Y-14230142D01*
X9464944Y-14230142D02*
X9455420Y-14182523D01*
X9455420Y-14182523D02*
X9455420Y-14144427D01*
X9455420Y-14144427D02*
X9464944Y-14096808D01*
X9464944Y-14096808D02*
X9474468Y-14068237D01*
X9474468Y-14068237D02*
X9483991Y-14049189D01*
X9483991Y-14049189D02*
X9503039Y-14020618D01*
X9503039Y-14020618D02*
X9512563Y-14011094D01*
X9579230Y-14058713D02*
X9588753Y-14049189D01*
X9588753Y-14049189D02*
X9607801Y-14039665D01*
X9607801Y-14039665D02*
X9655420Y-14039665D01*
X9655420Y-14039665D02*
X9674468Y-14049189D01*
X9674468Y-14049189D02*
X9683991Y-14058713D01*
X9683991Y-14058713D02*
X9693515Y-14077761D01*
X9693515Y-14077761D02*
X9693515Y-14096808D01*
X9693515Y-14096808D02*
X9683991Y-14125380D01*
X9683991Y-14125380D02*
X9569706Y-14239665D01*
X9569706Y-14239665D02*
X9693515Y-14239665D01*
X9864944Y-14039665D02*
X9826849Y-14039665D01*
X9826849Y-14039665D02*
X9807801Y-14049189D01*
X9807801Y-14049189D02*
X9798277Y-14058713D01*
X9798277Y-14058713D02*
X9779230Y-14087284D01*
X9779230Y-14087284D02*
X9769706Y-14125380D01*
X9769706Y-14125380D02*
X9769706Y-14201570D01*
X9769706Y-14201570D02*
X9779230Y-14220618D01*
X9779230Y-14220618D02*
X9788753Y-14230142D01*
X9788753Y-14230142D02*
X9807801Y-14239665D01*
X9807801Y-14239665D02*
X9845896Y-14239665D01*
X9845896Y-14239665D02*
X9864944Y-14230142D01*
X9864944Y-14230142D02*
X9874468Y-14220618D01*
X9874468Y-14220618D02*
X9883991Y-14201570D01*
X9883991Y-14201570D02*
X9883991Y-14153951D01*
X9883991Y-14153951D02*
X9874468Y-14134904D01*
X9874468Y-14134904D02*
X9864944Y-14125380D01*
X9864944Y-14125380D02*
X9845896Y-14115856D01*
X9845896Y-14115856D02*
X9807801Y-14115856D01*
X9807801Y-14115856D02*
X9788753Y-14125380D01*
X9788753Y-14125380D02*
X9779230Y-14134904D01*
X9779230Y-14134904D02*
X9769706Y-14153951D01*
X10122087Y-14239665D02*
X10122087Y-14039665D01*
X10207801Y-14239665D02*
X10207801Y-14134904D01*
X10207801Y-14134904D02*
X10198277Y-14115856D01*
X10198277Y-14115856D02*
X10179230Y-14106332D01*
X10179230Y-14106332D02*
X10150658Y-14106332D01*
X10150658Y-14106332D02*
X10131611Y-14115856D01*
X10131611Y-14115856D02*
X10122087Y-14125380D01*
X10331611Y-14239665D02*
X10312563Y-14230142D01*
X10312563Y-14230142D02*
X10303039Y-14220618D01*
X10303039Y-14220618D02*
X10293515Y-14201570D01*
X10293515Y-14201570D02*
X10293515Y-14144427D01*
X10293515Y-14144427D02*
X10303039Y-14125380D01*
X10303039Y-14125380D02*
X10312563Y-14115856D01*
X10312563Y-14115856D02*
X10331611Y-14106332D01*
X10331611Y-14106332D02*
X10360182Y-14106332D01*
X10360182Y-14106332D02*
X10379230Y-14115856D01*
X10379230Y-14115856D02*
X10388753Y-14125380D01*
X10388753Y-14125380D02*
X10398277Y-14144427D01*
X10398277Y-14144427D02*
X10398277Y-14201570D01*
X10398277Y-14201570D02*
X10388753Y-14220618D01*
X10388753Y-14220618D02*
X10379230Y-14230142D01*
X10379230Y-14230142D02*
X10360182Y-14239665D01*
X10360182Y-14239665D02*
X10331611Y-14239665D01*
X10512563Y-14239665D02*
X10493515Y-14230142D01*
X10493515Y-14230142D02*
X10483992Y-14211094D01*
X10483992Y-14211094D02*
X10483992Y-14039665D01*
X10664944Y-14230142D02*
X10645896Y-14239665D01*
X10645896Y-14239665D02*
X10607801Y-14239665D01*
X10607801Y-14239665D02*
X10588753Y-14230142D01*
X10588753Y-14230142D02*
X10579230Y-14211094D01*
X10579230Y-14211094D02*
X10579230Y-14134904D01*
X10579230Y-14134904D02*
X10588753Y-14115856D01*
X10588753Y-14115856D02*
X10607801Y-14106332D01*
X10607801Y-14106332D02*
X10645896Y-14106332D01*
X10645896Y-14106332D02*
X10664944Y-14115856D01*
X10664944Y-14115856D02*
X10674468Y-14134904D01*
X10674468Y-14134904D02*
X10674468Y-14153951D01*
X10674468Y-14153951D02*
X10579230Y-14172999D01*
X10750658Y-14230142D02*
X10769706Y-14239665D01*
X10769706Y-14239665D02*
X10807801Y-14239665D01*
X10807801Y-14239665D02*
X10826849Y-14230142D01*
X10826849Y-14230142D02*
X10836373Y-14211094D01*
X10836373Y-14211094D02*
X10836373Y-14201570D01*
X10836373Y-14201570D02*
X10826849Y-14182523D01*
X10826849Y-14182523D02*
X10807801Y-14172999D01*
X10807801Y-14172999D02*
X10779230Y-14172999D01*
X10779230Y-14172999D02*
X10760182Y-14163475D01*
X10760182Y-14163475D02*
X10750658Y-14144427D01*
X10750658Y-14144427D02*
X10750658Y-14134904D01*
X10750658Y-14134904D02*
X10760182Y-14115856D01*
X10760182Y-14115856D02*
X10779230Y-14106332D01*
X10779230Y-14106332D02*
X10807801Y-14106332D01*
X10807801Y-14106332D02*
X10826849Y-14115856D01*
X10903039Y-14315856D02*
X10912563Y-14306332D01*
X10912563Y-14306332D02*
X10931611Y-14277761D01*
X10931611Y-14277761D02*
X10941134Y-14258713D01*
X10941134Y-14258713D02*
X10950658Y-14230142D01*
X10950658Y-14230142D02*
X10960182Y-14182523D01*
X10960182Y-14182523D02*
X10960182Y-14144427D01*
X10960182Y-14144427D02*
X10950658Y-14096808D01*
X10950658Y-14096808D02*
X10941134Y-14068237D01*
X10941134Y-14068237D02*
X10931611Y-14049189D01*
X10931611Y-14049189D02*
X10912563Y-14020618D01*
X10912563Y-14020618D02*
X10903039Y-14011094D01*
M02*
