%TF.GenerationSoftware,KiCad,Pcbnew,9.0.3*%
%TF.CreationDate,2025-08-12T01:43:16+03:00*%
%TF.ProjectId,EVF_extender,4556465f-6578-4746-956e-6465722e6b69,rev?*%
%TF.SameCoordinates,Original*%
%TF.FileFunction,Profile,NP*%
%FSLAX46Y46*%
G04 Gerber Fmt 4.6, Leading zero omitted, Abs format (unit mm)*
G04 Created by KiCad (PCBNEW 9.0.3) date 2025-08-12 01:43:16*
%MOMM*%
%LPD*%
G01*
G04 APERTURE LIST*
%TA.AperFunction,Profile*%
%ADD10C,0.050000*%
%TD*%
G04 APERTURE END LIST*
D10*
X160060000Y-84813779D02*
X160060000Y-71300000D01*
X136200000Y-92000000D02*
X144503245Y-92000000D01*
X145939338Y-91391990D02*
G75*
G02*
X144503245Y-92000021I-1436038J1391790D01*
G01*
X160060000Y-84813779D02*
G75*
G02*
X158053789Y-86813790I-2000000J-21D01*
G01*
X149808112Y-87400641D02*
G75*
G02*
X151250416Y-86792635I1436088J-1391959D01*
G01*
X158060000Y-69300000D02*
G75*
G02*
X160060000Y-71300000I0J-2000000D01*
G01*
X158060000Y-69300000D02*
X150997032Y-69300000D01*
X151250416Y-86792641D02*
X158053789Y-86813770D01*
X142044072Y-77406599D02*
G75*
G02*
X140634473Y-77991528I-1413372J1415099D01*
G01*
X149584504Y-69884104D02*
G75*
G02*
X150997032Y-69299982I1412596J-1415996D01*
G01*
X142044072Y-77406599D02*
X149584504Y-69884104D01*
X145939338Y-91391990D02*
X149808112Y-87400641D01*
X136200000Y-78000000D02*
X140634473Y-77991569D01*
%TO.C,J4*%
X132375000Y-78750000D02*
X132375000Y-91250000D01*
X132375000Y-78750000D02*
X134200000Y-78750000D01*
X132375000Y-91250000D02*
X134200000Y-91250000D01*
X134200000Y-78000000D02*
X136200000Y-78000000D01*
X134200000Y-78750000D02*
X134200000Y-78000000D01*
X134200000Y-91250000D02*
X134200000Y-92000000D01*
X134200000Y-92000000D02*
X136200000Y-92000000D01*
%TD*%
M02*
