%TF.GenerationSoftware,KiCad,Pcbnew,9.0.3*%
%TF.CreationDate,2025-08-12T14:22:17+03:00*%
%TF.ProjectId,EVF_extender,4556465f-6578-4746-956e-6465722e6b69,rev?*%
%TF.SameCoordinates,Original*%
%TF.FileFunction,Drillmap*%
%TF.FilePolarity,Positive*%
%FSLAX45Y45*%
G04 Gerber Fmt 4.5, Leading zero omitted, Abs format (unit mm)*
G04 Created by KiCad (PCBNEW 9.0.3) date 2025-08-12 14:22:17*
%MOMM*%
%LPD*%
G01*
G04 APERTURE LIST*
%ADD10C,0.050000*%
%ADD11C,0.200000*%
G04 APERTURE END LIST*
D10*
X16006000Y-8481378D02*
X16006000Y-7130000D01*
X13620000Y-9200000D02*
X14450324Y-9200000D01*
X14593934Y-9139199D02*
G75*
G02*
X14450324Y-9200002I-143604J139179D01*
G01*
X16006000Y-8481378D02*
G75*
G02*
X15805379Y-8681379I-200000J-2D01*
G01*
X14980811Y-8740064D02*
G75*
G02*
X15125042Y-8679264I143609J-139196D01*
G01*
X15806000Y-6930000D02*
G75*
G02*
X16006000Y-7130000I0J-200000D01*
G01*
X15806000Y-6930000D02*
X15099703Y-6930000D01*
X15125042Y-8679264D02*
X15805379Y-8681377D01*
X14204407Y-7740660D02*
G75*
G02*
X14063447Y-7799153I-141337J141510D01*
G01*
X14958450Y-6988410D02*
G75*
G02*
X15099703Y-6929998I141260J-141600D01*
G01*
X14204407Y-7740660D02*
X14958450Y-6988410D01*
X14593934Y-9139199D02*
X14980811Y-8740064D01*
X13620000Y-7800000D02*
X14063447Y-7799157D01*
X13237500Y-7875000D02*
X13237500Y-9125000D01*
X13237500Y-7875000D02*
X13420000Y-7875000D01*
X13237500Y-9125000D02*
X13420000Y-9125000D01*
X13420000Y-7800000D02*
X13620000Y-7800000D01*
X13420000Y-7875000D02*
X13420000Y-7800000D01*
X13420000Y-9125000D02*
X13420000Y-9200000D01*
X13420000Y-9200000D02*
X13620000Y-9200000D01*
D11*
X13495777Y-9513986D02*
X13495777Y-9313986D01*
X13495777Y-9313986D02*
X13543396Y-9313986D01*
X13543396Y-9313986D02*
X13571967Y-9323510D01*
X13571967Y-9323510D02*
X13591015Y-9342557D01*
X13591015Y-9342557D02*
X13600539Y-9361605D01*
X13600539Y-9361605D02*
X13610062Y-9399700D01*
X13610062Y-9399700D02*
X13610062Y-9428272D01*
X13610062Y-9428272D02*
X13600539Y-9466367D01*
X13600539Y-9466367D02*
X13591015Y-9485414D01*
X13591015Y-9485414D02*
X13571967Y-9504462D01*
X13571967Y-9504462D02*
X13543396Y-9513986D01*
X13543396Y-9513986D02*
X13495777Y-9513986D01*
X13695777Y-9513986D02*
X13695777Y-9380653D01*
X13695777Y-9418748D02*
X13705301Y-9399700D01*
X13705301Y-9399700D02*
X13714824Y-9390176D01*
X13714824Y-9390176D02*
X13733872Y-9380653D01*
X13733872Y-9380653D02*
X13752920Y-9380653D01*
X13819586Y-9513986D02*
X13819586Y-9380653D01*
X13819586Y-9313986D02*
X13810062Y-9323510D01*
X13810062Y-9323510D02*
X13819586Y-9333034D01*
X13819586Y-9333034D02*
X13829110Y-9323510D01*
X13829110Y-9323510D02*
X13819586Y-9313986D01*
X13819586Y-9313986D02*
X13819586Y-9333034D01*
X13943396Y-9513986D02*
X13924348Y-9504462D01*
X13924348Y-9504462D02*
X13914824Y-9485414D01*
X13914824Y-9485414D02*
X13914824Y-9313986D01*
X14048158Y-9513986D02*
X14029110Y-9504462D01*
X14029110Y-9504462D02*
X14019586Y-9485414D01*
X14019586Y-9485414D02*
X14019586Y-9313986D01*
X14276729Y-9513986D02*
X14276729Y-9313986D01*
X14276729Y-9313986D02*
X14343396Y-9456843D01*
X14343396Y-9456843D02*
X14410062Y-9313986D01*
X14410062Y-9313986D02*
X14410062Y-9513986D01*
X14591015Y-9513986D02*
X14591015Y-9409224D01*
X14591015Y-9409224D02*
X14581491Y-9390176D01*
X14581491Y-9390176D02*
X14562443Y-9380653D01*
X14562443Y-9380653D02*
X14524348Y-9380653D01*
X14524348Y-9380653D02*
X14505301Y-9390176D01*
X14591015Y-9504462D02*
X14571967Y-9513986D01*
X14571967Y-9513986D02*
X14524348Y-9513986D01*
X14524348Y-9513986D02*
X14505301Y-9504462D01*
X14505301Y-9504462D02*
X14495777Y-9485414D01*
X14495777Y-9485414D02*
X14495777Y-9466367D01*
X14495777Y-9466367D02*
X14505301Y-9447319D01*
X14505301Y-9447319D02*
X14524348Y-9437795D01*
X14524348Y-9437795D02*
X14571967Y-9437795D01*
X14571967Y-9437795D02*
X14591015Y-9428272D01*
X14686253Y-9380653D02*
X14686253Y-9580653D01*
X14686253Y-9390176D02*
X14705301Y-9380653D01*
X14705301Y-9380653D02*
X14743396Y-9380653D01*
X14743396Y-9380653D02*
X14762443Y-9390176D01*
X14762443Y-9390176D02*
X14771967Y-9399700D01*
X14771967Y-9399700D02*
X14781491Y-9418748D01*
X14781491Y-9418748D02*
X14781491Y-9475891D01*
X14781491Y-9475891D02*
X14771967Y-9494938D01*
X14771967Y-9494938D02*
X14762443Y-9504462D01*
X14762443Y-9504462D02*
X14743396Y-9513986D01*
X14743396Y-9513986D02*
X14705301Y-9513986D01*
X14705301Y-9513986D02*
X14686253Y-9504462D01*
X14867205Y-9494938D02*
X14876729Y-9504462D01*
X14876729Y-9504462D02*
X14867205Y-9513986D01*
X14867205Y-9513986D02*
X14857682Y-9504462D01*
X14857682Y-9504462D02*
X14867205Y-9494938D01*
X14867205Y-9494938D02*
X14867205Y-9513986D01*
X14867205Y-9390176D02*
X14876729Y-9399700D01*
X14876729Y-9399700D02*
X14867205Y-9409224D01*
X14867205Y-9409224D02*
X14857682Y-9399700D01*
X14857682Y-9399700D02*
X14867205Y-9390176D01*
X14867205Y-9390176D02*
X14867205Y-9409224D01*
M02*
