%TF.GenerationSoftware,KiCad,Pcbnew,9.0.3*%
%TF.CreationDate,2025-08-12T14:22:13+03:00*%
%TF.ProjectId,EVF_extender,4556465f-6578-4746-956e-6465722e6b69,rev?*%
%TF.SameCoordinates,Original*%
%TF.FileFunction,Legend,Top*%
%TF.FilePolarity,Positive*%
%FSLAX46Y46*%
G04 Gerber Fmt 4.6, Leading zero omitted, Abs format (unit mm)*
G04 Created by KiCad (PCBNEW 9.0.3) date 2025-08-12 14:22:13*
%MOMM*%
%LPD*%
G01*
G04 APERTURE LIST*
G04 Aperture macros list*
%AMFreePoly0*
4,1,9,0.275000,0.040000,0.275000,-0.040000,0.230000,-0.090000,0.200000,-0.090000,-0.200000,-0.090000,-0.275000,-0.090000,-0.275000,0.090000,0.230000,0.090000,0.275000,0.040000,0.275000,0.040000,$1*%
%AMFreePoly1*
4,1,7,0.350000,-0.090000,-0.300000,-0.090000,-0.350000,-0.040000,-0.350000,0.040000,-0.300000,0.090000,0.350000,0.090000,0.350000,-0.090000,0.350000,-0.090000,$1*%
G04 Aperture macros list end*
%ADD10C,0.187500*%
%ADD11C,0.150000*%
%ADD12C,0.100000*%
%ADD13FreePoly0,0.000000*%
%ADD14FreePoly1,0.000000*%
%ADD15R,0.800000X0.180000*%
%ADD16R,0.650000X0.180000*%
%ADD17R,0.950000X0.400000*%
G04 APERTURE END LIST*
D10*
X158307869Y-82629048D02*
X159022154Y-82629048D01*
X159022154Y-82629048D02*
X159165011Y-82676667D01*
X159165011Y-82676667D02*
X159260250Y-82771905D01*
X159260250Y-82771905D02*
X159307869Y-82914762D01*
X159307869Y-82914762D02*
X159307869Y-83010000D01*
X159307869Y-81676667D02*
X159307869Y-82152857D01*
X159307869Y-82152857D02*
X158307869Y-82152857D01*
X159212630Y-80771905D02*
X159260250Y-80819524D01*
X159260250Y-80819524D02*
X159307869Y-80962381D01*
X159307869Y-80962381D02*
X159307869Y-81057619D01*
X159307869Y-81057619D02*
X159260250Y-81200476D01*
X159260250Y-81200476D02*
X159165011Y-81295714D01*
X159165011Y-81295714D02*
X159069773Y-81343333D01*
X159069773Y-81343333D02*
X158879297Y-81390952D01*
X158879297Y-81390952D02*
X158736440Y-81390952D01*
X158736440Y-81390952D02*
X158545964Y-81343333D01*
X158545964Y-81343333D02*
X158450726Y-81295714D01*
X158450726Y-81295714D02*
X158355488Y-81200476D01*
X158355488Y-81200476D02*
X158307869Y-81057619D01*
X158307869Y-81057619D02*
X158307869Y-80962381D01*
X158307869Y-80962381D02*
X158355488Y-80819524D01*
X158355488Y-80819524D02*
X158403107Y-80771905D01*
X158307869Y-80057619D02*
X159022154Y-80057619D01*
X159022154Y-80057619D02*
X159165011Y-80105238D01*
X159165011Y-80105238D02*
X159260250Y-80200476D01*
X159260250Y-80200476D02*
X159307869Y-80343333D01*
X159307869Y-80343333D02*
X159307869Y-80438571D01*
X159307869Y-79105238D02*
X159307869Y-79581428D01*
X159307869Y-79581428D02*
X158307869Y-79581428D01*
X159212630Y-78200476D02*
X159260250Y-78248095D01*
X159260250Y-78248095D02*
X159307869Y-78390952D01*
X159307869Y-78390952D02*
X159307869Y-78486190D01*
X159307869Y-78486190D02*
X159260250Y-78629047D01*
X159260250Y-78629047D02*
X159165011Y-78724285D01*
X159165011Y-78724285D02*
X159069773Y-78771904D01*
X159069773Y-78771904D02*
X158879297Y-78819523D01*
X158879297Y-78819523D02*
X158736440Y-78819523D01*
X158736440Y-78819523D02*
X158545964Y-78771904D01*
X158545964Y-78771904D02*
X158450726Y-78724285D01*
X158450726Y-78724285D02*
X158355488Y-78629047D01*
X158355488Y-78629047D02*
X158307869Y-78486190D01*
X158307869Y-78486190D02*
X158307869Y-78390952D01*
X158307869Y-78390952D02*
X158355488Y-78248095D01*
X158355488Y-78248095D02*
X158403107Y-78200476D01*
X158307869Y-77486190D02*
X159022154Y-77486190D01*
X159022154Y-77486190D02*
X159165011Y-77533809D01*
X159165011Y-77533809D02*
X159260250Y-77629047D01*
X159260250Y-77629047D02*
X159307869Y-77771904D01*
X159307869Y-77771904D02*
X159307869Y-77867142D01*
X159307869Y-76533809D02*
X159307869Y-77009999D01*
X159307869Y-77009999D02*
X158307869Y-77009999D01*
X159212630Y-75629047D02*
X159260250Y-75676666D01*
X159260250Y-75676666D02*
X159307869Y-75819523D01*
X159307869Y-75819523D02*
X159307869Y-75914761D01*
X159307869Y-75914761D02*
X159260250Y-76057618D01*
X159260250Y-76057618D02*
X159165011Y-76152856D01*
X159165011Y-76152856D02*
X159069773Y-76200475D01*
X159069773Y-76200475D02*
X158879297Y-76248094D01*
X158879297Y-76248094D02*
X158736440Y-76248094D01*
X158736440Y-76248094D02*
X158545964Y-76200475D01*
X158545964Y-76200475D02*
X158450726Y-76152856D01*
X158450726Y-76152856D02*
X158355488Y-76057618D01*
X158355488Y-76057618D02*
X158307869Y-75914761D01*
X158307869Y-75914761D02*
X158307869Y-75819523D01*
X158307869Y-75819523D02*
X158355488Y-75676666D01*
X158355488Y-75676666D02*
X158403107Y-75629047D01*
X158307869Y-74914761D02*
X159022154Y-74914761D01*
X159022154Y-74914761D02*
X159165011Y-74962380D01*
X159165011Y-74962380D02*
X159260250Y-75057618D01*
X159260250Y-75057618D02*
X159307869Y-75200475D01*
X159307869Y-75200475D02*
X159307869Y-75295713D01*
X159307869Y-73962380D02*
X159307869Y-74438570D01*
X159307869Y-74438570D02*
X158307869Y-74438570D01*
X159212630Y-73057618D02*
X159260250Y-73105237D01*
X159260250Y-73105237D02*
X159307869Y-73248094D01*
X159307869Y-73248094D02*
X159307869Y-73343332D01*
X159307869Y-73343332D02*
X159260250Y-73486189D01*
X159260250Y-73486189D02*
X159165011Y-73581427D01*
X159165011Y-73581427D02*
X159069773Y-73629046D01*
X159069773Y-73629046D02*
X158879297Y-73676665D01*
X158879297Y-73676665D02*
X158736440Y-73676665D01*
X158736440Y-73676665D02*
X158545964Y-73629046D01*
X158545964Y-73629046D02*
X158450726Y-73581427D01*
X158450726Y-73581427D02*
X158355488Y-73486189D01*
X158355488Y-73486189D02*
X158307869Y-73343332D01*
X158307869Y-73343332D02*
X158307869Y-73248094D01*
X158307869Y-73248094D02*
X158355488Y-73105237D01*
X158355488Y-73105237D02*
X158403107Y-73057618D01*
D11*
X134016666Y-76134819D02*
X134016666Y-76849104D01*
X134016666Y-76849104D02*
X133969047Y-76991961D01*
X133969047Y-76991961D02*
X133873809Y-77087200D01*
X133873809Y-77087200D02*
X133730952Y-77134819D01*
X133730952Y-77134819D02*
X133635714Y-77134819D01*
X134921428Y-76468152D02*
X134921428Y-77134819D01*
X134683333Y-76087200D02*
X134445238Y-76801485D01*
X134445238Y-76801485D02*
X135064285Y-76801485D01*
X155236666Y-65304819D02*
X155236666Y-66019104D01*
X155236666Y-66019104D02*
X155189047Y-66161961D01*
X155189047Y-66161961D02*
X155093809Y-66257200D01*
X155093809Y-66257200D02*
X154950952Y-66304819D01*
X154950952Y-66304819D02*
X154855714Y-66304819D01*
X155617619Y-65304819D02*
X156236666Y-65304819D01*
X156236666Y-65304819D02*
X155903333Y-65685771D01*
X155903333Y-65685771D02*
X156046190Y-65685771D01*
X156046190Y-65685771D02*
X156141428Y-65733390D01*
X156141428Y-65733390D02*
X156189047Y-65781009D01*
X156189047Y-65781009D02*
X156236666Y-65876247D01*
X156236666Y-65876247D02*
X156236666Y-66114342D01*
X156236666Y-66114342D02*
X156189047Y-66209580D01*
X156189047Y-66209580D02*
X156141428Y-66257200D01*
X156141428Y-66257200D02*
X156046190Y-66304819D01*
X156046190Y-66304819D02*
X155760476Y-66304819D01*
X155760476Y-66304819D02*
X155665238Y-66257200D01*
X155665238Y-66257200D02*
X155617619Y-66209580D01*
%LPC*%
D12*
%TO.C,J4*%
X134010000Y-91250000D02*
X132370000Y-91250000D01*
X132370000Y-78750000D01*
X134010000Y-78750000D01*
X134010000Y-91250000D01*
G36*
X134010000Y-91250000D02*
G01*
X132370000Y-91250000D01*
X132370000Y-78750000D01*
X134010000Y-78750000D01*
X134010000Y-91250000D01*
G37*
%TD*%
D13*
%TO.C,J4*%
X132850000Y-79000000D03*
D14*
X133500000Y-79200000D03*
D13*
X132850000Y-79400000D03*
D14*
X133500000Y-79600000D03*
D13*
X132850000Y-79800000D03*
D14*
X133500000Y-80000000D03*
D13*
X132850000Y-80200000D03*
D14*
X133500000Y-80400000D03*
D13*
X132850000Y-80600000D03*
D14*
X133500000Y-80800000D03*
D13*
X132850000Y-81000000D03*
D14*
X133500000Y-81200000D03*
D13*
X132850000Y-81400000D03*
D14*
X133500000Y-81600000D03*
D13*
X132850000Y-81800000D03*
D14*
X133500000Y-82000000D03*
D13*
X132850000Y-82200000D03*
D14*
X133500000Y-82400000D03*
D13*
X132850000Y-82600000D03*
D14*
X133500000Y-82800000D03*
D13*
X132850000Y-83000000D03*
D14*
X133500000Y-83200000D03*
D13*
X132850000Y-83400000D03*
D14*
X133500000Y-83600000D03*
D13*
X132850000Y-83800000D03*
D14*
X133500000Y-84000000D03*
D13*
X132850000Y-84200000D03*
D14*
X133500000Y-84400000D03*
D13*
X132850000Y-84600000D03*
D14*
X133500000Y-84800000D03*
D13*
X132850000Y-85000000D03*
D14*
X133500000Y-85200000D03*
D13*
X132850000Y-85400000D03*
D14*
X133500000Y-85600000D03*
D13*
X132850000Y-85800000D03*
D14*
X133500000Y-86000000D03*
D13*
X132850000Y-86200000D03*
D14*
X133500000Y-86400000D03*
D13*
X132850000Y-86600000D03*
D14*
X133500000Y-86800000D03*
D13*
X132850000Y-87000000D03*
D14*
X133500000Y-87200000D03*
D13*
X132850000Y-87400000D03*
D14*
X133500000Y-87600000D03*
D13*
X132850000Y-87800000D03*
D14*
X133500000Y-88000000D03*
D13*
X132850000Y-88200000D03*
D14*
X133500000Y-88400000D03*
D13*
X132850000Y-88600000D03*
D14*
X133500000Y-88800000D03*
D13*
X132850000Y-89000000D03*
D14*
X133500000Y-89200000D03*
D13*
X132850000Y-89400000D03*
D14*
X133500000Y-89600000D03*
D13*
X132850000Y-89800000D03*
D14*
X133500000Y-90000000D03*
D13*
X132850000Y-90200000D03*
D14*
X133500000Y-90400000D03*
D13*
X132850000Y-90600000D03*
D14*
X133500000Y-90800000D03*
D13*
X132850000Y-91000000D03*
%TD*%
D15*
%TO.C,J3*%
X157010000Y-84000000D03*
D16*
X154135000Y-83800000D03*
D15*
X157010000Y-83600000D03*
D16*
X154135000Y-83400000D03*
D15*
X157010000Y-83200000D03*
D16*
X154135000Y-83000000D03*
D15*
X157010000Y-82800000D03*
D16*
X154135000Y-82600000D03*
D15*
X157010000Y-82400000D03*
D16*
X154135000Y-82200000D03*
D15*
X157010000Y-82000000D03*
D16*
X154135000Y-81800000D03*
D15*
X157010000Y-81600000D03*
D16*
X154135000Y-81400000D03*
D15*
X157010000Y-81200000D03*
D16*
X154135000Y-81000000D03*
D15*
X157010000Y-80800000D03*
D16*
X154135000Y-80600000D03*
D15*
X157010000Y-80400000D03*
D16*
X154135000Y-80200000D03*
D15*
X157010000Y-80000000D03*
D16*
X154135000Y-79800000D03*
D15*
X157010000Y-79600000D03*
D16*
X154135000Y-79400000D03*
D15*
X157010000Y-79200000D03*
D16*
X154135000Y-79000000D03*
D15*
X157010000Y-78800000D03*
D16*
X154135000Y-78600000D03*
D15*
X157010000Y-78400000D03*
D16*
X154135000Y-78200000D03*
D15*
X157010000Y-78000000D03*
D16*
X154135000Y-77800000D03*
D15*
X157010000Y-77600000D03*
D16*
X154135000Y-77400000D03*
D15*
X157010000Y-77200000D03*
D16*
X154135000Y-77000000D03*
D15*
X157010000Y-76800000D03*
D16*
X154135000Y-76600000D03*
D15*
X157010000Y-76400000D03*
D16*
X154135000Y-76200000D03*
D15*
X157010000Y-76000000D03*
D16*
X154135000Y-75800000D03*
D15*
X157010000Y-75600000D03*
D16*
X154135000Y-75400000D03*
D15*
X157010000Y-75200000D03*
D16*
X154135000Y-75000000D03*
D15*
X157010000Y-74800000D03*
D16*
X154135000Y-74600000D03*
D15*
X157010000Y-74400000D03*
D16*
X154135000Y-74200000D03*
D15*
X157010000Y-74000000D03*
D16*
X154135000Y-73800000D03*
D15*
X157010000Y-73600000D03*
D16*
X154135000Y-73400000D03*
D15*
X157010000Y-73200000D03*
D16*
X154135000Y-73000000D03*
D15*
X157010000Y-72800000D03*
D16*
X154135000Y-72600000D03*
D15*
X157010000Y-72400000D03*
D16*
X154135000Y-72200000D03*
D15*
X157010000Y-72000000D03*
D17*
X156735000Y-84700000D03*
X156735000Y-71300000D03*
%TD*%
%LPD*%
M02*
