%TF.GenerationSoftware,KiCad,Pcbnew,9.0.3*%
%TF.CreationDate,2025-08-12T14:22:13+03:00*%
%TF.ProjectId,EVF_extender,4556465f-6578-4746-956e-6465722e6b69,rev?*%
%TF.SameCoordinates,Original*%
%TF.FileFunction,Copper,L2,Bot*%
%TF.FilePolarity,Positive*%
%FSLAX46Y46*%
G04 Gerber Fmt 4.6, Leading zero omitted, Abs format (unit mm)*
G04 Created by KiCad (PCBNEW 9.0.3) date 2025-08-12 14:22:13*
%MOMM*%
%LPD*%
G01*
G04 APERTURE LIST*
G04 APERTURE END LIST*
%TA.AperFunction,NonConductor*%
G36*
X158064043Y-69500765D02*
G01*
X158286790Y-69515364D01*
X158302848Y-69517479D01*
X158488875Y-69554482D01*
X158517771Y-69560230D01*
X158533438Y-69564428D01*
X158686569Y-69616409D01*
X158740944Y-69634867D01*
X158755921Y-69641070D01*
X158946791Y-69735196D01*
X158952460Y-69737992D01*
X158966508Y-69746102D01*
X159148712Y-69867848D01*
X159161573Y-69877716D01*
X159266495Y-69969730D01*
X159326328Y-70022202D01*
X159337797Y-70033671D01*
X159382422Y-70084556D01*
X159448160Y-70159517D01*
X159482280Y-70198423D01*
X159492154Y-70211291D01*
X159613897Y-70393492D01*
X159622007Y-70407539D01*
X159718926Y-70604071D01*
X159725133Y-70619057D01*
X159795571Y-70826561D01*
X159799769Y-70842228D01*
X159842518Y-71057140D01*
X159844636Y-71073221D01*
X159859235Y-71295956D01*
X159859500Y-71304066D01*
X159859500Y-84809706D01*
X159859234Y-84817831D01*
X159844579Y-85041005D01*
X159842453Y-85057117D01*
X159799538Y-85272440D01*
X159795324Y-85288136D01*
X159724615Y-85496004D01*
X159718384Y-85511015D01*
X159621093Y-85707855D01*
X159612952Y-85721921D01*
X159490760Y-85904336D01*
X159480850Y-85917217D01*
X159335844Y-86082092D01*
X159324334Y-86093566D01*
X159159020Y-86238053D01*
X159146109Y-86247923D01*
X158963300Y-86369561D01*
X158949210Y-86377657D01*
X158752081Y-86474333D01*
X158737055Y-86480516D01*
X158528966Y-86550582D01*
X158513258Y-86554748D01*
X158297791Y-86596999D01*
X158281672Y-86599074D01*
X158058771Y-86613018D01*
X158050644Y-86613259D01*
X158050643Y-86613258D01*
X158050643Y-86613259D01*
X158050365Y-86613258D01*
X158014207Y-86613146D01*
X151302283Y-86592300D01*
X151302225Y-86592282D01*
X151235273Y-86592092D01*
X151235243Y-86592092D01*
X151211157Y-86592018D01*
X151211139Y-86592024D01*
X151199509Y-86591992D01*
X151199508Y-86591991D01*
X151151638Y-86591858D01*
X151124516Y-86591783D01*
X151124508Y-86591783D01*
X151123845Y-86591782D01*
X151056860Y-86571911D01*
X151011252Y-86518980D01*
X151000189Y-86467715D01*
X151009820Y-69624428D01*
X151029543Y-69557401D01*
X151082373Y-69511676D01*
X151133820Y-69500500D01*
X158020118Y-69500500D01*
X158055933Y-69500500D01*
X158064043Y-69500765D01*
G37*
%TD.AperFunction*%
%TA.AperFunction,NonConductor*%
G36*
X135953039Y-78220185D02*
G01*
X135998794Y-78272989D01*
X136010000Y-78324500D01*
X136010000Y-91675500D01*
X135990315Y-91742539D01*
X135937511Y-91788294D01*
X135886000Y-91799500D01*
X134524500Y-91799500D01*
X134457461Y-91779815D01*
X134411706Y-91727011D01*
X134400500Y-91675500D01*
X134400500Y-91210119D01*
X134400499Y-91210116D01*
X134369976Y-91136426D01*
X134313574Y-91080024D01*
X134239883Y-91049500D01*
X134239882Y-91049500D01*
X132699500Y-91049500D01*
X132632461Y-91029815D01*
X132586706Y-90977011D01*
X132575500Y-90925500D01*
X132575500Y-79074500D01*
X132595185Y-79007461D01*
X132647989Y-78961706D01*
X132699500Y-78950500D01*
X134239880Y-78950500D01*
X134239882Y-78950500D01*
X134313574Y-78919976D01*
X134369976Y-78863574D01*
X134400500Y-78789882D01*
X134400500Y-78324500D01*
X134420185Y-78257461D01*
X134472989Y-78211706D01*
X134524500Y-78200500D01*
X135886000Y-78200500D01*
X135953039Y-78220185D01*
G37*
%TD.AperFunction*%
M02*
